<svg width="168" height="155" viewBox="0 0 168 155" fill="none" xmlns="http://www.w3.org/2000/svg">
<g clip-path="url(#clip0_1_2)">
<path d="M100.005 59.786C98.2419 55.4446 95.551 51.5412 92.1208 48.349C88.6906 45.1569 84.604 42.7532 80.1473 41.3063C75.6906 39.8594 70.9714 39.4042 66.3203 39.9727C61.6692 40.5412 57.1985 42.1197 53.2215 44.5974C49.2445 47.0752 45.8572 50.3925 43.2969 54.3168C40.7366 58.2412 39.0651 62.6779 38.3995 67.3161C37.734 71.9543 38.0904 76.682 39.4439 81.168C40.7974 85.654 43.1152 89.7899 46.235 93.286C50.3774 97.9954 52.5472 104.119 52.294 110.386C52.266 111.219 52.2623 112.057 52.283 112.901C52.7043 123.997 57.3728 134.507 65.3234 142.258C73.2741 150.009 83.899 154.41 95.002 154.549C104.757 154.544 114.217 151.2 121.807 145.072C129.398 138.945 134.663 130.403 136.725 120.869C138.788 111.334 137.524 101.381 133.145 92.6636C128.765 83.9467 121.534 76.9916 112.653 72.955C106.908 70.3448 102.381 65.632 100.005 59.786Z" fill="#F4F4F4"/>
<path d="M152.831 70.527C152.593 70.5274 152.358 70.4808 152.138 70.3899C151.919 70.2989 151.72 70.1654 151.552 69.997L147.575 66.02C147.407 65.852 147.274 65.6525 147.183 65.433C147.092 65.2134 147.045 64.9781 147.045 64.7405C147.045 64.5028 147.092 64.2675 147.183 64.048C147.274 63.8284 147.407 63.629 147.575 63.461L151.552 59.484C151.72 59.3159 151.919 59.1826 152.139 59.0916C152.359 59.0006 152.594 58.9538 152.831 58.9538C153.069 58.9538 153.304 59.0006 153.524 59.0916C153.744 59.1826 153.943 59.3159 154.111 59.484L158.088 63.461C158.256 63.629 158.389 63.8284 158.48 64.048C158.571 64.2675 158.618 64.5028 158.618 64.7405C158.618 64.9781 158.571 65.2134 158.48 65.433C158.389 65.6525 158.256 65.852 158.088 66.02L154.111 69.997C153.943 70.1654 153.744 70.2989 153.524 70.3899C153.305 70.4808 153.07 70.5274 152.832 70.527H152.831ZM151.413 64.743L152.831 66.161L154.249 64.743L152.831 63.325L151.413 64.743Z" fill="#E6E6E6"/>
<path d="M117.846 11.594C117.366 11.594 116.906 11.4034 116.567 11.0642C116.228 10.7249 116.037 10.2648 116.037 9.785C116.036 9.20733 115.806 8.65356 115.398 8.24509C114.989 7.83662 114.436 7.60679 113.858 7.606C113.378 7.606 112.918 7.41541 112.579 7.07616C112.24 6.7369 112.049 6.27677 112.049 5.797C112.049 5.31722 112.24 4.8571 112.579 4.51785C112.918 4.17859 113.378 3.988 113.858 3.988C114.436 3.98721 114.989 3.75738 115.398 3.34891C115.806 2.94044 116.036 2.38666 116.037 1.809C116.037 1.32922 116.228 0.869096 116.567 0.529842C116.906 0.190589 117.366 0 117.846 0C118.326 0 118.786 0.190589 119.125 0.529842C119.464 0.869096 119.655 1.32922 119.655 1.809C119.656 2.38674 119.885 2.94067 120.294 3.3492C120.702 3.75772 121.256 3.98747 121.834 3.988C122.314 3.988 122.774 4.17859 123.113 4.51785C123.452 4.8571 123.643 5.31722 123.643 5.797C123.643 6.27677 123.452 6.7369 123.113 7.07616C122.774 7.41541 122.314 7.606 121.834 7.606C121.256 7.60679 120.703 7.83662 120.294 8.24509C119.886 8.65356 119.656 9.20733 119.655 9.785C119.655 10.2648 119.464 10.7249 119.125 11.0642C118.786 11.4034 118.326 11.594 117.846 11.594Z" fill="#CECECE"/>
<path d="M80.508 67.747C80.508 67.747 76.308 56.436 89.472 41.016C102.636 25.596 123.8 40.678 134.436 41.016C145.072 41.354 156.327 38.484 164.036 24.016" stroke="#707070" stroke-dasharray="4 4"/>
<path d="M165.957 27.554C165.744 27.5543 165.533 27.5125 165.336 27.431C165.139 27.3494 164.96 27.2298 164.81 27.079L160.223 22.492C160.072 22.3414 159.953 22.1625 159.871 21.9657C159.79 21.7689 159.748 21.558 159.748 21.345C159.748 21.132 159.79 20.921 159.871 20.7242C159.953 20.5274 160.072 20.3486 160.223 20.198C160.374 20.0474 160.552 19.9279 160.749 19.8464C160.946 19.7648 161.157 19.7229 161.37 19.7229C161.583 19.7229 161.794 19.7648 161.991 19.8464C162.188 19.9279 162.366 20.0474 162.517 20.198L167.104 24.785C167.331 25.0118 167.485 25.3009 167.548 25.6155C167.611 25.9302 167.578 26.2563 167.456 26.5527C167.333 26.8491 167.125 27.1024 166.858 27.2807C166.591 27.4589 166.278 27.554 165.957 27.554Z" fill="#707070"/>
<path d="M161.369 27.554C161.582 27.5543 161.793 27.5125 161.99 27.431C162.187 27.3494 162.366 27.2298 162.516 27.079L167.103 22.492C167.254 22.3414 167.373 22.1625 167.455 21.9657C167.536 21.7689 167.578 21.558 167.578 21.345C167.578 21.132 167.536 20.921 167.455 20.7242C167.373 20.5274 167.254 20.3486 167.103 20.198C166.952 20.0474 166.774 19.9279 166.577 19.8464C166.38 19.7648 166.169 19.7229 165.956 19.7229C165.743 19.7229 165.532 19.7648 165.335 19.8464C165.138 19.9279 164.96 20.0474 164.809 20.198L160.222 24.785C159.995 25.0118 159.841 25.3009 159.778 25.6155C159.715 25.9302 159.748 26.2563 159.87 26.5527C159.993 26.8491 160.201 27.1024 160.468 27.2807C160.735 27.4589 161.048 27.554 161.369 27.554Z" fill="#707070"/>
<path d="M13.49 96.719C13.2524 96.719 13.0172 96.6722 12.7977 96.5813C12.5782 96.4904 12.3788 96.3571 12.2108 96.1891C12.0429 96.0212 11.9096 95.8217 11.8187 95.6023C11.7278 95.3828 11.681 95.1475 11.681 94.91C11.6802 94.3323 11.4504 93.7786 11.0419 93.3701C10.6334 92.9616 10.0797 92.7318 9.50199 92.731C9.02221 92.731 8.56209 92.5404 8.22284 92.2011C7.88358 91.8619 7.69299 91.4018 7.69299 90.922C7.69299 90.4422 7.88358 89.9821 8.22284 89.6428C8.56209 89.3036 9.02221 89.113 9.50199 89.113C10.0797 89.1122 10.6334 88.8824 11.0419 88.4739C11.4504 88.0654 11.6802 87.5117 11.681 86.934C11.681 86.4542 11.8716 85.9941 12.2108 85.6548C12.5501 85.3156 13.0102 85.125 13.49 85.125C13.9698 85.125 14.4299 85.3156 14.7691 85.6548C15.1084 85.9941 15.299 86.4542 15.299 86.934C15.2998 87.5117 15.5296 88.0654 15.9381 88.4739C16.3466 88.8824 16.9003 89.1122 17.478 89.113C17.9578 89.113 18.4179 89.3036 18.7571 89.6428C19.0964 89.9821 19.287 90.4422 19.287 90.922C19.287 91.4018 19.0964 91.8619 18.7571 92.2011C18.4179 92.5404 17.9578 92.731 17.478 92.731C16.9002 92.7315 16.3463 92.9613 15.9378 93.3698C15.5293 93.7783 15.2995 94.3322 15.299 94.91C15.299 95.1475 15.2522 95.3828 15.1613 95.6023C15.0704 95.8217 14.9371 96.0212 14.7691 96.1891C14.6012 96.3571 14.4017 96.4904 14.1823 96.5813C13.9628 96.6722 13.7276 96.719 13.49 96.719Z" fill="#E6E6E6"/>
<path d="M5.797 130.149C5.31722 130.149 4.8571 129.958 4.51785 129.619C4.17859 129.28 3.988 128.82 3.988 128.34C3.98721 127.762 3.75738 127.209 3.34891 126.8C2.94044 126.392 2.38666 126.162 1.809 126.161C1.32923 126.161 0.869096 125.97 0.529842 125.631C0.190589 125.292 0 124.832 0 124.352C0 123.872 0.190589 123.412 0.529842 123.073C0.869096 122.734 1.32923 122.543 1.809 122.543C2.38666 122.542 2.94044 122.312 3.34891 121.904C3.75738 121.495 3.98721 120.942 3.988 120.364C3.988 119.884 4.17859 119.424 4.51785 119.085C4.8571 118.746 5.31722 118.555 5.797 118.555C6.27678 118.555 6.7369 118.746 7.07616 119.085C7.41541 119.424 7.606 119.884 7.606 120.364C7.60679 120.942 7.83662 121.495 8.24509 121.904C8.65356 122.312 9.20734 122.542 9.785 122.543C10.2648 122.543 10.7249 122.734 11.0642 123.073C11.4034 123.412 11.594 123.872 11.594 124.352C11.594 124.832 11.4034 125.292 11.0642 125.631C10.7249 125.97 10.2648 126.161 9.785 126.161C9.20726 126.162 8.65333 126.391 8.2448 126.8C7.83627 127.208 7.60653 127.762 7.606 128.34C7.606 128.82 7.41541 129.28 7.07616 129.619C6.7369 129.958 6.27678 130.149 5.797 130.149Z" fill="#CECECE"/>
<path d="M34.085 57.79C33.935 57.7894 33.7913 57.7298 33.685 57.624L32.439 56.378C32.3337 56.2715 32.2747 56.1277 32.2747 55.978C32.2747 55.8282 32.3337 55.6845 32.439 55.578L33.685 54.332C33.7915 54.2267 33.9352 54.1677 34.085 54.1677C34.2347 54.1677 34.3785 54.2267 34.485 54.332L35.731 55.578C35.8363 55.6845 35.8953 55.8282 35.8953 55.978C35.8953 56.1277 35.8363 56.2715 35.731 56.378L34.485 57.629C34.3779 57.7329 34.2343 57.7908 34.085 57.79ZM33.642 55.973L34.085 56.416L34.528 55.973L34.085 55.535L33.642 55.973Z" fill="#60D2FA" fill-opacity="0.7"/>
<path d="M119.671 128.164H34.494C33.5403 128.16 32.6268 127.78 31.9525 127.105C31.2782 126.431 30.8977 125.518 30.894 124.564V57.806C30.8977 56.8523 31.2782 55.9388 31.9525 55.2645C32.6268 54.5901 33.5403 54.2097 34.494 54.206H119.667C120.621 54.2097 121.534 54.5901 122.208 55.2645C122.883 55.9388 123.263 56.8523 123.267 57.806V124.606C123.265 125.076 123.17 125.541 122.987 125.974C122.805 126.408 122.539 126.801 122.205 127.131C121.87 127.462 121.474 127.723 121.039 127.9C120.603 128.078 120.137 128.167 119.667 128.164H119.671Z" fill="#E2E2E2" stroke="#AFAFAF" stroke-width="3"/>
<path d="M123.275 64.661H30.894V57.761C30.8977 56.8073 31.2782 55.8938 31.9525 55.2195C32.6268 54.5451 33.5403 54.1647 34.494 54.161H119.667C120.621 54.1647 121.534 54.5451 122.208 55.2195C122.883 55.8938 123.263 56.8073 123.267 57.761L123.275 64.661Z" fill="#E2E2E2" stroke="#AFAFAF" stroke-width="3"/>
<path d="M39.947 61.232C40.9416 61.232 41.748 60.4256 41.748 59.431C41.748 58.4363 40.9416 57.63 39.947 57.63C38.9523 57.63 38.146 58.4363 38.146 59.431C38.146 60.4256 38.9523 61.232 39.947 61.232Z" fill="#AFAFAF"/>
<path d="M46.208 61.232C47.2026 61.232 48.009 60.4256 48.009 59.431C48.009 58.4363 47.2026 57.63 46.208 57.63C45.2133 57.63 44.407 58.4363 44.407 59.431C44.407 60.4256 45.2133 61.232 46.208 61.232Z" fill="#AFAFAF"/>
<path d="M52.469 61.232C53.4636 61.232 54.27 60.4256 54.27 59.431C54.27 58.4363 53.4636 57.63 52.469 57.63C51.4743 57.63 50.668 58.4363 50.668 59.431C50.668 60.4256 51.4743 61.232 52.469 61.232Z" fill="#AFAFAF"/>
<path d="M81.97 80.97H72.624C72.2935 80.97 71.9766 80.8387 71.7429 80.605C71.5093 80.3714 71.378 80.0544 71.378 79.724V70.378C71.378 70.0475 71.5093 69.7306 71.7429 69.4969C71.9766 69.2632 72.2935 69.132 72.624 69.132H81.97C82.3005 69.132 82.6174 69.2632 82.851 69.4969C83.0847 69.7306 83.216 70.0475 83.216 70.378V79.724C83.216 80.0544 83.0847 80.3714 82.851 80.605C82.6174 80.8387 82.3005 80.97 81.97 80.97ZM75.717 74.47C75.5654 74.4702 75.42 74.5306 75.3128 74.6378C75.2056 74.745 75.1453 74.8904 75.145 75.042V77.708C75.1453 77.8596 75.2056 78.0049 75.3128 78.1121C75.42 78.2194 75.5654 78.2797 75.717 78.28H79.147C79.2984 78.2794 79.4435 78.219 79.5505 78.1118C79.6575 78.0046 79.7177 77.8594 79.718 77.708V75.04C79.7177 74.8885 79.6575 74.7433 79.5505 74.6362C79.4435 74.529 79.2984 74.4685 79.147 74.468H78.955V73.705C78.9448 73.3074 78.7797 72.9296 78.4949 72.652C78.2101 72.3744 77.8282 72.219 77.4305 72.219C77.0328 72.219 76.6508 72.3744 76.366 72.652C76.0813 72.9296 75.9162 73.3074 75.906 73.705V74.468L75.717 74.47ZM79.147 77.9H75.716C75.6653 77.9 75.6168 77.8798 75.5809 77.844C75.5451 77.8082 75.525 77.7596 75.525 77.709V75.04C75.525 74.9893 75.5451 74.9407 75.5809 74.9049C75.6168 74.8691 75.6653 74.849 75.716 74.849H79.146C79.1966 74.849 79.2452 74.8691 79.281 74.9049C79.3169 74.9407 79.337 74.9893 79.337 75.04V77.708C79.337 77.7585 79.317 77.8069 79.2814 77.8427C79.2458 77.8785 79.1975 77.8997 79.147 77.9ZM77.431 75.487C77.313 75.4868 77.1987 75.5277 77.1076 75.6027C77.0165 75.6776 76.9543 75.7819 76.9317 75.8977C76.9091 76.0135 76.9275 76.1335 76.9838 76.2372C77.04 76.3409 77.1306 76.4218 77.24 76.466V77.074C77.2435 77.1221 77.2651 77.1671 77.3004 77.2C77.3357 77.2329 77.3822 77.2512 77.4305 77.2512C77.4788 77.2512 77.5252 77.2329 77.5606 77.2C77.5959 77.1671 77.6175 77.1221 77.621 77.074V76.466C77.7304 76.4218 77.8209 76.3409 77.8772 76.2372C77.9334 76.1335 77.9519 76.0135 77.9293 75.8977C77.9067 75.7819 77.8445 75.6776 77.7534 75.6027C77.6623 75.5277 77.549 75.4868 77.431 75.487ZM77.431 76.122C77.4063 76.122 77.3821 76.1146 77.3615 76.1009C77.341 76.0872 77.325 76.0676 77.3155 76.0448C77.306 76.022 77.3036 75.9968 77.3084 75.9726C77.3132 75.9483 77.3251 75.9261 77.3426 75.9086C77.3601 75.8911 77.3824 75.8792 77.4066 75.8744C77.4309 75.8696 77.456 75.872 77.4788 75.8815C77.5017 75.8909 77.5212 75.907 77.5349 75.9275C77.5487 75.9481 77.556 75.9723 77.556 75.997C77.556 76.0301 77.5428 76.0619 77.5194 76.0854C77.4959 76.1088 77.4641 76.122 77.431 76.122ZM78.578 74.471H76.288V73.705C76.288 73.4017 76.4085 73.1108 76.6229 72.8964C76.8374 72.6819 77.1282 72.5615 77.4315 72.5615C77.7348 72.5615 78.0256 72.6819 78.2401 72.8964C78.4545 73.1108 78.575 73.4017 78.575 73.705V74.467L78.578 74.471Z" fill="white"/>
<path d="M99.806 113.891H54.806C53.7014 113.891 52.806 114.786 52.806 115.891V120.891C52.806 121.996 53.7014 122.891 54.806 122.891H99.806C100.911 122.891 101.806 121.996 101.806 120.891V115.891C101.806 114.786 100.911 113.891 99.806 113.891Z" fill="white"/>
<path d="M53.933 99.038H100.661C100.991 99.038 101.308 99.1693 101.542 99.4029C101.776 99.6366 101.907 99.9535 101.907 100.284V105.891C101.907 106.055 101.875 106.217 101.812 106.368C101.75 106.519 101.658 106.657 101.542 106.773C101.427 106.888 101.289 106.98 101.138 107.043C100.987 107.106 100.825 107.138 100.661 107.138H53.933C53.7693 107.138 53.6072 107.106 53.4559 107.043C53.3047 106.98 53.1673 106.888 53.0516 106.773C52.9359 106.657 52.8441 106.519 52.7815 106.368C52.719 106.217 52.6869 106.055 52.687 105.891V100.284C52.687 99.9535 52.8183 99.6366 53.0519 99.4029C53.2856 99.1693 53.6025 99.038 53.933 99.038Z" fill="#C6C6C6"/>
<path d="M57.305 104.892C58.1334 104.892 58.805 104.22 58.805 103.392C58.805 102.564 58.1334 101.892 57.305 101.892C56.4766 101.892 55.805 102.564 55.805 103.392C55.805 104.22 56.4766 104.892 57.305 104.892Z" fill="#F1F1F1"/>
<path d="M69.305 104.892C70.1334 104.892 70.805 104.22 70.805 103.392C70.805 102.564 70.1334 101.892 69.305 101.892C68.4766 101.892 67.805 102.564 67.805 103.392C67.805 104.22 68.4766 104.892 69.305 104.892Z" fill="#F1F1F1"/>
<path d="M61.305 104.892C62.1334 104.892 62.805 104.22 62.805 103.392C62.805 102.564 62.1334 101.892 61.305 101.892C60.4766 101.892 59.805 102.564 59.805 103.392C59.805 104.22 60.4766 104.892 61.305 104.892Z" fill="#F1F1F1"/>
<path d="M73.305 104.892C74.1334 104.892 74.805 104.22 74.805 103.392C74.805 102.564 74.1334 101.892 73.305 101.892C72.4766 101.892 71.805 102.564 71.805 103.392C71.805 104.22 72.4766 104.892 73.305 104.892Z" fill="#F1F1F1"/>
<path d="M65.305 104.892C66.1334 104.892 66.805 104.22 66.805 103.392C66.805 102.564 66.1334 101.892 65.305 101.892C64.4766 101.892 63.805 102.564 63.805 103.392C63.805 104.22 64.4766 104.892 65.305 104.892Z" fill="#F1F1F1"/>
<path d="M77.305 104.892C78.1334 104.892 78.805 104.22 78.805 103.392C78.805 102.564 78.1334 101.892 77.305 101.892C76.4766 101.892 75.805 102.564 75.805 103.392C75.805 104.22 76.4766 104.892 77.305 104.892Z" fill="#F1F1F1"/>
<path opacity="0.54" d="M99.805 86.891H54.805C53.7004 86.891 52.805 87.7864 52.805 88.891V93.891C52.805 94.9955 53.7004 95.891 54.805 95.891H99.805C100.91 95.891 101.805 94.9955 101.805 93.891V88.891C101.805 87.7864 100.91 86.891 99.805 86.891Z" fill="#AFAFAF"/>
<path d="M57.36 90.315H81.035C81.2428 90.3097 81.4496 90.3461 81.6432 90.422C81.8368 90.4979 82.0132 90.6118 82.1621 90.7569C82.311 90.9021 82.4293 91.0756 82.51 91.2672C82.5908 91.4587 82.6325 91.6646 82.6325 91.8725C82.6325 92.0804 82.5908 92.2862 82.51 92.4778C82.4293 92.6694 82.311 92.8429 82.1621 92.988C82.0132 93.1332 81.8368 93.247 81.6432 93.3229C81.4496 93.3989 81.2428 93.4352 81.035 93.43H57.36C57.1521 93.4352 56.9453 93.3989 56.7517 93.3229C56.5582 93.247 56.3818 93.1332 56.2329 92.988C56.084 92.8429 55.9657 92.6694 55.8849 92.4778C55.8041 92.2862 55.7625 92.0804 55.7625 91.8725C55.7625 91.6646 55.8041 91.4587 55.8849 91.2672C55.9657 91.0756 56.084 90.9021 56.2329 90.7569C56.3818 90.6118 56.5582 90.4979 56.7517 90.422C56.9453 90.3461 57.1521 90.3097 57.36 90.315Z" fill="#F1F1F1"/>
<path d="M146.941 140.125H94.689C93.7353 140.121 92.8218 139.741 92.1475 139.066C91.4731 138.392 91.0927 137.479 91.089 136.525V81.162C91.0927 80.2083 91.4731 79.2948 92.1475 78.6205C92.8218 77.9462 93.7353 77.5657 94.689 77.562H146.937C147.891 77.5657 148.804 77.9462 149.479 78.6205C150.153 79.2948 150.533 80.2083 150.537 81.162V136.518C150.539 136.991 150.447 137.46 150.267 137.898C150.087 138.336 149.822 138.733 149.487 139.068C149.152 139.403 148.755 139.668 148.317 139.848C147.879 140.028 147.41 140.12 146.937 140.118L146.941 140.125Z" fill="#E2E2E2"/>
<path d="M146.941 140.125H94.689C93.7353 140.121 92.8218 139.741 92.1475 139.066C91.4731 138.392 91.0927 137.479 91.089 136.525V81.162C91.0927 80.2083 91.4731 79.2948 92.1475 78.6205C92.8218 77.9462 93.7353 77.5657 94.689 77.562H146.937C147.891 77.5657 148.804 77.9462 149.479 78.6205C150.153 79.2948 150.533 80.2083 150.537 81.162V136.518C150.539 136.991 150.447 137.46 150.267 137.898C150.087 138.336 149.822 138.733 149.487 139.068C149.152 139.403 148.755 139.668 148.317 139.848C147.879 140.028 147.41 140.12 146.937 140.118L146.941 140.125Z" stroke="#AFAFAF" stroke-width="3" stroke-miterlimit="10" stroke-linecap="round" stroke-linejoin="round"/>
<path d="M114 108L119.859 113.859C119.937 113.937 120.063 113.937 120.141 113.859L129 105" stroke="white" stroke-width="3" stroke-linecap="round"/>
<circle cx="121" cy="109" r="14.5" stroke="white" stroke-width="3"/>
</g>
<defs>
<clipPath id="clip0_1_2">
<rect width="167.579" height="154.551" fill="white"/>
</clipPath>
</defs>
</svg>
