<svg width="265" height="22" viewBox="0 0 265 22" fill="none" xmlns="http://www.w3.org/2000/svg">
<path d="M90.957 3.09091V18H89.1516V3.09091H90.957ZM98.7882 18H94.1874V3.09091H98.9921C100.438 3.09091 101.676 3.38938 102.705 3.98633C103.734 4.57842 104.522 5.43016 105.071 6.54155C105.619 7.64808 105.893 8.97301 105.893 10.5163C105.893 12.0694 105.617 13.4064 105.063 14.5275C104.51 15.6438 103.705 16.5028 102.647 17.1046C101.589 17.7015 100.302 18 98.7882 18ZM95.9928 16.3984H98.6718C99.9045 16.3984 100.926 16.1606 101.737 15.685C102.547 15.2094 103.151 14.5324 103.549 13.6539C103.947 12.7755 104.146 11.7296 104.146 10.5163C104.146 9.31274 103.95 8.27657 103.557 7.40785C103.163 6.53427 102.576 5.86452 101.795 5.39861C101.013 4.92785 100.04 4.69247 98.8756 4.69247H95.9928V16.3984ZM108.532 18V3.09091H117.53V4.69247H110.338V9.73011H117.064V11.3317H110.338V16.3984H117.647V18H108.532ZM132.217 3.09091V18H130.47L122.346 6.29403H122.2V18H120.395V3.09091H122.142L130.295 14.826H130.441V3.09091H132.217ZM134.625 4.69247V3.09091H145.807V4.69247H141.119V18H139.313V4.69247H134.625ZM150.009 3.09091V18H148.204V3.09091H150.009ZM152.424 4.69247V3.09091H163.606V4.69247H158.918V18H157.112V4.69247H152.424ZM164.721 3.09091H166.789L170.924 10.0504H171.099L175.234 3.09091H177.301L171.914 11.8558V18H170.109V11.8558L164.721 3.09091ZM192.776 6.81818C192.689 6.08049 192.334 5.50781 191.713 5.10014C191.092 4.69247 190.33 4.48864 189.427 4.48864C188.767 4.48864 188.19 4.59541 187.695 4.80895C187.205 5.02249 186.821 5.31611 186.545 5.68981C186.273 6.06351 186.137 6.48816 186.137 6.96378C186.137 7.36174 186.231 7.70389 186.421 7.99023C186.615 8.27172 186.862 8.5071 187.163 8.69638C187.464 8.8808 187.78 9.03368 188.11 9.15501C188.44 9.27148 188.743 9.36612 189.02 9.43892L190.534 9.84659C190.922 9.94851 191.354 10.0893 191.83 10.2688C192.31 10.4484 192.769 10.6935 193.206 11.0041C193.647 11.3098 194.011 11.7029 194.298 12.1834C194.584 12.6639 194.727 13.2536 194.727 13.9524C194.727 14.758 194.516 15.486 194.094 16.1364C193.676 16.7867 193.065 17.3036 192.259 17.687C191.458 18.0704 190.485 18.2621 189.34 18.2621C188.272 18.2621 187.348 18.0898 186.566 17.7452C185.79 17.4006 185.178 16.9202 184.732 16.3038C184.29 15.6874 184.04 14.9716 183.982 14.1562H185.846C185.894 14.7192 186.083 15.1851 186.413 15.554C186.748 15.918 187.171 16.1897 187.68 16.3693C188.195 16.544 188.748 16.6314 189.34 16.6314C190.029 16.6314 190.648 16.5198 191.196 16.2965C191.745 16.0684 192.179 15.753 192.499 15.3501C192.82 14.9425 192.98 14.4669 192.98 13.9233C192.98 13.4283 192.842 13.0254 192.565 12.7148C192.288 12.4042 191.924 12.1519 191.473 11.9577C191.022 11.7636 190.534 11.5937 190.01 11.4482L188.175 10.924C187.01 10.5891 186.088 10.1111 185.409 9.48988C184.729 8.86867 184.39 8.05575 184.39 7.05114C184.39 6.21638 184.615 5.4884 185.067 4.86719C185.523 4.24112 186.134 3.7558 186.901 3.41122C187.673 3.06179 188.534 2.88707 189.486 2.88707C190.447 2.88707 191.301 3.05936 192.048 3.40394C192.795 3.74367 193.388 4.20958 193.824 4.80167C194.266 5.39376 194.499 6.06593 194.523 6.81818H192.776ZM197.306 18V3.09091H206.304V4.69247H199.111V9.73011H205.838V11.3317H199.111V16.3984H206.42V18H197.306ZM209.168 18V3.09091H214.206C215.371 3.09091 216.327 3.28989 217.074 3.68785C217.822 4.08097 218.375 4.6221 218.734 5.31126C219.093 6.00041 219.273 6.78421 219.273 7.66264C219.273 8.54107 219.093 9.32002 218.734 9.99947C218.375 10.6789 217.824 11.2128 217.082 11.601C216.339 11.9844 215.39 12.1761 214.235 12.1761H210.158V10.5455H214.177C214.973 10.5455 215.613 10.429 216.099 10.196C216.589 9.96307 216.943 9.63305 217.162 9.20597C217.385 8.77403 217.496 8.25959 217.496 7.66264C217.496 7.0657 217.385 6.54397 217.162 6.09748C216.938 5.65098 216.582 5.3064 216.091 5.06374C215.601 4.81623 214.953 4.69247 214.148 4.69247H210.974V18H209.168ZM216.186 11.3026L219.855 18H217.759L214.148 11.3026H216.186ZM222.163 3.09091L226.589 15.6413H226.764L231.19 3.09091H233.083L227.608 18H225.745L220.27 3.09091H222.163ZM235.015 18V3.09091H244.013V4.69247H236.821V9.73011H243.547V11.3317H236.821V16.3984H244.13V18H235.015ZM246.878 18V3.09091H251.915C253.08 3.09091 254.036 3.28989 254.784 3.68785C255.531 4.08097 256.084 4.6221 256.443 5.31126C256.803 6.00041 256.982 6.78421 256.982 7.66264C256.982 8.54107 256.803 9.32002 256.443 9.99947C256.084 10.6789 255.534 11.2128 254.791 11.601C254.048 11.9844 253.1 12.1761 251.945 12.1761H247.868V10.5455H251.886C252.682 10.5455 253.323 10.429 253.808 10.196C254.298 9.96307 254.653 9.63305 254.871 9.20597C255.094 8.77403 255.206 8.25959 255.206 7.66264C255.206 7.0657 255.094 6.54397 254.871 6.09748C254.648 5.65098 254.291 5.3064 253.801 5.06374C253.311 4.81623 252.663 4.69247 251.857 4.69247H248.683V18H246.878ZM253.896 11.3026L257.565 18H255.468L251.857 11.3026H253.896Z" fill="black"/>
<g clip-path="url(#clip0_2345_2)">
<path d="M11.8297 16.5051C11.8186 16.5051 11.8069 16.5051 11.7958 16.5038C11.5502 16.4889 11.3409 16.3171 11.2761 16.0774L9.41979 9.19038L8.46939 12.4029C8.39657 12.6482 8.17316 12.8168 7.91952 12.8168H4.35861C4.0414 12.8168 3.78467 12.5571 3.78467 12.2361C3.78467 11.9152 4.0414 11.6555 4.35861 11.6555H7.49245L8.89583 6.91324C8.96866 6.66723 9.19206 6.49927 9.44571 6.49927C9.44818 6.49927 9.45003 6.49927 9.45311 6.49927C9.70923 6.50239 9.93201 6.67659 9.99928 6.92697L11.9365 14.1131L12.7758 12.0176C12.8634 11.7984 13.0739 11.6548 13.3078 11.6548H16.1608C16.478 11.6548 16.7348 11.9146 16.7348 12.2355C16.7348 12.5565 16.478 12.8162 16.1608 12.8162H13.6941L12.3617 16.1423C12.2734 16.3621 12.0624 16.5051 11.8303 16.5051H11.8297Z" fill="black"/>
<path d="M10.2599 21.7075C4.69822 21.7075 0.17334 17.1295 0.17334 11.5025C0.17334 5.8755 4.69822 1.29749 10.2599 1.29749C15.8216 1.29749 20.3471 5.8755 20.3471 11.5025C20.3471 17.1295 15.8222 21.7075 10.2599 21.7075ZM10.2599 2.4576C5.33079 2.4576 1.32061 6.51487 1.32061 11.5019C1.32061 16.4888 5.33079 20.5461 10.2599 20.5461C15.189 20.5461 19.1992 16.4888 19.1992 11.5019C19.1992 6.51487 15.189 2.4576 10.2599 2.4576Z" fill="black"/>
<path d="M28.605 18.0229L24.5688 3.1669H26.9671L29.1147 11.6814C29.248 12.2067 29.3714 12.7518 29.4844 13.3166C29.5973 13.882 29.709 14.453 29.8195 15.0313C29.9293 15.6097 30.0343 16.188 30.1342 16.7664H29.7942C29.9009 16.188 30.0108 15.6097 30.1237 15.0313C30.2367 14.453 30.3533 13.8814 30.4737 13.3166C30.5934 12.7518 30.7236 12.2067 30.8631 11.6814L33.0712 3.1669H35.5688L37.7565 11.6814C37.8966 12.2067 38.0262 12.7518 38.146 13.3166C38.2657 13.882 38.3842 14.453 38.5008 15.0313C38.6168 15.6097 38.7285 16.188 38.8353 16.7664H38.4761C38.5823 16.188 38.689 15.6097 38.7958 15.0313C38.902 14.453 39.0167 13.8814 39.1408 13.3166C39.2636 12.7518 39.3858 12.2067 39.5055 11.6814L41.6532 3.1669H44.0711L40.0153 18.0229H37.3881L35.0208 9.21892C34.8405 8.52786 34.6739 7.77643 34.5215 6.96589C34.3678 6.15472 34.2117 5.26472 34.0518 4.29403H34.5715C34.4048 5.22468 34.2536 6.08574 34.1166 6.87596C33.9803 7.6668 33.8087 8.4484 33.6019 9.21892L31.2445 18.0229H28.6074H28.605Z" fill="black"/>
<path d="M49.8516 18.2725C48.7395 18.2725 47.7737 18.0963 46.9547 17.744C46.1352 17.3917 45.494 16.8885 45.0311 16.2338C44.5683 15.579 44.3134 14.7999 44.2671 13.8957H46.5548C46.6017 14.4341 46.7758 14.8794 47.0794 15.2317C47.3824 15.584 47.7768 15.8464 48.2637 16.0194C48.7494 16.1925 49.2758 16.2787 49.8417 16.2787C50.4749 16.2787 51.0359 16.1808 51.5253 15.9849C52.0147 15.7891 52.4029 15.5094 52.6892 15.1473C52.9756 14.7851 53.1188 14.3645 53.1188 13.8859C53.1188 13.4535 52.9941 13.1 52.7441 12.824C52.4942 12.5481 52.1579 12.319 51.7351 12.1361C51.3124 11.9531 50.8304 11.7918 50.2916 11.6526L48.5531 11.174C47.3343 10.8482 46.3839 10.3665 45.7007 9.72843C45.0181 9.09034 44.6769 8.26254 44.6769 7.24566C44.6769 6.3883 44.9083 5.63934 45.3712 4.99756C45.834 4.35639 46.4635 3.85811 47.259 3.50211C48.0551 3.14672 48.9524 2.96872 49.9516 2.96872C50.9507 2.96872 51.8684 3.14672 52.6442 3.50211C53.4199 3.85811 54.029 4.34468 54.4728 4.96307C54.9153 5.58145 55.1467 6.28544 55.167 7.0769H52.949C52.8756 6.39877 52.5615 5.87401 52.0054 5.50138C51.4488 5.12936 50.7483 4.94274 49.9022 4.94274C49.303 4.94274 48.7815 5.03574 48.3384 5.22175C47.8953 5.40776 47.5528 5.66521 47.3096 5.99411C47.0664 6.32301 46.9449 6.69688 46.9449 7.1157C46.9449 7.5875 47.0899 7.96813 47.3793 8.25762C47.6694 8.5471 48.0224 8.77622 48.4384 8.9456C48.8543 9.11498 49.2524 9.24986 49.6325 9.34902L51.081 9.72781C51.5537 9.8473 52.0412 10.0087 52.5448 10.2113C53.0478 10.4146 53.5119 10.6769 53.9383 10.9991C54.3648 11.3218 54.7091 11.7203 54.9726 12.1952C55.2355 12.6707 55.367 13.2441 55.367 13.9148C55.367 14.7525 55.1504 15.5002 54.7178 16.158C54.2845 16.8164 53.6569 17.3332 52.8342 17.7089C52.0116 18.084 51.0174 18.2725 49.8522 18.2725H49.8516Z" fill="black"/>
<path d="M63.0504 18.2224C61.7643 18.2224 60.6139 17.9181 59.5987 17.3102C58.5829 16.7023 57.7837 15.8283 57.2005 14.6883C56.6179 13.5482 56.3267 12.1876 56.3267 10.6053C56.3267 9.02305 56.6179 7.65263 57.2005 6.51257C57.7831 5.3725 58.5829 4.49667 59.5987 3.88506C60.6139 3.27345 61.7643 2.96796 63.0504 2.96796C64.3365 2.96796 65.4826 3.27345 66.4916 3.88506C67.5006 4.49667 68.2961 5.3725 68.8793 6.51257C69.4619 7.65263 69.7532 9.01689 69.7532 10.6053C69.7532 12.1938 69.4613 13.5482 68.8793 14.6883C68.2961 15.8283 67.5 16.7023 66.4916 17.3102C65.4826 17.9188 64.3353 18.2224 63.0504 18.2224ZM63.0504 16.1486C63.8959 16.1486 64.6537 15.938 65.3227 15.5155C65.9917 15.0935 66.5218 14.4684 66.9113 13.6412C67.3007 12.8134 67.4951 11.8015 67.4951 10.6053C67.4951 9.40923 67.3007 8.37695 66.9113 7.54978C66.5218 6.72198 65.9917 6.09744 65.3227 5.67492C64.6537 5.25301 63.8959 5.04175 63.0504 5.04175C62.2049 5.04175 61.4354 5.25486 60.7627 5.67985C60.09 6.10545 59.5586 6.73184 59.1692 7.55963C58.7798 8.38681 58.5854 9.40246 58.5854 10.6053C58.5854 11.8082 58.7798 12.8122 59.1692 13.6363C59.5586 14.4604 60.09 15.0855 60.7627 15.5105C61.4354 15.9361 62.1975 16.1486 63.0504 16.1486Z" fill="black"/>
<path d="M70.6839 18.0229V16.3777L75.7389 11.1634C76.2586 10.6183 76.6912 10.1366 77.0374 9.71781C77.3836 9.29898 77.6472 8.89741 77.8267 8.51122C78.0069 8.12566 78.097 7.71361 78.097 7.27508C78.097 6.7768 77.9823 6.34812 77.7521 5.98904C77.5225 5.62996 77.209 5.35464 76.8128 5.16186C76.4166 4.96908 75.9654 4.87238 75.4588 4.87238C74.9521 4.87238 74.4732 4.98078 74.0801 5.19635C73.6876 5.41192 73.3839 5.7168 73.171 6.10853C72.9581 6.50087 72.8513 6.96281 72.8513 7.49434H70.6636C70.6636 6.59079 70.8728 5.7981 71.2931 5.11628C71.7127 4.43507 72.2854 3.90662 73.0112 3.53091C73.7369 3.15581 74.5664 2.96796 75.4989 2.96796C76.4314 2.96796 77.275 3.15396 77.9915 3.52598C78.7074 3.89861 79.2684 4.40182 79.6745 5.03683C80.0805 5.67184 80.2842 6.39123 80.2842 7.19562C80.2842 7.74071 80.183 8.27225 79.9799 8.79085C79.7769 9.30946 79.4202 9.89396 78.9111 10.5456C78.4019 11.1972 77.6842 11.9881 76.7585 12.9187L73.8412 15.9601V16.0796H80.515V18.0241H70.6846L70.6839 18.0229Z" fill="black"/>
</g>
<defs>
<clipPath id="clip0_2345_2">
<rect width="80.9999" height="22" fill="white"/>
</clipPath>
</defs>
</svg>
