<?xml version="1.0" encoding="UTF-8"?>

<!--
 * Copyright (c) 2025, WSO2 LLC. (https://www.wso2.com).
 *
 * WSO2 LLC. licenses this file to you under the Apache License,
 * Version 2.0 (the "License"); you may not use this file except
 * in compliance with the License.
 * You may obtain a copy of the License at
 *
 *     http://www.apache.org/licenses/LICENSE-2.0
 *
 * Unless required by applicable law or agreed to in writing,
 * software distributed under the License is distributed on an
 * "AS IS" BASIS, WITHOUT WARRANTIES OR CONDITIONS OF ANY
 * KIND, either express or implied. See the License for the
 * specific language governing permissions and limitations
 * under the License.
 */
-->

<svg version="1.1" xmlns="http://www.w3.org/2000/svg" width="825" height="741">
<path d="M0 0 C3.80652882 0.00314729 7.61226855 -0.02032562 11.41870117 -0.0456543 C26.60830127 -0.08518581 41.28972732 0.81990879 56.27612305 3.31567383 C58.05708374 3.60583374 58.05708374 3.60583374 59.87402344 3.90185547 C62.60619618 4.38296578 65.31447768 4.91822324 68.02612305 5.50317383 C68.99960693 5.71184082 69.97309082 5.92050781 70.97607422 6.13549805 C116.05689157 16.1566365 157.98256262 35.77592366 194.27612305 64.31567383 C195.2712793 65.0968457 196.26643555 65.87801758 197.29174805 66.68286133 C214.32679839 80.35957318 231.01730953 95.91510913 244.27612305 113.31567383 C245.04569336 114.27989258 245.81526367 115.24411133 246.6081543 116.23754883 C278.97348004 156.97410494 299.27409486 205.2385922 308.27612305 256.31567383 C308.52604004 257.72091309 308.52604004 257.72091309 308.78100586 259.15454102 C313.9581914 289.99255924 313.72699 324.54087672 308.27612305 355.31567383 C308.1045166 356.3035791 307.93291016 357.29148437 307.75610352 358.30932617 C298.1749012 411.78082612 274.91435991 465.88833858 237.5065918 505.90942383 C235.64342218 507.91942817 233.84976623 509.96269135 232.0612793 512.03833008 C222.13783106 523.41234243 211.25026467 534.12093151 199.27612305 543.31567383 C198.22584052 544.1646382 197.17778599 545.0163639 196.1315918 545.87036133 C134.16985911 596.12371141 52.92754144 618.65602331 -26.14575195 611.06567383 C-78.07482985 605.46023061 -129.14404818 588.01182286 -171.72387695 557.31567383 C-172.41803711 556.81680664 -173.11219727 556.31793945 -173.82739258 555.80395508 C-198.05577364 538.2693686 -220.33573233 518.00074316 -238.38989258 494.08227539 C-239.27421417 492.91116429 -240.16349684 491.74378178 -241.05786133 490.58032227 C-289.39861004 427.6667785 -310.79462059 345.9422775 -300.72387695 267.31567383 C-294.55175297 220.22405773 -278.32665674 173.26863141 -250.72387695 134.31567383 C-249.92407082 133.16616167 -249.12460896 132.01640993 -248.32543945 130.86645508 C-240.51165936 119.70001818 -231.90391614 109.38667002 -222.72387695 99.31567383 C-221.20288443 97.60748223 -219.68205057 95.89914933 -218.16137695 94.19067383 C-211.75767957 87.08657205 -205.05164703 80.46228535 -197.72387695 74.31567383 C-197.18263184 73.86063477 -196.64138672 73.4055957 -196.08374023 72.93676758 C-175.9360852 56.07247404 -154.3518829 41.47489967 -130.57250977 30.19946289 C-128.79742647 29.35083617 -127.03755872 28.47060279 -125.27856445 27.58911133 C-98.68799121 14.56151504 -69.86222849 6.90611965 -40.72387695 2.31567383 C-39.60843506 2.12658447 -38.49299316 1.93749512 -37.34375 1.74267578 C-24.94426402 -0.1147237 -12.51573093 -0.02157747 0 0 Z " fill="#FE7300" transform="translate(304.723876953125,-0.315673828125)"/>
<path d="M0 0 C3.80652882 0.00314729 7.61226855 -0.02032562 11.41870117 -0.0456543 C26.60830127 -0.08518581 41.28972732 0.81990879 56.27612305 3.31567383 C58.05708374 3.60583374 58.05708374 3.60583374 59.87402344 3.90185547 C62.60619618 4.38296578 65.31447768 4.91822324 68.02612305 5.50317383 C68.99960693 5.71184082 69.97309082 5.92050781 70.97607422 6.13549805 C116.05689157 16.1566365 157.98256262 35.77592366 194.27612305 64.31567383 C195.2712793 65.0968457 196.26643555 65.87801758 197.29174805 66.68286133 C214.32679839 80.35957318 231.01730953 95.91510913 244.27612305 113.31567383 C245.04569336 114.27989258 245.81526367 115.24411133 246.6081543 116.23754883 C278.97348004 156.97410494 299.27409486 205.2385922 308.27612305 256.31567383 C308.52604004 257.72091309 308.52604004 257.72091309 308.78100586 259.15454102 C313.9581914 289.99255924 313.72699 324.54087672 308.27612305 355.31567383 C308.1045166 356.3035791 307.93291016 357.29148437 307.75610352 358.30932617 C298.1749012 411.78082612 274.91435991 465.88833858 237.5065918 505.90942383 C235.64342218 507.91942817 233.84976623 509.96269135 232.0612793 512.03833008 C222.13783106 523.41234243 211.25026467 534.12093151 199.27612305 543.31567383 C198.22584052 544.1646382 197.17778599 545.0163639 196.1315918 545.87036133 C134.16985911 596.12371141 52.92754144 618.65602331 -26.14575195 611.06567383 C-78.07482985 605.46023061 -129.14404818 588.01182286 -171.72387695 557.31567383 C-172.41803711 556.81680664 -173.11219727 556.31793945 -173.82739258 555.80395508 C-198.05577364 538.2693686 -220.33573233 518.00074316 -238.38989258 494.08227539 C-239.27421417 492.91116429 -240.16349684 491.74378178 -241.05786133 490.58032227 C-289.39861004 427.6667785 -310.79462059 345.9422775 -300.72387695 267.31567383 C-294.55175297 220.22405773 -278.32665674 173.26863141 -250.72387695 134.31567383 C-249.92407082 133.16616167 -249.12460896 132.01640993 -248.32543945 130.86645508 C-240.51165936 119.70001818 -231.90391614 109.38667002 -222.72387695 99.31567383 C-221.20288443 97.60748223 -219.68205057 95.89914933 -218.16137695 94.19067383 C-211.75767957 87.08657205 -205.05164703 80.46228535 -197.72387695 74.31567383 C-197.18263184 73.86063477 -196.64138672 73.4055957 -196.08374023 72.93676758 C-175.9360852 56.07247404 -154.3518829 41.47489967 -130.57250977 30.19946289 C-128.79742647 29.35083617 -127.03755872 28.47060279 -125.27856445 27.58911133 C-98.68799121 14.56151504 -69.86222849 6.90611965 -40.72387695 2.31567383 C-39.60843506 2.12658447 -38.49299316 1.93749512 -37.34375 1.74267578 C-24.94426402 -0.1147237 -12.51573093 -0.02157747 0 0 Z M-160.72387695 121.31567383 C-161.99014491 122.38361066 -163.26077728 123.44640087 -164.53637695 124.50317383 C-176.49379335 134.9720139 -186.46169579 147.46912385 -195.72387695 160.31567383 C-196.16683105 160.92846191 -196.60978516 161.54125 -197.06616211 162.17260742 C-232.97733385 212.45928472 -249.78351258 279.55348441 -240.12792969 340.84594727 C-239.6903451 343.34271092 -239.21390365 345.82871469 -238.72387695 348.31567383 C-238.56822266 349.15888184 -238.41256836 350.00208984 -238.25219727 350.87084961 C-229.57998488 397.04475488 -208.46508388 439.36180989 -176.82543945 473.99145508 C-174.99002858 476.02132398 -173.23006251 478.09276743 -171.47387695 480.19067383 C-138.14061663 518.16623753 -87.57506359 541.87690137 -38.72387695 551.31567383 C-37.90532227 551.48083496 -37.08676758 551.64599609 -36.2434082 551.81616211 C-9.50982455 557.01974009 20.5683872 556.09355445 47.27612305 551.31567383 C48.17927246 551.15470215 49.08242188 550.99373047 50.01293945 550.82788086 C88.68278828 543.6020125 126.34350857 526.81697783 156.66723633 501.64819336 C158.24244567 500.34356626 159.83363821 499.0610405 161.4284668 497.78051758 C174.61643061 487.05585806 187.02895136 474.89557052 197.27612305 461.31567383 C197.68459473 460.78893066 198.09306641 460.2621875 198.51391602 459.71948242 C210.32376939 444.47800437 220.23164886 427.83382228 228.27612305 410.31567383 C228.60563965 409.6015332 228.93515625 408.88739258 229.2746582 408.15161133 C238.74527144 387.35340187 244.36770999 365.77895677 248.27612305 343.31567383 C248.52386475 341.95804932 248.52386475 341.95804932 248.77661133 340.57299805 C250.9184182 328.61476094 251.53786437 316.81648184 251.52612305 304.69067383 C251.52552887 304.00301941 251.52493469 303.31536499 251.52432251 302.60687256 C251.63136177 294.375686 251.63136177 294.375686 250.27612305 286.31567383 C250.08561113 284.23660905 249.8980063 282.15718432 249.7331543 280.07592773 C244.50383558 216.67043831 211.763839 157.79693741 164.53393555 115.88208008 C161.82613478 113.62825778 159.07232865 111.4588059 156.27612305 109.31567383 C155.7435791 108.90140137 155.21103516 108.48712891 154.66235352 108.06030273 C129.05986287 88.22883522 100.24431045 74.51178438 69.27612305 65.31567383 C68.47851562 65.07880859 67.6809082 64.84194336 66.85913086 64.59790039 C55.87745577 61.42229494 44.59966189 59.74206823 33.27612305 58.31567383 C32.56931396 58.21923584 31.86250488 58.12279785 31.13427734 58.0234375 C-38.0112728 49.69889982 -110.22477377 73.43763136 -160.72387695 121.31567383 Z " fill="#000000" transform="translate(304.723876953125,-0.315673828125)"/>
<path d="M0 0 C3.27123473 3.7576777 4.84031251 8.07891819 6.66796875 12.64453125 C7.19540932 13.94136841 7.19540932 13.94136841 7.73350525 15.2644043 C8.89019086 18.11163041 10.0387524 20.96206307 11.1875 23.8125 C11.99724605 25.80909679 12.80763848 27.80543153 13.61865234 29.80151367 C15.27945452 33.89019595 16.93772231 37.97989192 18.59423828 42.0703125 C21.75479786 49.86828155 24.94928587 57.65222519 28.14785767 65.43466187 C29.46132954 68.63094496 30.77319437 71.82788661 32.08506775 75.02482605 C33.06731031 77.41846518 34.04974885 79.81202379 35.03222656 82.20556641 C38.02176135 89.48914336 41.00980563 96.77333183 43.99798584 104.0574646 C45.66526507 108.1216672 47.33263716 112.1858317 49 116.25 C49.66666711 117.87499982 50.33333378 119.49999982 51 121.125 C51.33 121.929375 51.66 122.73375 52 123.5625 C70.99999998 169.87499994 70.99999998 169.87499994 71.99984741 172.31213379 C72.66701735 173.93835669 73.33419265 175.56457739 74.00137329 177.1907959 C75.66038377 181.23456755 77.31930328 185.27837648 78.97802734 189.32226562 C82.06903546 196.85772299 85.16091613 204.39281866 88.25592041 211.92663574 C89.69911693 215.43979944 91.14181233 218.95316882 92.58447266 222.46655273 C93.26456246 224.12241663 93.94489088 225.77818256 94.62548828 227.43383789 C96.46622801 231.91180015 98.3022025 236.3916508 100.13098145 240.87451172 C100.71866143 242.31188831 101.30848323 243.74839078 101.90026855 245.18408203 C102.75859939 247.26663587 103.61043047 249.3517411 104.4609375 251.4375 C104.95126465 252.63246094 105.4415918 253.82742188 105.94677734 255.05859375 C107 258 107 258 107 261 C107.66 261 108.32 261 109 261 C109.27223389 260.28569824 109.54446777 259.57139648 109.82495117 258.83544922 C111.00270271 255.99347822 112.34325761 253.34124039 113.80078125 250.6328125 C114.35902588 249.59431152 114.91727051 248.55581055 115.49243164 247.48583984 C116.0930542 246.3767627 116.69367676 245.26768555 117.3125 244.125 C117.93697021 242.96822754 118.56144043 241.81145508 119.20483398 240.61962891 C123.75882018 232.2038503 128.43715468 223.86200159 133.1730957 215.54736328 C137.03890333 208.74546218 140.79253577 201.88934285 144.5 195 C149.75603474 185.23935583 155.15859702 175.57103013 160.63671875 165.93359375 C163.07388591 161.64403427 165.49059674 157.34340691 167.89453125 153.03515625 C168.85951538 151.30640259 168.85951538 151.30640259 169.84399414 149.54272461 C171.095753 147.29815277 172.34628069 145.0528938 173.59545898 142.80688477 C174.43765991 141.29759399 174.43765991 141.29759399 175.296875 139.7578125 C175.79541992 138.8620752 176.29396484 137.96633789 176.80761719 137.04345703 C178 135 178 135 179 134 C181.11681317 133.9057826 183.23680758 133.88257239 185.35571289 133.88647461 C186.35079613 133.88625557 186.35079613 133.88625557 187.36598206 133.8860321 C189.56823956 133.88673119 191.77041345 133.89452335 193.97265625 133.90234375 C195.49580336 133.90420794 197.01895107 133.90563184 198.542099 133.90663147 C202.55837651 133.91045654 206.57461808 133.92028672 210.59088135 133.93133545 C214.68623366 133.94154981 218.78159176 133.94612914 222.87695312 133.95117188 C230.91798528 133.961909 238.95898817 133.97898528 247 134 C245.04157146 156.77493621 245.04157146 156.77493621 242.8125 167.375 C242.49104004 168.92815918 242.49104004 168.92815918 242.16308594 170.51269531 C238.15625241 189.16402366 232.03226304 206.71727704 224 224 C223.66887207 224.71736328 223.33774414 225.43472656 222.99658203 226.17382812 C207.08757252 260.27033403 182.12247046 292.36879629 151.72705078 314.72167969 C149.95439667 316.03375446 148.20903121 317.37693348 146.46484375 318.7265625 C116.73157821 341.4816945 80.77010267 356.44632782 44 363 C43.0929834 363.16226074 42.1859668 363.32452148 41.25146484 363.49169922 C12.6899347 368.31416353 -17.67485916 367.85102088 -46 362 C-47.86455949 361.64570784 -49.7291425 361.2915394 -51.59375 360.9375 C-92.78168897 352.71162164 -133.01096159 331.71896876 -163.28515625 302.59765625 C-165.50847996 300.47030335 -167.76511884 298.47052451 -170.125 296.5 C-192.5358483 277.00209215 -209.57757737 249.69433746 -222 223 C-222.3285498 222.29456055 -222.65709961 221.58912109 -222.99560547 220.86230469 C-227.51987145 210.99238328 -231.14641302 200.92679638 -234.375 190.5625 C-234.87580078 188.96462646 -234.87580078 188.96462646 -235.38671875 187.33447266 C-235.69996094 186.29726074 -236.01320313 185.26004883 -236.3359375 184.19140625 C-236.60970215 183.28592041 -236.8834668 182.38043457 -237.16552734 181.44750977 C-238.39713087 176.35930807 -239.13934903 171.16390585 -240 166 C-185.22 166 -130.44 166 -74 166 C-73.01 163.03 -72.02 160.06 -71 157 C-70.40479285 155.51489506 -69.78620159 154.03837342 -69.12158203 152.58300781 C-68.78285568 151.83526093 -68.44412933 151.08751404 -68.09513855 150.31710815 C-67.73632095 149.53699371 -67.37750336 148.75687927 -67.0078125 147.953125 C-66.62583206 147.11282745 -66.24385162 146.27252991 -65.85029602 145.4067688 C-64.61254999 142.6859946 -63.36873046 139.968043 -62.125 137.25 C-61.25736781 135.34480329 -60.39026671 133.43936463 -59.52368164 131.53369141 C-58.22311287 128.67381773 -56.92224942 125.81408321 -55.6197052 122.95510864 C-52.19647764 115.44126992 -48.80673013 107.91319927 -45.4375 100.375 C-40.69677255 89.77987953 -35.93949889 79.1923278 -31.17425537 68.60821533 C-25.38140219 55.74133061 -19.5889562 42.87425627 -13.8125 30 C-13.28881836 28.83307617 -12.76513672 27.66615234 -12.22558594 26.46386719 C-8.81837762 18.85908449 -5.46233246 11.23413989 -2.171875 3.578125 C-1 1 -1 1 0 0 Z " fill="#FE7300" transform="translate(308,188)"/>
<path d="M0 0 C1.26457031 1.05380859 1.26457031 1.05380859 2.5546875 2.12890625 C7.50951896 6.39139594 11.87908558 10.9327378 16 16 C17.15822266 17.40185547 17.15822266 17.40185547 18.33984375 18.83203125 C42.21496315 48.35847932 50.8147608 84.69562163 47.05444336 122.1315918 C43.93216652 149.17187885 32.69184583 174.00008436 17 196 C16.46036621 196.75748535 15.92073242 197.5149707 15.36474609 198.29541016 C8.75300364 207.52270487 1.95723788 216.51196516 -5.484375 225.0859375 C-7.9036734 227.8884167 -10.23997175 230.74214151 -12.5625 233.625 C-16.43929769 238.38950808 -20.51471532 242.9364389 -24.671875 247.45703125 C-26.60694262 249.57067054 -28.50208297 251.70659848 -30.375 253.875 C-34.94089708 259.125247 -39.69752679 264.20205932 -44.42822266 269.30322266 C-45.93780574 270.93285956 -47.44423367 272.56533565 -48.94921875 274.19921875 C-54.86925824 280.62603976 -60.81808349 287.02509755 -66.78417969 293.40917969 C-72.54951387 299.58155346 -78.27785743 305.78760693 -84 312 C-90.92636539 319.51978893 -97.8767116 327.01586305 -104.85888672 334.48388672 C-108.42689036 338.30386523 -111.97329528 342.14185754 -115.5 346 C-119.6183047 350.50534068 -123.76897942 354.97860084 -127.9375 359.4375 C-132.50636677 364.32742905 -137.07476575 369.21771795 -141.625 374.125 C-142.10960693 374.64505615 -142.59421387 375.1651123 -143.09350586 375.70092773 C-145.88347115 378.71546922 -148.42474047 381.78092559 -151 385 C-83.35 385 -15.7 385 54 385 C54 399.85 54 414.7 54 430 C-46.98 430 -147.96 430 -252 430 C-249.61668812 426.02781353 -247.9706086 423.76734774 -244.75 420.6875 C-241.2457567 417.32616024 -238.05057001 413.79547168 -234.87402344 410.13012695 C-231.75571081 406.5856666 -228.49962372 403.17369658 -225.25 399.75 C-219.7065622 393.88579381 -214.2122257 387.98487201 -208.7734375 382.0234375 C-205.54256378 378.49048063 -202.27062256 374.99612198 -199 371.5 C-194.8101685 367.02066868 -190.63791084 362.52736128 -186.5 358 C-181.76668149 352.82119269 -176.98405276 347.69029399 -172.19140625 342.56640625 C-168.60612869 338.7300808 -165.04247746 334.8758871 -161.5 331 C-156.76668149 325.82119269 -151.98405276 320.69029399 -147.19140625 315.56640625 C-143.60612869 311.7300808 -140.04247746 307.8758871 -136.5 304 C-131.76668149 298.82119269 -126.98405276 293.69029399 -122.19140625 288.56640625 C-118.60612869 284.7300808 -115.04247746 280.8758871 -111.5 277 C-106.76668149 271.82119269 -101.98405276 266.69029399 -97.19140625 261.56640625 C-92.71240559 256.77377754 -88.27649508 251.94418783 -83.8515625 247.1015625 C-80.55197951 243.50180423 -77.21187538 239.9401481 -73.875 236.375 C-66.06571715 228.01790022 -58.43569109 219.60556942 -51.2421875 210.70703125 C-49.10516218 208.12696409 -46.89264255 205.65285515 -44.625 203.1875 C-39.06105649 197.06329829 -34.02063294 190.57010414 -29 184 C-28.53271484 183.39494629 -28.06542969 182.78989258 -27.58398438 182.16650391 C-7.38068131 155.92037334 5.08336108 126.45442175 1.78173828 92.7734375 C-1.44201559 69.29499106 -14.37199372 48.18943309 -32.96484375 33.6875 C-55.87650706 17.24664584 -82.91129742 10.52872095 -110.93530273 14.87304688 C-117.70871247 16.07333892 -124.16141953 17.82870492 -130.58203125 20.328125 C-133 21 -133 21 -137 20 C-136.34 5.15 -135.68 -9.7 -135 -25 C-116.44176136 -29.63955966 -116.44176136 -29.63955966 -108.375 -30.25 C-107.03501953 -30.36166504 -107.03501953 -30.36166504 -105.66796875 -30.47558594 C-67.43959039 -33.46821152 -29.7382182 -24.99793001 0 0 Z " fill="#000000" transform="translate(771,311)"/>
<path d="M0 0 C0.66 0 1.32 0 2 0 C2.31001953 0.76513916 2.62003906 1.53027832 2.93945312 2.31860352 C11.55459229 23.57272868 20.23812387 44.79825367 28.95166016 66.01220703 C31.9710491 73.36372372 34.98692232 80.71668264 38.00302124 88.06954956 C39.66853305 92.12976033 41.33427848 96.18987526 43 100.25 C43.66666778 101.87499954 44.33333445 103.49999954 45 105.125 C45.33 105.929375 45.66 106.73375 46 107.5625 C47 110 48 112.4375 49 114.875 C49.32998993 115.67934982 49.65997986 116.48369965 49.99996948 117.31242371 C50.66673966 118.93767729 51.33350805 120.5629316 52.00027466 122.18818665 C53.66534297 126.24681287 55.33044216 130.30542642 56.99560547 134.36401367 C60.01469077 141.72267062 63.03354125 149.08142348 66.05125427 156.44064331 C67.74235179 160.5646575 69.43363816 164.68859421 71.125 168.8125 C71.62234146 170.02516541 71.62234146 170.02516541 72.12973022 171.2623291 C77.13624249 183.46865371 82.15730558 195.66892595 87.18490601 207.86657715 C91.57862606 218.52813648 95.94859269 229.19902751 100.28564453 239.88378906 C102.24642543 244.71203608 104.21649151 249.5351436 106.234375 254.33984375 C106.56832275 255.13769287 106.90227051 255.93554199 107.24633789 256.75756836 C107.85027807 258.19652829 108.45847219 259.63371443 109.07202148 261.06860352 C110.25836534 263.89860108 111 265.89447402 111 269 C111.66 269 112.32 269 113 269 C113.27223389 268.28569824 113.54446777 267.57139648 113.82495117 266.83544922 C115.00270271 263.99347822 116.34325761 261.34124039 117.80078125 258.6328125 C118.35894531 257.59439209 118.91710937 256.55597168 119.4921875 255.48608398 C120.09289062 254.37692627 120.69359375 253.26776855 121.3125 252.125 C122.25029297 250.38875366 122.25029297 250.38875366 123.20703125 248.61743164 C129.32037725 237.32511791 135.65521285 226.16438509 142 215 C148.93 202.625 148.93 202.625 156 190 C185.7 190 215.4 190 246 190 C246.98608535 193.94434141 247.12921958 197.0867292 247.1328125 201.13671875 C247.13424759 202.15678764 247.13424759 202.15678764 247.13571167 203.19746399 C247.13639007 204.6287953 247.13455955 206.06012974 247.13037109 207.49145508 C247.12499306 209.69033628 247.13034022 211.88901554 247.13671875 214.08789062 C247.1360584 215.47916712 247.13477812 216.87044349 247.1328125 218.26171875 C247.13168457 219.52975342 247.13055664 220.79778809 247.12939453 222.10424805 C247 225 247 225 246 226 C243.88394904 226.12391682 241.76378717 226.17799906 239.64428711 226.20532227 C238.98089828 226.21522186 238.31750946 226.22512146 237.63401794 226.23532104 C235.43183005 226.26701737 233.22962055 226.29172534 231.02734375 226.31640625 C229.50419032 226.33696878 227.98104269 226.35796505 226.457901 226.37937927 C222.44168786 226.43467247 218.42542262 226.48404963 214.40911865 226.53222656 C210.31371401 226.58238882 206.21838539 226.63810236 202.12304688 226.69335938 C194.08209545 226.80102954 186.04108059 226.90245467 178 227 C177.58455429 227.74786774 177.16910858 228.49573547 176.74107361 229.26626587 C175.16069273 232.11116784 173.58028578 234.95605532 171.99986267 237.80093384 C171.32315588 239.01906792 170.6464587 240.23720735 169.96977234 241.45535278 C165.70574745 249.13127199 161.43998777 256.80622304 157.17234802 264.48013306 C151.42833368 274.80915605 145.70540726 285.14961549 140 295.5 C129.41065947 314.70961278 118.79142466 333.90298021 108 353 C107.34 353 106.68 353 106 353 C105.63370483 352.04975952 105.63370483 352.04975952 105.26000977 351.08032227 C99.35293163 335.8018138 93.23277248 320.62249169 86.9375 305.5 C86.57972473 304.64054779 86.22194946 303.78109558 85.85333252 302.89559937 C85.31032501 301.59122421 85.31032501 301.59122421 84.75634766 300.26049805 C79.43819424 287.48361211 74.1704659 274.68700655 68.9375 261.875 C68.18042344 260.02188984 67.42334336 258.16878111 66.66625977 256.31567383 C65.54088899 253.56095534 64.41556719 250.8062169 63.29042053 248.05140686 C59.49476869 238.75954306 55.68610726 229.47303327 51.875 220.1875 C51.21606332 218.58186895 50.55712778 216.97623744 49.89819336 215.37060547 C48.58814065 212.17851235 47.27798183 208.98646281 45.96777344 205.79443359 C42.97786425 198.50994446 39.989462 191.2248371 37.00091553 183.93978882 C36.00345133 181.50841281 35.00589108 179.07707623 34.00830078 176.64575195 C30.62393295 168.39721741 27.24070119 160.1482194 23.859375 151.8984375 C20.22112034 143.02223096 16.57916909 134.14754773 12.934021 125.27416992 C12.00588649 123.01433253 11.07834307 120.75425321 10.15087891 118.49414062 C8.72107141 115.01069658 7.28858413 111.52836684 5.85388184 108.04693604 C5.33079716 106.77658178 4.80856505 105.50587611 4.28723145 104.23480225 C3.58055897 102.51233859 2.87046121 100.79128138 2.16015625 99.0703125 C1.76449463 98.10883301 1.36883301 97.14735352 0.96118164 96.15673828 C0.18232616 94.06298335 0.18232616 94.06298335 -1 93 C-13.26794462 120.2419378 -13.26794462 120.2419378 -25.5 147.5 C-30.65331888 159.00602464 -35.82466261 170.50386668 -41 182 C-46.29736262 193.76827908 -51.59344277 205.53711745 -56.875 217.3125 C-57.54982422 218.81586914 -57.54982422 218.81586914 -58.23828125 220.34960938 C-63.85756631 232.88554984 -69.42050684 245.4461404 -75 258 C-130.11 258 -185.22 258 -242 258 C-245 240 -245 240 -245 222 C-172.73 221.505 -172.73 221.505 -99 221 C-89.47598482 199.60932487 -89.47598482 199.60932487 -80.23046875 178.109375 C-77.90603752 172.69889039 -75.39460752 167.37719533 -72.89379883 162.046875 C-69.63380028 155.09389863 -66.44368967 148.10861541 -63.25 141.125 C-62.72560333 139.97866592 -62.72560333 139.97866592 -62.19061279 138.80917358 C-57.49876239 128.54616672 -52.87617721 118.25720645 -48.35986328 107.91552734 C-44.01931156 97.99494992 -39.57401724 88.12226512 -35.125 78.25 C-34.54019363 76.95219604 -34.54019363 76.95219604 -33.943573 75.62817383 C-32.38898444 72.17841831 -30.83427932 68.7287154 -29.27928162 65.27914429 C-25.90586631 57.79450562 -22.54398049 50.30474592 -19.1875 42.8125 C-18.42651001 41.11395874 -18.42651001 41.11395874 -17.65014648 39.38110352 C-16.63387209 37.11250316 -15.61767735 34.84386713 -14.6015625 32.57519531 C-11.9272123 26.6051977 -9.25095803 20.63605372 -6.57485962 14.6668396 C-5.17874095 11.5526648 -3.78273399 8.43843992 -2.38671875 5.32421875 C-1.59114583 3.54947917 -0.79557292 1.77473958 0 0 Z " fill="#FEFEFD" transform="translate(309,96)"/>
</svg>
