<svg width="256" height="24" viewBox="0 0 256 24" fill="none" xmlns="http://www.w3.org/2000/svg">
<g clip-path="url(#clip0_2331_5)">
<path d="M11.4895 15.8916C11.4784 15.8916 11.4667 15.8916 11.4557 15.8903C11.2109 15.8752 11.0025 15.7014 10.9379 15.4587L9.08816 8.48836L8.14115 11.7397C8.06859 11.9881 7.84598 12.1587 7.59324 12.1587H4.04504C3.72896 12.1587 3.47314 11.8958 3.47314 11.571C3.47314 11.2462 3.72896 10.9833 4.04504 10.9833H7.1677L8.56607 6.18366C8.63863 5.93467 8.86124 5.76468 9.11398 5.76468C9.11644 5.76468 9.11829 5.76468 9.12136 5.76468C9.37656 5.76784 9.59856 5.94415 9.66558 6.19756L11.5959 13.4706L12.4322 11.3498C12.5195 11.128 12.7292 10.9827 12.9623 10.9827H15.8051C16.1212 10.9827 16.377 11.2455 16.377 11.5704C16.377 11.8952 16.1212 12.1581 15.8051 12.1581H13.3472L12.0196 15.5244C11.9316 15.7469 11.7213 15.8916 11.4901 15.8916H11.4895Z" fill="white"/>
<path d="M9.92508 21.157C4.38325 21.157 -0.125488 16.5235 -0.125488 10.8285C-0.125488 5.13336 4.38325 0.499939 9.92508 0.499939C15.4669 0.499939 19.9763 5.13336 19.9763 10.8285C19.9763 16.5235 15.4675 21.157 9.92508 21.157ZM9.92508 1.67409C5.01356 1.67409 1.01768 5.78047 1.01768 10.8278C1.01768 15.8752 5.01356 19.9815 9.92508 19.9815C14.8366 19.9815 18.8325 15.8752 18.8325 10.8278C18.8325 5.78047 14.8366 1.67409 9.92508 1.67409Z" fill="white"/>
<path d="M29.2019 18.5268L25.1802 3.28116H27.5698L29.7098 12.019C29.8426 12.5581 29.9656 13.1175 30.0782 13.6971C30.1907 14.2774 30.302 14.8633 30.4121 15.4568C30.5215 16.0503 30.6261 16.6439 30.7257 17.2374H30.3869C30.4933 16.6439 30.6027 16.0503 30.7152 15.4568C30.8278 14.8633 30.944 14.2767 31.0639 13.6971C31.1832 13.1175 31.313 12.5581 31.4519 12.019L33.6522 3.28116H36.1409L38.3208 12.019C38.4604 12.5581 38.5895 13.1175 38.7088 13.6971C38.8281 14.2774 38.9462 14.8633 39.0624 15.4568C39.178 16.0503 39.2893 16.6439 39.3957 17.2374H39.0378C39.1436 16.6439 39.25 16.0503 39.3564 15.4568C39.4621 14.8633 39.5765 14.2767 39.7001 13.6971C39.8225 13.1175 39.9443 12.5581 40.0635 12.019L42.2035 3.28116H44.6129L40.5715 18.5268H37.9537L35.5948 9.49193C35.4152 8.78274 35.2492 8.01161 35.0973 7.1798C34.9442 6.34735 34.7886 5.43401 34.6293 4.43786H35.1471C34.9811 5.39292 34.8304 6.27656 34.6939 7.08751C34.558 7.8991 34.387 8.7012 34.181 9.49193L31.832 18.5268H29.2043H29.2019Z" fill="white"/>
<path d="M50.3722 18.783C49.2641 18.783 48.3017 18.6023 47.4857 18.2407C46.669 17.8792 46.0301 17.3628 45.5689 16.6909C45.1077 16.019 44.8537 15.2194 44.8076 14.2915H47.0872C47.1339 14.844 47.3073 15.3009 47.6099 15.6625C47.9118 16.024 48.3048 16.2933 48.79 16.4709C49.2739 16.6485 49.7985 16.737 50.3624 16.737C50.9933 16.737 51.5523 16.6365 52.0399 16.4355C52.5276 16.2345 52.9144 15.9476 53.1997 15.5759C53.485 15.2042 53.6277 14.7725 53.6277 14.2814C53.6277 13.8377 53.5035 13.4749 53.2544 13.1917C53.0054 12.9085 52.6702 12.6734 52.249 12.4857C51.8278 12.298 51.3475 12.1323 50.8107 11.9895L49.0784 11.4984C47.8639 11.164 46.9169 10.6697 46.2361 10.0149C45.556 9.36007 45.2159 8.51056 45.2159 7.46701C45.2159 6.58716 45.4465 5.81856 45.9077 5.15993C46.3689 4.50195 46.9962 3.9906 47.7888 3.62526C48.5821 3.26055 49.4762 3.07788 50.4718 3.07788C51.4674 3.07788 52.3818 3.26055 53.1548 3.62526C53.9278 3.9906 54.5347 4.48994 54.9769 5.12454C55.4178 5.75914 55.6484 6.4816 55.6687 7.29382H53.4586C53.3854 6.59791 53.0724 6.05938 52.5183 5.67697C51.9637 5.2952 51.2657 5.10368 50.4226 5.10368C49.8255 5.10368 49.3059 5.19912 48.8644 5.39001C48.4228 5.5809 48.0816 5.8451 47.8393 6.18263C47.597 6.52016 47.4758 6.90383 47.4758 7.33364C47.4758 7.81781 47.6203 8.20843 47.9088 8.50551C48.1978 8.80258 48.5495 9.03771 48.964 9.21153C49.3785 9.38535 49.7751 9.52378 50.1539 9.62554L51.5972 10.0143C52.0682 10.1369 52.554 10.3025 53.0558 10.5104C53.557 10.719 54.0194 10.9883 54.4443 11.3189C54.8693 11.6501 55.2124 12.059 55.475 12.5464C55.7369 13.0343 55.8679 13.6228 55.8679 14.3111C55.8679 15.1707 55.6521 15.9381 55.221 16.6131C54.7893 17.2888 54.1639 17.8191 53.3442 18.2047C52.5245 18.5896 51.5338 18.783 50.3728 18.783H50.3722Z" fill="white"/>
<path d="M63.524 18.7316C62.2424 18.7316 61.0962 18.4193 60.0846 17.7955C59.0724 17.1716 58.2761 16.2747 57.695 15.1047C57.1145 13.9348 56.8242 12.5385 56.8242 10.9147C56.8242 9.29092 57.1145 7.88456 57.695 6.71459C58.2755 5.54462 59.0724 4.64581 60.0846 4.01815C61.0962 3.3905 62.2424 3.077 63.524 3.077C64.8055 3.077 65.9475 3.3905 66.9529 4.01815C67.9583 4.64581 68.751 5.54462 69.3321 6.71459C69.9126 7.88456 70.2028 9.2846 70.2028 10.9147C70.2028 12.5448 69.912 13.9348 69.3321 15.1047C68.751 16.2747 67.9577 17.1716 66.9529 17.7955C65.9475 18.42 64.8043 18.7316 63.524 18.7316ZM63.524 16.6034C64.3664 16.6034 65.1216 16.3872 65.7882 15.9536C66.4548 15.5206 66.983 14.8791 67.371 14.0302C67.7591 13.1807 67.9528 12.1422 67.9528 10.9147C67.9528 9.68723 67.7591 8.62788 67.371 7.779C66.983 6.92949 66.4548 6.28857 65.7882 5.85496C65.1216 5.42199 64.3664 5.20519 63.524 5.20519C62.6815 5.20519 61.9147 5.42389 61.2444 5.86002C60.5741 6.29678 60.0447 6.9396 59.6566 7.78911C59.2686 8.63799 59.0749 9.68028 59.0749 10.9147C59.0749 12.1492 59.2686 13.1794 59.6566 14.0252C60.0447 14.8709 60.5741 15.5124 61.2444 15.9486C61.9147 16.3853 62.6741 16.6034 63.524 16.6034Z" fill="white"/>
<path d="M71.1311 18.5268V16.8385L76.1681 11.4874C76.6859 10.928 77.117 10.4337 77.4619 10.0039C77.8069 9.57409 78.0695 9.16198 78.2484 8.76567C78.428 8.36999 78.5178 7.94713 78.5178 7.49709C78.5178 6.98575 78.4034 6.54582 78.174 6.17732C77.9453 5.80882 77.6329 5.52628 77.2381 5.32845C76.8433 5.13061 76.3938 5.03137 75.8889 5.03137C75.3841 5.03137 74.9069 5.14262 74.5151 5.36384C74.124 5.58507 73.8215 5.89794 73.6093 6.29994C73.3972 6.70257 73.2908 7.17663 73.2908 7.72211H71.1108C71.1108 6.79486 71.3193 5.98138 71.7381 5.28167C72.1562 4.5826 72.7269 4.04028 73.4501 3.65471C74.1732 3.26978 74.9997 3.077 75.9289 3.077C76.8581 3.077 77.6987 3.26788 78.4126 3.64966C79.126 4.03206 79.6849 4.54847 80.0896 5.20013C80.4942 5.8518 80.6971 6.59007 80.6971 7.41556C80.6971 7.97494 80.5963 8.52042 80.394 9.05263C80.1917 9.58483 79.8362 10.1847 79.3289 10.8534C78.8216 11.5221 78.1064 12.3337 77.184 13.2888L74.2772 16.41V16.5326H80.9271V18.5281H71.1317L71.1311 18.5268Z" fill="white"/>
</g>
<path d="M90.3466 4.18182V18H88.6733V4.18182H90.3466ZM97.6048 18H93.3406V4.18182H97.7937C99.1342 4.18182 100.281 4.45845 101.235 5.01172C102.188 5.56049 102.919 6.3499 103.428 7.37997C103.936 8.40554 104.19 9.63352 104.19 11.0639C104.19 12.5033 103.934 13.7425 103.421 14.7816C102.908 15.8162 102.161 16.6123 101.181 17.1701C100.2 17.7234 99.0082 18 97.6048 18ZM95.0139 16.5156H97.4969C98.6394 16.5156 99.5862 16.2952 100.337 15.8544C101.089 15.4136 101.649 14.7861 102.017 13.9719C102.386 13.1578 102.571 12.1884 102.571 11.0639C102.571 9.94839 102.389 8.98804 102.024 8.18288C101.66 7.37322 101.116 6.75249 100.391 6.32067C99.6672 5.88435 98.7653 5.66619 97.6858 5.66619H95.0139V16.5156ZM106.636 18V4.18182H114.975V5.66619H108.309V10.3352H114.544V11.8196H108.309V16.5156H115.083V18H106.636ZM128.588 4.18182V18H126.968L119.439 7.15057H119.304V18H117.63V4.18182H119.25L126.806 15.0582H126.941V4.18182H128.588ZM130.819 5.66619V4.18182H141.183V5.66619H136.838V18H135.164V5.66619H130.819ZM145.078 4.18182V18H143.404V4.18182H145.078ZM147.316 5.66619V4.18182H157.68V5.66619H153.335V18H151.661V5.66619H147.316ZM158.714 4.18182H160.63L164.462 10.6321H164.624L168.457 4.18182H170.373L165.38 12.3054V18H163.707V12.3054L158.714 4.18182ZM184.715 7.63636C184.635 6.95265 184.306 6.42188 183.73 6.04403C183.155 5.66619 182.448 5.47727 181.612 5.47727C181 5.47727 180.465 5.57623 180.006 5.77415C179.552 5.97206 179.196 6.2442 178.94 6.59055C178.688 6.93691 178.562 7.33049 178.562 7.77131C178.562 8.14015 178.65 8.45727 178.825 8.72266C179.005 8.98355 179.235 9.2017 179.513 9.37713C179.792 9.54806 180.085 9.68975 180.391 9.8022C180.696 9.91016 180.978 9.99787 181.234 10.0653L182.637 10.4432C182.997 10.5376 183.398 10.6681 183.838 10.8345C184.284 11.0009 184.709 11.2281 185.114 11.516C185.523 11.7994 185.86 12.1637 186.126 12.609C186.391 13.0543 186.524 13.6009 186.524 14.2486C186.524 14.9953 186.328 15.67 185.937 16.2727C185.55 16.8755 184.983 17.3545 184.236 17.7099C183.494 18.0652 182.592 18.2429 181.531 18.2429C180.541 18.2429 179.684 18.0832 178.96 17.7638C178.24 17.4445 177.674 16.9992 177.26 16.4279C176.851 15.8567 176.619 15.1932 176.565 14.4375H178.292C178.337 14.9593 178.513 15.3911 178.818 15.733C179.129 16.0703 179.52 16.3222 179.992 16.4886C180.469 16.6506 180.982 16.7315 181.531 16.7315C182.17 16.7315 182.743 16.6281 183.251 16.4212C183.76 16.2098 184.162 15.9174 184.459 15.544C184.756 15.1662 184.904 14.7254 184.904 14.2216C184.904 13.7628 184.776 13.3894 184.52 13.1016C184.263 12.8137 183.926 12.5798 183.508 12.3999C183.089 12.2199 182.637 12.0625 182.152 11.9276L180.451 11.4418C179.372 11.1314 178.517 10.6883 177.887 10.1126C177.258 9.53681 176.943 8.78338 176.943 7.85227C176.943 7.0786 177.152 6.40388 177.57 5.82812C177.993 5.24787 178.56 4.79806 179.271 4.47869C179.986 4.15483 180.784 3.9929 181.666 3.9929C182.556 3.9929 183.348 4.15258 184.041 4.47195C184.733 4.78681 185.282 5.21863 185.687 5.7674C186.096 6.31617 186.312 6.93916 186.335 7.63636H184.715ZM188.914 18V4.18182H197.253V5.66619H190.587V10.3352H196.822V11.8196H190.587V16.5156H197.361V18H188.914ZM199.908 18V4.18182H204.577C205.657 4.18182 206.543 4.36624 207.236 4.73508C207.928 5.09943 208.441 5.60097 208.774 6.2397C209.107 6.87843 209.273 7.60488 209.273 8.41903C209.273 9.23319 209.107 9.95514 208.774 10.5849C208.441 11.2146 207.931 11.7094 207.243 12.0692C206.554 12.4246 205.675 12.6023 204.604 12.6023H200.826V11.0909H204.55C205.288 11.0909 205.882 10.983 206.332 10.767C206.786 10.5511 207.114 10.2453 207.317 9.84943C207.524 9.4491 207.627 8.9723 207.627 8.41903C207.627 7.86577 207.524 7.38222 207.317 6.96839C207.11 6.55457 206.779 6.2352 206.325 6.0103C205.871 5.78089 205.27 5.66619 204.523 5.66619H201.582V18H199.908ZM206.413 11.7926L209.813 18H207.87L204.523 11.7926H206.413ZM211.952 4.18182L216.054 15.8139H216.216L220.318 4.18182H222.073L216.999 18H215.272L210.198 4.18182H211.952ZM223.864 18V4.18182H232.204V5.66619H225.537V10.3352H231.772V11.8196H225.537V16.5156H232.312V18H223.864ZM234.859 18V4.18182H239.528C240.607 4.18182 241.493 4.36624 242.186 4.73508C242.879 5.09943 243.391 5.60097 243.724 6.2397C244.057 6.87843 244.224 7.60488 244.224 8.41903C244.224 9.23319 244.057 9.95514 243.724 10.5849C243.391 11.2146 242.881 11.7094 242.193 12.0692C241.505 12.4246 240.625 12.6023 239.555 12.6023H235.776V11.0909H239.501C240.238 11.0909 240.832 10.983 241.282 10.767C241.736 10.5511 242.065 10.2453 242.267 9.84943C242.474 9.4491 242.577 8.9723 242.577 8.41903C242.577 7.86577 242.474 7.38222 242.267 6.96839C242.06 6.55457 241.729 6.2352 241.275 6.0103C240.821 5.78089 240.22 5.66619 239.474 5.66619H236.532V18H234.859ZM241.363 11.7926L244.763 18H242.82L239.474 11.7926H241.363Z" fill="white"/>
<defs>
<clipPath id="clip0_2331_5">
<rect width="81" height="21" fill="white"/>
</clipPath>
</defs>
</svg>
