<!--
 * Copyright (c) 2021-2024, WSO2 Inc. (http://www.wso2.org).
 *
 * WSO2 Inc. licenses this file to you under the Apache License,
 * Version 2.0 (the "License"); you may not use this file except
 * in compliance with the License.
 * You may obtain a copy of the License at
 *
 *     http://www.apache.org/licenses/LICENSE-2.0
 *
 * Unless required by applicable law or agreed to in writing,
 * software distributed under the License is distributed on an
 * "AS IS" BASIS, WITHOUT WARRANTIES OR CONDITIONS OF ANY
 * KIND, either express or implied. See the License for the
 * specific language governing permissions and limitations
 * under the License.
-->

<svg id="clock-outline-icon" class="icon" width="16" height="16" viewBox="0 0 16 16" fill="none" xmlns="http://www.w3.org/2000/svg">
    <path fill-rule="evenodd" clip-rule="evenodd" d="M8.329 1.05295C4.76848 0.595017 1.51088 3.11017 1.05295 6.67069C0.713673 9.30864 2.0063 11.7814 4.1491 13.0717C4.38567 13.2141 4.46197 13.5214 4.31952 13.758C4.17707 13.9945 3.86982 14.0708 3.63326 13.9284C1.16291 12.4409 -0.330567 9.58858 0.0611182 6.54313C0.5895 2.43483 4.34827 -0.467264 8.45657 0.0611178C12.5649 0.5895 15.467 4.34827 14.9386 8.45657C14.9034 8.73045 14.6528 8.92393 14.3789 8.8887C14.105 8.85348 13.9115 8.60289 13.9467 8.329C14.4047 4.76848 11.8895 1.51088 8.329 1.05295ZM7.8726 11.3369C7.91769 10.8877 8.58186 10.8877 8.62696 11.3369L8.75714 12.6336L9.96115 12.0964C10.3782 11.9103 10.7103 12.4774 10.3383 12.7405L9.2645 13.5L10.3383 14.2595C10.7103 14.5226 10.3782 15.0897 9.96115 14.9037L8.75714 14.3665L8.62696 15.6631C8.58186 16.1123 7.91769 16.1123 7.8726 15.6631L7.74242 14.3665L6.53841 14.9037C6.12132 15.0897 5.78923 14.5226 6.16123 14.2595L7.23506 13.5L6.16123 12.7405C5.78923 12.4774 6.12131 11.9103 6.53841 12.0964L7.74242 12.6336L7.8726 11.3369ZM13.3726 11.3369C13.4177 10.8877 14.0819 10.8877 14.127 11.3369L14.2571 12.6336L15.4611 12.0964C15.8782 11.9103 16.2103 12.4774 15.8383 12.7405L14.7645 13.5L15.8383 14.2595C16.2103 14.5226 15.8782 15.0897 15.4611 14.9037L14.2571 14.3665L14.127 15.6631C14.0819 16.1123 13.4177 16.1123 13.3726 15.6631L13.2424 14.3665L12.0384 14.9037C11.6213 15.0897 11.2892 14.5226 11.6612 14.2595L12.7351 13.5L11.6612 12.7405C11.2892 12.4774 11.6213 11.9103 12.0384 12.0964L13.2424 12.6336L13.3726 11.3369ZM7.99978 2.50003C7.99978 2.22389 7.77592 2.00003 7.49978 2.00003C7.22363 2.00003 6.99978 2.22389 6.99978 2.50003V7.50003V8.00003H7.49978H10.4998C10.7759 8.00003 10.9998 7.77617 10.9998 7.50003C10.9998 7.22389 10.7759 7.00003 10.4998 7.00003H7.99978V2.50003Z" fill="black"/>
</svg>
