<?xml version="1.0" encoding="utf-8"?>

<!--
 * Copyright (c) 2020, WSO2 Inc. (http://www.wso2.org) All Rights Reserved.
 *
 * WSO2 Inc. licenses this file to you under the Apache License,
 * Version 2.0 (the "License"); you may not use this file except
 * in compliance with the License.
 * You may obtain a copy of the License at
 *
 *     http://www.apache.org/licenses/LICENSE-2.0
 *
 * Unless required by applicable law or agreed to in writing,
 * software distributed under the License is distributed on an
 * "AS IS" BASIS, WITHOUT WARRANTIES OR CONDITIONS OF ANY
 * KIND, either express or implied. See the License for the
 * specific language governing permissions and limitations
 * under the License.
-->

<svg xmlns:xlink="http://www.w3.org/1999/xlink" id="expert-idp-illustration" class="icon"
     xmlns="http://www.w3.org/2000/svg"
     width="100" height="100"
     viewBox="0 0 53.393 60.098">
  <defs>
    <linearGradient id="linear-gradient" x1="0.292" y1="0.5" x2="2.192" y2="0.5" gradientUnits="objectBoundingBox">
      <stop offset="0" stop-color="#fff0d5"/>
      <stop offset="0.001" stop-color="#fff0d5"/>
      <stop offset="0.557" stop-color="#fff6df" stop-opacity="0.902"/>
      <stop offset="1" stop-color="#ff5000" stop-opacity="0.251"/>
    </linearGradient>
  </defs>
  <g transform="translate(-571.619 -136.789)">
    <path d="M62.757,9.343a14.974,14.974,0,1,0-25.052,15.61,11.366,11.366,0,0,1,2.823,7.968q-.02.582-.005,1.172a20.17,20.17,0,0,0,19.9,19.4,19.9,19.9,0,0,0,8.222-38.011A11.489,11.489,0,0,1,62.76,9.343Z"
          transform="translate(542.083 139.503)" fill="url(#linear-gradient)"/>
    <path d="M20.5,0A20.5,20.5,0,1,1,0,20.5,20.5,20.5,0,0,1,20.5,0Z" transform="translate(579 145)" fill="#ff5000"
          opacity="0.1"/>
    <path d="M18.533,0C28.769,0,37.066,8.7,37.066,19.421s-8.3,19.421-18.533,19.421S0,30.147,0,19.421,8.3,0,18.533,0Z"
          transform="translate(580.792 149.601)" fill="#ffd1bc"/>
    <path d="M4.04,22.3H36.9a4.674,4.674,0,0,0,.078-.7v-.855a25.3,25.3,0,0,0-1.282-8.2,20,20,0,0,0-3.651-6.564,16.962,16.962,0,0,0-5.71-4.389A17.3,17.3,0,0,0,18.8,0a17.089,17.089,0,0,0-7.458,1.631A18.888,18.888,0,0,0,5.4,6.059a20.686,20.686,0,0,0-3.962,6.564A22.367,22.367,0,0,0,0,20.664v.155a22.168,22.168,0,0,0,1.557,8.467A19.866,19.866,0,0,0,5.8,35.812a18.869,18.869,0,0,0,6.229,4.195,19.146,19.146,0,0,0,7.436,1.476A19.455,19.455,0,0,0,29,39.347a27.622,27.622,0,0,0,6.885-5.4l-2.641-2.331a23.333,23.333,0,0,1-5.725,4.428,16.142,16.142,0,0,1-7.906,1.787,15.466,15.466,0,0,1-5.647-1.043,14.427,14.427,0,0,1-4.79-3.053,17.021,17.021,0,0,1-3.5-4.87A17.264,17.264,0,0,1,4.04,22.3Zm0-3.418a18.3,18.3,0,0,1,1.48-6.1A17.453,17.453,0,0,1,8.674,7.885a13.83,13.83,0,0,1,4.479-3.224A13.238,13.238,0,0,1,18.683,3.5a13.28,13.28,0,0,1,6,1.282A13.044,13.044,0,0,1,29,8.2,16.08,16.08,0,0,1,31.73,13.09a22.525,22.525,0,0,1,1.208,5.787Z"
          transform="matrix(0.951, -0.309, 0.309, 0.951, 575.354, 154.621)" fill="#ff5000"/>
    <path d="M8.133,0A8.133,8.133,0,1,1,0,8.133,8.133,8.133,0,0,1,8.133,0Z" transform="translate(581.846 143.239)"
          fill="#ffa052" stroke="#ff5000" stroke-width="2"/>
    <path d="M5.763,4.365a3.363,3.363,0,0,0-1.283-.8,1.952,1.952,0,1,0-2.209,0A3.381,3.381,0,0,0,0,6.752H.527a2.85,2.85,0,1,1,5.7,0h.527a3.354,3.354,0,0,0-.991-2.387ZM3.376,3.376A1.424,1.424,0,1,1,4.8,1.952,1.424,1.424,0,0,1,3.376,3.376Z"
          transform="translate(586.5 147.537)" fill="#fff" stroke="#fff" stroke-width="0.5"/>
    <path d="M221.352,55.111l-2.265-2.265a1.029,1.029,0,0,0-1.457,0l-2.265,2.265a1.03,1.03,0,0,0,0,1.457l2.265,2.265a1.03,1.03,0,0,0,1.457,0l2.265-2.265a1.03,1.03,0,0,0,0-1.457Zm-2.994,1.542-.81-.81.81-.81.81.81Z"
          transform="translate(356.555 107.016)" fill="#ffa052"/>
    <path d="M160.462,36.914a.9.9,0,0,1-.9-.9.751.751,0,1,0-1.5,0,.9.9,0,0,1-.9.9.751.751,0,1,0,0,1.5.9.9,0,0,1,.9.9.751.751,0,0,0,1.5,0,.9.9,0,0,1,.9-.9.751.751,0,0,0,0-1.5Z"
          transform="translate(434.476 101.529)" fill="#f8cfbc"/>
    <path d="M343.5,55.111l-2.265-2.265a1.029,1.029,0,0,0-1.457,0l-2.265,2.265a1.03,1.03,0,0,0,0,1.457l2.265,2.265a1.03,1.03,0,0,0,1.457,0l2.265-2.265a1.03,1.03,0,0,0,0-1.457Zm-2.994,1.542-.81-.81.81-.81.81.81Z"
          transform="translate(277.337 98.016)" fill="#ffb898"/>
    <path d="M93.28,450.434a.816.816,0,0,1-.816-.816.984.984,0,0,0-.983-.982.816.816,0,1,1,0-1.633.984.984,0,0,0,.983-.982.816.816,0,1,1,1.633,0,.984.984,0,0,0,.982.982.816.816,0,0,1,0,1.633.984.984,0,0,0-.982.982.816.816,0,0,1-.817.816Z"
          transform="translate(510.583 -253.547)" fill="#ffe783"/>
    <path d="M295.41,253.116a.967.967,0,0,0,.447-.683,57.456,57.456,0,0,0,.422-7.565,60.514,60.514,0,0,0-.368-7.169.968.968,0,0,0-.961-.844H280.393a.968.968,0,0,0-.961.844,60.509,60.509,0,0,0-.368,7.169,57.461,57.461,0,0,0,.422,7.565.967.967,0,0,0,.447.683l6.589,4.1a2.182,2.182,0,0,0,2.3,0Z"
          transform="translate(327.729 -63.906)" fill="#ffa052" stroke="#ff5000" stroke-width="2"/>
    <path d="M55.659,67.206A48.042,48.042,0,0,0,55.4,73.84c.054,4.411.262,4.791.262,4.791l5.509,3.535,5.516-3.535a31.115,31.115,0,0,0,.216-4.989c.017-4.168-.216-6.436-.216-6.436Z"
          transform="translate(554.251 108.65)" fill="#fff"/>
    <path d="M69.37,2.661h-.46V2.067a2.149,2.149,0,0,0-4.3,0v.594h-.46A.151.151,0,0,0,64,2.809v3.7a.6.6,0,0,0,.614.594h4.3a.6.6,0,0,0,.614-.594v-3.7a.151.151,0,0,0-.154-.148ZM67.222,5.753a.145.145,0,0,1-.038.115.156.156,0,0,1-.115.049h-.614a.156.156,0,0,1-.115-.049.145.145,0,0,1-.038-.115l.1-.841a.579.579,0,0,1-.251-.476.614.614,0,0,1,1.228,0,.579.579,0,0,1-.251.476Zm.768-3.091H65.534V2.067a1.228,1.228,0,0,1,2.455,0Z"
          transform="translate(548.755 178.711)" fill="#ff7c41"/>
    <path d="M8.133,0A8.133,8.133,0,1,1,0,8.133,8.133,8.133,0,0,1,8.133,0Z" transform="translate(573.846 167.239)"
          fill="#fdd250" stroke="#ff5000" stroke-width="2"/>
    <path d="M5.763,4.365a3.363,3.363,0,0,0-1.283-.8,1.952,1.952,0,1,0-2.209,0A3.381,3.381,0,0,0,0,6.752H.527a2.85,2.85,0,1,1,5.7,0h.527a3.354,3.354,0,0,0-.991-2.387ZM3.376,3.376A1.424,1.424,0,1,1,4.8,1.952,1.424,1.424,0,0,1,3.376,3.376Z"
          transform="translate(578.5 171.537)" fill="#fff" stroke="#fff" stroke-width="0.5"/>
  </g>
</svg>
