<?xml version="1.0" encoding="utf-8"?>

<!--
 * Copyright (c) 2020, WSO2 Inc. (http://www.wso2.org) All Rights Reserved.
 *
 * WSO2 Inc. licenses this file to you under the Apache License,
 * Version 2.0 (the "License"); you may not use this file except
 * in compliance with the License.
 * You may obtain a copy of the License at
 *
 *     http://www.apache.org/licenses/LICENSE-2.0
 *
 * Unless required by applicable law or agreed to in writing,
 * software distributed under the License is distributed on an
 * "AS IS" BASIS, WITHOUT WARRANTIES OR CONDITIONS OF ANY
 * KIND, either express or implied. See the License for the
 * specific language governing permissions and limitations
 * under the License.
-->

<svg id="facebook-idp-illustration" class="icon" xmlns="http://www.w3.org/2000/svg" width="67.91" height="67.91" viewBox="0 0 67.91 67.91">
  <g id="facebook-idp-illustration" transform="translate(0 1365.33)">
    <g id="g12" transform="translate(0 -1365.33)">
      <path id="path14" d="M67.91-1331.375a33.955,33.955,0,0,0-33.955-33.955A33.955,33.955,0,0,0,0-1331.375a33.963,33.963,0,0,0,28.649,33.542v-23.727H20.028v-9.815h8.621v-7.481c0-8.51,5.069-13.211,12.825-13.211a52.213,52.213,0,0,1,7.6.663v8.356H44.794c-4.218,0-5.533,2.617-5.533,5.3v6.369h9.417l-1.505,9.815H39.26v23.727a33.963,33.963,0,0,0,28.649-33.542" transform="translate(0 1365.33)" fill="#1877f2"/>
      <path id="path16" d="M429.81-1068.158l1.505-9.815H421.9v-6.369c0-2.685,1.315-5.3,5.533-5.3h4.282V-1098a52.213,52.213,0,0,0-7.6-.663c-7.756,0-12.825,4.7-12.825,13.211v7.481h-8.621v9.815h8.621v23.727a34.21,34.21,0,0,0,5.305.412,34.21,34.21,0,0,0,5.305-.412v-23.727h7.912" transform="translate(-382.638 1111.927)" fill="#fff"/>
    </g>
  </g>
</svg>
