<?xml version="1.0" encoding="utf-8"?>

<!--
 * Copyright (c) 2020, WSO2 Inc. (http://www.wso2.org) All Rights Reserved.
 *
 * WSO2 Inc. licenses this file to you under the Apache License,
 * Version 2.0 (the "License"); you may not use this file except
 * in compliance with the License.
 * You may obtain a copy of the License at
 *
 *     http://www.apache.org/licenses/LICENSE-2.0
 *
 * Unless required by applicable law or agreed to in writing,
 * software distributed under the License is distributed on an
 * "AS IS" BASIS, WITHOUT WARRANTIES OR CONDITIONS OF ANY
 * KIND, either express or implied. See the License for the
 * specific language governing permissions and limitations
 * under the License.
-->

<svg version="1.1" id="github-logo" class="icon" xmlns="http://www.w3.org/2000/svg"
     xmlns:xlink="http://www.w3.org/1999/xlink" width="100" height="100" viewBox="-15 -15 100 100">
    <g id="github" transform="translate(69 -11.438)">
        <path id="Path_130"
              d="M46.357,67.4a6.325,6.325,0,0,1-1.021.328,1.68,1.68,0,0,1-2.182-1.8c-.018-2.516-.018-5.029.023-7.545.043-2.894-.023-5.75-2.227-8.137,1.31-.235,2.475-.4,3.615-.661,7.551-1.734,11.473-6.5,11.973-14.4C56.8,31.162,56.078,27.47,53.4,24.3a1.323,1.323,0,0,1-.111-1.054,13.265,13.265,0,0,0-.325-7.74.989.989,0,0,0-1.177-.8,12.025,12.025,0,0,0-6.039,2.1,6.311,6.311,0,0,1-5.384.942,30.161,30.161,0,0,0-13.569.323,2.487,2.487,0,0,1-1.664-.315,21.59,21.59,0,0,0-6.671-2.925c-1.887-.368-2.051-.274-2.551,1.55a12.756,12.756,0,0,0-.049,6.913,1.4,1.4,0,0,1-.229,1.124c-5,5.578-3.189,16.118.18,20.156,2.62,3.136,6.1,4.548,9.963,5.281.675.125,1.345.221,2.02.338-.579,1.505-1.1,2.927-1.687,4.325a1.425,1.425,0,0,1-.78.61c-3.789,1.47-7.046.389-9.215-3.05a7.178,7.178,0,0,0-4.864-3.6.683.683,0,0,0-.207-.041c-.6.156-1.187.321-1.781.481.334.465.571,1.091,1.019,1.371a9.96,9.96,0,0,1,3.908,4.884c1.269,3.136,3.732,4.534,6.933,4.808,1.562.127,3.14.02,4.851.02,0,1.947.07,4.17-.029,6.384-.051,1.193-1.249,1.67-2.684,1.181a31.213,31.213,0,0,1-10.384-5.793C1.869,52.293-2.373,40.308,1.285,26.28,4.931,12.3,14.435,3.719,28.645,1.027c19.663-3.719,38.29,10.6,40.241,30.561A34.45,34.45,0,0,1,46.357,67.4ZM27.82,50.123l-.031.074.108.018C27.924,50.216,27.947,50.265,27.82,50.123Zm-8.9,6.219a4.425,4.425,0,0,0,.933.534c.121.039.346-.237.743-.53a6.724,6.724,0,0,0-1.218-.44C19.249,55.89,19.076,56.189,18.924,56.342Zm2.8.481a.868.868,0,0,0,.694.458c.233,0,.459-.313.692-.489-.211-.194-.422-.381-1.071-.966C21.9,56.232,21.667,56.561,21.726,56.823ZM25.163,56a2.753,2.753,0,0,0-.8.52c.154.2.309.377.557.684.342-.313.575-.53.809-.741C25.536,56.289,25.308,55.961,25.163,56Zm-8.521-1.159a7.713,7.713,0,0,0,.745.993c.225-.368.469-.649.426-.706a3.776,3.776,0,0,0-.788-.718C17.006,54.391,16.609,54.77,16.642,54.836Z"
              transform="translate(-69 11)"/>
    </g>
</svg>
