<?xml version="1.0" encoding="UTF-8"?>
<!-- Generator: visioncortex VTracer 0.6.3 -->
<svg version="1.1" xmlns="http://www.w3.org/2000/svg" width="1280" height="1280">
<path d="M0 0 C1.43 0 2.87 0.01 4.3 0.02 C5.43 0.02 5.43 0.02 6.58 0.02 C9 0.03 11.41 0.04 13.83 0.05 C15.46 0.06 17.09 0.06 18.73 0.06 C22.74 0.08 26.75 0.09 30.77 0.11 C30.77 0.77 30.77 1.43 30.77 2.11 C31.63 2.09 32.5 2.07 33.4 2.04 C35.13 2.02 35.13 2.02 36.89 1.99 C38.6 1.95 38.6 1.95 40.34 1.92 C43.82 2.12 46.52 2.86 49.77 4.11 C49.77 5.1 49.77 6.09 49.77 7.11 C50.49 7.14 51.21 7.16 51.95 7.19 C55.24 7.31 58.54 7.43 61.83 7.55 C62.96 7.59 64.1 7.63 65.26 7.67 C70.83 7.88 76.27 8.16 81.77 9.11 C81.77 10.1 81.77 11.09 81.77 12.11 C82.91 12.27 82.91 12.27 84.08 12.43 C87.26 13.02 90.37 13.7 93.52 14.49 C94.93 14.84 94.93 14.84 96.37 15.2 C98.77 16.11 98.77 16.11 100.77 19.11 C104.28 19.99 107.8 20.51 111.38 21.07 C115.4 22.31 116.36 23.78 118.77 27.11 C121.09 27.82 123.42 28.49 125.77 29.11 C126.1 30.1 126.43 31.09 126.77 32.11 C128.81 32.73 128.81 32.73 131.2 32.99 C133.69 33.45 133.69 33.45 135.77 34.11 C136.89 36.61 136.89 36.61 137.77 39.11 C140.08 39.84 142.41 40.51 144.77 41.11 C145.1 42.1 145.43 43.09 145.77 44.11 C147.41 45.14 149.08 46.14 150.77 47.11 C151.1 47.77 151.43 48.43 151.77 49.11 C151.44 50.1 151.11 51.09 150.77 52.11 C151.71 52.2 152.66 52.28 153.64 52.36 C154.67 52.61 155.7 52.86 156.77 53.11 C157.83 54.99 157.83 54.99 158.77 57.11 C159.61 57.59 160.46 58.06 161.33 58.55 C163.77 60.11 163.77 60.11 164.58 62.8 C164.64 63.56 164.7 64.33 164.77 65.11 C166.09 64.78 167.41 64.45 168.77 64.11 C169.02 65.07 169.02 65.07 169.28 66.05 C169.52 66.87 169.77 67.7 170.02 68.55 C170.25 69.37 170.48 70.2 170.72 71.05 C171.06 71.73 171.41 72.41 171.77 73.11 C173.75 73.79 173.75 73.79 175.77 74.11 C177.91 77.05 178.9 79.63 179.77 83.11 C180.43 83.44 181.09 83.77 181.77 84.11 C182.17 86.44 182.49 88.77 182.77 91.11 C183.09 92.78 183.41 94.45 183.77 96.11 C184.71 96.26 185.66 96.4 186.64 96.55 C189.77 98.11 189.77 98.11 190.61 100.07 C191.51 104.08 192.03 108 191.77 112.11 C193.09 112.11 194.41 112.11 195.77 112.11 C195.77 130.59 195.77 149.07 195.77 168.11 C194.45 168.11 193.13 168.11 191.77 168.11 C191.64 169.03 191.52 169.94 191.4 170.89 C191.23 172.08 191.06 173.26 190.89 174.49 C190.73 175.67 190.57 176.86 190.4 178.07 C189.77 181.11 189.77 181.11 187.77 183.11 C186.45 183.11 185.13 183.11 183.77 183.11 C184.1 184.1 184.43 185.09 184.77 186.11 C184.44 186.44 184.11 186.77 183.77 187.11 C183.37 189.46 183.02 191.82 182.7 194.18 C182.53 195.47 182.35 196.76 182.17 198.09 C182.03 199.09 181.9 200.08 181.77 201.11 C180.78 201.11 179.79 201.11 178.77 201.11 C178.48 202.39 178.19 203.67 177.89 204.99 C177.09 208.52 176.15 210.02 173.27 212.3 C171.08 214.95 170.57 217.82 169.77 221.11 C168.12 221.11 166.47 221.11 164.77 221.11 C164.68 222.23 164.6 223.34 164.52 224.49 C164.14 226.28 164.14 226.28 163.77 228.11 C162.8 228.58 162.8 228.58 161.81 229.05 C159.57 229.94 159.57 229.94 158.86 232.24 C158.46 233.87 158.07 235.49 157.67 237.12 C157.22 238.11 157.22 238.11 156.77 239.11 C154.75 239.7 154.75 239.7 152.77 240.11 C151.46 243.11 151.46 243.11 150.77 246.11 C149.12 246.44 147.47 246.77 145.77 247.11 C145.7 247.9 145.64 248.68 145.58 249.49 C145.18 250.79 145.18 250.79 144.77 252.11 C143.1 252.78 141.43 253.45 139.77 254.11 C138.87 256.66 138.87 256.66 138.77 259.11 C137.59 259.21 137.59 259.21 136.39 259.3 C135.09 259.7 135.09 259.7 133.77 260.11 C133.08 261.77 132.42 263.44 131.77 265.11 C130.1 265.78 128.43 266.45 126.77 267.11 C126.44 267.96 126.11 268.8 125.77 269.68 C125.44 270.48 125.11 271.28 124.77 272.11 C122.14 272.93 122.14 272.93 119.77 273.11 C119.66 274.06 119.66 274.06 119.54 275.02 C119.29 275.71 119.03 276.4 118.77 277.11 C116.77 278.02 116.77 278.02 114.33 278.61 C111.9 279.14 111.9 279.14 109.77 280.11 C108.54 282.06 108.54 282.06 107.77 284.11 C106.77 285.11 105.77 286.11 104.77 287.11 C104.44 288.1 104.11 289.09 103.77 290.11 C102.67 290.26 101.58 290.4 100.45 290.55 C96.83 291 96.83 291 93.77 292.11 C93.79 292.92 93.81 293.72 93.83 294.55 C93.77 297.11 93.77 297.11 92.77 298.11 C91.1 298.15 89.43 298.16 87.77 298.11 C87.77 299.43 87.77 300.75 87.77 302.11 C85.13 302.44 82.49 302.77 79.77 303.11 C79.77 304.76 79.77 306.41 79.77 308.11 C75.94 310.5 72.17 310.67 67.77 311.11 C67.44 313.09 67.11 315.07 66.77 317.11 C65.12 317.11 63.47 317.11 61.77 317.11 C62.1 318.43 62.43 319.75 62.77 321.11 C61.63 321.51 60.5 321.9 59.33 322.3 C55.56 323.7 55.56 323.7 54.83 326.8 C54.81 327.56 54.79 328.33 54.77 329.11 C52.79 329.44 50.81 329.77 48.77 330.11 C48.44 331.76 48.11 333.41 47.77 335.11 C46.34 335.52 46.34 335.52 44.89 335.93 C41.51 336.86 41.51 336.86 39.77 340.11 C39.11 340.11 38.45 340.11 37.77 340.11 C37.11 340.94 36.45 341.76 35.77 342.61 C35.11 343.44 34.45 344.26 33.77 345.11 C33.11 345.11 32.45 345.11 31.77 345.11 C31.77 345.77 31.77 346.43 31.77 347.11 C31.11 347.11 30.45 347.11 29.77 347.11 C29.77 347.77 29.77 348.43 29.77 349.11 C27.79 349.11 25.81 349.11 23.77 349.11 C23.79 350.08 23.81 351.05 23.83 352.05 C23.77 355.11 23.77 355.11 22.77 356.11 C20.07 355.94 17.44 355.5 14.77 355.11 C14.77 356.1 14.77 357.09 14.77 358.11 C15.43 358.44 16.09 358.77 16.77 359.11 C14.79 359.77 12.81 360.43 10.77 361.11 C10.7 362.06 10.64 363.01 10.58 363.99 C10.18 365.54 10.18 365.54 9.77 367.11 C7.39 368.18 7.39 368.18 4.77 369.11 C4.37 369.96 3.98 370.8 3.58 371.68 C1.77 374.11 1.77 374.11 -0.64 374.66 C-3.18 374.9 -5.69 375.06 -8.23 375.11 C-8.23 377.09 -8.23 379.07 -8.23 381.11 C-10.31 381.67 -12.08 382.11 -14.23 382.11 C-13.9 383.43 -13.57 384.75 -13.23 386.11 C-17.98 390.11 -17.98 390.11 -20.23 390.11 C-20.89 391.43 -21.55 392.75 -22.23 394.11 C-23.88 394.11 -25.53 394.11 -27.23 394.11 C-27.23 395.76 -27.23 397.41 -27.23 399.11 C-28.2 399.55 -29.17 399.98 -30.17 400.43 C-33.51 401.82 -33.51 401.82 -34.23 405.11 C-37.3 406.3 -37.3 406.3 -40.23 407.11 C-40.56 408.76 -40.89 410.41 -41.23 412.11 C-43.21 412.44 -45.19 412.77 -47.23 413.11 C-47.26 413.88 -47.28 414.64 -47.3 415.43 C-48.23 418.11 -48.23 418.11 -51.8 419.93 C-52.93 420.32 -54.07 420.71 -55.23 421.11 C-55.23 422.1 -55.23 423.09 -55.23 424.11 C-61.73 427.11 -61.73 427.11 -66.23 427.11 C-66.23 428.76 -66.23 430.41 -66.23 432.11 C-67.88 432.44 -69.53 432.77 -71.23 433.11 C-71.23 434.43 -71.23 435.75 -71.23 437.11 C-73.54 437.44 -75.85 437.77 -78.23 438.11 C-78.89 440.42 -79.55 442.73 -80.23 445.11 C-80.85 445.2 -81.47 445.28 -82.11 445.36 C-82.81 445.61 -83.51 445.86 -84.23 446.11 C-84.52 446.77 -84.81 447.43 -85.11 448.11 C-85.48 448.77 -85.85 449.43 -86.23 450.11 C-89.36 450.86 -89.36 450.86 -92.23 451.11 C-92.56 452.76 -92.89 454.41 -93.23 456.11 C-94.22 456.11 -95.21 456.11 -96.23 456.11 C-96.89 456.77 -97.55 457.43 -98.23 458.11 C-99.55 458.11 -100.87 458.11 -102.23 458.11 C-102.54 458.92 -102.85 459.72 -103.17 460.55 C-104.23 463.11 -104.23 463.11 -105.23 464.11 C-106.9 464.15 -108.57 464.16 -110.23 464.11 C-110.3 465.06 -110.36 466.01 -110.42 466.99 C-110.69 468.02 -110.96 469.05 -111.23 470.11 C-113.73 471.24 -113.73 471.24 -116.23 472.11 C-117.12 474.15 -117.12 474.15 -117.23 476.11 C-119.54 476.44 -121.85 476.77 -124.23 477.11 C-124.56 479.09 -124.89 481.07 -125.23 483.11 C-126.88 483.11 -128.53 483.11 -130.23 483.11 C-130.38 484.04 -130.52 484.97 -130.67 485.93 C-132.23 489.11 -132.23 489.11 -134.27 490 C-135.88 490.45 -137.5 490.9 -139.12 491.33 C-142.12 492.44 -142.84 494.33 -144.23 497.11 C-146.42 497.93 -146.42 497.93 -148.23 498.11 C-148.33 499.04 -148.33 499.04 -148.42 499.99 C-148.69 500.69 -148.96 501.39 -149.23 502.11 C-150.9 502.79 -152.56 503.46 -154.23 504.11 C-154.56 504.77 -154.89 505.43 -155.23 506.11 C-156.23 508.11 -156.23 508.11 -158.73 509.05 C-159.56 509.4 -160.38 509.75 -161.23 510.11 C-161.56 510.94 -161.89 511.76 -162.23 512.61 C-163.23 515.11 -163.23 515.11 -165.8 516.24 C-166.6 516.53 -167.41 516.82 -168.23 517.11 C-168.56 518.1 -168.89 519.09 -169.23 520.11 C-170.2 520.4 -171.17 520.69 -172.17 520.99 C-173.18 521.36 -174.19 521.73 -175.23 522.11 C-175.48 522.94 -175.73 523.76 -175.98 524.61 C-176.4 525.44 -176.81 526.26 -177.23 527.11 C-180.51 528.19 -183.82 528.69 -187.23 529.11 C-187.56 530.76 -187.89 532.41 -188.23 534.11 C-189.38 534.18 -189.38 534.18 -190.55 534.24 C-193.56 534.89 -193.56 534.89 -195.05 538.18 C-195.63 539.63 -195.63 539.63 -196.23 541.11 C-197.88 541.11 -199.53 541.11 -201.23 541.11 C-201.3 541.71 -201.36 542.31 -201.42 542.93 C-202.23 545.11 -202.23 545.11 -204.48 546.86 C-207.36 548.17 -209.13 548.38 -212.23 548.11 C-212.03 548.73 -211.82 549.35 -211.61 549.99 C-211.42 551.04 -211.42 551.04 -211.23 552.11 C-213.23 554.11 -213.23 554.11 -216.36 554.24 C-217.31 554.2 -218.26 554.16 -219.23 554.11 C-219.23 555.76 -219.23 557.41 -219.23 559.11 C-220.2 559.53 -221.17 559.94 -222.17 560.36 C-225.36 561.76 -225.36 561.76 -226.11 564.3 C-226.15 564.9 -226.19 565.5 -226.23 566.11 C-227.88 566.44 -229.53 566.77 -231.23 567.11 C-231.56 568.76 -231.89 570.41 -232.23 572.11 C-234.54 572.77 -236.85 573.43 -239.23 574.11 C-239.56 575.76 -239.89 577.41 -240.23 579.11 C-241.16 579.21 -241.16 579.21 -242.11 579.3 C-242.81 579.57 -243.51 579.84 -244.23 580.11 C-244.52 580.94 -244.81 581.76 -245.11 582.61 C-245.48 583.44 -245.85 584.26 -246.23 585.11 C-249.36 585.93 -249.36 585.93 -252.23 586.11 C-252.56 587.43 -252.89 588.75 -253.23 590.11 C-254.55 590.11 -255.87 590.11 -257.23 590.11 C-258.22 592.42 -259.21 594.73 -260.23 597.11 C-261.88 597.11 -263.53 597.11 -265.23 597.11 C-265.23 597.77 -265.23 598.43 -265.23 599.11 C-266.88 599.11 -268.53 599.11 -270.23 599.11 C-270.56 601.09 -270.89 603.07 -271.23 605.11 C-272.88 605.44 -274.53 605.77 -276.23 606.11 C-276.56 607.43 -276.89 608.75 -277.23 610.11 C-279.54 610.77 -281.85 611.43 -284.23 612.11 C-284.56 614.09 -284.89 616.07 -285.23 618.11 C-286.88 618.11 -288.53 618.11 -290.23 618.11 C-290.56 619.43 -290.89 620.75 -291.23 622.11 C-293.21 622.44 -295.19 622.77 -297.23 623.11 C-297.23 623.77 -297.23 624.43 -297.23 625.11 C-298.22 625.11 -299.21 625.11 -300.23 625.11 C-300.32 625.69 -300.4 626.27 -300.48 626.86 C-301.45 629.77 -302.99 631.07 -305.23 633.11 C-305.88 633.95 -305.88 633.95 -306.55 634.8 C-309.18 636.85 -311.99 636.81 -315.23 637.11 C-315.3 638.06 -315.36 639.01 -315.42 639.99 C-315.69 641.02 -315.96 642.05 -316.23 643.11 C-318.73 644.24 -318.73 644.24 -321.23 645.11 C-322.12 647.15 -322.12 647.15 -322.23 649.11 C-324.21 649.11 -326.19 649.11 -328.23 649.11 C-328.89 651.42 -329.55 653.73 -330.23 656.11 C-332.54 656.11 -334.85 656.11 -337.23 656.11 C-337.36 656.75 -337.48 657.39 -337.61 658.05 C-337.82 658.73 -338.02 659.41 -338.23 660.11 C-338.89 660.44 -339.55 660.77 -340.23 661.11 C-340.89 661.77 -341.55 662.43 -342.23 663.11 C-344.86 663.24 -344.86 663.24 -347.23 663.11 C-347.21 663.92 -347.19 664.72 -347.17 665.55 C-347.23 668.11 -347.23 668.11 -348.23 669.11 C-350.23 669.15 -352.24 669.16 -354.23 669.11 C-354.23 671.09 -354.23 673.07 -354.23 675.11 C-355.04 675.38 -355.84 675.65 -356.67 675.93 C-357.94 676.51 -357.94 676.51 -359.23 677.11 C-359.56 678.1 -359.89 679.09 -360.23 680.11 C-363.8 681.3 -363.8 681.3 -367.23 682.11 C-367.3 682.9 -367.36 683.68 -367.42 684.49 C-367.69 685.35 -367.96 686.22 -368.23 687.11 C-369.89 687.82 -371.55 688.48 -373.23 689.11 C-373.4 689.77 -373.56 690.43 -373.73 691.11 C-373.9 691.77 -374.06 692.43 -374.23 693.11 C-376.73 694.24 -376.73 694.24 -379.23 695.11 C-379.56 695.77 -379.89 696.43 -380.23 697.11 C-380.89 696.78 -381.55 696.45 -382.23 696.11 C-382.23 697.1 -382.23 698.09 -382.23 699.11 C-385.57 701.61 -386.97 702.11 -391.23 702.11 C-391.56 703.76 -391.89 705.41 -392.23 707.11 C-394.54 707.44 -396.85 707.77 -399.23 708.11 C-399.23 709.43 -399.23 710.75 -399.23 712.11 C-400.02 712.34 -400.8 712.57 -401.61 712.8 C-404.94 714.47 -404.92 715.75 -406.23 719.11 C-407.88 720.15 -409.54 721.16 -411.23 722.11 C-411.56 723.1 -411.89 724.09 -412.23 725.11 C-414.08 726.06 -414.08 726.06 -416.3 726.8 C-417.03 727.05 -417.76 727.3 -418.52 727.56 C-419.09 727.74 -419.65 727.93 -420.23 728.11 C-419.9 729.1 -419.57 730.09 -419.23 731.11 C-420.23 732.11 -420.23 732.11 -422.8 732.18 C-423.6 732.16 -424.41 732.13 -425.23 732.11 C-425.23 732.77 -425.23 733.43 -425.23 734.11 C-426.22 734.11 -427.21 734.11 -428.23 734.11 C-428.56 735.1 -428.89 736.09 -429.23 737.11 C-431.23 739.11 -431.23 739.11 -433.86 739.24 C-434.64 739.2 -435.43 739.16 -436.23 739.11 C-436.56 741.09 -436.89 743.07 -437.23 745.11 C-439.54 745.77 -441.85 746.43 -444.23 747.11 C-444.3 747.9 -444.36 748.68 -444.42 749.49 C-444.69 750.35 -444.96 751.22 -445.23 752.11 C-447.73 753.24 -447.73 753.24 -450.23 754.11 C-450.56 755.1 -450.89 756.09 -451.23 757.11 C-453.21 757.44 -455.19 757.77 -457.23 758.11 C-457.23 758.77 -457.23 759.43 -457.23 760.11 C-458.22 760.11 -459.21 760.11 -460.23 760.11 C-460.56 761.43 -460.89 762.75 -461.23 764.11 C-461.89 764.11 -462.55 764.11 -463.23 764.11 C-463.56 765.1 -463.89 766.09 -464.23 767.11 C-466.42 769.3 -468.34 770.14 -471.3 770.86 C-474.54 771.85 -474.54 771.85 -475.61 775.24 C-475.82 776.19 -476.02 777.14 -476.23 778.11 C-478.21 778.11 -480.19 778.11 -482.23 778.11 C-482.23 779.43 -482.23 780.75 -482.23 782.11 C-483.2 782.51 -484.17 782.9 -485.17 783.3 C-488.46 784.79 -488.46 784.79 -489.11 787.8 C-489.17 788.95 -489.17 788.95 -489.23 790.11 C-490.18 790.38 -491.13 790.65 -492.11 790.93 C-495.49 791.86 -495.49 791.86 -497.23 795.11 C-498.22 795.11 -499.21 795.11 -500.23 795.11 C-500.48 795.73 -500.73 796.35 -500.98 796.99 C-502.47 799.51 -503.64 799.9 -506.23 801.11 C-506.89 802.1 -507.55 803.09 -508.23 804.11 C-510.86 804.8 -510.86 804.8 -513.23 805.11 C-513.56 806.43 -513.89 807.75 -514.23 809.11 C-515.88 809.44 -517.53 809.77 -519.23 810.11 C-519.46 811.06 -519.69 812.01 -519.92 812.99 C-521.23 816.11 -521.23 816.11 -523.73 817.24 C-524.56 817.53 -525.38 817.82 -526.23 818.11 C-526.56 818.77 -526.89 819.43 -527.23 820.11 C-528.62 822.89 -530.42 823.03 -533.23 824.11 C-533.56 825.1 -533.89 826.09 -534.23 827.11 C-536.21 827.44 -538.19 827.77 -540.23 828.11 C-540.4 829.04 -540.56 829.97 -540.73 830.93 C-542.23 834.11 -542.23 834.11 -544.11 835.04 C-545.55 835.5 -547 835.91 -548.46 836.28 C-549.34 836.69 -549.34 836.69 -550.23 837.11 C-551.04 839.14 -551.04 839.14 -551.23 841.11 C-551.89 841.11 -552.55 841.11 -553.23 841.11 C-553.23 933.84 -553.23 1026.57 -553.23 1122.11 C-584.97 1123.78 -584.97 1123.78 -592.23 1121.11 C-593.37 1120.74 -594.5 1120.37 -595.67 1119.99 C-596.52 1119.7 -597.36 1119.41 -598.23 1119.11 C-598.23 1118.45 -598.23 1117.79 -598.23 1117.11 C-599.52 1117.14 -600.82 1117.16 -602.14 1117.18 C-603.86 1117.2 -605.58 1117.22 -607.3 1117.24 C-608.14 1117.26 -608.99 1117.27 -609.87 1117.29 C-615.07 1117.33 -619.31 1116.81 -624.23 1115.11 C-624.23 1114.12 -624.23 1113.13 -624.23 1112.11 C-625.52 1111.98 -626.82 1111.85 -628.14 1111.71 C-629.86 1111.53 -631.58 1111.35 -633.3 1111.18 C-634.14 1111.09 -634.99 1111 -635.87 1110.91 C-640.67 1110.41 -645.45 1109.83 -650.23 1109.11 C-650.23 1108.45 -650.23 1107.79 -650.23 1107.11 C-651.22 1107.11 -652.21 1107.11 -653.23 1107.11 C-653.23 1106.45 -653.23 1105.79 -653.23 1105.11 C-654.22 1105.11 -655.21 1105.11 -656.23 1105.11 C-656.23 1104.45 -656.23 1103.79 -656.23 1103.11 C-658.22 1103.15 -660.21 1103.18 -662.19 1103.21 C-664.23 1103.11 -664.23 1103.11 -667.23 1102.11 C-667.23 1101.12 -667.23 1100.13 -667.23 1099.11 C-668.22 1099.44 -669.21 1099.77 -670.23 1100.11 C-670.23 1099.12 -670.23 1098.13 -670.23 1097.11 C-670.98 1097.17 -671.73 1097.23 -672.5 1097.29 C-675.48 1097.43 -678.27 1097.47 -681.23 1097.11 C-683.67 1094.68 -683.67 1094.68 -685.23 1092.11 C-687.16 1091.36 -687.16 1091.36 -689.23 1091.11 C-691.92 1090.24 -691.92 1090.24 -694.23 1089.11 C-694.56 1088.12 -694.89 1087.13 -695.23 1086.11 C-696.36 1085.98 -696.36 1085.98 -697.5 1085.85 C-705.69 1084.68 -705.69 1084.68 -708.67 1081.55 C-709.19 1080.75 -709.7 1079.94 -710.23 1079.11 C-712.16 1078.36 -712.16 1078.36 -714.23 1078.11 C-716.92 1077.24 -716.92 1077.24 -719.23 1076.11 C-719.56 1075.12 -719.89 1074.13 -720.23 1073.11 C-723.75 1071.88 -723.75 1071.88 -727.23 1071.11 C-727.56 1069.79 -727.89 1068.47 -728.23 1067.11 C-729.16 1067.05 -729.16 1067.05 -730.11 1066.99 C-730.81 1066.7 -731.51 1066.41 -732.23 1066.11 C-732.46 1065.14 -732.69 1064.17 -732.92 1063.18 C-733.36 1062.17 -733.79 1061.15 -734.23 1060.11 C-736.26 1059.49 -736.26 1059.49 -738.61 1059.24 C-742.84 1058.59 -742.84 1058.59 -744.72 1056.33 C-746.35 1053.08 -747.23 1050.78 -747.23 1047.11 C-748.55 1047.11 -749.87 1047.11 -751.23 1047.11 C-751.57 1045.94 -751.57 1045.94 -751.92 1044.74 C-752.98 1041.89 -752.98 1041.89 -755.73 1041.18 C-756.97 1040.65 -756.97 1040.65 -758.23 1040.11 C-758.96 1038.13 -759.63 1036.13 -760.23 1034.11 C-761.22 1033.78 -762.21 1033.45 -763.23 1033.11 C-763.89 1032.78 -764.55 1032.45 -765.23 1032.11 C-765.34 1031.33 -765.44 1030.55 -765.55 1029.74 C-765.89 1028.44 -765.89 1028.44 -766.23 1027.11 C-767.06 1026.66 -767.88 1026.21 -768.73 1025.74 C-771.23 1024.11 -771.23 1024.11 -772.05 1020.61 C-772.16 1018.45 -772.23 1016.28 -772.23 1014.11 C-773.16 1014.05 -773.16 1014.05 -774.11 1013.99 C-776.23 1013.11 -776.23 1013.11 -777.36 1010.43 C-777.79 1008.79 -777.79 1008.79 -778.23 1007.11 C-779.03 1003.9 -779.03 1003.9 -780.23 1001.11 C-780.9 1000.84 -781.57 1000.56 -782.26 1000.28 C-782.91 999.9 -783.56 999.51 -784.23 999.11 C-784.81 996.68 -784.81 996.68 -784.92 993.68 C-784.98 992.61 -785.03 991.54 -785.09 990.45 C-785.14 989.35 -785.18 988.25 -785.23 987.11 C-785.41 985.03 -785.6 982.95 -785.8 980.86 C-785.88 979.95 -785.96 979.04 -786.05 978.1 C-786.11 977.44 -786.17 976.79 -786.23 976.11 C-787.55 975.78 -788.87 975.45 -790.23 975.11 C-790.24 973.84 -790.24 973.84 -790.24 972.55 C-790.33 951.98 -790.42 931.41 -790.52 910.83 C-790.57 900.88 -790.62 890.94 -790.66 880.99 C-790.69 872.32 -790.73 863.65 -790.78 854.97 C-790.8 850.38 -790.82 845.79 -790.84 841.2 C-790.85 836.88 -790.87 832.56 -790.9 828.24 C-790.91 826.65 -790.92 825.06 -790.92 823.48 C-790.92 821.31 -790.94 819.14 -790.96 816.98 C-790.96 815.77 -790.97 814.55 -790.97 813.31 C-791.23 810.13 -791.77 807.93 -793.23 805.11 C-795.25 803.77 -795.25 803.77 -797.23 803.11 C-797.23 801.13 -797.23 799.15 -797.23 797.11 C-798.18 797.15 -799.13 797.2 -800.11 797.24 C-803.23 797.11 -803.23 797.11 -805.23 795.11 C-806.22 795.11 -807.21 795.11 -808.23 795.11 C-810.33 791.71 -810.41 789.06 -810.23 785.11 C-811.53 784.93 -811.53 784.93 -812.86 784.74 C-816.19 784.12 -819.13 783.48 -822.23 782.11 C-822.61 780.79 -822.94 779.46 -823.23 778.11 C-824.06 777.78 -824.88 777.45 -825.73 777.11 C-826.56 776.78 -827.38 776.45 -828.23 776.11 C-828.38 775.45 -828.52 774.79 -828.67 774.11 C-828.95 773.12 -828.95 773.12 -829.23 772.11 C-830.22 771.78 -831.21 771.45 -832.23 771.11 C-833.22 770.78 -834.21 770.45 -835.23 770.11 C-835.61 768.79 -835.94 767.46 -836.23 766.11 C-837.89 765.42 -839.56 764.76 -841.23 764.11 C-842.94 762.49 -844.61 760.82 -846.23 759.11 C-846.89 758.78 -847.55 758.45 -848.23 758.11 C-848.86 755.55 -848.86 755.55 -849.23 753.11 C-850.02 753.01 -850.8 752.91 -851.61 752.8 C-854.23 752.11 -854.23 752.11 -856.23 749.11 C-856.23 748.12 -856.23 747.13 -856.23 746.11 C-857.02 746.03 -857.8 745.95 -858.61 745.86 C-859.48 745.62 -860.34 745.37 -861.23 745.11 C-861.53 744.46 -861.82 743.8 -862.12 743.12 C-863.04 740.91 -863.04 740.91 -865.29 740.5 C-866.08 740.41 -866.86 740.33 -867.67 740.24 C-870.12 739.81 -870.12 739.81 -872.23 739.11 C-874.05 736.11 -874.05 736.11 -875.23 733.11 C-877.25 731.98 -877.25 731.98 -879.23 731.11 C-879.54 730.45 -879.85 729.79 -880.17 729.11 C-881.09 726.86 -881.09 726.86 -883.73 726.11 C-886.79 724.89 -886.89 723.98 -888.23 721.11 C-888.89 720.8 -889.55 720.49 -890.23 720.18 C-892.23 719.11 -892.23 719.11 -893.11 716.68 C-894.66 713.14 -896.81 712.68 -900.23 711.11 C-901.22 709.63 -901.22 709.63 -902.23 708.11 C-903.22 707.78 -904.21 707.45 -905.23 707.11 C-905.71 706.12 -906.18 705.13 -906.67 704.11 C-907.89 700.97 -907.89 700.97 -910.42 700.24 C-911.02 700.2 -911.62 700.16 -912.23 700.11 C-912.23 698.79 -912.23 697.47 -912.23 696.11 C-912.83 695.97 -913.43 695.82 -914.05 695.68 C-915.8 695.23 -917.52 694.68 -919.23 694.11 C-919.46 693.13 -919.46 693.13 -919.69 692.13 C-919.87 691.47 -920.05 690.8 -920.23 690.11 C-922.2 689.42 -924.17 688.74 -926.16 688.09 C-929.64 686.45 -931.61 683.55 -933.23 680.11 C-933.23 679.12 -933.23 678.13 -933.23 677.11 C-933.96 676.99 -934.68 676.87 -935.42 676.74 C-938.29 676.1 -940.66 675.54 -943.23 674.11 C-944.05 671.49 -944.05 671.49 -944.23 669.11 C-945.18 669.05 -946.13 668.99 -947.11 668.93 C-948.14 668.66 -949.17 668.39 -950.23 668.11 C-950.95 666.47 -951.62 664.8 -952.23 663.11 C-953.88 662.4 -955.55 661.73 -957.23 661.11 C-958.27 659.8 -959.27 658.47 -960.23 657.11 C-961.22 656.78 -962.21 656.45 -963.23 656.11 C-963.52 655.33 -963.81 654.55 -964.11 653.74 C-965.53 650.42 -967.17 649.88 -970.23 648.11 C-970.9 646.78 -971.57 645.45 -972.23 644.11 C-973.56 643.74 -974.89 643.41 -976.23 643.11 C-978.23 640.11 -978.23 640.11 -978.23 637.11 C-979.16 636.97 -980.09 636.82 -981.05 636.68 C-984.23 636.11 -984.23 636.11 -987.23 635.11 C-988.25 633.46 -989.25 631.79 -990.23 630.11 C-991.22 629.45 -992.21 628.79 -993.23 628.11 C-995.23 626.11 -995.23 626.11 -996.23 623.11 C-997.88 623.11 -999.53 623.11 -1001.23 623.11 C-1001.48 622.33 -1001.73 621.55 -1001.98 620.74 C-1003.39 617.79 -1004.24 617.21 -1007.23 616.11 C-1007.23 614.79 -1007.23 613.47 -1007.23 612.11 C-1008.35 611.87 -1009.46 611.62 -1010.61 611.36 C-1014.23 610.11 -1014.23 610.11 -1015.36 608.18 C-1015.65 607.5 -1015.94 606.81 -1016.23 606.11 C-1017.47 605.4 -1017.47 605.4 -1018.73 604.68 C-1021.23 603.11 -1021.23 603.11 -1022.23 600.49 C-1022.56 599.7 -1022.89 598.92 -1023.23 598.11 C-1025.78 597.22 -1025.78 597.22 -1028.23 597.11 C-1028.23 595.79 -1028.23 594.47 -1028.23 593.11 C-1029.18 592.89 -1030.13 592.66 -1031.11 592.43 C-1032.66 591.78 -1032.66 591.78 -1034.23 591.11 C-1034.52 590.31 -1034.81 589.5 -1035.11 588.68 C-1035.94 586.02 -1035.94 586.02 -1037.98 585.3 C-1039.41 584.84 -1040.83 584.38 -1042.26 583.93 C-1045.24 582.7 -1046.6 580.83 -1048.23 578.11 C-1048.23 577.12 -1048.23 576.13 -1048.23 575.11 C-1049.04 574.96 -1049.04 574.96 -1049.86 574.8 C-1055.57 573.15 -1058.37 571.3 -1061.23 566.11 C-1062.22 565.78 -1063.21 565.45 -1064.23 565.11 C-1064.52 564.47 -1064.81 563.83 -1065.11 563.18 C-1066.08 560.85 -1066.08 560.85 -1068.8 560.18 C-1069.6 559.83 -1070.41 559.47 -1071.23 559.11 C-1072.05 556.49 -1072.05 556.49 -1072.23 554.11 C-1073.41 554.18 -1073.41 554.18 -1074.61 554.24 C-1077.23 554.11 -1077.23 554.11 -1079.23 552.11 C-1078.86 548.49 -1078.86 548.49 -1078.23 545.11 C-1076.3 545.15 -1074.36 545.22 -1072.42 545.3 C-1070.8 545.35 -1070.8 545.35 -1069.15 545.41 C-1068.19 545.64 -1067.23 545.87 -1066.23 546.11 C-1065.82 546.93 -1065.4 547.75 -1064.97 548.59 C-1063.53 551.27 -1063.53 551.27 -1061.18 551.69 C-1058.53 552.02 -1055.9 552.22 -1053.23 552.36 C-1051.42 552.49 -1049.61 552.62 -1047.8 552.75 C-1046.99 552.8 -1046.19 552.85 -1045.36 552.9 C-1043.23 553.11 -1043.23 553.11 -1040.23 554.11 C-1040.23 555.1 -1040.23 556.09 -1040.23 557.11 C-1038.44 557.02 -1038.44 557.02 -1036.61 556.93 C-1032.5 556.9 -1029.79 557.98 -1026.23 560.11 C-1026.23 561.76 -1026.23 563.41 -1026.23 565.11 C-1025.34 565.09 -1024.45 565.07 -1023.52 565.04 C-1016.15 564.93 -1009.39 565.27 -1002.23 567.11 C-1002.23 568.1 -1002.23 569.09 -1002.23 570.11 C-1001.5 570.07 -1000.76 570.02 -1000 569.97 C-992 569.68 -992 569.68 -988.05 571.93 C-986.23 574.11 -986.23 574.11 -986.23 577.11 C-985.17 577.16 -984.11 577.21 -983.02 577.26 C-969.08 577.97 -969.08 577.97 -962.23 580.11 C-962.23 581.1 -962.23 582.09 -962.23 583.11 C-960.44 583.02 -960.44 583.02 -958.61 582.93 C-954.5 582.9 -951.79 583.98 -948.23 586.11 C-948.23 587.43 -948.23 588.75 -948.23 590.11 C-947.34 590.09 -946.45 590.07 -945.52 590.04 C-938.15 589.93 -931.39 590.27 -924.23 592.11 C-923.9 593.1 -923.57 594.09 -923.23 595.11 C-922.49 595.22 -921.74 595.33 -920.97 595.45 C-919.98 595.6 -919 595.76 -917.98 595.93 C-917.01 596.08 -916.04 596.23 -915.03 596.38 C-912.09 597.15 -910.44 598.03 -908.23 600.11 C-908.23 600.77 -908.23 601.43 -908.23 602.11 C-907.16 602.16 -906.09 602.21 -904.98 602.26 C-903.54 602.34 -902.11 602.41 -900.67 602.49 C-899.97 602.52 -899.26 602.55 -898.54 602.58 C-893.82 602.84 -889.73 603.66 -885.23 605.11 C-885.23 605.77 -885.23 606.43 -885.23 607.11 C-883.25 607.44 -881.27 607.77 -879.23 608.11 C-879.23 608.77 -879.23 609.43 -879.23 610.11 C-877.81 610.08 -877.81 610.08 -876.36 610.05 C-873.23 610.11 -873.23 610.11 -871.23 611.11 C-870.9 612.1 -870.57 613.09 -870.23 614.11 C-865.97 615.81 -860.95 615.49 -856.43 615.73 C-853.29 616.11 -851.03 616.66 -848.23 618.11 C-847.24 619.6 -847.24 619.6 -846.23 621.11 C-843.49 621.82 -840.89 622.36 -838.11 622.8 C-837.36 622.93 -836.6 623.06 -835.82 623.19 C-833.96 623.51 -832.1 623.81 -830.23 624.11 C-829.9 625.1 -829.57 626.09 -829.23 627.11 C-827.57 627.15 -827.57 627.15 -825.88 627.19 C-824.41 627.25 -822.95 627.31 -821.48 627.36 C-820.39 627.38 -820.39 627.38 -819.27 627.41 C-815.74 627.57 -813.6 627.85 -810.72 629.97 C-809.23 632.11 -809.23 632.11 -809.23 635.11 C-808.24 634.93 -807.25 634.74 -806.23 634.55 C-800.7 633.75 -795.64 634.76 -790.23 636.11 C-790.23 507.74 -790.23 379.37 -790.23 247.11 C-785.83 245.35 -783.98 244.86 -779.49 244.87 C-777.79 244.87 -777.79 244.87 -776.06 244.86 C-774.23 244.87 -774.23 244.87 -772.36 244.88 C-771.08 244.88 -769.81 244.88 -768.5 244.88 C-765.79 244.89 -763.08 244.89 -760.38 244.91 C-756.97 244.92 -753.57 244.93 -750.17 244.93 C-737.77 244.93 -725.37 245 -712.98 245.56 C-712.13 245.6 -711.27 245.64 -710.39 245.68 C-707.13 245.85 -704.34 246.08 -701.23 247.11 C-701.23 248.1 -701.23 249.09 -701.23 250.11 C-700.45 249.93 -699.67 249.74 -698.86 249.55 C-696.23 249.11 -696.23 249.11 -694.23 250.11 C-692.73 250.03 -691.23 249.92 -689.73 249.8 C-683.54 249.7 -678.96 252.23 -674.23 256.11 C-674.23 256.77 -674.23 257.43 -674.23 258.11 C-673.29 258.09 -672.35 258.07 -671.38 258.04 C-670.14 258.03 -668.89 258.01 -667.61 257.99 C-666.38 257.97 -665.15 257.94 -663.88 257.92 C-660.26 258.11 -657.56 258.69 -654.23 260.11 C-653.9 260.77 -653.57 261.43 -653.23 262.11 C-650.98 262.47 -648.74 262.56 -646.46 262.67 C-643.75 263.21 -642.82 263.87 -641.23 266.11 C-641.23 267.43 -641.23 268.75 -641.23 270.11 C-640.17 270.08 -640.17 270.08 -639.07 270.04 C-633.35 269.94 -628.64 270.19 -623.23 272.11 C-623.23 272.77 -623.23 273.43 -623.23 274.11 C-621.63 274.79 -621.63 274.79 -619.98 275.49 C-618.73 276.03 -617.48 276.57 -616.23 277.11 C-615.45 277.44 -614.67 277.77 -613.86 278.11 C-612.23 279.11 -612.23 279.11 -611.23 282.11 C-610.57 281.78 -609.91 281.45 -609.23 281.11 C-609.23 281.77 -609.23 282.43 -609.23 283.11 C-607.58 283.44 -605.93 283.77 -604.23 284.11 C-603.9 285.1 -603.57 286.09 -603.23 287.11 C-600.44 288.28 -597.6 289.09 -594.7 289.95 C-593.89 290.34 -593.07 290.72 -592.23 291.11 C-591.58 293.16 -591.58 293.16 -591.23 295.11 C-588.24 296.42 -588.24 296.42 -585.23 297.11 C-585.23 298.43 -585.23 299.75 -585.23 301.11 C-582.92 301.77 -580.61 302.43 -578.23 303.11 C-577.9 304.76 -577.57 306.41 -577.23 308.11 C-575.58 308.44 -573.93 308.77 -572.23 309.11 C-572.17 309.98 -572.17 309.98 -572.11 310.86 C-571.36 313.46 -571.36 313.46 -568.17 315.05 C-567.2 315.73 -566.23 316.41 -565.23 317.11 C-564.86 319.86 -564.86 319.86 -565.23 322.11 C-563.58 322.11 -561.93 322.11 -560.23 322.11 C-560.23 324.09 -560.23 326.07 -560.23 328.11 C-559.45 328.36 -558.67 328.61 -557.86 328.86 C-555.23 330.11 -555.23 330.11 -553.98 331.8 C-552.99 334.87 -552.6 337.92 -552.23 341.11 C-551.9 341.11 -551.57 341.11 -551.23 341.11 C-551.23 416.68 -551.23 492.25 -551.23 570.11 C-549.91 570.11 -548.59 570.11 -547.23 570.11 C-547.23 568.46 -547.23 566.81 -547.23 565.11 C-546.62 565.05 -546 564.99 -545.37 564.93 C-544.56 564.85 -543.75 564.76 -542.92 564.68 C-542.12 564.59 -541.32 564.51 -540.5 564.43 C-538.07 564.16 -538.07 564.16 -535.23 563.11 C-534.9 561.46 -534.57 559.81 -534.23 558.11 C-532.91 557.78 -531.59 557.45 -530.23 557.11 C-530.23 555.46 -530.23 553.81 -530.23 552.11 C-529.24 552.44 -528.25 552.77 -527.23 553.11 C-524.08 552.23 -524.08 552.23 -521.23 551.11 C-521.23 550.45 -521.23 549.79 -521.23 549.11 C-520.24 549.11 -519.25 549.11 -518.23 549.11 C-518.23 548.45 -518.23 547.79 -518.23 547.11 C-517.57 546.78 -516.91 546.45 -516.23 546.11 C-516.23 545.45 -516.23 544.79 -516.23 544.11 C-514.25 544.11 -512.27 544.11 -510.23 544.11 C-510.03 543.49 -509.82 542.88 -509.61 542.24 C-507.7 539.28 -505.51 539.16 -502.23 538.11 C-501.9 537.12 -501.57 536.13 -501.23 535.11 C-501.89 534.45 -502.55 533.79 -503.23 533.11 C-502.09 533.21 -502.09 533.21 -500.92 533.3 C-498.19 533.37 -498.19 533.37 -496.42 531.61 C-495.83 530.87 -495.83 530.87 -495.23 530.11 C-494.9 530.77 -494.57 531.43 -494.23 532.11 C-493.24 532.11 -492.25 532.11 -491.23 532.11 C-491.23 530.46 -491.23 528.81 -491.23 527.11 C-489.94 526.61 -488.65 526.11 -487.36 525.61 C-486.64 525.34 -485.92 525.06 -485.18 524.77 C-483.23 524.11 -483.23 524.11 -481.23 524.11 C-481.23 523.45 -481.23 522.79 -481.23 522.11 C-480.6 522 -479.96 521.89 -479.3 521.78 C-478.06 521.54 -478.06 521.54 -476.8 521.3 C-475.97 521.15 -475.15 521 -474.3 520.84 C-473.62 520.6 -472.94 520.36 -472.23 520.11 C-471.9 519.12 -471.57 518.13 -471.23 517.11 C-469.32 513.37 -468 511.87 -464.23 510.11 C-463.9 509.12 -463.57 508.13 -463.23 507.11 C-463.23 507.77 -463.23 508.43 -463.23 509.11 C-460.92 508.78 -458.61 508.45 -456.23 508.11 C-455.9 507.12 -455.57 506.13 -455.23 505.11 C-454.57 505.44 -453.91 505.77 -453.23 506.11 C-453.09 505.33 -452.95 504.55 -452.8 503.74 C-452.23 501.11 -452.23 501.11 -451.23 499.11 C-450.24 499.11 -449.25 499.11 -448.23 499.11 C-446.56 497.79 -444.9 496.45 -443.23 495.11 C-440.92 494.36 -440.92 494.36 -439.23 494.11 C-438.9 492.13 -438.57 490.15 -438.23 488.11 C-435.92 488.11 -433.61 488.11 -431.23 488.11 C-431.23 486.13 -431.23 484.15 -431.23 482.11 C-430.24 482.44 -429.25 482.77 -428.23 483.11 C-427.9 482.78 -427.57 482.45 -427.23 482.11 C-426.24 481.78 -425.25 481.45 -424.23 481.11 C-423.9 480.45 -423.57 479.79 -423.23 479.11 C-422.24 479.11 -421.25 479.11 -420.23 479.11 C-419.9 478.12 -419.57 477.13 -419.23 476.11 C-416.59 475.78 -413.95 475.45 -411.23 475.11 C-411.17 474.33 -411.11 473.55 -411.05 472.74 C-410.23 470.11 -410.23 470.11 -407.86 468.8 C-405.23 468.11 -405.23 468.11 -402.23 468.11 C-401.9 467.12 -401.57 466.13 -401.23 465.11 C-399.23 463.11 -399.23 463.11 -396.17 462.24 C-395.2 461.87 -394.23 461.5 -393.23 461.11 C-392.27 459.08 -392.27 459.08 -392.23 457.11 C-390.91 457.11 -389.59 457.11 -388.23 457.11 C-388.23 456.45 -388.23 455.79 -388.23 455.11 C-385.23 454.11 -385.23 454.11 -382.23 455.11 C-382.23 453.13 -382.23 451.15 -382.23 449.11 C-379.92 449.44 -377.61 449.77 -375.23 450.11 C-374.9 447.8 -374.57 445.49 -374.23 443.11 C-370.6 442.78 -366.97 442.45 -363.23 442.11 C-362.9 440.79 -362.57 439.47 -362.23 438.11 C-361.6 436.77 -360.94 435.43 -360.23 434.11 C-359.24 434.11 -358.25 434.11 -357.23 434.11 C-356.9 433.12 -356.57 432.13 -356.23 431.11 C-354.25 430.78 -352.27 430.45 -350.23 430.11 C-349.9 429.12 -349.57 428.13 -349.23 427.11 C-346.3 425.49 -346.3 425.49 -343.23 424.11 C-342.57 423.78 -341.91 423.45 -341.23 423.11 C-341.23 422.45 -341.23 421.79 -341.23 421.11 C-341.89 420.45 -342.55 419.79 -343.23 419.11 C-342.29 418.99 -341.34 418.87 -340.36 418.74 C-337.15 418.4 -337.15 418.4 -335.23 416.11 C-332.61 416.49 -332.61 416.49 -330.23 417.11 C-330.56 415.46 -330.89 413.81 -331.23 412.11 C-330.1 411.85 -328.97 411.58 -327.8 411.3 C-326.62 410.91 -325.45 410.52 -324.23 410.11 C-323.9 409.12 -323.57 408.13 -323.23 407.11 C-320.51 406.16 -320.51 406.16 -317.17 405.43 C-316.07 405.17 -314.96 404.92 -313.82 404.66 C-312.97 404.48 -312.12 404.3 -311.23 404.11 C-310.9 401.8 -310.57 399.49 -310.23 397.11 C-308.58 397.11 -306.93 397.11 -305.23 397.11 C-305.23 395.46 -305.23 393.81 -305.23 392.11 C-304.9 392.77 -304.57 393.43 -304.23 394.11 C-302.25 393.45 -300.27 392.79 -298.23 392.11 C-298.23 391.12 -298.23 390.13 -298.23 389.11 C-296.78 388.71 -296.78 388.71 -295.3 388.3 C-294.29 387.91 -293.28 387.52 -292.23 387.11 C-291.9 386.12 -291.57 385.13 -291.23 384.11 C-290.45 383.97 -289.67 383.82 -288.86 383.68 C-286.27 383.24 -286.27 383.24 -284.23 382.11 C-284.23 381.45 -284.23 380.79 -284.23 380.11 C-280.59 378.84 -277.04 377.79 -273.23 377.11 C-273.23 375.79 -273.23 374.47 -273.23 373.11 C-272.57 373.11 -271.91 373.11 -271.23 373.11 C-270.9 372.45 -270.57 371.79 -270.23 371.11 C-269.24 371.44 -268.25 371.77 -267.23 372.11 C-267.23 370.13 -267.23 368.15 -267.23 366.11 C-264.92 365.78 -262.61 365.45 -260.23 365.11 C-260.17 364.19 -260.17 364.19 -260.11 363.24 C-259.82 362.54 -259.53 361.84 -259.23 361.11 C-256.17 359.86 -256.17 359.86 -253.23 359.11 C-253.23 358.45 -253.23 357.79 -253.23 357.11 C-251.58 356.78 -249.93 356.45 -248.23 356.11 C-248.56 355.45 -248.89 354.79 -249.23 354.11 C-248.64 354.01 -248.04 353.91 -247.42 353.8 C-244.91 353.01 -244 352.03 -242.23 350.11 C-239.32 348.17 -237.61 347.66 -234.23 347.11 C-233.68 345.04 -233.23 343.27 -233.23 341.11 C-231.25 340.78 -229.27 340.45 -227.23 340.11 C-226.9 338.13 -226.57 336.15 -226.23 334.11 C-224.91 334.11 -223.59 334.11 -222.23 334.11 C-221.9 333.12 -221.57 332.13 -221.23 331.11 C-220.57 331.44 -219.91 331.77 -219.23 332.11 C-218.9 331.78 -218.57 331.45 -218.23 331.11 C-215.22 329.1 -212.71 328.07 -209.23 327.11 C-208.57 327.44 -207.91 327.77 -207.23 328.11 C-207.15 327.33 -207.07 326.55 -206.98 325.74 C-206.23 323.11 -206.23 323.11 -204.23 321.93 C-203.57 321.66 -202.91 321.39 -202.23 321.11 C-201.9 320.45 -201.57 319.79 -201.23 319.11 C-200.57 319.11 -199.91 319.11 -199.23 319.11 C-198.9 318.45 -198.57 317.79 -198.23 317.11 C-195.2 315.23 -193.99 315.11 -190.23 315.11 C-190.23 313.46 -190.23 311.81 -190.23 310.11 C-187.92 309.45 -185.61 308.79 -183.23 308.11 C-183.23 306.13 -183.23 304.15 -183.23 302.11 C-182.9 302.77 -182.57 303.43 -182.23 304.11 C-180.82 303.8 -179.4 303.49 -177.98 303.18 C-177.2 303 -176.41 302.83 -175.59 302.65 C-173.47 302.17 -171.35 301.65 -169.23 301.11 C-169.23 299.79 -169.23 298.47 -169.23 297.11 C-166.16 296.82 -166.16 296.82 -163.08 296.53 C-162.47 296.39 -161.86 296.25 -161.23 296.11 C-160.9 295.45 -160.57 294.79 -160.23 294.11 C-159.57 294.44 -158.91 294.77 -158.23 295.11 C-158.23 293.79 -158.23 292.47 -158.23 291.11 C-156.81 291.02 -156.81 291.02 -155.36 290.93 C-152.05 290.46 -152.05 290.46 -150.8 287.68 C-149.96 285.14 -149.96 285.14 -151.23 283.11 C-146.94 282.78 -142.65 282.45 -138.23 282.11 C-137.9 280.13 -137.57 278.15 -137.23 276.11 C-135.23 274.93 -135.23 274.93 -133.23 274.11 C-132.9 273.12 -132.57 272.13 -132.23 271.11 C-129.92 270.78 -127.61 270.45 -125.23 270.11 C-125.23 268.46 -125.23 266.81 -125.23 265.11 C-124.49 264.99 -123.75 264.87 -122.98 264.74 C-120.42 264.15 -118.53 263.38 -116.23 262.11 C-115.57 261.78 -114.91 261.45 -114.23 261.11 C-113.57 260.12 -112.91 259.13 -112.23 258.11 C-109.61 257.93 -109.61 257.93 -107.23 258.11 C-106.9 257.12 -106.57 256.13 -106.23 255.11 C-104.92 252.43 -104.92 252.43 -103.23 250.11 C-101.91 250.11 -100.59 250.11 -99.23 250.11 C-99.23 248.13 -99.23 246.15 -99.23 244.11 C-98.57 244.44 -97.91 244.77 -97.23 245.11 C-97.56 245.77 -97.89 246.43 -98.23 247.11 C-94.77 246.38 -91.47 245.58 -88.23 244.11 C-86.78 241.1 -86.78 241.1 -86.23 238.11 C-84.17 237.43 -84.17 237.43 -82.23 237.11 C-81.9 236.12 -81.57 235.13 -81.23 234.11 C-78.59 233.78 -75.95 233.45 -73.23 233.11 C-73.23 232.45 -73.23 231.79 -73.23 231.11 C-72.24 230.78 -71.25 230.45 -70.23 230.11 C-69.57 230.44 -68.91 230.77 -68.23 231.11 C-67.9 229.13 -67.57 227.15 -67.23 225.11 C-66.66 225.03 -66.08 224.95 -65.48 224.86 C-63.09 224.28 -63.09 224.28 -61.61 222.18 C-58 219.04 -53.87 218.79 -49.23 218.11 C-48.9 215.8 -48.57 213.49 -48.23 211.11 C-46.58 211.44 -44.93 211.77 -43.23 212.11 C-43.23 210.46 -43.23 208.81 -43.23 207.11 C-42.24 207.11 -41.25 207.11 -40.23 207.11 C-37.66 206.95 -37.66 206.95 -35.23 206.11 C-33.87 204.15 -33.87 204.15 -33.23 202.11 C-33.89 201.78 -34.55 201.45 -35.23 201.11 C-33.25 201.11 -31.27 201.11 -29.23 201.11 C-28.9 200.45 -28.57 199.79 -28.23 199.11 C-25.67 198.49 -25.67 198.49 -23.23 198.11 C-23.23 196.79 -23.23 195.47 -23.23 194.11 C-21.25 193.78 -19.27 193.45 -17.23 193.11 C-17.23 191.13 -17.23 189.15 -17.23 187.11 C-16.57 187.44 -15.91 187.77 -15.23 188.11 C-14.57 187.45 -13.91 186.79 -13.23 186.11 C-12.24 186.11 -11.25 186.11 -10.23 186.11 C-10.23 184.46 -10.23 182.81 -10.23 181.11 C-9.06 180.96 -9.06 180.96 -7.86 180.8 C-4.9 180.34 -4.9 180.34 -3.23 177.11 C-3.16 175.89 -3.16 175.89 -4.23 174.11 C-1.59 174.11 1.05 174.11 3.77 174.11 C3.77 172.46 3.77 170.81 3.77 169.11 C5.42 169.11 7.07 169.11 8.77 169.11 C8.77 166.8 8.77 164.49 8.77 162.11 C9.88 161.87 10.99 161.62 12.14 161.36 C15.83 160.55 15.83 160.55 16.89 158.05 C17.18 157.41 17.47 156.77 17.77 156.11 C20.39 155.36 20.39 155.36 22.77 155.11 C22.92 151.48 22.92 151.48 21.77 148.11 C23.75 148.11 25.73 148.11 27.77 148.11 C27.77 146.46 27.77 144.81 27.77 143.11 C27.11 142.78 26.45 142.45 25.77 142.11 C28.02 139.61 28.02 139.61 30.77 137.11 C32.09 137.11 33.41 137.11 34.77 137.11 C34.52 135.69 34.52 135.69 34.27 134.24 C33.58 129.54 33.68 124.85 33.77 120.11 C32.96 119.91 32.16 119.7 31.33 119.49 C30.48 119.03 29.64 118.58 28.77 118.11 C27.95 114.99 27.95 114.99 27.77 112.11 C26.98 112.05 26.2 111.99 25.39 111.93 C24.52 111.66 23.66 111.39 22.77 111.11 C22.1 109.45 21.43 107.78 20.77 106.11 C19.53 105.87 19.53 105.87 18.27 105.61 C17.03 105.37 17.03 105.37 15.77 105.11 C14.45 102.55 14.45 102.55 13.77 100.11 C8.82 99.62 8.82 99.62 3.77 99.11 C3.44 98.12 3.11 97.13 2.77 96.11 C2.44 96.77 2.11 97.43 1.77 98.11 C1.11 98.11 0.45 98.11 -0.23 98.11 C-0.23 97.12 -0.23 96.13 -0.23 95.11 C-1.22 95.11 -2.21 95.11 -3.23 95.11 C-3.23 94.45 -3.23 93.79 -3.23 93.11 C-4.07 93.08 -4.07 93.08 -4.92 93.05 C-7.44 92.96 -9.96 92.85 -12.48 92.74 C-13.36 92.71 -14.23 92.68 -15.13 92.64 C-15.97 92.61 -16.82 92.57 -17.69 92.53 C-18.46 92.5 -19.24 92.46 -20.04 92.43 C-22.51 92.07 -24.12 91.45 -26.23 90.11 C-26.89 89.12 -27.55 88.13 -28.23 87.11 C-30.81 86.58 -30.81 86.58 -33.83 86.52 C-34.94 86.46 -36.05 86.4 -37.2 86.33 C-39.56 86.23 -41.91 86.13 -44.27 86.03 C-45.38 85.97 -46.49 85.9 -47.64 85.84 C-49.18 85.77 -49.18 85.77 -50.74 85.7 C-51.57 85.51 -52.39 85.31 -53.23 85.11 C-54.39 83.08 -54.39 83.08 -55.23 81.11 C-56.52 81.06 -57.8 81 -59.12 80.95 C-63.87 80.74 -68.63 80.53 -73.39 80.31 C-75.44 80.22 -77.5 80.13 -79.56 80.04 C-82.52 79.92 -85.48 79.78 -88.44 79.65 C-89.82 79.59 -89.82 79.59 -91.23 79.53 C-92.09 79.49 -92.95 79.45 -93.83 79.41 C-94.59 79.38 -95.34 79.34 -96.12 79.31 C-98.25 79.11 -100.17 78.65 -102.23 78.11 C-102.89 78.11 -103.55 78.11 -104.23 78.11 C-104.23 77.12 -104.23 76.13 -104.23 75.11 C-104.98 74.97 -105.72 74.82 -106.48 74.68 C-109.23 74.11 -109.23 74.11 -110.91 73.59 C-114.32 72.89 -117.74 72.92 -121.21 72.87 C-122.78 72.83 -124.36 72.8 -125.93 72.77 C-128.4 72.72 -130.88 72.68 -133.35 72.64 C-135.74 72.6 -138.13 72.55 -140.52 72.49 C-141.27 72.48 -142.01 72.48 -142.77 72.47 C-148.01 72.34 -148.01 72.34 -150.23 70.11 C-157.01 67.89 -163.53 67.77 -170.61 67.7 C-171.77 67.68 -172.94 67.66 -174.14 67.64 C-177.84 67.58 -181.54 67.53 -185.23 67.49 C-187.75 67.45 -190.27 67.41 -192.79 67.37 C-198.94 67.28 -205.08 67.19 -211.23 67.11 C-211.23 66.78 -211.23 66.45 -211.23 66.11 C-218.16 65.78 -225.09 65.45 -232.23 65.11 C-232.23 64.12 -232.23 63.13 -232.23 62.11 C-233.73 62.13 -233.73 62.13 -235.26 62.15 C-236.55 62.16 -237.84 62.17 -239.17 62.18 C-240.46 62.19 -241.75 62.2 -243.07 62.21 C-246.23 62.11 -246.23 62.11 -247.23 61.11 C-249.92 60.99 -252.58 60.93 -255.26 60.9 C-256.94 60.87 -258.61 60.85 -260.29 60.82 C-262.94 60.78 -265.58 60.74 -268.22 60.71 C-287.06 60.51 -287.06 60.51 -296.23 57.11 C-296.23 56.45 -296.23 55.79 -296.23 55.11 C-321.64 54.78 -347.05 54.45 -373.23 54.11 C-373.23 53.78 -373.23 53.45 -373.23 53.11 C-364.98 53.11 -356.73 53.11 -348.23 53.11 C-349.21 51.92 -349.21 51.92 -350.99 51.99 C-351.75 52 -352.51 52 -353.3 52 C-354.16 52 -355.02 52 -355.9 52 C-357.31 52.01 -357.31 52.01 -358.74 52.02 C-360.17 52.02 -360.17 52.02 -361.63 52.02 C-364.68 52.03 -367.74 52.04 -370.8 52.05 C-372.86 52.06 -374.93 52.06 -377 52.06 C-382.08 52.08 -387.16 52.09 -392.23 52.11 C-392.23 51.45 -392.23 50.79 -392.23 50.11 C-395.75 48.35 -399.81 49.1 -403.68 49.18 C-407.23 49.11 -407.23 49.11 -410.94 48.62 C-415.11 48.08 -419.23 47.93 -423.43 47.87 C-424.96 47.83 -426.5 47.8 -428.04 47.77 C-430.42 47.72 -432.81 47.68 -435.19 47.64 C-437.52 47.6 -439.85 47.55 -442.18 47.49 C-442.88 47.48 -443.58 47.48 -444.31 47.47 C-448.98 47.35 -452.83 46.55 -457.23 45.11 C-457.23 44.12 -457.23 43.13 -457.23 42.11 C-458.94 42.14 -458.94 42.14 -460.67 42.18 C-464.23 42.11 -464.23 42.11 -465.23 41.11 C-466.58 40.99 -467.94 40.94 -469.3 40.91 C-470.16 40.89 -471.02 40.87 -471.9 40.85 C-472.84 40.83 -473.77 40.81 -474.74 40.8 C-475.69 40.78 -476.64 40.76 -477.63 40.73 C-480.68 40.67 -483.74 40.61 -486.8 40.55 C-488.86 40.51 -490.93 40.46 -493 40.42 C-498.08 40.31 -503.16 40.21 -508.23 40.11 C-507.87 37.46 -507.43 36.3 -505.5 34.39 C-502.8 32.87 -501.1 32.72 -498.01 32.68 C-496.97 32.66 -495.93 32.64 -494.85 32.62 C-493.18 32.61 -493.18 32.61 -491.47 32.6 C-489.75 32.57 -489.75 32.57 -487.99 32.55 C-484.32 32.49 -480.65 32.46 -476.98 32.43 C-474.5 32.39 -472.01 32.36 -469.52 32.32 C-463.43 32.24 -457.33 32.17 -451.23 32.11 C-450.9 31.12 -450.57 30.13 -450.23 29.11 C-442.02 28.21 -433.84 27.91 -425.58 27.72 C-408.76 27.34 -392.02 26.38 -375.23 25.11 C-375.23 24.78 -375.23 24.45 -375.23 24.11 C-371.27 23.45 -367.31 22.79 -363.23 22.11 C-363.23 21.78 -363.23 21.45 -363.23 21.11 C-362.08 21.13 -360.93 21.14 -359.74 21.15 C-350.57 21.21 -341.45 21.07 -332.3 20.61 C-318.05 19.93 -303.81 20.06 -289.55 20.15 C-279.96 20.2 -270.43 20.11 -260.86 19.38 C-257.46 19.14 -254.49 18.97 -251.23 20.11 C-250.9 18.79 -250.57 17.47 -250.23 16.11 C-234.59 14.92 -218.91 14.57 -203.23 14.11 C-203.23 13.78 -203.23 13.45 -203.23 13.11 C-202.19 13.13 -201.15 13.14 -200.08 13.15 C-192.45 13.21 -184.85 13.14 -177.23 12.68 C-176.55 12.64 -175.86 12.6 -175.15 12.56 C-171.91 12.59 -171.91 12.59 -169.23 11.11 C-169.89 10.45 -170.55 9.79 -171.23 9.11 C-147.66 7.95 -124.11 7.99 -100.52 8.04 C-95.4 8.06 -90.27 8.06 -85.15 8.06 C-75.18 8.08 -65.21 8.09 -55.23 8.11 C-54.9 7.45 -54.57 6.79 -54.23 6.11 C-52.58 6.44 -50.93 6.77 -49.23 7.11 C-48.9 6.12 -48.57 5.13 -48.23 4.11 C-47.32 4.05 -46.4 3.99 -45.46 3.93 C-43.68 3.8 -43.68 3.8 -41.86 3.68 C-40.08 3.55 -40.08 3.55 -38.27 3.43 C-35.32 3.3 -35.32 3.3 -33.23 2.11 C-31.07 1.97 -28.9 1.89 -26.73 1.83 C-24.78 1.78 -24.78 1.78 -22.8 1.72 C-20.73 1.67 -18.66 1.61 -16.59 1.56 C-14.6 1.51 -12.6 1.45 -10.61 1.39 C-8.81 1.35 -8.81 1.35 -6.98 1.3 C-3.62 1.07 -3.54 0.12 0 0 Z M-246.23 60.11 C-246.23 60.44 -246.23 60.77 -246.23 61.11 C-241.94 61.11 -237.65 61.11 -233.23 61.11 C-233.23 60.78 -233.23 60.45 -233.23 60.11 C-237.52 60.11 -241.81 60.11 -246.23 60.11 Z M9.77 162.11 C9.77 164.09 9.77 166.07 9.77 168.11 C10.03 167.49 10.3 166.88 10.58 166.24 C11.77 164.11 11.77 164.11 14.77 162.11 C13.12 162.11 11.47 162.11 9.77 162.11 Z M-80.23 235.11 C-79.23 237.11 -79.23 237.11 -79.23 237.11 Z M-182.23 305.11 C-181.23 308.11 -181.23 308.11 -181.23 308.11 Z M-225.23 335.11 C-224.23 337.11 -224.23 337.11 -224.23 337.11 Z M0.77 371.11 C0.11 371.77 -0.55 372.43 -1.23 373.11 C-0.24 373.11 0.75 373.11 1.77 373.11 C1.44 372.45 1.11 371.79 0.77 371.11 Z M-43.23 407.11 C-43.56 408.1 -43.89 409.09 -44.23 410.11 C-43.57 410.11 -42.91 410.11 -42.23 410.11 C-42.56 409.12 -42.89 408.13 -43.23 407.11 Z M-178.23 522.11 C-178.23 522.77 -178.23 523.43 -178.23 524.11 C-179.22 524.44 -180.21 524.77 -181.23 525.11 C-179.91 525.11 -178.59 525.11 -177.23 525.11 C-177.56 524.12 -177.89 523.13 -178.23 522.11 Z M-203.23 541.11 C-202.23 543.11 -202.23 543.11 -202.23 543.11 Z M-294.23 618.11 C-294.23 619.1 -294.23 620.09 -294.23 621.11 C-293.57 621.11 -292.91 621.11 -292.23 621.11 C-292.23 620.12 -292.23 619.13 -292.23 618.11 C-292.89 618.11 -293.55 618.11 -294.23 618.11 Z M-941.23 671.11 C-941.23 671.77 -941.23 672.43 -941.23 673.11 C-940.57 672.78 -939.91 672.45 -939.23 672.11 C-939.89 671.78 -940.55 671.45 -941.23 671.11 Z M-869.23 736.11 C-868.23 738.11 -868.23 738.11 -868.23 738.11 Z M-454.23 752.11 C-450.23 753.11 -450.23 753.11 -450.23 753.11 Z M-498.23 791.11 C-497.23 793.11 -497.23 793.11 -497.23 793.11 Z M-545.23 831.11 C-544.23 833.11 -544.23 833.11 -544.23 833.11 Z " fill="#F5B338" transform="translate(1084.234619140625,118.886474609375)"/>
<path d="M0 0 C1.7 -0 1.7 -0 3.43 -0.01 C4.65 -0 5.88 0.01 7.13 0.01 C8.41 0.01 9.68 0.01 11 0.01 C13.7 0.02 16.41 0.02 19.12 0.04 C22.52 0.05 25.92 0.06 29.33 0.06 C41.73 0.06 54.12 0.12 66.51 0.69 C67.37 0.73 68.22 0.77 69.11 0.81 C72.36 0.98 75.15 1.21 78.26 2.24 C78.26 3.23 78.26 4.22 78.26 5.24 C79.04 5.06 79.83 4.87 80.63 4.68 C83.26 4.24 83.26 4.24 85.26 5.24 C86.76 5.16 88.26 5.05 89.76 4.93 C95.95 4.83 100.53 7.36 105.26 11.24 C105.26 11.9 105.26 12.56 105.26 13.24 C106.2 13.22 107.14 13.2 108.11 13.17 C109.98 13.15 109.98 13.15 111.88 13.12 C113.11 13.09 114.34 13.07 115.61 13.05 C119.23 13.24 121.93 13.82 125.26 15.24 C125.59 15.9 125.92 16.56 126.26 17.24 C128.52 17.6 130.75 17.69 133.03 17.8 C135.74 18.34 136.67 19 138.26 21.24 C138.26 22.56 138.26 23.88 138.26 25.24 C139.33 25.21 139.33 25.21 140.42 25.17 C146.14 25.06 150.86 25.32 156.26 27.24 C156.26 27.9 156.26 28.56 156.26 29.24 C157.33 29.7 158.4 30.15 159.51 30.62 C160.76 31.16 162.01 31.7 163.26 32.24 C164.04 32.57 164.83 32.9 165.63 33.24 C167.26 34.24 167.26 34.24 168.26 37.24 C168.92 36.91 169.58 36.58 170.26 36.24 C170.26 36.9 170.26 37.56 170.26 38.24 C171.91 38.57 173.56 38.9 175.26 39.24 C175.59 40.23 175.92 41.22 176.26 42.24 C179.05 43.41 181.89 44.22 184.79 45.08 C185.6 45.47 186.42 45.85 187.26 46.24 C187.91 48.29 187.91 48.29 188.26 50.24 C191.25 51.55 191.25 51.55 194.26 52.24 C194.26 53.56 194.26 54.88 194.26 56.24 C196.57 56.9 198.88 57.56 201.26 58.24 C201.59 59.89 201.92 61.54 202.26 63.24 C203.91 63.57 205.56 63.9 207.26 64.24 C207.3 64.82 207.34 65.4 207.38 65.99 C208.14 68.59 208.14 68.59 211.32 70.18 C212.29 70.86 213.26 71.54 214.26 72.24 C214.63 74.99 214.63 74.99 214.26 77.24 C215.91 77.24 217.56 77.24 219.26 77.24 C219.26 79.22 219.26 81.2 219.26 83.24 C220.43 83.61 220.43 83.61 221.63 83.99 C224.26 85.24 224.26 85.24 225.51 86.93 C226.5 90 226.89 93.04 227.26 96.24 C227.59 96.24 227.92 96.24 228.26 96.24 C228.3 125.42 228.34 154.61 228.36 183.79 C228.36 187.23 228.37 190.68 228.37 194.12 C228.37 194.81 228.37 195.5 228.37 196.2 C228.38 207.31 228.39 218.41 228.41 229.52 C228.43 240.91 228.44 252.31 228.45 263.71 C228.45 270.11 228.45 276.51 228.47 282.91 C228.48 288.93 228.49 294.96 228.48 300.98 C228.48 303.19 228.49 305.4 228.5 307.61 C228.51 310.63 228.5 313.65 228.5 316.67 C228.5 317.54 228.51 318.42 228.52 319.32 C228.49 324.34 227.87 328.48 226.26 333.24 C223.95 333.57 221.64 333.9 219.26 334.24 C219.26 335.89 219.26 337.54 219.26 339.24 C218.29 339.51 217.32 339.78 216.32 340.06 C215.31 340.45 214.3 340.84 213.26 341.24 C212.93 342.23 212.6 343.22 212.26 344.24 C210.04 345.02 210.04 345.02 207.32 345.62 C204.61 346.29 204.61 346.29 202.26 347.24 C200.96 349.73 200.96 349.73 200.26 352.24 C198.27 352.93 196.27 353.6 194.26 354.24 C193.53 356.26 193.53 356.26 193.26 358.24 C192.56 358.33 191.86 358.42 191.14 358.5 C188.42 358.92 185.87 359.38 183.26 360.24 C181.95 362.69 181.95 362.69 181.26 365.24 C179.27 365.93 177.27 366.6 175.26 367.24 C174.93 368.56 174.6 369.88 174.26 371.24 C170.96 371.57 167.66 371.9 164.26 372.24 C164.26 373.23 164.26 374.22 164.26 375.24 C165.25 375.24 166.24 375.24 167.26 375.24 C167.26 375.9 167.26 376.56 167.26 377.24 C166.56 377.33 165.86 377.42 165.14 377.5 C162.42 377.92 159.87 378.38 157.26 379.24 C155.95 381.69 155.95 381.69 155.26 384.24 C153.27 384.93 151.27 385.6 149.26 386.24 C148.53 388.26 148.53 388.26 148.26 390.24 C147.56 390.33 146.86 390.42 146.14 390.5 C143.42 390.92 140.87 391.38 138.26 392.24 C136.95 394.69 136.95 394.69 136.26 397.24 C134.27 397.93 132.27 398.6 130.26 399.24 C129.93 400.56 129.6 401.88 129.26 403.24 C125.63 403.57 122 403.9 118.26 404.24 C117.27 410.18 117.27 410.18 116.26 416.24 C115.6 415.58 114.94 414.92 114.26 414.24 C114.59 413.25 114.92 412.26 115.26 411.24 C114.27 411.57 113.28 411.9 112.26 412.24 C112.15 412.88 112.05 413.52 111.95 414.18 C111.72 414.86 111.49 415.54 111.26 416.24 C109.26 416.91 107.26 417.58 105.26 418.24 C104.29 420.28 104.29 420.28 104.26 422.24 C102.28 422.57 100.3 422.9 98.26 423.24 C97.93 424.89 97.6 426.54 97.26 428.24 C94.47 428.3 91.67 428.34 88.88 428.37 C88.09 428.38 87.29 428.4 86.48 428.42 C84.4 428.44 82.33 428.35 80.26 428.24 C79.6 427.58 78.94 426.92 78.26 426.24 C78.59 425.91 78.92 425.58 79.26 425.24 C73 423.11 66.84 422.65 60.26 422.24 C59.6 420.59 58.94 418.94 58.26 417.24 C56.45 417.1 56.45 417.1 54.61 416.95 C53.03 416.8 51.46 416.64 49.88 416.49 C49.09 416.43 48.29 416.37 47.48 416.31 C46.34 416.19 46.34 416.19 45.17 416.07 C44.47 416.01 43.77 415.95 43.05 415.88 C41.26 415.24 41.26 415.24 40.27 413.24 C39.46 411.07 39.46 411.07 37.38 410.61 C36.63 410.54 35.89 410.48 35.12 410.41 C33.92 410.3 33.92 410.3 32.68 410.18 C31.84 410.12 31 410.06 30.13 409.99 C29.28 409.92 28.43 409.84 27.56 409.76 C25.46 409.57 23.36 409.4 21.26 409.24 C20.6 407.59 19.94 405.94 19.26 404.24 C17.45 404.1 17.45 404.1 15.61 403.95 C14.03 403.8 12.46 403.64 10.88 403.49 C10.09 403.43 9.29 403.37 8.48 403.31 C6.33 403.09 4.33 402.86 2.26 402.24 C1.06 400.22 1.06 400.22 0.26 398.24 C-2.57 397.51 -5.31 397.3 -8.21 397.03 C-9.46 396.64 -9.46 396.64 -10.74 396.24 C-12.09 393.68 -12.09 393.68 -12.74 391.24 C-12.08 391.24 -11.42 391.24 -10.74 391.24 C-10.74 262.87 -10.74 134.5 -10.74 2.24 C-6.33 0.48 -4.49 -0.01 0 0 Z " fill="#1D4F9D" transform="translate(304.7421875,363.757080078125)"/>
<path d="M0 0 C2.31 0.33 4.62 0.66 7 1 C7.33 2.32 7.66 3.64 8 5 C8.78 5.06 9.57 5.12 10.38 5.19 C11.67 5.59 11.67 5.59 13 6 C13.27 6.78 13.54 7.57 13.81 8.38 C14.72 11.09 14.72 11.09 16.82 12 C20.81 13.52 20.81 13.52 25 14 C25.33 15.98 25.66 17.96 26 20 C27.65 20 29.3 20 31 20 C31.33 21.65 31.66 23.3 32 25 C32.97 25.25 33.94 25.5 34.94 25.75 C35.95 26.16 36.96 26.58 38 27 C38.14 27.64 38.29 28.28 38.44 28.94 C38.62 29.62 38.81 30.3 39 31 C42.49 32.79 42.49 32.79 46 34 C46 35.32 46 36.64 46 38 C47.65 38.33 49.3 38.66 51 39 C51 40.65 51 42.3 51 44 C52.11 44.25 53.23 44.5 54.38 44.75 C58 46 58 46 59.19 48.06 C59.46 48.7 59.72 49.34 60 50 C60.66 50.14 61.32 50.29 62 50.44 C62.66 50.62 63.32 50.81 64 51 C64.67 52.67 65.33 54.33 66 56 C66.64 56.14 67.28 56.29 67.94 56.44 C68.62 56.62 69.3 56.81 70 57 C71 59 72 61 73 63 C74.33 63.36 75.66 63.7 77 64 C77.25 64.8 77.51 65.59 77.77 66.41 C78.77 69.24 78.77 69.24 81.6 70.14 C82.6 70.36 83.6 70.59 84.62 70.81 C85.63 71.05 86.63 71.28 87.66 71.52 C88.82 71.76 88.82 71.76 90 72 C90.11 72.64 90.23 73.28 90.35 73.94 C90.56 74.62 90.78 75.3 91 76 C91.8 76.31 92.61 76.62 93.44 76.94 C96 78 96 78 97.31 80.62 C97.54 81.41 97.77 82.19 98 83 C99.32 83 100.64 83 102 83 C102.25 83.8 102.5 84.61 102.75 85.44 C103.16 86.28 103.57 87.13 104 88 C104.66 88.14 105.32 88.29 106 88.44 C106.99 88.72 106.99 88.72 108 89 C108.29 89.97 108.58 90.94 108.88 91.94 C109.43 93.45 109.43 93.45 110 95 C111.98 95.73 113.98 96.4 116 97 C116.37 98.32 116.71 99.66 117 101 C117.8 101.31 118.61 101.62 119.44 101.94 C122 103 122 103 123.31 105.62 C123.54 106.41 123.77 107.19 124 108 C125.32 108 126.64 108 128 108 C128.66 109.98 129.32 111.96 130 114 C133.63 114.33 137.26 114.66 141 115 C141 113.35 141 111.7 141 110 C144 108 144 108 147 108 C147.33 106.35 147.66 104.7 148 103 C150.97 102.51 150.97 102.51 154 102 C154.22 100.79 154.22 100.79 154.44 99.56 C155 97 155 97 156 96 C157.67 95.96 159.33 95.96 161 96 C160.79 95.38 160.59 94.76 160.38 94.12 C160.25 93.42 160.13 92.72 160 92 C162.36 89.64 163.78 89.51 167 89 C167.14 88.36 167.29 87.72 167.44 87.06 C168 85 168 85 169 84 C170.67 83.96 172.33 83.96 174 84 C174.02 83.24 174.04 82.47 174.06 81.69 C175 79 175 79 178.31 77.19 C182 76 182 76 186 76 C185.67 75.01 185.34 74.02 185 73 C186.25 71.5 186.25 71.5 188 70 C189.32 70 190.64 70 192 70 C192.33 68.35 192.66 66.7 193 65 C195.97 64.5 195.97 64.5 199 64 C199.14 63.2 199.29 62.39 199.44 61.56 C200 59 200 59 201 58 C202.67 57.96 204.33 57.96 206 58 C206.06 57.22 206.12 56.43 206.19 55.62 C206.46 54.76 206.72 53.89 207 53 C208.67 52.33 210.33 51.67 212 51 C212.89 48.45 212.89 48.45 213 46 C216.88 44.81 219.92 44 224 44 C224.33 42.35 224.66 40.7 225 39 C227.97 38.5 227.97 38.5 231 38 C231 36.35 231 34.7 231 33 C234.47 32.5 234.47 32.5 238 32 C238 125.06 238 218.12 238 314 C206.27 315.67 206.27 315.67 199 313 C197.87 312.63 196.73 312.26 195.56 311.88 C194.72 311.59 193.87 311.3 193 311 C193 310.34 193 309.68 193 309 C191.71 309.02 190.42 309.05 189.09 309.07 C187.37 309.09 185.65 309.11 183.94 309.12 C183.09 309.14 182.24 309.16 181.37 309.18 C176.17 309.22 171.93 308.7 167 307 C167 306.01 167 305.02 167 304 C165.71 303.87 164.42 303.73 163.09 303.6 C161.37 303.42 159.65 303.24 157.94 303.06 C157.09 302.98 156.24 302.89 155.37 302.8 C150.56 302.3 145.78 301.72 141 301 C141 300.34 141 299.68 141 299 C140.01 299 139.02 299 138 299 C138 298.34 138 297.68 138 297 C137.01 297 136.02 297 135 297 C135 296.34 135 295.68 135 295 C133.01 295.03 131.03 295.07 129.04 295.1 C127 295 127 295 124 294 C124 293.01 124 292.02 124 291 C123.01 291.33 122.02 291.66 121 292 C121 291.01 121 290.02 121 289 C120.25 289.06 119.5 289.12 118.73 289.18 C115.75 289.31 112.96 289.36 110 289 C107.56 286.56 107.56 286.56 106 284 C104.07 283.25 104.07 283.25 102 283 C99.31 282.12 99.31 282.12 97 281 C96.5 279.51 96.5 279.51 96 278 C94.88 277.87 94.88 277.87 93.73 277.74 C85.54 276.57 85.54 276.57 82.56 273.44 C82.05 272.63 81.53 271.83 81 271 C79.07 270.25 79.07 270.25 77 270 C74.31 269.12 74.31 269.12 72 268 C71.5 266.51 71.5 266.51 71 265 C67.49 263.77 67.49 263.77 64 263 C63.67 261.68 63.34 260.36 63 259 C62.38 258.96 61.76 258.92 61.12 258.88 C60.42 258.59 59.72 258.3 59 258 C58.66 256.55 58.66 256.55 58.31 255.06 C57.88 254.05 57.45 253.04 57 252 C54.97 251.38 54.97 251.38 52.62 251.12 C48.4 250.48 48.4 250.48 46.52 248.21 C44.89 244.96 44 242.67 44 239 C42.68 239 41.36 239 40 239 C39.77 238.22 39.55 237.43 39.31 236.62 C38.26 233.77 38.26 233.77 35.5 233.06 C34.68 232.71 33.85 232.36 33 232 C32.27 230.02 31.6 228.02 31 226 C30.01 225.67 29.02 225.34 28 225 C27.34 224.67 26.68 224.34 26 224 C25.9 223.22 25.79 222.43 25.69 221.62 C25.46 220.76 25.23 219.89 25 219 C24.18 218.55 23.35 218.09 22.5 217.62 C20 216 20 216 19.19 212.5 C19.07 210.34 19 208.17 19 206 C18.38 205.96 17.76 205.92 17.12 205.88 C15 205 15 205 13.88 202.31 C13.59 201.22 13.3 200.13 13 199 C12.21 195.79 12.21 195.79 11 193 C10 192.59 10 192.59 8.97 192.17 C8.32 191.78 7.67 191.4 7 191 C6.43 188.57 6.43 188.57 6.31 185.56 C6.26 184.5 6.2 183.43 6.15 182.33 C6.1 181.23 6.05 180.13 6 179 C5.82 176.92 5.64 174.83 5.44 172.75 C5.35 171.84 5.27 170.92 5.18 169.98 C5.12 169.33 5.06 168.67 5 168 C3.68 167.67 2.36 167.34 1 167 C0.67 111.89 0.34 56.78 0 0 Z " fill="#1E4F9D" transform="translate(293,927)"/>
<path d="M0 0 C1.29 -0.01 2.58 -0.01 3.92 -0.02 C5.33 -0.02 6.74 -0.02 8.16 -0.02 C9.61 -0.03 11.07 -0.03 12.52 -0.03 C15.57 -0.04 18.62 -0.04 21.67 -0.04 C25.56 -0.04 29.45 -0.05 33.34 -0.07 C36.35 -0.08 39.36 -0.08 42.36 -0.08 C43.8 -0.08 45.23 -0.09 46.66 -0.1 C61.85 -0.17 61.85 -0.17 68.74 2.15 C69.45 3.46 70.12 4.79 70.74 6.15 C73.08 7.03 73.08 7.03 75.74 7.33 C80.64 8.09 80.64 8.09 82.74 9.15 C82.74 10.14 82.74 11.13 82.74 12.15 C83.44 12.19 84.14 12.24 84.86 12.29 C85.77 12.37 86.68 12.44 87.62 12.52 C88.52 12.59 89.43 12.66 90.36 12.73 C92.74 13.15 92.74 13.15 94.74 15.15 C94.74 16.47 94.74 17.79 94.74 19.15 C95.67 19.23 96.6 19.31 97.56 19.4 C101.29 20.27 101.69 21.07 103.74 24.15 C105.83 25.4 105.83 25.4 107.74 26.15 C107.74 26.81 107.74 27.47 107.74 28.15 C108.73 28.48 109.72 28.81 110.74 29.15 C112.43 30.58 112.43 30.58 113.74 32.15 C113.74 32.81 113.74 33.47 113.74 34.15 C114.4 34.15 115.06 34.15 115.74 34.15 C117.25 35.54 117.25 35.54 118.87 37.4 C119.41 38 119.95 38.6 120.5 39.22 C121.74 41.15 121.74 41.15 121.74 45.15 C124.71 45.64 124.71 45.64 127.74 46.15 C127.74 48.13 127.74 50.11 127.74 52.15 C129.39 52.48 131.04 52.81 132.74 53.15 C133.73 59.09 133.73 59.09 134.74 65.15 C136.06 65.15 137.38 65.15 138.74 65.15 C139.08 66.58 139.41 68.02 139.74 69.46 C139.93 70.26 140.11 71.06 140.31 71.88 C140.74 74.15 140.74 74.15 140.74 77.15 C141.38 77.41 142.02 77.68 142.68 77.96 C144.74 79.15 144.74 79.15 145.74 82.15 C145.83 84.49 145.86 86.84 145.86 89.19 C145.86 89.9 145.86 90.61 145.86 91.35 C145.86 93.7 145.85 96.05 145.84 98.41 C145.84 100.04 145.84 101.67 145.84 103.3 C145.83 107.6 145.82 111.9 145.81 116.19 C145.8 120.58 145.8 124.96 145.79 129.34 C145.78 137.94 145.76 146.54 145.74 155.15 C144.09 155.48 142.44 155.81 140.74 156.15 C140.78 157.01 140.83 157.88 140.87 158.77 C140.74 162.35 140.23 164.88 138.74 168.15 C138.08 168.43 137.42 168.71 136.74 169 C134.51 169.99 134.51 169.99 133.92 172.53 C133.78 173.43 133.64 174.34 133.49 175.27 C133.34 176.18 133.19 177.09 133.04 178.03 C132.89 179.08 132.89 179.08 132.74 180.15 C131.09 180.48 129.44 180.81 127.74 181.15 C127.81 182.09 127.87 183.04 127.93 184.02 C127.87 185.05 127.81 186.08 127.74 187.15 C124.74 189.15 124.74 189.15 121.74 189.15 C121.62 189.87 121.5 190.59 121.37 191.33 C120.73 194.2 120.14 196.56 118.74 199.15 C117.09 199.85 115.42 200.51 113.74 201.15 C113.43 201.78 113.12 202.42 112.81 203.08 C111.22 206.17 108.87 206.84 105.74 208.15 C105.08 208.15 104.42 208.15 103.74 208.15 C103.08 209.8 102.42 211.45 101.74 213.15 C99.43 213.48 97.12 213.81 94.74 214.15 C94.74 215.8 94.74 217.45 94.74 219.15 C93.48 219.18 93.48 219.18 92.19 219.22 C91.09 219.28 90 219.34 88.87 219.4 C87.78 219.44 86.69 219.49 85.56 219.54 C84.63 219.74 83.7 219.94 82.74 220.15 C81.53 222.05 81.53 222.05 80.74 224.15 C77.23 225.93 74.7 227.15 70.74 227.15 C70.08 228.8 69.42 230.45 68.74 232.15 C68.03 232.17 67.32 232.2 66.59 232.22 C63.37 232.34 60.15 232.46 56.93 232.58 C55.81 232.62 54.69 232.66 53.54 232.7 C51.93 232.76 51.93 232.76 50.29 232.83 C49.3 232.87 48.31 232.9 47.29 232.94 C44.62 233.05 44.62 233.05 41.74 234.15 C40.08 234.18 38.41 234.19 36.74 234.15 C36.74 235.14 36.74 236.13 36.74 237.15 C32.45 237.15 28.16 237.15 23.74 237.15 C23.74 236.16 23.74 235.17 23.74 234.15 C22.29 234.18 22.29 234.18 20.81 234.21 C17.74 234.15 17.74 234.15 16.74 233.15 C15.41 233 14.07 232.92 12.74 232.86 C11.91 232.83 11.09 232.79 10.24 232.75 C9.38 232.72 8.51 232.68 7.62 232.65 C-9.43 231.94 -9.43 231.94 -13.26 229.15 C-14.01 227.02 -14.01 227.02 -14.26 225.15 C-16.57 225.15 -18.88 225.15 -21.26 225.15 C-21.59 224.16 -21.92 223.17 -22.26 222.15 C-24.72 221.3 -24.72 221.3 -27.63 220.77 C-33.06 219.45 -33.06 219.45 -34.88 216.58 C-35.34 215.78 -35.79 214.97 -36.26 214.15 C-39.2 213.1 -42.17 212.58 -45.26 212.15 C-45.75 209.67 -45.75 209.67 -46.26 207.15 C-47.18 207.1 -48.11 207.06 -49.07 207.02 C-52.26 206.15 -52.26 206.15 -54.13 203.08 C-54.5 202.11 -54.87 201.14 -55.26 200.15 C-56.25 200.15 -57.24 200.15 -58.26 200.15 C-58.59 198.17 -58.92 196.19 -59.26 194.15 C-60.21 193.96 -61.15 193.77 -62.13 193.58 C-63.16 193.11 -64.19 192.63 -65.26 192.15 C-66.44 188.58 -66.44 188.58 -67.26 185.15 C-68.25 184.82 -69.24 184.49 -70.26 184.15 C-70.26 183.49 -70.26 182.83 -70.26 182.15 C-70.92 182.15 -71.58 182.15 -72.26 182.15 C-72.5 181.03 -72.75 179.92 -73.01 178.77 C-73.87 175.1 -73.87 175.1 -76.38 173.71 C-77 173.52 -77.62 173.34 -78.26 173.15 C-78.26 171.5 -78.26 169.85 -78.26 168.15 C-78.92 168.15 -79.58 168.15 -80.26 168.15 C-80.24 167.36 -80.22 166.58 -80.19 165.77 C-80.07 163.16 -80.07 163.16 -81.26 161.15 C-82.25 160.82 -83.24 160.49 -84.26 160.15 C-86.19 154.41 -86.52 149.16 -86.38 143.15 C-86.37 142.37 -86.36 141.6 -86.35 140.8 C-86.33 138.91 -86.29 137.03 -86.26 135.15 C-87.25 135.15 -88.24 135.15 -89.26 135.15 C-89.32 134.36 -89.38 133.58 -89.44 132.77 C-89.52 131.76 -89.61 130.75 -89.69 129.71 C-89.78 128.7 -89.86 127.69 -89.94 126.65 C-89.99 124.21 -89.99 124.21 -91.26 123.15 C-91.71 116.5 -91.54 110.42 -89.26 104.15 C-88.27 104.15 -87.28 104.15 -86.26 104.15 C-86.28 103.02 -86.3 101.89 -86.33 100.74 C-86.47 90.66 -85.9 81.09 -84.26 71.15 C-83.27 71.15 -82.28 71.15 -81.26 71.15 C-80.92 70.36 -80.58 69.58 -80.23 68.77 C-79.56 67.26 -79.56 67.26 -78.88 65.71 C-78.44 64.7 -78 63.69 -77.55 62.65 C-76.26 60.15 -76.26 60.15 -74.26 59.15 C-74.59 58.49 -74.92 57.83 -75.26 57.15 C-74.6 57.15 -73.94 57.15 -73.26 57.15 C-73.26 55.5 -73.26 53.85 -73.26 52.15 C-71.77 51.65 -71.77 51.65 -70.26 51.15 C-69.93 50.16 -69.6 49.17 -69.26 48.15 C-68.78 47.71 -68.31 47.28 -67.82 46.83 C-66 45.11 -66 45.11 -65.32 42.02 C-64.97 41.07 -64.62 40.12 -64.26 39.15 C-62.26 38.52 -62.26 38.52 -60.26 38.15 C-58.86 36.28 -58.86 36.28 -58.26 34.15 C-58.59 33.49 -58.92 32.83 -59.26 32.15 C-57.28 32.15 -55.3 32.15 -53.26 32.15 C-53.11 31.36 -52.97 30.58 -52.82 29.77 C-52.26 27.15 -52.26 27.15 -51.26 25.15 C-49.94 25.15 -48.62 25.15 -47.26 25.15 C-47.26 23.83 -47.26 22.51 -47.26 21.15 C-45.63 20.81 -44.01 20.48 -42.38 20.15 C-41.48 19.96 -40.57 19.77 -39.64 19.58 C-37.26 19.15 -37.26 19.15 -35.26 19.15 C-34.93 17.17 -34.6 15.19 -34.26 13.15 C-29.87 12.44 -25.7 12.04 -21.26 12.15 C-20.93 10.5 -20.6 8.85 -20.26 7.15 C-18.65 6.96 -18.65 6.96 -17.01 6.77 C-13.88 6.25 -11.92 5.74 -9.26 4.15 C-9.26 3.16 -9.26 2.17 -9.26 1.15 C-5.95 0.04 -3.48 0.01 0 0 Z M-46.26 22.15 C-45.26 25.15 -45.26 25.15 -45.26 25.15 Z M67.74 225.15 C67.74 225.48 67.74 225.81 67.74 226.15 C69.72 226.15 71.7 226.15 73.74 226.15 C73.74 225.82 73.74 225.49 73.74 225.15 C71.76 225.15 69.78 225.15 67.74 225.15 Z " fill="#1D4F9D" transform="translate(385.25634765625,36.854736328125)"/>
<path d="M0 0 C0.33 0 0.66 0 1 0 C1 90.42 1 180.84 1 274 C0.67 274 0.34 274 0 274 C0 183.58 0 93.16 0 0 Z " fill="#000000" transform="translate(532,961)"/>
<path d="M0 0 C1.77 0 3.54 0.01 5.32 0.02 C6.25 0.02 7.18 0.02 8.14 0.02 C11.12 0.03 14.11 0.04 17.09 0.05 C19.11 0.06 21.13 0.06 23.15 0.06 C28.11 0.08 33.07 0.09 38.03 0.11 C38.69 1.43 39.35 2.75 40.03 4.11 C25.84 4.11 11.65 4.11 -2.97 4.11 C-2.97 3.45 -2.97 2.79 -2.97 2.11 C-3.63 1.78 -4.29 1.45 -4.97 1.11 C-3.97 0.11 -3.97 0.11 0 0 Z " fill="#1C4D98" transform="translate(694.968994140625,166.886474609375)"/>
<path d="M0 0 C1.04 -0 2.08 -0.01 3.16 -0.01 C8.07 -0 12.74 0.08 17.56 1.12 C18.06 2.61 18.06 2.61 18.56 4.12 C15.74 5.53 13.39 5.24 10.24 5.22 C8.99 5.22 7.73 5.22 6.43 5.21 C5.11 5.2 3.8 5.2 2.44 5.19 C1.1 5.18 -0.24 5.18 -1.58 5.17 C-4.87 5.16 -8.15 5.15 -11.44 5.12 C-11.44 4.13 -11.44 3.15 -11.44 2.12 C-16.06 2.12 -20.68 2.12 -25.44 2.12 C-25.44 1.79 -25.44 1.47 -25.44 1.12 C-16.96 0.2 -8.53 0.02 0 0 Z " fill="#184181" transform="translate(863.4375,178.875)"/>
<path d="M0 0 C1.19 0 2.38 0.01 3.61 0.01 C6.51 0.03 9.41 0.04 12.31 0.06 C12.81 1.55 12.81 1.55 13.31 3.06 C9.56 3.23 5.81 3.4 2.06 3.56 C1.02 3.61 -0.03 3.66 -1.1 3.71 C-21.62 4.59 -21.62 4.59 -24.69 3.06 C-24.69 2.4 -24.69 1.74 -24.69 1.06 C-16.44 0.13 -8.3 -0.06 0 0 Z " fill="#000000" transform="translate(510.6875,1234.9375)"/>
<path d="M0 0 C0 0.66 0 1.32 0 2 C-15.84 2 -31.68 2 -48 2 C-44.3 -0.47 -41.24 -0.5 -36.94 -0.69 C-36.13 -0.73 -35.31 -0.77 -34.48 -0.81 C-22.98 -1.26 -11.48 -0.59 0 0 Z " fill="#1E509E" transform="translate(959,131)"/>
<path d="M0 0 C0.8 -0 1.59 -0 2.41 -0 C3.25 -0 4.08 0 4.94 0.01 C6.19 0 6.19 0 7.46 -0 C8.26 -0 9.05 -0 9.88 0 C10.61 0 11.34 0 12.09 0 C13.94 0.13 13.94 0.13 15.94 1.13 C15.94 1.79 15.94 2.45 15.94 3.13 C17.59 3.13 19.24 3.13 20.94 3.13 C20.94 3.46 20.94 3.79 20.94 4.13 C13.35 4.46 5.76 4.79 -2.06 5.13 C-2.06 4.14 -2.06 3.15 -2.06 2.13 C-3.38 1.8 -4.7 1.47 -6.06 1.13 C-3.79 -0 -2.52 0 0 0 Z " fill="#1B488E" transform="translate(982.0625,191.8671875)"/>
<path d="M0 0 C3.27 -0.03 6.54 -0.05 9.81 -0.06 C10.74 -0.07 11.67 -0.08 12.63 -0.09 C13.52 -0.09 14.41 -0.09 15.33 -0.1 C16.57 -0.11 16.57 -0.11 17.82 -0.11 C20 0 20 0 23 1 C23 2.32 23 3.64 23 5 C22.25 4.87 21.5 4.73 20.73 4.6 C14.77 3.57 8.9 2.73 2.86 2.34 C2.25 2.23 1.63 2.12 1 2 C0.67 1.34 0.34 0.68 0 0 Z " fill="#000000" transform="translate(360,365)"/>
<path d="M0 0 C2.01 0.13 2.01 0.13 5.01 1.13 C5.01 2.12 5.01 3.11 5.01 4.13 C2.6 5.34 1.06 5.23 -1.62 5.2 C-2.84 5.18 -2.84 5.18 -4.09 5.17 C-5.03 5.15 -5.03 5.15 -5.99 5.13 C-6.55 3.2 -6.55 3.2 -6.99 1.13 C-5.11 -0.75 -2.49 0.01 0 0 Z " fill="#1E509E" transform="translate(38.9921875,671.8671875)"/>
<path d="M0 0 C7.51 1.48 7.51 1.48 10 4.12 C10.5 5.05 10.5 5.05 11 6 C9.54 6.03 8.08 6.05 6.62 6.06 C5.81 6.07 5 6.09 4.16 6.1 C2 6 2 6 0 5 C0 3.35 0 1.7 0 0 Z " fill="#0A1C38" transform="translate(422,377)"/>
<path d="M0 0 C0.33 0 0.66 0 1 0 C1 11.88 1 23.76 1 36 C0.67 36 0.34 36 0 36 C0 24.12 0 12.24 0 0 Z " fill="#000000" transform="translate(532,136)"/>
<path d="M0 0 C1.23 0.15 1.23 0.15 2.48 0.31 C3.42 0.43 3.42 0.43 4.38 0.56 C3.38 0.89 2.39 1.22 1.38 1.56 C1.38 2.22 1.38 2.88 1.38 3.56 C-1.26 3.56 -3.9 3.56 -6.62 3.56 C-6.62 2.57 -6.62 1.58 -6.62 0.56 C-4.1 -0.7 -2.77 -0.36 0 0 Z " fill="#000000" transform="translate(454.625,262.4375)"/>
<path d="M0 0 C7.43 -0.14 7.43 -0.14 11 1 C11 1.66 11 2.32 11 3 C7.37 3 3.74 3 0 3 C0 2.01 0 1.02 0 0 Z " fill="#0B1F3E" transform="translate(226,738)"/>
<path d="M0 0 C9.24 0 18.48 0 28 0 C28 0.33 28 0.66 28 1 C18.76 1 9.52 1 0 1 C0 0.67 0 0.34 0 0 Z " fill="#000000" transform="translate(943,192)"/>
<path d="M0 0 C1.32 0.33 2.64 0.66 4 1 C4.62 2.81 4.62 2.81 5 5 C4.01 6.48 4.01 6.48 3 8 C2.01 7.67 1.02 7.34 0 7 C0 4.69 0 2.38 0 0 Z " fill="#030912" transform="translate(301,108)"/>
<path d="M0 0 C7.59 0 15.18 0 23 0 C23 0.33 23 0.66 23 1 C15.41 1 7.82 1 0 1 C0 0.67 0 0.34 0 0 Z " fill="#000000" transform="translate(596,160)"/>
<path d="M0 0 C6.6 0 13.2 0 20 0 C20 0.33 20 0.66 20 1 C13.4 1 6.8 1 0 1 C0 0.67 0 0.34 0 0 Z " fill="#1E509E" transform="translate(308,362)"/>
<path d="M0 0 C5.28 0 10.56 0 16 0 C16 0.33 16 0.66 16 1 C10.72 1 5.44 1 0 1 C0 0.67 0 0.34 0 0 Z " fill="#000000" transform="translate(653,167)"/>
<path d="M0 0 C3.3 0 6.6 0 10 0 C10 0.33 10 0.66 10 1 C6.7 1 3.4 1 0 1 C0 0.67 0 0.34 0 0 Z " fill="#F6B439" transform="translate(863,132)"/>
<path d="M0 0 C3.3 0 6.6 0 10 0 C10 0.33 10 0.66 10 1 C6.7 1 3.4 1 0 1 C0 0.67 0 0.34 0 0 Z " fill="#F6B439" transform="translate(1068,119)"/>
<path d="M0 0 C2.97 0 5.94 0 9 0 C9 0.33 9 0.66 9 1 C6.03 1 3.06 1 0 1 C0 0.67 0 0.34 0 0 Z " fill="#000000" transform="translate(359,363)"/>
<path d="M0 0 C2.64 0 5.28 0 8 0 C8 0.33 8 0.66 8 1 C5.36 1 2.72 1 0 1 C0 0.67 0 0.34 0 0 Z " fill="#F6B439" transform="translate(680,144)"/>
<path d="M0 0 C2.31 0 4.62 0 7 0 C7 0.33 7 0.66 7 1 C4.69 1 2.38 1 0 1 C0 0.67 0 0.34 0 0 Z " fill="#000000" transform="translate(369,363)"/>
<path d="M0 0 C2.31 0 4.62 0 7 0 C7 0.33 7 0.66 7 1 C4.69 1 2.38 1 0 1 C0 0.67 0 0.34 0 0 Z " fill="#F6B439" transform="translate(1048,119)"/>
<path d="M0 0 C1.98 0 3.96 0 6 0 C6 0.33 6 0.66 6 1 C4.02 1 2.04 1 0 1 C0 0.67 0 0.34 0 0 Z " fill="#1E509E" transform="translate(702,143)"/>
<path d="M0 0 C1.65 0 3.3 0 5 0 C5 0.33 5 0.66 5 1 C3.35 1 1.7 1 0 1 C0 0.67 0 0.34 0 0 Z " fill="#000000" transform="translate(1096,479)"/>
<path d="M0 0 C1.65 0 3.3 0 5 0 C5 0.33 5 0.66 5 1 C3.35 1 1.7 1 0 1 C0 0.67 0 0.34 0 0 Z " fill="#000000" transform="translate(1166,422)"/>
<path d="M0 0 C0.33 0 0.66 0 1 0 C1 1.65 1 3.3 1 5 C0.67 5 0.34 5 0 5 C0 3.35 0 1.7 0 0 Z " fill="#000000" transform="translate(1267,205)"/>
<path d="M0 0 C1.65 0 3.3 0 5 0 C5 0.33 5 0.66 5 1 C3.35 1 1.7 1 0 1 C0 0.67 0 0.34 0 0 Z " fill="#000000" transform="translate(1043,205)"/>
<path d="M0 0 C1.65 0 3.3 0 5 0 C5 0.33 5 0.66 5 1 C3.35 1 1.7 1 0 1 C0 0.67 0 0.34 0 0 Z " fill="#000000" transform="translate(832,180)"/>
<path d="M0 0 C4 1 4 1 4 1 Z " fill="#000000" transform="translate(681,832)"/>
<path d="M0 0 C4 1 4 1 4 1 Z " fill="#000000" transform="translate(718,800)"/>
<path d="M0 0 C4 1 4 1 4 1 Z " fill="#000000" transform="translate(1006,557)"/>
<path d="M0 0 C4 1 4 1 4 1 Z " fill="#F6B439" transform="translate(801,497)"/>
<path d="M0 0 C1 4 1 4 1 4 Z " fill="#7B5A1C" transform="translate(1048,321)"/>
<path d="M0 0 C4 1 4 1 4 1 Z " fill="#000000" transform="translate(463,262)"/>
<path d="M0 0 C1 4 1 4 1 4 Z " fill="#000000" transform="translate(467,258)"/>
<path d="M0 0 C4 1 4 1 4 1 Z " fill="#000000" transform="translate(1075,212)"/>
<path d="M0 0 C1 4 1 4 1 4 Z " fill="#000000" transform="translate(525,200)"/>
<path d="M0 0 C4 1 4 1 4 1 Z " fill="#F6B439" transform="translate(696,143)"/>
<path d="M0 0 C4 1 4 1 4 1 Z " fill="#F6B439" transform="translate(854,132)"/>
<path d="M0 0 C4 1 4 1 4 1 Z " fill="#546984" transform="translate(908,130)"/>
<path d="M0 0 C4 1 4 1 4 1 Z " fill="#F6B439" transform="translate(1116,119)"/>
<path d="M0 0 C1 4 1 4 1 4 Z " fill="#163C76" transform="translate(313,85)"/>
<path d="M0 0 C3 1 3 1 3 1 Z " fill="#000000" transform="translate(526,1242)"/>
<path d="M0 0 C3 1 3 1 3 1 Z " fill="#000000" transform="translate(186,832)"/>
<path d="M0 0 C3 1 3 1 3 1 Z " fill="#0A1A34" transform="translate(738,783)"/>
<path d="M0 0 C3 1 3 1 3 1 Z " fill="#000000" transform="translate(58,717)"/>
<path d="M0 0 C0.33 0.66 0.66 1.32 1 2 C0.34 1.67 -0.32 1.34 -1 1 C-0.67 0.67 -0.34 0.34 0 0 Z " fill="#F6B439" transform="translate(579,656)"/>
<path d="" fill="#F6B439" transform="translate(0,0)"/>
<path d="M0 0 C0.99 0.5 0.99 0.5 2 1 C1.01 1.5 1.01 1.5 0 2 C0 1.34 0 0.68 0 0 Z " fill="#F6B439" transform="translate(683,580)"/>
<path d="M0 0 C0.99 0.5 0.99 0.5 2 1 C1.01 1.5 1.01 1.5 0 2 C0 1.34 0 0.68 0 0 Z " fill="#F6B439" transform="translate(689,575)"/>
<path d="M0 0 C0.99 0.5 0.99 0.5 2 1 C1.01 1.5 1.01 1.5 0 2 C0 1.34 0 0.68 0 0 Z " fill="#F6B439" transform="translate(760,523)"/>
<path d="M0 0 C3 1 3 1 3 1 Z " fill="#000000" transform="translate(1141,442)"/>
<path d="" fill="#000000" transform="translate(0,0)"/>
<path d="M0 0 C3 1 3 1 3 1 Z " fill="#F6B439" transform="translate(1006,350)"/>
<path d="M0 0 C3 1 3 1 3 1 Z " fill="#F6B439" transform="translate(577,152)"/>
<path d="M0 0 C3 1 3 1 3 1 Z " fill="#1E509E" transform="translate(903,130)"/>
<path d="M0 0 C2 1 2 1 2 1 Z " fill="#000000" transform="translate(599,902)"/>
<path d="" fill="#F6B439" transform="translate(0,0)"/>
<path d="M0 0 C2 1 2 1 2 1 Z " fill="#000000" transform="translate(687,827)"/>
<path d="" fill="#F6B439" transform="translate(0,0)"/>
<path d="" fill="#F6B439" transform="translate(0,0)"/>
<path d="M0 0 C2 1 2 1 2 1 Z " fill="#F6B439" transform="translate(209,727)"/>
<path d="M0 0 C2 1 2 1 2 1 Z " fill="#F6B439" transform="translate(206,727)"/>
<path d="M0 0 C2 1 2 1 2 1 Z " fill="#F6B439" transform="translate(161,713)"/>
<path d="M0 0 C2 1 2 1 2 1 Z " fill="#000000" transform="translate(54,712)"/>
<path d="M0 0 C2 1 2 1 2 1 Z " fill="#F6B439" transform="translate(543,682)"/>
<path d="M0 0 C2 1 2 1 2 1 Z " fill="#F6B439" transform="translate(66,682)"/>
<path d="M0 0 C2 1 2 1 2 1 Z " fill="#F6B439" transform="translate(21,669)"/>
<path d="M0 0 C2 1 2 1 2 1 Z " fill="#F6B439" transform="translate(573,658)"/>
<path d="" fill="#F6B439" transform="translate(0,0)"/>
<path d="M0 0 C2 1 2 1 2 1 Z " fill="#F6B439" transform="translate(638,613)"/>
<path d="M0 0 C2 1 2 1 2 1 Z " fill="#F6B439" transform="translate(641,612)"/>
<path d="M0 0 C2 1 2 1 2 1 Z " fill="#F6B439" transform="translate(686,580)"/>
<path d="" fill="#F6B439" transform="translate(0,0)"/>
<path d="M0 0 C2 1 2 1 2 1 Z " fill="#F6B439" transform="translate(706,567)"/>
<path d="M0 0 C2 1 2 1 2 1 Z " fill="#F6B439" transform="translate(703,567)"/>
<path d="M0 0 C2 1 2 1 2 1 Z " fill="#F6B439" transform="translate(798,498)"/>
<path d="M0 0 C2 1 2 1 2 1 Z " fill="#1E509E" transform="translate(1100,475)"/>
<path d="M0 0 C2 1 2 1 2 1 Z " fill="#000000" transform="translate(832,473)"/>
<path d="M0 0 C2 1 2 1 2 1 Z " fill="#F6B439" transform="translate(908,420)"/>
<path d="M0 0 C2 1 2 1 2 1 Z " fill="#F6B439" transform="translate(926,408)"/>
<path d="M0 0 C2 1 2 1 2 1 Z " fill="#F6B439" transform="translate(961,382)"/>
<path d="M0 0 C2 1 2 1 2 1 Z " fill="#1E509E" transform="translate(1003,351)"/>
<path d="M0 0 C2 1 2 1 2 1 Z " fill="#F6B439" transform="translate(1026,337)"/>
<path d="" fill="#000000" transform="translate(0,0)"/>
<path d="" fill="#F6B439" transform="translate(0,0)"/>
<path d="" fill="#000000" transform="translate(0,0)"/>
<path d="" fill="#1E509E" transform="translate(0,0)"/>
<path d="M0 0 C2 1 2 1 2 1 Z " fill="#F6B439" transform="translate(716,140)"/>
<path d="M0 0 C2 1 2 1 2 1 Z " fill="#F6B439" transform="translate(859,132)"/>
<path d="M0 0 C2 1 2 1 2 1 Z " fill="#F6B439" transform="translate(896,130)"/>
<path d="M0 0 C2 1 2 1 2 1 Z " fill="#F6B439" transform="translate(1121,119)"/>
<path d="M0 0 C2 1 2 1 2 1 Z " fill="#F6B439" transform="translate(1064,119)"/>
<path d="M0 0 C2 1 2 1 2 1 Z " fill="#F6B439" transform="translate(1061,119)"/>
<path d="M0 0 C2 1 2 1 2 1 Z " fill="#F6B439" transform="translate(1058,119)"/>
<path d="M0 0 C2 1 2 1 2 1 Z " fill="#1E509E" transform="translate(307,94)"/>
<path d="M0 0 C2 1 2 1 2 1 Z " fill="#1E509E" transform="translate(366,42)"/>
<path d="M0 0 C2 1 2 1 2 1 Z " fill="#1E509E" transform="translate(363,42)"/>
<path d="" fill="#1E509E" transform="translate(0,0)"/>
<path d="" fill="#1E509E" transform="translate(0,0)"/>
<path d="" fill="#000000" transform="translate(0,0)"/>
<path d="" fill="#F6B439" transform="translate(0,0)"/>
<path d="" fill="#000000" transform="translate(0,0)"/>
<path d="" fill="#000000" transform="translate(0,0)"/>
<path d="" fill="#1E509E" transform="translate(0,0)"/>
<path d="" fill="#1E509E" transform="translate(0,0)"/>
<path d="" fill="#F6B439" transform="translate(0,0)"/>
<path d="" fill="#1E509E" transform="translate(0,0)"/>
<path d="" fill="#F6B439" transform="translate(0,0)"/>
<path d="" fill="#000000" transform="translate(0,0)"/>
<path d="" fill="#F6B439" transform="translate(0,0)"/>
<path d="" fill="#F6B439" transform="translate(0,0)"/>
<path d="" fill="#F6B439" transform="translate(0,0)"/>
<path d="" fill="#F6B439" transform="translate(0,0)"/>
<path d="" fill="#1E509E" transform="translate(0,0)"/>
<path d="" fill="#1E509E" transform="translate(0,0)"/>
<path d="" fill="#000000" transform="translate(0,0)"/>
<path d="" fill="#000000" transform="translate(0,0)"/>
<path d="" fill="#000000" transform="translate(0,0)"/>
<path d="" fill="#000000" transform="translate(0,0)"/>
<path d="" fill="#000000" transform="translate(0,0)"/>
<path d="" fill="#F6B439" transform="translate(0,0)"/>
<path d="" fill="#F6B439" transform="translate(0,0)"/>
<path d="" fill="#F6B439" transform="translate(0,0)"/>
<path d="" fill="#F6B439" transform="translate(0,0)"/>
<path d="" fill="#F6B439" transform="translate(0,0)"/>
<path d="" fill="#F6B439" transform="translate(0,0)"/>
<path d="" fill="#000000" transform="translate(0,0)"/>
<path d="" fill="#F6B439" transform="translate(0,0)"/>
<path d="" fill="#F6B439" transform="translate(0,0)"/>
<path d="" fill="#000000" transform="translate(0,0)"/>
<path d="" fill="#000000" transform="translate(0,0)"/>
<path d="" fill="#000000" transform="translate(0,0)"/>
<path d="" fill="#000000" transform="translate(0,0)"/>
<path d="" fill="#F6B439" transform="translate(0,0)"/>
<path d="" fill="#F6B439" transform="translate(0,0)"/>
<path d="" fill="#000000" transform="translate(0,0)"/>
<path d="" fill="#F6B439" transform="translate(0,0)"/>
<path d="" fill="#000000" transform="translate(0,0)"/>
<path d="" fill="#F6B439" transform="translate(0,0)"/>
<path d="" fill="#F6B439" transform="translate(0,0)"/>
<path d="" fill="#000000" transform="translate(0,0)"/>
<path d="" fill="#000000" transform="translate(0,0)"/>
<path d="" fill="#000000" transform="translate(0,0)"/>
<path d="" fill="#000000" transform="translate(0,0)"/>
<path d="" fill="#F6B439" transform="translate(0,0)"/>
<path d="" fill="#000000" transform="translate(0,0)"/>
<path d="" fill="#000000" transform="translate(0,0)"/>
<path d="" fill="#000000" transform="translate(0,0)"/>
<path d="" fill="#000000" transform="translate(0,0)"/>
<path d="" fill="#F6B439" transform="translate(0,0)"/>
<path d="" fill="#F6B439" transform="translate(0,0)"/>
<path d="" fill="#000000" transform="translate(0,0)"/>
<path d="" fill="#F6B439" transform="translate(0,0)"/>
<path d="" fill="#F6B439" transform="translate(0,0)"/>
<path d="" fill="#F6B439" transform="translate(0,0)"/>
<path d="" fill="#000000" transform="translate(0,0)"/>
<path d="" fill="#1E509E" transform="translate(0,0)"/>
<path d="" fill="#F6B439" transform="translate(0,0)"/>
<path d="" fill="#1E509E" transform="translate(0,0)"/>
<path d="" fill="#1E509E" transform="translate(0,0)"/>
<path d="" fill="#F6B439" transform="translate(0,0)"/>
<path d="" fill="#F6B439" transform="translate(0,0)"/>
<path d="" fill="#F6B439" transform="translate(0,0)"/>
<path d="" fill="#000000" transform="translate(0,0)"/>
<path d="" fill="#000000" transform="translate(0,0)"/>
<path d="" fill="#F6B439" transform="translate(0,0)"/>
<path d="" fill="#000000" transform="translate(0,0)"/>
<path d="" fill="#000000" transform="translate(0,0)"/>
<path d="" fill="#F6B439" transform="translate(0,0)"/>
<path d="" fill="#F6B439" transform="translate(0,0)"/>
<path d="" fill="#F6B439" transform="translate(0,0)"/>
<path d="" fill="#F6B439" transform="translate(0,0)"/>
<path d="" fill="#1E509E" transform="translate(0,0)"/>
<path d="" fill="#000000" transform="translate(0,0)"/>
<path d="" fill="#1E509E" transform="translate(0,0)"/>
<path d="" fill="#1E509E" transform="translate(0,0)"/>
<path d="" fill="#1E509E" transform="translate(0,0)"/>
<path d="" fill="#1E509E" transform="translate(0,0)"/>
<path d="" fill="#000000" transform="translate(0,0)"/>
<path d="" fill="#1E509E" transform="translate(0,0)"/>
<path d="" fill="#1E509E" transform="translate(0,0)"/>
</svg>
