<?xml version="1.0" encoding="utf-8"?>

<!--
 * Copyright (c) 2020, WSO2 Inc. (http://www.wso2.org) All Rights Reserved.
 *
 * WSO2 Inc. licenses this file to you under the Apache License,
 * Version 2.0 (the "License"); you may not use this file except
 * in compliance with the License.
 * You may obtain a copy of the License at
 *
 *     http://www.apache.org/licenses/LICENSE-2.0
 *
 * Unless required by applicable law or agreed to in writing,
 * software distributed under the License is distributed on an
 * "AS IS" BASIS, WITHOUT WARRANTIES OR CONDITIONS OF ANY
 * KIND, either express or implied. See the License for the
 * specific language governing permissions and limitations
 * under the License.
-->

<svg id="IWA" class="icon" xmlns="http://www.w3.org/2000/svg" width="100" height="100" viewBox="0 0 205.699 52">
  <g transform="translate(-1651 -443)">
    <path d="M17.6,0H5.926V-51.814H17.6ZM97.161-51.814,83.467,0H70.531l-8.6-33.242A27.718,27.718,0,0,1,61.1-39.06h-.145a35.344,35.344,0,0,1-.939,5.817L51.2,0H37.723L24.1-51.814H36.855l7.3,34.507a41.191,41.191,0,0,1,.687,5.926h.217a28.683,28.683,0,0,1,1.048-6.07L55.5-51.814H68l8.491,34.8a42.607,42.607,0,0,1,.831,5.564h.145a37.3,37.3,0,0,1,.759-5.781l7.154-34.579ZM146.7,0H133.98l-3.686-11.526H111.867L108.218,0H95.571l18.861-51.814h13.839ZM127.621-20.487,122.057-37.9a22.7,22.7,0,0,1-.867-4.661H120.9a19.763,19.763,0,0,1-.9,4.517L114.36-20.487Z"
          transform="translate(1710 495)" fill="#666"/>
    <g transform="translate(503 -238.5)">
      <rect width="25" height="25" transform="translate(1148 681.5)" fill="#f35325"/>
      <rect width="25" height="25" transform="translate(1148 708.5)" fill="#05a6f0"/>
      <rect width="26" height="25" transform="translate(1175 681.5)" fill="#81bc06"/>
      <rect width="26" height="25" transform="translate(1175 708.5)" fill="#ffba08"/>
    </g>
  </g>
</svg>
