<?xml version="1.0" encoding="utf-8"?>

<!--
 * Copyright (c) 2023-2024, WSO2 Inc. (http://www.wso2.org).
 *
 * WSO2 Inc. licenses this file to you under the Apache License,
 * Version 2.0 (the "License"); you may not use this file except
 * in compliance with the License.
 * You may obtain a copy of the License at
 *
 *     http://www.apache.org/licenses/LICENSE-2.0
 *
 * Unless required by applicable law or agreed to in writing,
 * software distributed under the License is distributed on an
 * "AS IS" BASIS, WITHOUT WARRANTIES OR CONDITIONS OF ANY
 * KIND, either express or implied. See the License for the
 * specific language governing permissions and limitations
 * under the License.
-->

<svg class="icon" width="16" height="16" viewBox="0 0 16 16" fill="none" xmlns="http://www.w3.org/2000/svg">
  <path fill-rule="evenodd" clip-rule="evenodd" d="M1.5 2C1.22386 2 1 2.22386 1 2.5V5H5V2H1.5ZM1 9.5V6H5V9.5H1ZM1 10.5V13.5C1 13.7761 1.22386 14 1.5 14H2.5C2.77614 14 3 14.2239 3 14.5C3 14.7761 2.77614 15 2.5 15H1.5C0.671573 15 0 14.3284 0 13.5V2.5C0 1.67157 0.671573 1 1.5 1H5.5H9.5C10.3284 1 11 1.67157 11 2.5V9C11 9.27614 10.7761 9.5 10.5 9.5C10.2239 9.5 10 9.27614 10 9V6H6V10C6 10.2761 5.77614 10.5 5.5 10.5H1ZM10 5H6V2H9.5C9.77614 2 10 2.22386 10 2.5V5ZM14.1272 11.3369C14.0821 10.8877 13.4179 10.8877 13.3728 11.3369L13.2426 12.6336L12.0386 12.0964C11.6215 11.9103 11.2895 12.4774 11.6615 12.7405L12.7353 13.5L11.6615 14.2595C11.2895 14.5226 11.6215 15.0897 12.0386 14.9036L13.2426 14.3664L13.3728 15.6631C13.4179 16.1123 14.0821 16.1123 14.1272 15.6631L14.2574 14.3664L15.4614 14.9036C15.8785 15.0897 16.2105 14.5226 15.8385 14.2595L14.7647 13.5L15.8385 12.7405C16.2105 12.4774 15.8785 11.9103 15.4614 12.0964L14.2574 12.6336L14.1272 11.3369ZM7.87282 11.3369C7.91792 10.8877 8.58208 10.8877 8.62718 11.3369L8.75736 12.6336L9.96137 12.0964C10.3785 11.9103 10.7105 12.4774 10.3385 12.7405L9.26472 13.5L10.3385 14.2595C10.7105 14.5226 10.3785 15.0897 9.96137 14.9036L8.75736 14.3664L8.62718 15.6631C8.58208 16.1123 7.91792 16.1123 7.87282 15.6631L7.74264 14.3664L6.53863 14.9036C6.12154 15.0897 5.78945 14.5226 6.16145 14.2595L7.23528 13.5L6.16145 12.7405C5.78945 12.4774 6.12154 11.9103 6.53863 12.0964L7.74264 12.6336L7.87282 11.3369Z" fill="black"/>
</svg>
