<!--
 * Copyright (c) 2021, WSO2 Inc. (http://www.wso2.org) All Rights Reserved.
 *
 * WSO2 Inc. licenses this file to you under the Apache License,
 * Version 2.0 (the "License"); you may not use this file except
 * in compliance with the License.
 * You may obtain a copy of the License at
 *
 *     http://www.apache.org/licenses/LICENSE-2.0
 *
 * Unless required by applicable law or agreed to in writing,
 * software distributed under the License is distributed on an
 * "AS IS" BASIS, WITHOUT WARRANTIES OR CONDITIONS OF ANY
 * KIND, either express or implied. See the License for the
 * specific language governing permissions and limitations
 * under the License.
-->

<svg id="cookies-icon" class="icon" width="14" height="14" viewBox="0 0 514.374 514.374" xmlns="http://www.w3.org/2000/svg">
    <g>
        <path class="path" d="m171.277 17.756c10.482-1.829 21.207-2.756 31.876-2.756 7.847 0 15.584.503 23.187 1.465l-6.036 14.563c-3.619 8.734-2.347 18.86 3.321 26.426 5.115 6.831 13.219 10.768 21.594 10.768 1.712 0 3.436-.165 5.146-.502l9.026-1.782c9.69-1.913 17.535-8.96 20.472-18.39l4.279-13.734c57.572 28.316 98.536 85.863 102.74 153.728.246 3.977 3.548 7.037 7.479 7.037.155 0 .312-.005.471-.015 4.134-.256 7.278-3.815 7.021-7.95-6.481-104.643-93.761-186.614-198.7-186.614-11.53 0-23.123 1.002-34.454 2.98-4.081.712-6.812 4.597-6.1 8.677s4.601 6.814 8.678 6.099zm94.265 25.33c-1.299 4.172-4.77 7.289-9.056 8.136l-9.026 1.782c-4.462.879-9.104-.902-11.829-4.542-2.508-3.347-3.071-7.827-1.47-11.691l7.348-17.73c9.917 2.114 19.547 5.03 28.821 8.678z"/>
        <path class="path" d="m97.583 349.933c-49.174-34.484-78.531-90.87-78.531-150.832 0-77.761 49.211-147.491 122.456-173.515 3.903-1.387 5.943-5.675 4.557-9.578-1.387-3.903-5.676-5.943-9.578-4.557-79.213 28.145-132.435 103.555-132.435 187.65 0 64.847 31.745 125.824 84.918 163.113 1.311.919 2.812 1.36 4.3 1.36 2.362 0 4.688-1.113 6.147-3.194 2.378-3.391 1.557-8.068-1.834-10.447z"/>
        <path class="path" d="m481.048 211.363c-2.72-4.433-7.447-7.113-12.647-7.17-5.266-.065-10.203 2.587-13.093 7.075-5.885 9.135-15.873 14.588-26.718 14.588-8.934 0-17.505-3.796-23.517-10.416-4.986-5.491-12.764-7.403-19.815-4.875-3.785 1.357-7.763 2.046-11.82 2.046-19.355 0-35.103-15.747-35.103-35.091l.003-2.071c.012-8.067-5.051-15.283-12.597-17.957-9.541-3.381-15.952-12.458-15.952-22.572l.006-3.241c.008-4.117-1.728-8.076-4.761-10.862-3.04-2.792-7.153-4.188-11.254-3.83-64.588 5.608-122.569 42.597-155.1 98.945-.105.183-.203.37-.293.561l-13.642 29.031c-.089.19-.171.384-.244.582-15.041 40.556-16.387 84.891-3.891 128.213 16.089 55.775 74.32 114.578 129.81 131.083 20.105 5.98 40.585 8.974 60.83 8.973 18.536 0 36.876-2.51 54.544-7.536 3.984-1.133 6.295-5.282 5.162-9.266-1.134-3.985-5.284-6.294-9.266-5.162-34.22 9.734-71.219 9.253-106.994-1.388-50.286-14.957-105.09-70.305-119.674-120.862-11.57-40.112-10.381-81.099 3.435-118.547l13.369-28.452c30.065-51.877 83.47-85.946 142.967-91.206l-.005 2.952c0 16.468 10.426 31.226 25.942 36.724 1.562.553 2.608 2.079 2.606 3.796l-.003 2.082c0 27.626 22.476 50.102 50.103 50.102 5.789 0 11.47-.985 16.884-2.927 1.342-.48 2.739-.16 3.647.84 8.85 9.743 21.469 15.331 34.621 15.331 15.967 0 30.669-8.024 39.328-21.465.165-.256.356-.195.345-.184 17.702 28.856 27.059 62.091 27.059 96.111 0 35.359-10.048 69.702-29.059 99.314-18.518 28.846-44.601 51.92-75.429 66.73-3.734 1.793-5.307 6.274-3.514 10.008 1.795 3.735 6.275 5.306 10.009 3.513 33.335-16.013 61.537-40.961 81.557-72.147 20.565-32.035 31.436-69.179 31.436-107.417.002-36.791-10.12-72.738-29.272-103.956z"/>
        <path class="path" d="m132.273 119.812c3.69 3.69 8.596 5.722 13.812 5.722 10.771 0 19.534-8.763 19.534-19.534v-26.456c0-10.771-8.763-19.533-19.534-19.533h-14.755c-10.771 0-19.534 8.763-19.534 19.533v11.7c0 5.217 2.032 10.123 5.722 13.812zm-5.477-40.268c0-2.5 2.034-4.533 4.534-4.533h14.755c2.5 0 4.534 2.034 4.534 4.533v26.456c0 2.5-2.034 4.534-4.534 4.534-1.211 0-2.349-.472-3.205-1.328l-14.755-14.755c-.857-.857-1.329-1.996-1.329-3.206z"/>
        <path class="path" d="m92.299 199.057c6.321-6.195 7.868-15.656 3.851-23.542l-2.169-4.257c-4.287-8.417-13.68-12.694-22.845-10.403l-6.848 1.712c-6.092 1.523-11.197 5.882-13.656 11.66l-1.827 4.294c-3.586 8.428-1.031 18.228 6.214 23.832l5.062 3.916c3.627 2.806 7.977 4.188 12.313 4.188 5.132 0 10.246-1.936 14.122-5.734zm-10.499-10.713-5.781 5.666c-1.828 1.791-4.733 1.962-6.76.395l-5.062-3.917c-1.853-1.433-2.506-3.938-1.589-6.093l1.827-4.294c.629-1.477 1.934-2.592 3.492-2.981l6.848-1.712c.423-.105.847-.156 1.266-.156 1.9 0 3.677 1.053 4.575 2.816l2.169 4.257c1.027 2.016.631 4.435-.985 6.019z"/>
        <path class="path" d="m226.195 285.933c-2.69 6.346-2.375 13.474.864 19.558s8.978 10.325 15.744 11.635l14.477 2.804c1.424.276 2.863.411 4.297.411 4.779 0 9.5-1.507 13.408-4.353 5.081-3.7 8.43-9.401 9.186-15.64l1.442-11.892c1.215-10.02-4.431-19.758-13.729-23.682l-10.233-4.319c-11.53-4.866-24.885.55-29.771 12.071zm13.81 5.855 5.685-13.407c1.247-2.943 4.119-4.714 7.133-4.714 1.001 0 2.018.195 2.995.608l10.233 4.319c3.163 1.334 5.084 4.647 4.671 8.056l-1.442 11.892c-.262 2.154-1.371 4.043-3.125 5.321-1.753 1.277-3.896 1.755-6.023 1.341l-14.477-2.804c-2.302-.446-4.254-1.888-5.355-3.958-1.103-2.07-1.21-4.495-.295-6.654z"/>
        <path class="path" d="m395.671 407.602 12.662-15.051c7.56-8.987 7.125-22.15-1.011-30.618l-10.824-11.266c-4.299-4.475-10.083-6.974-16.288-7.036-6.172-.091-12.04 2.32-16.428 6.708l-12.521 12.519c-8.134 8.134-8.957 21.126-1.915 30.222l10.681 13.797c4.26 5.502 10.693 8.738 17.649 8.879.158.003.316.005.474.005 6.781.001 13.144-2.956 17.521-8.159zm-17.689-6.842c-2.402-.049-4.623-1.166-6.093-3.065l-10.681-13.797c-2.432-3.14-2.147-7.625.66-10.433l12.521-12.519c1.495-1.496 3.478-2.316 5.589-2.316h.082c2.142.021 4.138.884 5.622 2.428l10.824 11.265c2.809 2.923 2.958 7.468.349 10.569l-12.662 15.051c-1.546 1.84-3.859 2.863-6.211 2.817z"/>
        <path class="path" d="m372.829 310.49c5.977 0 11.294-3.11 14.224-8.319 2.929-5.209 2.825-11.368-.279-16.475l-8.315-13.68c-3.709-6.102-10.862-9.066-17.801-7.38l-9.601 2.335c-8.203 1.996-13.49 9.804-12.297 18.163l1.621 11.347c1.143 7.987 8.087 14.009 16.154 14.009zm-17.599-16.131-1.621-11.346c-.097-.675.331-1.306.993-1.467l9.6-2.335h.001c.104-.026.21-.038.314-.038.451 0 .879.233 1.122.634l8.315 13.681c.266.437.273.885.023 1.331-.251.446-.638.672-1.149.672h-16.294c-.651-.001-1.212-.488-1.304-1.132z"/>
        <path class="path" d="m462.234 327.042c1.721-4.594 1.539-9.578-.511-14.034l-5.433-11.809c-2.081-4.526-5.979-8.043-10.694-9.651-4.716-1.607-9.951-1.205-14.364 1.108l-7.131 3.735c-4.367 2.288-7.562 6.145-8.997 10.861-1.434 4.716-.927 9.699 1.427 14.03l5.994 11.03c3.278 6.033 9.588 9.525 16.105 9.525 2.498 0 5.028-.513 7.428-1.593l6.571-2.957c4.473-2.014 7.884-5.652 9.605-10.245zm-14.047-5.262c-.178.475-.637 1.344-1.713 1.828l-6.571 2.957c-1.546.695-3.39.073-4.198-1.415l-5.994-11.031c-.567-1.043-.403-2.016-.255-2.503s.554-1.387 1.605-1.938l7.132-3.736c1.076-.564 2.068-.366 2.562-.197.494.168 1.399.616 1.908 1.722l5.433 11.809c.493 1.073.269 2.029.091 2.504z"/>
        <path class="path" d="m244.91 418.475 10.68 4.665c3.112 1.36 6.366 2.006 9.573 2.006 8.774 0 17.199-4.834 21.408-13.117l5.105-10.046c2.954-5.815 3.424-12.417 1.322-18.592-2.102-6.174-6.501-11.119-12.389-13.923l-10.494-4.999c-11.82-5.631-25.736-.903-31.68 10.76l-5.291 10.38c-2.988 5.862-3.431 12.778-1.213 18.973 2.219 6.194 6.949 11.258 12.979 13.893zm1.598-26.055 5.292-10.38c1.591-3.123 4.707-4.917 7.972-4.917 1.303 0 2.63.286 3.893.887l10.494 4.999c2.205 1.05 3.854 2.902 4.64 5.215.788 2.312.611 4.786-.495 6.963l-5.105 10.046c-2.152 4.236-7.251 6.063-11.603 4.162l-10.68-4.666c-2.292-1.001-4.018-2.849-4.86-5.204s-.682-4.877.452-7.105z"/>
        <path class="path" d="m249.796 220.599h10.427c8.156 0 15.107-5.557 16.903-13.512l4.353-19.274c1.422-6.295-.744-12.809-5.653-16.999-4.908-4.189-11.683-5.306-17.677-2.913l-14.778 5.901c-6.624 2.645-10.903 8.962-10.903 16.094v13.374c-.001 9.555 7.773 17.329 17.328 17.329zm-2.329-30.703c0-.959.575-1.808 1.466-2.164l14.778-5.901c.323-.129.622-.181.894-.181.685 0 1.197.328 1.482.572.4.341 1.03 1.091.761 2.285l-4.353 19.275c-.242 1.069-1.176 1.816-2.272 1.816h-10.427c-1.284 0-2.329-1.045-2.329-2.329z"/>
        <path class="path" d="m217.687 87.911h-7.778c-4.143 0-7.5 3.358-7.5 7.5s3.357 7.5 7.5 7.5h7.778c4.143 0 7.5-3.358 7.5-7.5s-3.357-7.5-7.5-7.5z"/>
        <path class="path" d="m294.273 75.346c-4.143 0-7.5 3.358-7.5 7.5s3.357 7.5 7.5 7.5h9.573c4.143 0 7.5-3.358 7.5-7.5s-3.357-7.5-7.5-7.5z"/>
        <path class="path" d="m119.621 158.555h11.908c4.143 0 7.5-3.358 7.5-7.5s-3.357-7.5-7.5-7.5h-11.908c-4.143 0-7.5 3.358-7.5 7.5s3.357 7.5 7.5 7.5z"/>
        <path class="path" d="m65.712 244.073c-4.143 0-7.5 3.358-7.5 7.5s3.357 7.5 7.5 7.5h7.059c4.143 0 7.5-3.358 7.5-7.5s-3.357-7.5-7.5-7.5z"/>
        <path class="path" d="m80.67 128.04c4.143 0 7.5-3.358 7.5-7.5s-3.357-7.5-7.5-7.5h-7.899c-4.143 0-7.5 3.358-7.5 7.5s3.357 7.5 7.5 7.5z"/>
        <path class="path" d="m206.041 244.393c0-4.142-3.357-7.5-7.5-7.5h-8.975c-4.143 0-7.5 3.358-7.5 7.5s3.357 7.5 7.5 7.5h8.975c4.142 0 7.5-3.358 7.5-7.5z"/>
        <path class="path" d="m198.541 358.63h7.778c4.143 0 7.5-3.358 7.5-7.5s-3.357-7.5-7.5-7.5h-7.778c-4.143 0-7.5 3.358-7.5 7.5s3.357 7.5 7.5 7.5z"/>
        <path class="path" d="m311.221 346.429c4.143 0 7.5-3.358 7.5-7.5s-3.357-7.5-7.5-7.5h-12.162c-4.143 0-7.5 3.358-7.5 7.5s3.357 7.5 7.5 7.5z"/>
        <path class="path" d="m308.034 463.102h7.181c4.143 0 7.5-3.358 7.5-7.5s-3.357-7.5-7.5-7.5h-7.181c-4.143 0-7.5 3.358-7.5 7.5s3.357 7.5 7.5 7.5z"/>
        <path class="path" d="m446.247 367.328h-7.393c-4.143 0-7.5 3.358-7.5 7.5s3.357 7.5 7.5 7.5h7.393c4.143 0 7.5-3.358 7.5-7.5s-3.358-7.5-7.5-7.5z"/>
    </g>
</svg>
