<!--
 * Copyright (c) 2021, WSO2 Inc. (http://www.wso2.org) All Rights Reserved.
 *
 * WSO2 Inc. licenses this file to you under the Apache License,
 * Version 2.0 (the "License"); you may not use this file except
 * in compliance with the License.
 * You may obtain a copy of the License at
 *
 *     http://www.apache.org/licenses/LICENSE-2.0
 *
 * Unless required by applicable law or agreed to in writing,
 * software distributed under the License is distributed on an
 * "AS IS" BASIS, WITHOUT WARRANTIES OR CONDITIONS OF ANY
 * KIND, either express or implied. See the License for the
 * specific language governing permissions and limitations
 * under the License.
-->

<svg version="1.1" class="icon" id="copy-icon" xmlns="http://www.w3.org/2000/svg"
     xmlns:xlink="http://www.w3.org/1999/xlink" x="0px" y="0px"
     height="14" width="14" viewBox="0 0 477.867 477.867" style="enable-background:new 0 0 477.867 477.867;"
     xml:space="preserve">
	<g>
		<g>
			<path d="M341.333,85.333H51.2c-28.277,0-51.2,22.923-51.2,51.2v290.133c0,28.277,22.923,51.2,51.2,51.2h290.133
				c28.277,0,51.2-22.923,51.2-51.2V136.533C392.533,108.256,369.61,85.333,341.333,85.333z M358.4,426.667
				c0,9.426-7.641,17.067-17.067,17.067H51.2c-9.426,0-17.067-7.641-17.067-17.067V136.533c0-9.426,7.641-17.067,17.067-17.067
				h290.133c9.426,0,17.067,7.641,17.067,17.067V426.667z"/>
		</g>
	</g>
		<g>
		<g>
			<path d="M426.667,0h-307.2c-28.277,0-51.2,22.923-51.2,51.2c0,9.426,7.641,17.067,17.067,17.067S102.4,60.626,102.4,51.2
				s7.641-17.067,17.067-17.067h307.2c9.426,0,17.067,7.641,17.067,17.067v307.2c0,9.426-7.641,17.067-17.067,17.067
				s-17.067,7.641-17.067,17.067s7.641,17.067,17.067,17.067c28.277,0,51.2-22.923,51.2-51.2V51.2
				C477.867,22.923,454.944,0,426.667,0z"/>
		</g>
	</g>
</svg>
