<?xml version="1.0" encoding="utf-8"?>

<!--
 * Copyright (c) 2019, WSO2 Inc. (http://www.wso2.org) All Rights Reserved.
 *
 * WSO2 Inc. licenses this file to you under the Apache License,
 * Version 2.0 (the "License"); you may not use this file except
 * in compliance with the License.
 * You may obtain a copy of the License at
 *
 * http://www.apache.org/licenses/LICENSE-2.0
 *
 * Unless required by applicable law or agreed to in writing,
 * software distributed under the License is distributed on an
 * "AS IS" BASIS, WITHOUT WARRANTIES OR CONDITIONS OF ANY
 * KIND, either express or implied. See the License for the
 * specific language governing permissions and limitations
 * under the License.
-->

<svg version="1.1" id="status-shield-good" class="icon status-shield good" xmlns="http://www.w3.org/2000/svg"
     xmlns:xlink="http://www.w3.org/1999/xlink" style="width: 162.7px; height: 200px;"
     viewBox="0 0 162.7 200">
    <defs>
        <linearGradient id="linear-gradient" x2="0.855" y2="1.094" gradientUnits="objectBoundingBox">
            <stop offset="0" stop-color="#f3f3f3"/>
            <stop offset="1" stop-color="#ccc"/>
        </linearGradient>
        <linearGradient id="linear-gradient-2" x1="0.5" x2="1.138" y2="0.263" gradientUnits="objectBoundingBox">
            <stop offset="0" stop-color="#e7e7e7"/>
            <stop offset="1" stop-color="#ccc"/>
        </linearGradient>
        <linearGradient id="linear-gradient-3" x1="1.374" y1="1.423" x2="-0.036" y2="0.147"
                        gradientUnits="objectBoundingBox">
            <stop offset="0" stop-color="#fff"/>
            <stop offset="1" stop-color="#ccc"/>
        </linearGradient>
        <linearGradient id="linear-gradient-4" x2="0.818" y2="0.898" gradientUnits="objectBoundingBox">
            <stop offset="0" stop-color="#94e077"/>
            <stop offset="1" stop-color="#52ac2f"/>
            <stop offset="1" stop-color="#3aaa96"/>
        </linearGradient>
        <linearGradient id="linear-gradient-5" x1="0.133" y1="0.041" x2="1.033" y2="1.441"
                        xlink:href="#linear-gradient-3"/>
        <linearGradient id="linear-gradient-6" x1="0.579" y1="1.157" x2="0" y2="0" xlink:href="#linear-gradient-3"/>
    </defs>
    <g id="good" transform="translate(0.1)">
        <path id="Path_2242" data-name="Path 2242"
              d="M162.6,31.3C162.7,31.3,83.3.8,81.3,0,79.8.6-.2,31.3-.1,31.3V88.8c0,39.8,11.4,91.9,81.3,111.2,69.7-19.4,81.1-72.4,81.1-111.2C162.6,69.1,162.6,31.3,162.6,31.3Z"
              fill="url(#linear-gradient)"/>
        <path id="Path_2243" data-name="Path 2243"
              d="M0,88.8C0,128.6,11.4,180.7,81.3,200V0C78.3,1.1,0,31.3,0,31.3S-.1,88.8,0,88.8Z" opacity="0.1"
              fill="url(#linear-gradient-2)"/>
        <path id="Path_2244" data-name="Path 2244"
              d="M146.8,42c.2,0-63.9-25.8-65.6-26.4-1.4.5-65.8,25.3-65.6,25.2V89c0,33.4,6.5,79.1,65.6,95.3,58.9-16.3,65.6-62.6,65.6-95.3C146.9,72.5,146.9,42,146.8,42Z"
              fill="url(#linear-gradient-3)"/>
        <path id="Path_2258" data-name="Path 2258"
              d="M129.084,38.435c.173,0-55.272-22.316-56.742-22.835-1.211.432-56.915,21.884-56.742,21.8V79.089c0,28.89,5.622,68.42,56.742,82.432,50.947-14.1,56.742-54.147,56.742-82.432C129.17,64.817,129.17,38.435,129.084,38.435Z"
              transform="translate(8.863 11.396)" fill="url(#linear-gradient-4)"/>
        <path id="Path_2259" data-name="Path 2259"
              d="M112.2,65.6a7.05,7.05,0,0,0-9.8,2.7L75.3,117,60.2,98.6c-2.7-3.1-6.4-4.8-9.8-2.7s-4.8,7-2.6,10.2l21,25.5a9.029,9.029,0,0,0,5.2,3.6h.2c.4.1,6.8,1.2,9.5-3.6l31-55.8A7.519,7.519,0,0,0,112.2,65.6Z"
              transform="translate(-0.1)" fill="url(#linear-gradient-5)"/>
        <path id="Path_2264" data-name="Path 2264"
              d="M112.2,65.6c-.1-.061-.581-.309-.581-.309l-34.58,61.242s-.308.451-.675.448-.795-.462-.795-.462L50.148,96.078h0A7.261,7.261,0,0,0,47.8,106.1l21,25.5a9.029,9.029,0,0,0,5.2,3.6h.2c.4.1,6.8,1.2,9.5-3.6l31-55.8A7.519,7.519,0,0,0,112.2,65.6Z"
              transform="translate(-0.1)" fill="url(#linear-gradient-6)"/>
    </g>
</svg>
