<?xml version="1.0" encoding="utf-8"?>

<!--
 * Copyright (c) 2020, WSO2 Inc. (http://www.wso2.org) All Rights Reserved.
 *
 * WSO2 Inc. licenses this file to you under the Apache License,
 * Version 2.0 (the "License"); you may not use this file except
 * in compliance with the License.
 * You may obtain a copy of the License at
 *
 *     http://www.apache.org/licenses/LICENSE-2.0
 *
 * Unless required by applicable law or agreed to in writing,
 * software distributed under the License is distributed on an
 * "AS IS" BASIS, WITHOUT WARRANTIES OR CONDITIONS OF ANY
 * KIND, either express or implied. See the License for the
 * specific language governing permissions and limitations
 * under the License.
-->

<svg id="office365-idp-illustration" class="icon" xmlns="http://www.w3.org/2000/svg" xmlns:xlink="http://www.w3.org/1999/xlink"
     width="100"
     height="100"
     viewBox="0 0 206.384 218.448">
    <g transform="translate(-1221.145 -38.201)">
        <path class="path fill primary" d="M165.587,136.08a38.571,38.571,0,0,0-22.877-23.645,14.006,14.006,0,0,1-9.034-12.915q0-.182,0-.377A38.651,38.651,0,0,0,63.922,77.1,31.541,31.541,0,0,1,38.68,90.187q-.441,0-.884.009A39.38,39.38,0,0,0,0,128.317a38.662,38.662,0,0,0,74.967,13.805,7.911,7.911,0,0,1,9.59-4.837l.15.042a7.891,7.891,0,0,1,5.747,8.226,38.66,38.66,0,1,0,75.127-9.48Z"
              transform="translate(1176.255 118.957) rotate(-47)" fill="#ff5000" opacity="0.1" />
        <path class="path fill primary" d="M426.315,170.61a1.484,1.484,0,0,1-1.484-1.484,1.78,1.78,0,0,0-1.778-1.778,1.484,1.484,0,1,1,0-2.969,1.78,1.78,0,0,0,1.778-1.778,1.484,1.484,0,1,1,2.969,0,1.781,1.781,0,0,0,1.778,1.778,1.484,1.484,0,0,1,0,2.969,1.781,1.781,0,0,0-1.778,1.778,1.484,1.484,0,0,1-1.484,1.484Z"
              transform="matrix(-0.035, -0.999, 0.999, -0.035, 1214.96, 662.194)" fill="#ffe783" opacity="0.3"/>
        <path class="path fill primary" d="M70.611,423.485a1.485,1.485,0,0,1-1.047-.434L66.311,419.8a1.484,1.484,0,0,1,0-2.095l3.252-3.252a1.484,1.484,0,0,1,2.095,0L74.91,417.7a1.484,1.484,0,0,1,0,2.095l-3.252,3.259A1.485,1.485,0,0,1,70.611,423.485Zm-1.154-4.735,1.154,1.154,1.154-1.154L70.611,417.6Z"
              transform="matrix(-0.035, -0.999, 0.999, -0.035, 842.773, 254.805)" fill="#ffa052" opacity="0.3"/>
        <path class="path fill primary" d="M396.921,114.711a1.475,1.475,0,0,1-1.047-.434l-3.252-3.252a1.484,1.484,0,0,1,0-2.095l3.252-3.252a1.484,1.484,0,0,1,2.095,0l3.252,3.252a1.484,1.484,0,0,1,0,2.095l-3.252,3.252a1.484,1.484,0,0,1-1.047.434Zm-1.155-4.733,1.155,1.154,1.154-1.154-1.154-1.154Z"
              transform="matrix(-0.035, -0.999, 0.999, -0.035, 1238.545, 636.151)" fill="#ffa052" opacity="0.3"/>
        <path class="path fill primary" d="M142.881,49.889a1.484,1.484,0,0,1-1.047-.434L138.581,46.2a1.484,1.484,0,0,1,0-2.095l3.252-3.252a1.484,1.484,0,0,1,2.095,0l3.252,3.252a1.484,1.484,0,0,1,0,2.095l-3.252,3.252a1.475,1.475,0,0,1-1.047.434Zm-1.154-4.735,1.154,1.154,1.154-1.154L142.881,44Z"
              transform="matrix(-0.035, -0.999, 0.999, -0.035, 1311.897, 225.884)" fill="#ffa052" opacity="0.3"/>
        <path class="path fill primary" d="M149.328,10.97,111.3.106a2.717,2.717,0,0,0-1.793.1L44.319,27.371a2.716,2.716,0,0,0-1.668,2.5V100.5a2.716,2.716,0,0,0,2.689,2.716,2.716,2.716,0,0,0-.831,5.3L109.7,130.24a2.8,2.8,0,0,0,.858.136,2.719,2.719,0,0,0,.744-.109L149.328,119.4a2.716,2.716,0,0,0,1.972-2.608V13.578A2.717,2.717,0,0,0,149.328,10.97ZM46.584,102.926l16.3-8.149a2.716,2.716,0,0,0,1.5-2.428V34.716l48.892-12.223v91.135L45.78,103.246a2.359,2.359,0,0,0-.386-.033A2.751,2.751,0,0,0,46.584,102.926Z"
              transform="translate(1227.359 86)" fill="#ff5000" opacity="0.2"/>
        <path d="M4266.966-1960.017v-73.6l63.76-26.086,37.287,9.844v99.216l-35.563,11.438-65.483-19.688Z"
              transform="translate(-2988 2158)" fill="#f5f4f9"/>
        <path class="path fill primary" d="M149.328,10.97,111.3.106a2.717,2.717,0,0,0-1.793.1L44.319,27.371a2.716,2.716,0,0,0-1.668,2.5V100.5a2.716,2.716,0,0,0,2.689,2.716,2.716,2.716,0,0,0-.831,5.3L109.7,130.24a2.8,2.8,0,0,0,.858.136,2.719,2.719,0,0,0,.744-.109L149.328,119.4a2.716,2.716,0,0,0,1.972-2.608V13.578A2.717,2.717,0,0,0,149.328,10.97ZM46.584,102.926l16.3-8.149a2.716,2.716,0,0,0,1.5-2.428V34.716l48.892-12.223v91.135L45.78,103.246a2.359,2.359,0,0,0-.386-.033A2.751,2.751,0,0,0,46.584,102.926Z"
              transform="translate(1233.359 93)" fill="#ffa052" opacity="0.9"/>
        <path class="path fill stroke primary" d="M4285.782-2030.342l49-12.321v91.59l-67.724-10.232,17.75-8.853s1.1.151.969-5.407S4285.782-2030.342,4285.782-2030.342Z"
              transform="translate(-2988 2158)" fill="#f5f4f9" stroke="#ffd5b8" stroke-width="2" style="fill-opacity: 0.1;"/>
        <path class="path fill stroke primary" d="M4266.148-2037.8c2.3-.882,63.888-26.548,63.888-26.548a8.042,8.042,0,0,1,4.917,0c2.67.86,34.467,10.046,34.467,10.046s3.093.6,3.183,2.8-.136,102.646-.136,102.646-.265,2.881-2.587,3.575-36.676,10.431-36.676,10.431-.724.438-6.154-1.29-61.271-20.559-61.271-20.559-2.119-.9-1.727-2.5,2.369-2.587,2.587-2.715-2.375-.468-2.587-1.508,0-71.339,0-71.339A3.065,3.065,0,0,1,4266.148-2037.8Z"
              transform="translate(-2988 2158)" fill="#f5f4f9" stroke="#ff5000" stroke-width="2.5" style="fill-opacity: 0.1;"/>
        <path class="path fill stroke primary" d="M4366.659-2041.777v52.721" transform="translate(-2990 2167)" fill="#f5f4f9" stroke="#fdd250"
              stroke-linecap="round" stroke-width="3" style="fill-opacity: 0.1;"/>
    </g>
</svg>
