<!--
 * Copyright (c) 2025, WSO2 LLC. (https://www.wso2.com).
 *
 * WSO2 LLC. licenses this file to you under the Apache License,
 * Version 2.0 (the "License"); you may not use this file except
 * in compliance with the License.
 * You may obtain a copy of the License at
 *
 *     http://www.apache.org/licenses/LICENSE-2.0
 *
 * Unless required by applicable law or agreed to in writing,
 * software distributed under the License is distributed on an
 * "AS IS" BASIS, WITHOUT WARRANTIES OR CONDITIONS OF ANY
 * KIND, either express or implied. See the License for the
 * specific language governing permissions and limitations
 * under the License.
-->

<svg width="16" height="16" viewBox="0 0 16 16" fill="none" xmlns="http://www.w3.org/2000/svg">
<path d="M11.8718 11.8718C12.1496 11.8718 12.3857 11.7746 12.5802 11.5802C12.7746 11.3857 12.8718 11.1496 12.8718 10.8718C12.8718 10.594 12.7746 10.3579 12.5802 10.1635C12.3857 9.96905 12.1496 9.87183 11.8718 9.87183C11.5941 9.87183 11.358 9.96905 11.1635 10.1635C10.9691 10.3579 10.8718 10.594 10.8718 10.8718C10.8718 11.1496 10.9691 11.3857 11.1635 11.5802C11.358 11.7746 11.5941 11.8718 11.8718 11.8718ZM11.8718 13.8718C12.2274 13.8718 12.5552 13.7829 12.8552 13.6052C13.1552 13.4274 13.3941 13.194 13.5718 12.9052C13.3163 12.7607 13.0468 12.6524 12.7635 12.5802C12.4802 12.5079 12.183 12.4718 11.8718 12.4718C11.5607 12.4718 11.2635 12.5107 10.9802 12.5885C10.6968 12.6663 10.4274 12.7718 10.1718 12.9052C10.3496 13.194 10.5885 13.4274 10.8885 13.6052C11.1885 13.7829 11.5163 13.8718 11.8718 13.8718ZM6.00001 5.93333H10V4.33333C10 3.77777 9.80556 3.30555 9.41667 2.91666C9.02779 2.52777 8.55556 2.33333 8.00001 2.33333C7.44445 2.33333 6.97223 2.52777 6.58334 2.91666C6.19445 3.30555 6.00001 3.77777 6.00001 4.33333V5.93333ZM8.45767 14.0667H4.60517C4.30506 14.0667 4.0514 13.963 3.84417 13.7558C3.63695 13.5486 3.53334 13.2949 3.53334 12.9948V7.00516C3.53334 6.70505 3.63695 6.45138 3.84417 6.24416C4.0514 6.03694 4.30506 5.93333 4.60517 5.93333H5.13334V4.33333C5.13334 3.53777 5.41262 2.8611 5.97117 2.30333C6.52962 1.74555 7.20717 1.46666 8.00384 1.46666C8.8004 1.46666 9.47667 1.74555 10.0327 2.30333C10.5887 2.8611 10.8667 3.53777 10.8667 4.33333V5.93333H11.3948C11.695 5.93333 11.9486 6.03694 12.1558 6.24416C12.3631 6.45138 12.4667 6.70505 12.4667 7.00516V7.84999C12.3328 7.83377 12.1888 7.8216 12.0348 7.81349C11.8808 7.80538 11.7359 7.81244 11.6 7.83466V7.00516C11.6 6.94527 11.5808 6.8961 11.5423 6.85766C11.5039 6.81922 11.4547 6.79999 11.3948 6.79999H4.60517C4.54528 6.79999 4.49612 6.81922 4.45767 6.85766C4.41923 6.8961 4.40001 6.94527 4.40001 7.00516V12.9948C4.40001 13.0547 4.41923 13.1039 4.45767 13.1423C4.49612 13.1808 4.54528 13.2 4.60517 13.2H8.04867C8.08979 13.3539 8.14623 13.5084 8.21801 13.6635C8.28978 13.8186 8.36967 13.953 8.45767 14.0667ZM11.868 14.7385C11.0713 14.7385 10.3951 14.4592 9.83917 13.9007C9.28317 13.3422 9.00517 12.6647 9.00517 11.868C9.00517 11.0713 9.2844 10.395 9.84284 9.83916C10.4014 9.28316 11.079 9.00516 11.8755 9.00516C12.6722 9.00516 13.3485 9.28438 13.9045 9.84283C14.4605 10.4014 14.7385 11.0789 14.7385 11.8755C14.7385 12.6722 14.4592 13.3485 13.9007 13.9045C13.3422 14.4605 12.6647 14.7385 11.868 14.7385ZM4.40001 8.72316V13.2V6.79999V8.72316Z" fill="black"/>
</svg>
