<!--
 * Copyright (c) 2020-2024, WSO2 LLC. (https://www.wso2.com).
 *
 * WSO2 LLC. licenses this file to you under the Apache License,
 * Version 2.0 (the "License"); you may not use this file except
 * in compliance with the License.
 * You may obtain a copy of the License at
 *
 *     http://www.apache.org/licenses/LICENSE-2.0
 *
 * Unless required by applicable law or agreed to in writing,
 * software distributed under the License is distributed on an
 * "AS IS" BASIS, WITHOUT WARRANTIES OR CONDITIONS OF ANY
 * KIND, either express or implied. See the License for the
 * specific language governing permissions and limitations
 * under the License.
-->

<svg class="icon" id="exper-mode-idp-icon" width="16" height="16" viewBox="0 0 16 16" fill="none" xmlns="http://www.w3.org/2000/svg">
    <path fill-rule="evenodd" clip-rule="evenodd" d="M15.8536 0.853553C16.0488 0.658291 16.0488 0.341709 15.8536 0.146447C15.6583 -0.0488155 15.3417 -0.0488156 15.1464 0.146447L13.1464 2.14645C12.9512 2.34171 12.9512 2.65829 13.1464 2.85355C13.3417 3.04882 13.6583 3.04882 13.8536 2.85355L15.8536 0.853553ZM0.146447 0.146447C0.341709 -0.0488155 0.658291 -0.0488155 0.853553 0.146447L2.85355 2.14645C3.04882 2.34171 3.04882 2.65829 2.85355 2.85355C2.65829 3.04882 2.34171 3.04882 2.14645 2.85355L0.146447 0.853553C-0.0488155 0.658291 -0.0488155 0.341709 0.146447 0.146447ZM8 2.5C4.96243 2.5 2.5 4.96243 2.5 8C2.5 11.0376 4.96243 13.5 8 13.5C11.0376 13.5 13.5 11.0376 13.5 8C13.5 4.96243 11.0376 2.5 8 2.5ZM1.5 8C1.5 4.41015 4.41015 1.5 8 1.5C11.5899 1.5 14.5 4.41015 14.5 8C14.5 11.5899 11.5899 14.5 8 14.5C4.41015 14.5 1.5 11.5899 1.5 8ZM8 5.5C8.27614 5.5 8.5 5.72386 8.5 6V7.5H10C10.2761 7.5 10.5 7.72386 10.5 8C10.5 8.27614 10.2761 8.5 10 8.5H8.5V10C8.5 10.2761 8.27614 10.5 8 10.5C7.72386 10.5 7.5 10.2761 7.5 10V8.5H6C5.72386 8.5 5.5 8.27614 5.5 8C5.5 7.72386 5.72386 7.5 6 7.5H7.5V6C7.5 5.72386 7.72386 5.5 8 5.5ZM15.8536 15.8536C15.6583 16.0488 15.3417 16.0488 15.1464 15.8536L13.1464 13.8536C12.9512 13.6583 12.9512 13.3417 13.1464 13.1464C13.3417 12.9512 13.6583 12.9512 13.8536 13.1464L15.8536 15.1464C16.0488 15.3417 16.0488 15.6583 15.8536 15.8536ZM0.146447 15.1464C-0.0488155 15.3417 -0.0488156 15.6583 0.146447 15.8536C0.341709 16.0488 0.658291 16.0488 0.853553 15.8536L2.85355 13.8536C3.04882 13.6583 3.04882 13.3417 2.85355 13.1464C2.65829 12.9512 2.34171 12.9512 2.14645 13.1464L0.146447 15.1464Z" fill="black"/>
</svg>
