<!--
 * Copyright (c) 2023-2024, WSO2 LLC. (https://www.wso2.com).
 *
 * WSO2 LLC. licenses this file to you under the Apache License,
 * Version 2.0 (the "License"); you may not use this file except
 * in compliance with the License.
 * You may obtain a copy of the License at
 *
 *     http://www.apache.org/licenses/LICENSE-2.0
 *
 * Unless required by applicable law or agreed to in writing,
 * software distributed under the License is distributed on an
 * "AS IS" BASIS, WITHOUT WARRANTIES OR CONDITIONS OF ANY
 * KIND, either express or implied. See the License for the
 * specific language governing permissions and limitations
 * under the License.
-->

<svg width="14" height="14" viewBox="0 0 14 14" fill="none" xmlns="http://www.w3.org/2000/svg">
    <path d="M6.5 2.5L7.5 2V6.5H12V7.5H7.5V12L6.5 11.5V2.5Z" fill="url(#paint0_linear_1127_2477)"/>
    <path fill-rule="evenodd" clip-rule="evenodd" d="M14 7C14 10.866 10.866 14 7 14C3.13403 14 0 10.866 0 7C0 3.13401 3.13403 0 7 0C10.866 0 14 3.13401 14 7ZM13 7C13 10.3137 10.3137 13 7 13C3.68628 13 1 10.3137 1 7C1 3.68629 3.68628 1 7 1C10.3137 1 13 3.68629 13 7Z" fill="url(#paint1_linear_1127_2477)"/>
    <defs>
        <linearGradient id="paint0_linear_1127_2477" x1="0" y1="0" x2="14" y2="14" gradientUnits="userSpaceOnUse">
            <stop stop-color="#ED28B6"/>
            <stop offset="0.154514" stop-color="#E62FB8"/>
            <stop offset="0.815972" stop-color="#22EEFB"/>
            <stop offset="1" stop-color="#1FF1FC"/>
        </linearGradient>
        <linearGradient id="paint1_linear_1127_2477" x1="0" y1="0" x2="14" y2="14" gradientUnits="userSpaceOnUse">
            <stop stop-color="#ED28B6"/>
            <stop offset="0.154514" stop-color="#E62FB8"/>
            <stop offset="0.815972" stop-color="#22EEFB"/>
            <stop offset="1" stop-color="#1FF1FC"/>
        </linearGradient>
    </defs>
</svg>
