<!--
 * Copyright (c) 2024, WSO2 LLC. (https://www.wso2.com).
 *
 * WSO2 LLC. licenses this file to you under the Apache License,
 * Version 2.0 (the "License"); you may not use this file except
 * in compliance with the License.
 * You may obtain a copy of the License at
 *
 *     http://www.apache.org/licenses/LICENSE-2.0
 *
 * Unless required by applicable law or agreed to in writing,
 * software distributed under the License is distributed on an
 * "AS IS" BASIS, WITHOUT WARRANTIES OR CONDITIONS OF ANY
 * KIND, either express or implied. See the License for the
 * specific language governing permissions and limitations
 * under the License.
-->

<svg width="394" height="109" viewBox="0 0 394 109" fill="none" xmlns="http://www.w3.org/2000/svg">
<g clip-path="url(#clip0_2038_743)">
<path fill-rule="evenodd" clip-rule="evenodd" d="M60.604 44.0938C60.604 52.7626 53.5032 59.7899 44.744 59.7899C35.9847 59.7899 28.884 52.7626 28.884 44.0938C28.884 35.4251 35.9847 28.3977 44.744 28.3977C53.5032 28.3977 60.604 35.4251 60.604 44.0938ZM21.4564 76.6046C22.321 76.0145 23.1855 75.4245 24.1096 74.8934C38.0316 66.6325 54.8154 67.193 67.7834 74.9524C68.2902 75.2474 68.2902 75.9555 67.8132 76.2801C67.6874 76.3601 67.5609 76.4409 67.4338 76.522C66.7178 76.9788 65.9837 77.4473 65.2495 77.8732C60.5094 80.6761 55.4415 83.0658 50.1649 84.9245C46.6173 86.1932 42.9207 87.2258 39.075 88.0814C35.4678 88.878 31.6818 87.9339 28.8795 85.5736C26.1666 83.2724 23.6327 80.8531 21.2776 78.3748C20.7708 77.8437 20.8602 77.0177 21.4564 76.6046Z" fill="#3F454F"/>
<path fill-rule="evenodd" clip-rule="evenodd" d="M65.3688 13.4754C66.293 12.9444 67.1575 12.3543 68.022 11.7642C68.6182 11.3512 68.7077 10.5251 68.2009 9.99403C65.8458 7.51575 63.3118 5.09647 60.599 2.79521C57.7967 0.434941 54.0106 -0.509167 50.4035 0.287424C46.5578 1.14302 42.8612 2.17564 39.3136 3.44428C34.037 5.303 28.969 7.69277 24.229 10.4956C23.4949 10.9215 22.7608 11.3899 22.045 11.8467L22.0449 11.8467C21.9177 11.9279 21.7911 12.0087 21.6652 12.0888C21.1882 12.4133 21.1882 13.1214 21.695 13.4164C34.663 21.1758 51.4469 21.7364 65.3688 13.4754ZM13.6161 23.8604C13.0795 22.9458 12.4832 22.0903 11.887 21.2347L11.887 21.2346C11.4696 20.6446 10.6349 20.556 10.0983 21.0576C7.59414 23.3884 5.1496 25.8962 2.8243 28.581C0.439388 31.3543 -0.514578 35.1012 0.290331 38.6711C1.15486 42.477 2.19826 46.1355 3.48016 49.6464C5.35828 54.8685 7.77301 59.884 10.6051 64.5751C11.0354 65.3016 11.5088 66.0281 11.9704 66.7366L11.9722 66.7394C12.0536 66.8643 12.1346 66.9887 12.2149 67.1124C12.5428 67.5844 13.2583 67.5844 13.5564 67.0828C21.3968 54.2489 21.9633 37.6385 13.6161 23.8604ZM77.5912 67.3192C76.995 66.4636 76.3988 65.6081 75.8622 64.6935C67.515 50.9155 68.0814 34.3051 75.9218 21.4711C76.22 20.9696 76.9354 20.9696 77.2634 21.4416C77.3443 21.5662 77.4259 21.6915 77.5079 21.8173C77.9695 22.5258 78.4428 23.2523 78.8732 23.9789C81.7053 28.6699 84.12 33.6855 85.9981 38.9076C87.28 42.4185 88.3234 46.0769 89.1879 49.8829C89.9928 53.4528 89.0389 57.1997 86.654 59.973C84.3287 62.6578 81.8841 65.1656 79.38 67.4964C78.8434 67.9979 78.0087 67.9094 77.5913 67.3193L77.5912 67.3192Z" fill="url(#paint0_linear_2038_743)"/>
<path fill-rule="evenodd" clip-rule="evenodd" d="M267.83 1.81C269.05 0.61 270.54 0 272.24 0C273.94 0 275.44 0.63 276.65 1.81C277.87 3.01 278.47 4.49 278.47 6.17C278.47 7.85 277.86 9.33 276.65 10.53C275.43 11.73 273.94 12.34 272.24 12.34C270.54 12.34 269.04 11.74 267.83 10.53C266.61 9.33 266 7.85 266 6.17C266 4.49 266.61 3.01 267.83 1.81ZM276.35 21.66H268.17V69.5H276.35V21.66ZM309.06 20.34C315.88 20.34 322.36 23.26 327.01 28.37V2.26H335.19V69.51H327.01V62.8C322.36 67.92 315.87 70.83 309.06 70.83C295.52 70.83 284.5 59.49 284.5 45.59C284.5 31.69 295.52 20.35 309.06 20.35V20.34ZM309.57 63.19C319.03 63.19 326.76 55.31 326.76 45.59C326.76 35.87 319.03 27.99 309.57 27.99C300.11 27.99 292.38 35.87 292.38 45.59C292.38 55.31 300.08 63.19 309.57 63.19ZM342.56 45.58C342.56 31.68 354 20.34 368.09 20.34C382.18 20.34 393.62 31.68 393.62 45.58C393.62 59.48 382.15 70.82 368.09 70.82C354.03 70.82 342.56 59.48 342.56 45.58ZM368.09 63.18C377.55 63.18 385.28 55.3 385.28 45.58C385.28 35.86 377.58 27.98 368.09 27.98C358.6 27.98 350.9 35.86 350.9 45.58C350.9 55.3 358.6 63.18 368.09 63.18ZM244.85 12.22V21.67H258.7V29.16H244.85V69.54H236.66V29.19H227.59V21.7H236.66V12.07C236.66 5.75 241.86 0.61 248.25 0.61H258.69V7.98H249.14C246.77 7.98 244.85 9.88 244.85 12.22ZM203.44 20.34C196.29 20.34 190.93 23.2 187.83 28.58V21.66H179.65V69.5H187.83V44.62C187.83 39.6 189.11 35.53 191.63 32.52C194.15 29.54 197.65 28.04 202.1 28.04C205.81 28.04 208.83 29.24 210.98 31.62C213.14 34.03 214.27 37.7 214.27 42.51V69.47H222.45V40.98C222.45 34.15 220.78 28.91 217.46 25.48C214.24 22.17 209.25 20.33 203.43 20.33L203.44 20.34ZM120.77 45.58C120.77 31.68 132.21 20.34 146.3 20.34C160.39 20.34 171.83 31.68 171.83 45.58C171.83 59.48 160.39 70.82 146.3 70.82C132.21 70.82 120.77 59.48 120.77 45.58ZM146.33 63.18C155.79 63.18 163.52 55.3 163.52 45.58C163.52 35.86 155.79 27.98 146.33 27.98C136.87 27.98 129.14 35.86 129.14 45.58C129.14 55.3 136.84 63.18 146.33 63.18Z" fill="#723988"/>
<path d="M132.17 104.43C129.6 104.43 127.28 102.97 127.28 100.19V100.14C127.28 97.15 129.62 95.72 132.97 95.72C134.53 95.72 135.6 95.95 136.66 96.29V95.95C136.66 93.97 135.46 92.96 133.25 92.96C131.69 92.96 130.57 93.3 129.32 93.82L128.46 91.35C129.99 90.7 131.48 90.23 133.66 90.23C135.71 90.23 137.22 90.75 138.21 91.76C139.22 92.77 139.69 94.2 139.69 96V104.14H136.62V102.42C135.68 103.54 134.25 104.42 132.15 104.42L132.17 104.43ZM133.06 102.14C135.14 102.14 136.73 100.97 136.73 99.2V98.26C135.92 97.95 134.86 97.71 133.61 97.71C131.56 97.71 130.39 98.54 130.39 100V100.05C130.39 101.38 131.53 102.13 133.07 102.13L133.06 102.14Z" fill="#3F454F"/>
<path d="M143.19 104.14V90.41H146.36V92.52C147.27 91.25 148.49 90.13 150.65 90.13C153.77 90.13 155.54 92.18 155.54 95.38V104.14H152.39V96.34C152.39 94.18 151.32 92.99 149.45 92.99C147.58 92.99 146.36 94.24 146.36 96.4V104.15H143.19V104.14Z" fill="#3F454F"/>
<path d="M166.98 104.14V85.94H180.47V88.8H170.17V93.53H179.3V96.42H170.17V101.28H180.6V104.14H166.98Z" fill="#3F454F"/>
<path d="M183.75 104.14V90.41H186.92V92.52C187.83 91.25 189.05 90.13 191.21 90.13C194.33 90.13 196.1 92.18 196.1 95.38V104.14H192.95V96.34C192.95 94.18 191.88 92.99 190.01 92.99C188.14 92.99 186.92 94.24 186.92 96.4V104.15H183.75V104.14Z" fill="#3F454F"/>
<path d="M204.24 104.38C201.93 104.38 200.29 103.37 200.29 100.35V93.12H198.55V90.42H200.29V86.65H203.44V90.42H207.13V93.12H203.44V99.85C203.44 101.07 204.06 101.57 205.13 101.57C205.81 101.57 206.46 101.41 207.08 101.1V103.67C206.27 104.11 205.47 104.37 204.25 104.37L204.24 104.38Z" fill="#3F454F"/>
<path d="M210.04 104.14V90.41H213.21V93.5C214.07 91.42 215.65 90.04 218.07 90.15V93.48H217.89C215.11 93.48 213.21 95.27 213.21 98.91V104.14H210.04Z" fill="#3F454F"/>
<path d="M225.28 104.43C222.16 104.43 220.39 102.38 220.39 99.15V90.41H223.54V98.21C223.54 100.37 224.61 101.54 226.48 101.54C228.35 101.54 229.57 100.32 229.57 98.16V90.41H232.74V104.14H229.57V102.01C228.66 103.34 227.39 104.43 225.28 104.43Z" fill="#3F454F"/>
<path d="M241.12 104.4C239.14 104.4 237.04 103.72 235.3 102.35L236.7 100.22C238.23 101.34 239.77 101.91 241.2 101.91C242.55 101.91 243.33 101.34 243.33 100.43V100.38C243.33 99.34 241.87 98.95 240.26 98.46C238.26 97.91 235.97 97.06 235.97 94.46V94.41C235.97 91.78 238.13 90.2 240.86 90.2C242.6 90.2 244.45 90.8 245.9 91.76L244.65 94C243.32 93.19 241.92 92.7 240.78 92.7C239.56 92.7 238.86 93.3 238.86 94.05V94.1C238.86 95.09 240.34 95.56 241.95 96.05C243.93 96.67 246.21 97.58 246.21 100.05V100.1C246.21 102.99 243.97 104.42 241.11 104.42L241.12 104.4Z" fill="#3F454F"/>
<path d="M253.52 104.38C251.21 104.38 249.57 103.37 249.57 100.35V93.12H247.83V90.42H249.57V86.65H252.72V90.42H256.41V93.12H252.72V99.85C252.72 101.07 253.34 101.57 254.41 101.57C255.09 101.57 255.74 101.41 256.36 101.1V103.67C255.55 104.11 254.75 104.37 253.53 104.37L253.52 104.38Z" fill="#3F454F"/>
<path d="M275.7 104.46C270.4 104.46 266.44 100.33 266.44 95.1V95.05C266.44 89.88 270.31 85.64 275.8 85.64C279.18 85.64 281.21 86.81 282.95 88.47L280.9 90.84C279.42 89.49 277.88 88.6 275.78 88.6C272.35 88.6 269.8 91.43 269.8 95V95.05C269.8 98.61 272.32 101.5 275.81 101.5C278.02 101.5 279.48 100.62 281.04 99.16L283.09 101.24C281.24 103.24 279.09 104.46 275.71 104.46H275.7Z" fill="#3F454F"/>
<path d="M292.12 104.46C287.93 104.46 284.84 101.26 284.84 97.36V97.31C284.84 93.38 287.96 90.13 292.17 90.13C296.38 90.13 299.48 93.33 299.48 97.25V97.3C299.48 101.17 296.36 104.45 292.12 104.45V104.46ZM292.17 101.7C294.74 101.7 296.33 99.72 296.33 97.36V97.31C296.33 94.89 294.59 92.89 292.12 92.89C289.65 92.89 287.99 94.87 287.99 97.26V97.31C287.99 99.7 289.76 101.7 292.18 101.7H292.17Z" fill="#3F454F"/>
<path d="M302.4 104.14V90.41H305.57V92.49C306.45 91.27 307.65 90.12 309.76 90.12C311.74 90.12 313.14 91.08 313.87 92.54C314.99 91.08 316.42 90.12 318.5 90.12C321.52 90.12 323.31 92.02 323.31 95.37V104.13H320.16V96.33C320.16 94.15 319.15 92.98 317.38 92.98C315.61 92.98 314.44 94.18 314.44 96.39V104.14H311.29V96.31C311.29 94.15 310.28 92.98 308.51 92.98C306.74 92.98 305.57 94.28 305.57 96.39V104.14H302.4Z" fill="#3F454F"/>
<path d="M326.82 108.3V90.41H329.99V92.7C331 91.27 332.41 90.13 334.67 90.13C337.89 90.13 341.04 92.68 341.04 97.25V97.3C341.04 101.88 337.92 104.42 334.67 104.42C332.38 104.42 330.95 103.28 329.99 102V108.29H326.82V108.3ZM333.91 101.7C336.07 101.7 337.84 100.01 337.84 97.31V97.26C337.84 94.61 336.02 92.87 333.91 92.87C331.8 92.87 329.91 94.64 329.91 97.26V97.31C329.91 99.94 331.76 101.7 333.91 101.7Z" fill="#3F454F"/>
<path d="M347.98 104.43C345.41 104.43 343.09 102.97 343.09 100.19V100.14C343.09 97.15 345.43 95.72 348.78 95.72C350.34 95.72 351.41 95.95 352.47 96.29V95.95C352.47 93.97 351.27 92.96 349.06 92.96C347.5 92.96 346.38 93.3 345.13 93.82L344.27 91.35C345.8 90.7 347.29 90.23 349.47 90.23C351.52 90.23 353.03 90.75 354.02 91.76C355.03 92.77 355.5 94.2 355.5 96V104.14H352.43V102.42C351.49 103.54 350.06 104.42 347.96 104.42L347.98 104.43ZM348.86 102.14C350.94 102.14 352.53 100.97 352.53 99.2V98.26C351.72 97.95 350.66 97.71 349.41 97.71C347.36 97.71 346.19 98.54 346.19 100V100.05C346.19 101.38 347.33 102.13 348.87 102.13L348.86 102.14Z" fill="#3F454F"/>
<path d="M359 104.14V90.41H362.17V92.52C363.08 91.25 364.3 90.13 366.46 90.13C369.58 90.13 371.35 92.18 371.35 95.38V104.14H368.2V96.34C368.2 94.18 367.13 92.99 365.26 92.99C363.39 92.99 362.17 94.24 362.17 96.4V104.15H359V104.14Z" fill="#3F454F"/>
<path d="M380.43 100.61L384.02 90.42H387.3L381.84 104.51C380.72 107.34 379.53 108.38 377.32 108.38C375.99 108.38 375.03 108.07 374.07 107.52L375.14 105.21C375.74 105.52 376.34 105.73 376.99 105.73C377.9 105.73 378.42 105.34 378.94 104.17L373.22 90.42H376.6L380.45 100.61H380.43Z" fill="#3F454F"/>
</g>
<defs>
<linearGradient id="paint0_linear_2038_743" x1="44.2576" y1="-9.35572e-06" x2="59.4964" y2="71.9288" gradientUnits="userSpaceOnUse">
<stop stop-color="#C6168D"/>
<stop offset="0.295" stop-color="#762B8A"/>
</linearGradient>
<clipPath id="clip0_2038_743">
<rect width="393.62" height="108.38" fill="white"/>
</clipPath>
</defs>
</svg>
