<!--
 * Copyright (c) 2020, WSO2 Inc. (http://www.wso2.com). All Rights Reserved.
 *
 * This software is the property of WSO2 Inc. and its suppliers, if any.
 * Dissemination of any information or reproduction of any material contained
 * herein in any form is strictly forbidden, unless permitted by WSO2 expressly.
 * You may not alter or remove any copyright or other notice from copies of this content."
-->

<svg class="icon" xmlns="http://www.w3.org/2000/svg" width="100" height="100" viewBox="0 0 190 148">
    <g id="Group_722" data-name="Group 722" transform="translate(-578 -211)">
        <g id="Desktop-Device" transform="translate(577.999 249.078)">
            <rect id="Rectangle_360" data-name="Rectangle 360" width="100" height="72" rx="2"
                  transform="translate(0.001 -0.078)" fill="#f4f4f4"/>
            <path id="Rectangle_361" data-name="Rectangle 361"
                  d="M2,0H98a2,2,0,0,1,2,2V7a0,0,0,0,1,0,0H0A0,0,0,0,1,0,7V2A2,2,0,0,1,2,0Z"
                  transform="translate(0.001 -0.078)" fill="rgba(218,226,232,0.6)"/>
            <circle id="Ellipse_103" data-name="Ellipse 103" cx="0.5" cy="0.5" r="0.5"
                    transform="translate(4.001 2.922)" fill="#545454"/>
            <circle id="Ellipse_104" data-name="Ellipse 104" cx="0.5" cy="0.5" r="0.5"
                    transform="translate(5.501 2.922)" fill="#a1a1a1"/>
            <circle id="Ellipse_105" data-name="Ellipse 105" cx="0.5" cy="0.5" r="0.5"
                    transform="translate(7.001 2.922)" fill="#7d7d7d"/>
            <rect id="Rectangle_366" data-name="Rectangle 366" width="21" height="57" rx="1"
                  transform="translate(4.001 9.922)" fill="#3b4257" opacity="0.6"/>
            <rect id="Rectangle_367" data-name="Rectangle 367" width="68" height="10" rx="1"
                  transform="translate(28.001 9.922)" fill="#3b4257" opacity="0.61"/>
            <rect id="Rectangle_368" data-name="Rectangle 368" width="15" height="11" rx="1"
                  transform="translate(28.001 21.922)" fill="#e1e1e1"/>
            <rect id="Rectangle_372" data-name="Rectangle 372" width="33" height="4" rx="1"
                  transform="translate(28.001 37.922)" fill="#e1e1e1"/>
            <rect id="Rectangle_376" data-name="Rectangle 376" width="33" height="4" rx="1"
                  transform="translate(28.001 60.922)" fill="#e1e1e1"/>
            <rect id="Rectangle_374" data-name="Rectangle 374" width="43" height="5" rx="1"
                  transform="translate(28.001 48.922)" fill="#e1e1e1"/>
            <rect id="Rectangle_373" data-name="Rectangle 373" width="25" height="4" rx="1"
                  transform="translate(28.001 43.922)" fill="#e1e1e1"/>
            <rect id="Rectangle_375" data-name="Rectangle 375" width="25" height="5" rx="1"
                  transform="translate(28.001 54.922)" fill="#e1e1e1"/>
            <rect id="Rectangle_369" data-name="Rectangle 369" width="16" height="11" rx="1"
                  transform="translate(45.001 21.922)" fill="#e1e1e1"/>
            <rect id="Rectangle_370" data-name="Rectangle 370" width="15" height="11" rx="1"
                  transform="translate(63.001 21.922)" fill="#e1e1e1"/>
            <rect id="Rectangle_371" data-name="Rectangle 371" width="16" height="11" rx="1"
                  transform="translate(80.001 21.922)" fill="#e1e1e1"/>
        </g>
        <rect id="Rectangle_700" data-name="Rectangle 700" width="56" height="78" rx="4" transform="translate(712 281)"
              fill="#e9e9e9"/>
        <rect id="Rectangle_705" data-name="Rectangle 705" width="56" height="55" rx="4" transform="translate(712 211)"
              fill="#e9e9e9"/>
        <ellipse id="Ellipse_242" data-name="Ellipse 242" cx="14" cy="13.5" rx="14" ry="13.5"
                 transform="translate(726 294)" fill="#f4f4f4"/>
        <rect id="Rectangle_701" data-name="Rectangle 701" width="29" height="4" rx="2" transform="translate(726 327)"
              fill="#3b4257"/>
        <rect id="Rectangle_702" data-name="Rectangle 702" width="43" height="2" rx="1" transform="translate(719 336)"
              fill="#3b4257" opacity="0.16"/>
        <rect id="Rectangle_703" data-name="Rectangle 703" width="43" height="2" rx="1" transform="translate(719 340)"
              fill="#3b4257" opacity="0.16"/>
        <rect id="Rectangle_704" data-name="Rectangle 704" width="43" height="2" rx="1" transform="translate(719 344)"
              fill="#3b4257" opacity="0.16"/>
        <g id="user_6_" data-name="user (6)" transform="translate(733.115 301.102)" opacity="0.75">
            <g id="Group_662" data-name="Group 662" transform="translate(0 0)">
                <path id="Path_1998" data-name="Path 1998"
                      d="M11.871,8.991A6.927,6.927,0,0,0,9.228,7.333a4.02,4.02,0,1,0-4.549,0A6.965,6.965,0,0,0,0,13.908H1.087a5.867,5.867,0,0,1,11.735,0h1.087A6.908,6.908,0,0,0,11.871,8.991ZM6.954,6.954A2.934,2.934,0,1,1,9.887,4.02,2.937,2.937,0,0,1,6.954,6.954Z"
                      transform="translate(0)" fill="#3b4257"/>
            </g>
        </g>
        <g id="fingerprint_4_" data-name="fingerprint (4)" transform="translate(729.881 229.147)" opacity="0.75">
            <path id="Path_354" data-name="Path 354"
                  d="M91.322,269.182a.553.553,0,1,0-.946-.574,5.519,5.519,0,0,1-2.51,2.307.553.553,0,0,0,.386,1.038A6.565,6.565,0,0,0,91.322,269.182Z"
                  transform="translate(-84.276 -258.438)" fill="#3b4257"/>
            <path id="Path_355" data-name="Path 355"
                  d="M189,180.474a2.768,2.768,0,0,0-4.835.865.553.553,0,1,0,1.056.329,1.662,1.662,0,1,1,3.139,1.091,14.018,14.018,0,0,1-3.562,5.536.553.553,0,0,0,.78.785,15.179,15.179,0,0,0,3.85-6.032A2.84,2.84,0,0,0,189,180.474Z"
                  transform="translate(-177.34 -172.775)" fill="#3b4257"/>
            <path id="Path_356" data-name="Path 356"
                  d="M209.01,120.62a3.877,3.877,0,0,1,1.61-.112.554.554,0,0,0,.155-1.1,4.982,4.982,0,0,0-2.069.144.554.554,0,0,0,.3,1.064Z"
                  transform="translate(-200.616 -114.957)" fill="#3b4257"/>
            <path id="Path_357" data-name="Path 357"
                  d="M68.171,151a3.855,3.855,0,0,1,1.174-1.789.553.553,0,0,0-.72-.841,4.961,4.961,0,0,0-1.512,2.3,3.432,3.432,0,0,1-1.945,2.5.554.554,0,0,0,.363,1.046A4.5,4.5,0,0,0,68.171,151Z"
                  transform="translate(-62.406 -142.767)" fill="#3b4257"/>
            <path id="Path_358" data-name="Path 358"
                  d="M134.736,240.08a.553.553,0,1,0-1.056-.329,8.7,8.7,0,0,1-3.87,5.009.553.553,0,0,0,.54.966A9.828,9.828,0,0,0,134.736,240.08Z"
                  transform="translate(-124.746 -230.527)" fill="#3b4257"/>
            <path id="Path_359" data-name="Path 359"
                  d="M9.441,0a9.447,9.447,0,1,0,1.811,18.72.551.551,0,0,0,.4.174h5.532a.553.553,0,0,0,.553-.554V13.956A9.453,9.453,0,0,0,9.441,0ZM1.106,9.447a8.337,8.337,0,1,1,15.7,3.912H13.314V11.18a1.1,1.1,0,1,1,2.209,0v.537a.553.553,0,1,0,1.106,0,3.529,3.529,0,0,0-.1-1.2A7.165,7.165,0,0,0,3.655,5.137,13.347,13.347,0,0,0,2.4,7.7a.553.553,0,1,0,1,.481c.488-1.012.724-2.428,2.47-3.706a6.064,6.064,0,0,1,9.649,4.789,2.191,2.191,0,0,0-1.112-.294A4.913,4.913,0,0,0,12.165,5.2a.553.553,0,0,0-.6.93,3.82,3.82,0,0,1,1.748,3.132,2.213,2.213,0,0,0-1.106,1.915v2.179h-.555a.553.553,0,0,0-.553.554v3.709A8.345,8.345,0,0,1,1.106,9.447Zm15.525,8.34H12.206V14.466h4.425v3.321Z"
                  fill="#3b4257"/>
            <path id="Path_360" data-name="Path 360"
                  d="M361.248,422.049h1.106a.554.554,0,0,0,0-1.107h-1.106a.554.554,0,0,0,0,1.107Z"
                  transform="translate(-347.382 -405.406)" fill="#3b4257"/>
        </g>
        <g id="Group_718" data-name="Group 718" transform="translate(0 1)">
            <path id="Path_2041" data-name="Path 2041"
                  d="M6062,5156.445h10.107c.589,0,4.092.856,4.092,5.248v6.347a3.22,3.22,0,0,0,3.446,3.551h16.36"
                  transform="translate(-5384 -4855)" fill="none" stroke="#3b4257" stroke-width="2"/>
            <g id="Ellipse_243" data-name="Ellipse 243" transform="translate(675 299)" fill="#fff" stroke="#3b4257"
               stroke-width="1">
                <circle cx="2.5" cy="2.5" r="2.5" stroke="none"/>
                <circle cx="2.5" cy="2.5" r="2" fill="none"/>
            </g>
            <g id="Ellipse_244" data-name="Ellipse 244" transform="translate(710 314)" fill="#fff" stroke="#3b4257"
               stroke-width="1">
                <circle cx="2.5" cy="2.5" r="2.5" stroke="none"/>
                <circle cx="2.5" cy="2.5" r="2" fill="none"/>
            </g>
        </g>
        <g id="Group_719" data-name="Group 719" transform="translate(675 247)">
            <path id="Path_2041-2" data-name="Path 2041"
                  d="M6062,5171.591h10.107c.589,0,4.092-.856,4.092-5.248V5160a3.22,3.22,0,0,1,3.446-3.551h16.36"
                  transform="translate(-6059 -5154.036)" fill="none" stroke="#3b4257" stroke-width="2"/>
            <g id="Ellipse_243-2" data-name="Ellipse 243" transform="translate(0 15)" fill="#fff" stroke="#3b4257"
               stroke-width="1">
                <circle cx="2.5" cy="2.5" r="2.5" stroke="none"/>
                <circle cx="2.5" cy="2.5" r="2" fill="none"/>
            </g>
            <g id="Ellipse_244-2" data-name="Ellipse 244" transform="translate(35)" fill="#fff" stroke="#3b4257"
               stroke-width="1">
                <circle cx="2.5" cy="2.5" r="2.5" stroke="none"/>
                <circle cx="2.5" cy="2.5" r="2" fill="none"/>
            </g>
        </g>
    </g>
</svg>
