<!--
~ Copyright (c) 2022, WSO2 LLC. (http://www.wso2.com). All Rights Reserved.
~
~ This software is the property of WSO2 LLC. and its suppliers, if any.
~ Dissemination of any information or reproduction of any material contained
~ herein in any form is strictly forbidden, unless permitted by WSO2 expressly.
~ You may not alter or remove any copyright or other notice from copies of this content."
-->

<svg width="266" height="28" viewBox="0 0 266 28" fill="none" xmlns="http://www.w3.org/2000/svg">
  <g clip-path="url(#clip0_803_26)">
    <path d="M45.2803 18.287C49.2849 18.287 52.5313 15.0407 52.5313 11.036C52.5313 7.03143 49.2849 3.78505 45.2803 3.78505C41.2757 3.78505 38.0293 7.03143 38.0293 11.036C38.0293 15.0407 41.2757 18.287 45.2803 18.287Z" fill="#F47B20" />
    <path d="M52.5608 10.693L52.5478 10.593H49.7368L49.7078 10.646C49.3744 11.2394 49.0411 11.8344 48.7078 12.431L48.4178 12.953C47.9164 11.7397 47.4164 10.5264 46.9178 9.31305C46.3971 8.03305 45.8738 6.75305 45.3478 5.47305L45.2478 5.25105L45.1478 5.47005C44.7704 6.30805 44.3941 7.14905 44.0188 7.99305C43.5018 9.14705 42.9668 10.339 42.4298 11.507C41.6818 11.5 40.9298 11.501 40.1818 11.502C39.4948 11.502 38.8068 11.502 38.1168 11.502H38.0098V11.609C38.0178 11.8386 38.0409 12.0675 38.0788 12.294L38.0968 12.417H38.1868C39.3814 12.417 40.5751 12.417 41.7678 12.417H43.0288L43.0568 12.356C43.4241 11.5454 43.7908 10.733 44.1568 9.91905C44.5081 9.13105 44.8608 8.34671 45.2148 7.56605C45.7481 8.86071 46.2814 10.1567 46.8148 11.454C47.2814 12.5874 47.7481 13.7207 48.2148 14.854L48.2968 15.054L48.4028 14.867C48.8834 14.0117 49.3614 13.1547 49.8368 12.296L50.2768 11.503H52.5628L52.5708 11.403C52.5863 11.1665 52.583 10.9291 52.5608 10.693V10.693Z" fill="white" />
    <path d="M1 2.02405C1.708 2.02405 2.415 2.02405 3.123 2.02405C4.84567 6.26405 6.56933 10.504 8.294 14.744C10.02 10.495 11.733 6.24405 13.477 1.99805C15.2017 6.24871 16.9273 10.4987 18.654 14.748C20.3793 10.508 22.103 6.26638 23.825 2.02305C24.54 2.02305 25.257 2.02305 25.972 2.02305C23.566 7.96705 21.158 13.9084 18.748 19.847C18.741 19.933 18.617 20.075 18.588 19.909C16.8847 15.6937 15.1807 11.4787 13.476 7.26405C11.737 11.528 10.02 15.801 8.29 20.064C5.85533 14.0547 3.42533 8.04138 1 2.02405Z" fill="#F47B20" />
    <path d="M27.4641 2.93505C28.6335 2.16751 30.0444 1.85679 31.4281 2.06205C32.1997 2.19982 32.9292 2.51317 33.5604 2.97787C34.1916 3.44257 34.7074 4.04619 35.0681 4.74205C34.5521 5.08205 34.0251 5.40405 33.5121 5.74705C33.2381 5.44705 33.0531 5.07805 32.7671 4.78805C32.3945 4.35933 31.895 4.06054 31.3411 3.93505C30.7882 3.80857 30.2121 3.82481 29.6672 3.98225C29.1223 4.1397 28.6264 4.43316 28.2261 4.83505C28.018 5.05866 27.8568 5.32163 27.7519 5.60848C27.647 5.89533 27.6006 6.20027 27.6153 6.50534C27.63 6.81041 27.7056 7.10946 27.8377 7.38487C27.9697 7.66029 28.1555 7.90651 28.3841 8.10905C29.0956 8.60567 29.843 9.04888 30.6201 9.43505C31.6171 9.84486 32.5756 10.3428 33.4841 10.923C34.1439 11.3119 34.713 11.8373 35.1531 12.464C35.6752 13.4622 35.8336 14.6109 35.6011 15.713C35.4627 16.4299 35.1783 17.1107 34.7653 17.7128C34.3524 18.315 33.82 18.8257 33.2011 19.213C32.1051 19.8933 30.8094 20.1784 29.5291 20.021C28.3618 19.9432 27.2572 19.4645 26.4021 18.666C25.5571 17.8182 24.9811 16.7398 24.7461 15.566C25.3831 15.366 26.0191 15.18 26.6551 14.984C26.8436 15.9947 27.3697 16.9114 28.1471 17.5841C28.5473 17.871 29.0037 18.0699 29.4863 18.1676C29.969 18.2654 30.4668 18.2597 30.9471 18.151C31.5044 18.0429 32.0259 17.7975 32.4645 17.4372C32.9031 17.0768 33.2449 16.6128 33.4591 16.087C33.7386 15.3812 33.7825 14.6039 33.5841 13.871C33.4257 13.3746 33.0975 12.9497 32.6571 12.671C31.7604 12.0743 30.8158 11.5529 29.8331 11.1121C29.075 10.7771 28.3481 10.3756 27.6611 9.91205C27.083 9.57019 26.5804 9.11428 26.1841 8.57205C25.6478 7.63808 25.4886 6.53451 25.7391 5.48705C25.9642 4.44605 26.582 3.53196 27.4641 2.93505V2.93505Z" fill="#F47B20" />
    <path d="M44.6092 2.03604C46.0705 1.9286 47.5361 2.17595 48.8812 2.75704C50.0208 3.25 51.0463 3.97302 51.8934 4.8808C52.7405 5.78858 53.391 6.86154 53.8041 8.03245C54.2171 9.20335 54.3839 10.447 54.294 11.6853C54.204 12.9237 53.8592 14.1301 53.2812 15.229C52.6617 16.402 51.792 17.4245 50.7335 18.224C49.6751 19.0236 48.4538 19.5808 47.1562 19.856C45.4353 20.2156 43.6471 20.0698 42.0072 19.436C40.4265 18.8228 39.0503 17.7769 38.0362 16.418C36.9657 14.9891 36.3475 13.2724 36.2612 11.489C36.1456 9.35845 36.7946 7.2566 38.0912 5.56204C38.8664 4.54667 39.8482 3.70734 40.9718 3.09953C42.0954 2.49171 43.3352 2.12923 44.6092 2.03604V2.03604ZM43.5272 4.07904C42.5577 4.32466 41.6499 4.76934 40.8616 5.38482C40.0733 6.00029 39.4217 6.77308 38.9482 7.65404C38.3099 8.86748 38.0156 10.2324 38.0972 11.601H38.1172C38.1261 11.8377 38.1505 12.0736 38.1902 12.307C38.3887 13.4363 38.8531 14.5021 39.545 15.4164C40.2369 16.3306 41.1364 17.0672 42.1692 17.565C43.8509 18.3746 45.7818 18.4969 47.5522 17.906C49.0221 17.4143 50.2946 16.4623 51.1812 15.191C51.961 14.0745 52.4061 12.7587 52.4642 11.398C52.4811 11.1649 52.4784 10.9307 52.4562 10.698C52.3813 9.20998 51.8466 7.78181 50.9258 6.61045C50.005 5.43909 48.7435 4.58224 47.3152 4.15804C46.0826 3.79146 44.774 3.76417 43.5272 4.07904V4.07904Z" fill="#060709" />
    <path d="M54.9673 10.414C55.9168 10.1518 56.9202 10.1563 57.8673 10.427C58.5061 10.6293 59.089 10.9777 59.5698 11.4444C60.0506 11.9112 60.4161 12.4835 60.6373 13.116C60.8495 13.7714 60.9164 14.4652 60.8333 15.1491C60.7503 15.8329 60.5192 16.4905 60.1563 17.076C59.5408 18.0093 58.8409 18.884 58.0653 19.689C56.8466 21.0057 55.6266 22.3217 54.4053 23.637C56.6253 23.6337 58.8453 23.6337 61.0653 23.637C61.0653 24.111 61.0653 24.585 61.0653 25.059C57.7763 25.059 54.4863 25.059 51.1973 25.059C53.2973 22.781 55.4203 20.521 57.5133 18.235C58.3979 17.4078 59.0455 16.3594 59.3893 15.198C59.4864 14.7213 59.462 14.2278 59.3184 13.763C59.1747 13.2981 58.9164 12.8769 58.5673 12.538C58.0936 12.0808 57.4939 11.7758 56.8454 11.6621C56.1969 11.5484 55.5293 11.6313 54.9283 11.9C54.9859 11.4069 54.9989 10.9095 54.9673 10.414V10.414Z" fill="#060709" />
    <path d="M71.6779 19V3.72727H77.1218C78.31 3.72727 79.2944 3.94354 80.0749 4.37606C80.8555 4.80859 81.4396 5.40021 81.8274 6.15092C82.2152 6.89666 82.4091 7.73686 82.4091 8.67152C82.4091 9.61115 82.2127 10.4563 81.82 11.207C81.4322 11.9528 80.8455 12.5444 80.06 12.9819C79.2795 13.4144 78.2976 13.6307 77.1143 13.6307H73.3707V11.6768H76.9055C77.6563 11.6768 78.2653 11.5476 78.7326 11.2891C79.1999 11.0256 79.543 10.6676 79.7617 10.2152C79.9805 9.76278 80.0898 9.24822 80.0898 8.67152C80.0898 8.09482 79.9805 7.58274 79.7617 7.1353C79.543 6.68785 79.1974 6.33736 78.7251 6.08381C78.2578 5.83026 77.6413 5.70348 76.8757 5.70348H73.9822V19H71.6779ZM84.9316 19V7.54545H87.0867V9.36506H87.2061C87.4149 8.74858 87.7828 8.26385 88.3097 7.91087C88.8417 7.55291 89.4433 7.37393 90.1144 7.37393C90.2536 7.37393 90.4177 7.37891 90.6066 7.38885C90.8005 7.39879 90.9521 7.41122 91.0615 7.42614V9.55895C90.972 9.53409 90.8129 9.50675 90.5843 9.47692C90.3556 9.44212 90.1269 9.42472 89.8982 9.42472C89.3712 9.42472 88.9014 9.53658 88.4887 9.7603C88.0811 9.97905 87.7579 10.2848 87.5193 10.6776C87.2806 11.0653 87.1613 11.5078 87.1613 12.005V19H84.9316ZM92.9911 19V7.54545H95.2209V19H92.9911ZM94.1172 5.77805C93.7294 5.77805 93.3963 5.64879 93.1179 5.39027C92.8445 5.12677 92.7077 4.81356 92.7077 4.45064C92.7077 4.08274 92.8445 3.76953 93.1179 3.51101C93.3963 3.24751 93.7294 3.11577 94.1172 3.11577C94.505 3.11577 94.8356 3.24751 95.109 3.51101C95.3874 3.76953 95.5266 4.08274 95.5266 4.45064C95.5266 4.81356 95.3874 5.12677 95.109 5.39027C94.8356 5.64879 94.505 5.77805 94.1172 5.77805ZM108.02 7.54545L103.866 19H101.479L97.3183 7.54545H99.7121L102.613 16.3601H102.732L105.626 7.54545H108.02ZM113.12 19.2536C112.395 19.2536 111.738 19.1193 111.152 18.8509C110.565 18.5774 110.1 18.1822 109.757 17.6651C109.419 17.1481 109.25 16.5142 109.25 15.7635C109.25 15.1172 109.374 14.5852 109.623 14.1676C109.872 13.75 110.207 13.4194 110.63 13.1758C111.052 12.9322 111.525 12.7482 112.047 12.6239C112.569 12.4996 113.101 12.4052 113.642 12.3406C114.329 12.261 114.885 12.1964 115.313 12.1467C115.741 12.092 116.051 12.005 116.245 11.8857C116.439 11.7663 116.536 11.5724 116.536 11.304V11.2518C116.536 10.6005 116.352 10.0959 115.984 9.73793C115.621 9.37997 115.079 9.20099 114.358 9.20099C113.608 9.20099 113.016 9.36754 112.584 9.70064C112.156 10.0288 111.86 10.3942 111.696 10.7969L109.601 10.3196C109.849 9.62358 110.212 9.06179 110.689 8.63423C111.172 8.2017 111.726 7.88849 112.352 7.6946C112.979 7.49574 113.638 7.39631 114.329 7.39631C114.786 7.39631 115.271 7.45099 115.783 7.56037C116.3 7.66477 116.782 7.85866 117.229 8.14204C117.682 8.42543 118.052 8.83061 118.341 9.3576C118.629 9.87962 118.773 10.5582 118.773 11.3935V19H116.596V17.4339H116.506C116.362 17.7223 116.146 18.0057 115.857 18.2841C115.569 18.5625 115.199 18.7937 114.746 18.9776C114.294 19.1616 113.752 19.2536 113.12 19.2536ZM113.605 17.4638C114.222 17.4638 114.749 17.342 115.186 17.0984C115.629 16.8548 115.964 16.5366 116.193 16.1438C116.427 15.7461 116.543 15.321 116.543 14.8686V13.392C116.464 13.4716 116.31 13.5462 116.081 13.6158C115.857 13.6804 115.601 13.7376 115.313 13.7873C115.025 13.832 114.744 13.8743 114.47 13.9141C114.197 13.9489 113.968 13.9787 113.784 14.0036C113.352 14.0582 112.956 14.1502 112.598 14.2795C112.245 14.4087 111.962 14.5952 111.748 14.8388C111.54 15.0774 111.435 15.3956 111.435 15.7933C111.435 16.3452 111.639 16.7628 112.047 17.0462C112.454 17.3246 112.974 17.4638 113.605 17.4638ZM127.09 7.54545V9.33523H120.833V7.54545H127.09ZM122.511 4.80114H124.741V15.6367C124.741 16.0692 124.806 16.3949 124.935 16.6136C125.064 16.8274 125.231 16.9741 125.434 17.0536C125.643 17.1282 125.869 17.1655 126.113 17.1655C126.292 17.1655 126.449 17.1531 126.583 17.1282C126.717 17.1033 126.822 17.0835 126.896 17.0685L127.299 18.9105C127.17 18.9602 126.986 19.0099 126.747 19.0597C126.508 19.1143 126.21 19.1442 125.852 19.1491C125.265 19.1591 124.719 19.0547 124.211 18.8359C123.704 18.6172 123.294 18.2791 122.981 17.8217C122.668 17.3643 122.511 16.7901 122.511 16.0991V4.80114ZM134.37 19.2312C133.242 19.2312 132.27 18.9901 131.454 18.5078C130.644 18.0206 130.018 17.337 129.575 16.457C129.138 15.5721 128.919 14.5355 128.919 13.3473C128.919 12.174 129.138 11.1399 129.575 10.245C130.018 9.35014 130.634 8.65163 131.425 8.1495C132.22 7.64737 133.15 7.39631 134.214 7.39631C134.86 7.39631 135.486 7.5032 136.093 7.71697C136.699 7.93075 137.244 8.26633 137.726 8.72372C138.208 9.18111 138.589 9.77521 138.867 10.506C139.146 11.2319 139.285 12.1143 139.285 13.1534V13.9439H130.179V12.2734H137.1C137.1 11.6868 136.98 11.1673 136.742 10.7148C136.503 10.2575 136.168 9.89702 135.735 9.63352C135.307 9.37003 134.805 9.23828 134.229 9.23828C133.602 9.23828 133.055 9.3924 132.588 9.70064C132.126 10.0039 131.768 10.4016 131.514 10.8938C131.266 11.381 131.141 11.9105 131.141 12.4822V13.7873C131.141 14.5529 131.275 15.2042 131.544 15.7411C131.817 16.2781 132.198 16.6882 132.685 16.9716C133.172 17.25 133.741 17.3892 134.393 17.3892C134.815 17.3892 135.201 17.3295 135.549 17.2102C135.897 17.0859 136.197 16.902 136.451 16.6584C136.704 16.4148 136.898 16.114 137.033 15.756L139.143 16.1364C138.974 16.7578 138.671 17.3022 138.233 17.7695C137.801 18.2319 137.256 18.5923 136.6 18.8509C135.949 19.1044 135.206 19.2312 134.37 19.2312ZM160.18 8.69389H157.854C157.764 8.19673 157.598 7.75923 157.354 7.38139C157.11 7.00355 156.812 6.68288 156.459 6.41939C156.106 6.15589 155.711 5.95703 155.273 5.8228C154.841 5.68857 154.381 5.62145 153.894 5.62145C153.014 5.62145 152.226 5.84268 151.53 6.28516C150.839 6.72763 150.292 7.37642 149.889 8.23153C149.491 9.08665 149.293 10.1307 149.293 11.3636C149.293 12.6065 149.491 13.6555 149.889 14.5107C150.292 15.3658 150.841 16.0121 151.537 16.4496C152.233 16.8871 153.016 17.1058 153.886 17.1058C154.369 17.1058 154.826 17.0412 155.258 16.9119C155.696 16.7777 156.091 16.5813 156.444 16.3228C156.797 16.0643 157.095 15.7486 157.339 15.3757C157.588 14.9979 157.759 14.5653 157.854 14.0781L160.18 14.0856C160.056 14.8363 159.815 15.5273 159.457 16.1587C159.104 16.7852 158.649 17.3271 158.092 17.7844C157.54 18.2369 156.909 18.5874 156.198 18.8359C155.487 19.0845 154.712 19.2088 153.871 19.2088C152.549 19.2088 151.371 18.8956 150.337 18.2692C149.302 17.6378 148.487 16.7354 147.891 15.5621C147.299 14.3888 147.003 12.9893 147.003 11.3636C147.003 9.73295 147.301 8.33345 147.898 7.16513C148.495 5.99183 149.31 5.09197 150.344 4.46555C151.378 3.83416 152.554 3.51847 153.871 3.51847C154.682 3.51847 155.437 3.6353 156.138 3.86896C156.844 4.09766 157.478 4.43572 158.04 4.88317C158.602 5.32564 159.067 5.86754 159.435 6.50888C159.802 7.14524 160.051 7.87358 160.18 8.69389ZM165.242 3.72727V19H162.938V3.72727H165.242ZM169.888 19H167.442L172.938 3.72727H175.6L181.096 19H178.65L174.333 6.50142H174.213L169.888 19ZM170.298 13.0192H178.233V14.9581H170.298V13.0192ZM183.302 3.72727H186.098L190.961 15.5994H191.14L196.002 3.72727H198.798V19H196.606V7.94815H196.464L191.96 18.9776H190.14L185.636 7.9407H185.494V19H183.302V3.72727ZM220.391 8.69389H218.065C217.975 8.19673 217.809 7.75923 217.565 7.38139C217.321 7.00355 217.023 6.68288 216.67 6.41939C216.317 6.15589 215.922 5.95703 215.484 5.8228C215.052 5.68857 214.592 5.62145 214.105 5.62145C213.225 5.62145 212.437 5.84268 211.741 6.28516C211.05 6.72763 210.503 7.37642 210.1 8.23153C209.702 9.08665 209.503 10.1307 209.503 11.3636C209.503 12.6065 209.702 13.6555 210.1 14.5107C210.503 15.3658 211.052 16.0121 211.748 16.4496C212.444 16.8871 213.227 17.1058 214.097 17.1058C214.579 17.1058 215.037 17.0412 215.469 16.9119C215.907 16.7777 216.302 16.5813 216.655 16.3228C217.008 16.0643 217.306 15.7486 217.55 15.3757C217.799 14.9979 217.97 14.5653 218.065 14.0781L220.391 14.0856C220.267 14.8363 220.026 15.5273 219.668 16.1587C219.315 16.7852 218.86 17.3271 218.303 17.7844C217.751 18.2369 217.12 18.5874 216.409 18.8359C215.698 19.0845 214.922 19.2088 214.082 19.2088C212.76 19.2088 211.582 18.8956 210.547 18.2692C209.513 17.6378 208.698 16.7354 208.101 15.5621C207.51 14.3888 207.214 12.9893 207.214 11.3636C207.214 9.73295 207.512 8.33345 208.109 7.16513C208.706 5.99183 209.521 5.09197 210.555 4.46555C211.589 3.83416 212.765 3.51847 214.082 3.51847C214.893 3.51847 215.648 3.6353 216.349 3.86896C217.055 4.09766 217.689 4.43572 218.251 4.88317C218.813 5.32564 219.278 5.86754 219.646 6.50888C220.013 7.14524 220.262 7.87358 220.391 8.69389ZM225.199 3.72727V19H222.97V3.72727H225.199ZM233.024 19.2312C231.95 19.2312 231.013 18.9851 230.213 18.4929C229.412 18.0007 228.791 17.3121 228.348 16.4272C227.906 15.5423 227.685 14.5082 227.685 13.3249C227.685 12.1367 227.906 11.0977 228.348 10.2077C228.791 9.31783 229.412 8.62678 230.213 8.13459C231.013 7.6424 231.95 7.39631 233.024 7.39631C234.098 7.39631 235.035 7.6424 235.835 8.13459C236.636 8.62678 237.257 9.31783 237.7 10.2077C238.142 11.0977 238.364 12.1367 238.364 13.3249C238.364 14.5082 238.142 15.5423 237.7 16.4272C237.257 17.3121 236.636 18.0007 235.835 18.4929C235.035 18.9851 234.098 19.2312 233.024 19.2312ZM233.032 17.3594C233.728 17.3594 234.304 17.1754 234.762 16.8075C235.219 16.4396 235.557 15.9499 235.776 15.3384C236 14.7269 236.111 14.0533 236.111 13.3175C236.111 12.5866 236 11.9155 235.776 11.304C235.557 10.6875 235.219 10.1928 234.762 9.81996C234.304 9.44709 233.728 9.26065 233.032 9.26065C232.331 9.26065 231.749 9.44709 231.286 9.81996C230.829 10.1928 230.489 10.6875 230.265 11.304C230.046 11.9155 229.937 12.5866 229.937 13.3175C229.937 14.0533 230.046 14.7269 230.265 15.3384C230.489 15.9499 230.829 16.4396 231.286 16.8075C231.749 17.1754 232.331 17.3594 233.032 17.3594ZM248.108 14.2496V7.54545H250.346V19H248.153V17.0163H248.034C247.77 17.6278 247.348 18.1374 246.766 18.5451C246.189 18.9478 245.471 19.1491 244.611 19.1491C243.875 19.1491 243.224 18.9876 242.657 18.6644C242.095 18.3363 241.653 17.8516 241.33 17.2102C241.012 16.5689 240.852 15.7759 240.852 14.8313V7.54545H243.082V14.5629C243.082 15.3434 243.298 15.9648 243.731 16.4272C244.164 16.8896 244.725 17.1207 245.416 17.1207C245.834 17.1207 246.249 17.0163 246.662 16.8075C247.079 16.5987 247.425 16.283 247.698 15.8604C247.977 15.4379 248.113 14.9009 248.108 14.2496ZM257.63 19.2237C256.705 19.2237 255.88 18.9876 255.154 18.5153C254.433 18.038 253.866 17.3594 253.454 16.4794C253.046 15.5945 252.842 14.533 252.842 13.2951C252.842 12.0572 253.048 10.9982 253.461 10.1183C253.879 9.23828 254.45 8.56463 255.176 8.0973C255.902 7.62997 256.725 7.39631 257.645 7.39631C258.356 7.39631 258.927 7.51562 259.36 7.75426C259.797 7.98793 260.135 8.26136 260.374 8.57457C260.618 8.88778 260.807 9.16371 260.941 9.40234H261.075V3.72727H263.305V19H261.127V17.2177H260.941C260.807 17.4613 260.613 17.7397 260.359 18.0529C260.111 18.3661 259.767 18.6396 259.33 18.8732C258.892 19.1069 258.326 19.2237 257.63 19.2237ZM258.122 17.3221C258.763 17.3221 259.305 17.1531 259.748 16.815C260.195 16.4719 260.533 15.9972 260.762 15.3906C260.995 14.7841 261.112 14.0781 261.112 13.2727C261.112 12.4773 260.998 11.7812 260.769 11.1847C260.541 10.5881 260.205 10.1232 259.763 9.79013C259.32 9.45703 258.773 9.29048 258.122 9.29048C257.451 9.29048 256.891 9.46449 256.444 9.8125C255.997 10.1605 255.658 10.6353 255.43 11.2369C255.206 11.8384 255.094 12.517 255.094 13.2727C255.094 14.0384 255.209 14.7269 255.437 15.3384C255.666 15.9499 256.004 16.4347 256.451 16.7926C256.904 17.1456 257.461 17.3221 258.122 17.3221Z" fill="black" />
  </g>
  <defs>
    <clipPath id="clip0_803_26">
      <rect width="266" height="28" fill="white" />
    </clipPath>
  </defs>
</svg>
