<?xml version="1.0" encoding="utf-8"?>

<!--
 * Copyright (c) 2020, WSO2 Inc. (http://www.wso2.org) All Rights Reserved.
 *
 * WSO2 Inc. licenses this file to you under the Apache License,
 * Version 2.0 (the "License"); you may not use this file except
 * in compliance with the License.
 * You may obtain a copy of the License at
 *
 *     http://www.apache.org/licenses/LICENSE-2.0
 *
 * Unless required by applicable law or agreed to in writing,
 * software distributed under the License is distributed on an
 * "AS IS" BASIS, WITHOUT WARRANTIES OR CONDITIONS OF ANY
 * KIND, either express or implied. See the License for the
 * specific language governing permissions and limitations
 * under the License.
-->

<svg version="1.1" id="twitter-logo" class="icon" xmlns="http://www.w3.org/2000/svg"
     xmlns:xlink="http://www.w3.org/1999/xlink" width="100" height="100" viewBox="-10 -15 100 100">
    <g id="twitter" transform="translate(0 -0.822)">
        <path id="Path_135"
              d="M79.949,8.513A32.8,32.8,0,0,1,70.528,11.1,16.452,16.452,0,0,0,77.74,2.022,32.849,32.849,0,0,1,67.325,6a16.418,16.418,0,0,0-27.951,14.96A46.567,46.567,0,0,1,5.566,3.824a16.42,16.42,0,0,0,5.076,21.9,16.337,16.337,0,0,1-7.43-2.051c0,.068,0,.137,0,.206A16.412,16.412,0,0,0,16.369,39.961a16.442,16.442,0,0,1-7.407.281A16.419,16.419,0,0,0,24.284,51.633,32.911,32.911,0,0,1,3.913,58.655,33.367,33.367,0,0,1,0,58.426a46.427,46.427,0,0,0,25.144,7.369c30.17,0,46.668-24.994,46.668-46.669q0-1.067-.047-2.122a33.338,33.338,0,0,0,8.185-8.491"
              fill="#55acee"/>
    </g>
</svg>
