<!--
 * Copyright (c) 2021, WSO2 Inc. (http://www.wso2.org) All Rights Reserved.
 *
 * WSO2 Inc. licenses this file to you under the Apache License,
 * Version 2.0 (the "License"); you may not use this file except
 * in compliance with the License.
 * You may obtain a copy of the License at
 *
 *     http://www.apache.org/licenses/LICENSE-2.0
 *
 * Unless required by applicable law or agreed to in writing,
 * software distributed under the License is distributed on an
 * "AS IS" BASIS, WITHOUT WARRANTIES OR CONDITIONS OF ANY
 * KIND, either express or implied. See the License for the
 * specific language governing permissions and limitations
 * under the License.
-->

<svg class="icon" xmlns="http://www.w3.org/2000/svg" width="22.223" height="11.111" viewBox="0 0 22.223 11.111">
    <path class="path" id="community-icon"
          d="M16.664,17.111H5.558l0-.577c0-1.166.093-1.839,1.47-2.157,1.559-.36,3.1-.681,2.357-2.045C7.192,8.292,8.759,6,11.11,6c2.307,0,3.913,2.207,1.728,6.333-.718,1.356.765,1.678,2.357,2.045,1.38.319,1.471.993,1.471,2.16l0,.573Zm4.455-2.05c-1.194-.276-2.306-.518-1.768-1.534,1.638-3.095.434-4.749-1.3-4.749a1.986,1.986,0,0,0-2.082,2.152c0,3.614,2.1,1.639,2.08,6.182h4.168l0-.429c0-.876-.069-1.382-1.1-1.621ZM0,17.111H4.17c-.019-4.543,2.08-2.567,2.08-6.182A1.986,1.986,0,0,0,4.168,8.778c-1.731,0-2.934,1.655-1.3,4.749C3.41,14.545,2.3,14.785,1.1,15.061.069,15.3,0,15.807,0,16.683l0,.429Z"
          transform="translate(0 -6)" fill="#fff"/>
</svg>
