<svg width="24" height="24" viewBox="0 0 24 24" fill="none" xmlns="http://www.w3.org/2000/svg">
<path fill-rule="evenodd" clip-rule="evenodd" d="M19.5 4.5C19.5 5.88071 18.3807 7 17 7C15.6193 7 14.5 5.88071 14.5 4.5C14.5 3.11929 15.6193 2 17 2C18.3807 2 19.5 3.11929 19.5 4.5ZM20.5 4.5C20.5 6.433 18.933 8 17 8C15.067 8 13.5 6.433 13.5 4.5C13.5 2.567 15.067 1 17 1C18.933 1 20.5 2.567 20.5 4.5ZM12 7.5C12 9.433 10.433 11 8.5 11C6.567 11 5 9.433 5 7.5C5 5.567 6.567 4 8.5 4C10.433 4 12 5.567 12 7.5ZM13 7.5C13 9.98528 10.9853 12 8.5 12C6.01472 12 4 9.98528 4 7.5C4 5.01472 6.01472 3 8.5 3C10.9853 3 13 5.01472 13 7.5ZM15.9909 17.5H15.9375V18.5H16V22H1V17.764C1 15.6852 2.68522 14 4.76404 14C4.89561 14 5.02339 14.0441 5.12692 14.1253L7.26572 15.8028C7.99042 16.3712 9.00958 16.3712 9.73428 15.8028L11.8731 14.1253C11.9766 14.0441 12.1044 14 12.236 14C14.226 14 15.8554 15.5444 15.9909 17.5ZM16.9928 17.5C16.8558 14.9917 14.7785 13 12.236 13C11.8806 13 11.5355 13.1192 11.2559 13.3385L9.11714 15.016C8.75479 15.3002 8.24521 15.3002 7.88286 15.016L5.74406 13.3385C5.46446 13.1192 5.11938 13 4.76404 13C2.13293 13 0 15.1329 0 17.764V22V23H1H16H17V22V18.5H23.4375H23.9375V18V13.6297C23.9375 11.3489 22.0886 9.5 19.8078 9.5C19.4123 9.5 19.029 9.63713 18.7232 9.88802L17.2547 11.093C17.0703 11.2443 16.8047 11.2443 16.6203 11.093L15.3703 10.0673C14.9232 9.70049 14.3628 9.5 13.7845 9.5H13.5V10.5H13.7845C14.1315 10.5 14.4677 10.6203 14.736 10.8404L15.986 11.8661C16.5392 12.3199 17.3358 12.3199 17.889 11.8661L19.3575 10.6611C19.4845 10.5569 19.6436 10.5 19.8078 10.5C21.5363 10.5 22.9375 11.9012 22.9375 13.6297V17.5H16.9928Z" fill="#FF7300"/>
</svg>
