<!--
 * Copyright (c) 2021, WSO2 Inc. (http://www.wso2.com). All Rights Reserved.
 *
 * This software is the property of WSO2 Inc. and its suppliers, if any.
 * Dissemination of any information or reproduction of any material contained
 * herein in any form is strictly forbidden, unless permitted by WSO2 expressly.
 * You may not alter or remove any copyright or other notice from copies of this content."
-->

<svg class="icon" xmlns="http://www.w3.org/2000/svg" width="11.373" height="14.216" viewBox="0 0 11.373 14.216">
  <path class="path" id="dollar-icon"
      d="M6.087,13.95,4.836,12.7,3.585,13.95a.3.3,0,0,1-.249.085.3.3,0,0,1-.248-.085L1.835,12.7.8,13.738a.3.3,0,0,1-.18.086c0,.005,0,.011,0,.016h0c-.02,0-.039-.01-.058-.016a.3.3,0,0,1-.19-.087l0-.005A.806.806,0,0,1,0,13.06V2.78a1,1,0,0,1,1-1H8.56a1,1,0,0,1,1,1V13.06a.806.806,0,0,1-.337.651.336.336,0,0,1-.023.027.3.3,0,0,1-.209.088l-.05.014c0-.005,0-.011,0-.016a.3.3,0,0,1-.169-.085l-.988-.988-1.2,1.2a.3.3,0,0,1-.212.087l-.037,0-.037,0A.3.3,0,0,1,6.087,13.95ZM5.1,12.111,6.336,13.35l1.213-1.213.023-.025a.3.3,0,0,1,.428,0l.022.025.938.938V2.979a.6.6,0,0,0-.6-.6H1.2a.6.6,0,0,0-.6.6V13.087l.975-.976a.3.3,0,0,1,.262-.084.3.3,0,0,1,.261.084L3.335,13.35l1.239-1.238a.3.3,0,0,1,.261-.084.3.3,0,0,1,.049,0A.3.3,0,0,1,5.1,12.111ZM10.88,12.1v0l0-.006s0-.005,0-.008A.294.294,0,0,1,10.715,12l-.554-.554v-.85l.74.74V1.238a.6.6,0,0,0-.6-.6H3.14a.6.6,0,0,0-.6.541h-.6v-.14a1,1,0,0,1,1-1H10.5a1,1,0,0,1,1,1v10.28a.807.807,0,0,1-.337.652L11.139,12a.3.3,0,0,1-.209.089l-.049.013Zm-6.3-1.312v-.634a1.434,1.434,0,0,1-.968-.44,1.489,1.489,0,0,1-.35-1.041h.615a.973.973,0,0,0,.242.71.914.914,0,0,0,.688.249,1.03,1.03,0,0,0,.684-.209.706.706,0,0,0,.249-.571.691.691,0,0,0-.214-.515A1.923,1.923,0,0,0,4.8,7.957a2.319,2.319,0,0,1-1.031-.562,1.245,1.245,0,0,1-.323-.882,1.279,1.279,0,0,1,.317-.894A1.349,1.349,0,0,1,4.635,5.2V4.477H5.13v.731A1.279,1.279,0,0,1,6,5.675a1.683,1.683,0,0,1,.31,1.073H5.7A1.156,1.156,0,0,0,5.475,6a.73.73,0,0,0-.6-.277.828.828,0,0,0-.6.205.761.761,0,0,0-.21.571.7.7,0,0,0,.221.541,2.033,2.033,0,0,0,.727.365,3.038,3.038,0,0,1,.79.363,1.277,1.277,0,0,1,.418.46,1.325,1.325,0,0,1,.135.615,1.229,1.229,0,0,1-.338.9,1.5,1.5,0,0,1-.945.406v.634Z"
  />
</svg> 
