<?xml version="1.0" encoding="UTF-8" standalone="no"?>

<!--
 * Copyright (c) 2019, WSO2 Inc. (http://www.wso2.org) All Rights Reserved.
 *
 * WSO2 Inc. licenses this file to you under the Apache License,
 * Version 2.0 (the "License"); you may not use this file except
 * in compliance with the License.
 * You may obtain a copy of the License at
 *
 *     http://www.apache.org/licenses/LICENSE-2.0
 *
 * Unless required by applicable law or agreed to in writing,
 * software distributed under the License is distributed on an
 * "AS IS" BASIS, WITHOUT WARRANTIES OR CONDITIONS OF ANY
 * KIND, either express or implied. See the License for the
 * specific language governing permissions and limitations
 * under the License.
-->

<svg xmlns:svg="http://www.w3.org/2000/svg" xmlns="http://www.w3.org/2000/svg" id="email-icon" height="14" width="14"
     xml:space="preserve" viewBox="0 0 420 420" y="0px" x="0px" version="1.1" class="icon">
   <path class="path fill primary" d="M 209.46992,91.817395 208.35184,93.095736 11.863524,319.59479 H 407.07633 Z m 0,4.532303 191.07445,220.281642
      H 18.39548 Z" />
   <polygon class="path fill primary" transform="matrix(30.129386,0,0,29.750516,-1.4357757,-47.521938)" points="13.45,2.22 7,9.76 0.55,2.22 " />
   <path class="path fill secondary" d="M 38.324416,0.05859375 C 17.194139,0.05859375 0.07421875,17.362777 0.07421875,37.885909 V 295.18139 c 0,20.86455
      17.46570225,37.82731 38.25019725,37.82731 H 380.63425 c 21.02362,0 38.25019,-17.06808 38.25019,-37.82731 V 37.885909 c 0,-20.864566 -17.4657,
      -37.82731525 -38.25019,-37.82731525 z m 0,29.75051725 H 380.63425 c 4.5242,0 8.1208,3.355924 8.1208,8.076798 V 295.18139 c 0,4.23116 -3.83574,8.0768
      -8.1208,8.0768 H 38.324416 c -4.524193,0 -8.12081,-3.35595 -8.12081,-8.0768 V 37.885909 c 0,-4.467296 3.339812,-8.076798 8.12081,-8.076798 z" />
</svg>
