<?xml version="1.0" encoding="utf-8"?>

<!--
 * Copyright (c) 2020, WSO2 Inc. (http://www.wso2.org) All Rights Reserved.
 *
 * WSO2 Inc. licenses this file to you under the Apache License,
 * Version 2.0 (the "License"); you may not use this file except
 * in compliance with the License.
 * You may obtain a copy of the License at
 *
 *     http://www.apache.org/licenses/LICENSE-2.0
 *
 * Unless required by applicable law or agreed to in writing,
 * software distributed under the License is distributed on an
 * "AS IS" BASIS, WITHOUT WARRANTIES OR CONDITIONS OF ANY
 * KIND, either express or implied. See the License for the
 * specific language governing permissions and limitations
 * under the License.
-->

<svg version="1.1" id="issuer-icon" xmlns="http://www.w3.org/2000/svg" class="icon" width="14" height="14" viewBox="0 0 60 60" xml:space="preserve">
  <g id="admin" transform="translate(-2 -2)">
    <rect id="Rectangle_3" data-name="Rectangle 3" width="2" height="2" transform="translate(15 17)"/>
    <rect id="Rectangle_4" data-name="Rectangle 4" width="2" height="2" transform="translate(23 17)"/>
    <path id="Path_303" data-name="Path 303" d="M61.12,48.11l-2.4-.31,1.49-1.91a1.006,1.006,0,0,0-.08-1.32l-2.7-2.7a1.006,1.006,0,0,0-1.32-.08L54.2,43.28l-.31-2.4A1,1,0,0,0,52.9,40H52v-.9a1.013,1.013,0,0,0-.88-1l-2.4-.3,1.49-1.91a.994.994,0,0,0-.09-1.32l-2.69-2.69a.994.994,0,0,0-1.32-.09L44.2,33.28l-.3-2.4a1.013,1.013,0,0,0-1-.88H39.1a1.013,1.013,0,0,0-1,.88l-.3,2.4-1.91-1.49a.994.994,0,0,0-1.32.09l-2.69,2.69a.874.874,0,0,0-.25.46c-.21-.01-.42-.03-.63-.03H27.33L24,32.5V30.16A10.024,10.024,0,0,0,29.95,22H30a3.009,3.009,0,0,0,3-3V18a3,3,0,0,0-1.83-2.76l1.54-1.53A1.033,1.033,0,0,0,33,13V11a9.014,9.014,0,0,0-9-9H16a9.014,9.014,0,0,0-9,9v2a1.033,1.033,0,0,0,.29.71l1.54,1.53A3,3,0,0,0,7,18v1a3.009,3.009,0,0,0,3,3h.05A10.024,10.024,0,0,0,16,30.16V32.5L12.67,35H9a7.008,7.008,0,0,0-7,7V55a1,1,0,0,0,1,1H37a1,1,0,0,0,1-1V50.3l.1.82a1.013,1.013,0,0,0,1,.88H40v.9a1,1,0,0,0,.88.99l2.4.31-1.49,1.91a1.006,1.006,0,0,0,.08,1.32l2.7,2.7a1.006,1.006,0,0,0,1.32.08l1.91-1.49.31,2.4a1,1,0,0,0,.99.88h3.8a1,1,0,0,0,.99-.88l.31-2.4,1.91,1.49a1.006,1.006,0,0,0,1.32-.08l2.7-2.7a1.006,1.006,0,0,0,.08-1.32L58.72,54.2l2.4-.31A1,1,0,0,0,62,52.9V49.1A1,1,0,0,0,61.12,48.11ZM31,19a1,1,0,0,1-1,1V17a1,1,0,0,1,1,1ZM10,20a1,1,0,0,1-1-1V18a1,1,0,0,1,1-1Zm0-7v.59l-1-1V11a7.008,7.008,0,0,1,7-7h8a7.008,7.008,0,0,1,7,7v1.59l-1,1V13a.985.985,0,0,0-.74-.96l-11-3a.969.969,0,0,0-.65.04l-7,3A1,1,0,0,0,10,13Zm2,8V13.66l6.07-2.6L28,13.76V21a8,8,0,0,1-16,0Zm5.6,12.8A1.014,1.014,0,0,0,18,33V30.8a10.1,10.1,0,0,0,4,0V33a1.014,1.014,0,0,0,.4.8l2.78,2.09L20,38.85l-5.18-2.96Zm1.9,7.07a1.044,1.044,0,0,0,1,0l5.09-2.91L24.18,45H15.82l-1.41-7.04ZM36,54H4V42a5,5,0,0,1,5-5h3.18l1.84,9.2A1,1,0,0,0,15,47H25a1,1,0,0,0,.98-.8L27.82,37H31a4.755,4.755,0,0,1,1.98.42l.3.38-2.4.3a1.013,1.013,0,0,0-.88,1v3.8a1.013,1.013,0,0,0,.88,1l2.4.3-1.49,1.91a.994.994,0,0,0,.09,1.32l2.69,2.69a.994.994,0,0,0,1.32.09l.11-.09Zm3.98-4-.3-2.37a.989.989,0,0,0-.66-.82,7.756,7.756,0,0,1-.72-.3.979.979,0,0,0-1.05.11l-1.89,1.47-1.45-1.45,1.47-1.89a.979.979,0,0,0,.11-1.05c-.11-.23-.21-.47-.3-.71a.984.984,0,0,0-.82-.67L32,42.02V39.98l2.37-.3a.984.984,0,0,0,.82-.67c.09-.24.19-.48.3-.71a.979.979,0,0,0-.11-1.05l-1.47-1.89,1.45-1.45,1.89,1.47a.979.979,0,0,0,1.05.11c.23-.11.47-.21.71-.3a1,1,0,0,0,.67-.82l.3-2.37h2.04l.3,2.37a1,1,0,0,0,.67.82c.24.09.48.19.71.3a.979.979,0,0,0,1.05-.11l1.89-1.47,1.45,1.45-1.47,1.89a.979.979,0,0,0-.11,1.05c.11.23.21.47.3.71a.984.984,0,0,0,.82.67l2.37.3v2.04l-2.37.3a.984.984,0,0,0-.82.67c-.09.24-.19.48-.3.71a.979.979,0,0,0,.11,1.05l1.47,1.89-1.45,1.45-1.89-1.47a.979.979,0,0,0-1.05-.11,7.758,7.758,0,0,1-.72.3.989.989,0,0,0-.66.82L42.02,50ZM51,48a3,3,0,1,1-3,3A3,3,0,0,1,51,48Zm9,4.02-2.38.3a1.019,1.019,0,0,0-.83.69,4.26,4.26,0,0,1-.28.7.982.982,0,0,0,.11,1.04l1.47,1.89-1.45,1.45-1.89-1.47a.98.98,0,0,0-1.04-.11,4.26,4.26,0,0,1-.7.28,1.019,1.019,0,0,0-.69.83L52.02,60H49.98l-.3-2.38a1.019,1.019,0,0,0-.69-.83,4.26,4.26,0,0,1-.7-.28.982.982,0,0,0-1.04.11l-1.89,1.47-1.45-1.45,1.47-1.89a.982.982,0,0,0,.11-1.04,4.26,4.26,0,0,1-.28-.7,1.019,1.019,0,0,0-.83-.69L42,52.02V52h.9a1.013,1.013,0,0,0,1-.88l.3-2.4,1.88,1.47A5.293,5.293,0,0,0,46,51a5,5,0,1,0,5-5,5.293,5.293,0,0,0-.81.08L48.72,44.2l2.4-.3a1.013,1.013,0,0,0,.88-1V42h.02l.3,2.38a1.019,1.019,0,0,0,.69.83,4.26,4.26,0,0,1,.7.28.98.98,0,0,0,1.04-.11l1.89-1.47,1.45,1.45-1.47,1.89a.982.982,0,0,0-.11,1.04,4.26,4.26,0,0,1,.28.7,1.019,1.019,0,0,0,.83.69l2.38.3Z"/>
    <path id="Path_304" data-name="Path 304" d="M46,41a5,5,0,1,0-5,5,5,5,0,0,0,5-5Zm-5,3a3,3,0,1,1,3-3A3,3,0,0,1,41,44Z"/>
  </g>
</svg>
