<svg xmlns="http://www.w3.org/2000/svg" width="13.161" height="12.031" viewBox="0 0 13.161 12.031">
  <g id="login-attempts-icon" transform="translate(0 -20.882)">
    <g id="Group_1317" data-name="Group 1317" transform="translate(0 20.882)">
      <path id="Path_2358" data-name="Path 2358" d="M12.84,31.733a2.31,2.31,0,0,0,.005-2.337L8.609,22.059a2.334,2.334,0,0,0-4.053,0L.314,29.4a2.343,2.343,0,0,0,2.029,3.512h8.463A2.33,2.33,0,0,0,12.84,31.733Zm-.92-.53a1.278,1.278,0,0,1-1.117.647H2.34a1.261,1.261,0,0,1-1.1-.633,1.28,1.28,0,0,1,0-1.29l4.242-7.343a1.274,1.274,0,0,1,2.213,0l4.239,7.343A1.263,1.263,0,0,1,11.92,31.2Z" transform="translate(0 -20.882)"/>
      <path id="Path_2372" data-name="Path 2372" d="M3.719,0H.373V-.571L2.03-2.379a4.128,4.128,0,0,0,.511-.668,1.083,1.083,0,0,0,.152-.538.818.818,0,0,0-.2-.574.694.694,0,0,0-.538-.219.8.8,0,0,0-.625.246.968.968,0,0,0-.222.673H.277a1.628,1.628,0,0,1,.207-.819,1.424,1.424,0,0,1,.591-.566,1.882,1.882,0,0,1,.887-.2,1.683,1.683,0,0,1,1.143.364,1.264,1.264,0,0,1,.419,1.007,1.708,1.708,0,0,1-.21.781,4.441,4.441,0,0,1-.689.928L1.408-.663H3.719Z" transform="translate(4.7 9.5)"/>
    </g>
  </g>
</svg>
