<!--
 * Copyright (c) 2021, WSO2 Inc. (http://www.wso2.org) All Rights Reserved.
 *
 * WSO2 Inc. licenses this file to you under the Apache License,
 * Version 2.0 (the "License"); you may not use this file except
 * in compliance with the License.
 * You may obtain a copy of the License at
 *
 *     http://www.apache.org/licenses/LICENSE-2.0
 *
 * Unless required by applicable law or agreed to in writing,
 * software distributed under the License is distributed on an
 * "AS IS" BASIS, WITHOUT WARRANTIES OR CONDITIONS OF ANY
 * KIND, either express or implied. See the License for the
 * specific language governing permissions and limitations
 * under the License.
-->

<svg xmlns="http://www.w3.org/2000/svg" id="myaccount-icon" class="icon" width="14" height="14" viewBox="0 0 14 14">
  <path id="account-icon-2" d="M-264,14a2,2,0,0,1-2-2V2a2,2,0,0,1,2-2h10a2,2,0,0,1,2,2V12a2,2,0,0,1-2,2Zm-1-12V12a1,1,0,0,0,1,1h10a1,1,0,0,0,1-1V2a1,1,0,0,0-1-1h-10A1,1,0,0,0-265,2Zm2,10h-1a5.007,5.007,0,0,1,3.146-4.644A3,3,0,0,1-262,5a3,3,0,0,1,3-3,3,3,0,0,1,3,3,3,3,0,0,1-1.146,2.357A5.008,5.008,0,0,1-254,12h-1a3.976,3.976,0,0,0-1.173-2.827A3.972,3.972,0,0,0-259,8a4,4,0,0,0-4,4h0Zm2-7a2,2,0,0,0,2,2,2,2,0,0,0,2-2,2,2,0,0,0-2-2A2,2,0,0,0-261,5Z" transform="translate(266)"/>
</svg>
