<!--
 * Copyright (c) 2019, WSO2 Inc. (http://www.wso2.org) All Rights Reserved.
 *
 * WSO2 Inc. licenses this file to you under the Apache License,
 * Version 2.0 (the "License"); you may not use this file except
 * in compliance with the License.
 * You may obtain a copy of the License at
 *
 *     http://www.apache.org/licenses/LICENSE-2.0
 *
 * Unless required by applicable law or agreed to in writing,
 * software distributed under the License is distributed on an
 * "AS IS" BASIS, WITHOUT WARRANTIES OR CONDITIONS OF ANY
 * KIND, either express or implied. See the License for the
 * specific language governing permissions and limitations
 * under the License.
-->

<svg id="open-book" class="icon" height="14" viewBox="0 0 512.001 512.001" width="14" xmlns="http://www.w3.org/2000/svg">
    <g>
        <path class="path" d="m30.071 413.183c.321 2.696 1.726 5.147 3.89 6.787 2.166 1.642 4.904 2.327 7.587 1.91.601-.095 60.401-9.302 91.677-.272 45.103 13.03 75.339 45.369 82.963 54.226 1.936 20.263 19.049 36.166 39.812 36.166 20.767 0 37.883-15.91 39.813-36.18 7.599-8.868 37.663-41.126 82.961-54.213 31.227-9.013 91.08.178 91.68.272 5.604.875 10.808-3.083 11.476-8.697l9.68-81.312c.653-5.484-3.264-10.46-8.748-11.112-5.479-.647-10.458 3.264-11.112 8.747l-8.479 71.224c-19.638-2.381-62.744-6.219-90.046 1.663-34.717 10.029-61.13 29.735-77.225 44.561v-254.404c5.449-9.547 32.63-52.549 80-52.549 36.842 0 81.082 12.321 115.183 26.269l-8.793 73.863c-.707 5.935 3.922 11.183 9.942 11.183 4.994 0 9.312-3.736 9.917-8.818l9.68-81.313c.515-4.324-1.828-8.485-5.792-10.286-.688-.313-15.498-7.005-37.498-14.118l7.3-65.674c.314-2.827-.59-5.654-2.487-7.773-1.898-2.122-4.607-3.333-7.452-3.333-7.914 0-15.852.464-23.719 1.384l3.693-50.656c.202-2.771-.758-5.502-2.65-7.537-1.892-2.034-4.545-3.191-7.324-3.191-74.017 0-137.389 53.533-149.594 126.717-10.512 63.575-10.406 61.588-10.406 63.283 0 11.028-8.972 20-20 20s-20-8.972-20-20c0-2.102-.685-4.245-10.406-63.284-12.175-73.008-75.399-126.716-149.594-126.716-2.778 0-5.432 1.156-7.324 3.19-1.892 2.035-2.852 4.766-2.65 7.537l3.693 50.657c-7.868-.92-15.806-1.384-23.719-1.384-2.845 0-5.554 1.211-7.452 3.331-1.897 2.119-2.801 4.946-2.487 7.773l7.3 65.674c-22 7.114-36.81 13.805-37.498 14.118-3.965 1.801-6.308 5.962-5.792 10.286zm424.718-332.84-5.628 50.636c-26.834-7.288-51.399-10.979-73.161-10.979-10.991 0-21.041 1.778-30.167 4.745 30.372-26.141 68.386-41.922 108.956-44.402zm-148.655 49.662c10.033-60.162 59.25-104.754 119.079-109.572l-3.235 44.373c-45.154 9.989-87.121 35.323-117.368 74.345zm-50.134 99.995c7.283 0 14.112-1.966 20-5.381v247.381c0 11.028-8.972 20-20 20s-20-8.972-20-20v-247.381c5.889 3.415 12.717 5.381 20 5.381zm-50.134-99.996 1.524 9.146c-30.275-39.06-72.283-64.371-117.368-74.345l-3.235-44.373c59.83 4.819 109.047 49.411 119.079 109.572zm-39.697-5.258c-9.127-2.967-19.178-4.746-30.169-4.746-21.762 0-46.326 3.691-73.16 10.979l-5.628-50.636c40.409 2.47 78.462 18.156 108.957 44.403zm-30.169 15.254c47.363 0 74.545 42.993 80 52.548v254.405c-16.094-14.825-42.508-34.531-77.226-44.561-25.047-7.232-64.242-4.791-90.045-1.663l-27.912-234.463c34.134-13.965 78.374-26.266 115.183-26.266z"/>
        <circle class="path" cx="487" cy="286.001" r="10"/>
    </g>
</svg>
