<!--
 * Copyright (c) 2021, WSO2 Inc. (http://www.wso2.org) All Rights Reserved.
 *
 * WSO2 Inc. licenses this file to you under the Apache License,
 * Version 2.0 (the "License"); you may not use this file except
 * in compliance with the License.
 * You may obtain a copy of the License at
 *
 *     http://www.apache.org/licenses/LICENSE-2.0
 *
 * Unless required by applicable law or agreed to in writing,
 * software distributed under the License is distributed on an
 * "AS IS" BASIS, WITHOUT WARRANTIES OR CONDITIONS OF ANY
 * KIND, either express or implied. See the License for the
 * specific language governing permissions and limitations
 * under the License.
-->

<svg xmlns="http://www.w3.org/2000/svg" xmlns:xlink="http://www.w3.org/1999/xlink" width="80" height="80" viewBox="0 0 80 80">
  <defs>
    <linearGradient id="linear-gradient" x1="0.078" y1="0.051" x2="0.91" y2="0.934" gradientUnits="objectBoundingBox">
      <stop offset="0" stop-color="#ff7300"/>
      <stop offset="1" stop-color="#ff8018"/>
    </linearGradient>
  </defs>
  <g id="secret-orange" transform="translate(-235 -338)">
    <rect id="Rectangle_1027" data-name="Rectangle 1027" width="80" height="80" rx="4" transform="translate(235 338)" fill="url(#linear-gradient)"/>
    <g id="key_10_" data-name="key (10)" transform="translate(256.435 359.436)">
      <g id="Group_1338" data-name="Group 1338" transform="translate(0)">
        <g id="Group_1337" data-name="Group 1337">
          <path id="Path_2407" data-name="Path 2407" d="M0,36.045a1.089,1.089,0,0,0,1.088,1.085H7.242a1.088,1.088,0,0,0,.769-.319L21.484,23.338a11.967,11.967,0,1,0-7.693-7.693l-.931.931-3.523.7a1.088,1.088,0,0,0-.853.853L7.856,21.27,4.721,21.9a1.088,1.088,0,0,0-.854.854l-.6,2.991H1.088A1.088,1.088,0,0,0,0,26.83v9.211S0,36.044,0,36.045Zm2.176-8.126H4.165a1.088,1.088,0,0,0,1.067-.876l.628-3.155,3.134-.627a1.088,1.088,0,0,0,.853-.853l.627-3.135,3.135-.627a1.088,1.088,0,0,0,.556-.3L15.816,16.7a1.088,1.088,0,0,0,.244-1.166A9.791,9.791,0,1,1,21.6,21.069a1.088,1.088,0,0,0-1.166.244L6.791,34.953H3.714L17.243,21.425A1.088,1.088,0,1,0,15.7,19.886L2.176,33.415Z" transform="translate(0 0)" fill="#fff"/>
        </g>
      </g>
      <g id="Group_1340" data-name="Group 1340" transform="translate(24.983 5.622)">
        <g id="Group_1339" data-name="Group 1339" transform="translate(0)">
          <path id="Path_2408" data-name="Path 2408" d="M78.483,350.07a3.264,3.264,0,1,0,0-4.616A3.267,3.267,0,0,0,78.483,350.07Zm1.539-3.077a1.088,1.088,0,1,1,0,1.539A1.087,1.087,0,0,1,80.022,346.993Z" transform="translate(-77.529 -344.5)" fill="#fff"/>
        </g>
      </g>
    </g>
  </g>
</svg>
