<?xml version="1.0" encoding="iso-8859-1"?>

<!--
 * Copyright (c) 2019, WSO2 Inc. (http://www.wso2.org) All Rights Reserved.
 *
 * WSO2 Inc. licenses this file to you under the Apache License,
 * Version 2.0 (the "License"); you may not use this file except
 * in compliance with the License.
 * You may obtain a copy of the License at
 *
 *     http://www.apache.org/licenses/LICENSE-2.0
 *
 * Unless required by applicable law or agreed to in writing,
 * software distributed under the License is distributed on an
 * "AS IS" BASIS, WITHOUT WARRANTIES OR CONDITIONS OF ANY
 * KIND, either express or implied. See the License for the
 * specific language governing permissions and limitations
 * under the License.
-->

<svg version="1.1"  class="icon" id="sms-icon" xmlns="http://www.w3.org/2000/svg" xmlns:xlink="http://www.w3.org/1999/xlink" x="0px" y="0px"
	 width="14px" height="14px" viewBox="0 0 490 490" xml:space="preserve">
	<g>
		<g>
			<path class="path fill primary" d="M87.412,205.872c5.456,3.318,16.772,7.22,25.547,7.22c8.969,0,12.676-3.124,12.676-7.997c0-4.888-2.93-7.22-14.037-10.927 c-19.702-6.637-27.311-17.355-27.117-28.671c0-17.744,15.218-31.198,38.806-31.198c11.122,0,21.078,2.526,26.923,5.456 l-5.262,20.48c-4.29-2.347-12.482-5.471-20.674-5.471c-7.22,0-11.316,2.93-11.316,7.803c0,4.485,3.707,6.832,15.412,10.927 c18.133,6.234,25.741,15.412,25.936,29.449c0,17.744-14.037,30.809-41.348,30.809c-12.482,0-23.604-2.721-30.809-6.622 L87.412,205.872z"/>
			<path class="path fill primary" d="M172.23,166.856c0-11.884-0.389-22.034-0.777-30.42h24.964l1.36,12.871h0.583c4.096-6.039,12.482-15.008,28.866-15.008 c12.288,0,22.034,6.233,26.13,16.174h0.389c3.513-4.873,7.803-8.775,12.288-11.495c5.277-3.124,11.122-4.679,18.148-4.679 c18.327,0,32.184,12.871,32.184,41.333v56.177h-28.866v-51.872c0-13.857-4.5-21.855-14.052-21.855 c-6.817,0-11.705,4.679-13.648,10.344c-0.777,2.138-1.166,5.262-1.166,7.609v55.773h-28.866v-53.441 c0-12.093-4.29-20.285-13.663-20.285c-7.594,0-12.093,5.86-13.842,10.733c-0.972,2.332-1.166,5.068-1.166,7.415v55.579H172.23 V166.856z"/>
			<path class="path fill primary" d="M339.729,205.872c5.456,3.318,16.772,7.22,25.547,7.22c8.969,0,12.676-3.124,12.676-7.997 c0-4.888-2.93-7.22-14.037-10.927c-19.702-6.637-27.311-17.355-27.117-28.671c0-17.744,15.218-31.198,38.807-31.198 c11.122,0,21.063,2.526,26.922,5.456l-5.262,20.48c-4.29-2.347-12.482-5.471-20.674-5.471c-7.22,0-11.316,2.93-11.316,7.803 c0,4.485,3.707,6.832,15.412,10.927c18.133,6.234,25.742,15.412,25.936,29.449c0,17.744-14.037,30.809-41.348,30.809 c-12.482,0-23.604-2.721-30.809-6.622L339.729,205.872z"/>
		</g>
		<g>
			<path class="path fill secondary" d="M383.947,490L230.694,364.252H50.713c-27.924,0-50.631-23.111-50.631-51.528V51.528C0.082,23.111,22.789,0,50.713,0 h388.574c27.924,0,50.631,23.111,50.631,51.528v261.197c0,28.417-22.707,51.528-50.631,51.528h-55.34V490z M50.713,30.615 c-11.032,0-20.016,9.388-20.016,20.913v261.197c0,11.525,8.984,20.913,20.016,20.913h190.923l111.696,91.635v-91.635h85.954 c11.032,0,20.016-9.388,20.016-20.913V51.528c0-11.525-8.984-20.913-20.016-20.913H50.713z"/>
		</g>
	</g>
</svg>
