<?xml version="1.0" encoding="iso-8859-1"?>

<!--
 * Copyright (c) 2020, WSO2 Inc. (http://www.wso2.org) All Rights Reserved.
 *
 * WSO2 Inc. licenses this file to you under the Apache License,
 * Version 2.0 (the "License"); you may not use this file except
 * in compliance with the License.
 * You may obtain a copy of the License at
 *
 *     http://www.apache.org/licenses/LICENSE-2.0
 *
 * Unless required by applicable law or agreed to in writing,
 * software distributed under the License is distributed on an
 * "AS IS" BASIS, WITHOUT WARRANTIES OR CONDITIONS OF ANY
 * KIND, either express or implied. See the License for the
 * specific language governing permissions and limitations
 * under the License.
-->

<svg xmlns="http://www.w3.org/2000/svg" id="user-group-icon" class="icon" width="14" height="14"
     viewBox="0 0 14 10.591">
    <path id="user-groups-outline" class="path fill primary"
          d="M2.565,10.591h-.6c0-.089,0-.164,0-.23A5.008,5.008,0,0,1,5.82,5.492a2.866,2.866,0,1,1,2.287,0,5.009,5.009,0,0,1,3.854,4.868c0,.074,0,.151-.005.228l-.6,0c0-.072.006-.149.006-.23a4.4,4.4,0,0,0-8.8,0c0,.076,0,.153.005.23h0ZM4.7,2.865A2.265,2.265,0,1,0,6.965.6,2.268,2.268,0,0,0,4.7,2.865ZM.61,10.591H.01C0,10.494,0,10.4,0,10.3A4.506,4.506,0,0,1,3.473,5.918,2.59,2.59,0,0,1,4.445.951a3.119,3.119,0,0,0-.33.537A1.99,1.99,0,1,0,5.02,5.361l.058.043A5.33,5.33,0,0,0,3.2,6.62,3.9,3.9,0,0,0,.6,10.3c0,.1,0,.194.011.289v0Zm13.38,0h-.6c.006-.093.01-.19.01-.29a3.941,3.941,0,0,0-2.724-3.719A5.271,5.271,0,0,0,8.852,5.407l.078-.059a1.993,1.993,0,0,0,2.561-1.907A2,2,0,0,0,9.809,1.475,3.114,3.114,0,0,0,9.486.95H9.5a2.59,2.59,0,0,1,1.026,4.968A4.506,4.506,0,0,1,14,10.3c0,.1,0,.194-.009.289h0Z"
          fill="#464646"/>
</svg>
