<?xml version="1.0" encoding="utf-8"?>

<!--
 * Copyright (c) 2020, WSO2 Inc. (http://www.wso2.org) All Rights Reserved.
 *
 * WSO2 Inc. licenses this file to you under the Apache License,
 * Version 2.0 (the "License"); you may not use this file except
 * in compliance with the License.
 * You may obtain a copy of the License at
 *
 *     http://www.apache.org/licenses/LICENSE-2.0
 *
 * Unless required by applicable law or agreed to in writing,
 * software distributed under the License is distributed on an
 * "AS IS" BASIS, WITHOUT WARRANTIES OR CONDITIONS OF ANY
 * KIND, either express or implied. See the License for the
 * specific language governing permissions and limitations
 * under the License.
-->

<svg id="jdbc-illustration" class="icon" xmlns="http://www.w3.org/2000/svg" xmlns:xlink="http://www.w3.org/1999/xlink"
     width="100" height="100" viewBox="0 0 92.578 77.443">
    <g transform="translate(-4357.824 2535.707)">
        <path class="path fill primary" d="M79.979,24.705a18.63,18.63,0,0,1-11.05,11.42,6.765,6.765,0,0,0-4.363,6.238q0,.088,0,.182A18.668,18.668,0,0,1,30.875,53.191a15.234,15.234,0,0,0-12.192-6.319q-.213,0-.427,0A19.021,19.021,0,0,1,0,28.455a18.674,18.674,0,0,1,36.209-6.668,3.821,3.821,0,0,0,4.632,2.336l.072-.02A3.811,3.811,0,0,0,43.69,20.13a18.673,18.673,0,1,1,36.286,4.579Z"
              transform="translate(4436.728 -2458.264) rotate(-167)" fill="#ffbd9f" opacity="0.1" />
        <path class="path fill tertiary" d="M305.934,39.991a.816.816,0,0,1-.577-.239l-1.8-1.8a.816.816,0,0,1,0-1.154l1.8-1.8a.816.816,0,0,1,1.154,0l1.8,1.8a.816.816,0,0,1,0,1.155l-1.8,1.8a.817.817,0,0,1-.577.238Zm-.644-2.615.644.644.644-.644-.644-.644Z"
              transform="translate(4118.646 -2562.11)" fill="#696969" />
        <path class="path fill secondary" d="M368.647,409.675a.816.816,0,0,1-.577-.239l-1.8-1.8a.816.816,0,0,1,0-1.154l1.8-1.8a.816.816,0,0,1,1.154,0l1.8,1.8a.816.816,0,0,1,0,1.155l-1.8,1.8a.817.817,0,0,1-.577.238ZM368,407.06l.644.644.644-.644-.644-.644Z"
              transform="translate(3997.171 -2921.442)" fill="#595959"/>
        <path class="path fill primary" d="M93.28,450.434a.816.816,0,0,1-.816-.816.984.984,0,0,0-.983-.982.816.816,0,1,1,0-1.633.984.984,0,0,0,.983-.982.816.816,0,1,1,1.633,0,.984.984,0,0,0,.982.982.816.816,0,0,1,0,1.633.984.984,0,0,0-.982.982.816.816,0,0,1-.817.816Z"
              transform="translate(4300.583 -2911.547)" fill="#ffe783" opacity="0.6" />
        <path  class="path fill tertiary" d="M136.613,404.036a.816.816,0,0,1-.816-.816.984.984,0,0,0-.982-.982.816.816,0,1,1,0-1.633.984.984,0,0,0,.982-.982.816.816,0,0,1,1.633,0,.984.984,0,0,0,.983.982.816.816,0,1,1,0,1.633.984.984,0,0,0-.983.982.816.816,0,0,1-.817.816Z"
              transform="translate(4264.326 -2872.724)" fill="#494949" opacity="0.6" />
        <g transform="translate(4384 -2517.567)" opacity="0.2">
            <path class="path fill primary" d="M0-1.086S-.394-8.521,13.951-8.362,27.844-1.086,27.844-1.086V22.407s-6.931,3.415-13.892,3.415S0,22.407,0,22.407Z"
                  transform="translate(0.87 8.917)" fill="#ff5000"/>
            <ellipse class="path fill primary" cx="6.613" cy="6.613" rx="6.613" ry="6.613" transform="translate(20.535 20.708)" fill="#ff5000"/>
            <g transform="translate(0 0)">
                <g transform="translate(0 0)">
                    <g>
                        <path class="path fill primary" d="M345,343.465a3.669,3.669,0,1,0,3.669,3.669A3.673,3.673,0,0,0,345,343.465Zm0,5.871a2.2,2.2,0,1,1,2.2-2.2A2.2,2.2,0,0,1,345,349.336Z"
                              transform="translate(-317.852 -319.838)" fill="#ff5000"/>
                        <path class="path fill primary" d="M19.405,33.412a30.625,30.625,0,0,1-4.729.362c-7.784,0-13.209-2.708-13.209-5.137V24.208c2.353,2.2,7.316,3.7,13.209,3.7.775,0,1.529-.032,2.272-.084a.732.732,0,0,0,.682-.781.719.719,0,0,0-.782-.684c-.709.048-1.431.081-2.172.081-7.784,0-13.209-2.708-13.209-5.137V16.87c2.353,2.2,7.316,3.7,13.209,3.7a30.907,30.907,0,0,0,6.383-.64.734.734,0,1,0-.3-1.437,29.5,29.5,0,0,1-6.079.609c-7.784,0-13.209-2.708-13.209-5.137V9.532c2.353,2.2,7.316,3.7,13.209,3.7s10.856-1.491,13.209-3.7v4.429a3.14,3.14,0,0,1-1.437,2.245.733.733,0,0,0,.446,1.316.727.727,0,0,0,.445-.151,6.637,6.637,0,0,0,.546-.493v.255a.734.734,0,1,0,1.468,0V6.623c0-3.7-6.447-6.6-14.676-6.6S0,2.92,0,6.623V28.638c0,3.7,6.447,6.6,14.676,6.6a32.067,32.067,0,0,0,4.955-.38.734.734,0,1,0-.226-1.45ZM14.676,1.487c7.784,0,13.209,2.708,13.209,5.137S22.461,11.76,14.676,11.76,1.468,9.052,1.468,6.623,6.892,1.487,14.676,1.487Z"
                              transform="translate(0 -0.019)" fill="#ff5000"/>
                        <path class="path fill primary" d="M293.022,286.895a.734.734,0,0,0-.982-.44.707.707,0,0,1-.7-1.221.734.734,0,0,0,.11-1.071,8,8,0,0,0-4.46-2.6.724.724,0,0,0-.58.129.735.735,0,0,0-.3.517.709.709,0,0,1-1.415,0,.74.74,0,0,0-.295-.517.726.726,0,0,0-.58-.129,7.984,7.984,0,0,0-4.46,2.6.734.734,0,0,0,.11,1.071.707.707,0,0,1-.7,1.221.734.734,0,0,0-.982.44,7.5,7.5,0,0,0,0,5.153.734.734,0,0,0,.395.434.724.724,0,0,0,.587.006.707.707,0,0,1,.7,1.221.734.734,0,0,0-.11,1.071,7.976,7.976,0,0,0,4.46,2.6.727.727,0,0,0,.578-.129.735.735,0,0,0,.3-.517.709.709,0,0,1,1.415,0,.736.736,0,0,0,.731.66.837.837,0,0,0,.145-.013,7.967,7.967,0,0,0,4.46-2.6.734.734,0,0,0-.11-1.071.707.707,0,0,1,.7-1.221.734.734,0,0,0,.982-.44,7.5,7.5,0,0,0,0-5.154Zm-1.209,4.07a2.1,2.1,0,0,0-1.961,1.077,2.177,2.177,0,0,0,.045,2.234,6.513,6.513,0,0,1-2.565,1.51,2.168,2.168,0,0,0-3.855,0,6.5,6.5,0,0,1-2.565-1.51,2.174,2.174,0,0,0,.044-2.234,2.12,2.12,0,0,0-1.961-1.077,5.794,5.794,0,0,1,0-2.982,2.106,2.106,0,0,0,1.961-1.077,2.174,2.174,0,0,0-.044-2.234,6.525,6.525,0,0,1,2.564-1.51,2.168,2.168,0,0,0,3.857,0,6.526,6.526,0,0,1,2.564,1.51,2.18,2.18,0,0,0-.044,2.234,2.128,2.128,0,0,0,1.961,1.077,5.8,5.8,0,0,1,0,2.984Z"
                              transform="translate(-258.252 -262.175)" fill="#ff5000"/>
                    </g>
                </g>
            </g>
        </g>
        <g transform="translate(4386.737 -2515.742)">
            <path class="path fill primary" d="M0-1.086S-.394-8.521,13.951-8.362,27.844-1.086,27.844-1.086V22.407s-6.931,3.415-13.892,3.415S0,22.407,0,22.407Z"
                  transform="translate(0.87 8.917)" fill="#ffbd9f" opacity="0.6" />
            <ellipse class="path fill primary" cx="6.613" cy="6.613" rx="6.613" ry="6.613" transform="translate(20.535 20.708)" fill="#fdd250" opacity="0.6" />
            <g transform="translate(0 0)">
                <g transform="translate(0 0)">
                    <g>
                        <path class="path fill primary" d="M345,343.465a3.669,3.669,0,1,0,3.669,3.669A3.673,3.673,0,0,0,345,343.465Zm0,5.871a2.2,2.2,0,1,1,2.2-2.2A2.2,2.2,0,0,1,345,349.336Z"
                              transform="translate(-317.852 -319.838)" fill="#ff5000"/>
                        <path class="path fill primary" d="M19.405,33.412a30.625,30.625,0,0,1-4.729.362c-7.784,0-13.209-2.708-13.209-5.137V24.208c2.353,2.2,7.316,3.7,13.209,3.7.775,0,1.529-.032,2.272-.084a.732.732,0,0,0,.682-.781.719.719,0,0,0-.782-.684c-.709.048-1.431.081-2.172.081-7.784,0-13.209-2.708-13.209-5.137V16.87c2.353,2.2,7.316,3.7,13.209,3.7a30.907,30.907,0,0,0,6.383-.64.734.734,0,1,0-.3-1.437,29.5,29.5,0,0,1-6.079.609c-7.784,0-13.209-2.708-13.209-5.137V9.532c2.353,2.2,7.316,3.7,13.209,3.7s10.856-1.491,13.209-3.7v4.429a3.14,3.14,0,0,1-1.437,2.245.733.733,0,0,0,.446,1.316.727.727,0,0,0,.445-.151,6.637,6.637,0,0,0,.546-.493v.255a.734.734,0,1,0,1.468,0V6.623c0-3.7-6.447-6.6-14.676-6.6S0,2.92,0,6.623V28.638c0,3.7,6.447,6.6,14.676,6.6a32.067,32.067,0,0,0,4.955-.38.734.734,0,1,0-.226-1.45ZM14.676,1.487c7.784,0,13.209,2.708,13.209,5.137S22.461,11.76,14.676,11.76,1.468,9.052,1.468,6.623,6.892,1.487,14.676,1.487Z"
                              transform="translate(0 -0.019)" fill="#ff5000"/>
                        <path class="path fill primary" d="M293.022,286.895a.734.734,0,0,0-.982-.44.707.707,0,0,1-.7-1.221.734.734,0,0,0,.11-1.071,8,8,0,0,0-4.46-2.6.724.724,0,0,0-.58.129.735.735,0,0,0-.3.517.709.709,0,0,1-1.415,0,.74.74,0,0,0-.295-.517.726.726,0,0,0-.58-.129,7.984,7.984,0,0,0-4.46,2.6.734.734,0,0,0,.11,1.071.707.707,0,0,1-.7,1.221.734.734,0,0,0-.982.44,7.5,7.5,0,0,0,0,5.153.734.734,0,0,0,.395.434.724.724,0,0,0,.587.006.707.707,0,0,1,.7,1.221.734.734,0,0,0-.11,1.071,7.976,7.976,0,0,0,4.46,2.6.727.727,0,0,0,.578-.129.735.735,0,0,0,.3-.517.709.709,0,0,1,1.415,0,.736.736,0,0,0,.731.66.837.837,0,0,0,.145-.013,7.967,7.967,0,0,0,4.46-2.6.734.734,0,0,0-.11-1.071.707.707,0,0,1,.7-1.221.734.734,0,0,0,.982-.44,7.5,7.5,0,0,0,0-5.154Zm-1.209,4.07a2.1,2.1,0,0,0-1.961,1.077,2.177,2.177,0,0,0,.045,2.234,6.513,6.513,0,0,1-2.565,1.51,2.168,2.168,0,0,0-3.855,0,6.5,6.5,0,0,1-2.565-1.51,2.174,2.174,0,0,0,.044-2.234,2.12,2.12,0,0,0-1.961-1.077,5.794,5.794,0,0,1,0-2.982,2.106,2.106,0,0,0,1.961-1.077,2.174,2.174,0,0,0-.044-2.234,6.525,6.525,0,0,1,2.564-1.51,2.168,2.168,0,0,0,3.857,0,6.526,6.526,0,0,1,2.564,1.51,2.18,2.18,0,0,0-.044,2.234,2.128,2.128,0,0,0,1.961,1.077,5.8,5.8,0,0,1,0,2.984Z"
                              transform="translate(-258.252 -262.175)" fill="#ff5000"/>
                    </g>
                </g>
            </g>
        </g>
    </g>
</svg>
