<!--
 * Copyright (c) 2020, WSO2 Inc. (http://www.wso2.org) All Rights Reserved.
 *
 * WSO2 Inc. licenses this file to you under the Apache License,
 * Version 2.0 (the "License"); you may not use this file except
 * in compliance with the License.
 * You may obtain a copy of the License at
 *
 *     http://www.apache.org/licenses/LICENSE-2.0
 *
 * Unless required by applicable law or agreed to in writing,
 * software distributed under the License is distributed on an
 * "AS IS" BASIS, WITHOUT WARRANTIES OR CONDITIONS OF ANY
 * KIND, either express or implied. See the License for the
 * specific language governing permissions and limitations
 * under the License.
-->

<svg xmlns="http://www.w3.org/2000/svg" width="167.579" height="154.559" viewBox="0 0 167.579 154.559">
    <g id="empty-search-illustration" transform="translate(-591 -209.5)">
        <path id="Path_36"
              d="M95.826,20.037a32.147,32.147,0,1,0-53.77,33.5,24.4,24.4,0,0,1,6.059,17.1q-.042,1.249-.011,2.515a43.294,43.294,0,0,0,42.719,41.65,42.711,42.711,0,0,0,17.651-81.594A24.666,24.666,0,0,1,95.826,20.037Z"
              transform="translate(595.179 249.25)" fill="#f4f4f4"/>
        <path id="Path_8" data-name="Path 8"
              d="M637.508,331.457s-4.2-11.311,8.964-26.731,34.328-.338,44.964,0,21.891-2.532,29.6-17"
              transform="translate(34 -43.209)" fill="none" stroke="#707070" stroke-width="1" stroke-dasharray="4"/>
        <path id="Path_9" data-name="Path 9"
              d="M146.554,70.176a1.617,1.617,0,0,1-1.147-.475l-4.587-4.587a1.622,1.622,0,0,1,2.294-2.294l4.587,4.587a1.622,1.622,0,0,1-1.147,2.769Z"
              transform="translate(610.403 177.879)" fill="#707070"/>
        <path id="Path_10" data-name="Path 10"
              d="M141.966,70.176a1.617,1.617,0,0,0,1.147-.475l4.587-4.587a1.622,1.622,0,1,0-2.294-2.294l-4.587,4.587a1.622,1.622,0,0,0,1.147,2.769Z"
              transform="translate(610.403 177.879)" fill="#707070"/>
        <path id="Path_56"
              d="M432.755,180.351a1.8,1.8,0,0,1-1.279-.53l-3.977-3.977a1.809,1.809,0,0,1,0-2.559l3.977-3.977a1.809,1.809,0,0,1,2.559,0l3.977,3.977a1.809,1.809,0,0,1,0,2.559l-3.977,3.977a1.8,1.8,0,0,1-1.279.53Zm-1.418-5.784,1.418,1.418,1.418-1.418-1.418-1.418Z"
              transform="translate(311.076 99.677)" fill="#e6e6e6"/>
        <path id="Path_57"
              d="M347.083,72.674a1.809,1.809,0,0,1-1.809-1.809,2.182,2.182,0,0,0-2.179-2.179,1.809,1.809,0,1,1,0-3.618,2.182,2.182,0,0,0,2.179-2.179,1.809,1.809,0,0,1,3.618,0,2.181,2.181,0,0,0,2.179,2.179,1.809,1.809,0,1,1,0,3.618,2.182,2.182,0,0,0-2.179,2.179A1.809,1.809,0,0,1,347.083,72.674Z"
              transform="translate(361.763 148.421)" fill="#cecece"/>
        <path id="Path_58"
              d="M53.06,332.889a1.809,1.809,0,0,1-1.809-1.809,2.182,2.182,0,0,0-2.179-2.179,1.809,1.809,0,1,1,0-3.618,2.182,2.182,0,0,0,2.179-2.179,1.809,1.809,0,1,1,3.618,0,2.182,2.182,0,0,0,2.179,2.179,1.809,1.809,0,0,1,0,3.618,2.181,2.181,0,0,0-2.179,2.179,1.809,1.809,0,0,1-1.809,1.809Z"
              transform="translate(551.43 -26.669)" fill="#e6e6e6"/>
        <path id="Path_59"
              d="M45.617,386.6a1.809,1.809,0,0,1-1.809-1.809,2.182,2.182,0,0,0-2.179-2.179,1.809,1.809,0,1,1,0-3.618,2.182,2.182,0,0,0,2.179-2.179,1.809,1.809,0,0,1,3.618,0,2.182,2.182,0,0,0,2.179,2.179,1.809,1.809,0,0,1,0,3.618,2.181,2.181,0,0,0-2.179,2.179,1.809,1.809,0,0,1-1.809,1.809Z"
              transform="translate(551.18 -46.95)" fill="#cecece"/>
        <g id="empty-folder" transform="translate(599 212.54)">
            <g id="Group_1" data-name="Group 1" transform="translate(77.748 47.622)">
                <path id="Path_1" data-name="Path 1"
                      d="M146.554,70.176a1.617,1.617,0,0,1-1.147-.475l-4.587-4.587a1.622,1.622,0,0,1,2.294-2.294l4.587,4.587a1.622,1.622,0,0,1-1.147,2.769Z"
                      transform="translate(-140.345 -53.283)" fill="#afafaf"/>
                <path id="Path_2" data-name="Path 2"
                      d="M141.966,70.176a1.622,1.622,0,0,1-1.147-2.769l4.587-4.587a1.622,1.622,0,0,1,2.294,2.294L143.113,69.7a1.616,1.616,0,0,1-1.147.475Z"
                      transform="translate(-140.344 -53.283)" fill="#afafaf"/>
                <circle id="Ellipse_3" data-name="Ellipse 3" cx="1.5" cy="1.5" r="1.5"
                        transform="translate(20.252 17.838)" fill="#afafaf"/>
                <circle id="Ellipse_4" data-name="Ellipse 4" cx="1.5" cy="1.5" r="1.5"
                        transform="translate(15.252 -0.162)" fill="#afafaf"/>
            </g>
            <g id="File_folder" data-name="File folder" transform="translate(43.59 62.916)">
                <path id="Path_11" data-name="Path 11"
                      d="M25.579,30.6H62.25V18.489l-31-1.229v-5.4c-.793,0-17.556-.444-18.517,0a4.363,4.363,0,0,0-2.479,3.971v2.418H7.836A4.836,4.836,0,0,0,3,23.091V71.454L9.637,34.464C9.992,32.1,23.185,30.6,25.579,30.6Z"
                      transform="translate(0.209 1.882)" fill="#e2e2e2"/>
                <path id="Path_12" data-name="Path 12" d="M55.836,29.091V21.836A4.836,4.836,0,0,0,51,17V29.091Z"
                      transform="translate(10.245 3.136)" fill="#e2e2e2"/>
                <path id="Path_13" data-name="Path 13"
                      d="M66.49,63.989l5.8-31.436A4.836,4.836,0,0,0,67.51,27H14.42a4.836,4.836,0,0,0-4.783,4.12L3,68.108H61.706a4.836,4.836,0,0,0,4.783-4.12Z"
                      transform="translate(0.209 5.227)" fill="#e2e2e2"/>
                <g id="Group_5" data-name="Group 5" transform="translate(2 2)">
                    <path id="Subtraction_1" data-name="Subtraction 1"
                          d="M-6161.635-1137.91h-58.748a1.21,1.21,0,0,1-.927-.434,2.018,2.018,0,0,1-.281-.778v-48.36a6.065,6.065,0,0,1,6.046-6.046h1.208v-1.208a5.816,5.816,0,0,1,4.837-5.721h13.319a1.211,1.211,0,0,1,1.208,1.212l1.361,1.1h-15.9a3.649,3.649,0,0,0-2.406,3.406v2.417a1.21,1.21,0,0,1-1.208,1.209h-2.42a3.631,3.631,0,0,0-3.625,3.629v34.776l4.231-23.618a5.983,5.983,0,0,1,1.836-3.482,6.012,6.012,0,0,1,3.6-1.583v-.053h2.417l2.42,0,2.417,0,37.065,0v.019h4.05v-.019h2.411v-6.043a3.64,3.64,0,0,0-2.411-3.405v-.023a6.735,6.735,0,0,0-2.317-.3c-.045,0-.092,0-.141,0a.4.4,0,0,0-.084.009h-28.937v-2.417h31.473a6.3,6.3,0,0,1,4.837,6.136v6.043h.428a6.04,6.04,0,0,1,4.582,2.1,6.05,6.05,0,0,1,1.4,4.844l-5.812,31.475a6,6,0,0,1-2.019,3.657A6.014,6.014,0,0,1-6161.635-1137.91Zm-47.328-41.109a3.639,3.639,0,0,0-3.588,3.089l-6.38,35.6h57.257a3.632,3.632,0,0,0,3.585-3.089l5.812-31.475a3.627,3.627,0,0,0-.859-2.882,3.621,3.621,0,0,0-2.736-1.243Z"
                          transform="translate(6221.59 1210.456)" fill="#afafaf"/>
                </g>
            </g>
            <path id="Path_36-2" data-name="Path 36"
                  d="M12.155,6.845H4.837A5.811,5.811,0,0,1,0,1.128V0H2.418V1.128a3.634,3.634,0,0,0,2.418,3.4h7.319V6.844Z"
                  transform="translate(77 81.762) rotate(180)" fill="#afafaf"/>
        </g>
        <circle id="Ellipse_5" data-name="Ellipse 5" cx="17" cy="17" r="17" transform="translate(690 316)" fill="#fff"/>
        <g id="search_2_" data-name="search (2)" transform="translate(688 313.887)">
            <g id="Group_8" data-name="Group 8" transform="translate(4.611 4.603)">
                <g id="Group_7" data-name="Group 7">
                    <path id="Path_29" data-name="Path 29"
                          d="M62.4,47.942A14.411,14.411,0,1,0,76.816,62.353,14.428,14.428,0,0,0,62.4,47.942Zm0,26.9a12.49,12.49,0,1,1,12.49-12.49A12.5,12.5,0,0,1,62.4,74.843Z"
                          transform="translate(-47.993 -47.942)" fill="#afafaf" stroke="#afafaf" stroke-width="1"/>
                </g>
            </g>
            <g id="Group_10" data-name="Group 10" transform="translate(5.289 30.825)">
                <g id="Group_9" data-name="Group 9">
                    <path id="Path_30" data-name="Path 30"
                          d="M56.778,321.257l-.081-.081a.961.961,0,1,0-1.359,1.359l.089.089a.961.961,0,0,0,1.351-1.367Z"
                          transform="translate(-55.056 -320.895)" fill="#afafaf" stroke="#afafaf" stroke-width="1"/>
                </g>
            </g>
            <g id="Group_12" data-name="Group 12" transform="translate(0 0)">
                <g id="Group_11" data-name="Group 11" transform="translate(0 0)">
                    <path id="Path_31" data-name="Path 31"
                          d="M48.044,42.531,34.955,29.443a19.023,19.023,0,1,0-31.994-.2.961.961,0,1,0,1.621-1.032,17.1,17.1,0,1,1,4.953,5.064.961.961,0,1,0-1.068,1.6,19.063,19.063,0,0,0,20.948.1l3.171,3.171h0l9.92,9.92a3.915,3.915,0,0,0,5.537-5.536Zm-17.054-8.7a19,19,0,0,0,2.82-2.818l2.277,2.277-.017.016-2.8,2.8Zm15.7,12.876a1.994,1.994,0,0,1-2.819,0l-9.241-9.24,2.8-2.8.016-.017,9.241,9.241A2,2,0,0,1,46.685,46.709Z"
                          transform="translate(0 -0.033)" fill="#afafaf" stroke="#afafaf" stroke-width="1"/>
                </g>
            </g>
            <g id="Group_14" data-name="Group 14" transform="translate(21.4 9.971)">
                <g id="Group_13" data-name="Group 13">
                    <path id="Path_32" data-name="Path 32"
                          d="M224.083,103.89a.961.961,0,1,0-.734,1.776,7.762,7.762,0,0,1,4.81,7.195.961.961,0,1,0,1.922,0A9.678,9.678,0,0,0,224.083,103.89Z"
                          transform="translate(-222.755 -103.817)" fill="#afafaf" stroke="#afafaf" stroke-width="1"/>
                </g>
            </g>
            <g id="Group_16" data-name="Group 16" transform="translate(18.061 9.31)">
                <g id="Group_15" data-name="Group 15">
                    <path id="Path_33" data-name="Path 33"
                          d="M189.094,96.945h-.134a.961.961,0,1,0,0,1.922h.121a.961.961,0,0,0,.013-1.922Z"
                          transform="translate(-187.999 -96.944)" fill="#afafaf" stroke="#afafaf" stroke-width="1"/>
                </g>
            </g>
        </g>
    </g>
</svg>
