<?xml version="1.0" encoding="utf-8"?>

<!--
 * Copyright (c) 2019, WSO2 Inc. (http://www.wso2.org) All Rights Reserved.
 *
 * WSO2 Inc. licenses this file to you under the Apache License,
 * Version 2.0 (the "License"); you may not use this file except
 * in compliance with the License.
 * You may obtain a copy of the License at
 *
 *     http://www.apache.org/licenses/LICENSE-2.0
 *
 * Unless required by applicable law or agreed to in writing,
 * software distributed under the License is distributed on an
 * "AS IS" BASIS, WITHOUT WARRANTIES OR CONDITIONS OF ANY
 * KIND, either express or implied. See the License for the
 * specific language governing permissions and limitations
 * under the License.
-->

<svg id="associated-accounts" xmlns="http://www.w3.org/2000/svg" xmlns:xlink="http://www.w3.org/1999/xlink"
     width="304.445"
     height="120"
     viewBox="0 0 304.445 133.802">
    <defs>
        <linearGradient id="linear-gradient" x1="0.274" y1="0.5" x2="1" y2="0.5" gradientUnits="objectBoundingBox">
            <stop offset="0" stop-color="#fff"/>
            <stop offset="1" stop-color="#dbdddf"/>
        </linearGradient>
        <linearGradient id="linear-gradient-4" x1="0.274" y1="0.5" x2="1" y2="0.5" gradientUnits="objectBoundingBox">
            <stop offset="0" stop-color="#fff" stop-opacity="0"/>
            <stop offset="1" stop-color="#dbdddf"/>
        </linearGradient>
        <linearGradient id="linear-gradient-9" x1="0.446" y1="-0.191" x2="0.55" y2="1.09"
                        gradientUnits="objectBoundingBox">
            <stop offset="0" stop-color="#ff8313"/>
            <stop offset="1" stop-color="#ff5401"/>
        </linearGradient>
        <linearGradient id="linear-gradient-10" x1="1.224" y1="0.638" x2="0.779" y2="-0.237"
                        gradientUnits="objectBoundingBox">
            <stop offset="0" stop-color="#f79034"/>
            <stop offset="1" stop-color="#ff5402"/>
        </linearGradient>
        <linearGradient id="linear-gradient-11" x1="-0.136" y1="-0.239" x2="1" y2="1" gradientUnits="objectBoundingBox">
            <stop offset="0" stop-color="#f9984e"/>
            <stop offset="1" stop-color="#f16009"/>
        </linearGradient>
        <linearGradient id="linear-gradient-12" x1="0.5" x2="0.5" y2="1" gradientUnits="objectBoundingBox">
            <stop offset="0" stop-color="#ff770e"/>
            <stop offset="1" stop-color="#fc6914"/>
        </linearGradient>
        <linearGradient id="linear-gradient-13" x1="0.5" x2="0.726" y2="1" gradientUnits="objectBoundingBox">
            <stop offset="0" stop-color="#f88228"/>
            <stop offset="1" stop-color="#f05d07"/>
        </linearGradient>
        <linearGradient id="linear-gradient-14" x1="0.621" y1="0.159" x2="0.456" y2="1.09"
                        gradientUnits="objectBoundingBox">
            <stop offset="0" stop-color="#f98027"/>
            <stop offset="1" stop-color="#fd630f"/>
        </linearGradient>
        <linearGradient id="linear-gradient-15" x1="-0.22" y1="0.5" x2="1.12" y2="0.5"
                        gradientUnits="objectBoundingBox">
            <stop offset="0" stop-color="#f98229"/>
            <stop offset="1" stop-color="#ee5600"/>
        </linearGradient>
        <linearGradient id="linear-gradient-16" x1="1.333" y1="0.693" x2="-0.13" y2="0.324"
                        xlink:href="#linear-gradient-15"/>
        <linearGradient id="linear-gradient-17" x1="3.002" y1="1.1" x2="-0.373" y2="-1.202"
                        gradientUnits="objectBoundingBox">
            <stop offset="0" stop-color="#ff740d"/>
            <stop offset="1" stop-color="#ff750d"/>
        </linearGradient>
        <linearGradient id="linear-gradient-18" x1="0.5" y1="1" x2="0" gradientUnits="objectBoundingBox">
            <stop offset="0" stop-color="#29cfc8"/>
            <stop offset="1" stop-color="#0882c2"/>
        </linearGradient>
        <linearGradient id="linear-gradient-19" x1="0.5" y1="1" x2="0.5" gradientUnits="objectBoundingBox">
            <stop offset="0" stop-color="#f19148"/>
            <stop offset="1" stop-color="#f05d07"/>
        </linearGradient>
        <linearGradient id="linear-gradient-20" x1="0.5" y1="1" x2="0.5" gradientUnits="objectBoundingBox">
            <stop offset="0" stop-color="#16a1eb"/>
            <stop offset="1" stop-color="#067dbd"/>
        </linearGradient>
        <linearGradient id="linear-gradient-21" x1="0.757" y1="0.959" x2="0.149" y2="0.196"
                        gradientUnits="objectBoundingBox">
            <stop offset="0" stop-color="#22b9b3"/>
            <stop offset="1" stop-color="#29e0d8"/>
        </linearGradient>
        <linearGradient id="linear-gradient-22" x1="0.821" y1="0.821" x2="0.126" y2="0.126"
                        gradientUnits="objectBoundingBox">
            <stop offset="0" stop-color="#29e0d8"/>
            <stop offset="1" stop-color="#23bab4"/>
        </linearGradient>
        <linearGradient id="linear-gradient-23" x1="0.084" y1="0.36" x2="0.818" y2="0.733"
                        gradientUnits="objectBoundingBox">
            <stop offset="0" stop-color="#0f8d87"/>
            <stop offset="0.472" stop-color="#2ac8c2" stop-opacity="0.49"/>
            <stop offset="1" stop-color="#29e0d8" stop-opacity="0"/>
        </linearGradient>
        <radialGradient id="radial-gradient" cx="0.208" cy="0.202" r="0.5" gradientUnits="objectBoundingBox">
            <stop offset="0" stop-color="#fff"/>
            <stop offset="1" stop-color="#f0f0f0"/>
        </radialGradient>
        <radialGradient id="radial-gradient-2" cx="0" cy="0.233" r="0.764"
                        gradientTransform="translate(0.106 0.025) rotate(27.054)" xlink:href="#radial-gradient"/>
        <linearGradient id="linear-gradient-24" x1="0.433" x2="0.678" y2="0.398" gradientUnits="objectBoundingBox">
            <stop offset="0" stop-color="#ccc"/>
            <stop offset="1" stop-color="#ccc" stop-opacity="0.169"/>
        </linearGradient>
        <linearGradient id="linear-gradient-25" x1="0.719" y1="0.4" x2="1.177" y2="0.537"
                        gradientUnits="objectBoundingBox">
            <stop offset="0" stop-color="#ccc" stop-opacity="0.188"/>
            <stop offset="1" stop-color="#ccc"/>
        </linearGradient>
    </defs>
    <g id="associated-accounts" transform="translate(-141.222 -98.21)">
        <g id="lock-idle-accounts-illustration">
            <rect id="Rectangle_500" data-name="Rectangle 500" width="86" height="7" transform="translate(241 177)"
                  fill="url(#linear-gradient)"/>
            <path id="Path_95"
                  d="M424.493,166.965a.914.914,0,0,1-.914-.914,1.1,1.1,0,0,0-1.1-1.1.915.915,0,0,1,0-1.829,1.1,1.1,0,0,0,1.1-1.1.915.915,0,1,1,1.829,0,1.1,1.1,0,0,0,1.1,1.1.915.915,0,0,1,0,1.829,1.1,1.1,0,0,0-1.1,1.1.914.914,0,0,1-.914.914Z"
                  transform="translate(-243.207 65.047)" fill="#ffe783"/>
            <path id="Path_96"
                  d="M68.794,419.851a.915.915,0,0,1-.645-.267l-2-2a.914.914,0,0,1,0-1.291l2-2a.914.914,0,0,1,1.291,0l2,2a.914.914,0,0,1,0,1.291l-2,2.008A.915.915,0,0,1,68.794,419.851Zm-.711-2.917.711.711.711-.711-.711-.708Z"
                  transform="translate(75.344 -301.841)" fill="#ffe783"/>
            <rect id="Rectangle_455" data-name="Rectangle 455" width="66" height="5" transform="translate(203 179)"
                  opacity="0.6" fill="url(#linear-gradient)"/>
            <path id="Path_98"
                  d="M141.064,46.254a.914.914,0,0,1-.645-.267l-2-2.005a.914.914,0,0,1,0-1.291l2-2a.914.914,0,0,1,1.291,0l2,2a.914.914,0,0,1,0,1.291l-2,2a.909.909,0,0,1-.645.267Zm-.711-2.917.711.711.711-.711-.711-.711Z"
                  transform="translate(301.688 97.79)" fill="#ffe783"/>
            <path id="Path_98-2" data-name="Path_98"
                  d="M141.064,46.254a.914.914,0,0,1-.645-.267l-2-2.005a.914.914,0,0,1,0-1.291l2-2a.914.914,0,0,1,1.291,0l2,2a.914.914,0,0,1,0,1.291l-2,2a.909.909,0,0,1-.645.267Zm-.711-2.917.711.711.711-.711-.711-.711Z"
                  transform="translate(145.688 57.79)" fill="#ffe783"/>
            <path id="padlock"
                  d="M70.9,3.681V2.932a2.932,2.932,0,1,0-5.864,0v.749a1.169,1.169,0,0,0-.586,1.01V8.209a1.174,1.174,0,0,0,1.173,1.173h4.691a1.174,1.174,0,0,0,1.173-1.173V4.691a1.169,1.169,0,0,0-.586-1.01ZM67.963,1.173a1.761,1.761,0,0,1,1.759,1.759v.586H66.2V2.932a1.761,1.761,0,0,1,1.759-1.759Zm.586,5.635v.815H67.377V6.808a.88.88,0,1,1,1.173,0Z"
                  transform="translate(259.555 217)" fill="#ffb18d"/>
            <path id="padlock-2" data-name="padlock"
                  d="M70.9,3.681V2.932a2.932,2.932,0,1,0-5.864,0v.749a1.169,1.169,0,0,0-.586,1.01V8.209a1.174,1.174,0,0,0,1.173,1.173h4.691a1.174,1.174,0,0,0,1.173-1.173V4.691a1.169,1.169,0,0,0-.586-1.01ZM67.963,1.173a1.761,1.761,0,0,1,1.759,1.759v.586H66.2V2.932a1.761,1.761,0,0,1,1.759-1.759Zm.586,5.635v.815H67.377V6.808a.88.88,0,1,1,1.173,0Z"
                  transform="translate(134.555 157)" fill="#ffb18d"/>
            <rect id="Rectangle_446" data-name="Rectangle 446" width="66" height="5" transform="translate(242 197)"
                  fill="url(#linear-gradient)"/>
            <g id="Group_1135" data-name="Group 1135" transform="translate(36 -7)">
                <rect id="Rectangle_448" data-name="Rectangle 448" width="66" height="5" transform="translate(234 186)"
                      fill="url(#linear-gradient-4)"/>
                <g id="Path_2110" data-name="Path 2110" transform="translate(280 122)" fill="#f4f2f1">
                    <path d="M 92 68 L 3 68 C 1.897199988365173 68 1 67.10279846191406 1 66 L 1 3 C 1 1.897199988365173 1.897199988365173 1 3 1 L 92 1 C 93.10279846191406 1 94 1.897199988365173 94 3 L 94 66 C 94 67.10279846191406 93.10279846191406 68 92 68 Z"
                          stroke="none"/>
                    <path d="M 3 2 C 2.448600769042969 2 2 2.448600769042969 2 3 L 2 66 C 2 66.55139923095703 2.448600769042969 67 3 67 L 92 67 C 92.55139923095703 67 93 66.55139923095703 93 66 L 93 3 C 93 2.448600769042969 92.55139923095703 2 92 2 L 3 2 M 3 0 L 92 0 C 93.6568603515625 0 95 1.3431396484375 95 3 L 95 66 C 95 67.6568603515625 93.6568603515625 69 92 69 L 3 69 C 1.3431396484375 69 0 67.6568603515625 0 66 L 0 3 C 0 1.3431396484375 1.3431396484375 0 3 0 Z"
                          stroke="none" fill="#e6e3df"/>
                </g>
                <g id="Rectangle_376" data-name="Rectangle 376" transform="translate(280 122)" fill="#fff"
                   stroke="#e6e3df" stroke-width="2">
                    <path d="M3,0H92a3,3,0,0,1,3,3v8a0,0,0,0,1,0,0H0a0,0,0,0,1,0,0V3A3,3,0,0,1,3,0Z" stroke="none"/>
                    <path d="M3,1H92a2,2,0,0,1,2,2V9a1,1,0,0,1-1,1H2A1,1,0,0,1,1,9V3A2,2,0,0,1,3,1Z" fill="none"/>
                </g>
                <circle id="Ellipse_110" data-name="Ellipse 110" cx="1.5" cy="1.5" r="1.5"
                        transform="translate(367 126)" fill="#eaecee"/>
                <circle id="Ellipse_111" data-name="Ellipse 111" cx="1.5" cy="1.5" r="1.5"
                        transform="translate(363 126)" fill="#eaecee"/>
                <circle id="Ellipse_112" data-name="Ellipse 112" cx="1.5" cy="1.5" r="1.5"
                        transform="translate(359 126)" fill="#eaecee"/>
                <g id="network_1_" data-name="network (1)" transform="translate(314 146.128)">
                    <g id="Group_1193" data-name="Group 1193" transform="translate(22.57 5.208)">
                        <g id="Group_1192" data-name="Group 1192">
                            <path id="Path_2208" data-name="Path 2208"
                                  d="M445.47,102.4a1.736,1.736,0,1,0,1.736,1.736A1.738,1.738,0,0,0,445.47,102.4Zm0,2.6a.868.868,0,1,1,.868-.868A.869.869,0,0,1,445.47,105Z"
                                  transform="translate(-443.734 -102.4)" fill="#e6e3df"/>
                        </g>
                    </g>
                    <g id="Group_1195" data-name="Group 1195" transform="translate(0 19.531)">
                        <g id="Group_1194" data-name="Group 1194">
                            <path id="Path_2209" data-name="Path 2209"
                                  d="M1.736,384a1.736,1.736,0,1,0,1.736,1.736A1.738,1.738,0,0,0,1.736,384Zm0,2.6a.868.868,0,1,1,.868-.868A.869.869,0,0,1,1.736,386.6Z"
                                  transform="translate(0 -384)" fill="#e6e3df"/>
                        </g>
                    </g>
                    <g id="Group_1197" data-name="Group 1197" transform="translate(19.097 3.906)">
                        <g id="Group_1196" data-name="Group 1196">
                            <path id="Path_2210" data-name="Path 2210"
                                  d="M379.83,78.643l-3.744-1.808a.434.434,0,0,0-.377.782l3.744,1.808a.434.434,0,0,0,.377-.782Z"
                                  transform="translate(-375.463 -76.792)" fill="#e6e3df"/>
                        </g>
                    </g>
                    <g id="Group_1199" data-name="Group 1199" transform="translate(17.795 22.57)">
                        <g id="Group_1198" data-name="Group 1198">
                            <path id="Path_2211" data-name="Path 2211"
                                  d="M351.6,443.733a1.736,1.736,0,1,0,1.736,1.736A1.738,1.738,0,0,0,351.6,443.733Zm0,2.6a.868.868,0,1,1,.868-.868A.869.869,0,0,1,351.6,446.337Z"
                                  transform="translate(-349.867 -443.733)" fill="#e6e3df"/>
                        </g>
                    </g>
                    <g id="Group_1201" data-name="Group 1201" transform="translate(14.323 21.267)">
                        <g id="Group_1200" data-name="Group 1200">
                            <path id="Path_2212" data-name="Path 2212"
                                  d="M285.963,419.976l-3.744-1.808a.434.434,0,1,0-.377.782l3.744,1.808a.434.434,0,0,0,.377-.782Z"
                                  transform="translate(-281.596 -418.124)" fill="#e6e3df"/>
                        </g>
                    </g>
                    <g id="Group_1203" data-name="Group 1203" transform="translate(11.285 11.719)">
                        <g id="Group_1202" data-name="Group 1202">
                            <path id="Path_2213" data-name="Path 2213"
                                  d="M223.6,230.4a1.736,1.736,0,1,0,1.736,1.736A1.738,1.738,0,0,0,223.6,230.4Zm0,2.6a.868.868,0,1,1,.868-.868A.869.869,0,0,1,223.6,233Z"
                                  transform="translate(-221.867 -230.4)" fill="#e6e3df"/>
                        </g>
                    </g>
                    <g id="Group_1205" data-name="Group 1205" transform="translate(8.681 9.983)">
                        <g id="Group_1204" data-name="Group 1204">
                            <path id="Path_2214" data-name="Path 2214"
                                  d="M174.242,198.6l-2.876-2.242a.434.434,0,0,0-.534.685l2.876,2.242a.434.434,0,1,0,.534-.685Z"
                                  transform="translate(-170.664 -196.272)" fill="#e6e3df"/>
                        </g>
                    </g>
                    <g id="Group_1207" data-name="Group 1207" transform="translate(16.059 11.285)">
                        <g id="Group_1206" data-name="Group 1206">
                            <path id="Path_2215" data-name="Path 2215"
                                  d="M320.507,221.867a4.774,4.774,0,1,0,4.774,4.774A4.78,4.78,0,0,0,320.507,221.867Zm0,8.681a3.906,3.906,0,1,1,3.906-3.906A3.91,3.91,0,0,1,320.507,230.548Z"
                                  transform="translate(-315.733 -221.867)" fill="#e6e3df"/>
                        </g>
                    </g>
                    <g id="Group_1209" data-name="Group 1209" transform="translate(19.097 13.021)">
                        <g id="Group_1208" data-name="Group 1208">
                            <path id="Path_2216" data-name="Path 2216"
                                  d="M377.2,256a1.736,1.736,0,1,0,1.736,1.736A1.738,1.738,0,0,0,377.2,256Zm0,2.6a.868.868,0,1,1,.868-.868A.869.869,0,0,1,377.2,258.6Z"
                                  transform="translate(-375.467 -256)" fill="#e6e3df"/>
                        </g>
                    </g>
                    <g id="Group_1211" data-name="Group 1211" transform="translate(18.229 17.361)">
                        <g id="Group_1210" data-name="Group 1210">
                            <path id="Path_2217" data-name="Path 2217"
                                  d="M362.263,341.333h-2.518a1.329,1.329,0,0,0-1.345,1.309v1.144a.434.434,0,0,0,.217.376,4.75,4.75,0,0,0,4.775,0,.434.434,0,0,0,.217-.375v-1.144A1.329,1.329,0,0,0,362.263,341.333Zm.477,2.194a3.935,3.935,0,0,1-3.472,0v-.885a.461.461,0,0,1,.477-.441h2.518a.461.461,0,0,1,.477.441v.885Z"
                                  transform="translate(-358.4 -341.333)" fill="#e6e3df"/>
                        </g>
                    </g>
                    <g id="Group_1213" data-name="Group 1213" transform="translate(5.642 16.493)">
                        <g id="Group_1212" data-name="Group 1212">
                            <path id="Path_2218" data-name="Path 2218"
                                  d="M115.707,324.267a4.774,4.774,0,1,0,4.774,4.774A4.78,4.78,0,0,0,115.707,324.267Zm0,8.681a3.906,3.906,0,1,1,3.906-3.906A3.911,3.911,0,0,1,115.707,332.948Z"
                                  transform="translate(-110.933 -324.267)" fill="#e6e3df"/>
                        </g>
                    </g>
                    <g id="Group_1215" data-name="Group 1215" transform="translate(8.681 18.229)">
                        <g id="Group_1214" data-name="Group 1214">
                            <path id="Path_2219" data-name="Path 2219"
                                  d="M172.4,358.4a1.736,1.736,0,1,0,1.736,1.736A1.738,1.738,0,0,0,172.4,358.4Zm0,2.6a.868.868,0,1,1,.868-.868A.869.869,0,0,1,172.4,361Z"
                                  transform="translate(-170.667 -358.4)" fill="#e6e3df"/>
                        </g>
                    </g>
                    <g id="Group_1217" data-name="Group 1217" transform="translate(7.813 22.57)">
                        <g id="Group_1216" data-name="Group 1216">
                            <path id="Path_2220" data-name="Path 2220"
                                  d="M157.463,443.733h-2.518a1.329,1.329,0,0,0-1.345,1.309v1.144a.434.434,0,0,0,.217.376,4.75,4.75,0,0,0,4.775,0,.434.434,0,0,0,.217-.375v-1.144A1.329,1.329,0,0,0,157.463,443.733Zm.477,2.194a3.936,3.936,0,0,1-3.472,0v-.885a.461.461,0,0,1,.477-.441h2.518a.461.461,0,0,1,.477.441v.885Z"
                                  transform="translate(-153.6 -443.733)" fill="#e6e3df"/>
                        </g>
                    </g>
                    <g id="Group_1219" data-name="Group 1219" transform="translate(0 5.642)">
                        <g id="Group_1218" data-name="Group 1218">
                            <path id="Path_2221" data-name="Path 2221"
                                  d="M4.774,110.933a4.774,4.774,0,1,0,4.774,4.774A4.78,4.78,0,0,0,4.774,110.933Zm0,8.681a3.906,3.906,0,1,1,3.906-3.906A3.911,3.911,0,0,1,4.774,119.614Z"
                                  transform="translate(0 -110.933)" fill="#e6e3df"/>
                        </g>
                    </g>
                    <g id="Group_1221" data-name="Group 1221" transform="translate(3.038 7.379)">
                        <g id="Group_1220" data-name="Group 1220">
                            <path id="Path_2222" data-name="Path 2222"
                                  d="M61.47,145.067a1.736,1.736,0,1,0,1.736,1.736A1.738,1.738,0,0,0,61.47,145.067Zm0,2.6a.868.868,0,1,1,.868-.868A.869.869,0,0,1,61.47,147.671Z"
                                  transform="translate(-59.734 -145.067)" fill="#e6e3df"/>
                        </g>
                    </g>
                    <g id="Group_1223" data-name="Group 1223" transform="translate(2.17 11.719)">
                        <g id="Group_1222" data-name="Group 1222">
                            <path id="Path_2223" data-name="Path 2223"
                                  d="M46.53,230.4H44.012a1.329,1.329,0,0,0-1.345,1.309v1.144a.434.434,0,0,0,.217.376,4.75,4.75,0,0,0,4.775,0,.434.434,0,0,0,.217-.375v-1.144A1.329,1.329,0,0,0,46.53,230.4Zm.477,2.194a3.936,3.936,0,0,1-3.472,0v-.885a.461.461,0,0,1,.477-.441H46.53a.461.461,0,0,1,.477.441v.885Z"
                                  transform="translate(-42.667 -230.4)" fill="#e6e3df"/>
                        </g>
                    </g>
                    <g id="Group_1225" data-name="Group 1225" transform="translate(10.417)">
                        <g id="Group_1224" data-name="Group 1224">
                            <path id="Path_2224" data-name="Path 2224"
                                  d="M209.574,0a4.774,4.774,0,1,0,4.774,4.774A4.78,4.78,0,0,0,209.574,0Zm0,8.681a3.906,3.906,0,1,1,3.906-3.906A3.91,3.91,0,0,1,209.574,8.681Z"
                                  transform="translate(-204.8)" fill="#e6e3df"/>
                        </g>
                    </g>
                    <g id="Group_1227" data-name="Group 1227" transform="translate(13.455 1.736)">
                        <g id="Group_1226" data-name="Group 1226">
                            <path id="Path_2225" data-name="Path 2225"
                                  d="M266.27,34.133a1.736,1.736,0,1,0,1.736,1.736A1.738,1.738,0,0,0,266.27,34.133Zm0,2.6a.868.868,0,1,1,.868-.868A.869.869,0,0,1,266.27,36.737Z"
                                  transform="translate(-264.534 -34.133)" fill="#e6e3df"/>
                        </g>
                    </g>
                    <g id="Group_1229" data-name="Group 1229" transform="translate(12.587 6.076)">
                        <g id="Group_1228" data-name="Group 1228">
                            <path id="Path_2226" data-name="Path 2226"
                                  d="M251.33,119.467h-2.518a1.329,1.329,0,0,0-1.345,1.309v1.144a.434.434,0,0,0,.217.376,4.75,4.75,0,0,0,4.775,0,.434.434,0,0,0,.217-.375v-1.144A1.329,1.329,0,0,0,251.33,119.467Zm.477,2.194a3.936,3.936,0,0,1-3.472,0v-.885a.461.461,0,0,1,.477-.441h2.518a.461.461,0,0,1,.477.441v.885Z"
                                  transform="translate(-247.467 -119.467)" fill="#e6e3df"/>
                        </g>
                    </g>
                    <g id="Group_1231" data-name="Group 1231" transform="translate(7.409 4.34)">
                        <g id="Group_1230" data-name="Group 1230">
                            <path id="Path_2227" data-name="Path 2227"
                                  d="M149.443,85.485a.435.435,0,0,0-.612-.047l-3.008,2.574a.434.434,0,1,0,.564.659L149.4,86.1A.434.434,0,0,0,149.443,85.485Z"
                                  transform="translate(-145.671 -85.333)" fill="#e6e3df"/>
                        </g>
                    </g>
                    <g id="Group_1233" data-name="Group 1233" transform="translate(17.361 7.813)">
                        <g id="Group_1232" data-name="Group 1232">
                            <path id="Path_2228" data-name="Path 2228"
                                  d="M344.719,157.256l-2.6-3.472a.434.434,0,0,0-.694.52l2.6,3.472a.434.434,0,0,0,.694-.52Z"
                                  transform="translate(-341.333 -153.61)" fill="#e6e3df"/>
                        </g>
                    </g>
                    <g id="Group_1235" data-name="Group 1235" transform="translate(13.979 17.321)">
                        <g id="Group_1234" data-name="Group 1234">
                            <path id="Path_2229" data-name="Path 2229"
                                  d="M278.039,340.714a.434.434,0,0,0-.608-.087l-2.425,1.818a.434.434,0,0,0,.521.694l2.424-1.818A.433.433,0,0,0,278.039,340.714Z"
                                  transform="translate(-274.833 -340.54)" fill="#e6e3df"/>
                        </g>
                    </g>
                    <g id="Group_1237" data-name="Group 1237" transform="translate(2.604 20.834)">
                        <g id="Group_1236" data-name="Group 1236">
                            <path id="Path_2230" data-name="Path 2230"
                                  d="M54.672,409.6H51.634a.434.434,0,0,0,0,.868h3.038a.434.434,0,0,0,0-.868Z"
                                  transform="translate(-51.2 -409.6)" fill="#e6e3df"/>
                        </g>
                    </g>
                    <g id="Group_1239" data-name="Group 1239" transform="translate(3.038)">
                        <g id="Group_1238" data-name="Group 1238">
                            <path id="Path_2231" data-name="Path 2231"
                                  d="M61.469,0a1.736,1.736,0,1,0,1.736,1.736A1.738,1.738,0,0,0,61.469,0Zm0,2.6a.868.868,0,1,1,.868-.868A.869.869,0,0,1,61.469,2.6Z"
                                  transform="translate(-59.733)" fill="#e6e3df"/>
                        </g>
                    </g>
                    <g id="Group_1241" data-name="Group 1241" transform="translate(4.34 2.604)">
                        <g id="Group_1240" data-name="Group 1240">
                            <path id="Path_2232" data-name="Path 2232"
                                  d="M85.768,51.2a.434.434,0,0,0-.434.434v3.038a.434.434,0,0,0,.868,0V51.634A.434.434,0,0,0,85.768,51.2Z"
                                  transform="translate(-85.334 -51.2)" fill="#e6e3df"/>
                        </g>
                    </g>
                </g>
            </g>
            <rect id="Rectangle_450" data-name="Rectangle 450" width="86" height="7" transform="translate(237 195)"
                  fill="url(#linear-gradient)"/>
            <rect id="Rectangle_484" data-name="Rectangle 484" width="86" height="7" transform="translate(193 195)"
                  fill="url(#linear-gradient)"/>
            <rect id="Rectangle_498" data-name="Rectangle 498" width="86" height="7" transform="translate(178 177)"
                  fill="url(#linear-gradient)"/>
            <rect id="Rectangle_499" data-name="Rectangle 499" width="46" height="7" transform="translate(178 177)"
                  fill="url(#linear-gradient)"/>
            <g id="Group_1275" data-name="Group 1275" transform="translate(208 137)">
                <g id="Rectangle_496" data-name="Rectangle 496" transform="translate(31.763 9)" fill="#f4f2f1"
                   stroke="#e6e3df" stroke-width="2">
                    <rect width="38" height="38" rx="3" stroke="none"/>
                    <rect x="1" y="1" width="36" height="36" rx="2" fill="none"/>
                </g>
                <g id="Rectangle_497" data-name="Rectangle 497" transform="translate(16.264 47.527) rotate(-135)"
                   fill="#f4f2f1" stroke="#e6e3df" stroke-width="2">
                    <rect width="23" height="23" rx="1" stroke="none"/>
                    <rect x="1" y="1" width="21" height="21" fill="none"/>
                </g>
                <g id="Ellipse_222" data-name="Ellipse 222" transform="translate(14.063 0)" fill="#f4f2f1"
                   stroke="#e6e3df" stroke-width="2">
                    <ellipse cx="9" cy="9" rx="9" ry="9" stroke="none"/>
                    <ellipse cx="9" cy="9" rx="8" ry="8" fill="none"/>
                </g>
            </g>
        </g>
        <g id="link" transform="translate(253.194 105.184)">
            <path id="Path_2189" data-name="Path 2189"
                  d="M64.485,201.413l9.174-13.9-9.174-2.364a25.282,25.282,0,0,0-6.129-9.895,24.893,24.893,0,0,0-9.895-6.129l-.12.12L37.164,168.8l-4.968.32a24.894,24.894,0,0,0-9.895,6.129L7.45,190.1A25.481,25.481,0,1,0,43.5,226.121l14.851-14.813A25.277,25.277,0,0,0,64.485,201.413Zm-31,14.693a11.331,11.331,0,0,1-16.024-16.024L32.2,185.389l8.052,7.972,8.092,7.932Z"
                  transform="translate(0 -136.834)" fill="url(#linear-gradient-9)"/>
            <path id="Path_2190" data-name="Path 2190"
                  d="M90.364,239.013,75.513,253.826a25.494,25.494,0,0,1-36.054,0l10.015-10.015a11.327,11.327,0,0,0,16.024,0L80.349,229l-8.092-7.932,18.107-18.107a25.281,25.281,0,0,1,6.129,9.895l9.174,2.364-9.174,13.9A25.278,25.278,0,0,1,90.364,239.013Z"
                  transform="translate(-32.009 -164.539)" fill="url(#linear-gradient-10)"/>
            <g id="Group_1253" data-name="Group 1253">
                <path id="Path_2192" data-name="Path 2192"
                      d="M76.113,80.117l-4.006-4.006a2.833,2.833,0,0,1,4.006-4.006l4.006,4.006a2.833,2.833,0,0,1-4.006,4.006Z"
                      transform="translate(-57.818 -57.722)" fill="url(#linear-gradient-11)"/>
                <path id="Path_2194" data-name="Path 2194"
                      d="M9.253,180.967a2.832,2.832,0,0,1,3.47-2l5.473,1.467a2.833,2.833,0,0,1-1.467,5.473l-5.473-1.467A2.834,2.834,0,0,1,9.253,180.967Z"
                      transform="translate(-7.429 -144.997)" fill="url(#linear-gradient-12)"/>
                <path id="Path_2196" data-name="Path 2196"
                      d="M180.434,18.2l-1.467-5.473a2.833,2.833,0,1,1,5.473-1.467l1.467,5.473a2.833,2.833,0,1,1-5.473,1.467Z"
                      transform="translate(-145.095 -7.333)" fill="url(#linear-gradient-13)"/>
            </g>
            <path id="Path_2197" data-name="Path 2197"
                  d="M221.859,7.582a25.5,25.5,0,0,0-36.054,0L170.954,22.4a25.281,25.281,0,0,0-6.129,9.895,25.673,25.673,0,0,0,0,16.265,25.438,25.438,0,0,0,16.024,16.024l.12-.12a11.364,11.364,0,0,0,0-16.024,11.364,11.364,0,0,1,0-16.024L195.82,17.6a11.138,11.138,0,0,1,8.012-3.285,1.834,1.834,0,0,1,.921.04,10.817,10.817,0,0,1,7.09,3.245,11.364,11.364,0,0,1,0,16.024l-14.73,14.693a25.673,25.673,0,0,1,0,16.265,25.826,25.826,0,0,0,9.895-6.129l14.851-14.813A25.533,25.533,0,0,0,221.859,7.582Z"
                  transform="translate(-132.628 0)" fill="url(#linear-gradient-14)"/>
            <g id="Group_1183" data-name="Group 1183" transform="translate(38.325 7.583)">
                <path id="Path_2198" data-name="Path 2198"
                      d="M212.978,272.019l-.12.12a25.242,25.242,0,0,1-9.9-6.129l10.015-10.015A11.364,11.364,0,0,1,212.978,272.019Z"
                      transform="translate(-202.963 -215.143)" fill="url(#linear-gradient-15)"/>
                <path id="Path_2241" data-name="Path 2241"
                      d="M206.268,256.115l.12-.12a25.242,25.242,0,0,1,9.9,6.129L206.268,272.14A11.364,11.364,0,0,1,206.268,256.115Z"
                      transform="translate(-196.283 -231.261)" fill="url(#linear-gradient-16)"/>
                <path id="Path_2199" data-name="Path 2199"
                      d="M366.24,75.71,351.389,90.524a25.825,25.825,0,0,1-9.895,6.129,25.674,25.674,0,0,0,0-16.265L356.224,65.7a11.364,11.364,0,0,0,0-16.024L366.24,39.656A25.532,25.532,0,0,1,366.24,75.71Z"
                      transform="translate(-315.335 -39.656)" fill="url(#linear-gradient-17)"/>
            </g>
            <g id="Group_1254" data-name="Group 1254" transform="translate(56.727 54.822)">
                <path id="Path_2192-2" data-name="Path 2192"
                      d="M76.113,72.105l4.006,4.006a2.833,2.833,0,0,1-4.006,4.006l-4.006-4.006a2.833,2.833,0,0,1,4.006-4.006Z"
                      transform="translate(-53.497 -53.499)" fill="url(#linear-gradient-18)"/>
                <path id="Path_2194-2" data-name="Path 2194"
                      d="M20.2,183.9a2.832,2.832,0,0,1-3.47,2l-5.473-1.467a2.833,2.833,0,1,1,1.467-5.473l5.473,1.467A2.834,2.834,0,0,1,20.2,183.9Z"
                      transform="translate(18.887 -178.87)" fill="url(#linear-gradient-19)"/>
                <path id="Path_2196-2" data-name="Path 2196"
                      d="M184.44,11.256l1.467,5.473a2.833,2.833,0,1,1-5.473,1.467l-1.467-5.473a2.833,2.833,0,0,1,5.473-1.467Z"
                      transform="translate(-178.87 18.884)" fill="url(#linear-gradient-20)"/>
            </g>
        </g>
        <g id="Group_1252" data-name="Group 1252" transform="translate(-1281 -1532.646)">
            <circle id="Ellipse_177" data-name="Ellipse 177" cx="19" cy="19" r="19" transform="translate(1584 1696.645)"
                    fill="url(#linear-gradient-21)"/>
            <circle id="Ellipse_181" data-name="Ellipse 181" cx="14.547" cy="14.547" r="14.547"
                    transform="translate(1588.272 1701.45)" fill="url(#linear-gradient-22)"/>
            <path id="Intersection_8" data-name="Intersection 8"
                  d="M0,10.411,10.524,0C16.9,6.126,21.2,10.136,23.3,12.069a18.859,18.859,0,0,1-8.95,10.787Z"
                  transform="translate(1597.411 1709.522)" fill="url(#linear-gradient-23)"/>
            <path id="Intersection_5" data-name="Intersection 5"
                  d="M0,7.323q.238-.432.507-.849a14.154,14.154,0,0,1,23.81.045q.273.426.514.868a18.734,18.734,0,0,1-12.379,4.65A18.733,18.733,0,0,1,0,7.323Z"
                  transform="translate(1590.352 1722.609)" fill="url(#radial-gradient)"/>
            <ellipse id="Ellipse_180" data-name="Ellipse 180" cx="7.442" cy="7.428" rx="7.442" ry="7.428"
                     transform="translate(1595.308 1707.381)" fill="url(#radial-gradient-2)"/>
            <path id="Subtraction_21" data-name="Subtraction 21"
                  d="M8.493,11.191h0A16.528,16.528,0,0,0,0,.287,14.251,14.251,0,0,1,7.608.819a14.084,14.084,0,0,1,4.068,2.267,14.165,14.165,0,0,1,3.094,3.432c.181.282.354.574.514.868a18.664,18.664,0,0,1-6.789,3.8Z"
                  transform="translate(1599.899 1722.609)" fill="url(#linear-gradient-24)"/>
            <path id="Subtraction_22" data-name="Subtraction 22"
                  d="M3.042,14.673A7.4,7.4,0,0,1,0,14.026,7.449,7.449,0,0,0,9.09,6.78,7.442,7.442,0,0,0,4.693,0,7.428,7.428,0,0,1,3.042,14.673Z"
                  transform="translate(1599.708 1707.565)" fill="url(#linear-gradient-25)"/>
        </g>
    </g>
</svg>
