<!--
 * Copyright (c) 2021, WSO2 Inc. (http://www.wso2.com). All Rights Reserved.
 *
 * This software is the property of WSO2 Inc. and its suppliers, if any.
 * Dissemination of any information or reproduction of any material contained
 * herein in any form is strictly forbidden, unless permitted by WSO2 expressly.
 * You may not alter or remove any copyright or other notice from copies of this content."
-->

<svg xmlns="http://www.w3.org/2000/svg" width="162" height="40" viewBox="0 0 162 40">
    <g id="asgardeo-by-wso2-logo-dark-16x40" transform="translate(-401.5 -388.98)">
        <path id="Path_264" data-name="Path 264" d="M717.966,388.98l.961,1.667-1.065,1.846h2.13l.966,1.667H714.97Z" transform="translate(-157.457)" fill="#ff7300"/>
        <path id="Path_265" data-name="Path 265" d="M705.95,394.161l.966-1.667h2.13l-1.065-1.846.961-1.667,3,5.181Z" transform="translate(-152.926)" fill="#ff7300"/>
        <path id="Path_266" data-name="Path 266" d="M714.521,401.971l-1.065-1.846-1.07,1.846H710.46l3-5.181,2.991,5.181Z" transform="translate(-155.192 -3.923)"/>
        <path id="Path_267" data-name="Path 267" d="M445.61,417.771v-3.877h9.785a1.627,1.627,0,0,0,0-3.255h-4.28a5.5,5.5,0,0,1,0-11.009H460.9v3.877h-9.785a1.6,1.6,0,0,0-1.15.473,1.627,1.627,0,0,0,1.15,2.782h4.28a5.5,5.5,0,0,1,0,11.009Z" transform="translate(-22.157 -5.35)"/>
        <path id="Path_268" data-name="Path 268" d="M488.049,417.768a9.073,9.073,0,1,1,0-18.141h7.645V403.5h-7.645a5.2,5.2,0,0,0,0,10.387h3.772v-3.255h-2.852v-3.857H495.7v11.009Z" transform="translate(-38.81 -5.347)"/>
        <path id="Path_269" data-name="Path 269" d="M574.367,417.771l-8.75-8.67v8.67H561.74V399.63h9.785a5.5,5.5,0,0,1,3.892,9.4,5.879,5.879,0,0,1-1.553,1.12l-1.155.562,7.077,7.062Zm-2.842-10.989a1.627,1.627,0,1,0,0-3.255h-5.908v3.255Z" transform="translate(-80.489 -5.35)"/>
        <path id="Path_270" data-name="Path 270" d="M600.89,417.768V399.628h7.645a9.073,9.073,0,1,1,0,18.141Zm7.645-3.877a5.2,5.2,0,0,0,0-10.387h-3.768v10.387Z" transform="translate(-100.154 -5.347)"/>
        <path id="Path_271" data-name="Path 271" d="M679.4,417.785a9.063,9.063,0,1,1,6.415-2.658A8.655,8.655,0,0,1,679.4,417.785Zm0-14.264a5.2,5.2,0,1,0,3.668,1.523A5.042,5.042,0,0,0,679.4,403.521Z" transform="translate(-135.037 -5.364)"/>
        <path id="Path_272" data-name="Path 272" d="M401.5,417.771h4.335l6.142-10.636,6.137,10.636h4.33L411.977,399.63Z" transform="translate(0 -5.35)"/>
        <path id="Path_273" data-name="Path 273" d="M516.16,417.771h4.335l6.137-10.636,6.137,10.636H537.1L526.631,399.63Z" transform="translate(-57.594 -5.35)"/>
        <path id="Path_274" data-name="Path 274" d="M637.84,417.726V399.65h15.155v3.842H641.707v3.325h8.466v3.753h-8.466v3.315h11.288v3.842Z" transform="translate(-118.715 -5.36)"/>
        <path id="Path_280" data-name="Path 280" d="M637.8,451.163v-3.857h1.259a1.458,1.458,0,0,1,.946.259.941.941,0,0,1,.319.766.786.786,0,0,1-.154.5,1,1,0,0,1-.418.323.906.906,0,0,1,.5.333.966.966,0,0,1,.179.582,1.025,1.025,0,0,1-.333.816,1.388,1.388,0,0,1-.951.3Zm.5-2.215h.766a.826.826,0,0,0,.538-.164.642.642,0,0,0,0-.916.9.9,0,0,0-.567-.149h-.752Zm0,.408v1.389h.841a.791.791,0,0,0,.557-.184.632.632,0,0,0,.209-.5c0-.463-.254-.7-.761-.7Z" transform="translate(-118.694 -29.449)"/>
        <path id="Path_281" data-name="Path 281" d="M645.054,451.45l.667-2.15h.523l-1.155,3.335c-.174.5-.458.712-.846.712h-.095l-.184-.035v-.4h.134a.642.642,0,0,0,.388-.1.7.7,0,0,0,.229-.368l.109-.289L643.8,449.32h.537Z" transform="translate(-121.708 -30.459)"/>
        <g id="Layer_1" transform="translate(526.705 417.664)">
            <g id="Group_5" data-name="Group 5" transform="translate(0 0)">
                <path id="Path_298" data-name="Path 298" d="M40.452,30.861l-2.429,6.2-2.442-6.63-2.588,6.615-2.208-6.185h-1l3.173,8.686,2.6-6.616L38,39.554l3.46-8.693Z" transform="translate(-29.781 -30.318)" fill="#ff7300"/>
                <path id="Path_299" data-name="Path 299" d="M105.487,36.886c-.405-.331-2.527-1.434-2.8-1.624a.95.95,0,0,1-.409-.83,1.093,1.093,0,0,1,.415-.886,1.533,1.533,0,0,1,1.01-.341,1.346,1.346,0,0,1,.656.149,1.658,1.658,0,0,1,.52.484l.087.135a.485.485,0,0,1,.1.124l.731-.47a2.593,2.593,0,0,0-.9-.961,2.188,2.188,0,0,0-1.158-.328,2.5,2.5,0,0,0-1.723.595,1.951,1.951,0,0,0-.668,1.525,1.623,1.623,0,0,0,.606,1.356c.405.318,2.425,1.366,2.738,1.581a1.079,1.079,0,0,1,.47.954,1.616,1.616,0,0,1-.476,1.195,1.635,1.635,0,0,1-1.208.477,1.49,1.49,0,0,1-1.065-.4,2.205,2.205,0,0,1-.6-1.139l-.892.273a3.339,3.339,0,0,0,.338.892,2.425,2.425,0,0,0,.561.674,2.729,2.729,0,0,0,3.513-.185,2.424,2.424,0,0,0,.755-1.8A1.76,1.76,0,0,0,105.487,36.886Z" transform="translate(-89.929 -31.93)" fill="#ff7300"/>
                <path id="Path_300" data-name="Path 300" d="M188,57.6a2.419,2.419,0,0,1,.666-.089,2.044,2.044,0,0,1,2.113,2.047,2.229,2.229,0,0,1-.28,1.091,7.773,7.773,0,0,1-1.085,1.38l-1.7,1.838h3.16v.661h-4.649l2.616-2.825a8.566,8.566,0,0,0,1.036-1.265,1.691,1.691,0,0,0,.24-.867,1.332,1.332,0,0,0-.431-.994,1.461,1.461,0,0,0-1.055-.416,1.587,1.587,0,0,0-.649.129C188,58.125,188,57.661,188,57.6Z" transform="translate(-162.039 -53.212)"/>
                <g id="Group_4" data-name="Group 4" transform="translate(16.275)">
                    <ellipse id="Ellipse_2" data-name="Ellipse 2" cx="3.765" cy="3.805" rx="3.765" ry="3.805" transform="translate(0.922 0.869)" fill="#ff7300"/>
                    <path id="Path_301" data-name="Path 301" d="M139.753,29.706a4.674,4.674,0,1,0,4.687,4.674A4.68,4.68,0,0,0,139.753,29.706Zm0,8.479a3.805,3.805,0,1,1,3.765-3.805A3.785,3.785,0,0,1,139.753,38.185Z" transform="translate(-135.066 -29.706)"/>
                    <path id="Path_302" data-name="Path 302" d="M148.572,42.105l-1.364,0-.68,1.224-1.7-4.138-1.527,3.4-2.244,0a3.828,3.828,0,0,0,.067.55l2.533.005,1.149-2.557,1.646,4.011,1.079-1.941,1.044,0c.005-.084.009-.168.009-.253S148.579,42.2,148.572,42.105Z" transform="translate(-140.133 -37.728)" fill="#fff"/>
                </g>
            </g>
        </g>
    </g>
</svg>
