<?xml version="1.0" encoding="UTF-8"?>
<!--
 * Copyright (c) 2026, WSO2 LLC. (https://www.wso2.com). All Rights Reserved.
 *
 * This software is the property of WSO2 LLC. and its suppliers, if any.
 * Dissemination of any information or reproduction of any material contained
 * herein in any form is strictly forbidden, unless permitted by WSO2 expressly.
 * You may not alter or remove any copyright or other notice from copies of this content.
-->
<svg id="Layer_1" data-name="Layer 1" xmlns="http://www.w3.org/2000/svg" viewBox="0 0 1798.9 575.38">
  <g>
    <path d="M310.06,358.12c-.16,0-.33,0-.49-.01-3.5-.21-6.48-2.63-7.4-6.01l-26.44-96.96-13.54,45.22c-1.04,3.46-4.22,5.83-7.83,5.83h-50.72c-4.51,0-8.17-3.66-8.17-8.17s3.66-8.17,8.17-8.17h44.63l19.99-66.76c1.04-3.46,4.22-5.83,7.83-5.83.03,0,.07,0,.1,0,3.65.04,6.82,2.5,7.78,6.02l27.59,101.17,11.95-29.5c1.25-3.08,4.25-5.1,7.57-5.1h40.63c4.51,0,8.17,3.66,8.17,8.17s-3.66,8.17-8.17,8.17h-35.13l-18.97,46.82c-1.26,3.1-4.26,5.1-7.57,5.1Z"/>
    <path d="M287.69,431.36c-79.22,0-143.67-64.45-143.67-143.67s64.45-143.67,143.67-143.67,143.67,64.45,143.67,143.67-64.45,143.67-143.67,143.67ZM287.69,160.36c-70.21,0-127.32,57.12-127.32,127.33s57.12,127.32,127.32,127.32,127.33-57.12,127.33-127.32-57.12-127.33-127.33-127.33Z"/>
  </g>
  <g>
    <path d="M540.35,287.46l-38.38-141.54h22.8l20.42,81.12c1.26,5,2.44,10.2,3.51,15.58,1.08,5.38,2.14,10.83,3.18,16.34,1.05,5.51,2.04,11.02,2.99,16.53h-3.23c1.02-5.51,2.06-11.02,3.14-16.53,1.08-5.51,2.19-10.95,3.33-16.34,1.14-5.38,2.37-10.58,3.7-15.58l20.99-81.12h23.75l20.81,81.12c1.33,5,2.56,10.2,3.7,15.58,1.14,5.38,2.26,10.83,3.37,16.34,1.11,5.51,2.17,11.02,3.18,16.53h-3.42c1.01-5.51,2.02-11.02,3.04-16.53,1.01-5.51,2.1-10.95,3.28-16.34,1.17-5.38,2.33-10.58,3.47-15.58l20.42-81.12h22.99l-38.57,141.54h-24.98l-22.51-83.88c-1.71-6.58-3.3-13.74-4.75-21.47-1.46-7.73-2.95-16.21-4.47-25.46h4.94c-1.58,8.87-3.02,17.07-4.32,24.6-1.3,7.54-2.93,14.98-4.89,22.32l-22.42,83.88h-25.08Z"/>
    <path d="M742.38,289.84c-10.57,0-19.76-1.68-27.55-5.04-7.79-3.36-13.89-8.15-18.29-14.39-4.4-6.24-6.82-13.66-7.27-22.28h21.76c.44,5.13,2.1,9.37,4.99,12.73,2.88,3.36,6.63,5.86,11.26,7.5,4.62,1.65,9.62,2.47,15.01,2.47,6.02,0,11.35-.93,16.01-2.8,4.66-1.87,8.34-4.53,11.07-7.98,2.72-3.45,4.09-7.46,4.09-12.02,0-4.12-1.19-7.49-3.56-10.12-2.37-2.63-5.58-4.81-9.59-6.55-4.02-1.74-8.6-3.28-13.73-4.61l-16.53-4.56c-11.59-3.1-20.63-7.69-27.12-13.77-6.49-6.08-9.74-13.97-9.74-23.66,0-8.17,2.2-15.31,6.6-21.42,4.4-6.11,10.39-10.86,17.95-14.25,7.57-3.39,16.1-5.08,25.6-5.08s18.22,1.7,25.6,5.08c7.38,3.39,13.17,8.03,17.39,13.92,4.21,5.89,6.41,12.6,6.6,20.14h-21.09c-.7-6.46-3.69-11.46-8.97-15.01-5.29-3.55-11.96-5.32-20-5.32-5.7,0-10.66.89-14.87,2.66-4.21,1.77-7.47,4.23-9.78,7.36-2.31,3.14-3.47,6.7-3.47,10.69,0,4.5,1.38,8.12,4.13,10.88,2.76,2.76,6.11,4.94,10.07,6.55,3.96,1.62,7.74,2.9,11.35,3.85l13.77,3.61c4.5,1.14,9.13,2.68,13.92,4.61,4.78,1.93,9.2,4.44,13.25,7.51,4.05,3.07,7.33,6.87,9.83,11.4,2.5,4.53,3.75,9.99,3.75,16.39,0,7.98-2.06,15.11-6.17,21.37-4.12,6.27-10.09,11.2-17.91,14.77-7.82,3.58-17.27,5.37-28.36,5.37Z"/>
    <path d="M867.88,289.36c-12.23,0-23.17-2.9-32.82-8.69-9.66-5.79-17.26-14.12-22.8-24.98-5.54-10.86-8.31-23.83-8.31-38.9s2.77-28.13,8.31-39c5.54-10.86,13.14-19.21,22.8-25.03,9.65-5.83,20.59-8.74,32.82-8.74s23.13,2.91,32.72,8.74c9.59,5.83,17.16,14.17,22.71,25.03,5.54,10.86,8.31,23.86,8.31,39s-2.77,28.04-8.31,38.9c-5.55,10.86-13.11,19.19-22.71,24.98-9.59,5.8-20.5,8.69-32.72,8.69ZM867.88,269.6c8.04,0,15.25-2.01,21.61-6.03,6.36-4.02,11.4-9.97,15.11-17.86,3.7-7.89,5.55-17.53,5.55-28.93s-1.85-21.23-5.55-29.12c-3.7-7.89-8.74-13.84-15.11-17.86-6.36-4.02-13.57-6.03-21.61-6.03s-15.36,2.03-21.76,6.08c-6.4,4.05-11.45,10.02-15.15,17.91-3.7,7.88-5.55,17.56-5.55,29.02s1.85,21.03,5.55,28.88c3.7,7.85,8.76,13.81,15.15,17.86,6.4,4.05,13.65,6.08,21.76,6.08Z"/>
    <path d="M940.47,287.46v-15.68l48.07-49.68c4.94-5.19,9.06-9.79,12.35-13.78,3.29-3.99,5.8-7.82,7.5-11.49,1.71-3.67,2.57-7.6,2.57-11.78,0-4.75-1.09-8.83-3.28-12.25-2.19-3.42-5.16-6.05-8.93-7.88-3.77-1.84-8.06-2.76-12.87-2.76s-9.37,1.03-13.11,3.09c-3.73,2.06-6.62,4.96-8.64,8.69-2.03,3.74-3.04,8.14-3.04,13.2h-20.8c0-8.61,1.99-16.16,5.98-22.66,3.99-6.49,9.43-11.53,16.34-15.11,6.9-3.58,14.79-5.36,23.65-5.36s16.89,1.77,23.7,5.32c6.81,3.55,12.14,8.35,16,14.39,3.86,6.05,5.8,12.9,5.8,20.57,0,5.19-.96,10.26-2.9,15.2-1.93,4.94-5.32,10.51-10.17,16.72-4.84,6.21-11.67,13.74-20.47,22.61l-27.74,28.98v1.14h63.46v18.53h-93.47Z"/>
  </g>
  <g>
    <path d="M533.18,325.12v105.71h-21.64v-105.71h21.64Z"/>
    <path d="M580.78,432.17c-6.05,0-11.53-1.57-16.42-4.72-4.9-3.14-8.76-7.76-11.6-13.83-2.84-6.08-4.26-13.52-4.26-22.31s1.47-16.58,4.4-22.63c2.93-6.05,6.83-10.59,11.71-13.62,4.87-3.03,10.24-4.54,16.1-4.54,4.49,0,8.23.76,11.21,2.27,2.98,1.51,5.39,3.38,7.24,5.6,1.84,2.22,3.22,4.38,4.12,6.46h.71v-39.73h21.28v105.71h-20.93v-12.7h-1.06c-.95,2.13-2.35,4.27-4.22,6.42-1.87,2.15-4.29,3.96-7.27,5.43-2.98,1.47-6.65,2.2-11,2.2ZM587.38,415.08c3.59,0,6.67-.99,9.22-2.98,2.55-1.99,4.49-4.76,5.82-8.34,1.32-3.57,1.99-7.74,1.99-12.52s-.65-9-1.95-12.52c-1.3-3.52-3.23-6.27-5.78-8.23-2.55-1.96-5.65-2.94-9.29-2.94s-6.87,1.02-9.4,3.05c-2.53,2.03-4.43,4.82-5.71,8.37-1.28,3.55-1.92,7.64-1.92,12.27s.65,8.75,1.95,12.34c1.3,3.59,3.22,6.41,5.75,8.44,2.53,2.03,5.64,3.05,9.33,3.05Z"/>
    <path d="M679.26,432.39c-8.09,0-15.06-1.65-20.93-4.97-5.87-3.31-10.37-8.02-13.52-14.12-3.15-6.1-4.72-13.34-4.72-21.71s1.56-15.35,4.68-21.5,7.54-10.95,13.27-14.4c5.72-3.45,12.44-5.18,20.15-5.18,5.2,0,10.05.83,14.54,2.48,4.49,1.66,8.44,4.15,11.85,7.49,3.41,3.33,6.07,7.51,7.98,12.52,1.92,5.01,2.87,10.93,2.87,17.74v5.96h-66.62v-13.34h56.19l-9.93,3.55c0-4.12-.63-7.7-1.88-10.75-1.25-3.05-3.12-5.42-5.6-7.09-2.48-1.68-5.55-2.52-9.19-2.52s-6.82.85-9.4,2.55c-2.58,1.7-4.53,4.01-5.85,6.92-1.32,2.91-1.99,6.23-1.99,9.97v9.44c0,4.59.77,8.44,2.31,11.56,1.54,3.12,3.69,5.46,6.46,7.02,2.77,1.56,5.99,2.34,9.68,2.34,2.51,0,4.78-.36,6.81-1.06,2.03-.71,3.77-1.76,5.21-3.16,1.44-1.39,2.54-3.11,3.3-5.14l19.3,3.62c-1.28,4.35-3.5,8.17-6.67,11.46-3.17,3.29-7.13,5.83-11.88,7.63-4.75,1.8-10.23,2.7-16.42,2.7Z"/>
    <path d="M751.27,384.92v45.9h-21.28v-79.32h20.08l.35,19.79h-1.28c2.08-6.62,5.24-11.74,9.47-15.36,4.23-3.62,9.71-5.43,16.42-5.43,5.49,0,10.27,1.19,14.37,3.58,4.09,2.39,7.26,5.82,9.51,10.29,2.25,4.47,3.37,9.8,3.37,16v50.44h-21.28v-46.75c0-4.92-1.27-8.77-3.8-11.56-2.53-2.79-6.04-4.19-10.54-4.19-2.98,0-5.64.65-7.98,1.95-2.34,1.3-4.16,3.18-5.46,5.64-1.3,2.46-1.95,5.46-1.95,9.01Z"/>
    <path d="M859.81,351.51v16.25h-47.04v-16.25h47.04ZM823.7,332.64h21.28v74.99c0,2.51.56,4.36,1.67,5.57,1.11,1.21,2.97,1.81,5.57,1.81.8,0,1.94-.11,3.41-.32,1.47-.21,2.58-.41,3.33-.6l3.05,15.96c-2.37.71-4.72,1.21-7.06,1.49-2.34.28-4.58.43-6.7.43-7.95,0-14.02-1.94-18.23-5.82-4.21-3.88-6.31-9.44-6.31-16.67v-76.83Z"/>
    <path d="M884.29,341.15c-3.22,0-5.96-1.06-8.23-3.19-2.27-2.13-3.41-4.71-3.41-7.73s1.14-5.6,3.41-7.73c2.27-2.13,5.01-3.19,8.23-3.19s5.97,1.06,8.27,3.19c2.29,2.13,3.44,4.71,3.44,7.73s-1.15,5.61-3.44,7.73c-2.29,2.13-5.05,3.19-8.27,3.19ZM873.65,430.83v-79.32h21.28v79.32h-21.28Z"/>
    <path d="M952.4,351.51v16.25h-47.04v-16.25h47.04ZM916.29,332.64h21.28v74.99c0,2.51.56,4.36,1.67,5.57,1.11,1.21,2.97,1.81,5.57,1.81.8,0,1.94-.11,3.41-.32,1.47-.21,2.58-.41,3.33-.6l3.05,15.96c-2.37.71-4.72,1.21-7.06,1.49-2.34.28-4.58.43-6.7.43-7.95,0-14.02-1.94-18.23-5.82-4.21-3.88-6.31-9.44-6.31-16.67v-76.83Z"/>
    <path d="M968.86,458.92l4.9-16.03,2.62.64c2.84.76,5.37.97,7.59.64,2.22-.33,4.01-1.23,5.36-2.7s2.16-3.52,2.45-6.17l.57-4.26-29.8-79.53h22.63l13.34,41.15c1.61,5.2,2.92,10.41,3.94,15.61,1.02,5.2,2.19,10.64,3.51,16.32h-4.97c1.28-5.68,2.55-11.13,3.83-16.35,1.28-5.23,2.77-10.42,4.47-15.57l13.91-41.15h22.35l-33.7,88.68c-1.61,4.26-3.67,7.95-6.17,11.07-2.51,3.12-5.63,5.53-9.36,7.24-3.74,1.7-8.25,2.55-13.55,2.55-2.84,0-5.49-.2-7.95-.6-2.46-.4-4.45-.91-5.96-1.53Z"/>
    <path d="M1093.94,430.83v-105.71h37.89c8.13,0,14.92,1.51,20.36,4.54,5.44,3.03,9.51,7.12,12.2,12.27,2.7,5.16,4.04,11,4.04,17.52s-1.36,12.38-4.08,17.56c-2.72,5.18-6.8,9.27-12.24,12.27-5.44,3-12.25,4.5-20.43,4.5h-25.9v-13.69h24.33c5.2,0,9.41-.9,12.63-2.7,3.22-1.8,5.57-4.26,7.06-7.38,1.49-3.12,2.23-6.64,2.23-10.57s-.74-7.51-2.23-10.61c-1.49-3.1-3.86-5.52-7.09-7.27-3.24-1.75-7.48-2.62-12.73-2.62h-19.86v91.88h-16.18Z"/>
    <path d="M1201.56,325.12v105.71h-15.61v-105.71h15.61Z"/>
    <path d="M1244.77,432.6c-5.01,0-9.55-.93-13.62-2.8-4.07-1.87-7.28-4.6-9.65-8.19-2.37-3.59-3.55-7.99-3.55-13.2,0-4.49.86-8.18,2.59-11.07,1.73-2.88,4.07-5.18,7.02-6.88,2.96-1.7,6.24-2.98,9.86-3.83s7.29-1.49,11.03-1.92c4.68-.57,8.49-1.03,11.42-1.38,2.93-.35,5.1-.95,6.49-1.77,1.39-.83,2.09-2.16,2.09-4.01v-.43c0-2.98-.57-5.49-1.7-7.52-1.14-2.03-2.83-3.61-5.07-4.72-2.25-1.11-5.05-1.67-8.41-1.67s-6.42.53-8.9,1.6c-2.48,1.06-4.49,2.42-6.03,4.08-1.54,1.66-2.69,3.38-3.44,5.18l-14.69-3.83c1.8-4.73,4.37-8.54,7.73-11.42,3.36-2.88,7.21-4.99,11.56-6.31,4.35-1.32,8.84-1.99,13.48-1.99,3.22,0,6.62.38,10.22,1.13,3.59.76,6.98,2.13,10.15,4.12,3.17,1.99,5.75,4.78,7.73,8.37,1.99,3.6,2.98,8.28,2.98,14.05v52.64h-15.11v-10.85h-.78c-1.04,2.03-2.58,4.02-4.61,5.96-2.03,1.94-4.6,3.54-7.7,4.79-3.1,1.25-6.8,1.88-11.1,1.88ZM1248.24,420.04c4.26,0,7.9-.83,10.93-2.48,3.03-1.66,5.34-3.85,6.95-6.6,1.61-2.74,2.41-5.65,2.41-8.73v-10.15c-.57.57-1.64,1.08-3.23,1.53-1.59.45-3.39.85-5.43,1.21-2.03.35-4,.65-5.89.89-1.89.24-3.45.43-4.68.57-2.93.38-5.62,1.02-8.05,1.92-2.44.9-4.38,2.18-5.82,3.83-1.44,1.66-2.16,3.86-2.16,6.6,0,2.51.65,4.61,1.95,6.31,1.3,1.7,3.06,2.98,5.29,3.83,2.22.85,4.8,1.28,7.73,1.28Z"/>
    <path d="M1338.98,351.51v12.7h-42.99v-12.7h42.99ZM1307.55,332.64h15.61v76.76c0,3.17.67,5.5,2.02,6.99,1.35,1.49,3.56,2.23,6.63,2.23.8,0,1.87-.09,3.19-.28,1.32-.19,2.46-.38,3.41-.57l2.77,12.49c-1.66.57-3.43.98-5.32,1.24-1.89.26-3.76.39-5.6.39-7.19,0-12.77-1.86-16.74-5.57-3.97-3.71-5.96-8.93-5.96-15.64v-78.04Z"/>
    <path d="M1389.92,351.51v12.7h-48.39v-12.7h48.39ZM1356.58,430.83v-88.4c0-4.92,1.1-9.03,3.3-12.34,2.2-3.31,5.1-5.79,8.69-7.45,3.59-1.66,7.47-2.48,11.64-2.48,3.17,0,5.88.26,8.12.78,2.25.52,3.89.97,4.93,1.35l-3.62,12.63c-.76-.24-1.69-.48-2.8-.75-1.11-.26-2.5-.39-4.15-.39-3.69,0-6.36.92-8.02,2.77-1.66,1.84-2.48,4.52-2.48,8.02v86.27h-15.61Z"/>
    <path d="M1435.18,432.46c-7.43,0-13.92-1.7-19.47-5.11-5.56-3.41-9.87-8.18-12.95-14.33-3.08-6.15-4.61-13.29-4.61-21.43s1.54-15.43,4.61-21.6c3.07-6.17,7.39-10.96,12.95-14.37,5.56-3.41,12.05-5.11,19.47-5.11s13.99,1.7,19.55,5.11c5.56,3.41,9.87,8.19,12.95,14.37,3.07,6.17,4.61,13.37,4.61,21.6s-1.54,15.28-4.61,21.43c-3.08,6.15-7.39,10.93-12.95,14.33-5.56,3.41-12.07,5.11-19.55,5.11ZM1435.18,419.26c4.82,0,8.81-1.26,11.95-3.79,3.15-2.53,5.49-5.89,7.02-10.08,1.54-4.19,2.31-8.78,2.31-13.8s-.77-9.71-2.31-13.94c-1.54-4.23-3.88-7.61-7.02-10.15-3.15-2.53-7.13-3.8-11.95-3.8s-8.73,1.27-11.85,3.8c-3.12,2.53-5.45,5.9-6.99,10.11-1.54,4.21-2.31,8.87-2.31,13.98s.77,9.61,2.31,13.8c1.54,4.19,3.87,7.54,6.99,10.08s7.07,3.79,11.85,3.79Z"/>
    <path d="M1489.6,430.83v-79.32h15.11v12.77h.85c1.47-4.35,4.02-7.76,7.66-10.22,3.64-2.46,7.78-3.69,12.42-3.69.99,0,2.13.04,3.41.11,1.28.07,2.34.18,3.19.32v14.9c-.57-.19-1.66-.38-3.26-.57-1.61-.19-3.24-.28-4.9-.28-3.59,0-6.83.76-9.72,2.27-2.89,1.51-5.13,3.61-6.74,6.28-1.61,2.67-2.41,5.76-2.41,9.26v48.17h-15.61Z"/>
    <path d="M1547.63,430.83v-79.32h14.83l.43,18.38h-1.21c1.14-4.49,2.88-8.18,5.25-11.07,2.36-2.88,5.13-5.05,8.3-6.49,3.17-1.44,6.48-2.16,9.93-2.16,5.77,0,10.43,1.79,13.98,5.36s5.94,8.55,7.17,14.93h-1.99c1.04-4.35,2.84-8.04,5.39-11.07,2.55-3.03,5.64-5.32,9.26-6.88s7.48-2.34,11.6-2.34c4.68,0,8.93,1.02,12.73,3.05,3.81,2.03,6.82,5.06,9.05,9.08,2.22,4.02,3.33,9.04,3.33,15.04v53.49h-15.61v-51.93c0-5.3-1.48-9.13-4.43-11.49-2.96-2.36-6.44-3.55-10.46-3.55-3.26,0-6.08.69-8.44,2.06-2.37,1.37-4.19,3.28-5.46,5.71-1.28,2.44-1.92,5.24-1.92,8.41v50.8h-15.4v-52.93c0-4.26-1.36-7.66-4.08-10.22-2.72-2.55-6.18-3.83-10.39-3.83-2.89,0-5.57.67-8.05,2.02-2.48,1.35-4.47,3.33-5.96,5.96s-2.23,5.85-2.23,9.68v49.31h-15.61Z"/>
  </g>
</svg>