<!--
 * Copyright (c) 2024, WSO2 LLC. (https://www.wso2.com).
 *
 * WSO2 LLC. licenses this file to you under the Apache License,
 * Version 2.0 (the "License"); you may not use this file except
 * in compliance with the License.
 * You may obtain a copy of the License at
 *
 *     http://www.apache.org/licenses/LICENSE-2.0
 *
 * Unless required by applicable law or agreed to in writing,
 * software distributed under the License is distributed on an
 * "AS IS" BASIS, WITHOUT WARRANTIES OR CONDITIONS OF ANY
 * KIND, either express or implied. See the License for the
 * specific language governing permissions and limitations
 * under the License.
-->

<svg id="api-resources-icon" class="icon" width="16" height="16" viewBox="0 0 16 16" fill="none"
    xmlns="http://www.w3.org/2000/svg">
    <path fill-rule="evenodd" clip-rule="evenodd"
        d="M8.22831 0.380868C8.95926 0.729269 9.53325 1.25641 9.86567 1.68324C10.3416 1.55219 11.0109 1.49343 11.658 1.70061C12.0809 1.83599 12.4972 2.08653 12.8313 2.50378C13.1198 2.86397 13.3308 3.32802 13.4442 3.90718C14.2553 4.17382 15.4596 4.74042 15.8184 6.18047C16.2201 7.79225 14.9945 9.81343 12.6667 9.81343H11.1666V11.6527C11.1666 11.819 11.1697 12.0714 11.2598 12.3126C11.3417 12.5317 11.4926 12.7378 11.8248 12.8489L12.2644 12.9959C12.6094 12.3931 13.2574 11.9871 14 11.9871C15.1046 11.9871 16 12.8854 16 13.9935C16 15.1017 15.1046 16 14 16C12.8954 16 12 15.1017 12 13.9935L12.0002 13.965L11.5085 13.8006C10.8407 13.5773 10.4916 13.1145 10.3235 12.6648C10.1665 12.2448 10.1666 11.8356 10.1666 11.6619L10.1666 9.81343H8.5V16H7.5V9.81343H5.83336L5.83336 11.6619C5.83341 11.8356 5.83354 12.2448 5.67652 12.6648C5.50843 13.1145 5.15932 13.5773 4.49147 13.8006L3.9998 13.965L4 13.9935C4 15.1017 3.10457 16 2 16C0.895431 16 0 15.1017 0 13.9935C0 12.8854 0.895431 11.9871 2 11.9871C2.74256 11.9871 3.39061 12.3931 3.73562 12.9959L4.17524 12.8489C4.50739 12.7378 4.65829 12.5317 4.74019 12.3126C4.83033 12.0714 4.83336 11.819 4.83336 11.6527V9.81343H3C2.34957 9.81343 1.65108 9.4967 1.122 9.01416C0.586209 8.52551 0.166667 7.81373 0.166667 6.97095C0.166667 5.25167 1.37632 4.0981 2.53272 3.84604C2.65569 2.93499 3.16756 1.42434 4.75193 0.51606C6.05555 -0.231268 7.28754 -0.0675376 8.22831 0.380868ZM5.24807 1.38711C6.21336 0.833734 7.09269 0.950291 7.79917 1.28702C8.53253 1.63657 9.04718 2.21155 9.20201 2.48123C9.34745 2.73456 9.65955 2.83796 9.92693 2.72075C10.2069 2.59805 10.8111 2.48255 11.354 2.65635C11.6135 2.73943 11.8554 2.88692 12.0517 3.13212C12.2493 3.37881 12.4224 3.75156 12.4987 4.31786C12.5268 4.5269 12.6736 4.72281 12.9026 4.78953C13.6755 5.01472 14.5937 5.40215 14.8483 6.42379C15.0934 7.40741 14.3388 8.8102 12.6667 8.8102H3C2.65043 8.8102 2.18225 8.62532 1.79467 8.27183C1.41379 7.92446 1.16667 7.46581 1.16667 6.97095C1.16667 5.60944 2.22592 4.8299 2.95514 4.79827C3.25072 4.78546 3.49173 4.54642 3.50081 4.24393C3.51916 3.63183 3.83864 2.19509 5.24807 1.38711ZM2 14.9968C2.55228 14.9968 3 14.5476 3 13.9935C3 13.4395 2.55228 12.9903 2 12.9903C1.44772 12.9903 1 13.4395 1 13.9935C1 14.5476 1.44772 14.9968 2 14.9968ZM13 13.9935C13 14.5476 13.4477 14.9968 14 14.9968C14.5523 14.9968 15 14.5476 15 13.9935C15 13.4395 14.5523 12.9903 14 12.9903C13.4477 12.9903 13 13.4395 13 13.9935Z"
        fill="black" />
</svg>
