<svg width="16" class="icon" height="16" viewBox="0 0 16 16" fill="none"
     xmlns="http://www.w3.org/2000/svg">
  <g clip-path="url(#clip0_3297_27)">
    <path d="M0.653107 7.80603L7.72248 1.26716C8.67798 0.383279 10.2274 0.383279 11.1829 1.26716C12.1383 2.15103 12.1383 3.58408 11.1829 4.46796M11.1829 4.46796L5.8437 9.40644M11.1829 4.46796C12.1383 3.58408 13.6877 3.58408 14.6433 4.46796C15.5988 5.35184 15.5988 6.7849 14.6433 7.66872L8.61829 13.2417C8.28047 13.5541 8.28047 14.0609 8.61829 14.3734L9.7366 15.4078"
          stroke="currentColor" stroke-linecap="round" stroke-linejoin="round" fill="none"/>
    <path d="M12.7644 6.20493L7.42531 11.1436C6.46982 12.0274 4.92044 12.0274 3.96495 11.1436C3.00944 10.2597 3.00944 8.82662 3.96495 7.9428L9.30405 3.00427"
          stroke="currentColor" stroke-linecap="round" stroke-linejoin="round" fill="none"/>
  </g>
  <defs>
    <clipPath id="clip0_3297_27">
      <rect width="16" height="16" fill="white"/>
    </clipPath>
  </defs>
</svg>
