<!--
 * Copyright (c) 2020, WSO2 Inc. (http://www.wso2.org) All Rights Reserved.
 *
 * WSO2 Inc. licenses this file to you under the Apache License,
 * Version 2.0 (the "License"); you may not use this file except
 * in compliance with the License.
 * You may obtain a copy of the License at
 *
 *     http://www.apache.org/licenses/LICENSE-2.0
 *
 * Unless required by applicable law or agreed to in writing,
 * software distributed under the License is distributed on an
 * "AS IS" BASIS, WITHOUT WARRANTIES OR CONDITIONS OF ANY
 * KIND, either express or implied. See the License for the
 * specific language governing permissions and limitations
 * under the License.
-->

<svg xmlns="http://www.w3.org/2000/svg" class="icon" width="14" height="14" viewBox="0 0 14 14">
    <path id="password-policies-key-outline" class="path fill primary"
          d="M12.869,14h-7V5h7V6.71A4.09,4.09,0,1,0,5.385,5.689a.3.3,0,0,1-.152.334L4.867,6.2l.3.3a.291.291,0,0,1,0,.412L4.581,7.5a.291.291,0,0,1-.206.086H4.083v.292A.291.291,0,0,1,4,8.081l-.583.583a.291.291,0,0,1-.206.086H2.917v.292a.291.291,0,0,1-.086.206l-.583.584a.292.292,0,0,1-.206.085H1.75v.292a.292.292,0,0,1-.085.206L.583,11.5v1.921H2.5L5.87,10.051v.825L2.831,13.915A.294.294,0,0,1,2.625,14H.292A.292.292,0,0,1,0,13.708V11.375a.291.291,0,0,1,.086-.206l1.081-1.082V9.625a.292.292,0,0,1,.292-.292h.463l.413-.412V8.458a.292.292,0,0,1,.292-.292h.463L3.5,7.754V7.292A.292.292,0,0,1,3.792,7h.463l.292-.292-.377-.377a.291.291,0,0,1,.076-.467L4.766,5.6a4.665,4.665,0,1,1,8.1,2.108V14Zm-6.4-.6h5.8V5.6h-5.8ZM1.835,12.164a.292.292,0,0,1,0-.412L5.87,7.718v.824L2.247,12.164a.291.291,0,0,1-.412,0Zm8.534-.014h-3v-.6h3v.6Zm1-1.2h-4v-.6h4v.6Zm.5-1.2h-2v-.6h2v.6Zm-2.5,0h-2v-.6h2v.6Zm1-1.2h-3v-.6h3v.6Zm1-1.2h-4v-.6h4v.6ZM9.333,3.209a1.458,1.458,0,1,1,1.458,1.458A1.46,1.46,0,0,1,9.333,3.209Zm.583,0a.875.875,0,1,0,.875-.875A.876.876,0,0,0,9.916,3.209Z"
          fill="#464646"/>
</svg>
