<!--
 * Copyright (c) 2020, WSO2 Inc. (http://www.wso2.org) All Rights Reserved.
 *
 * WSO2 Inc. licenses this file to you under the Apache License,
 * Version 2.0 (the "License"); you may not use this file except
 * in compliance with the License.
 * You may obtain a copy of the License at
 *
 *     http://www.apache.org/licenses/LICENSE-2.0
 *
 * Unless required by applicable law or agreed to in writing,
 * software distributed under the License is distributed on an
 * "AS IS" BASIS, WITHOUT WARRANTIES OR CONDITIONS OF ANY
 * KIND, either express or implied. See the License for the
 * specific language governing permissions and limitations
 * under the License.
-->

<svg xmlns="http://www.w3.org/2000/svg" class="icon" width="14" height="14" viewBox="0 0 14.002 13.998">
    <path id="pin-outline" class="path fill primary"
          d="M.087,14.71a.3.3,0,0,1,0-.424l6.24-6.24L4.311,6.03a.3.3,0,0,1,0-.424.327.327,0,0,1,.049-.039l0,0a4.521,4.521,0,0,1,1.652-.986,3.3,3.3,0,0,1,1.7-.077l3.06-2.762-.427-.427a.3.3,0,0,1,.425-.425l3.149,3.149a.3.3,0,1,1-.425.424l-.466-.466-2.762,3.06a3.3,3.3,0,0,1-.077,1.7A4.525,4.525,0,0,1,9.2,10.406l-.005,0a.286.286,0,0,1-.04.048.3.3,0,0,1-.424,0L6.751,8.47.512,14.71a.3.3,0,0,1-.425,0ZM6.106,5.089a3.049,3.049,0,0,0-1.185.7L8.972,9.842a3.06,3.06,0,0,0,.7-1.185,5.409,5.409,0,0,0,.076-1.922L12.6,3.569,11.192,2.164,8.027,5.013a6.346,6.346,0,0,0-.835-.054A4.026,4.026,0,0,0,6.106,5.089Z"
          transform="translate(0 -0.8)" fill="#464646"/>
</svg>
