<?xml version="1.0" encoding="utf-8"?>
<!--
 * Copyright (c) 2021, WSO2 Inc. (http://www.wso2.org) All Rights Reserved.
 *
 * WSO2 Inc. licenses this file to you under the Apache License,
 * Version 2.0 (the "License"); you may not use this file except
 * in compliance with the License.
 * You may obtain a copy of the License at
 *
 *     http://www.apache.org/licenses/LICENSE-2.0
 *
 * Unless required by applicable law or agreed to in writing,
 * software distributed under the License is distributed on an
 * "AS IS" BASIS, WITHOUT WARRANTIES OR CONDITIONS OF ANY
 * KIND, either express or implied. See the License for the
 * specific language governing permissions and limitations
 * under the License.
-->

<svg id="revoke-icon" class="icon" xmlns="http://www.w3.org/2000/svg" width="15" height="15" viewBox="0 0 14 14" xml:space="preserve" >
  <g id="revoke_1" data-name="revoke token">
    <path id="revoke-outline" d="M.292,14A.292.292,0,0,1,0,13.708V11.375a.291.291,0,0,1,.086-.206l1.081-1.082V9.625a.292.292,0,0,1,.292-.292h.463l.16-.159.011.034L2.1,9.176l.4,1.21,1.27.186.013.029.024,0-.016.016.479,1.08-.005.072.067.642-1.5,1.5A.294.294,0,0,1,2.625,14ZM1.75,10.209a.292.292,0,0,1-.085.206L.583,11.5v1.921H2.5l1.156-1.155v-.374l-.305-.793-.033,0L2.247,12.164a.291.291,0,0,1-.412-.412L2.583,11,2.1,10.948,1.756,9.916H1.75ZM5.442,11.3l-.016-.186-.467-1.2L3.709,9.77,3.294,8.247l-.073-.214L3.5,7.754V7.292A.292.292,0,0,1,3.792,7h.463l.292-.292-.377-.377a.291.291,0,0,1,.076-.467L4.766,5.6a4.664,4.664,0,1,1,4.6,3.732,4.746,4.746,0,0,1-.971-.1l-.26.521a.29.29,0,0,1-.214.158.3.3,0,0,1-.049,0,.292.292,0,0,1-.2-.085l-.377-.377L5.444,11.3l0,0ZM5.375,9.4l.338.812L7.086,8.835a.291.291,0,0,1,.412,0l.3.3.183-.365a.293.293,0,0,1,.261-.161.279.279,0,0,1,.073.009,4.249,4.249,0,0,0,1.057.136A4.107,4.107,0,1,0,5.385,5.689a.3.3,0,0,1-.152.334L4.867,6.2l.3.3a.291.291,0,0,1,0,.412L4.581,7.5a.291.291,0,0,1-.206.086H4.083v.292A.291.291,0,0,1,4,8.081l-.162.162h.008l.26.966.239.035L5.918,7.669a.291.291,0,1,1,.412.412L5.062,9.35ZM9.333,3.209a1.458,1.458,0,1,1,1.458,1.458A1.46,1.46,0,0,1,9.333,3.209Zm.583,0a.875.875,0,1,0,.875-.875A.876.876,0,0,0,9.916,3.209Z" fill="#666"/>
  </g>
</svg>
