<svg xmlns="http://www.w3.org/2000/svg" height="20px" viewBox="0 -960 960 960" width="20px" fill="#1f1f1f"><path d="M453.85-495.31q22.53-25.77 33.27-56.89 10.73-31.11 10.73-64.11 0-32.64-10.73-63.43-10.74-30.8-33.27-57.57 8-2 15-2.5t15-.5q52.69-1.92 89.5 34.5 36.8 36.43 36.8 89.5 0 53.08-36.8 89.5-36.81 36.42-89.5 34.5-8 0-15.5-.5t-14.5-2.5Zm188 275.62v-65.85q0-37.71-16.31-70.24-16.31-32.53-48.77-53.68 63 13.31 120.19 38.81t57.19 85.11v65.85h-112.3ZM766.15-442v-84h-84v-52h84v-84h52v84h84v52h-84v84h-52Zm-552.26-86.35q-36.04-36.03-36.04-87.96 0-51.92 36.04-87.96 36.03-36.04 87.96-36.04 51.92 0 87.96 36.04 36.04 36.04 36.04 87.96 0 51.93-36.04 87.96-36.04 36.04-87.96 36.04-51.93 0-87.96-36.04ZM33.85-219.69v-68.93q0-20.79 10.96-38.62 10.96-17.84 30.65-30.3 51.31-32.07 109.2-47.11 57.88-15.04 116.73-15.04 58.84 0 116.19 16.04 57.34 16.04 110.65 46.11 18.69 12.46 30.15 30.3 11.47 17.83 11.47 38.62v68.93h-536Zm267.5-324.62q29.5 0 51-21 21.5-21.01 21.5-50.5 0-29.5-21.5-51t-51-21.5q-29.49 0-50.5 21.5-21 21.5-21 51 0 29.49 21 50.5 21.01 21 50.5 21ZM85.85-271.69h432v-16.93q0-7.22-4.54-13.53T500.69-314q-45.69-24.46-95.91-39.08-50.23-14.61-103.43-14.61-53.21 0-103.43 14.11Q147.69-339.46 103-314q-8.08 5.54-12.61 11.85-4.54 6.31-4.54 13.53v16.93Zm216-344.62Zm0 344.62Z"/></svg>