<!--
 * Copyright (c) 2025, WSO2 LLC. (https://www.wso2.com).
 *
 * WSO2 LLC. licenses this file to you under the Apache License,
 * Version 2.0 (the "License"); you may not use this file except
 * in compliance with the License.
 * You may obtain a copy of the License at
 *
 *     http://www.apache.org/licenses/LICENSE-2.0
 *
 * Unless required by applicable law or agreed to in writing,
 * software distributed under the License is distributed on an
 * "AS IS" BASIS, WITHOUT WARRANTIES OR CONDITIONS OF ANY
 * KIND, either express or implied. See the License for the
 * specific language governing permissions and limitations
 * under the License.
-->

<svg xmlns="http://www.w3.org/2000/svg" fill="#000000" width="800px" height="800px"
    viewBox="0 0 24 24">
    <g data-name="Layer 2">
        <g data-name="arrowhead-right">
            <rect width="24" height="24" transform="rotate(-90 12 12)" opacity="0" />
            <path
                d="M18.78 11.37l-4.78-6a1 1 0 0 0-1.41-.15 1 1 0 0 0-.15 1.41L16.71 12l-4.48 5.37a1 1 0 0 0 .13 1.41A1 1 0 0 0 13 19a1 1 0 0 0 .77-.36l5-6a1 1 0 0 0 .01-1.27z" />
            <path
                d="M7 5.37a1 1 0 0 0-1.61 1.26L9.71 12l-4.48 5.36a1 1 0 0 0 .13 1.41A1 1 0 0 0 6 19a1 1 0 0 0 .77-.36l5-6a1 1 0 0 0 0-1.27z" />
        </g>
    </g>
</svg>
