<!--
 * Copyright (c) 2025, WSO2 LLC. (https://www.wso2.com).
 *
 * WSO2 LLC. licenses this file to you under the Apache License,
 * Version 2.0 (the "License"); you may not use this file except
 * in compliance with the License.
 * You may obtain a copy of the License at
 *
 *     http://www.apache.org/licenses/LICENSE-2.0
 *
 * Unless required by applicable law or agreed to in writing,
 * software distributed under the License is distributed on an
 * "AS IS" BASIS, WITHOUT WARRANTIES OR CONDITIONS OF ANY
 * KIND, either express or implied. See the License for the
 * specific language governing permissions and limitations
 * under the License.
-->

<svg xmlns="http://www.w3.org/2000/svg" width="800px" height="800px" viewBox="0 0 24 24">
    <path
        d="M20.5 17h-17A2.502 2.502 0 0 1 1 14.5v-4A2.502 2.502 0 0 1 3.5 8h17a2.502 2.502 0 0 1 2.5 2.5v4a2.502 2.502 0 0 1-2.5 2.5zm-17-8A1.502 1.502 0 0 0 2 10.5v4A1.502 1.502 0 0 0 3.5 16h17a1.502 1.502 0 0 0 1.5-1.5v-4A1.502 1.502 0 0 0 20.5 9zM17 12H7v1h10z" />
    <path fill="none" d="M0 0h24v24H0z" />
</svg>
