<!--
 * Copyright (c) 2025, WSO2 LLC. (https://www.wso2.com).
 *
 * WSO2 LLC. licenses this file to you under the Apache License,
 * Version 2.0 (the "License"); you may not use this file except
 * in compliance with the License.
 * You may obtain a copy of the License at
 *
 *     http://www.apache.org/licenses/LICENSE-2.0
 *
 * Unless required by applicable law or agreed to in writing,
 * software distributed under the License is distributed on an
 * "AS IS" BASIS, WITHOUT WARRANTIES OR CONDITIONS OF ANY
 * KIND, either express or implied. See the License for the
 * specific language governing permissions and limitations
 * under the License.
-->

<svg xmlns="http://www.w3.org/2000/svg" fill="#000000" width="800px" height="800px"
    viewBox="0 0 24 24">
    <path
        d="M6,22H18a3,3,0,0,0,3-3V7a2,2,0,0,0-2-2H17V3a1,1,0,0,0-2,0V5H9V3A1,1,0,0,0,7,3V5H5A2,2,0,0,0,3,7V19A3,3,0,0,0,6,22ZM5,12.5a.5.5,0,0,1,.5-.5h13a.5.5,0,0,1,.5.5V19a1,1,0,0,1-1,1H6a1,1,0,0,1-1-1Z" />
</svg>
