<!--
 * Copyright (c) 2025, WSO2 LLC. (https://www.wso2.com).
 *
 * WSO2 LLC. licenses this file to you under the Apache License,
 * Version 2.0 (the "License"); you may not use this file except
 * in compliance with the License.
 * You may obtain a copy of the License at
 *
 *     http://www.apache.org/licenses/LICENSE-2.0
 *
 * Unless required by applicable law or agreed to in writing,
 * software distributed under the License is distributed on an
 * "AS IS" BASIS, WITHOUT WARRANTIES OR CONDITIONS OF ANY
 * KIND, either express or implied. See the License for the
 * specific language governing permissions and limitations
 * under the License.
-->

<svg xmlns="http://www.w3.org/2000/svg" width="800px" height="800px" viewBox="0 0 24 24" fill="none">
    <path
        d="M3 12H3.01M7.5 12H7.51M16.5 12H16.51M12 12H12.01M21 12H21.01M21 21V20.2C21 19.0799 21 18.5198 20.782 18.092C20.5903 17.7157 20.2843 17.4097 19.908 17.218C19.4802 17 18.9201 17 17.8 17H6.2C5.0799 17 4.51984 17 4.09202 17.218C3.7157 17.4097 3.40973 17.7157 3.21799 18.092C3 18.5198 3 19.0799 3 20.2V21M21 3V3.8C21 4.9201 21 5.48016 20.782 5.90798C20.5903 6.28431 20.2843 6.59027 19.908 6.78201C19.4802 7 18.9201 7 17.8 7H6.2C5.0799 7 4.51984 7 4.09202 6.78201C3.71569 6.59027 3.40973 6.28431 3.21799 5.90798C3 5.48016 3 4.92011 3 3.8V3"
        stroke="#000000" stroke-width="2" stroke-linecap="round" stroke-linejoin="round" />
</svg>
