<!--
 * Copyright (c) 2026, WSO2 LLC. (https://www.wso2.com).
 *
 * WSO2 LLC. licenses this file to you under the Apache License,
 * Version 2.0 (the "License"); you may not use this file except
 * in compliance with the License.
 * You may obtain a copy of the License at
 *
 *     http://www.apache.org/licenses/LICENSE-2.0
 *
 * Unless required by applicable law or agreed to in writing,
 * software distributed under the License is distributed on an
 * "AS IS" BASIS, WITHOUT WARRANTIES OR CONDITIONS OF ANY
 * KIND, either express or implied. See the License for the
 * specific language governing permissions and limitations
 * under the License.
-->
<svg xmlns="http://www.w3.org/2000/svg" viewBox="15 5 180 190" width="100%" height="100%">
  <rect width="100%" height="100%" fill="transparent" />

  <g stroke="#000" stroke-linecap="round" stroke-linejoin="round">

    <polyline points="45,145 75,90 115,90 145,35" fill="none" stroke-width="8" />

    <circle cx="45" cy="145" r="14" fill="#f0f0f0" stroke-width="8" />
    <circle cx="75" cy="90" r="14" fill="#f0f0f0" stroke-width="8" />
    <circle cx="115" cy="90" r="14" fill="#f0f0f0" stroke-width="8" />
    <circle cx="145" cy="35" r="14" fill="#f0f0f0" stroke-width="8" />


    <g transform="translate(125, 125) rotate(-45)">

      <rect x="-60" y="-26" width="120" height="52" rx="26" fill="transparent" stroke="none" />

      <rect x="-50" y="-16" width="64" height="32" rx="16" fill="none" stroke-width="8" />

      <rect x="-14" y="-16" width="64" height="32" rx="16" fill="none" stroke="#f0f0f0" stroke-width="20" />
      <rect x="-14" y="-16" width="64" height="32" rx="16" fill="none" stroke-width="8" />

      <path d="M -18 16 H -2 A 16 16 0 0 0 14 0" fill="none" stroke="#f0f0f0" stroke-width="20" />
      <path d="M -18 16 H -2 A 16 16 0 0 0 14 0" fill="none" stroke-width="8" />

    </g>
  </g>
</svg>
