<!--
 * Copyright (c) 2025, WSO2 LLC. (https://www.wso2.com).
 *
 * WSO2 LLC. licenses this file to you under the Apache License,
 * Version 2.0 (the "License"); you may not use this file except
 * in compliance with the License.
 * You may obtain a copy of the License at
 *
 *     http://www.apache.org/licenses/LICENSE-2.0
 *
 * Unless required by applicable law or agreed to in writing,
 * software distributed under the License is distributed on an
 * "AS IS" BASIS, WITHOUT WARRANTIES OR CONDITIONS OF ANY
 * KIND, either express or implied. See the License for the
 * specific language governing permissions and limitations
 * under the License.
-->

<svg xmlns="http://www.w3.org/2000/svg" xmlns:xlink="http://www.w3.org/1999/xlink" height="800px"
    width="800px" version="1.1" id="_x32_" viewBox="0 0 512 512" xml:space="preserve">
<style type="text/css">
	.st0{fill:#000000;}
</style>
<g>
	<path class="st0" d="M498.211,423.825L382.399,308.004l-11.347,11.367l-19.634-19.674c21.876-32.374,32.881-69.984,32.852-107.535   c0.029-49.182-18.727-98.489-56.239-135.972C290.617,18.717,241.309-0.029,192.109,0c-49.142-0.029-98.45,18.756-135.884,56.19   C18.761,93.673-0.025,142.932,0.005,192.133c-0.029,49.181,18.756,98.469,56.19,135.913   c37.493,37.483,86.772,56.239,135.933,56.239c37.561,0,75.2-11.026,107.585-32.852l19.642,19.642l-11.327,11.299l115.811,115.822   C432.954,507.36,445.101,512,457.112,512c11.961,0,24.108-4.64,33.252-13.804l7.847-7.837c9.135-9.135,13.765-21.282,13.785-33.292   C511.995,445.097,507.346,432.969,498.211,423.825z M192.128,358.452c-42.669,0-85.231-16.183-117.683-48.674   c-32.443-32.433-48.646-74.975-48.646-117.644c0-42.679,16.222-85.231,48.664-117.674c32.453-32.443,74.995-48.664,117.645-48.664   c42.679,0,85.24,16.202,117.683,48.664c32.463,32.443,48.656,74.995,48.674,117.674c-0.019,42.669-16.211,85.211-48.654,117.644   C277.349,342.269,234.788,358.452,192.128,358.452z M316.957,338.234c3.772-3.226,7.516-6.58,11.123-10.158   c3.587-3.588,6.912-7.331,10.167-11.132l17.606,17.625l-21.28,21.29L316.957,338.234z M479.943,472.109l-7.818,7.818   c-4.193,4.183-9.544,6.191-15.033,6.23c-5.478,0-10.821-2.048-15.012-6.2l-97.554-97.563l37.874-37.854l97.543,97.544   c4.182,4.202,6.2,9.534,6.2,14.984C486.143,462.566,484.105,467.928,479.943,472.109z"/>
	<path class="st0" d="M277.467,106.765c-23.504-23.494-54.475-35.29-85.339-35.27c-30.844,0-61.815,11.776-85.348,35.27   c-23.504,23.523-35.299,54.504-35.27,85.368c-0.029,30.854,11.766,61.844,35.27,85.299c23.533,23.542,54.504,35.328,85.329,35.328   c30.864,0,61.834-11.786,85.358-35.309c23.533-23.522,35.299-54.464,35.299-85.318C312.795,161.27,300.999,130.318,277.467,106.765   z M262.249,262.234c-19.341,19.341-44.676,29.021-70.14,28.992c-25.434,0-50.77-9.651-70.112-28.992   c-19.331-19.331-28.962-44.648-28.962-70.101c0-25.444,9.631-50.781,28.962-70.141c19.371-19.331,44.678-28.973,70.131-29.002   c25.444,0.029,50.78,9.7,70.121,29.002c19.332,19.36,28.973,44.697,28.992,70.141C291.241,217.586,281.599,242.903,262.249,262.234   z"/>
</g>
</svg>
