<!--
 * Copyright (c) 2025, WSO2 LLC. (https://www.wso2.com).
 *
 * WSO2 LLC. licenses this file to you under the Apache License,
 * Version 2.0 (the "License"); you may not use this file except
 * in compliance with the License.
 * You may obtain a copy of the License at
 *
 *     http://www.apache.org/licenses/LICENSE-2.0
 *
 * Unless required by applicable law or agreed to in writing,
 * software distributed under the License is distributed on an
 * "AS IS" BASIS, WITHOUT WARRANTIES OR CONDITIONS OF ANY
 * KIND, either express or implied. See the License for the
 * specific language governing permissions and limitations
 * under the License.
-->

<svg xmlns="http://www.w3.org/2000/svg" width="800px" height="800px" viewBox="0 0 24 24"
    id="Layer_1" data-name="Layer 1">
    <defs>
        <style>.cls-1{fill:none;stroke:#020202;stroke-miterlimit:10;stroke-width:1.91px;}</style>
    </defs>
    <path class="cls-1"
        d="M14.86,15.82v4.77A1.92,1.92,0,0,1,13,22.5H3.41A1.92,1.92,0,0,1,1.5,20.59V3.41A1.92,1.92,0,0,1,3.41,1.5H13a1.92,1.92,0,0,1,1.91,1.91V6.27" />
    <path class="cls-1" d="M10.09,2.45H6.27a1,1,0,0,1-.95-1h5.73A1,1,0,0,1,10.09,2.45Z" />
    <line class="cls-1" x1="7.23" y1="19.64" x2="9.14" y2="19.64" />
    <path class="cls-1"
        d="M9.14,11.05V13L7.23,15.82h10.5a4.78,4.78,0,0,0,4.77-4.77h0a4.78,4.78,0,0,0-4.77-4.78H13.91A4.77,4.77,0,0,0,9.14,11.05Z" />
    <line class="cls-1" x1="12" y1="11.05" x2="13.91" y2="11.05" />
    <line class="cls-1" x1="14.86" y1="11.05" x2="16.77" y2="11.05" />
    <line class="cls-1" x1="17.73" y1="11.05" x2="19.64" y2="11.05" />
</svg>
