<!--
 * Copyright (c) 2025, WSO2 LLC. (https://www.wso2.com).
 *
 * WSO2 LLC. licenses this file to you under the Apache License,
 * Version 2.0 (the "License"); you may not use this file except
 * in compliance with the License.
 * You may obtain a copy of the License at
 *
 *     http://www.apache.org/licenses/LICENSE-2.0
 *
 * Unless required by applicable law or agreed to in writing,
 * software distributed under the License is distributed on an
 * "AS IS" BASIS, WITHOUT WARRANTIES OR CONDITIONS OF ANY
 * KIND, either express or implied. See the License for the
 * specific language governing permissions and limitations
 * under the License.
-->

<svg xmlns="http://www.w3.org/2000/svg" xmlns:xlink="http://www.w3.org/1999/xlink" fill="#000000"
    height="800px" width="800px" version="1.1" id="Icons" viewBox="0 0 32 32" xml:space="preserve">
    <g>
        <path d="M19.1,14L17,14.7v-2.3c0-0.6-0.4-1-1-1s-1,0.4-1,1v2.3L12.9,14c-0.5-0.2-1.1,0.1-1.3,0.6c-0.2,0.5,0.1,1.1,0.6,1.3l2.1,0.7   l-1.3,1.8c-0.3,0.4-0.2,1.1,0.2,1.4c0.2,0.1,0.4,0.2,0.6,0.2c0.3,0,0.6-0.1,0.8-0.4l1.3-1.8l1.3,1.8c0.2,0.3,0.5,0.4,0.8,0.4   c0.2,0,0.4-0.1,0.6-0.2c0.4-0.3,0.5-0.9,0.2-1.4l-1.3-1.8l2.1-0.7c0.5-0.2,0.8-0.7,0.6-1.3C20.2,14.1,19.7,13.8,19.1,14z"/>
        <path d="M8.1,14L6,14.7v-2.3c0-0.6-0.4-1-1-1s-1,0.4-1,1v2.3L1.9,14c-0.5-0.2-1.1,0.1-1.3,0.6c-0.2,0.5,0.1,1.1,0.6,1.3l2.1,0.7   l-1.3,1.8c-0.3,0.4-0.2,1.1,0.2,1.4C2.5,19.9,2.7,20,2.9,20c0.3,0,0.6-0.1,0.8-0.4L5,17.8l1.3,1.8C6.5,19.9,6.8,20,7.1,20   c0.2,0,0.4-0.1,0.6-0.2c0.4-0.3,0.5-0.9,0.2-1.4l-1.3-1.8l2.1-0.7c0.5-0.2,0.8-0.7,0.6-1.3C9.2,14.1,8.7,13.8,8.1,14z"/>
        <path d="M31.4,14.6c-0.2-0.5-0.7-0.8-1.3-0.6L28,14.7v-2.3c0-0.6-0.4-1-1-1s-1,0.4-1,1v2.3L23.9,14c-0.5-0.2-1.1,0.1-1.3,0.6   c-0.2,0.5,0.1,1.1,0.6,1.3l2.1,0.7l-1.3,1.8c-0.3,0.4-0.2,1.1,0.2,1.4c0.2,0.1,0.4,0.2,0.6,0.2c0.3,0,0.6-0.1,0.8-0.4l1.3-1.8   l1.3,1.8c0.2,0.3,0.5,0.4,0.8,0.4c0.2,0,0.4-0.1,0.6-0.2c0.4-0.3,0.5-0.9,0.2-1.4l-1.3-1.8l2.1-0.7C31.3,15.7,31.6,15.2,31.4,14.6z   "/>
    </g>
</svg>
