<!--
 * Copyright (c) 2025, WSO2 LLC. (https://www.wso2.com).
 *
 * WSO2 LLC. licenses this file to you under the Apache License,
 * Version 2.0 (the "License"); you may not use this file except
 * in compliance with the License.
 * You may obtain a copy of the License at
 *
 *     http://www.apache.org/licenses/LICENSE-2.0
 *
 * Unless required by applicable law or agreed to in writing,
 * software distributed under the License is distributed on an
 * "AS IS" BASIS, WITHOUT WARRANTIES OR CONDITIONS OF ANY
 * KIND, either express or implied. See the License for the
 * specific language governing permissions and limitations
 * under the License.
-->

<svg xmlns="http://www.w3.org/2000/svg" xmlns:xlink="http://www.w3.org/1999/xlink" version="1.1" id="_x32_" viewBox="0 0 512 512" xml:space="preserve">
<style type="text/css">
	.st0{fill:#000000;}
</style>
<g>
	<path class="st0" d="M479.476,316.977c-3.996-9.439-10.627-17.413-18.989-23.074c-8.362-5.652-18.526-8.971-29.347-8.971   c0,0-17.346,0-31.956,0c-14.009,0-31.135,0-44.755,0c-6.808,0-12.751,0-16.98,0c-2.618,0-4.574,0-5.691,0   c-0.773-0.115-1.448-0.3-2.066-0.557c-1.285-0.565-2.552-1.448-4.031-3.223c-1.095-1.325-2.247-3.144-3.325-5.527   c-1.629-3.55-3.064-8.327-4.035-14.12c-0.976-5.801-1.514-12.6-1.514-20.212c-0.004-14.243,1.872-31.268,5.77-50.058   c3.643-17.617,9.258-33.996,14.217-50.412c2.468-8.212,4.773-16.433,6.472-24.848c1.704-8.406,2.817-17.024,2.817-25.916   c0-12.398-2.521-24.274-7.086-35.064c-6.848-16.177-18.243-29.899-32.61-39.603C292.007,5.678,274.607-0.008,256.002,0   c-12.398,0-24.274,2.517-35.056,7.082c-16.181,6.853-29.904,18.244-39.608,32.61c-9.714,14.358-15.396,31.762-15.391,50.367   c0,8.892,1.108,17.51,2.808,25.916c2.569,12.618,6.442,24.813,10.278,37.175c3.846,12.353,7.678,24.866,10.419,38.085   c3.899,18.79,5.771,35.815,5.762,50.058c0.009,7.726-0.547,14.631-1.558,20.486c-0.75,4.389-1.762,8.186-2.932,11.303   c-0.874,2.34-1.828,4.282-2.79,5.836c-1.448,2.34-2.857,3.754-4.102,4.61c-1.126,0.768-2.158,1.183-3.549,1.404   c-6.504,0-42.094,0-67.458,0c-7.307,0-15.298,0-21.457,0c-6.164,0-10.491,0-10.504,0c-7.204,0-14.136,1.474-20.423,4.141   c-9.435,3.991-17.413,10.623-23.069,18.985c-5.656,8.353-8.972,18.526-8.972,29.342v105.626h13.81H483.6V337.401   C483.609,330.195,482.134,323.264,479.476,316.977z M193.569,90.059c0-8.662,1.74-16.839,4.896-24.301   c4.732-11.188,12.662-20.75,22.636-27.488c9.982-6.729,21.921-10.65,34.901-10.65c8.662,0,16.835,1.74,24.301,4.892   c11.188,4.733,20.751,12.672,27.484,22.64c6.733,9.987,10.649,21.926,10.654,34.906c0,6.587-0.826,13.342-2.265,20.433   c-2.141,10.64-5.7,22.031-9.572,34.446c-3.863,12.425-8.018,25.873-11.09,40.689c-4.208,20.31-6.34,39.056-6.345,55.666   c0.004,9.024,0.636,17.43,1.96,25.166c1.002,5.801,2.402,11.241,4.283,16.291c1.232,3.285,2.724,6.376,4.419,9.316h-87.657   c0.936-1.625,1.846-3.267,2.636-4.998c2.874-6.322,4.835-13.334,6.128-20.972c1.289-7.638,1.898-15.92,1.898-24.803   c-0.009-16.61-2.132-35.356-6.34-55.666c-4.106-19.752-10.102-37.086-14.812-52.769c-2.367-7.841-4.424-15.267-5.859-22.366   C194.394,103.402,193.569,96.646,193.569,90.059z M455.983,415.406H56.017v-78.005c0-3.47,0.697-6.702,1.952-9.66   c1.868-4.45,5.046-8.264,9.011-10.949c3.987-2.684,8.693-4.23,13.885-4.239c0.014,0,4.34,0,10.504,0c6.158,0,14.15,0,21.457,0   c21.559,0,50.43,0,62.624,0c3.651,0,5.872,0,5.872,0h0.769h147.821h0.777c0,0,2.525,0,6.76,0c1.885,0,4.19,0,6.68,0   c14.27,0,37.166,0,55.056,0c14.61,0,31.956,0,31.956,0c3.47,0.009,6.706,0.698,9.67,1.952c4.442,1.872,8.26,5.042,10.94,9.015   c2.685,3.983,4.234,8.689,4.234,13.881V415.406z"/>
	<rect x="64.229" y="474.048" class="st0" width="383.552" height="37.952"/>
</g>
</svg>
