<!--
 * Copyright (c) 2025, WSO2 LLC. (https://www.wso2.com).
 *
 * WSO2 LLC. licenses this file to you under the Apache License,
 * Version 2.0 (the "License"); you may not use this file except
 * in compliance with the License.
 * You may obtain a copy of the License at
 *
 *     http://www.apache.org/licenses/LICENSE-2.0
 *
 * Unless required by applicable law or agreed to in writing,
 * software distributed under the License is distributed on an
 * "AS IS" BASIS, WITHOUT WARRANTIES OR CONDITIONS OF ANY
 * KIND, either express or implied. See the License for the
 * specific language governing permissions and limitations
 * under the License.
-->

<svg xmlns="http://www.w3.org/2000/svg" width="800px" height="800px" viewBox="0 0 16 16" fill="none">
    <path fill="#000000" fill-rule="evenodd"
        d="M12.25 14a.75.75 0 000-1.5h-3a1.75 1.75 0 01-1.75-1.75v-.25a1.75 1.75 0 001.75-1.75v-1.5A1.75 1.75 0 007.5 5.5V2.75a.75.75 0 00-1.5 0V5.5a1.75 1.75 0 00-1.75 1.75v1.5c0 .966.784 1.75 1.75 1.75v.25A3.25 3.25 0 009.25 14h3zm-6.5-6.75A.25.25 0 016 7h1.5a.25.25 0 01.25.25v1.5A.25.25 0 017.5 9H6a.25.25 0 01-.25-.25v-1.5z"
        clip-rule="evenodd" />
</svg>
