<!--
 * Copyright (c) 2025, WSO2 LLC. (https://www.wso2.com).
 *
 * WSO2 LLC. licenses this file to you under the Apache License,
 * Version 2.0 (the "License"); you may not use this file except
 * in compliance with the License.
 * You may obtain a copy of the License at
 *
 *     http://www.apache.org/licenses/LICENSE-2.0
 *
 * Unless required by applicable law or agreed to in writing,
 * software distributed under the License is distributed on an
 * "AS IS" BASIS, WITHOUT WARRANTIES OR CONDITIONS OF ANY
 * KIND, either express or implied. See the License for the
 * specific language governing permissions and limitations
 * under the License.
-->

<svg width="16" height="16" viewBox="0 0 16 16" fill="none" xmlns="http://www.w3.org/2000/svg">
<path d="M8.00567 14.0667C7.17111 14.0667 6.38511 13.9088 5.64767 13.593C4.91022 13.2772 4.26478 12.8427 3.71133 12.2895C3.15789 11.7363 2.72317 11.0913 2.40717 10.3547C2.09128 9.61811 1.93333 8.83106 1.93333 7.9935C1.93333 7.15594 2.09128 6.37122 2.40717 5.63933C2.72295 4.90745 3.1575 4.26478 3.71083 3.71133C4.26417 3.15789 4.90839 2.72317 5.6435 2.40717C6.37861 2.09128 7.16411 1.93333 8 1.93333C8.18233 1.93333 8.36467 1.93678 8.547 1.94367C8.72933 1.95045 8.90428 1.98161 9.07183 2.03717V2.918C8.90428 2.86245 8.72933 2.82567 8.547 2.80767C8.36467 2.78978 8.18233 2.78083 8 2.78083C7.68633 3.22861 7.44033 3.71006 7.262 4.22517C7.08378 4.74039 6.943 5.27133 6.83967 5.818H8.52817V6.68467H6.76167C6.73 6.90167 6.71028 7.12033 6.7025 7.34067C6.69483 7.561 6.691 7.78133 6.691 8.00167C6.691 8.22189 6.69622 8.44161 6.70667 8.66083C6.71722 8.88017 6.73506 9.09833 6.76017 9.31533H9.2365C9.26939 9.10945 9.28972 8.90022 9.2975 8.68767C9.30517 8.47511 9.309 8.26256 9.309 8.05C9.309 7.864 9.30506 7.67795 9.29717 7.49183C9.28928 7.30583 9.28295 7.11795 9.27817 6.92817H10.1615C10.1662 7.11795 10.1725 7.30217 10.1805 7.48083C10.1884 7.65939 10.1923 7.84356 10.1923 8.03333C10.1923 8.24222 10.1885 8.45661 10.1808 8.6765C10.1731 8.8965 10.1538 9.10945 10.123 9.31533H13.018C13.0752 9.09833 13.1199 8.87983 13.152 8.65983C13.184 8.43995 13.2 8.22 13.2 8C13.2 7.82133 13.1882 7.64272 13.1647 7.46417C13.1412 7.2855 13.1116 7.10683 13.0757 6.92817H13.9658C13.9995 7.10683 14.0247 7.2855 14.0415 7.46417C14.0583 7.64272 14.0667 7.82133 14.0667 8C14.0667 8.83589 13.9088 9.62139 13.593 10.3565C13.2772 11.0916 12.8427 11.7358 12.2895 12.2892C11.7363 12.8425 11.0927 13.2771 10.3587 13.5928C9.62456 13.9087 8.84022 14.0667 8.00567 14.0667ZM2.982 9.31533H5.877C5.84622 9.08722 5.82695 8.863 5.81917 8.64267C5.8115 8.42233 5.80767 8.19644 5.80767 7.965C5.80767 7.75589 5.8115 7.54172 5.81917 7.3225C5.82695 7.10317 5.84622 6.89056 5.877 6.68467H2.982C2.92478 6.90167 2.88011 7.12033 2.848 7.34067C2.816 7.561 2.8 7.78133 2.8 8.00167C2.8 8.22189 2.816 8.44161 2.848 8.66083C2.88011 8.88017 2.92478 9.09833 2.982 9.31533ZM6.92567 13.0987C6.66667 12.6534 6.46133 12.1853 6.30967 11.6942C6.15789 11.2032 6.04128 10.6991 5.95983 10.182H3.28467C3.63245 10.9393 4.12539 11.5733 4.7635 12.084C5.4015 12.5947 6.12222 12.9329 6.92567 13.0987ZM3.28467 5.818H5.96283C6.05361 5.30045 6.17245 4.79733 6.31933 4.30867C6.46633 3.82 6.674 3.35089 6.94233 2.90133C6.13211 3.07133 5.40689 3.41172 4.76667 3.9225C4.12645 4.43317 3.63245 5.065 3.28467 5.818ZM8 13.1692C8.31767 12.7233 8.56611 12.2479 8.74533 11.7432C8.92456 11.2383 9.06289 10.7179 9.16033 10.182H6.83967C6.94822 10.7179 7.08861 11.2406 7.26083 11.75C7.43306 12.2594 7.67945 12.7325 8 13.1692ZM9.07433 13.0987C9.87778 12.9372 10.5985 12.6001 11.2365 12.0872C11.8746 11.5744 12.3676 10.9393 12.7153 10.182H10.0372C9.93628 10.6906 9.81211 11.1914 9.66467 11.6847C9.51722 12.1778 9.32045 12.6491 9.07433 13.0987ZM10.4 5.6V1.93333H14.0667V5.6H10.4ZM12.2975 3.7025H13.3435V2.6565H12.2975V3.7025Z" fill="black"/>
</svg>
