<!--
 * Copyright (c) 2025, WSO2 LLC. (https://www.wso2.com).
 *
 * WSO2 LLC. licenses this file to you under the Apache License,
 * Version 2.0 (the "License"); you may not use this file except
 * in compliance with the License.
 * You may obtain a copy of the License at
 *
 *     http://www.apache.org/licenses/LICENSE-2.0
 *
 * Unless required by applicable law or agreed to in writing,
 * software distributed under the License is distributed on an
 * "AS IS" BASIS, WITHOUT WARRANTIES OR CONDITIONS OF ANY
 * KIND, either express or implied. See the License for the
 * specific language governing permissions and limitations
 * under the License.
-->

<svg width="16" height="16" viewBox="0 0 16 16" fill="none" xmlns="http://www.w3.org/2000/svg">
<path d="M8 9.03333C7.38033 9.03333 6.85322 8.816 6.41866 8.38133C5.984 7.94678 5.76666 7.41967 5.76666 6.8C5.76666 6.18033 5.984 5.65322 6.41866 5.21867C6.85322 4.784 7.38033 4.56667 8 4.56667C8.61966 4.56667 9.14678 4.784 9.58133 5.21867C10.016 5.65322 10.2333 6.18033 10.2333 6.8C10.2333 7.41967 10.016 7.94678 9.58133 8.38133C9.14678 8.816 8.61966 9.03333 8 9.03333ZM8 8.16667C8.37611 8.16667 8.69789 8.03289 8.96533 7.76533C9.23289 7.49789 9.36666 7.17611 9.36666 6.8C9.36666 6.42389 9.23289 6.10211 8.96533 5.83467C8.69789 5.56711 8.37611 5.43333 8 5.43333C7.62389 5.43333 7.30211 5.56711 7.03466 5.83467C6.76711 6.10211 6.63333 6.42389 6.63333 6.8C6.63333 7.17611 6.76711 7.49789 7.03466 7.76533C7.30211 8.03289 7.62389 8.16667 8 8.16667ZM8 14.0538C6.60255 13.6828 5.44211 12.8702 4.51866 11.616C3.59511 10.3618 3.13333 8.962 3.13333 7.41667V3.83083L8 1.959L12.8667 3.83083V7.41667C12.8667 8.962 12.4049 10.3618 11.4813 11.616C10.5579 12.8702 9.39744 13.6828 8 14.0538ZM8 2.88967L4 4.41667V7.41667C4 8.03978 4.09083 8.64195 4.2725 9.22317C4.45405 9.80428 4.70639 10.3402 5.0295 10.8308C5.49016 10.6128 5.96922 10.4477 6.46666 10.3353C6.96411 10.2229 7.47522 10.1667 8 10.1667C8.52478 10.1667 9.03589 10.2229 9.53333 10.3353C10.0308 10.4477 10.5098 10.6128 10.9705 10.8308C11.2936 10.3402 11.5459 9.80428 11.7275 9.22317C11.9092 8.64195 12 8.03978 12 7.41667V4.41667L8 2.88967ZM8 11.0333C7.57011 11.0333 7.15111 11.0743 6.743 11.1563C6.33489 11.2384 5.94322 11.3637 5.568 11.532C5.89878 11.9107 6.26822 12.2396 6.67633 12.5187C7.08444 12.7977 7.52566 13.0081 8 13.15C8.47433 13.0081 8.9145 12.7977 9.3205 12.5187C9.7265 12.2396 10.0949 11.9107 10.4257 11.532C10.0504 11.3637 9.65983 11.2384 9.25383 11.1563C8.84783 11.0743 8.42989 11.0333 8 11.0333Z" fill="black"/>
</svg>
