<?xml version="1.0" encoding="iso-8859-1"?>

<!--
 * Copyright (c) 2022-2024, WSO2 LLC. (https://www.wso2.com).
 *
 * WSO2 LLC. licenses this file to you under the Apache License,
 * Version 2.0 (the "License"); you may not use this file except
 * in compliance with the License.
 * You may obtain a copy of the License at
 *
 *     http://www.apache.org/licenses/LICENSE-2.0
 *
 * Unless required by applicable law or agreed to in writing,
 * software distributed under the License is distributed on an
 * "AS IS" BASIS, WITHOUT WARRANTIES OR CONDITIONS OF ANY
 * KIND, either express or implied. See the License for the
 * specific language governing permissions and limitations
 * under the License.
-->

<svg class="icon" width="16" height="16" viewBox="0 0 16 16" fill="none" xmlns="http://www.w3.org/2000/svg">
  <path id="magic-link-icon" opacity="0.9" fill-rule="evenodd" clip-rule="evenodd" d="M0 3C0 1.89543 0.895431 1 2 1H14C15.1046 1 16 1.89561 16 3.00013V3.00476V3.00939V3.01402V3.01865V3.02328V3.02791V3.03253V3.03715V3.04177V3.04639V3.05101V3.05563V3.06024V3.06485V3.06947V3.07408V3.07868V3.08329V3.0879V3.0925V3.09711V3.10171V3.10631V3.11091V3.1155V3.1201V3.12469V3.12929V3.13388V3.13847V3.14306V3.14765V3.15224V3.15682V3.16141V3.16599V3.17057V3.17516V3.17974V3.18431V3.18889V3.19347V3.19805V3.20262V3.20719V3.21177V3.21634V3.22091V3.22548V3.23005V3.23462V3.23918V3.24375V3.24832V3.25288V3.25744V3.26201V3.26657V3.27113V3.27569V3.28025V3.28481V3.28937V3.29392V3.29848V3.30304V3.30759V3.31215V3.3167V3.32125V3.32581V3.33036V3.33491V3.33946V3.34401V3.34856V3.35311V3.35766V3.36221V3.36675V3.3713V3.37585V3.38039V3.38494V3.38949V3.39403V3.39858V3.40312V3.40767V3.41221V3.41675V3.4213V3.42584V3.43038V3.43492V3.43947V3.44401V3.44855V3.45309V3.45763V3.46217V3.46672V3.47126V3.4758V3.48034V3.48488V3.48942V3.49396V3.4985V3.50304V3.50758V3.51212V3.51667V3.52121V3.52575V3.53029V3.53483V3.53937V3.54391V3.54845V3.553V3.55754V3.56208V3.56662V3.57116V3.57571V3.58025V3.58479V3.58934V3.59388V3.59843V3.60297V3.60752V3.61206V3.61661V3.62115V3.6257V3.63025V3.63479V3.63934V3.64389V3.64844V3.65299V3.65754V3.66209V3.66664V3.67119V3.67574V3.6803V3.68485V3.6894V3.69396V3.69851V3.70307V3.70763V3.71219V3.71674V3.7213V3.72586V3.73042V3.73498V3.73955V3.74411V3.74867V3.75324V3.7578V3.76237V3.76694V3.77151V3.77608V3.78065V3.78522V3.78979V3.79436V3.79894V3.80351V3.80809V3.81267V3.81724V3.82182V3.8264V3.83099V3.83557V3.84015V3.84474V3.84933V3.85391V3.8585V3.86309V3.86768V3.87228V3.87687V3.88147V3.88606V3.89066V3.89526V3.89986V3.90446V3.90907V3.91367V3.91828V3.92288V3.92749V3.9321V3.93672V3.94133V3.94595V3.95056V3.95518V3.9598V3.96442V3.96904V3.97367V3.9783V3.98292V3.98755V3.99218V3.99682V4.00145V4.00609V4.01073V4.01537V4.02001V4.02465V4.0293V4.03394V4.03859V4.04324V4.0479V4.05255V4.05721V4.06187V4.06653V4.07119V4.07585V4.08052V4.08519V4.08986V4.09453V4.0992V4.10388V4.10856V4.11324V4.11792V4.12261V4.12729V4.13198V4.13667V4.14137V4.14606V4.15076V4.15546V4.16016V4.16487V4.16958V4.17428V4.179V4.18371V4.18843V4.19315V4.19787V4.20259V4.20731V4.21204V4.21677V4.22151V4.22624V4.23098V4.23572V4.24046V4.24521V4.24996V4.25471V4.25946V4.26422V4.26898V4.27374V4.2785V4.28327V4.28804V4.29281V4.29758V4.30236V4.30714V4.31192V4.31671V4.3215V4.32629V4.33108V4.33588V4.34068V4.34548V4.35028V4.35509V4.3599V4.36472V4.36953V4.37435V4.37918V4.384V4.38883V4.39366V4.3985V4.40334V4.40818V4.41302V4.41787V4.42272V4.42757V4.43243V4.43729V4.44215V4.44702V4.45189V4.45676V4.46164V4.46652V4.4714V4.47628V4.48117V4.48606V4.49096V4.49586V4.50076V4.50567V4.51058V4.51549V4.52041V4.52532V4.53025V4.53517V4.5401V4.54504V4.54997V4.55491V4.55986V4.56481V4.56976V4.57471V4.57967V4.58463V4.5896V4.59457V4.59954V4.60452V4.6095V4.61448V4.61947V4.62446V4.62946V4.63446V4.63946V4.64447V4.64948V4.65449V4.65951V4.66453V4.66956V4.67459V4.67962V4.68466V4.6897V4.69475V4.6998V4.70485V4.70991V4.71497V4.72004V4.72511V4.73019V4.73526V4.74035V4.74543V4.75052V4.75562V4.76072V4.76582V4.77093V4.77604V4.78116V4.78628V4.7914V4.79653V4.80167V4.8068V4.81194V4.81709V4.82224V4.8274V4.83256V4.83772V4.84289V4.84806V4.85324V4.85842V4.86361V4.8688V4.87399V4.87919V4.8844V4.88961V4.89482V4.90004V4.90526V4.91049V4.91572V4.92096V4.9262V4.93145V4.9367V4.94195V4.94721V4.95248V4.95775V4.96303V4.96831V4.97359V4.97888V4.98417V4.98947V4.99478V5.00009V5.0054V5.01072V5.01604V5.02137V5.0267V5.03204V5.03739V5.04274V5.04809V5.05345V5.05881V5.06418V5.06956V5.07494V5.08032V5.08571V5.09111V5.09651V5.10191V5.10732V5.11274V5.11816V5.12359V5.12902V5.13445V5.1399V5.14534V5.1508V5.15626V5.16172V5.16719V5.17266V5.17814V5.18363V5.18912V5.19462V5.20012V5.20563V5.21114V5.21666V5.22218V5.22771V5.23325V5.23879V5.24433V5.24989V5.25544V5.26101V5.26658V5.27215V5.27773V5.28332V5.28891V5.29451V5.30011V5.30572V5.31133V5.31696V5.32258V5.32822V5.33385V5.3395V5.34515V5.35081V5.35647V5.36214V5.36781V5.37349V5.37918V5.38487V5.39057V5.39627V5.40198V5.4077V5.41342V5.41915V5.42488V5.43062V5.43637V5.44212V5.44788V5.45365V5.45942V5.4652V5.47098V5.47677V5.48257V5.48837V5.49418V5.5C16 5.77614 15.7761 6 15.5 6C15.2239 6 15 5.77614 15 5.5V5.49418V5.48837V5.48257V5.47677V5.47098V5.4652V5.45942V5.45365V5.44788V5.44212V5.43637V5.43062V5.42488V5.41915V5.41342V5.4077V5.40198V5.39627V5.39057V5.38487V5.37918V5.37349V5.36781V5.36214V5.35647V5.35081V5.34515V5.3395V5.33385V5.32822V5.32258V5.31696V5.31133V5.30572V5.30011V5.29451V5.28891V5.28332V5.27773V5.27215V5.26658V5.26101V5.25544V5.24989V5.24433V5.23879V5.23325V5.22771V5.22218V5.21666V5.21114V5.20563V5.20012V5.19462V5.18912V5.18363V5.17814V5.17266V5.16719V5.16172V5.15626V5.1508V5.14534V5.1399V5.13445V5.12902V5.12359V5.11816V5.11274V5.10732V5.10191V5.09651V5.09111V5.08571V5.08032V5.07494V5.06956V5.06418V5.05881V5.05345V5.04809V5.04274V5.03739V5.03204V5.0267V5.02137V5.01604V5.01072V5.0054V5.00009V4.99478V4.98947V4.98417V4.97888V4.97359V4.96831V4.96303V4.95775V4.95248V4.94721V4.94195V4.9367V4.93145V4.9262V4.92096V4.91572V4.91049V4.90526V4.90004V4.89482V4.88961V4.8844V4.87919V4.87399V4.8688V4.86361V4.85842V4.85324V4.84806V4.84289V4.83772V4.83256V4.8274V4.82224V4.81709V4.81194V4.8068V4.80167V4.79653V4.7914V4.78628V4.78116V4.77604V4.77093V4.76582V4.76072V4.75562V4.75052V4.74543V4.74035V4.73526V4.73019V4.72511V4.72004V4.71497V4.70991V4.70485V4.6998V4.69475V4.6897V4.68466V4.67962V4.67459V4.66956V4.66453V4.65951V4.65449V4.64948V4.64447V4.63946V4.63446V4.62946V4.62446V4.61947V4.61448V4.6095V4.60452V4.59954V4.59457V4.5896V4.58463V4.57967V4.57471V4.56976V4.56481V4.55986V4.55491V4.54997V4.54504V4.5401V4.53517V4.53025V4.52532V4.52041V4.51549V4.51058V4.50567V4.50076V4.49586V4.49096V4.48606V4.48117V4.47628V4.4714V4.46652V4.46164V4.45676V4.45189V4.44702V4.44215V4.43729V4.43243V4.42757V4.42272V4.41787V4.41302V4.40818V4.40334V4.3985V4.39366V4.38883V4.384V4.37918V4.37435V4.36953V4.36472V4.3599V4.35509V4.35028V4.34548V4.34068V4.33588V4.33108V4.32629V4.3215V4.31671V4.31192V4.30714V4.30236V4.29758V4.29281V4.28804V4.28327V4.2785V4.27374V4.26898V4.26422V4.25946V4.25471V4.24996V4.24521V4.24046V4.23572V4.23098V4.22624V4.22151V4.21677V4.21204V4.20731V4.20259V4.19787V4.19315V4.18843V4.18371V4.179V4.17428V4.16958V4.16487V4.16016V4.15546V4.15076V4.14606V4.14137V4.13667V4.13198V4.12729V4.12261V4.11792V4.11324V4.10856V4.10388V4.0992V4.09453V4.08986V4.08519V4.08052V4.07585V4.07119V4.06653V4.06187V4.05721V4.05255V4.0479V4.04324V4.03859V4.03394V4.0293V4.02465V4.02001V4.01537V4.01073V4.00609V4.00145V3.99682V3.99218V3.98755V3.98292V3.9783V3.97367V3.96904V3.96442V3.9598V3.95518V3.95056V3.94595V3.94133V3.93672V3.9321V3.92749V3.92288V3.91828V3.91367V3.90907V3.90446V3.89986V3.89526V3.89066V3.88606V3.88147V3.87687V3.87228V3.86768V3.86309V3.8585V3.85391V3.84933V3.84474V3.84015V3.83557V3.83099V3.8264V3.82182V3.81724V3.81267V3.80809V3.80351V3.79894V3.79436V3.78979V3.78522V3.78065V3.77608V3.77151V3.76694V3.76237V3.7578V3.75324V3.74867V3.74411V3.73955V3.73498V3.73042V3.72586V3.7213V3.71674V3.71219V3.70763V3.70307V3.69851V3.69396V3.6894V3.68485V3.6803V3.67574V3.67119V3.66664V3.66209V3.65754V3.65299V3.64844V3.64389V3.63934V3.63479V3.63025V3.6257V3.62115V3.61661V3.61206V3.60752V3.60297V3.59843V3.59388V3.58934V3.58479V3.58025V3.57571V3.57116V3.56662V3.56208V3.55754V3.553V3.54845V3.54391V3.53937V3.53483V3.53029V3.52575V3.52121V3.51667V3.51212V3.50758V3.50304V3.4985V3.49396V3.48942V3.48488V3.48034V3.4758V3.47126V3.46672V3.46217V3.45763V3.45309V3.44855V3.44401V3.43947V3.43492V3.43038V3.42584V3.4213V3.41675V3.41221V3.40767V3.40312V3.39858V3.39403V3.38949V3.38494V3.38039V3.37585V3.3713V3.36675V3.36221V3.35766V3.35311V3.34856V3.34401V3.33946V3.33491V3.33036V3.32581V3.32125V3.3167V3.31215V3.30759V3.30304V3.29848V3.29392V3.28937V3.28481V3.28025V3.27569V3.27113V3.26657V3.26201V3.25744V3.25288V3.24832V3.24375V3.23918V3.23462V3.23005V3.22548V3.22091V3.21634V3.21177V3.20719V3.20262V3.19805V3.19347V3.18889V3.18431V3.17974V3.17516V3.17057V3.16599V3.16141V3.15682V3.15224V3.14765V3.14306V3.13847V3.13388V3.12929V3.12469V3.1201V3.1155V3.11445L8.58124 7.69928C8.23354 7.94764 7.76646 7.94764 7.41876 7.69928L1 3.11445V11C1 11.5523 1.44772 12 2 12H5C5.27614 12 5.5 12.2239 5.5 12.5C5.5 12.7761 5.27614 13 5 13H2C0.89543 13 0 12.1046 0 11V3ZM14 2C14.2163 2 14.4165 2.06869 14.5802 2.18544L8 6.88555L1.41982 2.18542C1.58343 2.06868 1.78369 2 2 2H14ZM7.49738 14.7021C6.83421 14.0389 6.83421 12.9637 7.49738 12.3005L9.89895 9.89895C10.5621 9.23578 11.6373 9.23578 12.3005 9.89895L12.7008 10.2992C12.9218 10.5203 12.9218 10.8787 12.7008 11.0997C12.4797 11.3208 12.1213 11.3208 11.9003 11.0997L11.5 10.6995C11.2789 10.4784 10.9205 10.4784 10.6995 10.6995L8.2979 13.101C8.07685 13.3221 8.07685 13.6805 8.2979 13.9016L9.09843 14.7021C9.31949 14.9232 9.67789 14.9232 9.89895 14.7021L10.2992 14.3018C10.5203 14.0808 10.8787 14.0808 11.0997 14.3018C11.3208 14.5229 11.3208 14.8813 11.0997 15.1024L10.6995 15.5026C10.0363 16.1658 8.96108 16.1658 8.2979 15.5026L7.49738 14.7021ZM15.5026 8.2979C16.1658 8.96108 16.1658 10.0363 15.5026 10.6995L13.101 13.101C12.4379 13.7642 11.3627 13.7642 10.6995 13.101L10.2992 12.7008C10.0782 12.4797 10.0782 12.1213 10.2992 11.9003C10.5203 11.6792 10.8787 11.6792 11.0997 11.9003L11.5 12.3005C11.7211 12.5216 12.0795 12.5216 12.3005 12.3005L14.7021 9.89895C14.9232 9.67789 14.9232 9.31949 14.7021 9.09843L13.9016 8.2979C13.6805 8.07685 13.3221 8.07685 13.101 8.2979L12.7008 8.69817C12.4797 8.91923 12.1213 8.91923 11.9003 8.69817C11.6792 8.47711 11.6792 8.1187 11.9003 7.89764L12.3005 7.49738C12.9637 6.83421 14.0389 6.83421 14.7021 7.49738L15.5026 8.2979Z" fill="black"/>
</svg>
