<?xml version="1.0" encoding="utf-8"?>

<!--
 * Copyright (c) 2023-2024, WSO2 LLC. (https://www.wso2.com).
 *
 * WSO2 LLC. licenses this file to you under the Apache License,
 * Version 2.0 (the "License"); you may not use this file except
 * in compliance with the License.
 * You may obtain a copy of the License at
 *
 *     http://www.apache.org/licenses/LICENSE-2.0
 *
 * Unless required by applicable law or agreed to in writing,
 * software distributed under the License is distributed on an
 * "AS IS" BASIS, WITHOUT WARRANTIES OR CONDITIONS OF ANY
 * KIND, either express or implied. See the License for the
 * specific language governing permissions and limitations
 * under the License.
-->

<svg width="16" height="16" viewBox="0 0 16 16" fill="none" xmlns="http://www.w3.org/2000/svg">
    <path fill-rule="evenodd" clip-rule="evenodd" d="M13.6674 2.94382C10.3192 0.394379 5.68081 0.394379 2.33264 2.94382C2.12304 3.10342 2 3.35175 2 3.6152V9.3327C2 11.0999 3.03439 12.7036 4.64437 13.4323L4.95618 13.5734C5.20775 13.6873 5.31938 13.9835 5.20551 14.2351C5.09164 14.4867 4.79539 14.5983 4.54382 14.4844L4.23201 14.3433C2.26426 13.4526 1 11.4926 1 9.3327V3.6152C1 3.03956 1.26884 2.49694 1.72683 2.14821C5.4329 -0.673751 10.5671 -0.673751 14.2732 2.14821C14.7312 2.49694 15 3.03956 15 3.6152V5.3515C15 5.62764 14.7761 5.8515 14.5 5.8515C14.2239 5.8515 14 5.62764 14 5.3515V3.6152C14 3.35175 13.877 3.10342 13.6674 2.94382ZM15.8536 9.64645C16.0488 9.84171 16.0488 10.1583 15.8536 10.3536L10.8536 15.3536L10.5 15.7071L10.1464 15.3536L7.14645 12.3536C6.95118 12.1583 6.95118 11.8417 7.14645 11.6464C7.34171 11.4512 7.65829 11.4512 7.85355 11.6464L10.5 14.2929L15.1464 9.64645C15.3417 9.45119 15.6583 9.45119 15.8536 9.64645ZM7 4C6.17157 4 5.5 4.67158 5.5 5.5V7.5C5.5 8.32843 6.17157 9 7 9H9C9.82843 9 10.5 8.32843 10.5 7.5V5.5C10.5 4.67158 9.82843 4 9 4H7ZM6.5 5.5C6.5 5.22386 6.72386 5 7 5H9C9.27614 5 9.5 5.22386 9.5 5.5V7.5C9.5 7.77614 9.27614 8 9 8H7C6.72386 8 6.5 7.77614 6.5 7.5V5.5Z" fill="black"/>
</svg>