<!--
 * Copyright (c) 2025, WSO2 LLC. (https://www.wso2.com).
 *
 * WSO2 LLC. licenses this file to you under the Apache License,
 * Version 2.0 (the "License"); you may not use this file except
 * in compliance with the License.
 * You may obtain a copy of the License at
 *
 *     http://www.apache.org/licenses/LICENSE-2.0
 *
 * Unless required by applicable law or agreed to in writing,
 * software distributed under the License is distributed on an
 * "AS IS" BASIS, WITHOUT WARRANTIES OR CONDITIONS OF ANY
 * KIND, either express or implied. See the License for the
 * specific language governing permissions and limitations
 * under the License.
-->

<svg width="16" height="16" viewBox="0 0 16 16" fill="none" xmlns="http://www.w3.org/2000/svg">
<path d="M8 14.0538C6.60255 13.6828 5.44211 12.8711 4.51866 11.6187C3.59511 10.3661 3.13333 8.96544 3.13333 7.41667V3.83083L8 1.959L12.8667 3.83083V7.41667C12.8667 8.96544 12.4049 10.3661 11.4813 11.6187C10.5579 12.8711 9.39744 13.6828 8 14.0538ZM8 13.15C9.15555 12.7917 10.1111 12.075 10.8667 11C11.6222 9.925 12 8.73056 12 7.41667V4.41667L8 2.88967L4 4.41667V7.41667C4 8.73056 4.37778 9.925 5.13333 11C5.88889 12.075 6.84444 12.7917 8 13.15ZM6.41283 9.88467H9.58716C9.68239 9.88467 9.76217 9.85244 9.8265 9.788C9.89083 9.72367 9.923 9.64389 9.923 9.54867V7.17433C9.923 7.07922 9.89083 6.99944 9.8265 6.935C9.76217 6.87067 9.68239 6.8385 9.58716 6.8385H9.1295V6.4385C9.1295 6.12561 9.02022 5.86022 8.80166 5.64233C8.583 5.42433 8.31672 5.31533 8.00283 5.31533C7.68894 5.31533 7.42389 5.42433 7.20766 5.64233C6.99144 5.86022 6.88333 6.12561 6.88333 6.4385V6.8385H6.41283C6.31761 6.8385 6.23783 6.87067 6.1735 6.935C6.10916 6.99944 6.077 7.07922 6.077 7.17433V9.54867C6.077 9.64389 6.10916 9.72367 6.1735 9.788C6.23783 9.85244 6.31761 9.88467 6.41283 9.88467ZM7.40633 6.8385V6.4385C7.40633 6.2685 7.4635 6.126 7.57783 6.011C7.69217 5.896 7.83383 5.8385 8.00283 5.8385C8.17183 5.8385 8.31466 5.896 8.43133 6.011C8.548 6.126 8.60633 6.2685 8.60633 6.4385V6.8385H7.40633Z" fill="black"/>
</svg>
