<!--
 * Copyright (c) 2021, WSO2 Inc. (http://www.wso2.com). All Rights Reserved.
 *
 * This software is the property of WSO2 Inc. and its suppliers, if any.
 * Dissemination of any information or reproduction of any material contained
 * herein in any form is strictly forbidden, unless permitted by WSO2 expressly.
 * You may not alter or remove any copyright or other notice from copies of this content."
-->

<svg id="thank-you-illustration" width="492" height="460" viewBox="0 0 492 460" fill="none" xmlns="http://www.w3.org/2000/svg">
<g clip-path="url(#clip0_1536_20888)">
<path opacity="0.1" d="M31.3631 460H457.211C464.629 459.993 471.816 457.415 477.55 452.705C483.283 447.995 487.211 441.444 488.664 434.164C495.586 399.761 498.955 350.054 422.369 297.62C335.428 238.097 330.449 99.959 219.472 139.62C118.803 175.597 155.44 247.079 71.0313 311.902C29.3158 343.938 0.458499 371.603 0.00455919 421.177C-0.266544 450.896 10.9473 460 31.3631 460Z" fill="url(#paint0_linear_1536_20888)"/>
<path d="M347.378 209.437L209.038 291.114L70.6973 209.437L209.038 91.1858L347.378 209.437Z" fill="url(#paint1_linear_1536_20888)"/>
<path d="M316.941 65H97.0723V350.448H316.941V65Z" fill="url(#paint2_linear_1536_20888)"/>
<path d="M296.676 131.397H117.338V138.193H296.676V131.397Z" fill="white"/>
<path d="M296.676 232.193H117.338V238.989H296.676V232.193Z" fill="white"/>
<path d="M296.676 151.557H117.338V158.353H296.676V151.557Z" fill="white"/>
<path d="M296.676 171.716H117.338V178.512H296.676V171.716Z" fill="white"/>
<path d="M296.676 191.875H117.338V198.671H296.676V191.875Z" fill="white"/>
<path d="M296.676 212.034H117.338V218.83H296.676V212.034Z" fill="white"/>
<path d="M272.949 312.829H141.065V319.625H272.949V312.829Z" fill="white"/>
<path d="M296.676 252.352H117.338V259.148H296.676V252.352Z" fill="white"/>
<path d="M296.676 272.511H117.338V279.307H296.676V272.511Z" fill="white"/>
<path d="M296.676 292.67H117.338V299.466H296.676V292.67Z" fill="white"/>
<path d="M296.676 95.8228H117.338V114.355H296.676V95.8228Z" fill="white"/>
<path d="M347.378 209.437V383.191H70.6973V209.437L209.038 291.114L347.378 209.437Z" fill="url(#paint3_linear_1536_20888)"/>
<path d="M95.9208 454.56L83.8845 454.521C83.8845 454.521 83.9246 442.083 83.9246 440.981H95.9609C95.9609 442.089 95.9208 454.56 95.9208 454.56Z" fill="#FFBF9D"/>
<path d="M143.88 453.121L131.928 451.698C132.466 447.171 133.074 441.732 133.116 440.84C133.116 440.898 133.116 440.945 133.116 440.981H145.152C145.149 441.343 145.149 442.441 143.88 453.121Z" fill="#FFBF9D"/>
<path d="M148.32 448.955C147.324 423.711 147.264 397.198 146.952 371.888C142.813 344.587 140.637 314.645 135.527 287.539L135.374 287.584L134.926 284.527L91.3223 281.831L89.6257 310.342H89.7885C87.5927 348.533 83.3502 409.929 80.7825 448.632L101.914 450.418C105.688 412.354 111.842 351.715 115.253 314.199C118.995 333.315 122.524 354.842 125.847 374.186C126.575 398.896 127.183 424.646 127.117 449.316L148.32 448.955Z" fill="#262626"/>
<path d="M110.553 459.219C110.876 459.218 111.196 459.15 111.492 459.019C111.789 458.888 112.055 458.697 112.274 458.459C112.493 458.221 112.661 457.94 112.767 457.634C112.873 457.328 112.914 457.003 112.889 456.68C112.854 456.232 112.692 455.804 112.422 455.445C112.152 455.086 111.785 454.812 111.365 454.656L97.3558 449.959C97.0844 449.87 96.7968 449.839 96.5127 449.871C96.2286 449.903 95.9547 449.996 95.7097 450.143C93.7836 451.48 91.4798 452.164 89.1367 452.093C87.3116 451.963 85.5598 451.323 84.0809 450.245C83.9509 450.138 83.7934 450.071 83.6266 450.05C83.4598 450.03 83.2907 450.057 83.1389 450.13C82.9871 450.202 82.8589 450.316 82.7693 450.458C82.6797 450.6 82.6322 450.765 82.6326 450.933V457.789C82.6326 457.991 82.6725 458.191 82.75 458.378C82.8275 458.565 82.9412 458.734 83.0844 458.877C83.2276 459.02 83.3975 459.133 83.5845 459.21C83.7714 459.286 83.9717 459.326 84.1738 459.325L110.553 459.219Z" fill="url(#paint4_linear_1536_20888)"/>
<path d="M158.545 459.219C158.869 459.218 159.189 459.15 159.485 459.019C159.781 458.888 160.047 458.697 160.266 458.459C160.486 458.221 160.653 457.94 160.759 457.634C160.865 457.328 160.907 457.003 160.882 456.68C160.847 456.232 160.685 455.804 160.415 455.445C160.145 455.087 159.778 454.813 159.358 454.656L145.348 449.959C145.077 449.87 144.789 449.839 144.505 449.871C144.221 449.903 143.947 449.996 143.702 450.143C141.776 451.48 139.472 452.164 137.129 452.093C135.304 451.963 133.552 451.323 132.074 450.245C131.944 450.138 131.786 450.071 131.619 450.05C131.453 450.03 131.283 450.057 131.132 450.13C130.98 450.202 130.852 450.316 130.762 450.458C130.672 450.6 130.625 450.765 130.625 450.933V457.789C130.625 457.991 130.665 458.191 130.743 458.378C130.82 458.565 130.934 458.734 131.077 458.877C131.22 459.02 131.39 459.133 131.577 459.209C131.764 459.286 131.964 459.326 132.166 459.325L158.545 459.219Z" fill="url(#paint5_linear_1536_20888)"/>
<path d="M104.949 223.298C104.949 223.298 109.381 220.946 108.391 208.868L117.549 207.169C117.549 207.169 116.517 217.997 121.152 221.436L104.949 223.298Z" fill="#FFBF9D"/>
<path d="M103.196 204.184C103.83 207.849 105.828 211.319 109.058 212.502C112.892 213.907 115.732 214.002 120.153 214.002C126.186 214.002 125.986 207.705 126.155 201.361C126.327 194.99 125.819 188.157 123.435 185.937C118.678 181.506 104.708 184.312 103.009 191.723C102.131 195.557 102.595 200.696 103.196 204.184Z" fill="#FFBF9D"/>
<path d="M129.883 185.867C128.873 182.164 125.728 180.355 120.527 181.715C116.828 182.683 116.36 181.813 113.227 180.304C111.433 179.44 105.547 179.834 104.091 183.821C102.529 188.092 97.6987 184.633 97.2505 191.591C96.8745 197.415 98.8422 205.739 102.795 210.424C104.163 212.046 106.396 213.99 108.125 214.471C109.823 214.943 117.165 214.528 117.878 214.107C121.385 212.023 121.025 202.468 120.469 196.339C120.377 195.33 120.563 193.654 123.149 193.654C124.926 193.654 125.91 193.612 126.828 192.95C126.827 192.95 130.892 189.571 129.883 185.867Z" fill="#0F1011"/>
<path d="M123.941 202.564C123.986 203.029 123.938 203.498 123.8 203.944C123.661 204.39 123.436 204.804 123.137 205.162C122.837 205.521 122.47 205.815 122.055 206.03C121.641 206.245 121.188 206.375 120.723 206.413C120.258 206.451 119.79 206.396 119.347 206.252C118.903 206.107 118.492 205.876 118.139 205.571C117.785 205.266 117.496 204.894 117.287 204.477C117.079 204.059 116.955 203.604 116.924 203.138C116.878 202.675 116.926 202.208 117.064 201.764C117.202 201.321 117.428 200.909 117.729 200.555C118.03 200.2 118.398 199.91 118.813 199.701C119.228 199.492 119.681 199.369 120.145 199.339C122.656 199.259 123.783 200.625 123.941 202.564Z" fill="#FFBF9D"/>
<path d="M78.4894 302.502C78.4894 304.212 79.3909 309.927 77.9403 310.334C77.0708 310.579 76.0437 306.319 76.0437 306.319" fill="#FFBF9D"/>
<path d="M71.6413 301.605C71.6413 301.605 66.9048 313.142 72.3073 319.77C72.445 319.939 72.6304 320.063 72.8392 320.124C73.0481 320.186 73.2707 320.183 73.478 320.116C73.6852 320.049 73.8674 319.921 74.0007 319.749C74.134 319.576 74.2122 319.368 74.2251 319.15C74.4876 314.681 75.388 305.502 78.3323 306.574V299.368" fill="#FFBF9D"/>
<path d="M178.444 240.135C178.444 240.135 185.06 234.876 185.527 232.987C185.994 231.098 181.337 227.383 181.337 227.383C181.337 227.383 187.531 221.133 186.296 220.228C184.838 219.158 177.649 228.248 177.649 228.248C177.649 228.248 178.666 224.978 177.4 224.763C176.88 224.675 176.468 225.186 175.654 227.5C174.726 230.139 172.873 234.106 172.873 234.106L178.444 240.135Z" fill="#FFBF9D"/>
<path d="M171.48 233.143L151.914 255.174L136.61 227.759C135.161 223.427 131.862 220.526 125.134 220.237C122.833 220.139 111.604 220.123 103.383 220.123C97.8591 220.123 93.3249 221.819 90.7067 224.439C89.3878 225.74 88.4008 227.339 87.8289 229.102L87.7498 229.073L74.5941 264.874C74.4468 265.276 74.3408 265.691 74.2777 266.114L68.968 301.915L81.3299 303.751L86.5456 268.589L91.8587 254.13C92.4119 256.352 92.7142 258.63 92.7597 260.92C92.7597 272.966 87.3148 278.368 87.716 284.552C88.3464 294.272 135.534 291.975 137.938 286.454C140.413 280.761 135.389 277.253 135.609 258.629C135.633 256.602 135.789 254.482 136.005 252.324L145.29 268.958C145.776 269.829 146.464 270.572 147.295 271.123C148.126 271.674 149.077 272.018 150.068 272.126C151.059 272.234 152.062 272.103 152.992 271.744C153.922 271.385 154.753 270.808 155.416 270.062L181.141 239.948L171.48 233.143Z" fill="url(#paint6_linear_1536_20888)"/>
<path d="M156.178 298.057C160.037 350.645 164.99 403.244 172.045 455.505L183.33 454.462C180.652 401.798 175.847 349.182 169.968 296.781L156.178 298.057Z" fill="#FFBF9D"/>
<path d="M132.707 310.002C131.17 350.671 127.291 412.346 125.054 453.507L136.334 454.58C141.676 413.113 150.076 352.198 154.655 311.207L132.707 310.002Z" fill="#FFBF9D"/>
<path d="M150.948 459.446C151.261 459.444 151.57 459.379 151.856 459.252C152.142 459.126 152.399 458.943 152.611 458.713C152.823 458.483 152.985 458.212 153.087 457.917C153.19 457.621 153.23 457.308 153.206 456.997C153.172 456.565 153.016 456.152 152.755 455.806C152.494 455.46 152.139 455.196 151.733 455.045L138.194 450.516C137.932 450.429 137.654 450.4 137.379 450.43C137.104 450.461 136.84 450.55 136.603 450.693C134.742 451.982 132.515 452.642 130.251 452.574C128.487 452.448 126.794 451.831 125.365 450.791C125.239 450.688 125.087 450.623 124.926 450.603C124.765 450.584 124.601 450.61 124.455 450.68C124.308 450.749 124.184 450.859 124.097 450.996C124.011 451.133 123.965 451.292 123.965 451.454V458.066C123.965 458.261 124.004 458.454 124.079 458.635C124.154 458.815 124.264 458.978 124.402 459.116C124.54 459.254 124.705 459.363 124.885 459.437C125.066 459.511 125.259 459.549 125.455 459.548L150.948 459.446Z" fill="#C1D8ED"/>
<path d="M197.328 459.446C197.641 459.445 197.95 459.379 198.237 459.253C198.523 459.126 198.78 458.943 198.992 458.713C199.204 458.483 199.366 458.212 199.468 457.917C199.57 457.622 199.611 457.308 199.586 456.997C199.553 456.565 199.396 456.152 199.135 455.806C198.875 455.46 198.52 455.196 198.114 455.045L184.575 450.516C184.312 450.429 184.034 450.4 183.76 450.43C183.485 450.461 183.221 450.551 182.984 450.693C181.122 451.982 178.896 452.642 176.632 452.574C174.868 452.448 173.175 451.831 171.746 450.791C171.62 450.688 171.468 450.623 171.307 450.603C171.146 450.583 170.982 450.61 170.835 450.679C170.688 450.749 170.565 450.859 170.478 450.996C170.391 451.133 170.345 451.292 170.346 451.454V458.066C170.346 458.261 170.384 458.454 170.459 458.635C170.534 458.815 170.644 458.978 170.782 459.116C170.921 459.254 171.085 459.363 171.266 459.437C171.446 459.511 171.64 459.549 171.835 459.548L197.328 459.446Z" fill="#C1D8ED"/>
<path d="M132.36 288.373C132.36 288.373 126.069 316.515 126.069 340.181C126.069 363.848 118.845 400.504 118.845 400.504C118.845 400.504 139.606 396.174 153.212 400.504C166.819 404.833 192.191 397.04 192.191 397.04L174.503 290.969L132.36 288.373Z" fill="#262626"/>
<path d="M120.466 308.306C120.466 309.955 121.337 315.466 119.936 315.859C119.095 316.096 118.103 311.987 118.103 311.987" fill="#FFBF9D"/>
<path d="M113.848 307.44C113.848 307.44 109.271 318.567 114.492 324.96C114.625 325.123 114.804 325.241 115.006 325.301C115.208 325.36 115.423 325.357 115.623 325.293C115.823 325.228 115.999 325.104 116.128 324.938C116.257 324.772 116.332 324.571 116.345 324.362C116.599 320.052 117.469 311.199 120.314 312.233V305.283" fill="#FFBF9D"/>
<path d="M216.65 248.807C216.65 248.807 223.186 240.857 223.997 239.166C226.864 233.209 225.432 230.481 224.238 229.609C222.829 228.578 216.297 237.343 216.297 237.343C216.297 237.343 216.864 234.19 215.641 233.983C215.138 233.898 214.74 234.391 213.953 236.623C213.057 239.167 211.266 242.993 211.266 242.993L216.65 248.807Z" fill="#FFBF9D"/>
<path d="M145.943 231.261C145.943 231.261 150.397 229.35 150.397 217.663L159.351 216.751C159.351 216.751 157.506 227.078 161.696 230.747L145.943 231.261Z" fill="#FFBF9D"/>
<path d="M145.765 212.751C146.086 216.324 147.737 219.816 150.754 221.209C154.035 222.831 157.663 223.626 161.323 223.526C171.043 223.526 170.933 201.444 166.699 196.81C162.465 192.176 148.789 193.771 146.568 200.76C145.417 204.375 145.456 209.351 145.765 212.751Z" fill="#FFBF9D"/>
<path d="M166.184 205.777C168.071 205.762 169.954 205.604 171.816 205.303C171.816 205.303 171.245 190.964 155.997 191.781C154.017 191.691 152.033 191.807 150.077 192.129C145.494 192.831 138.996 197.511 137.946 209.223C137.466 214.596 135.611 219.661 134.196 222.868C134.029 223.245 133.958 223.657 133.991 224.067C134.023 224.478 134.158 224.874 134.383 225.219C134.607 225.564 134.915 225.848 135.277 226.045C135.639 226.242 136.045 226.345 136.458 226.345L169.127 226.087C169.513 226.087 169.894 225.997 170.239 225.824C170.585 225.651 170.885 225.399 171.115 225.09C171.346 224.78 171.5 224.421 171.567 224.041C171.633 223.661 171.61 223.27 171.498 222.901C169.723 217.024 166.473 213.422 166.184 205.777Z" fill="#0F1011"/>
<path d="M210.335 241.415L191.425 262.662L176.636 236.223C175.235 232.045 172.047 229.247 165.545 228.969C163.321 228.874 152.469 228.858 144.524 228.858C139.186 228.858 134.804 230.494 132.273 233.021C130.999 234.276 130.045 235.818 129.493 237.518L129.416 237.49L116.702 272.017C116.56 272.404 116.457 272.805 116.397 273.213L111.265 307.741L123.212 309.511L128.252 275.6L133.387 261.656C133.922 263.799 134.215 265.996 134.259 268.204C134.259 279.821 128.996 285.031 129.384 290.996C129.993 300.369 175.596 298.155 177.92 292.83C180.312 287.339 175.457 283.956 175.67 265.995C175.692 264.04 175.843 261.996 176.052 259.913L185.025 275.956C185.495 276.796 186.159 277.512 186.963 278.043C187.766 278.574 188.685 278.906 189.643 279.01C189.86 279.034 190.079 279.046 190.298 279.046C191.151 279.045 191.994 278.865 192.771 278.516C193.549 278.167 194.244 277.657 194.811 277.021L219.673 247.978L210.335 241.415Z" fill="url(#paint7_linear_1536_20888)"/>
<path d="M396.134 328.675L390.703 329.96L397.511 358.778L402.942 357.494L396.134 328.675Z" fill="url(#paint8_linear_1536_20888)"/>
<path d="M402.108 326.441L397.446 351.736L400.461 352.292L405.123 326.997L402.108 326.441Z" fill="url(#paint9_linear_1536_20888)"/>
<path d="M402.11 326.433L401.58 329.223L404.591 329.797L405.122 327.007L402.11 326.433Z" fill="url(#paint10_linear_1536_20888)"/>
<path d="M392.775 332.865L391.101 333.525L400.871 358.343L402.545 357.683L392.775 332.865Z" fill="#0CBC8B"/>
<path d="M405.361 343.728H390.634V362.564H405.361V343.728Z" fill="url(#paint11_linear_1536_20888)"/>
<path d="M368.421 399.92H362.387V459.327H368.421V399.92Z" fill="url(#paint12_linear_1536_20888)"/>
<path d="M363.455 399.92H357.421V459.327H363.455V399.92Z" fill="url(#paint13_linear_1536_20888)"/>
<path d="M443.579 399.92H437.544V459.327H443.579V399.92Z" fill="url(#paint14_linear_1536_20888)"/>
<path d="M438.613 399.92H432.579V459.327H438.613V399.92Z" fill="url(#paint15_linear_1536_20888)"/>
<path d="M384.971 399.92H378.937V459.327H384.971V399.92Z" fill="url(#paint16_linear_1536_20888)"/>
<path d="M380.005 399.92H373.971V459.327H380.005V399.92Z" fill="url(#paint17_linear_1536_20888)"/>
<path d="M460.129 399.92H454.094V459.327H460.129V399.92Z" fill="url(#paint18_linear_1536_20888)"/>
<path d="M455.163 399.92H449.129V459.327H455.163V399.92Z" fill="url(#paint19_linear_1536_20888)"/>
<path d="M460.128 361.894H378.974V401.345H460.128V361.894Z" fill="url(#paint20_linear_1536_20888)"/>
<path d="M438.575 361.894H357.421V401.345H438.575V361.894Z" fill="url(#paint21_linear_1536_20888)"/>
<g opacity="0.53">
<path d="M434.209 367.502H361.787V395.562H434.209V367.502Z" fill="#F3F5FD"/>
</g>
<path d="M397.998 384.751C399.774 384.751 401.214 383.31 401.214 381.532C401.214 379.754 399.774 378.313 397.998 378.313C396.221 378.313 394.781 379.754 394.781 381.532C394.781 383.31 396.221 384.751 397.998 384.751Z" fill="white"/>
<path d="M56.2839 421.147C53.9689 420.388 51.5926 421.24 49.3195 422.971C52.3137 415.403 53.5499 408.567 48.4299 408.26C44.8483 408.044 42.104 410.794 40.0194 414.705C39.2864 407.829 37.3944 402.702 33.157 404.402C28.5053 406.268 27.798 412.662 28.5036 419.357C26.454 415.938 24.2473 414.032 22.2441 416.038C16.2644 422.022 30.9412 438.886 30.9412 438.886H34.5859L36.6665 441.147C36.2452 442.037 36.0148 442.568 36.0148 442.568L38.657 447.949C38.657 447.949 65.8929 424.295 56.2839 421.147Z" fill="#8DDBE0"/>
<path d="M49.7488 460H29.1198L25.6665 435.899H53.2021L49.7488 460Z" fill="url(#paint22_linear_1536_20888)"/>
</g>
<path d="M208.611 50.9757C222.527 50.9757 233.808 39.6945 233.808 25.7785C233.808 11.8625 222.527 0.581299 208.611 0.581299C194.695 0.581299 183.413 11.8625 183.413 25.7785C183.413 39.6945 194.695 50.9757 208.611 50.9757Z" fill="#0CBC8B"/>
<path d="M204.29 39.5359C203.765 39.5359 203.26 39.3352 202.878 38.9748L193.306 29.9437C192.92 29.5667 192.698 29.0531 192.687 28.5136C192.676 27.9741 192.877 27.4519 193.247 27.0593C193.617 26.6668 194.127 26.4353 194.666 26.4149C195.205 26.3944 195.731 26.5866 196.13 26.9499L204.176 34.5406L220.979 16.0254C221.347 15.6262 221.858 15.3887 222.4 15.3646C222.943 15.3405 223.473 15.5317 223.875 15.8966C224.277 16.2615 224.518 16.7705 224.547 17.3128C224.575 17.855 224.388 18.3865 224.027 18.7915L205.814 38.8613C205.63 39.0639 205.408 39.2278 205.16 39.3434C204.912 39.4591 204.643 39.5241 204.37 39.5347C204.343 39.5353 204.317 39.5359 204.29 39.5359Z" fill="white"/>
<defs>
<linearGradient id="paint0_linear_1536_20888" x1="246" y1="132.577" x2="246" y2="460" gradientUnits="userSpaceOnUse">
<stop stop-color="#EE575C"/>
<stop offset="1" stop-color="#F67147"/>
</linearGradient>
<linearGradient id="paint1_linear_1536_20888" x1="209.038" y1="91.1858" x2="209.038" y2="291.114" gradientUnits="userSpaceOnUse">
<stop stop-color="#EE575C"/>
<stop offset="1" stop-color="#F67147"/>
</linearGradient>
<linearGradient id="paint2_linear_1536_20888" x1="207.007" y1="65" x2="207.007" y2="350.448" gradientUnits="userSpaceOnUse">
<stop stop-color="#FF9D44"/>
<stop offset="1" stop-color="#F5C58D"/>
</linearGradient>
<linearGradient id="paint3_linear_1536_20888" x1="209.038" y1="209.437" x2="209.038" y2="383.191" gradientUnits="userSpaceOnUse">
<stop stop-color="#465867"/>
<stop offset="1" stop-color="#728594"/>
</linearGradient>
<linearGradient id="paint4_linear_1536_20888" x1="97.7643" y1="449.859" x2="97.7643" y2="459.325" gradientUnits="userSpaceOnUse">
<stop stop-color="#FF9D44"/>
<stop offset="1" stop-color="#F5C58D"/>
</linearGradient>
<linearGradient id="paint5_linear_1536_20888" x1="145.757" y1="449.859" x2="145.757" y2="459.325" gradientUnits="userSpaceOnUse">
<stop stop-color="#FF9D44"/>
<stop offset="1" stop-color="#F5C58D"/>
</linearGradient>
<linearGradient id="paint6_linear_1536_20888" x1="125.055" y1="220.123" x2="125.055" y2="303.751" gradientUnits="userSpaceOnUse">
<stop stop-color="#FF9D44"/>
<stop offset="1" stop-color="#F5C58D"/>
</linearGradient>
<linearGradient id="paint7_linear_1536_20888" x1="165.469" y1="228.858" x2="165.469" y2="309.511" gradientUnits="userSpaceOnUse">
<stop stop-color="#465867"/>
<stop offset="1" stop-color="#728594"/>
</linearGradient>
<linearGradient id="paint8_linear_1536_20888" x1="393.419" y1="329.317" x2="400.237" y2="358.134" gradientUnits="userSpaceOnUse">
<stop stop-color="#FF9D44"/>
<stop offset="1" stop-color="#F5C58D"/>
</linearGradient>
<linearGradient id="paint9_linear_1536_20888" x1="399.777" y1="339.088" x2="402.792" y2="339.644" gradientUnits="userSpaceOnUse">
<stop stop-color="#FF9D44"/>
<stop offset="1" stop-color="#F5C58D"/>
</linearGradient>
<linearGradient id="paint10_linear_1536_20888" x1="401.845" y1="327.828" x2="404.857" y2="328.401" gradientUnits="userSpaceOnUse">
<stop stop-color="#465867"/>
<stop offset="1" stop-color="#728594"/>
</linearGradient>
<linearGradient id="paint11_linear_1536_20888" x1="397.998" y1="343.728" x2="397.998" y2="362.564" gradientUnits="userSpaceOnUse">
<stop stop-color="#FF9D44"/>
<stop offset="1" stop-color="#F5C58D"/>
</linearGradient>
<linearGradient id="paint12_linear_1536_20888" x1="365.404" y1="399.92" x2="365.404" y2="459.327" gradientUnits="userSpaceOnUse">
<stop stop-color="#FF9D44"/>
<stop offset="1" stop-color="#F5C58D"/>
</linearGradient>
<linearGradient id="paint13_linear_1536_20888" x1="360.438" y1="399.92" x2="360.438" y2="459.327" gradientUnits="userSpaceOnUse">
<stop stop-color="#465867"/>
<stop offset="1" stop-color="#728594"/>
</linearGradient>
<linearGradient id="paint14_linear_1536_20888" x1="440.562" y1="399.92" x2="440.562" y2="459.327" gradientUnits="userSpaceOnUse">
<stop stop-color="#FF9D44"/>
<stop offset="1" stop-color="#F5C58D"/>
</linearGradient>
<linearGradient id="paint15_linear_1536_20888" x1="435.596" y1="399.92" x2="435.596" y2="459.327" gradientUnits="userSpaceOnUse">
<stop stop-color="#465867"/>
<stop offset="1" stop-color="#728594"/>
</linearGradient>
<linearGradient id="paint16_linear_1536_20888" x1="381.954" y1="399.92" x2="381.954" y2="459.327" gradientUnits="userSpaceOnUse">
<stop stop-color="#FF9D44"/>
<stop offset="1" stop-color="#F5C58D"/>
</linearGradient>
<linearGradient id="paint17_linear_1536_20888" x1="376.988" y1="399.92" x2="376.988" y2="459.327" gradientUnits="userSpaceOnUse">
<stop stop-color="#465867"/>
<stop offset="1" stop-color="#728594"/>
</linearGradient>
<linearGradient id="paint18_linear_1536_20888" x1="457.111" y1="399.92" x2="457.111" y2="459.327" gradientUnits="userSpaceOnUse">
<stop stop-color="#FF9D44"/>
<stop offset="1" stop-color="#F5C58D"/>
</linearGradient>
<linearGradient id="paint19_linear_1536_20888" x1="452.146" y1="399.92" x2="452.146" y2="459.327" gradientUnits="userSpaceOnUse">
<stop stop-color="#465867"/>
<stop offset="1" stop-color="#728594"/>
</linearGradient>
<linearGradient id="paint20_linear_1536_20888" x1="419.551" y1="361.894" x2="419.551" y2="401.345" gradientUnits="userSpaceOnUse">
<stop stop-color="#FF9D44"/>
<stop offset="1" stop-color="#F5C58D"/>
</linearGradient>
<linearGradient id="paint21_linear_1536_20888" x1="397.998" y1="361.894" x2="397.998" y2="401.345" gradientUnits="userSpaceOnUse">
<stop stop-color="#465867"/>
<stop offset="1" stop-color="#728594"/>
</linearGradient>
<linearGradient id="paint22_linear_1536_20888" x1="39.4343" y1="435.899" x2="39.4343" y2="460" gradientUnits="userSpaceOnUse">
<stop stop-color="#FF9D44"/>
<stop offset="1" stop-color="#F5C58D"/>
</linearGradient>
<clipPath id="clip0_1536_20888">
<rect width="492" height="395" fill="white" transform="translate(0 65)"/>
</clipPath>
</defs>
</svg>
