<svg width="28" height="21" viewBox="0 0 16 12" fill="none" xmlns="http://www.w3.org/2000/svg"> class="icon"
<path fill-rule="evenodd" clip-rule="evenodd" d="M2 0C0.895431 0 0 0.89543 0 2V10C0 11.1046 0.895431 12 2 12H14C15.1046 12 16 11.1046 16 10V4.5V4.49418V4.48837V4.48257V4.47677V4.47098V4.4652V4.45942V4.45365V4.44788V4.44212V4.43637V4.43062V4.42488V4.41915V4.41342V4.4077V4.40198V4.39627V4.39057V4.38487V4.37918V4.37349V4.36781V4.36214V4.35647V4.35081V4.34515V4.3395V4.33385V4.32822V4.32258V4.31696V4.31133V4.30572V4.30011V4.29451V4.28891V4.28332V4.27773V4.27215V4.26658V4.26101V4.25544V4.24989V4.24433V4.23879V4.23325V4.22771V4.22218V4.21666V4.21114V4.20563V4.20012V4.19462V4.18912V4.18363V4.17814V4.17266V4.16719V4.16172V4.15626V4.1508V4.14534V4.1399V4.13445V4.12902V4.12359V4.11816V4.11274V4.10732V4.10191V4.09651V4.09111V4.08571V4.08032V4.07494V4.06956V4.06418V4.05881V4.05345V4.04809V4.04274V4.03739V4.03204V4.0267V4.02137V4.01604V4.01072V4.0054V4.00009V3.99478V3.98947V3.98417V3.97888V3.97359V3.96831V3.96303V3.95775V3.95248V3.94721V3.94195V3.9367V3.93145V3.9262V3.92096V3.91572V3.91049V3.90526V3.90004V3.89482V3.88961V3.8844V3.87919V3.87399V3.8688V3.86361V3.85842V3.85324V3.84806V3.84289V3.83772V3.83256V3.8274V3.82224V3.81709V3.81194V3.8068V3.80167V3.79653V3.7914V3.78628V3.78116V3.77604V3.77093V3.76582V3.76072V3.75562V3.75052V3.74543V3.74035V3.73526V3.73019V3.72511V3.72004V3.71497V3.70991V3.70485V3.6998V3.69475V3.6897V3.68466V3.67962V3.67459V3.66956V3.66453V3.65951V3.65449V3.64948V3.64447V3.63946V3.63446V3.62946V3.62446V3.61947V3.61448V3.6095V3.60452V3.59954V3.59457V3.5896V3.58463V3.57967V3.57471V3.56976V3.56481V3.55986V3.55491V3.54997V3.54504V3.5401V3.53517V3.53025V3.52532V3.52041V3.51549V3.51058V3.50567V3.50076V3.49586V3.49096V3.48606V3.48117V3.47628V3.4714V3.46652V3.46164V3.45676V3.45189V3.44702V3.44215V3.43729V3.43243V3.42757V3.42272V3.41787V3.41302V3.40818V3.40334V3.3985V3.39366V3.38883V3.384V3.37918V3.37435V3.36953V3.36472V3.3599V3.35509V3.35028V3.34548V3.34068V3.33588V3.33108V3.32629V3.3215V3.31671V3.31192V3.30714V3.30236V3.29758V3.29281V3.28804V3.28327V3.2785V3.27374V3.26898V3.26422V3.25946V3.25471V3.24996V3.24521V3.24046V3.23572V3.23098V3.22624V3.22151V3.21677V3.21204V3.20731V3.20259V3.19787V3.19315V3.18843V3.18371V3.179V3.17428V3.16958V3.16487V3.16016V3.15546V3.15076V3.14606V3.14137V3.13667V3.13198V3.12729V3.12261V3.11792V3.11324V3.10856V3.10388V3.0992V3.09453V3.08986V3.08519V3.08052V3.07585V3.07119V3.06653V3.06187V3.05721V3.05255V3.0479V3.04324V3.03859V3.03394V3.0293V3.02465V3.02001V3.01537V3.01073V3.00609V3.00145V2.99682V2.99218V2.98755V2.98292V2.9783V2.97367V2.96904V2.96442V2.9598V2.95518V2.95056V2.94595V2.94133V2.93672V2.9321V2.92749V2.92288V2.91828V2.91367V2.90907V2.90446V2.89986V2.89526V2.89066V2.88606V2.88147V2.87687V2.87228V2.86768V2.86309V2.8585V2.85391V2.84933V2.84474V2.84015V2.83557V2.83099V2.8264V2.82182V2.81724V2.81267V2.80809V2.80351V2.79894V2.79436V2.78979V2.78522V2.78065V2.77608V2.77151V2.76694V2.76237V2.7578V2.75324V2.74867V2.74411V2.73955V2.73498V2.73042V2.72586V2.7213V2.71674V2.71219V2.70763V2.70307V2.69851V2.69396V2.6894V2.68485V2.6803V2.67574V2.67119V2.66664V2.66209V2.65754V2.65299V2.64844V2.64389V2.63934V2.63479V2.63025V2.6257V2.62115V2.61661V2.61206V2.60752V2.60297V2.59843V2.59388V2.58934V2.58479V2.58025V2.57571V2.57116V2.56662V2.56208V2.55754V2.553V2.54845V2.54391V2.53937V2.53483V2.53029V2.52575V2.52121V2.51667V2.51212V2.50758V2.50304V2.4985V2.49396V2.48942V2.48488V2.48034V2.4758V2.47126V2.46672V2.46217V2.45763V2.45309V2.44855V2.44401V2.43947V2.43492V2.43038V2.42584V2.4213V2.41675V2.41221V2.40767V2.40312V2.39858V2.39403V2.38949V2.38494V2.38039V2.37585V2.3713V2.36675V2.36221V2.35766V2.35311V2.34856V2.34401V2.33946V2.33491V2.33036V2.32581V2.32125V2.3167V2.31215V2.30759V2.30304V2.29848V2.29392V2.28937V2.28481V2.28025V2.27569V2.27113V2.26657V2.26201V2.25744V2.25288V2.24832V2.24375V2.23918V2.23462V2.23005V2.22548V2.22091V2.21634V2.21177V2.20719V2.20262V2.19805V2.19347V2.18889V2.18431V2.17974V2.17516V2.17057V2.16599V2.16141V2.15682V2.15224V2.14765V2.14306V2.13847V2.13388V2.12929V2.12469V2.1201V2.1155V2.11091V2.10631V2.10171V2.09711V2.0925V2.0879V2.08329V2.07868V2.07408V2.06947V2.06485V2.06024V2.05563V2.05101V2.04639V2.04177V2.03715V2.03253V2.02791V2.02328V2.01865V2.01402V2.00939V2.00476V2.00013C16 0.89561 15.1046 0 14 0H2ZM1.41982 1.18542C1.58343 1.06868 1.78369 1 2 1H14C14.2163 1 14.4165 1.06869 14.5802 1.18544L8 5.88555L1.41982 1.18542ZM1 2.11445V10C1 10.5523 1.44772 11 2 11H14C14.5523 11 15 10.5523 15 10V4.5V4.49418V4.48837V4.48257V4.47677V4.47098V4.4652V4.45942V4.45365V4.44788V4.44212V4.43637V4.43062V4.42488V4.41915V4.41342V4.4077V4.40198V4.39627V4.39057V4.38487V4.37918V4.37349V4.36781V4.36214V4.35647V4.35081V4.34515V4.3395V4.33385V4.32822V4.32258V4.31696V4.31133V4.30572V4.30011V4.29451V4.28891V4.28332V4.27773V4.27215V4.26658V4.26101V4.25544V4.24989V4.24433V4.23879V4.23325V4.22771V4.22218V4.21666V4.21114V4.20563V4.20012V4.19462V4.18912V4.18363V4.17814V4.17266V4.16719V4.16172V4.15626V4.1508V4.14534V4.1399V4.13445V4.12902V4.12359V4.11816V4.11274V4.10732V4.10191V4.09651V4.09111V4.08571V4.08032V4.07494V4.06956V4.06418V4.05881V4.05345V4.04809V4.04274V4.03739V4.03204V4.0267V4.02137V4.01604V4.01072V4.0054V4.00009V3.99478V3.98947V3.98417V3.97888V3.97359V3.96831V3.96303V3.95775V3.95248V3.94721V3.94195V3.9367V3.93145V3.9262V3.92096V3.91572V3.91049V3.90526V3.90004V3.89482V3.88961V3.8844V3.87919V3.87399V3.8688V3.86361V3.85842V3.85324V3.84806V3.84289V3.83772V3.83256V3.8274V3.82224V3.81709V3.81194V3.8068V3.80167V3.79653V3.7914V3.78628V3.78116V3.77604V3.77093V3.76582V3.76072V3.75562V3.75052V3.74543V3.74035V3.73526V3.73019V3.72511V3.72004V3.71497V3.70991V3.70485V3.6998V3.69475V3.6897V3.68466V3.67962V3.67459V3.66956V3.66453V3.65951V3.65449V3.64948V3.64447V3.63946V3.63446V3.62946V3.62446V3.61947V3.61448V3.6095V3.60452V3.59954V3.59457V3.5896V3.58463V3.57967V3.57471V3.56976V3.56481V3.55986V3.55491V3.54997V3.54504V3.5401V3.53517V3.53025V3.52532V3.52041V3.51549V3.51058V3.50567V3.50076V3.49586V3.49096V3.48606V3.48117V3.47628V3.4714V3.46652V3.46164V3.45676V3.45189V3.44702V3.44215V3.43729V3.43243V3.42757V3.42272V3.41787V3.41302V3.40818V3.40334V3.3985V3.39366V3.38883V3.384V3.37918V3.37435V3.36953V3.36472V3.3599V3.35509V3.35028V3.34548V3.34068V3.33588V3.33108V3.32629V3.3215V3.31671V3.31192V3.30714V3.30236V3.29758V3.29281V3.28804V3.28327V3.2785V3.27374V3.26898V3.26422V3.25946V3.25471V3.24996V3.24521V3.24046V3.23572V3.23098V3.22624V3.22151V3.21677V3.21204V3.20731V3.20259V3.19787V3.19315V3.18843V3.18371V3.179V3.17428V3.16958V3.16487V3.16016V3.15546V3.15076V3.14606V3.14137V3.13667V3.13198V3.12729V3.12261V3.11792V3.11324V3.10856V3.10388V3.0992V3.09453V3.08986V3.08519V3.08052V3.07585V3.07119V3.06653V3.06187V3.05721V3.05255V3.0479V3.04324V3.03859V3.03394V3.0293V3.02465V3.02001V3.01537V3.01073V3.00609V3.00145V2.99682V2.99218V2.98755V2.98292V2.9783V2.97367V2.96904V2.96442V2.9598V2.95518V2.95056V2.94595V2.94133V2.93672V2.9321V2.92749V2.92288V2.91828V2.91367V2.90907V2.90446V2.89986V2.89526V2.89066V2.88606V2.88147V2.87687V2.87228V2.86768V2.86309V2.8585V2.85391V2.84933V2.84474V2.84015V2.83557V2.83099V2.8264V2.82182V2.81724V2.81267V2.80809V2.80351V2.79894V2.79436V2.78979V2.78522V2.78065V2.77608V2.77151V2.76694V2.76237V2.7578V2.75324V2.74867V2.74411V2.73955V2.73498V2.73042V2.72586V2.7213V2.71674V2.71219V2.70763V2.70307V2.69851V2.69396V2.6894V2.68485V2.6803V2.67574V2.67119V2.66664V2.66209V2.65754V2.65299V2.64844V2.64389V2.63934V2.63479V2.63025V2.6257V2.62115V2.61661V2.61206V2.60752V2.60297V2.59843V2.59388V2.58934V2.58479V2.58025V2.57571V2.57116V2.56662V2.56208V2.55754V2.553V2.54845V2.54391V2.53937V2.53483V2.53029V2.52575V2.52121V2.51667V2.51212V2.50758V2.50304V2.4985V2.49396V2.48942V2.48488V2.48034V2.4758V2.47126V2.46672V2.46217V2.45763V2.45309V2.44855V2.44401V2.43947V2.43492V2.43038V2.42584V2.4213V2.41675V2.41221V2.40767V2.40312V2.39858V2.39403V2.38949V2.38494V2.38039V2.37585V2.3713V2.36675V2.36221V2.35766V2.35311V2.34856V2.34401V2.33946V2.33491V2.33036V2.32581V2.32125V2.3167V2.31215V2.30759V2.30304V2.29848V2.29392V2.28937V2.28481V2.28025V2.27569V2.27113V2.26657V2.26201V2.25744V2.25288V2.24832V2.24375V2.23918V2.23462V2.23005V2.22548V2.22091V2.21634V2.21177V2.20719V2.20262V2.19805V2.19347V2.18889V2.18431V2.17974V2.17516V2.17057V2.16599V2.16141V2.15682V2.15224V2.14765V2.14306V2.13847V2.13388V2.12929V2.12469V2.1201V2.1155V2.11445L8.58124 6.69928C8.23354 6.94764 7.76646 6.94764 7.41876 6.69928L1 2.11445Z" fill="black"/>
</svg>
