<!--
 * Copyright (c) 2020, WSO2 Inc. (http://www.wso2.com). All Rights Reserved.
 *
 * This software is the property of WSO2 Inc. and its suppliers, if any.
 * Dissemination of any information or reproduction of any material contained
 * herein in any form is strictly forbidden, unless permitted by WSO2 expressly.
 * You may not alter or remove any copyright or other notice from copies of this content."
-->

<svg class="icon" id="config-copying-illustration" xmlns="http://www.w3.org/2000/svg"
     xmlns:xlink="http://www.w3.org/1999/xlink" width="550" height="428.974" viewBox="0 0 550 428.974">
    <defs>
        <filter id="Path_1950" x="0" y="0" width="122.669" height="149.973" filterUnits="userSpaceOnUse">
            <feOffset dy="3" input="SourceAlpha"/>
            <feGaussianBlur stdDeviation="3" result="blur"/>
            <feFlood flood-opacity="0.161"/>
            <feComposite operator="in" in2="blur"/>
            <feComposite in="SourceGraphic"/>
        </filter>
    </defs>
    <g id="Group_1067" data-name="Group 1067" transform="translate(-9 -3.026)">
        <rect id="Rectangle_1" data-name="Rectangle 1" width="385" height="404" rx="8" transform="translate(174 28)"
              fill="#f6f6f6"/>
        <path id="Path_2002" data-name="Path 2002"
              d="M2.769-2.922a1.52,1.52,0,0,0,.584,1.261A2.167,2.167,0,0,0,4.737-1.2a4.209,4.209,0,0,0,1.887-.451A2.539,2.539,0,0,0,8.162-4.1V-5.588a3.158,3.158,0,0,1-.872.359,7.427,7.427,0,0,1-1.046.205l-1.118.144a4.275,4.275,0,0,0-1.507.42A1.638,1.638,0,0,0,2.769-2.922ZM7.239-6.655a1,1,0,0,0,.851-.533A1.622,1.622,0,0,0,8.213-7.9a1.5,1.5,0,0,0-.672-1.369A3.6,3.6,0,0,0,5.619-9.69a2.443,2.443,0,0,0-2.051.779,2.564,2.564,0,0,0-.441,1.282H1.4a3.171,3.171,0,0,1,1.318-2.825,5.41,5.41,0,0,1,2.938-.795,5.977,5.977,0,0,1,3.148.738,2.5,2.5,0,0,1,1.2,2.3v6.327a.81.81,0,0,0,.118.461.569.569,0,0,0,.5.174q.123,0,.277-.015t.328-.046V.051a5.14,5.14,0,0,1-.656.154,4.8,4.8,0,0,1-.615.031A1.518,1.518,0,0,1,8.572-.441a2.612,2.612,0,0,1-.318-1.015A4.7,4.7,0,0,1,6.634-.174,5.011,5.011,0,0,1,4.307.369a3.461,3.461,0,0,1-2.5-.928A3.082,3.082,0,0,1,.841-2.881,2.991,2.991,0,0,1,1.794-5.25,4.537,4.537,0,0,1,4.3-6.286ZM14.13-3.445a2.684,2.684,0,0,0,.461,1.415,2.9,2.9,0,0,0,2.42.892,3.569,3.569,0,0,0,1.8-.446A1.481,1.481,0,0,0,19.6-2.963,1.179,1.179,0,0,0,18.97-4.04a7.437,7.437,0,0,0-1.579-.523l-1.466-.369a7.153,7.153,0,0,1-2.071-.779,2.329,2.329,0,0,1-1.189-2.071,3.165,3.165,0,0,1,1.123-2.522,4.479,4.479,0,0,1,3.02-.964,4.192,4.192,0,0,1,3.579,1.456,3.16,3.16,0,0,1,.667,1.989H19.308a2.135,2.135,0,0,0-.441-1.138,2.812,2.812,0,0,0-2.2-.728,2.635,2.635,0,0,0-1.584.4,1.253,1.253,0,0,0-.538,1.056,1.3,1.3,0,0,0,.708,1.148,4.252,4.252,0,0,0,1.21.451l1.22.3a9.434,9.434,0,0,1,2.666.933A2.471,2.471,0,0,1,21.42-3.179,3.391,3.391,0,0,1,20.308-.646,4.736,4.736,0,0,1,16.919.42,4.547,4.547,0,0,1,13.448-.692a4.207,4.207,0,0,1-1.092-2.753Zm13.279-7.731a4,4,0,0,1,2.256.636A5.067,5.067,0,0,1,30.731-9.5v-1.384h1.7V-.892a7.365,7.365,0,0,1-.615,3.3Q30.669,4.645,27.48,4.645A5.321,5.321,0,0,1,24.5,3.85a3.1,3.1,0,0,1-1.354-2.487H25.02A2.088,2.088,0,0,0,25.553,2.5a2.718,2.718,0,0,0,1.969.615A2.709,2.709,0,0,0,30.3,1.62a8.431,8.431,0,0,0,.359-3.148A3.621,3.621,0,0,1,29.326-.277a4.434,4.434,0,0,1-2.061.41,4.4,4.4,0,0,1-3.122-1.266Q22.8-2.4,22.8-5.322a6.344,6.344,0,0,1,1.348-4.307A4.169,4.169,0,0,1,27.409-11.177Zm3.322,5.64a4.578,4.578,0,0,0-.841-3.025,2.694,2.694,0,0,0-2.143-.984,2.646,2.646,0,0,0-2.666,1.825A7.157,7.157,0,0,0,24.7-5.168a4.532,4.532,0,0,0,.754,2.825,2.433,2.433,0,0,0,2.025.969,2.843,2.843,0,0,0,2.8-1.794A5.788,5.788,0,0,0,30.731-5.537Zm5.9,2.615a1.52,1.52,0,0,0,.584,1.261A2.167,2.167,0,0,0,38.6-1.2a4.209,4.209,0,0,0,1.887-.451A2.539,2.539,0,0,0,42.021-4.1V-5.588a3.158,3.158,0,0,1-.872.359,7.427,7.427,0,0,1-1.046.205l-1.118.144a4.275,4.275,0,0,0-1.507.42A1.638,1.638,0,0,0,36.627-2.922ZM41.1-6.655a1,1,0,0,0,.851-.533,1.622,1.622,0,0,0,.123-.708A1.5,1.5,0,0,0,41.4-9.264a3.6,3.6,0,0,0-1.923-.426,2.443,2.443,0,0,0-2.051.779,2.564,2.564,0,0,0-.441,1.282H35.263a3.171,3.171,0,0,1,1.318-2.825,5.41,5.41,0,0,1,2.938-.795,5.977,5.977,0,0,1,3.148.738,2.5,2.5,0,0,1,1.2,2.3v6.327a.81.81,0,0,0,.118.461.569.569,0,0,0,.5.174q.123,0,.277-.015t.328-.046V.051a5.14,5.14,0,0,1-.656.154,4.8,4.8,0,0,1-.615.031,1.518,1.518,0,0,1-1.384-.677,2.612,2.612,0,0,1-.318-1.015,4.7,4.7,0,0,1-1.62,1.282,5.011,5.011,0,0,1-2.328.543,3.461,3.461,0,0,1-2.5-.928A3.082,3.082,0,0,1,34.7-2.881a2.991,2.991,0,0,1,.954-2.369,4.537,4.537,0,0,1,2.5-1.036Zm5.845-4.327H48.7v1.9a4.191,4.191,0,0,1,1.056-1.348,2.738,2.738,0,0,1,1.938-.795q.051,0,.174.01t.42.041v1.948a2.757,2.757,0,0,0-.3-.041q-.138-.01-.3-.01a2.634,2.634,0,0,0-2.143.9,3.132,3.132,0,0,0-.749,2.066V0H46.942Zm8.111,5.619A5.444,5.444,0,0,0,55.8-2.41,2.623,2.623,0,0,0,58.2-1.22a2.527,2.527,0,0,0,2.107-1.1,5.206,5.206,0,0,0,.825-3.163,4.678,4.678,0,0,0-.851-3.081,2.655,2.655,0,0,0-2.1-1A2.775,2.775,0,0,0,55.92-8.5,4.884,4.884,0,0,0,55.053-5.363Zm2.779-5.814a3.907,3.907,0,0,1,2.112.533,4.962,4.962,0,0,1,1.118,1.077v-5.547h1.774V0H61.175V-1.528A3.993,3.993,0,0,1,59.647-.062a4.373,4.373,0,0,1-2.02.451,4.091,4.091,0,0,1-3.179-1.543A6.033,6.033,0,0,1,53.1-5.26,7.089,7.089,0,0,1,54.33-9.418,4.012,4.012,0,0,1,57.832-11.177Zm12.3-.051a5.009,5.009,0,0,1,2.266.549,4.179,4.179,0,0,1,1.671,1.42,4.9,4.9,0,0,1,.738,1.938,12.68,12.68,0,0,1,.164,2.42H66.927a4.7,4.7,0,0,0,.79,2.681A2.644,2.644,0,0,0,70-1.21a2.956,2.956,0,0,0,2.307-.954,3.215,3.215,0,0,0,.7-1.282h1.815A3.822,3.822,0,0,1,74.346-2.1a4.8,4.8,0,0,1-.907,1.215A4.3,4.3,0,0,1,71.357.226,6.323,6.323,0,0,1,69.85.39,4.625,4.625,0,0,1,66.374-1.1a5.805,5.805,0,0,1-1.425-4.178,6.312,6.312,0,0,1,1.436-4.3A4.736,4.736,0,0,1,70.137-11.228Zm2.943,4.86a4.782,4.782,0,0,0-.523-1.917,2.68,2.68,0,0,0-2.533-1.333,2.807,2.807,0,0,0-2.133.918,3.467,3.467,0,0,0-.913,2.333ZM81.6-1.189a2.545,2.545,0,0,0,2.517-1.389A6.922,6.922,0,0,0,84.8-5.67a5.5,5.5,0,0,0-.492-2.5A2.769,2.769,0,0,0,81.621-9.69,2.649,2.649,0,0,0,79.16-8.4a5.989,5.989,0,0,0-.769,3.117,5.209,5.209,0,0,0,.769,2.922A2.709,2.709,0,0,0,81.6-1.189Zm.072-10.11a4.973,4.973,0,0,1,3.589,1.415,5.526,5.526,0,0,1,1.466,4.163,7.143,7.143,0,0,1-1.292,4.389A4.674,4.674,0,0,1,81.426.4a4.526,4.526,0,0,1-3.6-1.533A6.055,6.055,0,0,1,76.494-5.25a6.551,6.551,0,0,1,1.4-4.409A4.715,4.715,0,0,1,81.672-11.3ZM88.44-6.8h5.147v1.9H88.44Zm8.89,3.876a1.52,1.52,0,0,0,.584,1.261A2.167,2.167,0,0,0,99.3-1.2a4.209,4.209,0,0,0,1.887-.451A2.539,2.539,0,0,0,102.724-4.1V-5.588a3.158,3.158,0,0,1-.872.359,7.427,7.427,0,0,1-1.046.205l-1.118.144a4.275,4.275,0,0,0-1.507.42A1.638,1.638,0,0,0,97.33-2.922ZM101.8-6.655a1,1,0,0,0,.851-.533,1.622,1.622,0,0,0,.123-.708,1.5,1.5,0,0,0-.672-1.369,3.6,3.6,0,0,0-1.923-.426,2.443,2.443,0,0,0-2.051.779,2.564,2.564,0,0,0-.441,1.282H95.966a3.171,3.171,0,0,1,1.318-2.825,5.41,5.41,0,0,1,2.938-.795,5.977,5.977,0,0,1,3.148.738,2.5,2.5,0,0,1,1.2,2.3v6.327a.81.81,0,0,0,.118.461.569.569,0,0,0,.5.174q.123,0,.277-.015t.328-.046V.051a5.14,5.14,0,0,1-.656.154,4.8,4.8,0,0,1-.615.031,1.518,1.518,0,0,1-1.384-.677,2.612,2.612,0,0,1-.318-1.015A4.7,4.7,0,0,1,101.2-.174a5.011,5.011,0,0,1-2.328.543,3.461,3.461,0,0,1-2.5-.928A3.082,3.082,0,0,1,95.4-2.881a2.991,2.991,0,0,1,.954-2.369,4.537,4.537,0,0,1,2.5-1.036Zm5.793-4.327h1.753v1.559A4.918,4.918,0,0,1,111-10.808a4.4,4.4,0,0,1,1.938-.42,3.2,3.2,0,0,1,3.158,1.63,5.789,5.789,0,0,1,.451,2.553V0h-1.876V-6.921a3.748,3.748,0,0,0-.3-1.62,1.8,1.8,0,0,0-1.784-1.025,3.633,3.633,0,0,0-1.077.133,2.773,2.773,0,0,0-1.333.9,2.717,2.717,0,0,0-.6,1.123,7.558,7.558,0,0,0-.138,1.656V0h-1.846Zm15.555-.195a4,4,0,0,1,2.256.636A5.067,5.067,0,0,1,126.472-9.5v-1.384h1.7V-.892a7.365,7.365,0,0,1-.615,3.3q-1.148,2.235-4.337,2.235a5.321,5.321,0,0,1-2.984-.795,3.1,3.1,0,0,1-1.354-2.487h1.876a2.088,2.088,0,0,0,.533,1.138,2.718,2.718,0,0,0,1.969.615,2.709,2.709,0,0,0,2.779-1.5,8.431,8.431,0,0,0,.359-3.148,3.621,3.621,0,0,1-1.333,1.251,4.434,4.434,0,0,1-2.061.41,4.4,4.4,0,0,1-3.122-1.266q-1.338-1.266-1.338-4.189a6.344,6.344,0,0,1,1.348-4.307A4.169,4.169,0,0,1,123.149-11.177Zm3.322,5.64a4.578,4.578,0,0,0-.841-3.025,2.694,2.694,0,0,0-2.143-.984,2.646,2.646,0,0,0-2.666,1.825,7.157,7.157,0,0,0-.379,2.553,4.532,4.532,0,0,0,.754,2.825,2.433,2.433,0,0,0,2.025.969,2.843,2.843,0,0,0,2.8-1.794A5.788,5.788,0,0,0,126.472-5.537Zm6.327-5.445v7.291a3.074,3.074,0,0,0,.267,1.374,1.86,1.86,0,0,0,1.835.984,2.594,2.594,0,0,0,2.625-1.723,6.835,6.835,0,0,0,.379-2.533v-5.394h1.846V0h-1.743l.021-1.62a3.723,3.723,0,0,1-.892,1.056A3.925,3.925,0,0,1,134.572.3a3.307,3.307,0,0,1-3.2-1.569,4.672,4.672,0,0,1-.461-2.246v-7.465Zm9.885-4.081h1.846V0h-1.846Zm6.029,12.141a1.52,1.52,0,0,0,.584,1.261,2.167,2.167,0,0,0,1.384.461,4.209,4.209,0,0,0,1.887-.451A2.539,2.539,0,0,0,154.106-4.1V-5.588a3.158,3.158,0,0,1-.872.359,7.427,7.427,0,0,1-1.046.205l-1.118.144a4.275,4.275,0,0,0-1.507.42A1.638,1.638,0,0,0,148.712-2.922Zm4.471-3.732a1,1,0,0,0,.851-.533,1.622,1.622,0,0,0,.123-.708,1.5,1.5,0,0,0-.672-1.369,3.6,3.6,0,0,0-1.923-.426,2.443,2.443,0,0,0-2.051.779,2.564,2.564,0,0,0-.441,1.282h-1.723a3.171,3.171,0,0,1,1.318-2.825,5.41,5.41,0,0,1,2.938-.795,5.977,5.977,0,0,1,3.148.738,2.5,2.5,0,0,1,1.2,2.3v6.327a.81.81,0,0,0,.118.461.569.569,0,0,0,.5.174q.123,0,.277-.015t.328-.046V.051a5.14,5.14,0,0,1-.656.154,4.8,4.8,0,0,1-.615.031,1.518,1.518,0,0,1-1.384-.677,2.612,2.612,0,0,1-.318-1.015,4.7,4.7,0,0,1-1.62,1.282,5.011,5.011,0,0,1-2.328.543,3.461,3.461,0,0,1-2.5-.928,3.082,3.082,0,0,1-.969-2.323,2.991,2.991,0,0,1,.954-2.369,4.537,4.537,0,0,1,2.5-1.036Zm5.845-4.327h1.753v1.9a4.191,4.191,0,0,1,1.056-1.348,2.738,2.738,0,0,1,1.938-.795q.051,0,.174.01t.42.041v1.948a2.757,2.757,0,0,0-.3-.041q-.138-.01-.3-.01a2.634,2.634,0,0,0-2.143.9,3.132,3.132,0,0,0-.749,2.066V0h-1.846Zm6.46,4.184h5.147v1.9h-5.147Zm8.89,3.876a1.52,1.52,0,0,0,.584,1.261,2.167,2.167,0,0,0,1.384.461,4.209,4.209,0,0,0,1.887-.451A2.539,2.539,0,0,0,179.771-4.1V-5.588a3.158,3.158,0,0,1-.872.359,7.427,7.427,0,0,1-1.046.205l-1.118.144a4.275,4.275,0,0,0-1.507.42A1.638,1.638,0,0,0,174.378-2.922Zm4.471-3.732a1,1,0,0,0,.851-.533,1.622,1.622,0,0,0,.123-.708,1.5,1.5,0,0,0-.672-1.369,3.6,3.6,0,0,0-1.923-.426,2.443,2.443,0,0,0-2.051.779,2.564,2.564,0,0,0-.441,1.282h-1.723a3.171,3.171,0,0,1,1.318-2.825,5.41,5.41,0,0,1,2.938-.795,5.977,5.977,0,0,1,3.148.738,2.5,2.5,0,0,1,1.2,2.3v6.327a.81.81,0,0,0,.118.461.569.569,0,0,0,.5.174q.123,0,.277-.015t.328-.046V.051a5.14,5.14,0,0,1-.656.154,4.8,4.8,0,0,1-.615.031,1.518,1.518,0,0,1-1.384-.677,2.612,2.612,0,0,1-.318-1.015,4.7,4.7,0,0,1-1.62,1.282,5.011,5.011,0,0,1-2.328.543,3.461,3.461,0,0,1-2.5-.928,3.082,3.082,0,0,1-.969-2.323A2.991,2.991,0,0,1,173.4-5.25a4.537,4.537,0,0,1,2.5-1.036Zm10.428,5.414a2.633,2.633,0,0,0,2.148-1.082,5.148,5.148,0,0,0,.856-3.235,6.039,6.039,0,0,0-.379-2.256,2.618,2.618,0,0,0-2.625-1.815,2.617,2.617,0,0,0-2.625,1.917,7.6,7.6,0,0,0-.379,2.6,5.521,5.521,0,0,0,.379,2.164A2.617,2.617,0,0,0,189.277-1.241Zm-4.778-9.69h1.794v1.456a4.48,4.48,0,0,1,1.21-1.159,3.9,3.9,0,0,1,2.194-.615,4.126,4.126,0,0,1,3.168,1.43,5.861,5.861,0,0,1,1.3,4.086q0,3.589-1.876,5.127a4.24,4.24,0,0,1-2.769.974,3.758,3.758,0,0,1-2.082-.543,4.8,4.8,0,0,1-1.1-1.056V4.378H184.5Zm16.458,9.69A2.633,2.633,0,0,0,203.1-2.323a5.148,5.148,0,0,0,.856-3.235,6.039,6.039,0,0,0-.379-2.256,2.618,2.618,0,0,0-2.625-1.815,2.617,2.617,0,0,0-2.625,1.917,7.6,7.6,0,0,0-.379,2.6,5.521,5.521,0,0,0,.379,2.164A2.617,2.617,0,0,0,200.956-1.241Zm-4.778-9.69h1.794v1.456a4.48,4.48,0,0,1,1.21-1.159,3.9,3.9,0,0,1,2.194-.615,4.126,4.126,0,0,1,3.168,1.43,5.861,5.861,0,0,1,1.3,4.086q0,3.589-1.876,5.127A4.24,4.24,0,0,1,201.2.369a3.758,3.758,0,0,1-2.082-.543,4.8,4.8,0,0,1-1.1-1.056V4.378h-1.846Z"
              transform="translate(253 77)" fill="#434343"/>
        <path id="Path_2004" data-name="Path 2004"
              d="M2.451-3.445A2.684,2.684,0,0,0,2.912-2.03a2.9,2.9,0,0,0,2.42.892,3.569,3.569,0,0,0,1.8-.446,1.481,1.481,0,0,0,.779-1.379A1.179,1.179,0,0,0,7.291-4.04a7.437,7.437,0,0,0-1.579-.523L4.245-4.932a7.153,7.153,0,0,1-2.071-.779A2.329,2.329,0,0,1,.984-7.783a3.165,3.165,0,0,1,1.123-2.522,4.479,4.479,0,0,1,3.02-.964A4.192,4.192,0,0,1,8.706-9.813a3.16,3.16,0,0,1,.667,1.989H7.629a2.135,2.135,0,0,0-.441-1.138,2.812,2.812,0,0,0-2.2-.728,2.635,2.635,0,0,0-1.584.4,1.253,1.253,0,0,0-.538,1.056,1.3,1.3,0,0,0,.708,1.148,4.252,4.252,0,0,0,1.21.451l1.22.3A9.434,9.434,0,0,1,8.665-5.4,2.471,2.471,0,0,1,9.741-3.179,3.391,3.391,0,0,1,8.629-.646,4.736,4.736,0,0,1,5.24.42,4.547,4.547,0,0,1,1.769-.692,4.207,4.207,0,0,1,.677-3.445ZM11.9-10.982h1.753v1.9a4.191,4.191,0,0,1,1.056-1.348,2.738,2.738,0,0,1,1.938-.795q.051,0,.174.01t.42.041v1.948a2.757,2.757,0,0,0-.3-.041q-.138-.01-.3-.01a2.634,2.634,0,0,0-2.143.9,3.132,3.132,0,0,0-.749,2.066V0H11.9ZM23.082-11.3a4.788,4.788,0,0,1,3.02.9,4.323,4.323,0,0,1,1.4,3.107H25.707a3.313,3.313,0,0,0-.749-1.687,2.364,2.364,0,0,0-1.876-.672,2.593,2.593,0,0,0-2.522,1.723,6.843,6.843,0,0,0-.492,2.758,5.191,5.191,0,0,0,.7,2.779,2.392,2.392,0,0,0,2.194,1.128,2.4,2.4,0,0,0,1.82-.7,3.862,3.862,0,0,0,.928-1.923H27.5A4.817,4.817,0,0,1,25.963-.692,4.8,4.8,0,0,1,22.815.318,4.2,4.2,0,0,1,19.38-1.256,6.024,6.024,0,0,1,18.1-5.188a6.625,6.625,0,0,1,1.4-4.5A4.539,4.539,0,0,1,23.082-11.3Z"
              transform="translate(275 113)" fill="#434343"/>
        <rect id="Rectangle_2" data-name="Rectangle 2" width="385" height="36" transform="translate(174 228)"
              fill="#4a9bfe"/>
        <path id="Path_2003" data-name="Path 2003"
              d="M2.769-2.922a1.52,1.52,0,0,0,.584,1.261A2.167,2.167,0,0,0,4.737-1.2a4.209,4.209,0,0,0,1.887-.451A2.539,2.539,0,0,0,8.162-4.1V-5.588a3.158,3.158,0,0,1-.872.359,7.427,7.427,0,0,1-1.046.205l-1.118.144a4.275,4.275,0,0,0-1.507.42A1.638,1.638,0,0,0,2.769-2.922ZM7.239-6.655a1,1,0,0,0,.851-.533A1.622,1.622,0,0,0,8.213-7.9a1.5,1.5,0,0,0-.672-1.369A3.6,3.6,0,0,0,5.619-9.69a2.443,2.443,0,0,0-2.051.779,2.564,2.564,0,0,0-.441,1.282H1.4a3.171,3.171,0,0,1,1.318-2.825,5.41,5.41,0,0,1,2.938-.795,5.977,5.977,0,0,1,3.148.738,2.5,2.5,0,0,1,1.2,2.3v6.327a.81.81,0,0,0,.118.461.569.569,0,0,0,.5.174q.123,0,.277-.015t.328-.046V.051a5.14,5.14,0,0,1-.656.154,4.8,4.8,0,0,1-.615.031A1.518,1.518,0,0,1,8.572-.441a2.612,2.612,0,0,1-.318-1.015A4.7,4.7,0,0,1,6.634-.174,5.011,5.011,0,0,1,4.307.369a3.461,3.461,0,0,1-2.5-.928A3.082,3.082,0,0,1,.841-2.881,2.991,2.991,0,0,1,1.794-5.25,4.537,4.537,0,0,1,4.3-6.286ZM17.667-1.241a2.633,2.633,0,0,0,2.148-1.082,5.148,5.148,0,0,0,.856-3.235,6.039,6.039,0,0,0-.379-2.256,2.618,2.618,0,0,0-2.625-1.815,2.617,2.617,0,0,0-2.625,1.917,7.6,7.6,0,0,0-.379,2.6,5.521,5.521,0,0,0,.379,2.164A2.617,2.617,0,0,0,17.667-1.241Zm-4.778-9.69h1.794v1.456a4.48,4.48,0,0,1,1.21-1.159,3.9,3.9,0,0,1,2.194-.615,4.126,4.126,0,0,1,3.168,1.43,5.861,5.861,0,0,1,1.3,4.086q0,3.589-1.876,5.127a4.24,4.24,0,0,1-2.769.974,3.758,3.758,0,0,1-2.082-.543,4.8,4.8,0,0,1-1.1-1.056V4.378H12.889Zm16.458,9.69a2.633,2.633,0,0,0,2.148-1.082,5.148,5.148,0,0,0,.856-3.235,6.039,6.039,0,0,0-.379-2.256,2.618,2.618,0,0,0-2.625-1.815,2.617,2.617,0,0,0-2.625,1.917,7.6,7.6,0,0,0-.379,2.6,5.521,5.521,0,0,0,.379,2.164A2.617,2.617,0,0,0,29.347-1.241Zm-4.778-9.69h1.794v1.456a4.48,4.48,0,0,1,1.21-1.159,3.9,3.9,0,0,1,2.194-.615,4.126,4.126,0,0,1,3.168,1.43,5.861,5.861,0,0,1,1.3,4.086q0,3.589-1.876,5.127a4.24,4.24,0,0,1-2.769.974,3.758,3.758,0,0,1-2.082-.543,4.8,4.8,0,0,1-1.1-1.056V4.378H24.568Z"
              transform="translate(300 149)" fill="#434343"/>
        <path id="Path_2007" data-name="Path 2007"
              d="M5.588-11.3a4.788,4.788,0,0,1,3.02.9,4.323,4.323,0,0,1,1.4,3.107H8.213a3.313,3.313,0,0,0-.749-1.687,2.364,2.364,0,0,0-1.876-.672A2.593,2.593,0,0,0,3.066-7.926a6.843,6.843,0,0,0-.492,2.758,5.191,5.191,0,0,0,.7,2.779A2.392,2.392,0,0,0,5.465-1.261a2.4,2.4,0,0,0,1.82-.7,3.862,3.862,0,0,0,.928-1.923h1.794A4.817,4.817,0,0,1,8.47-.692,4.8,4.8,0,0,1,5.322.318,4.2,4.2,0,0,1,1.887-1.256,6.024,6.024,0,0,1,.6-5.188a6.625,6.625,0,0,1,1.4-4.5A4.539,4.539,0,0,1,5.588-11.3ZM16.211-1.189a2.545,2.545,0,0,0,2.517-1.389,6.922,6.922,0,0,0,.682-3.092,5.5,5.5,0,0,0-.492-2.5A2.769,2.769,0,0,0,16.232-9.69,2.649,2.649,0,0,0,13.771-8.4,5.989,5.989,0,0,0,13-5.281a5.209,5.209,0,0,0,.769,2.922A2.709,2.709,0,0,0,16.211-1.189Zm.072-10.11a4.973,4.973,0,0,1,3.589,1.415,5.526,5.526,0,0,1,1.466,4.163,7.143,7.143,0,0,1-1.292,4.389A4.674,4.674,0,0,1,16.037.4a4.526,4.526,0,0,1-3.6-1.533A6.055,6.055,0,0,1,11.1-5.25a6.551,6.551,0,0,1,1.4-4.409A4.715,4.715,0,0,1,16.283-11.3Zm7.25.318h1.753v1.559a4.918,4.918,0,0,1,1.651-1.384,4.4,4.4,0,0,1,1.938-.42A3.2,3.2,0,0,1,32.033-9.6a5.789,5.789,0,0,1,.451,2.553V0H30.608V-6.921a3.748,3.748,0,0,0-.3-1.62,1.8,1.8,0,0,0-1.784-1.025,3.633,3.633,0,0,0-1.077.133,2.773,2.773,0,0,0-1.333.9,2.717,2.717,0,0,0-.6,1.123,7.558,7.558,0,0,0-.138,1.656V0H23.533Zm12.141-1.671a3.291,3.291,0,0,1,.4-1.682,2.826,2.826,0,0,1,2.492-.943q.174,0,.359.01t.42.031v1.682q-.287-.021-.415-.026t-.241-.005q-.841,0-1,.436a8.616,8.616,0,0,0-.164,2.22h1.825v1.456H37.5V0H35.673V-9.475H34.146v-1.456h1.528Zm5.445-.318v-2.092h1.846v2.092Zm0,2.041h1.846V0H41.118Zm8.47-.246a4,4,0,0,1,2.256.636A5.067,5.067,0,0,1,52.91-9.5v-1.384h1.7V-.892A7.365,7.365,0,0,1,54,2.41Q52.849,4.645,49.66,4.645a5.321,5.321,0,0,1-2.984-.795,3.1,3.1,0,0,1-1.354-2.487H47.2A2.088,2.088,0,0,0,47.732,2.5a2.718,2.718,0,0,0,1.969.615,2.709,2.709,0,0,0,2.779-1.5,8.431,8.431,0,0,0,.359-3.148A3.621,3.621,0,0,1,51.505-.277a4.434,4.434,0,0,1-2.061.41,4.4,4.4,0,0,1-3.122-1.266Q44.984-2.4,44.984-5.322a6.344,6.344,0,0,1,1.348-4.307A4.169,4.169,0,0,1,49.588-11.177Zm3.322,5.64a4.578,4.578,0,0,0-.841-3.025,2.694,2.694,0,0,0-2.143-.984A2.646,2.646,0,0,0,47.26-7.721a7.157,7.157,0,0,0-.379,2.553,4.532,4.532,0,0,0,.754,2.825,2.433,2.433,0,0,0,2.025.969,2.843,2.843,0,0,0,2.8-1.794A5.788,5.788,0,0,0,52.91-5.537Zm4.922,3.3h2.143V0H57.832ZM65.071-12.93H63.226v-2.133h1.846ZM61.482,2.779a3.674,3.674,0,0,0,1.492-.22q.251-.179.251-1.123V-10.931h1.846V1.63a3.314,3.314,0,0,1-.39,1.794,2.7,2.7,0,0,1-2.451,1q-.133,0-.282-.01t-.467-.041Zm7.506-6.224A2.684,2.684,0,0,0,69.45-2.03a2.9,2.9,0,0,0,2.42.892,3.569,3.569,0,0,0,1.8-.446,1.481,1.481,0,0,0,.779-1.379,1.179,1.179,0,0,0-.625-1.077,7.437,7.437,0,0,0-1.579-.523l-1.466-.369a7.153,7.153,0,0,1-2.071-.779,2.329,2.329,0,0,1-1.189-2.071,3.165,3.165,0,0,1,1.123-2.522,4.479,4.479,0,0,1,3.02-.964,4.192,4.192,0,0,1,3.579,1.456,3.16,3.16,0,0,1,.667,1.989H74.167a2.135,2.135,0,0,0-.441-1.138,2.812,2.812,0,0,0-2.2-.728,2.635,2.635,0,0,0-1.584.4A1.253,1.253,0,0,0,69.4-8.234a1.3,1.3,0,0,0,.708,1.148,4.252,4.252,0,0,0,1.21.451l1.22.3A9.434,9.434,0,0,1,75.2-5.4a2.471,2.471,0,0,1,1.077,2.225A3.391,3.391,0,0,1,75.166-.646,4.736,4.736,0,0,1,71.777.42,4.547,4.547,0,0,1,68.306-.692a4.207,4.207,0,0,1-1.092-2.753ZM82.749-1.189a2.545,2.545,0,0,0,2.517-1.389,6.922,6.922,0,0,0,.682-3.092,5.5,5.5,0,0,0-.492-2.5A2.769,2.769,0,0,0,82.77-9.69,2.649,2.649,0,0,0,80.309-8.4a5.989,5.989,0,0,0-.769,3.117,5.209,5.209,0,0,0,.769,2.922A2.709,2.709,0,0,0,82.749-1.189Zm.072-10.11A4.973,4.973,0,0,1,86.41-9.885a5.526,5.526,0,0,1,1.466,4.163,7.143,7.143,0,0,1-1.292,4.389A4.674,4.674,0,0,1,82.575.4a4.526,4.526,0,0,1-3.6-1.533A6.055,6.055,0,0,1,77.643-5.25a6.551,6.551,0,0,1,1.4-4.409A4.715,4.715,0,0,1,82.821-11.3Zm7.25.318h1.753v1.559a4.918,4.918,0,0,1,1.651-1.384,4.4,4.4,0,0,1,1.938-.42A3.2,3.2,0,0,1,98.571-9.6a5.789,5.789,0,0,1,.451,2.553V0H97.146V-6.921a3.748,3.748,0,0,0-.3-1.62,1.8,1.8,0,0,0-1.784-1.025,3.633,3.633,0,0,0-1.077.133,2.773,2.773,0,0,0-1.333.9,2.717,2.717,0,0,0-.6,1.123,7.558,7.558,0,0,0-.138,1.656V0H90.07Z"
              transform="translate(300 253)" fill="#fff"/>
        <path id="Path_2008" data-name="Path 2008"
              d="M1.354-10.931H3.23V0H1.354Zm0-4.132H3.23v2.092H1.354Zm4.666,4.081H7.772v1.559a4.918,4.918,0,0,1,1.651-1.384,4.4,4.4,0,0,1,1.938-.42A3.2,3.2,0,0,1,14.52-9.6a5.789,5.789,0,0,1,.451,2.553V0H13.094V-6.921a3.748,3.748,0,0,0-.3-1.62,1.8,1.8,0,0,0-1.784-1.025,3.633,3.633,0,0,0-1.077.133,2.773,2.773,0,0,0-1.333.9A2.717,2.717,0,0,0,8-7.408a7.558,7.558,0,0,0-.138,1.656V0H6.019ZM18.867-5.363a5.444,5.444,0,0,0,.749,2.953,2.623,2.623,0,0,0,2.4,1.189,2.527,2.527,0,0,0,2.107-1.1,5.206,5.206,0,0,0,.825-3.163A4.678,4.678,0,0,0,24.1-8.567a2.655,2.655,0,0,0-2.1-1A2.775,2.775,0,0,0,19.734-8.5,4.884,4.884,0,0,0,18.867-5.363Zm2.779-5.814a3.907,3.907,0,0,1,2.112.533,4.962,4.962,0,0,1,1.118,1.077v-5.547H26.65V0H24.989V-1.528A3.993,3.993,0,0,1,23.461-.062a4.373,4.373,0,0,1-2.02.451,4.091,4.091,0,0,1-3.179-1.543A6.033,6.033,0,0,1,16.919-5.26a7.089,7.089,0,0,1,1.225-4.158A4.012,4.012,0,0,1,21.646-11.177Zm12.3-.051a5.009,5.009,0,0,1,2.266.549,4.179,4.179,0,0,1,1.671,1.42,4.9,4.9,0,0,1,.738,1.938,12.68,12.68,0,0,1,.164,2.42H30.741a4.7,4.7,0,0,0,.79,2.681,2.644,2.644,0,0,0,2.287,1.01,2.956,2.956,0,0,0,2.307-.954,3.215,3.215,0,0,0,.7-1.282h1.815A3.822,3.822,0,0,1,38.16-2.1a4.8,4.8,0,0,1-.907,1.215A4.3,4.3,0,0,1,35.171.226,6.323,6.323,0,0,1,33.664.39,4.625,4.625,0,0,1,30.188-1.1a5.805,5.805,0,0,1-1.425-4.178,6.312,6.312,0,0,1,1.436-4.3A4.736,4.736,0,0,1,33.951-11.228Zm2.943,4.86a4.782,4.782,0,0,0-.523-1.917,2.68,2.68,0,0,0-2.533-1.333,2.807,2.807,0,0,0-2.133.918,3.467,3.467,0,0,0-.913,2.333Zm3.117-4.614H42.4l2.522,3.866,2.553-3.866,2.246.051-3.7,5.3L49.885,0H47.527L44.8-4.122,42.154,0H39.816l3.866-5.629ZM52-2.235h2.143V0H52Zm5.394-12.879h1.846V-9.5a5.329,5.329,0,0,1,1.179-1.169,3.978,3.978,0,0,1,2.225-.584,3.291,3.291,0,0,1,3.24,1.671,5.7,5.7,0,0,1,.461,2.533V0h-1.9V-6.921A3.871,3.871,0,0,0,64.138-8.7a1.966,1.966,0,0,0-1.887-.9,3.143,3.143,0,0,0-2.082.79,3.8,3.8,0,0,0-.933,2.984V0H57.391Zm12.048,1.066h1.866v3.066h1.753v1.507H71.306v7.167a.776.776,0,0,0,.39.769,1.656,1.656,0,0,0,.718.113q.133,0,.287-.005t.359-.026V0A4.12,4.12,0,0,1,72.4.133a6.288,6.288,0,0,1-.743.041A2,2,0,0,1,69.9-.487,2.939,2.939,0,0,1,69.439-2.2v-7.27H67.953v-1.507h1.487ZM74.9-10.982H76.73v1.559A6.135,6.135,0,0,1,77.919-10.6a3.577,3.577,0,0,1,2.071-.625,3.26,3.26,0,0,1,2.112.646,3.377,3.377,0,0,1,.82,1.087A3.989,3.989,0,0,1,84.369-10.8a4.033,4.033,0,0,1,1.866-.426,3.052,3.052,0,0,1,3.015,1.6,5.229,5.229,0,0,1,.431,2.317V0H87.763V-7.629a1.777,1.777,0,0,0-.549-1.507,2.171,2.171,0,0,0-1.338-.41,2.656,2.656,0,0,0-1.871.728,3.2,3.2,0,0,0-.784,2.43V0H81.344V-7.167a3.724,3.724,0,0,0-.267-1.63,1.626,1.626,0,0,0-1.569-.769,2.707,2.707,0,0,0-1.9.81,3.97,3.97,0,0,0-.856,2.933V0H74.9Zm17.544-4.081h1.846V0H92.449Z"
              transform="translate(300 289)" fill="#434343"/>
        <g id="folder" transform="translate(273.506 79.087)">
            <path id="Path_1986" data-name="Path 1986"
                  d="M20.477,71H1.154A1.154,1.154,0,0,1,0,69.844v-14.3a1.154,1.154,0,0,1,1.154-1.154H6.609a1.154,1.154,0,0,1,1.006.588l.636,1.131a1.154,1.154,0,0,0,1.006.588H20.477a1.154,1.154,0,0,1,1.154,1.154V69.844A1.154,1.154,0,0,1,20.477,71Z"
                  transform="translate(0)" fill="#fcd462"/>
            <path id="Path_1987" data-name="Path 1987"
                  d="M1.154,118.642H20.477a1.154,1.154,0,0,0,1.154-1.154V105.5a1.154,1.154,0,0,0-1.154-1.154H12.138a1.154,1.154,0,0,0-1.006.588l-.636,1.131a1.154,1.154,0,0,1-1.006.588H1.154A1.154,1.154,0,0,0,0,107.8v9.684A1.154,1.154,0,0,0,1.154,118.642Z"
                  transform="translate(0 -47.645)" fill="#f6c358"/>
            <path id="Path_1988" data-name="Path 1988"
                  d="M23.092,106.59a1.145,1.145,0,0,1,.1.473v11.991a1.154,1.154,0,0,1-1.154,1.154H2.719a1.145,1.145,0,0,1-.473-.1,1.152,1.152,0,0,0,1.05.681H22.619a1.154,1.154,0,0,0,1.154-1.154V107.64A1.152,1.152,0,0,0,23.092,106.59Z"
                  transform="translate(-2.142 -49.787)" fill="#fcd462"/>
        </g>
        <path id="play"
              d="M7.748,3.951,1.322.152A.871.871,0,0,0,0,.906V8.5a.876.876,0,0,0,1.322.754l6.427-3.8a.875.875,0,0,0,0-1.508Z"
              transform="translate(258.501 137.112)" fill="rgba(0,0,0,0.6)"/>
        <path id="file-alt"
              d="M9.234,5.606V0H.989A.987.987,0,0,0,0,.989V20.116a.987.987,0,0,0,.989.989H14.84a.987.987,0,0,0,.989-.989V6.6H10.223A.992.992,0,0,1,9.234,5.606Zm2.638,9.728a.5.5,0,0,1-.495.495H4.452a.5.5,0,0,1-.495-.495V15a.5.5,0,0,1,.495-.495h6.925a.5.5,0,0,1,.495.495Zm0-2.638a.5.5,0,0,1-.495.495H4.452a.5.5,0,0,1-.495-.495v-.33a.5.5,0,0,1,.495-.495h6.925a.5.5,0,0,1,.495.495Zm0-2.968v.33a.5.5,0,0,1-.495.495H4.452a.5.5,0,0,1-.495-.495v-.33a.5.5,0,0,1,.495-.495h6.925A.5.5,0,0,1,11.872,9.728Zm3.957-4.7v.251H10.553V0H10.8a.989.989,0,0,1,.7.289l4.036,4.04A.986.986,0,0,1,15.829,5.025Z"
              transform="translate(276.885 236.411)" fill="#fff"/>
        <path id="file-alt-2" data-name="file-alt"
              d="M9.234,5.606V0H.989A.987.987,0,0,0,0,.989V20.116a.987.987,0,0,0,.989.989H14.84a.987.987,0,0,0,.989-.989V6.6H10.223A.992.992,0,0,1,9.234,5.606Zm2.638,9.728a.5.5,0,0,1-.495.495H4.452a.5.5,0,0,1-.495-.495V15a.5.5,0,0,1,.495-.495h6.925a.5.5,0,0,1,.495.495Zm0-2.638a.5.5,0,0,1-.495.495H4.452a.5.5,0,0,1-.495-.495v-.33a.5.5,0,0,1,.495-.495h6.925a.5.5,0,0,1,.495.495Zm0-2.968v.33a.5.5,0,0,1-.495.495H4.452a.5.5,0,0,1-.495-.495v-.33a.5.5,0,0,1,.495-.495h6.925A.5.5,0,0,1,11.872,9.728Zm3.957-4.7v.251H10.553V0H10.8a.989.989,0,0,1,.7.289l4.036,4.04A.986.986,0,0,1,15.829,5.025Z"
              transform="translate(276.885 272.411)" fill="rgba(0,0,0,0.6)"/>
        <g id="folder-2" data-name="folder" transform="translate(247.506 43.087)">
            <path id="Path_1986-2" data-name="Path 1986"
                  d="M20.477,71H1.154A1.154,1.154,0,0,1,0,69.844v-14.3a1.154,1.154,0,0,1,1.154-1.154H6.609a1.154,1.154,0,0,1,1.006.588l.636,1.131a1.154,1.154,0,0,0,1.006.588H20.477a1.154,1.154,0,0,1,1.154,1.154V69.844A1.154,1.154,0,0,1,20.477,71Z"
                  transform="translate(0)" fill="#fcd462"/>
            <path id="Path_1987-2" data-name="Path 1987"
                  d="M1.154,118.642H20.477a1.154,1.154,0,0,0,1.154-1.154V105.5a1.154,1.154,0,0,0-1.154-1.154H12.138a1.154,1.154,0,0,0-1.006.588l-.636,1.131a1.154,1.154,0,0,1-1.006.588H1.154A1.154,1.154,0,0,0,0,107.8v9.684A1.154,1.154,0,0,0,1.154,118.642Z"
                  transform="translate(0 -47.645)" fill="#f6c358"/>
            <path id="Path_1988-2" data-name="Path 1988"
                  d="M23.092,106.59a1.145,1.145,0,0,1,.1.473v11.991a1.154,1.154,0,0,1-1.154,1.154H2.719a1.145,1.145,0,0,1-.473-.1,1.152,1.152,0,0,0,1.05.681H22.619a1.154,1.154,0,0,0,1.154-1.154V107.64A1.152,1.152,0,0,0,23.092,106.59Z"
                  transform="translate(-2.142 -49.787)" fill="#fcd462"/>
        </g>
        <path id="play-2" data-name="play"
              d="M7.748,3.951,1.322.152A.871.871,0,0,0,0,.906V8.5a.876.876,0,0,0,1.322.754l6.427-3.8a.875.875,0,0,0,0-1.508Z"
              transform="translate(241.297 101.729) rotate(90)" fill="rgba(0,0,0,0.6)"/>
        <g id="folder-3" data-name="folder" transform="translate(222.506 7.087)">
            <path id="Path_1986-3" data-name="Path 1986"
                  d="M20.477,71H1.154A1.154,1.154,0,0,1,0,69.844v-14.3a1.154,1.154,0,0,1,1.154-1.154H6.609a1.154,1.154,0,0,1,1.006.588l.636,1.131a1.154,1.154,0,0,0,1.006.588H20.477a1.154,1.154,0,0,1,1.154,1.154V69.844A1.154,1.154,0,0,1,20.477,71Z"
                  transform="translate(0)" fill="#fcd462"/>
            <path id="Path_1987-3" data-name="Path 1987"
                  d="M1.154,118.642H20.477a1.154,1.154,0,0,0,1.154-1.154V105.5a1.154,1.154,0,0,0-1.154-1.154H12.138a1.154,1.154,0,0,0-1.006.588l-.636,1.131a1.154,1.154,0,0,1-1.006.588H1.154A1.154,1.154,0,0,0,0,107.8v9.684A1.154,1.154,0,0,0,1.154,118.642Z"
                  transform="translate(0 -47.645)" fill="#f6c358"/>
            <path id="Path_1988-3" data-name="Path 1988"
                  d="M23.092,106.59a1.145,1.145,0,0,1,.1.473v11.991a1.154,1.154,0,0,1-1.154,1.154H2.719a1.145,1.145,0,0,1-.473-.1,1.152,1.152,0,0,0,1.05.681H22.619a1.154,1.154,0,0,0,1.154-1.154V107.64A1.152,1.152,0,0,0,23.092,106.59Z"
                  transform="translate(-2.142 -49.787)" fill="#fcd462"/>
        </g>
        <path id="play-3" data-name="play"
              d="M7.748,3.951,1.322.152A.871.871,0,0,0,0,.906V8.5a.876.876,0,0,0,1.322.754l6.427-3.8a.875.875,0,0,0,0-1.508Z"
              transform="translate(216.297 65.729) rotate(90)" fill="rgba(0,0,0,0.6)"/>
        <path id="Path_2009" data-name="Path 2009"
              d="M1.794-2.235H3.938V0H1.794Zm9.967-8.993a5.009,5.009,0,0,1,2.266.549A4.179,4.179,0,0,1,15.7-9.259a4.9,4.9,0,0,1,.738,1.938A12.68,12.68,0,0,1,16.6-4.9H8.552a4.7,4.7,0,0,0,.79,2.681,2.644,2.644,0,0,0,2.287,1.01,2.956,2.956,0,0,0,2.307-.954,3.215,3.215,0,0,0,.7-1.282h1.815A3.822,3.822,0,0,1,15.97-2.1a4.8,4.8,0,0,1-.907,1.215A4.3,4.3,0,0,1,12.981.226,6.323,6.323,0,0,1,11.474.39,4.625,4.625,0,0,1,8-1.1,5.805,5.805,0,0,1,6.573-5.281a6.312,6.312,0,0,1,1.436-4.3A4.736,4.736,0,0,1,11.761-11.228ZM14.7-6.368a4.782,4.782,0,0,0-.523-1.917,2.68,2.68,0,0,0-2.533-1.333A2.807,2.807,0,0,0,9.516-8.7,3.467,3.467,0,0,0,8.6-6.368Zm5.26,2.922a2.684,2.684,0,0,0,.461,1.415,2.9,2.9,0,0,0,2.42.892,3.569,3.569,0,0,0,1.8-.446,1.481,1.481,0,0,0,.779-1.379A1.179,1.179,0,0,0,24.8-4.04a7.437,7.437,0,0,0-1.579-.523l-1.466-.369a7.153,7.153,0,0,1-2.071-.779A2.329,2.329,0,0,1,18.5-7.783a3.165,3.165,0,0,1,1.123-2.522,4.479,4.479,0,0,1,3.02-.964,4.192,4.192,0,0,1,3.579,1.456,3.16,3.16,0,0,1,.667,1.989H25.143A2.135,2.135,0,0,0,24.7-8.962a2.812,2.812,0,0,0-2.2-.728,2.635,2.635,0,0,0-1.584.4,1.253,1.253,0,0,0-.538,1.056,1.3,1.3,0,0,0,.708,1.148,4.252,4.252,0,0,0,1.21.451l1.22.3a9.434,9.434,0,0,1,2.666.933,2.471,2.471,0,0,1,1.077,2.225A3.391,3.391,0,0,1,26.142-.646,4.736,4.736,0,0,1,22.753.42,4.547,4.547,0,0,1,19.282-.692,4.207,4.207,0,0,1,18.19-3.445Zm9.454-11.618h1.846V0H29.418Zm4.614,4.132h1.876V0H34.033Zm0-4.132h1.876v2.092H34.033ZM38.7-10.982h1.753v1.559A4.918,4.918,0,0,1,42.1-10.808a4.4,4.4,0,0,1,1.938-.42A3.2,3.2,0,0,1,47.2-9.6a5.789,5.789,0,0,1,.451,2.553V0H45.773V-6.921a3.748,3.748,0,0,0-.3-1.62,1.8,1.8,0,0,0-1.784-1.025,3.633,3.633,0,0,0-1.077.133,2.773,2.773,0,0,0-1.333.9,2.717,2.717,0,0,0-.6,1.123,7.558,7.558,0,0,0-.138,1.656V0H38.7Zm12.048-3.066h1.866v3.066h1.753v1.507H52.613v7.167a.776.776,0,0,0,.39.769,1.656,1.656,0,0,0,.718.113q.133,0,.287-.005t.359-.026V0A4.12,4.12,0,0,1,53.7.133a6.288,6.288,0,0,1-.743.041,2,2,0,0,1-1.753-.661A2.939,2.939,0,0,1,50.747-2.2v-7.27H49.26v-1.507h1.487Zm5.517,3.066h1.753v1.9a4.191,4.191,0,0,1,1.056-1.348,2.738,2.738,0,0,1,1.938-.795q.051,0,.174.01t.42.041v1.948a2.757,2.757,0,0,0-.3-.041q-.138-.01-.3-.01a2.634,2.634,0,0,0-2.143.9,3.132,3.132,0,0,0-.749,2.066V0H56.263ZM67.44-11.3a4.788,4.788,0,0,1,3.02.9,4.323,4.323,0,0,1,1.4,3.107H70.065a3.313,3.313,0,0,0-.749-1.687,2.364,2.364,0,0,0-1.876-.672,2.593,2.593,0,0,0-2.522,1.723,6.843,6.843,0,0,0-.492,2.758,5.191,5.191,0,0,0,.7,2.779,2.392,2.392,0,0,0,2.194,1.128,2.4,2.4,0,0,0,1.82-.7,3.862,3.862,0,0,0,.928-1.923h1.794A4.817,4.817,0,0,1,70.321-.692,4.8,4.8,0,0,1,67.173.318a4.2,4.2,0,0,1-3.435-1.574,6.024,6.024,0,0,1-1.282-3.932,6.625,6.625,0,0,1,1.4-4.5A4.539,4.539,0,0,1,67.44-11.3Zm6.706,9.064h2.143V0H74.146ZM81.385-12.93H79.54v-2.133h1.846ZM77.8,2.779a3.674,3.674,0,0,0,1.492-.22q.251-.179.251-1.123V-10.931h1.846V1.63A3.314,3.314,0,0,1,81,3.425a2.7,2.7,0,0,1-2.451,1q-.133,0-.282-.01T77.8,4.378ZM85.3-3.445a2.684,2.684,0,0,0,.461,1.415,2.9,2.9,0,0,0,2.42.892,3.569,3.569,0,0,0,1.8-.446,1.481,1.481,0,0,0,.779-1.379,1.179,1.179,0,0,0-.625-1.077,7.437,7.437,0,0,0-1.579-.523L87.1-4.932a7.153,7.153,0,0,1-2.071-.779,2.329,2.329,0,0,1-1.189-2.071,3.165,3.165,0,0,1,1.123-2.522,4.479,4.479,0,0,1,3.02-.964,4.192,4.192,0,0,1,3.579,1.456,3.16,3.16,0,0,1,.667,1.989H90.48a2.135,2.135,0,0,0-.441-1.138,2.812,2.812,0,0,0-2.2-.728,2.635,2.635,0,0,0-1.584.4,1.253,1.253,0,0,0-.538,1.056,1.3,1.3,0,0,0,.708,1.148,4.252,4.252,0,0,0,1.21.451l1.22.3a9.434,9.434,0,0,1,2.666.933,2.471,2.471,0,0,1,1.077,2.225A3.391,3.391,0,0,1,91.48-.646,4.736,4.736,0,0,1,88.091.42,4.547,4.547,0,0,1,84.62-.692a4.207,4.207,0,0,1-1.092-2.753Z"
              transform="translate(270.625 325)" fill="#434343"/>
        <path id="Path_2011" data-name="Path 2011"
              d="M1.6-15.063H3.64V-1.794h7.629V0H1.6Zm12.141,0H15.8V0H13.74Zm11.72-.41a6.173,6.173,0,0,1,4.44,1.507,5.323,5.323,0,0,1,1.753,3.425H29.665a4.14,4.14,0,0,0-1.348-2.307,4.274,4.274,0,0,0-2.835-.851,4.546,4.546,0,0,0-3.594,1.564,7.128,7.128,0,0,0-1.369,4.794,6.963,6.963,0,0,0,1.236,4.291A4.317,4.317,0,0,0,25.44-1.4a3.894,3.894,0,0,0,3.435-1.733,6.59,6.59,0,0,0,.933-2.4H31.8a6.8,6.8,0,0,1-1.764,3.989A6.276,6.276,0,0,1,25.194.39,6.388,6.388,0,0,1,20.785-1.2Q18.437-3.3,18.437-7.69A8.291,8.291,0,0,1,20.2-13.156,6.442,6.442,0,0,1,25.46-15.473Zm9.013.41H45.456v1.846H36.463v4.573h8.316V-6.9H36.463v5.106h9.146V0H34.474Zm13.812,0H50.7L58.3-2.861v-12.2h1.938V0H57.955L50.234-12.192V0H48.286Zm16.5,10.2a4.116,4.116,0,0,0,.6,2.082,4.01,4.01,0,0,0,3.579,1.5A6.334,6.334,0,0,0,71.06-1.61a2.324,2.324,0,0,0,1.825-2.276,1.965,1.965,0,0,0-.769-1.753,7.765,7.765,0,0,0-2.44-.892l-2.041-.461a9.24,9.24,0,0,1-2.83-.995,3.151,3.151,0,0,1-1.436-2.82,4.342,4.342,0,0,1,1.4-3.333,5.636,5.636,0,0,1,3.979-1.3A6.91,6.91,0,0,1,72.777-14.3a4.126,4.126,0,0,1,1.656,3.656H72.516a3.774,3.774,0,0,0-.656-1.856,3.813,3.813,0,0,0-3.168-1.179,3.665,3.665,0,0,0-2.594.759,2.375,2.375,0,0,0-.79,1.764,1.722,1.722,0,0,0,.923,1.62,13.543,13.543,0,0,0,2.738.82l2.112.482a6.472,6.472,0,0,1,2.358.954,3.571,3.571,0,0,1,1.436,3.066,3.827,3.827,0,0,1-1.82,3.579A8.151,8.151,0,0,1,68.824.441a6.325,6.325,0,0,1-4.4-1.436A4.844,4.844,0,0,1,62.867-4.86Zm12.869-10.2H88.635v1.846H79.642v4.573h8.316V-6.9H79.642v5.106h9.146V0H77.653Z"
              transform="translate(270.625 397)" fill="#434343"/>
        <path id="Path_2010" data-name="Path 2010"
              d="M1.313-15.063H3.086v8.747l4.737-4.666h2.358L5.978-6.87,10.418,0H8.06L4.635-5.537,3.086-4.122V0H1.313ZM13.269-2.922a1.52,1.52,0,0,0,.584,1.261,2.167,2.167,0,0,0,1.384.461,4.209,4.209,0,0,0,1.887-.451A2.539,2.539,0,0,0,18.662-4.1V-5.588a3.158,3.158,0,0,1-.872.359,7.427,7.427,0,0,1-1.046.205l-1.118.144a4.275,4.275,0,0,0-1.507.42A1.638,1.638,0,0,0,13.269-2.922Zm4.471-3.732a1,1,0,0,0,.851-.533,1.622,1.622,0,0,0,.123-.708,1.5,1.5,0,0,0-.672-1.369,3.6,3.6,0,0,0-1.923-.426,2.443,2.443,0,0,0-2.051.779,2.564,2.564,0,0,0-.441,1.282H11.9a3.171,3.171,0,0,1,1.318-2.825,5.41,5.41,0,0,1,2.938-.795,5.977,5.977,0,0,1,3.148.738,2.5,2.5,0,0,1,1.2,2.3v6.327a.81.81,0,0,0,.118.461.569.569,0,0,0,.5.174q.123,0,.277-.015t.328-.046V.051a5.14,5.14,0,0,1-.656.154,4.8,4.8,0,0,1-.615.031,1.518,1.518,0,0,1-1.384-.677,2.612,2.612,0,0,1-.318-1.015,4.7,4.7,0,0,1-1.62,1.282,5.011,5.011,0,0,1-2.328.543,3.461,3.461,0,0,1-2.5-.928,3.082,3.082,0,0,1-.969-2.323,2.991,2.991,0,0,1,.954-2.369,4.537,4.537,0,0,1,2.5-1.036Zm5.845-4.327h1.753v1.9a4.191,4.191,0,0,1,1.056-1.348,2.738,2.738,0,0,1,1.938-.795q.051,0,.174.01t.42.041v1.948a2.757,2.757,0,0,0-.3-.041q-.138-.01-.3-.01a2.634,2.634,0,0,0-2.143.9,3.132,3.132,0,0,0-.749,2.066V0H23.584Zm6.942,0h1.825v1.559A6.135,6.135,0,0,1,33.541-10.6a3.577,3.577,0,0,1,2.071-.625,3.26,3.26,0,0,1,2.112.646,3.377,3.377,0,0,1,.82,1.087A3.989,3.989,0,0,1,39.99-10.8a4.033,4.033,0,0,1,1.866-.426,3.052,3.052,0,0,1,3.015,1.6A5.229,5.229,0,0,1,45.3-7.311V0H43.384V-7.629a1.777,1.777,0,0,0-.549-1.507,2.171,2.171,0,0,0-1.338-.41,2.656,2.656,0,0,0-1.871.728,3.2,3.2,0,0,0-.784,2.43V0H36.965V-7.167A3.724,3.724,0,0,0,36.7-8.8a1.626,1.626,0,0,0-1.569-.769,2.707,2.707,0,0,0-1.9.81,3.97,3.97,0,0,0-.856,2.933V0H30.526Zm18.908,8.06a1.52,1.52,0,0,0,.584,1.261A2.167,2.167,0,0,0,51.4-1.2a4.209,4.209,0,0,0,1.887-.451A2.539,2.539,0,0,0,54.828-4.1V-5.588a3.158,3.158,0,0,1-.872.359,7.427,7.427,0,0,1-1.046.205l-1.118.144a4.275,4.275,0,0,0-1.507.42A1.638,1.638,0,0,0,49.434-2.922ZM53.9-6.655a1,1,0,0,0,.851-.533,1.622,1.622,0,0,0,.123-.708,1.5,1.5,0,0,0-.672-1.369,3.6,3.6,0,0,0-1.923-.426,2.443,2.443,0,0,0-2.051.779,2.564,2.564,0,0,0-.441,1.282H48.07a3.171,3.171,0,0,1,1.318-2.825,5.41,5.41,0,0,1,2.938-.795,5.977,5.977,0,0,1,3.148.738,2.5,2.5,0,0,1,1.2,2.3v6.327a.81.81,0,0,0,.118.461.569.569,0,0,0,.5.174q.123,0,.277-.015t.328-.046V.051a5.14,5.14,0,0,1-.656.154,4.8,4.8,0,0,1-.615.031,1.518,1.518,0,0,1-1.384-.677,2.612,2.612,0,0,1-.318-1.015A4.7,4.7,0,0,1,53.3-.174a5.011,5.011,0,0,1-2.328.543,3.461,3.461,0,0,1-2.5-.928,3.082,3.082,0,0,1-.969-2.323A2.991,2.991,0,0,1,48.46-5.25a4.537,4.537,0,0,1,2.5-1.036Zm6.234,4.419h2.143V0H60.139ZM69.768-11.3a4.788,4.788,0,0,1,3.02.9,4.323,4.323,0,0,1,1.4,3.107H72.393a3.313,3.313,0,0,0-.749-1.687,2.364,2.364,0,0,0-1.876-.672,2.593,2.593,0,0,0-2.522,1.723,6.843,6.843,0,0,0-.492,2.758,5.191,5.191,0,0,0,.7,2.779,2.392,2.392,0,0,0,2.194,1.128,2.4,2.4,0,0,0,1.82-.7,3.862,3.862,0,0,0,.928-1.923h1.794A4.817,4.817,0,0,1,72.649-.692,4.8,4.8,0,0,1,69.5.318a4.2,4.2,0,0,1-3.435-1.574,6.024,6.024,0,0,1-1.282-3.932,6.625,6.625,0,0,1,1.4-4.5A4.539,4.539,0,0,1,69.768-11.3ZM80.391-1.189a2.545,2.545,0,0,0,2.517-1.389A6.922,6.922,0,0,0,83.59-5.67a5.5,5.5,0,0,0-.492-2.5A2.769,2.769,0,0,0,80.411-9.69,2.649,2.649,0,0,0,77.95-8.4a5.989,5.989,0,0,0-.769,3.117,5.209,5.209,0,0,0,.769,2.922A2.709,2.709,0,0,0,80.391-1.189Zm.072-10.11a4.973,4.973,0,0,1,3.589,1.415,5.526,5.526,0,0,1,1.466,4.163,7.143,7.143,0,0,1-1.292,4.389A4.674,4.674,0,0,1,80.216.4a4.526,4.526,0,0,1-3.6-1.533A6.055,6.055,0,0,1,75.284-5.25a6.551,6.551,0,0,1,1.4-4.409A4.715,4.715,0,0,1,80.462-11.3Zm7.25.318h1.753v1.559a4.918,4.918,0,0,1,1.651-1.384,4.4,4.4,0,0,1,1.938-.42A3.2,3.2,0,0,1,96.212-9.6a5.789,5.789,0,0,1,.451,2.553V0H94.787V-6.921a3.748,3.748,0,0,0-.3-1.62,1.8,1.8,0,0,0-1.784-1.025,3.633,3.633,0,0,0-1.077.133,2.773,2.773,0,0,0-1.333.9,2.717,2.717,0,0,0-.6,1.123,7.558,7.558,0,0,0-.138,1.656V0H87.712Zm12.141-1.671a3.291,3.291,0,0,1,.4-1.682,2.826,2.826,0,0,1,2.492-.943q.174,0,.359.01t.42.031v1.682q-.287-.021-.415-.026t-.241-.005q-.841,0-1,.436a8.616,8.616,0,0,0-.164,2.22h1.825v1.456h-1.846V0H99.853V-9.475H98.325v-1.456h1.528Zm5.814,10.418h2.143V0h-2.143Zm7.239-10.695H111.06v-2.133h1.846ZM109.317,2.779a3.674,3.674,0,0,0,1.492-.22q.251-.179.251-1.123V-10.931h1.846V1.63a3.314,3.314,0,0,1-.39,1.794,2.7,2.7,0,0,1-2.451,1q-.133,0-.282-.01t-.467-.041Zm7.506-6.224a2.684,2.684,0,0,0,.461,1.415,2.9,2.9,0,0,0,2.42.892,3.569,3.569,0,0,0,1.8-.446,1.481,1.481,0,0,0,.779-1.379,1.179,1.179,0,0,0-.625-1.077,7.437,7.437,0,0,0-1.579-.523l-1.466-.369a7.153,7.153,0,0,1-2.071-.779,2.329,2.329,0,0,1-1.189-2.071,3.165,3.165,0,0,1,1.123-2.522,4.479,4.479,0,0,1,3.02-.964,4.192,4.192,0,0,1,3.579,1.456,3.16,3.16,0,0,1,.667,1.989H122a2.135,2.135,0,0,0-.441-1.138,2.812,2.812,0,0,0-2.2-.728,2.635,2.635,0,0,0-1.584.4,1.253,1.253,0,0,0-.538,1.056,1.3,1.3,0,0,0,.708,1.148,4.252,4.252,0,0,0,1.21.451l1.22.3a9.434,9.434,0,0,1,2.666.933,2.471,2.471,0,0,1,1.077,2.225A3.391,3.391,0,0,1,123-.646,4.736,4.736,0,0,1,119.612.42a4.547,4.547,0,0,1-3.471-1.113,4.207,4.207,0,0,1-1.092-2.753Z"
              transform="translate(270.625 361)" fill="#434343"/>
        <path id="file-alt-3" data-name="file-alt"
              d="M9.234,5.606V0H.989A.987.987,0,0,0,0,.989V20.116a.987.987,0,0,0,.989.989H14.84a.987.987,0,0,0,.989-.989V6.6H10.223A.992.992,0,0,1,9.234,5.606Zm2.638,9.728a.5.5,0,0,1-.495.495H4.452a.5.5,0,0,1-.495-.495V15a.5.5,0,0,1,.495-.495h6.925a.5.5,0,0,1,.495.495Zm0-2.638a.5.5,0,0,1-.495.495H4.452a.5.5,0,0,1-.495-.495v-.33a.5.5,0,0,1,.495-.495h6.925a.5.5,0,0,1,.495.495Zm0-2.968v.33a.5.5,0,0,1-.495.495H4.452a.5.5,0,0,1-.495-.495v-.33a.5.5,0,0,1,.495-.495h6.925A.5.5,0,0,1,11.872,9.728Zm3.957-4.7v.251H10.553V0H10.8a.989.989,0,0,1,.7.289l4.036,4.04A.986.986,0,0,1,15.829,5.025Z"
              transform="translate(247.51 308.411)" fill="rgba(0,0,0,0.6)"/>
        <path id="file-alt-4" data-name="file-alt"
              d="M9.234,5.606V0H.989A.987.987,0,0,0,0,.989V20.116a.987.987,0,0,0,.989.989H14.84a.987.987,0,0,0,.989-.989V6.6H10.223A.992.992,0,0,1,9.234,5.606Zm2.638,9.728a.5.5,0,0,1-.495.495H4.452a.5.5,0,0,1-.495-.495V15a.5.5,0,0,1,.495-.495h6.925a.5.5,0,0,1,.495.495Zm0-2.638a.5.5,0,0,1-.495.495H4.452a.5.5,0,0,1-.495-.495v-.33a.5.5,0,0,1,.495-.495h6.925a.5.5,0,0,1,.495.495Zm0-2.968v.33a.5.5,0,0,1-.495.495H4.452a.5.5,0,0,1-.495-.495v-.33a.5.5,0,0,1,.495-.495h6.925A.5.5,0,0,1,11.872,9.728Zm3.957-4.7v.251H10.553V0H10.8a.989.989,0,0,1,.7.289l4.036,4.04A.986.986,0,0,1,15.829,5.025Z"
              transform="translate(247.51 344.411)" fill="rgba(0,0,0,0.6)"/>
        <path id="file-alt-5" data-name="file-alt"
              d="M9.234,5.606V0H.989A.987.987,0,0,0,0,.989V20.116a.987.987,0,0,0,.989.989H14.84a.987.987,0,0,0,.989-.989V6.6H10.223A.992.992,0,0,1,9.234,5.606Zm2.638,9.728a.5.5,0,0,1-.495.495H4.452a.5.5,0,0,1-.495-.495V15a.5.5,0,0,1,.495-.495h6.925a.5.5,0,0,1,.495.495Zm0-2.638a.5.5,0,0,1-.495.495H4.452a.5.5,0,0,1-.495-.495v-.33a.5.5,0,0,1,.495-.495h6.925a.5.5,0,0,1,.495.495Zm0-2.968v.33a.5.5,0,0,1-.495.495H4.452a.5.5,0,0,1-.495-.495v-.33a.5.5,0,0,1,.495-.495h6.925A.5.5,0,0,1,11.872,9.728Zm3.957-4.7v.251H10.553V0H10.8a.989.989,0,0,1,.7.289l4.036,4.04A.986.986,0,0,1,15.829,5.025Z"
              transform="translate(247.51 380.411)" fill="rgba(0,0,0,0.6)"/>
        <rect id="Rectangle_3" data-name="Rectangle 3" width="105" height="26" rx="5" transform="translate(18 160)"
              fill="#c3c6c7"/>
        <g id="history" transform="translate(-22 -14.974)">
            <g transform="matrix(1, 0, 0, 1, 31, 18)" filter="url(#Path_1950)">
                <path id="Path_1950-2" data-name="Path 1950"
                      d="M135.567,155.973H49.1a9.1,9.1,0,0,1-9.1-9.1V33.1A9.1,9.1,0,0,1,49.1,24h68.262l27.3,27.3v95.567A9.1,9.1,0,0,1,135.567,155.973Z"
                      transform="translate(-31 -18)" fill="#e9eef2"/>
            </g>
            <g id="Group_1063" data-name="Group 1063" transform="translate(51.377 24)">
                <path id="Path_1951" data-name="Path 1951" d="M339.3,51.3H321.1a9.1,9.1,0,0,1-9.1-9.1V24Z"
                      transform="translate(-246.013 -24)" fill="#c3c6c7"/>
                <path id="Path_1952" data-name="Path 1952"
                      d="M216.885,164.551h-54.61a2.275,2.275,0,0,1,0-4.551h54.61a2.275,2.275,0,0,1,0,4.551Z"
                      transform="translate(-137.246 -121.318)" fill="#c3c6c7"/>
                <path id="Path_1953" data-name="Path 1953"
                      d="M127.783,212.551H82.275a2.275,2.275,0,1,1,0-4.551h45.508a2.275,2.275,0,1,1,0,4.551Z"
                      transform="translate(-80 -155.666)" fill="#c3c6c7"/>
                <path id="Path_1954" data-name="Path 1954"
                      d="M228.479,260.551h-18.2a2.275,2.275,0,0,1,0-4.551h18.2a2.275,2.275,0,0,1,0,4.551Z"
                      transform="translate(-171.594 -190.013)" fill="#c3c6c7"/>
                <path id="Path_1955" data-name="Path 1955"
                      d="M123.233,308.551H82.275a2.275,2.275,0,0,1,0-4.551h40.957a2.275,2.275,0,0,1,0,4.551Z"
                      transform="translate(-80 -224.361)" fill="#c3c6c7"/>
                <path id="Path_1956" data-name="Path 1956"
                      d="M95.928,164.551H82.275a2.275,2.275,0,1,1,0-4.551H95.928a2.275,2.275,0,1,1,0,4.551Z"
                      transform="translate(-80 -121.318)" fill="#c3c6c7"/>
                <path id="Path_1957" data-name="Path 1957"
                      d="M297.029,212.551H274.275a2.275,2.275,0,1,1,0-4.551h22.754a2.275,2.275,0,1,1,0,4.551Z"
                      transform="translate(-217.39 -155.666)" fill="#c3c6c7"/>
                <path id="Path_1985" data-name="Path 1985"
                      d="M297.029,212.551H274.275a2.275,2.275,0,1,1,0-4.551h22.754a2.275,2.275,0,1,1,0,4.551Z"
                      transform="translate(-250.39 -114.666)" fill="#c3c6c7"/>
                <path id="Path_1958" data-name="Path 1958"
                      d="M109.58,260.551h-27.3a2.275,2.275,0,0,1,0-4.551h27.3a2.275,2.275,0,0,1,0,4.551Z"
                      transform="translate(-80 -190.013)" fill="#c3c6c7"/>
                <path id="Path_1984" data-name="Path 1984"
                      d="M109.58,260.551h-27.3a2.275,2.275,0,0,1,0-4.551h27.3a2.275,2.275,0,0,1,0,4.551Z"
                      transform="translate(-30 -176.013)" fill="#c3c6c7"/>
                <path id="Path_1959" data-name="Path 1959"
                      d="M187.377,404.551h-9.1a2.275,2.275,0,0,1,0-4.551h9.1a2.275,2.275,0,0,1,0,4.551Z"
                      transform="translate(-148.695 -293.056)" fill="#c3c6c7"/>
                <path id="Path_1960" data-name="Path 1960"
                      d="M100.479,404.551h-18.2a2.275,2.275,0,1,1,0-4.551h18.2a2.275,2.275,0,1,1,0,4.551Z"
                      transform="translate(-80 -293.056)" fill="#c3c6c7"/>
                <path id="Path_1961" data-name="Path 1961"
                      d="M95.928,356.551H82.275a2.275,2.275,0,1,1,0-4.551H95.928a2.275,2.275,0,1,1,0,4.551Z"
                      transform="translate(-80 -258.708)" fill="#c3c6c7"/>
                <path id="Path_1962" data-name="Path 1962"
                      d="M109.58,116.551h-27.3a2.275,2.275,0,1,1,0-4.551h27.3a2.275,2.275,0,1,1,0,4.551Z"
                      transform="translate(-80 -86.971)" fill="#c3c6c7"/>
            </g>
        </g>
        <path id="Path_2001" data-name="Path 2001"
              d="M4.524-9.147a3.876,3.876,0,0,1,2.445.73A3.5,3.5,0,0,1,8.1-5.9H6.649a2.682,2.682,0,0,0-.606-1.365,1.914,1.914,0,0,0-1.519-.544A2.1,2.1,0,0,0,2.482-6.417a5.54,5.54,0,0,0-.4,2.233,4.2,4.2,0,0,0,.564,2.25,1.936,1.936,0,0,0,1.776.913A1.942,1.942,0,0,0,5.9-1.59a3.127,3.127,0,0,0,.751-1.556H8.1A3.9,3.9,0,0,1,6.856-.56,3.885,3.885,0,0,1,4.308.257,3.4,3.4,0,0,1,1.527-1.017,4.877,4.877,0,0,1,.49-4.2,5.363,5.363,0,0,1,1.627-7.844,3.675,3.675,0,0,1,4.524-9.147Zm8.6,8.185a2.061,2.061,0,0,0,2.038-1.125,5.6,5.6,0,0,0,.552-2.5,4.456,4.456,0,0,0-.4-2.025A2.241,2.241,0,0,0,13.14-7.844,2.145,2.145,0,0,0,11.148-6.8a4.848,4.848,0,0,0-.623,2.523,4.217,4.217,0,0,0,.623,2.366A2.193,2.193,0,0,0,13.124-.963Zm.058-8.185A4.026,4.026,0,0,1,16.087-8a4.473,4.473,0,0,1,1.187,3.37,5.782,5.782,0,0,1-1.046,3.553,3.783,3.783,0,0,1-3.246,1.4A3.664,3.664,0,0,1,10.069-.917,4.9,4.9,0,0,1,8.99-4.25a5.3,5.3,0,0,1,1.137-3.569A3.817,3.817,0,0,1,13.182-9.147Zm5.869.257H20.47v1.262a3.981,3.981,0,0,1,1.336-1.121,3.564,3.564,0,0,1,1.569-.34,2.587,2.587,0,0,1,2.557,1.32A4.687,4.687,0,0,1,26.3-5.7V0H24.778V-5.6a3.034,3.034,0,0,0-.241-1.312,1.459,1.459,0,0,0-1.444-.83,2.941,2.941,0,0,0-.872.108,2.245,2.245,0,0,0-1.079.73A2.2,2.2,0,0,0,20.656-6a6.118,6.118,0,0,0-.112,1.341V0H19.05Zm9.828-1.353A2.664,2.664,0,0,1,29.2-11.6a2.288,2.288,0,0,1,2.017-.764q.141,0,.291.008t.34.025v1.361q-.232-.017-.336-.021t-.2,0q-.681,0-.813.353a6.975,6.975,0,0,0-.133,1.8H31.85V-7.67H30.356V0H28.878V-7.67H27.642V-8.849h1.237Zm4.408-.257v-1.693H34.78V-10.5Zm0,1.652H34.78V0H33.286Zm6.856-.2a3.24,3.24,0,0,1,1.826.515,4.1,4.1,0,0,1,.863.847V-8.807H44.21V-.722a5.962,5.962,0,0,1-.5,2.673A3.576,3.576,0,0,1,40.2,3.76a4.307,4.307,0,0,1-2.416-.643,2.509,2.509,0,0,1-1.1-2.013h1.519a1.691,1.691,0,0,0,.432.921,2.2,2.2,0,0,0,1.594.5,2.193,2.193,0,0,0,2.25-1.212,6.825,6.825,0,0,0,.291-2.548A2.932,2.932,0,0,1,41.695-.224a3.59,3.59,0,0,1-1.668.332A3.562,3.562,0,0,1,37.5-.917a4.509,4.509,0,0,1-1.083-3.391,5.135,5.135,0,0,1,1.092-3.486A3.375,3.375,0,0,1,40.143-9.048Zm2.689,4.565a3.706,3.706,0,0,0-.681-2.449,2.181,2.181,0,0,0-1.735-.8A2.142,2.142,0,0,0,38.258-6.25a5.794,5.794,0,0,0-.307,2.067,3.669,3.669,0,0,0,.61,2.287,1.97,1.97,0,0,0,1.639.784,2.3,2.3,0,0,0,2.266-1.453A4.685,4.685,0,0,0,42.832-4.482ZM46.816-1.81h1.735V0H46.816Zm5.86-8.658H51.183v-1.727h1.494ZM49.771,2.25a2.974,2.974,0,0,0,1.208-.178q.2-.145.2-.909V-8.849h1.494V1.32a2.683,2.683,0,0,1-.315,1.453,2.182,2.182,0,0,1-1.984.813q-.108,0-.228-.008t-.378-.033Zm6.076-5.039a2.173,2.173,0,0,0,.374,1.146,2.347,2.347,0,0,0,1.959.722,2.889,2.889,0,0,0,1.461-.361A1.2,1.2,0,0,0,60.272-2.4a.955.955,0,0,0-.506-.872,6.02,6.02,0,0,0-1.278-.423l-1.187-.3a5.79,5.79,0,0,1-1.677-.631A1.886,1.886,0,0,1,54.661-6.3a2.562,2.562,0,0,1,.909-2.042,3.626,3.626,0,0,1,2.445-.78,3.394,3.394,0,0,1,2.9,1.179,2.558,2.558,0,0,1,.54,1.61H60.04a1.729,1.729,0,0,0-.357-.921A2.276,2.276,0,0,0,57.9-7.844a2.133,2.133,0,0,0-1.282.324,1.015,1.015,0,0,0-.436.855,1.052,1.052,0,0,0,.573.93,3.442,3.442,0,0,0,.979.365l.988.241a7.637,7.637,0,0,1,2.158.755,2,2,0,0,1,.872,1.8,2.745,2.745,0,0,1-.9,2.05A3.834,3.834,0,0,1,58.105.34a3.681,3.681,0,0,1-2.81-.9,3.406,3.406,0,0,1-.884-2.229ZM66.987-.963a2.061,2.061,0,0,0,2.038-1.125,5.6,5.6,0,0,0,.552-2.5,4.456,4.456,0,0,0-.4-2.025A2.241,2.241,0,0,0,67-7.844,2.145,2.145,0,0,0,65.012-6.8a4.848,4.848,0,0,0-.623,2.523,4.217,4.217,0,0,0,.623,2.366A2.193,2.193,0,0,0,66.987-.963Zm.058-8.185A4.026,4.026,0,0,1,69.951-8a4.473,4.473,0,0,1,1.187,3.37,5.782,5.782,0,0,1-1.046,3.553,3.783,3.783,0,0,1-3.246,1.4A3.664,3.664,0,0,1,63.933-.917,4.9,4.9,0,0,1,62.854-4.25a5.3,5.3,0,0,1,1.137-3.569A3.817,3.817,0,0,1,67.045-9.147Zm5.869.257h1.419v1.262A3.981,3.981,0,0,1,75.67-8.749a3.564,3.564,0,0,1,1.569-.34A2.587,2.587,0,0,1,79.8-7.77,4.687,4.687,0,0,1,80.161-5.7V0H78.642V-5.6A3.034,3.034,0,0,0,78.4-6.915a1.459,1.459,0,0,0-1.444-.83,2.941,2.941,0,0,0-.872.108,2.245,2.245,0,0,0-1.079.73A2.2,2.2,0,0,0,74.52-6a6.118,6.118,0,0,0-.112,1.341V0H72.914Z"
              transform="translate(29 179)" fill="#434343"/>
        <path id="Path_2005" data-name="Path 2005"
              d="M2.769-2.922a1.52,1.52,0,0,0,.584,1.261A2.167,2.167,0,0,0,4.737-1.2a4.209,4.209,0,0,0,1.887-.451A2.539,2.539,0,0,0,8.162-4.1V-5.588a3.158,3.158,0,0,1-.872.359,7.427,7.427,0,0,1-1.046.205l-1.118.144a4.275,4.275,0,0,0-1.507.42A1.638,1.638,0,0,0,2.769-2.922ZM7.239-6.655a1,1,0,0,0,.851-.533A1.622,1.622,0,0,0,8.213-7.9a1.5,1.5,0,0,0-.672-1.369A3.6,3.6,0,0,0,5.619-9.69a2.443,2.443,0,0,0-2.051.779,2.564,2.564,0,0,0-.441,1.282H1.4a3.171,3.171,0,0,1,1.318-2.825,5.41,5.41,0,0,1,2.938-.795,5.977,5.977,0,0,1,3.148.738,2.5,2.5,0,0,1,1.2,2.3v6.327a.81.81,0,0,0,.118.461.569.569,0,0,0,.5.174q.123,0,.277-.015t.328-.046V.051a5.14,5.14,0,0,1-.656.154,4.8,4.8,0,0,1-.615.031A1.518,1.518,0,0,1,8.572-.441a2.612,2.612,0,0,1-.318-1.015A4.7,4.7,0,0,1,6.634-.174,5.011,5.011,0,0,1,4.307.369a3.461,3.461,0,0,1-2.5-.928A3.082,3.082,0,0,1,.841-2.881,2.991,2.991,0,0,1,1.794-5.25,4.537,4.537,0,0,1,4.3-6.286ZM14.13-3.445a2.684,2.684,0,0,0,.461,1.415,2.9,2.9,0,0,0,2.42.892,3.569,3.569,0,0,0,1.8-.446A1.481,1.481,0,0,0,19.6-2.963,1.179,1.179,0,0,0,18.97-4.04a7.437,7.437,0,0,0-1.579-.523l-1.466-.369a7.153,7.153,0,0,1-2.071-.779,2.329,2.329,0,0,1-1.189-2.071,3.165,3.165,0,0,1,1.123-2.522,4.479,4.479,0,0,1,3.02-.964,4.192,4.192,0,0,1,3.579,1.456,3.16,3.16,0,0,1,.667,1.989H19.308a2.135,2.135,0,0,0-.441-1.138,2.812,2.812,0,0,0-2.2-.728,2.635,2.635,0,0,0-1.584.4,1.253,1.253,0,0,0-.538,1.056,1.3,1.3,0,0,0,.708,1.148,4.252,4.252,0,0,0,1.21.451l1.22.3a9.434,9.434,0,0,1,2.666.933A2.471,2.471,0,0,1,21.42-3.179,3.391,3.391,0,0,1,20.308-.646,4.736,4.736,0,0,1,16.919.42,4.547,4.547,0,0,1,13.448-.692a4.207,4.207,0,0,1-1.092-2.753Zm10.5,0a2.684,2.684,0,0,0,.461,1.415,2.9,2.9,0,0,0,2.42.892,3.569,3.569,0,0,0,1.8-.446A1.481,1.481,0,0,0,30.1-2.963,1.179,1.179,0,0,0,29.47-4.04a7.437,7.437,0,0,0-1.579-.523l-1.466-.369a7.153,7.153,0,0,1-2.071-.779,2.329,2.329,0,0,1-1.189-2.071,3.165,3.165,0,0,1,1.123-2.522,4.479,4.479,0,0,1,3.02-.964,4.192,4.192,0,0,1,3.579,1.456,3.16,3.16,0,0,1,.667,1.989H29.808a2.135,2.135,0,0,0-.441-1.138,2.812,2.812,0,0,0-2.2-.728,2.635,2.635,0,0,0-1.584.4,1.253,1.253,0,0,0-.538,1.056,1.3,1.3,0,0,0,.708,1.148,4.252,4.252,0,0,0,1.21.451l1.22.3a9.434,9.434,0,0,1,2.666.933A2.471,2.471,0,0,1,31.92-3.179,3.391,3.391,0,0,1,30.808-.646,4.736,4.736,0,0,1,27.419.42,4.547,4.547,0,0,1,23.948-.692a4.207,4.207,0,0,1-1.092-2.753Zm13.976-7.783a5.009,5.009,0,0,1,2.266.549,4.179,4.179,0,0,1,1.671,1.42,4.9,4.9,0,0,1,.738,1.938,12.68,12.68,0,0,1,.164,2.42H35.4a4.7,4.7,0,0,0,.79,2.681,2.644,2.644,0,0,0,2.287,1.01,2.956,2.956,0,0,0,2.307-.954,3.215,3.215,0,0,0,.7-1.282h1.815A3.822,3.822,0,0,1,42.815-2.1a4.8,4.8,0,0,1-.907,1.215A4.3,4.3,0,0,1,39.826.226,6.323,6.323,0,0,1,38.319.39,4.625,4.625,0,0,1,34.843-1.1a5.805,5.805,0,0,1-1.425-4.178,6.312,6.312,0,0,1,1.436-4.3A4.736,4.736,0,0,1,38.606-11.228Zm2.943,4.86a4.782,4.782,0,0,0-.523-1.917,2.68,2.68,0,0,0-2.533-1.333A2.807,2.807,0,0,0,36.36-8.7a3.467,3.467,0,0,0-.913,2.333Zm4.532-7.68h1.866v3.066H49.7v1.507H47.947v7.167a.776.776,0,0,0,.39.769,1.656,1.656,0,0,0,.718.113q.133,0,.287-.005t.359-.026V0a4.12,4.12,0,0,1-.661.133A6.288,6.288,0,0,1,48.3.174a2,2,0,0,1-1.753-.661A2.939,2.939,0,0,1,46.081-2.2v-7.27H44.594v-1.507h1.487Zm6.563,10.6A2.684,2.684,0,0,0,53.1-2.03a2.9,2.9,0,0,0,2.42.892,3.569,3.569,0,0,0,1.8-.446,1.481,1.481,0,0,0,.779-1.379,1.179,1.179,0,0,0-.625-1.077A7.437,7.437,0,0,0,55.9-4.563l-1.466-.369a7.153,7.153,0,0,1-2.071-.779,2.329,2.329,0,0,1-1.189-2.071A3.165,3.165,0,0,1,52.3-10.305a4.479,4.479,0,0,1,3.02-.964A4.192,4.192,0,0,1,58.9-9.813a3.16,3.16,0,0,1,.667,1.989H57.822a2.135,2.135,0,0,0-.441-1.138,2.812,2.812,0,0,0-2.2-.728,2.635,2.635,0,0,0-1.584.4,1.253,1.253,0,0,0-.538,1.056,1.3,1.3,0,0,0,.708,1.148,4.252,4.252,0,0,0,1.21.451l1.22.3a9.434,9.434,0,0,1,2.666.933,2.471,2.471,0,0,1,1.077,2.225A3.391,3.391,0,0,1,58.822-.646,4.736,4.736,0,0,1,55.433.42,4.547,4.547,0,0,1,51.962-.692,4.207,4.207,0,0,1,50.87-3.445Z"
              transform="translate(300 183)" fill="#434343"/>
        <g id="folder-4" data-name="folder" transform="translate(273.506 113.087)">
            <path id="Path_1986-4" data-name="Path 1986"
                  d="M20.477,71H1.154A1.154,1.154,0,0,1,0,69.844v-14.3a1.154,1.154,0,0,1,1.154-1.154H6.609a1.154,1.154,0,0,1,1.006.588l.636,1.131a1.154,1.154,0,0,0,1.006.588H20.477a1.154,1.154,0,0,1,1.154,1.154V69.844A1.154,1.154,0,0,1,20.477,71Z"
                  transform="translate(0)" fill="#fcd462"/>
            <path id="Path_1987-4" data-name="Path 1987"
                  d="M1.154,118.642H20.477a1.154,1.154,0,0,0,1.154-1.154V105.5a1.154,1.154,0,0,0-1.154-1.154H12.138a1.154,1.154,0,0,0-1.006.588l-.636,1.131a1.154,1.154,0,0,1-1.006.588H1.154A1.154,1.154,0,0,0,0,107.8v9.684A1.154,1.154,0,0,0,1.154,118.642Z"
                  transform="translate(0 -47.645)" fill="#f6c358"/>
            <path id="Path_1988-4" data-name="Path 1988"
                  d="M23.092,106.59a1.145,1.145,0,0,1,.1.473v11.991a1.154,1.154,0,0,1-1.154,1.154H2.719a1.145,1.145,0,0,1-.473-.1,1.152,1.152,0,0,0,1.05.681H22.619a1.154,1.154,0,0,0,1.154-1.154V107.64A1.152,1.152,0,0,0,23.092,106.59Z"
                  transform="translate(-2.142 -49.787)" fill="#fcd462"/>
        </g>
        <path id="play-4" data-name="play"
              d="M7.748,3.951,1.322.152A.871.871,0,0,0,0,.906V8.5a.876.876,0,0,0,1.322.754l6.427-3.8a.875.875,0,0,0,0-1.508Z"
              transform="translate(258.501 171.112)" fill="rgba(0,0,0,0.6)"/>
        <path id="Path_2006" data-name="Path 2006"
              d="M5.927-11.228a5.009,5.009,0,0,1,2.266.549,4.179,4.179,0,0,1,1.671,1.42A4.9,4.9,0,0,1,10.6-7.321a12.68,12.68,0,0,1,.164,2.42H2.717a4.7,4.7,0,0,0,.79,2.681A2.644,2.644,0,0,0,5.793-1.21,2.956,2.956,0,0,0,8.1-2.164a3.215,3.215,0,0,0,.7-1.282h1.815A3.822,3.822,0,0,1,10.136-2.1,4.8,4.8,0,0,1,9.229-.882,4.3,4.3,0,0,1,7.147.226,6.323,6.323,0,0,1,5.64.39,4.625,4.625,0,0,1,2.164-1.1,5.805,5.805,0,0,1,.738-5.281a6.312,6.312,0,0,1,1.436-4.3A4.736,4.736,0,0,1,5.927-11.228ZM8.87-6.368a4.782,4.782,0,0,0-.523-1.917A2.68,2.68,0,0,0,5.814-9.618,2.807,2.807,0,0,0,3.681-8.7a3.467,3.467,0,0,0-.913,2.333Zm4.163-4.614h1.753v1.559a4.918,4.918,0,0,1,1.651-1.384,4.4,4.4,0,0,1,1.938-.42A3.2,3.2,0,0,1,21.533-9.6a5.789,5.789,0,0,1,.451,2.553V0H20.108V-6.921a3.748,3.748,0,0,0-.3-1.62,1.8,1.8,0,0,0-1.784-1.025,3.633,3.633,0,0,0-1.077.133,2.773,2.773,0,0,0-1.333.9,2.717,2.717,0,0,0-.6,1.123,7.558,7.558,0,0,0-.138,1.656V0H13.033Zm12.582,0,2.933,8.941,3.066-8.941h2.02L29.49,0H27.521l-4.05-10.982Zm9.6.051h1.876V0H35.212Zm0-4.132h1.876v2.092H35.212Zm4.717,4.081h1.753v1.9a4.191,4.191,0,0,1,1.056-1.348,2.738,2.738,0,0,1,1.938-.795q.051,0,.174.01t.42.041v1.948a2.757,2.757,0,0,0-.3-.041q-.138-.01-.3-.01a2.634,2.634,0,0,0-2.143.9,3.132,3.132,0,0,0-.749,2.066V0H39.929Zm11.3,9.792a2.545,2.545,0,0,0,2.517-1.389,6.922,6.922,0,0,0,.682-3.092,5.5,5.5,0,0,0-.492-2.5A2.769,2.769,0,0,0,51.249-9.69,2.649,2.649,0,0,0,48.788-8.4a5.989,5.989,0,0,0-.769,3.117,5.209,5.209,0,0,0,.769,2.922A2.709,2.709,0,0,0,51.229-1.189ZM51.3-11.3a4.973,4.973,0,0,1,3.589,1.415,5.526,5.526,0,0,1,1.466,4.163,7.143,7.143,0,0,1-1.292,4.389A4.674,4.674,0,0,1,51.054.4a4.526,4.526,0,0,1-3.6-1.533A6.055,6.055,0,0,1,46.122-5.25a6.551,6.551,0,0,1,1.4-4.409A4.715,4.715,0,0,1,51.3-11.3Zm7.25.318H60.3v1.559a4.918,4.918,0,0,1,1.651-1.384,4.4,4.4,0,0,1,1.938-.42A3.2,3.2,0,0,1,67.05-9.6,5.789,5.789,0,0,1,67.5-7.044V0H65.625V-6.921a3.748,3.748,0,0,0-.3-1.62,1.8,1.8,0,0,0-1.784-1.025,3.633,3.633,0,0,0-1.077.133,2.773,2.773,0,0,0-1.333.9,2.717,2.717,0,0,0-.6,1.123A7.558,7.558,0,0,0,60.4-5.752V0H58.55Zm11.679,0h1.825v1.559A6.135,6.135,0,0,1,73.244-10.6a3.577,3.577,0,0,1,2.071-.625,3.26,3.26,0,0,1,2.112.646,3.377,3.377,0,0,1,.82,1.087A3.989,3.989,0,0,1,79.693-10.8a4.033,4.033,0,0,1,1.866-.426,3.052,3.052,0,0,1,3.015,1.6A5.229,5.229,0,0,1,85-7.311V0H83.087V-7.629a1.777,1.777,0,0,0-.549-1.507,2.171,2.171,0,0,0-1.338-.41,2.656,2.656,0,0,0-1.871.728,3.2,3.2,0,0,0-.784,2.43V0H76.668V-7.167A3.724,3.724,0,0,0,76.4-8.8a1.626,1.626,0,0,0-1.569-.769,2.707,2.707,0,0,0-1.9.81,3.97,3.97,0,0,0-.856,2.933V0H70.229ZM92.3-11.228a5.009,5.009,0,0,1,2.266.549,4.179,4.179,0,0,1,1.671,1.42,4.9,4.9,0,0,1,.738,1.938,12.68,12.68,0,0,1,.164,2.42H89.086a4.7,4.7,0,0,0,.79,2.681,2.644,2.644,0,0,0,2.287,1.01,2.956,2.956,0,0,0,2.307-.954,3.215,3.215,0,0,0,.7-1.282h1.815A3.822,3.822,0,0,1,96.5-2.1,4.8,4.8,0,0,1,95.6-.882,4.3,4.3,0,0,1,93.516.226,6.323,6.323,0,0,1,92.008.39,4.625,4.625,0,0,1,88.532-1.1a5.805,5.805,0,0,1-1.425-4.178,6.312,6.312,0,0,1,1.436-4.3A4.736,4.736,0,0,1,92.3-11.228Zm2.943,4.86a4.782,4.782,0,0,0-.523-1.917,2.68,2.68,0,0,0-2.533-1.333A2.807,2.807,0,0,0,90.05-8.7a3.467,3.467,0,0,0-.913,2.333ZM99.4-10.982h1.753v1.559a4.918,4.918,0,0,1,1.651-1.384,4.4,4.4,0,0,1,1.938-.42A3.2,3.2,0,0,1,107.9-9.6a5.789,5.789,0,0,1,.451,2.553V0h-1.876V-6.921a3.748,3.748,0,0,0-.3-1.62A1.8,1.8,0,0,0,104.4-9.567a3.633,3.633,0,0,0-1.077.133,2.773,2.773,0,0,0-1.333.9,2.717,2.717,0,0,0-.6,1.123,7.558,7.558,0,0,0-.138,1.656V0H99.4Zm12.048-3.066h1.866v3.066h1.753v1.507h-1.753v7.167a.776.776,0,0,0,.39.769,1.656,1.656,0,0,0,.718.113q.133,0,.287-.005t.359-.026V0a4.12,4.12,0,0,1-.661.133,6.288,6.288,0,0,1-.743.041,2,2,0,0,1-1.753-.661A2.939,2.939,0,0,1,111.45-2.2v-7.27h-1.487v-1.507h1.487Zm6.563,10.6a2.684,2.684,0,0,0,.461,1.415,2.9,2.9,0,0,0,2.42.892,3.569,3.569,0,0,0,1.8-.446,1.481,1.481,0,0,0,.779-1.379,1.179,1.179,0,0,0-.625-1.077,7.437,7.437,0,0,0-1.579-.523l-1.466-.369a7.153,7.153,0,0,1-2.071-.779,2.329,2.329,0,0,1-1.189-2.071,3.165,3.165,0,0,1,1.123-2.522,4.479,4.479,0,0,1,3.02-.964,4.192,4.192,0,0,1,3.579,1.456,3.16,3.16,0,0,1,.667,1.989H123.19a2.135,2.135,0,0,0-.441-1.138,2.812,2.812,0,0,0-2.2-.728,2.635,2.635,0,0,0-1.584.4,1.253,1.253,0,0,0-.538,1.056,1.3,1.3,0,0,0,.708,1.148,4.252,4.252,0,0,0,1.21.451l1.22.3a9.434,9.434,0,0,1,2.666.933A2.471,2.471,0,0,1,125.3-3.179,3.391,3.391,0,0,1,124.19-.646,4.736,4.736,0,0,1,120.8.42,4.547,4.547,0,0,1,117.33-.692a4.207,4.207,0,0,1-1.092-2.753Z"
              transform="translate(300 214)" fill="#434343"/>
        <g id="folder-5" data-name="folder" transform="translate(273.506 144.087)">
            <path id="Path_1986-5" data-name="Path 1986"
                  d="M20.477,71H1.154A1.154,1.154,0,0,1,0,69.844v-14.3a1.154,1.154,0,0,1,1.154-1.154H6.609a1.154,1.154,0,0,1,1.006.588l.636,1.131a1.154,1.154,0,0,0,1.006.588H20.477a1.154,1.154,0,0,1,1.154,1.154V69.844A1.154,1.154,0,0,1,20.477,71Z"
                  transform="translate(0)" fill="#fcd462"/>
            <path id="Path_1987-5" data-name="Path 1987"
                  d="M1.154,118.642H20.477a1.154,1.154,0,0,0,1.154-1.154V105.5a1.154,1.154,0,0,0-1.154-1.154H12.138a1.154,1.154,0,0,0-1.006.588l-.636,1.131a1.154,1.154,0,0,1-1.006.588H1.154A1.154,1.154,0,0,0,0,107.8v9.684A1.154,1.154,0,0,0,1.154,118.642Z"
                  transform="translate(0 -47.645)" fill="#f6c358"/>
            <path id="Path_1988-5" data-name="Path 1988"
                  d="M23.092,106.59a1.145,1.145,0,0,1,.1.473v11.991a1.154,1.154,0,0,1-1.154,1.154H2.719a1.145,1.145,0,0,1-.473-.1,1.152,1.152,0,0,0,1.05.681H22.619a1.154,1.154,0,0,0,1.154-1.154V107.64A1.152,1.152,0,0,0,23.092,106.59Z"
                  transform="translate(-2.142 -49.787)" fill="#fcd462"/>
        </g>
        <path id="play-5" data-name="play"
              d="M7.748,3.951,1.322.152A.871.871,0,0,0,0,.906V8.5a.876.876,0,0,0,1.322.754l6.427-3.8a.875.875,0,0,0,0-1.508Z"
              transform="translate(258.501 202.112)" fill="rgba(0,0,0,0.6)"/>
        <line id="Line_19" data-name="Line 19" y2="57" transform="translate(69.5 191.5)" fill="none" stroke="#707070"
              stroke-width="6" stroke-dasharray="3"/>
        <line id="Line_20" data-name="Line 20" x1="84" transform="translate(72.5 245.5)" fill="none" stroke="#707070"
              stroke-width="6" stroke-dasharray="3"/>
        <g id="Polygon_1" data-name="Polygon 1" transform="translate(172 238) rotate(90)" fill="#707070">
            <path d="M 13.12947845458984 11.5 L 0.8705216646194458 11.5 L 7 0.9923228621482849 L 13.12947845458984 11.5 Z"
                  stroke="none"/>
            <path d="M 7 1.984635353088379 L 1.741037368774414 11 L 12.25896263122559 11 L 7 1.984635353088379 M 7 0 L 14 12 L 0 12 L 7 0 Z"
                  stroke="none" fill="#707070"/>
        </g>
    </g>
</svg>
