<!--
 * Copyright (c) 2021, WSO2 Inc. (http://www.wso2.org) All Rights Reserved.
 *
 * WSO2 Inc. licenses this file to you under the Apache License,
 * Version 2.0 (the "License"); you may not use this file except
 * in compliance with the License.
 * You may obtain a copy of the License at
 *
 *     http://www.apache.org/licenses/LICENSE-2.0
 *
 * Unless required by applicable law or agreed to in writing,
 * software distributed under the License is distributed on an
 * "AS IS" BASIS, WITHOUT WARRANTIES OR CONDITIONS OF ANY
 * KIND, either express or implied. See the License for the
 * specific language governing permissions and limitations
 * under the License.
-->
<svg xmlns="http://www.w3.org/2000/svg" width="14" height="14" viewBox="0 0 14 14" class="icon">
    <path id="predefined-applications" d="M1,14a1,1,0,0,1-1-1V9.5H6.5V14ZM.6,12.8a.6.6,0,0,0,.6.6H5.9V10.1H.6ZM7.5,14V5.5H14V13a1,1,0,0,1-1,1Zm.6-.6h4.7a.6.6,0,0,0,.6-.6V6.1H8.1ZM6.5,8.5H0V1A1,1,0,0,1,1,0H6.5V8.5h0ZM.6,1.2V7.9H5.9V.6H1.2A.6.6,0,0,0,.6,1.2ZM14,4.5H7.5V0H13a1,1,0,0,1,1,1V4.5h0ZM8.1,3.9h5.3V1.2a.6.6,0,0,0-.6-.6H8.1Z" fill="#fff"/>
</svg>
