<?xml version="1.0" encoding="UTF-8" standalone="no"?>
<!--* Copyright (c) 2020, WSO2 Inc. (http://www.wso2.org) All Rights Reserved. * * WSO2 Inc. licenses this file to you under the Apache License, * Version 2.0 (the "License"); you may not use this file except * in compliance with the License. * You may obtain a copy of the License at * * http://www.apache.org/licenses/LICENSE-2.0 * * Unless required by applicable law or agreed to in writing, * software distributed under the License is distributed on an * "AS IS" BASIS, WITHOUT WARRANTIES OR CONDITIONS OF ANY * KIND, either express or implied. See the License for the * specific language governing permissions and limitations * under the License.-->
<svg height="60" viewBox="0 0 44 58" width="60" xmlns="http://www.w3.org/2000/svg">
    <g id="Page-1" fill="none" fill-rule="evenodd">
        <g id="089---Certificate" fill-rule="nonzero">
            <path id="Shape" d="m44 14v-10c0-2.209139-1.790861-4-4-4h-35l-5 23v31c0 2.209139 1.790861 4 4 4h36c2.209139 0 4-1.790861 4-4z" fill="#f0c419"/>
            <path id="Shape" d="m5 0 7.341 6.007c.910431.74520829 1.4466149 1.85344064 1.4658808 3.02981165.0192658 1.17637105-.4803406 2.30156685-1.3658808 3.07618835l-12.441 10.887z" fill="#f3d55b"/>
            <path id="Shape" d="m4 28c-.55228475 0-1-.4477153-1-1v-2c0-.5522847.44771525-1 1-1s1 .4477153 1 1v2c0 .5522847-.44771525 1-1 1z" fill="#f3d55b"/>
            <path id="Shape" d="m4 50c-.55228475 0-1-.4477153-1-1v-18c0-.5522847.44771525-1 1-1s1 .4477153 1 1v18c0 .5522847-.44771525 1-1 1z" fill="#f3d55b"/>
            <g fill="#e57e25">
                <path id="Shape" d="m20 11h-2c-.5522847 0-1-.4477153-1-1 0-.55228475.4477153-1 1-1h2c.5522847 0 1 .44771525 1 1 0 .5522847-.4477153 1-1 1z"/>
                <path id="Shape" d="m38 11h-14c-.5522847 0-1-.4477153-1-1 0-.55228475.4477153-1 1-1h14c.5522847 0 1 .44771525 1 1 0 .5522847-.4477153 1-1 1z"/>
                <path id="Shape" d="m18 17h-4c-.5522847 0-1-.4477153-1-1s.4477153-1 1-1h4c.5522847 0 1 .4477153 1 1s-.4477153 1-1 1z"/>
                <path id="Shape" d="m38 17h-16c-.5522847 0-1-.4477153-1-1s.4477153-1 1-1h16c.5522847 0 1 .4477153 1 1s-.4477153 1-1 1z"/>
            </g>
            <path id="Shape" d="m24.645 42.074c1.71 8.262-3.365 11.126-5.275 11.886-.1538192.0631939-.328991.045778-.4673563-.0464655-.1383653-.0922436-.2218153-.2472421-.2226437-.4135345v-1.89c.0000485-.2376343-.1671669-.4424731-.4-.49l-3.06-.61c-.2017956-.0427738-.3566104-.2050824-.3898045-.4086732-.0331942-.2035908.0620466-.4066693.2398045-.5113268 3.15-1.76 4.59-5.3 5.2-7.49z" fill="#c03a2b"/>
            <path id="Shape" d="m33.73 42.09v.01c.61 2.19 2.05 5.73 5.2 7.49.1777579.1046575.2729987.307736.2398045.5113268-.0331941.2035908-.1880089.3658994-.3898045.4086732l-3.06.61c-.2328331.0475269-.4000485.2523657-.4.49v1.89c-.0008284.1662924-.0842784.3212909-.2226437.4135345-.1383653.0922435-.3135371.1096594-.4673563.0464655-1.926-.766-7.069-3.672-5.231-12.091z" fill="#c03a2b"/>
            <path id="Shape" d="m27.857 23.5 1.454-.689c.957556-.4543782 2.1033086-.082842 2.612.847l.725 1.327c.2929349.5379263.8162134.9119599 1.42 1.015l1.524.26c1.0707409.1819836 1.8005474 1.1852456 1.644 2.26l-.2 1.374c-.0906864.6237225.1179478 1.2537015.563 1.7l1 1c.7781018.7805395.7781018 2.0434605 0 2.824l-1 1c-.4450522.4462985-.6536864 1.0762775-.563 1.7l.2 1.374c.1565474 1.0747544-.5732591 2.0780164-1.644 2.26l-1.524.248c-.6032106.1023736-1.1263784.4752228-1.42 1.012l-.725 1.327c-.5086914.929842-1.654444 1.3013782-2.612.847l-1.454-.686c-.5423821-.2572219-1.1716179-.2572219-1.714 0l-1.454.689c-.957556.4543782-2.1033086.082842-2.612-.847l-.725-1.327c-.2929349-.5379263-.8162134-.9119599-1.42-1.015l-1.524-.26c-1.0707409-.1819836-1.8005474-1.1852456-1.644-2.26l.2-1.374c.0906864-.6237225-.1179478-1.2537015-.563-1.7l-1-1c-.7781018-.7805395-.7781018-2.0434605 0-2.824l1-1c.4450522-.4462985.6536864-1.0762775.563-1.7l-.2-1.374c-.1565474-1.0747544.5732591-2.0780164 1.644-2.26l1.524-.248c.6032106-.1023736 1.1263784-.4752228 1.42-1.012l.725-1.327c.5086914-.929842 1.654444-1.3013782 2.612-.847l1.454.689c.5428323.256273 1.1720682.2551717 1.714-.003z" fill="#e64c3c"/>
            <circle id="Oval" cx="27" cy="34" fill="#f9eab0" r="7"/>
        </g>
    </g>
</svg>
