<?xml version="1.0" encoding="UTF-8" standalone="no"?>

<!--
 * Copyright (c) 2023, WSO2 LLC. (http://www.wso2.org).
 *
 * WSO2 LLC. licenses this file to you under the Apache License,
 * Version 2.0 (the "License"); you may not use this file except
 * in compliance with the License.
 * You may obtain a copy of the License at
 *
 *     http://www.apache.org/licenses/LICENSE-2.0
 *
 * Unless required by applicable law or agreed to in writing,
 * software distributed under the License is distributed on an
 * "AS IS" BASIS, WITHOUT WARRANTIES OR CONDITIONS OF ANY
 * KIND, either express or implied. See the License for the
 * specific language governing permissions and limitations
 * under the License.
-->

<svg id="jwt-key-icon" class="icon" xmlns="http://www.w3.org/2000/svg" width="14" height="14.01" viewBox="0 0 14 14.01">
  <path d="M4.427,13.953v-.546a.626.626,0,0,0,.359.094q.581,0,.581-.9V10.45h.581V12.7a1.407,1.407,0,0,1-.308.968,1.043,1.043,0,0,1-.82.346A1.155,1.155,0,0,1,4.427,13.953ZM.292,14A.292.292,0,0,1,0,13.708V11.375a.291.291,0,0,1,.086-.206l1.081-1.082V9.625a.292.292,0,0,1,.292-.292h.463l.413-.412V8.458a.292.292,0,0,1,.292-.292h.463L3.5,7.754V7.292A.292.292,0,0,1,3.792,7h.463l.292-.292-.377-.377a.291.291,0,0,1,.076-.467L4.766,5.6a4.664,4.664,0,1,1,4.6,3.732,4.746,4.746,0,0,1-.971-.1L8.163,9.7H7.538l-.246-.246L7.046,9.7h-.68V9.554l.719-.719a.291.291,0,0,1,.412,0l.3.3.183-.365a.293.293,0,0,1,.261-.161.265.265,0,0,1,.073.009,4.26,4.26,0,0,0,1.057.136A4.107,4.107,0,1,0,5.385,5.689a.294.294,0,0,1-.152.334L4.867,6.2l.3.3a.291.291,0,0,1,0,.412L4.581,7.5a.291.291,0,0,1-.206.086H4.083v.292A.291.291,0,0,1,4,8.081l-.583.583a.291.291,0,0,1-.206.086H2.917v.292a.291.291,0,0,1-.086.206l-.583.584a.292.292,0,0,1-.206.085H1.75v.292a.292.292,0,0,1-.085.206L.583,11.5v1.921H2.5l2.362-2.362v.825L2.831,13.915A.294.294,0,0,1,2.625,14Zm12.061-.05V10.942h-1V10.45h2.59v.492H12.933V13.95Zm-2.845,0L8.842,11.5a1.652,1.652,0,0,1-.051-.342H8.78a1.678,1.678,0,0,1-.059.337l-.67,2.453H7.381L6.4,10.45H7.04l.635,2.563a1.838,1.838,0,0,1,.049.337h.013a1.842,1.842,0,0,1,.068-.337l.717-2.563h.6l.664,2.583a2.071,2.071,0,0,1,.051.312h.01a1.875,1.875,0,0,1,.056-.322l.623-2.573h.6l-.959,3.5ZM1.835,12.164a.292.292,0,0,1,0-.412L5.918,7.669a.291.291,0,1,1,.412.412L2.247,12.164a.291.291,0,0,1-.412,0Zm7.5-8.956a1.458,1.458,0,1,1,1.458,1.458A1.46,1.46,0,0,1,9.333,3.209Zm.583,0a.875.875,0,1,0,.875-.875A.876.876,0,0,0,9.916,3.209Z"/>
</svg>

