<!--
 * Copyright (c) 2021, WSO2 Inc. (http://www.wso2.com). All Rights Reserved.
 *
 * This software is the property of WSO2 Inc. and its suppliers, if any.
 * Dissemination of any information or reproduction of any material contained
 * herein in any form is strictly forbidden, unless permitted by WSO2 expressly.
 * You may not alter or remove any copyright or other notice from copies of this content."
-->

<svg xmlns="http://www.w3.org/2000/svg" xmlns:xlink="http://www.w3.org/1999/xlink" width="362.973" height="347.436" viewBox="0 0 362.973 347.436">
    <defs>
        <filter id="Path_304" x="0" y="0" width="362.973" height="347.436" filterUnits="userSpaceOnUse">
            <feOffset dy="3" input="SourceAlpha"/>
            <feGaussianBlur stdDeviation="16" result="blur"/>
            <feFlood flood-opacity="0.161"/>
            <feComposite operator="in" in2="blur"/>
            <feComposite in="SourceGraphic"/>
        </filter>
        <linearGradient id="linear-gradient" x1="0.5" y1="-0.228" x2="0.5" y2="1.127" gradientUnits="objectBoundingBox">
            <stop offset="0" stop-color="#efefef"/>
            <stop offset="1" stop-color="#f0f0f0"/>
        </linearGradient>
        <filter id="Rectangle_10" x="68.597" y="27.337" width="226.387" height="218.499" filterUnits="userSpaceOnUse">
            <feOffset dy="3" input="SourceAlpha"/>
            <feGaussianBlur stdDeviation="8" result="blur-2"/>
            <feFlood flood-opacity="0.102"/>
            <feComposite operator="in" in2="blur-2"/>
            <feComposite in="SourceGraphic"/>
        </filter>
        <linearGradient id="linear-gradient-2" x1="1.236" y1="-0.216" x2="-0.43" y2="1" gradientUnits="objectBoundingBox">
            <stop offset="0" stop-color="#cdcdcd"/>
            <stop offset="1" stop-color="#e2e2e2"/>
        </linearGradient>
        <linearGradient id="linear-gradient-4" x1="0.351" y1="-0.311" x2="0.545" y2="1.59" gradientUnits="objectBoundingBox">
            <stop offset="0" stop-color="#eee"/>
            <stop offset="1" stop-color="#e8e8e8"/>
        </linearGradient>
    </defs>
    <g id="password-recovery-illustration" transform="translate(-852.992 -204.778)">
      <g transform="matrix(1, 0, 0, 1, 852.99, 204.78)" filter="url(#Path_304)">
         <path id="Path_304-2" data-name="Path 304" d="M133.487,0,266.973,95.261V251.436H0V95.261Z" transform="translate(48 45)" fill="#9f9f9f"/>
      </g>
      <rect id="Rectangle_9" data-name="Rectangle 9" width="233.601" height="197.196" transform="translate(917.677 226.418)" fill="url(#linear-gradient)"/>
      <g transform="matrix(1, 0, 0, 1, 852.99, 204.78)" filter="url(#Rectangle_10)">
         <rect id="Rectangle_10-2" data-name="Rectangle 10" width="178.387" height="170.499" transform="translate(92.6 48.34)" fill="#fff"/>
      </g>
      <path id="Polygon_7" data-name="Polygon 7" d="M78.272,0l78.272,133.487H0Z" transform="translate(1034.478 345.039) rotate(90)" fill="url(#linear-gradient-2)"/>
      <rect id="Rectangle_14" data-name="Rectangle 14" width="55" height="55" rx="15" transform="translate(1006.965 274)" fill="#fef5ef"/>
      <path id="Polygon_5" data-name="Polygon 5" d="M78.272,0l78.272,133.487H0Z" transform="translate(1034.478 501.582) rotate(-90)" fill="url(#linear-gradient-2)"/>
      <path id="Polygon_6" data-name="Polygon 6" d="M133.487,0,266.973,78.272H0Z" transform="translate(900.992 423.311)" fill="url(#linear-gradient-4)"/>
      <g id="Group_9" data-name="Group 9" transform="translate(95.703 -112.316)">
          <ellipse id="Ellipse_253" data-name="Ellipse 253" cx="24.5" cy="24" rx="24.5" ry="24" transform="translate(914.275 389.816)" fill="#fef5ef"/>
          <g id="padlock_3_" data-name="padlock (3)" transform="translate(931.285 402.843)">
              <path id="Subtraction_15" data-name="Subtraction 15" d="M13.125,12H1.875A1.841,1.841,0,0,1,0,10.2V1.8A1.841,1.841,0,0,1,1.875,0h11.25A1.84,1.84,0,0,1,15,1.8v8.4A1.84,1.84,0,0,1,13.125,12ZM7.5,3.2A1.635,1.635,0,0,0,5.833,4.8,1.6,1.6,0,0,0,6.875,6.285V8.2a.626.626,0,0,0,1.251,0V6.285A1.6,1.6,0,0,0,9.167,4.8,1.636,1.636,0,0,0,7.5,3.2Zm0,2a.4.4,0,1,1,.417-.4A.409.409,0,0,1,7.5,5.2Z" transform="translate(-0.01 7.973)" fill="#f37321"/>
              <path id="Path_2377" data-name="Path 2377" d="M15.373,8.748a.625.625,0,0,1-.625-.625V5a3.75,3.75,0,1,0-7.5,0V8.123a.625.625,0,1,1-1.25,0V5A5,5,0,1,1,16,5V8.123a.625.625,0,0,1-.627.625Z" transform="translate(-3.5)" fill="#f37321"/>
          </g>
      </g>
      <rect id="Rectangle_11" data-name="Rectangle 11" width="133" height="8" rx="1" transform="translate(968 340)" fill="#7f7f7f"/>
      <rect id="Rectangle_12" data-name="Rectangle 12" width="133" height="8" rx="1" transform="translate(968 356)" fill="#7f7f7f"/>
      <rect id="Rectangle_13" data-name="Rectangle 13" width="115" height="8" rx="1" transform="translate(977 372)" fill="#7f7f7f"/>
      <path id="Union_2" data-name="Union 2" d="M4.98,29.021A17,17,0,0,1,17,0a16.821,16.821,0,0,1,7.493,1.732l-.665,1.355A15.313,15.313,0,0,0,17,1.5,15.515,15.515,0,1,0,29.7,8.125V12.5H28.2v-7h7V7H30.752a16.78,16.78,0,0,1,2.174,4.029A17.005,17.005,0,0,1,4.98,29.021Z" transform="translate(1017.478 284.5)" fill="#f37321"/>
      <rect id="Rectangle_32" data-name="Rectangle 32" width="178.387" height="6" transform="translate(945.588 252.115)" fill="#f37321"/>
  </g>
</svg>
