<!--
 * Copyright (c) 2021, WSO2 Inc. (http://www.wso2.com). All Rights Reserved.
 *
 * This software is the property of WSO2 Inc. and its suppliers, if any.
 * Dissemination of any information or reproduction of any material contained
 * herein in any form is strictly forbidden, unless permitted by WSO2 expressly.
 * You may not alter or remove any copyright or other notice from copies of this content."
-->

<svg xmlns="http://www.w3.org/2000/svg" xmlns:xlink="http://www.w3.org/1999/xlink" width="249.402" height="281.747" viewBox="0 0 249.402 281.747">
    <defs>
        <filter id="Path_329" x="0" y="0" width="249.402" height="281.747" filterUnits="userSpaceOnUse">
            <feOffset dy="3" input="SourceAlpha"/>
            <feGaussianBlur stdDeviation="3" result="blur"/>
            <feFlood flood-opacity="0.051"/>
            <feComposite operator="in" in2="blur"/>
            <feComposite in="SourceGraphic"/>
        </filter>
        <linearGradient id="linear-gradient" x1="0.167" y1="0.066" x2="1.829" y2="2.006" gradientUnits="objectBoundingBox">
            <stop offset="0" stop-color="#d7d7d7"/>
            <stop offset="1" stop-color="#6c6c6c"/>
        </linearGradient>
        <filter id="Subtraction_6" x="79.172" y="44.177" width="91.051" height="73.315" filterUnits="userSpaceOnUse">
            <feOffset dy="3" input="SourceAlpha"/>
            <feGaussianBlur stdDeviation="3" result="blur-2"/>
            <feFlood flood-color="#00a79d" flood-opacity="0.102"/>
            <feComposite operator="in" in2="blur-2"/>
            <feComposite in="SourceGraphic"/>
        </filter>
        <filter id="Path_318" x="66.738" y="98.664" width="115.925" height="93.6" filterUnits="userSpaceOnUse">
            <feOffset dy="3" input="SourceAlpha"/>
            <feGaussianBlur stdDeviation="3" result="blur-3"/>
            <feFlood flood-opacity="0.161"/>
            <feComposite operator="in" in2="blur-3"/>
            <feComposite in="SourceGraphic"/>
        </filter>
        <linearGradient id="linear-gradient-3" x1="-0.059" y1="0.064" x2="0.799" y2="1.643" gradientUnits="objectBoundingBox">
            <stop offset="0" stop-color="#bdbdbd" stop-opacity="0.188"/>
            <stop offset="1" stop-color="#8a8a8a"/>
        </linearGradient>
    </defs>
    <g id="password-chaged-illustration" transform="translate(-921 -256.98)">
        <g id="Group_23" data-name="Group 23" transform="translate(930 262.98)">
            <g transform="matrix(1, 0, 0, 1, -9, -6)" filter="url(#Path_329)">
                <path id="Path_329-2" data-name="Path 329" d="M265.84,41.916,158.181,20.339a8.039,8.039,0,0,0-4.622,0L45.9,41.916a8.041,8.041,0,0,0-5.73,7.7V168.044c0,15.4,6.236,31.171,18.534,46.866,9.392,11.987,22.387,24.023,38.622,35.775a346.478,346.478,0,0,0,55.26,32.359,8.037,8.037,0,0,0,6.571,0,346.52,346.52,0,0,0,55.259-32.359c16.235-11.752,29.229-23.789,38.622-35.775,12.3-15.694,18.533-31.462,18.533-46.866V49.618A8.039,8.039,0,0,0,265.84,41.916Z" transform="translate(-31.17 -14)" fill="#f5f5f5"/>
            </g>
            <path id="Path_330" data-name="Path 330" d="M265.84,41.916,158.181,20.339a8.039,8.039,0,0,0-4.622,0L45.9,41.916a8.041,8.041,0,0,0-5.73,7.7V168.044c0,15.4,6.236,31.171,18.534,46.866,9.392,11.987,22.387,24.023,38.622,35.775a346.478,346.478,0,0,0,55.26,32.359,8.037,8.037,0,0,0,6.571,0,346.52,346.52,0,0,0,55.259-32.359c16.235-11.752,29.229-23.789,38.622-35.775,12.3-15.694,18.533-31.462,18.533-46.866V49.618A8.039,8.039,0,0,0,265.84,41.916Z" transform="translate(-40.168 -19.978)" opacity="0.35" fill="url(#linear-gradient)"/>
            <path id="Subtraction_5" data-name="Subtraction 5" d="M115.505,263.742h0a7.979,7.979,0,0,1-3.087-.7,346.784,346.784,0,0,1-55.26-32.359c-16.238-11.755-29.232-23.792-38.622-35.775C6.236,179.214,0,163.446,0,148.043V29.616a8.04,8.04,0,0,1,5.729-7.7L113.391.337A8.025,8.025,0,0,1,115.505,0Z" transform="translate(0 0.002)" opacity="0.18" fill="url(#linear-gradient)"/>
        </g>
        <g id="Group_24" data-name="Group 24" transform="translate(996.734 307.157)">
            <g id="padlock_8_" data-name="padlock (8)" transform="translate(0)">
                <g transform="matrix(1, 0, 0, 1, -75.73, -50.18)" filter="url(#Subtraction_6)">
                    <path id="Subtraction_6-2" data-name="Subtraction 6" d="M6.144,55.315H0V36.525a36.526,36.526,0,0,1,73.051,0V45.6H66.9V36.525a30.379,30.379,0,1,0-60.758,0V55.314Z" transform="translate(88.17 50.18)" fill="#00a79d"/>
                </g>
                <path id="Path_317" data-name="Path 317" d="M135.368,54.367V85.086H196.13V54.367a30.381,30.381,0,1,0-60.762,0Zm6.145,0a24.239,24.239,0,0,1,48.477,0V78.942H141.513Z" transform="translate(-116.787 -17.843)" fill="#e5e5e5" opacity="0"/>
                <g transform="matrix(1, 0, 0, 1, -75.73, -50.18)" filter="url(#Path_318)">
                    <path id="Path_318-2" data-name="Path 318" d="M71,288.416h81.54a8.193,8.193,0,0,0,8.193-8.193V221.009a8.2,8.2,0,0,0-8.193-8.193H71a8.193,8.193,0,0,0-8.193,8.193v59.214A8.191,8.191,0,0,0,71,288.416Z" transform="translate(12.93 -108.15)" fill="#fff"/>
                </g>
                <path id="Path_328" data-name="Path 328" d="M71,288.416h81.54a8.193,8.193,0,0,0,8.193-8.193V221.009a8.2,8.2,0,0,0-8.193-8.193H71a8.193,8.193,0,0,0-8.193,8.193v59.214A8.191,8.191,0,0,0,71,288.416Z" transform="translate(-62.808 -158.329)" opacity="0.14" fill="url(#linear-gradient-3)"/>
                <path id="Path_320" data-name="Path 320" d="M205.96,297.43a12.31,12.31,0,1,1,18.475,10.6l1.688,15.669h-15.71l1.688-15.669A12.253,12.253,0,0,1,205.96,297.43Z" transform="translate(-169.305 -212.121)" fill="#464646"/>
                <path id="Path_334" data-name="Path 334" d="M2483.56,2637.367l10.119,10.119,10.119-10.119" transform="translate(-2411.294 -2600.486)" fill="none" stroke="#00a79d" stroke-width="5"/>
            </g>
            <g id="Group_27" data-name="Group 27" transform="translate(-945.177 -187.303)">
                <rect id="Rectangle_14" data-name="Rectangle 14" width="55" height="55" rx="15" transform="translate(1006.965 274)" fill="#eef9f8"/>
                <path id="Union_2" data-name="Union 2" d="M17,34A17,17,0,0,1,4.979,4.979,17,17,0,1,1,29.021,29.021,16.889,16.889,0,0,1,17,34ZM17,1.5A15.5,15.5,0,1,0,32.5,17,15.517,15.517,0,0,0,17,1.5Z" transform="translate(1017.478 284.5)" fill="#00a79d"/>
                <path id="Path_310" data-name="Path 310" d="M1024.9,304.284l5.029,5.029,11.756-11.756" transform="translate(1.176 -1.935)" fill="none" stroke="#00a79d" stroke-width="2"/>
            </g>
        </g>
    </g>
</svg>
