<!--
 * Copyright (c) 2023, WSO2 LLC. (https://www.wso2.com). All Rights Reserved.
 *
 * WSO2 LLC. licenses this file to you under the Apache License,
 * Version 2.0 (the "License"); you may not use this file except
 * in compliance with the License.
 * You may obtain a copy of the License at
 *
 *     http://www.apache.org/licenses/LICENSE-2.0
 *
 * Unless required by applicable law or agreed to in writing,
 * software distributed under the License is distributed on an
 * "AS IS" BASIS, WITHOUT WARRANTIES OR CONDITIONS OF ANY
 * KIND, either express or implied. See the License for the
 * specific language governing permissions and limitations
 * under the License.
-->

<svg id="selfcare-consent" class="icon" width="87" height="87" viewBox="0 0 87 87" fill="none"
    xmlns="http://www.w3.org/2000/svg">
    <path
        class="fill-primary"
        d="M62.489 86.294H5.951C5.1695 86.294 4.39566 86.1401 3.67365 85.841C2.95164 85.5419 2.29561 85.1036 1.74301 84.551C1.19041 83.9984 0.752057 83.3424 0.452991 82.6203C0.153926 81.8983 0 81.1245 0 80.343V5.951C0 5.1695 0.153926 4.39566 0.452991 3.67365C0.752057 2.95164 1.19041 2.29561 1.74301 1.74301C2.29561 1.19041 2.95164 0.752059 3.67365 0.452993C4.39566 0.153928 5.1695 0 5.951 0H50.586L68.44 17.854V80.343C68.44 81.1245 68.2861 81.8983 67.987 82.6203C67.6879 83.3424 67.2496 83.9984 66.697 84.551C66.1444 85.1036 65.4884 85.5419 64.7663 85.841C64.0443 86.1401 63.2705 86.294 62.489 86.294Z"
        fill="#FF7300" />
    <path
        class="fill-primary lighten-1"
        d="M53.366 3.057C52.5944 2.26791 51.6221 1.70433 50.554 1.427L51.521 15.097L68.442 32.251V17.861C67.7909 17.5336 67.1899 17.1151 66.657 16.618L53.366 3.057Z"
        fill="#FF8826" />
    <path
        class="fill-primary lighten-2"
        d="M68.4399 17.854H56.5399C55.7579 17.8544 54.9835 17.7007 54.261 17.4016C53.5384 17.1025 52.8819 16.664 52.3289 16.111C51.776 15.558 51.3374 14.9015 51.0384 14.179C50.7393 13.4564 50.5855 12.682 50.5859 11.9V0L68.4399 17.854Z"
        fill="#FFA45A" />
    <path
        class="fill-accent3"
        fill-rule="evenodd" clip-rule="evenodd"
        d="M23.804 19.342H41.658C42.0526 19.342 42.4311 19.1852 42.7102 18.9062C42.9892 18.6271 43.146 18.2486 43.146 17.854C43.146 17.4594 42.9892 17.0809 42.7102 16.8018C42.4311 16.5228 42.0526 16.366 41.658 16.366H23.804C23.4093 16.366 23.0309 16.5228 22.7518 16.8018C22.4727 17.0809 22.316 17.4594 22.316 17.854C22.316 18.2486 22.4727 18.6271 22.7518 18.9062C23.0309 19.1852 23.4093 19.342 23.804 19.342ZM59.517 28.269H23.805C23.4103 28.269 23.0318 28.1122 22.7528 27.8332C22.4737 27.5541 22.317 27.1756 22.317 26.781C22.317 26.3864 22.4737 26.0079 22.7528 25.7288C23.0318 25.4498 23.4103 25.293 23.805 25.293H59.517C59.9116 25.293 60.2901 25.4498 60.5691 25.7288C60.8482 26.0079 61.005 26.3864 61.005 26.781C61.005 27.1756 60.8482 27.5541 60.5691 27.8332C60.2901 28.1122 59.9116 28.269 59.517 28.269ZM8.92696 37.196C8.53232 37.196 8.15384 37.0392 7.87479 36.7602C7.59573 36.4811 7.43896 36.1026 7.43896 35.708C7.43896 35.3134 7.59573 34.9349 7.87479 34.6558C8.15384 34.3768 8.53232 34.22 8.92696 34.22H38.684C39.0786 34.22 39.4571 34.3768 39.7361 34.6558C40.0152 34.9349 40.172 35.3134 40.172 35.708C40.172 36.1026 40.0152 36.4811 39.7361 36.7602C39.4571 37.0392 39.0776 37.196 38.683 37.196H8.92696ZM32.734 46.123H44.634C45.0286 46.123 45.4071 45.9662 45.6861 45.6872C45.9652 45.4081 46.122 45.0297 46.122 44.635C46.122 44.2404 45.9652 43.8619 45.6861 43.5828C45.4071 43.3038 45.0286 43.147 44.634 43.147H32.734C32.3393 43.147 31.9608 43.3038 31.6818 43.5828C31.4027 43.8619 31.246 44.2404 31.246 44.635C31.246 45.0297 31.4027 45.4081 31.6818 45.6872C31.9608 45.9662 32.3393 46.123 32.734 46.123ZM35.708 55.05H8.92696C8.53232 55.05 8.15384 54.8932 7.87479 54.6142C7.59573 54.3351 7.43896 53.9567 7.43896 53.562C7.43896 53.1674 7.59573 52.7889 7.87479 52.5098C8.15384 52.2308 8.53232 52.074 8.92696 52.074H35.708C36.1026 52.074 36.4811 52.2308 36.7601 52.5098C37.0392 52.7889 37.196 53.1674 37.196 53.562C37.196 53.9567 37.0392 54.3351 36.7601 54.6142C36.4811 54.8932 36.1026 55.05 35.708 55.05ZM44.635 37.196H59.513C59.9076 37.196 60.2861 37.0392 60.5652 36.7602C60.8442 36.4811 61.001 36.1026 61.001 35.708C61.001 35.3134 60.8442 34.9349 60.5652 34.6558C60.2861 34.3768 59.9076 34.22 59.513 34.22H44.635C44.2403 34.22 43.8618 34.3768 43.5828 34.6558C43.3037 34.9349 43.147 35.3134 43.147 35.708C43.147 36.1026 43.3037 36.4811 43.5828 36.7602C43.8618 37.0392 44.2403 37.196 44.635 37.196ZM26.781 46.123H8.92696C8.53232 46.123 8.15384 45.9662 7.87479 45.6872C7.59573 45.4081 7.43896 45.0297 7.43896 44.635C7.43896 44.2404 7.59573 43.8619 7.87479 43.5828C8.15384 43.3038 8.53232 43.147 8.92696 43.147H26.781C27.1756 43.147 27.5541 43.3038 27.8331 43.5828C28.1122 43.8619 28.269 44.2404 28.269 44.635C28.269 45.0297 28.1122 45.4081 27.8331 45.6872C27.5541 45.9662 27.1756 46.123 26.781 46.123ZM41.365 54.97H59.219C59.6136 54.97 59.9921 54.8132 60.2711 54.5342C60.5502 54.2551 60.707 53.8767 60.707 53.482C60.707 53.0874 60.5502 52.7089 60.2711 52.4298C59.9921 52.1508 59.6136 51.994 59.219 51.994H41.365C40.9703 51.994 40.5918 52.1508 40.3128 52.4298C40.0337 52.7089 39.877 53.0874 39.877 53.482C39.877 53.8767 40.0337 54.2551 40.3128 54.5342C40.5918 54.8132 40.9703 54.97 41.365 54.97ZM32.732 72.904H26.781C26.3863 72.904 26.0078 72.7472 25.7288 72.4682C25.4497 72.1891 25.293 71.8107 25.293 71.416C25.293 71.0214 25.4497 70.6429 25.7288 70.3638C26.0078 70.0848 26.3863 69.928 26.781 69.928H32.732C33.1266 69.928 33.5051 70.0848 33.7841 70.3638C34.0632 70.6429 34.22 71.0214 34.22 71.416C34.22 71.8107 34.0632 72.1891 33.7841 72.4682C33.5051 72.7472 33.1266 72.904 32.732 72.904ZM8.92898 72.904H20.829C21.2236 72.904 21.6021 72.7472 21.8812 72.4682C22.1602 72.1891 22.317 71.8107 22.317 71.416C22.317 71.0214 22.1602 70.6429 21.8812 70.3638C21.6021 70.0848 21.2236 69.928 20.829 69.928H8.92898C8.53434 69.928 8.15586 70.0848 7.87681 70.3638C7.59775 70.6429 7.44098 71.0214 7.44098 71.416C7.44098 71.8107 7.59775 72.1891 7.87681 72.4682C8.15586 72.7472 8.53434 72.904 8.92898 72.904ZM17.854 63.977H8.92696C8.53232 63.977 8.15384 63.8202 7.87479 63.5412C7.59573 63.2621 7.43896 62.8836 7.43896 62.489C7.43896 62.0944 7.59573 61.7159 7.87479 61.4368C8.15384 61.1578 8.53232 61.001 8.92696 61.001H17.854C18.2486 61.001 18.6271 61.1578 18.9061 61.4368C19.1852 61.7159 19.342 62.0944 19.342 62.489C19.342 62.8836 19.1852 63.2621 18.9061 63.5412C18.6271 63.8202 18.2486 63.977 17.854 63.977ZM32.7319 63.977H23.805C23.4103 63.977 23.0318 63.8202 22.7528 63.5412C22.4737 63.2621 22.317 62.8836 22.317 62.489C22.317 62.0944 22.4737 61.7159 22.7528 61.4368C23.0318 61.1578 23.4103 61.001 23.805 61.001H32.7319C33.1266 61.001 33.5051 61.1578 33.7841 61.4368C34.0632 61.7159 34.22 62.0944 34.22 62.489C34.22 62.8836 34.0632 63.2621 33.7841 63.5412C33.5051 63.8202 33.1266 63.977 32.7319 63.977ZM16.9784 26.4174C17.1726 26.9026 17.2683 27.4215 17.26 27.944H17.253C17.253 28.171 17.3432 28.3887 17.5037 28.5493C17.6643 28.7098 17.882 28.8 18.109 28.8C18.336 28.8 18.5538 28.7098 18.7143 28.5493C18.8748 28.3887 18.965 28.171 18.965 27.944C18.9659 26.7878 18.6114 25.6594 17.9496 24.7114C17.2878 23.7634 16.3506 23.0417 15.265 22.644C15.867 22.2288 16.3205 21.6319 16.5592 20.9407C16.7979 20.2494 16.8094 19.5 16.5919 18.8017C16.3745 18.1035 15.9395 17.4931 15.3505 17.0596C14.7615 16.6262 14.0493 16.3924 13.318 16.3924C12.5867 16.3924 11.8746 16.6262 11.2856 17.0596C10.6966 17.4931 10.2616 18.1035 10.0441 18.8017C9.82667 19.5 9.83814 20.2494 10.0769 20.9407C10.3156 21.6319 10.769 22.2288 11.371 22.644C10.2857 23.0422 9.34891 23.764 8.68718 24.7119C8.02545 25.6598 7.67074 26.788 7.67102 27.944C7.67102 28.171 7.76121 28.3887 7.92174 28.5493C8.08227 28.7098 8.3 28.8 8.52702 28.8C8.75405 28.8 8.97177 28.7098 9.1323 28.5493C9.29283 28.3887 9.38302 28.171 9.38302 27.944C9.37469 27.4215 9.47041 26.9026 9.66461 26.4174C9.8588 25.9323 10.1476 25.4907 10.5141 25.1182C10.8807 24.7458 11.3177 24.45 11.7996 24.2481C12.2816 24.0462 12.799 23.9422 13.3215 23.9422C13.8441 23.9422 14.3614 24.0462 14.8434 24.2481C15.3254 24.45 15.7624 24.7458 16.1289 25.1182C16.4955 25.4907 16.7842 25.9323 16.9784 26.4174ZM11.8923 20.7792C11.7039 20.4967 11.6036 20.1646 11.604 19.825C11.6053 19.3699 11.787 18.9338 12.1092 18.6124C12.4314 18.2909 12.8679 18.1103 13.323 18.11C13.6626 18.1104 13.9945 18.2115 14.2766 18.4005C14.5587 18.5895 14.7785 18.8579 14.9081 19.1718C15.0377 19.4857 15.0713 19.8309 15.0046 20.1639C14.938 20.4969 14.7741 20.8027 14.5337 21.0425C14.2933 21.2824 13.9872 21.4455 13.654 21.5114C13.3209 21.5773 12.9757 21.5428 12.6621 21.4125C12.3485 21.2822 12.0806 21.0618 11.8923 20.7792Z"
        fill="white" />
    <path
        class="fill-primary lighten-2"
        d="M82.2789 22.229V27.388C82.2789 27.9012 82.075 28.3934 81.7122 28.7563C81.3493 29.1191 80.8571 29.323 80.3439 29.323C80.0898 29.323 79.8383 29.2729 79.6035 29.1757C79.3688 29.0784 79.1556 28.9359 78.976 28.7562C78.7964 28.5765 78.654 28.3632 78.5568 28.1284C78.4597 27.8937 78.4098 27.6421 78.4099 27.388V22.229C78.4099 21.7163 78.6134 21.2246 78.9756 20.8618C79.3378 20.499 79.8292 20.2948 80.3419 20.294C80.5961 20.2939 80.8479 20.3438 81.0829 20.441C81.3178 20.5382 81.5313 20.6807 81.7112 20.8603C81.891 21.04 82.0338 21.2534 82.1312 21.4882C82.2286 21.723 82.2788 21.9748 82.2789 22.229Z"
        fill="#FFA45A" />
    <path
        class="fill-accent2"
        d="M86.7499 33.826V57.043L80.3419 59.624L73.9349 57.043V33.826L80.3419 31.245L86.7499 33.826Z"
        fill="#19BECE" />
    <path
        class="fill-secondary"
        d="M86.75 29.572V33.825H73.934V29.572C73.9355 28.4923 74.3654 27.4573 75.1292 26.6941C75.8929 25.9309 76.9282 25.5018 78.008 25.501H82.676C83.7557 25.5018 84.791 25.9309 85.5548 26.6941C86.3185 27.4573 86.7484 28.4923 86.75 29.572Z"
        fill="#E0E1E2" />
    <path
        class="fill-accent1"
        d="M86.75 57.042V70.933C86.7504 72.9132 86.355 74.8734 85.5871 76.6985C84.8191 78.5237 83.694 80.1769 82.278 81.561L80.341 83.496L78.407 81.561C76.9907 80.177 75.8654 78.5238 75.0973 76.6987C74.3291 74.8735 73.9336 72.9132 73.934 70.933V57.042H86.75Z"
        fill="#3865B5" />
    <path
        class="fill-primary lighten-1"
        d="M82.2789 81.558V84.421C82.2786 84.9341 82.0747 85.4261 81.7119 85.789C81.349 86.1518 80.857 86.3557 80.3439 86.356C79.8309 86.3557 79.339 86.1517 78.9763 85.7889C78.6136 85.426 78.4099 84.934 78.4099 84.421V81.558H82.2789Z"
        fill="#FF8826" />
</svg>
