<!--
 * Copyright (c) 2023, WSO2 LLC. (https://www.wso2.com). All Rights Reserved.
 *
 * WSO2 LLC. licenses this file to you under the Apache License,
 * Version 2.0 (the "License"); you may not use this file except
 * in compliance with the License.
 * You may obtain a copy of the License at
 *
 *     http://www.apache.org/licenses/LICENSE-2.0
 *
 * Unless required by applicable law or agreed to in writing,
 * software distributed under the License is distributed on an
 * "AS IS" BASIS, WITHOUT WARRANTIES OR CONDITIONS OF ANY
 * KIND, either express or implied. See the License for the
 * specific language governing permissions and limitations
 * under the License.
-->

<svg id="selfcare-associated-accounts" class="icon" width="97" height="97" viewBox="0 0 97 97"
    fill="none" xmlns="http://www.w3.org/2000/svg">
    <g id="linked-accounts-illustrations">
        <g id="link">
            <g id="link_2">
                <path id="part-3"
                    d="M64.5272 64.4615L73.7012 50.5616L64.5272 48.1976C63.2816 44.4674 61.183 41.0793 58.3982 38.3026C55.6306 35.5063 52.2395 33.4059 48.5032 32.1736L48.3832 32.2935L37.2062 31.8486L32.2382 32.1685C28.5019 33.4009 25.1109 35.5013 22.3432 38.2975L7.49222 53.1486C5.11923 55.5139 3.23604 58.3241 1.95042 61.4181C0.664811 64.5122 0.00202539 67.8294 4.63476e-06 71.1799C-0.00201612 74.5305 0.656768 77.8485 1.93865 80.9441C3.22053 84.0397 5.10033 86.8521 7.47046 89.2203C9.8406 91.5886 12.6545 93.4661 15.7512 94.7455C18.8478 96.0249 22.1664 96.681 25.5169 96.6763C28.8674 96.6716 32.1841 96.0061 35.2771 94.718C38.3701 93.4299 41.1788 91.5444 43.5422 89.1696L58.3932 74.3566C61.18 71.5804 63.2803 68.1922 64.5272 64.4615ZM33.5272 79.1546C31.3968 81.2531 28.5233 82.4244 25.5329 82.4132C22.5425 82.4019 19.6778 81.209 17.5633 79.0945C15.4488 76.98 14.2559 74.1153 14.2446 71.1249C14.2333 68.1345 15.4047 65.2609 17.5032 63.1306L32.2422 48.4376L40.2942 56.4095L48.3862 64.3416L33.5272 79.1546Z"
                    fill="#FF7300" class="fill-primary"></path>
                <path id="part-4"
                    d="M58.3972 74.3566L43.5462 89.1696C41.1789 91.5369 38.3684 93.4148 35.2753 94.696C32.1823 95.9772 28.8671 96.6366 25.5192 96.6366C22.1713 96.6366 18.8561 95.9772 15.763 94.696C12.67 93.4148 9.85952 91.5369 7.49219 89.1696L17.5072 79.1546C18.5591 80.2071 19.8081 81.0421 21.1828 81.6118C22.5576 82.1815 24.0311 82.4748 25.5192 82.4748C27.0073 82.4748 28.4808 82.1815 29.8555 81.6118C31.2303 81.0421 32.4793 80.2071 33.5312 79.1546L48.3822 64.3436L40.2902 56.4115L58.3972 38.3046C61.182 41.0813 63.2806 44.4694 64.5262 48.1996L73.7002 50.5636L64.5262 64.4635C63.2804 68.193 61.1818 71.5805 58.3972 74.3566Z"
                    fill="#FF8826" class="fill-primary lighten-1"></path>
                <path id="part-1"
                    d="M89.2732 7.46455C84.4914 2.68496 78.0072 0 71.2462 0C64.4853 0 58.0011 2.68496 53.2192 7.46455L38.3682 22.2826C35.5834 25.0593 33.4848 28.4474 32.2392 32.1776C30.4764 37.4559 30.4764 43.1642 32.2392 48.4426C33.4901 52.1702 35.588 55.5572 38.3683 58.3375C41.1486 61.1178 44.5356 63.2157 48.2632 64.4666L48.3832 64.3465C50.5 62.2173 51.6882 59.3369 51.6882 56.3346C51.6882 53.3322 50.5 50.4518 48.3832 48.3226C46.2664 46.1933 45.0783 43.313 45.0783 40.3106C45.0783 37.3082 46.2664 34.4278 48.3832 32.2986L63.2342 17.4826C64.2828 16.4278 65.5319 15.5938 66.9079 15.0296C68.284 14.4654 69.7591 14.1825 71.2462 14.1976C71.5516 14.1323 71.8687 14.146 72.1672 14.2376C74.8518 14.4002 77.3795 15.5571 79.2572 17.4826C81.374 19.6118 82.5622 22.4922 82.5622 25.4946C82.5622 28.4969 81.374 31.3773 79.2572 33.5066L64.5272 48.1996C66.2901 53.4779 66.2901 59.1862 64.5272 64.4646C68.249 63.2011 71.6332 61.1049 74.4222 58.3356L89.2732 43.5226C94.046 38.7363 96.7262 32.2528 96.7262 25.4936C96.7262 18.7343 94.046 12.2508 89.2732 7.46455Z"
                    fill="#FF8826" class="fill-primary lighten-1"></path>
                <path id="part-6"
                    d="M48.3822 64.3416L48.2622 64.4615C44.5296 63.218 41.1395 61.1191 38.3622 58.3326L48.3772 48.3175C50.4946 50.4461 51.6837 53.3261 51.6846 56.3285C51.6856 59.3309 50.4983 62.2117 48.3822 64.3416Z"
                    fill="#FF7300" class="fill-primary"></path>
                <path id="part-5"
                    d="M48.3522 32.3195L48.4722 32.1995C52.2047 33.4431 55.5949 35.5419 58.3722 38.3285L48.3522 48.3446C46.2351 46.2153 45.0468 43.3347 45.0468 40.332C45.0468 37.3294 46.2351 34.4488 48.3522 32.3195Z"
                    fill="#FF7300" class="fill-primary"></path>
                <path id="part-2"
                    d="M89.2721 43.5195L74.4211 58.3335C71.6322 61.1029 68.2479 63.1991 64.5261 64.4625C66.2889 59.1842 66.2889 53.4759 64.5261 48.1975L79.2561 33.5095C81.3729 31.3803 82.5611 28.4999 82.5611 25.4975C82.5611 22.4952 81.3729 19.6148 79.2561 17.4855L89.2721 7.46555C94.0439 12.2515 96.7235 18.7342 96.7235 25.4925C96.7235 32.2509 94.0439 38.7336 89.2721 43.5195Z"
                    fill="#FF7300" class="fill-primary"></path>
            </g>
            <g id="link-group">
                <g id="set-2">
                    <path id="3"
                        d="M18.3371 22.2776L14.3312 18.2716C13.8133 17.7376 13.5261 17.0214 13.5318 16.2775C13.5375 15.5337 13.8355 14.8219 14.3615 14.2959C14.8875 13.7699 15.5993 13.4719 16.3431 13.4662C17.087 13.4606 17.8032 13.7477 18.3371 14.2656L22.3432 18.2716C22.8611 18.8055 23.1482 19.5218 23.1425 20.2656C23.1368 21.0095 22.8388 21.7212 22.3128 22.2472C21.7868 22.7732 21.075 23.0712 20.3312 23.0769C19.5873 23.0826 18.8711 22.7955 18.3371 22.2776Z"
                        fill="#FF8826" class="fill-primary lighten-1"></path>
                    <path id="2"
                        d="M1.86619 35.8526C1.96271 35.4934 2.12902 35.1568 2.35564 34.8619C2.58226 34.567 2.86475 34.3196 3.18697 34.1339C3.50919 33.9482 3.86484 33.8277 4.2336 33.7795C4.60236 33.7312 4.97703 33.756 5.33619 33.8526L10.8092 35.3196C11.535 35.5141 12.1537 35.989 12.5294 36.6397C12.905 37.2905 13.0067 38.0638 12.8122 38.7896C12.6177 39.5153 12.1428 40.1341 11.492 40.5097C10.8413 40.8854 10.068 40.9871 9.34219 40.7926L3.86919 39.3256C3.50957 39.2291 3.17246 39.0628 2.87715 38.8361C2.58183 38.6093 2.33409 38.3266 2.14807 38.0041C1.96206 37.6816 1.84142 37.3255 1.79306 36.9564C1.74469 36.5872 1.76954 36.2121 1.86619 35.8526Z"
                        fill="#FF8826" class="fill-primary lighten-1"></path>
                    <path id="1"
                        d="M35.3812 10.7496L33.9142 5.27656C33.8179 4.9172 33.7933 4.54238 33.8418 4.17351C33.8904 3.80464 34.0111 3.44894 34.1971 3.12673C34.3831 2.80451 34.6307 2.52208 34.9258 2.29556C35.221 2.06905 35.5579 1.90289 35.9172 1.80656C36.2766 1.71024 36.6514 1.68564 37.0203 1.73417C37.3891 1.7827 37.7448 1.9034 38.0671 2.0894C38.3893 2.2754 38.6717 2.52304 38.8982 2.81818C39.1247 3.11333 39.2909 3.4502 39.3872 3.80956L40.8542 9.28256C40.9505 9.64192 40.9752 10.0167 40.9266 10.3856C40.8781 10.7545 40.7574 11.1102 40.5714 11.4324C40.3854 11.7546 40.1378 12.037 39.8426 12.2636C39.5475 12.4901 39.2106 12.6562 38.8512 12.7526C38.4919 12.8489 38.117 12.8735 37.7482 12.825C37.3793 12.7764 37.0236 12.6557 36.7014 12.4697C36.3792 12.2837 36.0967 12.0361 35.8702 11.7409C35.6437 11.4458 35.4776 11.1089 35.3812 10.7496Z"
                        fill="#FF8826" class="fill-primary lighten-1"></path>
                </g>
                <g id="set-1">
                    <path id="3"
                        d="M79.3852 73.3106L83.3912 77.3166C83.9092 77.8505 84.1963 78.5668 84.1906 79.3106C84.1849 80.0544 83.8869 80.7662 83.3609 81.2922C82.8349 81.8182 82.1231 82.1162 81.3793 82.1219C80.6354 82.1276 79.9192 81.8405 79.3852 81.3226L75.3792 77.3166C74.8613 76.7826 74.5742 76.0664 74.5799 75.3225C74.5856 74.5787 74.8836 73.8669 75.4096 73.3409C75.9356 72.8149 76.6474 72.5169 77.3912 72.5112C78.135 72.5056 78.8513 72.7927 79.3852 73.3106Z"
                        fill="#FF8826" class="fill-primary lighten-1"></path>
                    <path id="2"
                        d="M95.8563 59.7346C95.7598 60.0937 95.5935 60.4304 95.3669 60.7253C95.1402 61.0202 94.8578 61.2675 94.5355 61.4532C94.2133 61.6389 93.8577 61.7594 93.4889 61.8077C93.1201 61.8559 92.7455 61.8311 92.3863 61.7346L86.9133 60.2676C86.554 60.1712 86.2171 60.0051 85.9219 59.7786C85.6268 59.552 85.3792 59.2696 85.1932 58.9474C85.0072 58.6252 84.8865 58.2695 84.8379 57.9006C84.7894 57.5317 84.814 57.1569 84.9103 56.7976C85.0066 56.4382 85.1728 56.1013 85.3993 55.8062C85.6258 55.511 85.9083 55.2634 86.2305 55.0774C86.8812 54.7018 87.6546 54.6 88.3803 54.7946L93.8533 56.2616C94.2129 56.358 94.55 56.5243 94.8454 56.751C95.1407 56.9778 95.3884 57.2605 95.5744 57.583C95.7605 57.9056 95.8811 58.2616 95.9295 58.6307C95.9778 58.9999 95.953 59.375 95.8563 59.7346Z"
                        fill="#FF8826" class="fill-primary lighten-1"></path>
                    <path id="1"
                        d="M62.3393 84.8446L63.8063 90.3176C63.9026 90.6769 63.9272 91.0517 63.8787 91.4206C63.8301 91.7895 63.7094 92.1452 63.5234 92.4674C63.3374 92.7896 63.0898 93.072 62.7947 93.2986C62.4995 93.5251 62.1626 93.6912 61.8033 93.7876C61.4439 93.8839 61.0691 93.9085 60.7002 93.86C60.3313 93.8114 59.9757 93.6907 59.6534 93.5047C59.3312 93.3187 59.0488 93.0711 58.8223 92.7759C58.5958 92.4808 58.4296 92.1439 58.3333 91.7846L56.8663 86.3116C56.6717 85.5858 56.7735 84.8125 57.1491 84.1617C57.5247 83.511 58.1435 83.0361 58.8693 82.8416C59.595 82.647 60.3683 82.7488 61.0191 83.1244C61.6698 83.5 62.1447 84.1188 62.3393 84.8446Z"
                        fill="#FF8826" class="fill-primary lighten-1"></path>
                </g>
            </g>
        </g>
        <g id="user-illustration">
            <g id="user-bg">
                <path id="outer-circle"
                    d="M71 97C81.4934 97 90 88.4934 90 78C90 67.5066 81.4934 59 71 59C60.5066 59 52 67.5066 52 78C52 88.4934 60.5066 97 71 97Z"
                    fill="#4CCBD7" class="fill-accent2 lighten-1"></path>
                <path id="inner-circle"
                    d="M70.908 92.8801C78.9802 92.8801 85.524 86.3363 85.524 78.2641C85.524 70.1919 78.9802 63.6481 70.908 63.6481C62.8358 63.6481 56.292 70.1919 56.292 78.2641C56.292 86.3363 62.8358 92.8801 70.908 92.8801Z"
                    fill="#19BECE" class="fill-accent2"></path>
            </g>
            <g id="user">
                <path id="user-body"
                    d="M58.382 92.2651C58.5413 91.9757 58.7113 91.6897 58.892 91.4071C60.1835 89.4068 61.9566 87.7628 64.0487 86.6259C66.1407 85.489 68.4847 84.8956 70.8657 84.9C73.2467 84.9045 75.5885 85.5068 77.6763 86.6515C79.764 87.7963 81.5309 89.4469 82.815 91.4521C82.9976 91.7374 83.1696 92.0281 83.331 92.3241C79.8907 95.3415 75.469 97.0024 70.893 96.9961C66.284 97.004 61.8324 95.3206 58.382 92.2651Z"
                    fill="white" class="primary-accent3"></path>
                <path id="user-head"
                    d="M70.8391 84.535C74.9685 84.535 78.3161 81.1933 78.3161 77.071C78.3161 72.9488 74.9685 69.607 70.8391 69.607C66.7096 69.607 63.3621 72.9488 63.3621 77.071C63.3621 81.1933 66.7096 84.535 70.8391 84.535Z"
                    fill="white" class="primary-accent3"></path>
                <path id="user-body-shadow"
                    d="M76.509 96.151C75.9616 93.8171 74.9153 91.6294 73.4422 89.7381C71.969 87.8469 70.1039 86.2971 67.975 85.195C70.5243 84.6756 73.1669 84.8605 75.619 85.73C77.0982 86.257 78.4794 87.0265 79.706 88.007C80.9241 88.9787 81.9744 90.1439 82.815 91.456C82.997 91.74 83.171 92.033 83.331 92.328C81.3512 94.0675 79.026 95.3701 76.509 96.151Z"
                    fill="#E0E1E2" class="fill-accent3 darken-1"></path>
                <path id="user-head-shadow"
                    d="M70.839 84.534C69.7857 84.5363 68.7441 84.3148 67.783 83.884C68.8766 84.1308 70.0117 84.1289 71.1045 83.8782C72.1973 83.6275 73.2198 83.1346 74.0965 82.4357C74.9732 81.7369 75.6817 80.85 76.1697 79.8406C76.6578 78.8313 76.9128 77.7251 76.916 76.604C76.914 75.1637 76.4961 73.7547 75.7125 72.5463C74.929 71.3378 73.8131 70.3814 72.499 69.792C74.2906 70.1974 75.8699 71.2493 76.9343 72.7464C77.9988 74.2435 78.4737 76.0806 78.2682 77.9061C78.0626 79.7315 77.191 81.417 75.8203 82.6399C74.4495 83.8628 72.6759 84.5372 70.839 84.534Z"
                    fill="#E0E1E2" class="fill-accent3 darken-1"></path>
            </g>
        </g>
    </g>
</svg>