<?xml version="1.0" encoding="utf-8"?>

<!--
 * Copyright (c) 2020, WSO2 Inc. (http://www.wso2.org) All Rights Reserved.
 *
 * WSO2 Inc. licenses this file to you under the Apache License,
 * Version 2.0 (the "License"); you may not use this file except
 * in compliance with the License.
 * You may obtain a copy of the License at
 *
 *     http://www.apache.org/licenses/LICENSE-2.0
 *
 * Unless required by applicable law or agreed to in writing,
 * software distributed under the License is distributed on an
 * "AS IS" BASIS, WITHOUT WARRANTIES OR CONDITIONS OF ANY
 * KIND, either express or implied. See the License for the
 * specific language governing permissions and limitations
 * under the License.
-->

<svg id="zoom-illustration" class="icon" xmlns="http://www.w3.org/2000/svg" xmlns:xlink="http://www.w3.org/1999/xlink" width="80" height="80" viewBox="0 0 80 80">
  <defs>
    <radialGradient id="radial-gradient" cx="0.319" cy="-0.028" r="1.179" gradientTransform="translate(0.161 0.25) rotate(-55.388)" gradientUnits="objectBoundingBox">
      <stop offset="0" stop-color="#54a0ff"/>
      <stop offset="0.294" stop-color="#4c96fe"/>
      <stop offset="1" stop-color="#3f85fb"/>
    </radialGradient>
  </defs>
  <g id="zoom" transform="translate(-349 -312.015)">
    <rect id="Rectangle_4" data-name="Rectangle 4" width="80" height="80" transform="translate(349 312.015)" fill="#fff" opacity="0"/>
    <path id="Path_10" data-name="Path 10" d="M14.2,0H51.4A14.2,14.2,0,0,1,65.6,14.2V51.4A14.2,14.2,0,0,1,51.4,65.6H14.2A14.2,14.2,0,0,1,0,51.4V14.2A14.2,14.2,0,0,1,14.2,0Z" transform="translate(356.207 319.207)" fill="url(#radial-gradient)"/>
    <path id="Path_11" data-name="Path 11" d="M-11590.39-2353.632c-.923-.7-4.149-3.193-6.074-4.806s-2.029-2.642-2.029-4.058v-7.036c0-1.415.1-2.444,2.029-4.057s5.151-4.1,6.074-4.806a1.816,1.816,0,0,1,1.661-.223,2.013,2.013,0,0,1,1.046,1.647v21.912a2.007,2.007,0,0,1-1.056,1.649,1.479,1.479,0,0,1-.594.109,1.757,1.757,0,0,1-1.057-.331Zm-35.155.331a7.439,7.439,0,0,1-7.439-7.439v-15.555a2.7,2.7,0,0,1,.791-1.914,2.7,2.7,0,0,1,1.914-.791h22.317a7.439,7.439,0,0,1,7.439,7.439v15.555a2.7,2.7,0,0,1-2.7,2.705Z" transform="translate(11999.347 2717.82)" fill="#fff"/>
  </g>
</svg>
