<?xml version="1.0" encoding="utf-8"?>

<!--
 * Copyright (c) 2020, WSO2 Inc. (http://www.wso2.org) All Rights Reserved.
 *
 * WSO2 Inc. licenses this file to you under the Apache License,
 * Version 2.0 (the "License"); you may not use this file except
 * in compliance with the License.
 * You may obtain a copy of the License at
 *
 *     http://www.apache.org/licenses/LICENSE-2.0
 *
 * Unless required by applicable law or agreed to in writing,
 * software distributed under the License is distributed on an
 * "AS IS" BASIS, WITHOUT WARRANTIES OR CONDITIONS OF ANY
 * KIND, either express or implied. See the License for the
 * specific language governing permissions and limitations
 * under the License.
-->

<svg xmlns="http://www.w3.org/2000/svg" width="304.445" height="184.789" viewBox="0 0 304.445 184.789">
    <g id="analytics-engine-configuration-illustration" transform="translate(-141.222 -68.495)">
        <path id="Path_81"
              d="M163.973,73.972A38.194,38.194,0,0,0,141.32,50.558a13.869,13.869,0,0,1-8.946-12.789V37.4A38.273,38.273,0,0,0,63.3,15.568a31.233,31.233,0,0,1-25,12.959q-.437,0-.875.009A39,39,0,0,0,0,66.285a38.284,38.284,0,0,0,74.235,13.67,7.834,7.834,0,0,1,9.5-4.79l.149.042a7.814,7.814,0,0,1,5.691,8.146,38.282,38.282,0,1,0,74.393-9.387Z"
              transform="translate(280.616 68.495) rotate(26)" fill="#dbdbdb" opacity="0.24"/>
        <path id="Path_95"
              d="M424.493,166.965a.914.914,0,0,1-.914-.914,1.1,1.1,0,0,0-1.1-1.1.915.915,0,0,1,0-1.829,1.1,1.1,0,0,0,1.1-1.1.915.915,0,1,1,1.829,0,1.1,1.1,0,0,0,1.1,1.1.915.915,0,0,1,0,1.829,1.1,1.1,0,0,0-1.1,1.1.914.914,0,0,1-.914.914Z"
              transform="translate(-243.207 65.047)" fill="#e6e6e6"/>
        <path id="Path_96"
              d="M68.794,419.851a.915.915,0,0,1-.645-.267l-2-2a.914.914,0,0,1,0-1.291l2-2a.914.914,0,0,1,1.291,0l2,2a.914.914,0,0,1,0,1.291l-2,2.008A.915.915,0,0,1,68.794,419.851Zm-.711-2.917.711.711.711-.711-.711-.708Z"
              transform="translate(75.344 -301.841)" fill="rgba(157,157,157,0.7)"/>
        <path id="Path_98"
              d="M141.064,46.254a.914.914,0,0,1-.645-.267l-2-2.005a.914.914,0,0,1,0-1.291l2-2a.914.914,0,0,1,1.291,0l2,2a.914.914,0,0,1,0,1.291l-2,2a.909.909,0,0,1-.645.267Zm-.711-2.917.711.711.711-.711-.711-.711Z"
              transform="translate(301.688 97.79)" fill="rgba(157,157,157,0.7)"/>
        <path id="Path_98-2" data-name="Path_98"
              d="M141.064,46.254a.914.914,0,0,1-.645-.267l-2-2.005a.914.914,0,0,1,0-1.291l2-2a.914.914,0,0,1,1.291,0l2,2a.914.914,0,0,1,0,1.291l-2,2a.909.909,0,0,1-.645.267Zm-.711-2.917.711.711.711-.711-.711-.711Z"
              transform="translate(145.688 57.79)" fill="rgba(157,157,157,0.7)"/>
        <path id="padlock"
              d="M70.9,3.681V2.932a2.932,2.932,0,1,0-5.864,0v.749a1.169,1.169,0,0,0-.586,1.01V8.209a1.174,1.174,0,0,0,1.173,1.173h4.691a1.174,1.174,0,0,0,1.173-1.173V4.691a1.169,1.169,0,0,0-.586-1.01ZM67.963,1.173a1.761,1.761,0,0,1,1.759,1.759v.586H66.2V2.932a1.761,1.761,0,0,1,1.759-1.759Zm.586,5.635v.815H67.377V6.808a.88.88,0,1,1,1.173,0Z"
              transform="translate(259.555 217)" fill="#6b6b6b" opacity="0.55"/>
        <path id="padlock-2" data-name="padlock"
              d="M70.9,3.681V2.932a2.932,2.932,0,1,0-5.864,0v.749a1.169,1.169,0,0,0-.586,1.01V8.209a1.174,1.174,0,0,0,1.173,1.173h4.691a1.174,1.174,0,0,0,1.173-1.173V4.691a1.169,1.169,0,0,0-.586-1.01ZM67.963,1.173a1.761,1.761,0,0,1,1.759,1.759v.586H66.2V2.932a1.761,1.761,0,0,1,1.759-1.759Zm.586,5.635v.815H67.377V6.808a.88.88,0,1,1,1.173,0Z"
              transform="translate(134.555 157)" fill="#6b6b6b" opacity="0.55"/>
        <g id="gear" transform="translate(318.221 117.868)">
            <path id="Path_1944" data-name="Path 1944"
                  d="M230.424,33.521V22.255l-6.035-1.509a22.9,22.9,0,0,0-1.352-3.259l3.2-5.336-7.967-7.967-5.336,3.2a22.892,22.892,0,0,0-3.259-1.352L208.17,0h-5.633L196,16.341h6.536a11.547,11.547,0,1,1,0,23.095H196l6.536,16.341h5.633l1.509-6.035a22.908,22.908,0,0,0,3.259-1.352l5.336,3.2,7.967-7.967-3.2-5.336a22.888,22.888,0,0,0,1.352-3.259Z"
                  transform="translate(-174.648 0)" fill="#c4c4c4"/>
            <path id="Path_1945" data-name="Path 1945"
                  d="M16.341,27.888A11.547,11.547,0,0,1,27.888,16.341V0H22.255L20.746,6.035a22.909,22.909,0,0,0-3.259,1.352l-5.336-3.2L4.185,12.151l3.2,5.336a22.9,22.9,0,0,0-1.352,3.259L0,22.255V33.521L6.035,35.03a22.9,22.9,0,0,0,1.352,3.259l-3.2,5.336,7.967,7.967,5.336-3.2a22.893,22.893,0,0,0,3.259,1.352l1.509,6.035h5.633V39.435A11.547,11.547,0,0,1,16.341,27.888Z"
                  transform="translate(0 0)" fill="#dbdbdb"/>
            <path id="Path_1946" data-name="Path 1946"
                  d="M229.268,105,226,109.9h3.268a11.547,11.547,0,1,1,0,23.095H226l3.268,4.9a16.45,16.45,0,1,0,0-32.9Z"
                  transform="translate(-201.38 -93.561)" fill="#777"/>
            <path id="Path_1947" data-name="Path 1947"
                  d="M109.9,121.449A11.547,11.547,0,0,1,121.45,109.9V105a16.45,16.45,0,1,0,0,32.9V133A11.547,11.547,0,0,1,109.9,121.449Z"
                  transform="translate(-93.562 -93.561)" fill="#a9a9a9"/>
            <path id="Path_1948" data-name="Path 1948"
                  d="M238.179,135,236,137.451l2.179,2.451a8.279,8.279,0,1,1,0,16.558L236,158.912l2.179,2.451a13.181,13.181,0,1,0,0-26.363Z"
                  transform="translate(-210.291 -120.293)" fill="#b4b4b4"/>
            <path id="Path_1949" data-name="Path 1949"
                  d="M139.9,148.181a8.279,8.279,0,0,1,8.279-8.279V135a13.181,13.181,0,1,0,0,26.363v-4.9A8.279,8.279,0,0,1,139.9,148.181Z"
                  transform="translate(-120.294 -120.293)" fill="#ccc"/>
        </g>
        <g id="analytics" transform="translate(267.913 129.078)">
            <g id="Group_1060" data-name="Group 1060" transform="translate(0 24.698)">
                <g id="Group_1059" data-name="Group 1059">
                    <path id="Path_1942" data-name="Path 1942"
                          d="M72.551,216.975H71.008V172.21a1.544,1.544,0,0,0-1.544-1.544H60.2a1.544,1.544,0,0,0-1.544,1.544v44.766H52.484V190.733a1.544,1.544,0,0,0-1.544-1.544H41.678a1.544,1.544,0,0,0-1.544,1.544v26.242H33.96V184.559a1.544,1.544,0,0,0-1.544-1.544H23.154a1.544,1.544,0,0,0-1.544,1.544v32.416H15.436V200a1.544,1.544,0,0,0-1.544-1.544H4.631A1.544,1.544,0,0,0,3.087,200v16.98H1.544a1.544,1.544,0,0,0,0,3.087H72.551a1.544,1.544,0,1,0,0-3.087Z"
                          transform="translate(0 -170.666)" fill="#929292"/>
                </g>
            </g>
            <g id="Group_1062" data-name="Group 1062" transform="translate(3.087)">
                <g id="Group_1061" data-name="Group 1061">
                    <path id="Path_1943" data-name="Path 1943"
                          d="M83.079,0a6.137,6.137,0,0,0-5.3,9.293l-10.1,10.1a6.06,6.06,0,0,0-7.9,1.439l-7.585-2.164c0-.049.015-.1.015-.148a6.175,6.175,0,0,0-12.349,0,6.1,6.1,0,0,0,.546,2.513l-9.648,7.7a6.088,6.088,0,0,0-3.248-.948,6.175,6.175,0,1,0,6.175,6.175,6.09,6.09,0,0,0-.8-2.976l9.456-7.542a6.1,6.1,0,0,0,8.993-1.8l7.153,2.041a5.85,5.85,0,0,0-.1,1.019A6.175,6.175,0,1,0,69.856,21.58L79.964,11.473a6.084,6.084,0,0,0,3.115.877A6.175,6.175,0,1,0,83.079,0Z"
                          transform="translate(-21.333 0)" fill="#929292"/>
                </g>
            </g>
        </g>
    </g>
</svg>
