<?xml version="1.0" encoding="utf-8"?>

<!--
 * Copyright (c) 2020, WSO2 Inc. (http://www.wso2.org) All Rights Reserved.
 *
 * WSO2 Inc. licenses this file to you under the Apache License,
 * Version 2.0 (the "License"); you may not use this file except
 * in compliance with the License.
 * You may obtain a copy of the License at
 *
 *     http://www.apache.org/licenses/LICENSE-2.0
 *
 * Unless required by applicable law or agreed to in writing,
 * software distributed under the License is distributed on an
 * "AS IS" BASIS, WITHOUT WARRANTIES OR CONDITIONS OF ANY
 * KIND, either express or implied. See the License for the
 * specific language governing permissions and limitations
 * under the License.
-->

<svg xmlns="http://www.w3.org/2000/svg" width="304.445" height="184.789" viewBox="0 0 304.445 184.789">
    <g id="consent-management-illustration" transform="translate(-141.222 -68.495)">
        <path id="Path_81"
              d="M163.973,73.972A38.194,38.194,0,0,0,141.32,50.558a13.869,13.869,0,0,1-8.946-12.789V37.4A38.273,38.273,0,0,0,63.3,15.568a31.233,31.233,0,0,1-25,12.959q-.437,0-.875.009A39,39,0,0,0,0,66.285a38.284,38.284,0,0,0,74.235,13.67,7.834,7.834,0,0,1,9.5-4.79l.149.042a7.814,7.814,0,0,1,5.691,8.146,38.282,38.282,0,1,0,74.393-9.387Z"
              transform="translate(280.616 68.495) rotate(26)" fill="#dbdbdb" opacity="0.24"/>
        <path id="Path_95"
              d="M424.493,166.965a.914.914,0,0,1-.914-.914,1.1,1.1,0,0,0-1.1-1.1.915.915,0,0,1,0-1.829,1.1,1.1,0,0,0,1.1-1.1.915.915,0,1,1,1.829,0,1.1,1.1,0,0,0,1.1,1.1.915.915,0,0,1,0,1.829,1.1,1.1,0,0,0-1.1,1.1.914.914,0,0,1-.914.914Z"
              transform="translate(-243.207 65.047)" fill="#dfdfdf"/>
        <path id="Path_96"
              d="M68.794,419.851a.915.915,0,0,1-.645-.267l-2-2a.914.914,0,0,1,0-1.291l2-2a.914.914,0,0,1,1.291,0l2,2a.914.914,0,0,1,0,1.291l-2,2.008A.915.915,0,0,1,68.794,419.851Zm-.711-2.917.711.711.711-.711-.711-.708Z"
              transform="translate(75.344 -301.841)" fill="rgba(157,157,157,0.7)"/>
        <path id="Path_98"
              d="M141.064,46.254a.914.914,0,0,1-.645-.267l-2-2.005a.914.914,0,0,1,0-1.291l2-2a.914.914,0,0,1,1.291,0l2,2a.914.914,0,0,1,0,1.291l-2,2a.909.909,0,0,1-.645.267Zm-.711-2.917.711.711.711-.711-.711-.711Z"
              transform="translate(301.688 97.79)" fill="rgba(157,157,157,0.7)"/>
        <path id="Path_98-2" data-name="Path_98"
              d="M141.064,46.254a.914.914,0,0,1-.645-.267l-2-2.005a.914.914,0,0,1,0-1.291l2-2a.914.914,0,0,1,1.291,0l2,2a.914.914,0,0,1,0,1.291l-2,2a.909.909,0,0,1-.645.267Zm-.711-2.917.711.711.711-.711-.711-.711Z"
              transform="translate(145.688 57.79)" fill="rgba(157,157,157,0.7)"/>
        <path id="padlock"
              d="M70.9,3.681V2.932a2.932,2.932,0,1,0-5.864,0v.749a1.169,1.169,0,0,0-.586,1.01V8.209a1.174,1.174,0,0,0,1.173,1.173h4.691a1.174,1.174,0,0,0,1.173-1.173V4.691a1.169,1.169,0,0,0-.586-1.01ZM67.963,1.173a1.761,1.761,0,0,1,1.759,1.759v.586H66.2V2.932a1.761,1.761,0,0,1,1.759-1.759Zm.586,5.635v.815H67.377V6.808a.88.88,0,1,1,1.173,0Z"
              transform="translate(259.555 217)" fill="#6b6b6b" opacity="0.55"/>
        <path id="padlock-2" data-name="padlock"
              d="M70.9,3.681V2.932a2.932,2.932,0,1,0-5.864,0v.749a1.169,1.169,0,0,0-.586,1.01V8.209a1.174,1.174,0,0,0,1.173,1.173h4.691a1.174,1.174,0,0,0,1.173-1.173V4.691a1.169,1.169,0,0,0-.586-1.01ZM67.963,1.173a1.761,1.761,0,0,1,1.759,1.759v.586H66.2V2.932a1.761,1.761,0,0,1,1.759-1.759Zm.586,5.635v.815H67.377V6.808a.88.88,0,1,1,1.173,0Z"
              transform="translate(134.555 157)" fill="#6b6b6b" opacity="0.55"/>
        <g id="consent" transform="translate(294.469 127.469)">
            <path id="Path_1971" data-name="Path 1971"
                  d="M49.031,47.32V96.439a8.6,8.6,0,0,1-8.582,8.59H8.582A8.6,8.6,0,0,1,0,96.439V47.32l24.516-2.582Zm0,0"
                  transform="translate(0 -38.966)" fill="#fafafa"/>
            <path id="Path_1972" data-name="Path 1972"
                  d="M214.516,47.32V96.439a8.6,8.6,0,0,1-8.582,8.59H190V44.738Zm0,0"
                  transform="translate(-165.485 -38.966)" fill="#efefef"/>
            <path id="Path_1973" data-name="Path 1973"
                  d="M49.031,5V8.355H0V5A5.007,5.007,0,0,1,5,0H44.034a5.006,5.006,0,0,1,5,5Zm0,0"
                  transform="translate(0)" fill="#c9c9c9"/>
            <path id="Path_1974" data-name="Path 1974" d="M214.516,5V8.355H190V0h19.518a5.006,5.006,0,0,1,5,5Zm0,0"
                  transform="translate(-165.485 0)" fill="#bbb"/>
            <path id="Path_1975" data-name="Path 1975"
                  d="M138.847,0V11.433a.111.111,0,0,1-.111.112h-8.488a.112.112,0,0,1-.111-.112V0h-3.868V11.433a3.987,3.987,0,0,0,3.979,3.984h8.488a3.987,3.987,0,0,0,3.979-3.984V0Zm0,0"
                  transform="translate(-109.977)" fill="#c2c2c2"/>
            <path id="Path_1976" data-name="Path 1976"
                  d="M77.764,174.755a1.935,1.935,0,0,1-1.934,1.936H55.153a1.936,1.936,0,0,1,0-3.872H75.83A1.934,1.934,0,0,1,77.764,174.755Zm0,0"
                  transform="translate(-46.352 -150.521)" fill="#c9c9c9"/>
            <path id="Path_1977" data-name="Path 1977"
                  d="M271.036,176.689h3.573a1.936,1.936,0,0,0,0-3.872h-3.573a1.936,1.936,0,0,0,0,3.872Zm0,0"
                  transform="translate(-234.38 -150.518)" fill="#a3a3a3"/>
            <path id="Path_1978" data-name="Path 1978"
                  d="M55.154,236.693h9.425a1.936,1.936,0,0,0,0-3.872H55.154a1.936,1.936,0,0,0,0,3.872Zm0,0"
                  transform="translate(-46.352 -202.78)" fill="#c9c9c9"/>
            <path id="Path_1979" data-name="Path 1979"
                  d="M274.609,232.82h-3.573a1.936,1.936,0,0,0,0,3.872h3.573a1.936,1.936,0,0,0,0-3.872Zm0,0"
                  transform="translate(-234.38 -202.779)" fill="#a3a3a3"/>
            <path id="Path_1980" data-name="Path 1980"
                  d="M77.764,294.654a1.935,1.935,0,0,1-1.934,1.937H55.153a1.936,1.936,0,0,1,0-3.872H75.83A1.934,1.934,0,0,1,77.764,294.654Zm0,0"
                  transform="translate(-46.352 -254.95)" fill="#c9c9c9"/>
            <path id="Path_1981" data-name="Path 1981"
                  d="M274.609,292.715h-3.573a1.936,1.936,0,0,0,0,3.872h3.573a1.936,1.936,0,0,0,0-3.872Zm0,0"
                  transform="translate(-234.38 -254.946)" fill="#a3a3a3"/>
            <path id="Path_1982" data-name="Path 1982"
                  d="M74.643,354.654a1.935,1.935,0,0,1-1.934,1.937H55.153a1.936,1.936,0,0,1,0-3.872H72.709A1.935,1.935,0,0,1,74.643,354.654Zm0,0"
                  transform="translate(-46.352 -307.208)" fill="#c9c9c9"/>
            <path id="Path_1983" data-name="Path 1983"
                  d="M274.609,352.719h-3.573a1.936,1.936,0,0,0,0,3.872h3.573a1.936,1.936,0,0,0,0-3.872Zm0,0"
                  transform="translate(-234.38 -307.208)" fill="#a3a3a3"/>
            <path id="Path_1984" data-name="Path 1984"
                  d="M64.579,411.016H55.154a1.936,1.936,0,0,0,0,3.872h9.425a1.936,1.936,0,0,0,0-3.872Zm0,0"
                  transform="translate(-46.353 -357.983)" fill="#c9c9c9"/>
            <path id="Path_1985" data-name="Path 1985"
                  d="M274.609,411.016h-3.573a1.936,1.936,0,0,0,0,3.872h3.573a1.936,1.936,0,0,0,0-3.872Zm0,0"
                  transform="translate(-234.38 -357.983)" fill="#a3a3a3"/>
            <path id="Path_1986" data-name="Path 1986"
                  d="M451.211,1.935V7.094a1.935,1.935,0,0,1-1.935,1.935h0a1.934,1.934,0,0,1-1.934-1.935V1.935A1.935,1.935,0,0,1,449.274,0h0A1.936,1.936,0,0,1,451.211,1.935Zm0,0"
                  transform="translate(-389.62)" fill="#c9c9c9"/>
            <path id="Path_1987" data-name="Path 1987"
                  d="M464.265,1.935V7.094A1.935,1.935,0,0,1,462.33,9.03h0V0h0A1.936,1.936,0,0,1,464.265,1.935Zm0,0"
                  transform="translate(-402.675)" fill="#bbb"/>
            <path id="Path_1988" data-name="Path 1988"
                  d="M425.488,87.452v23.217l-6.408,2.581h0l-6.407-2.581V87.452l6.407-2.581h0Zm0,0"
                  transform="translate(-359.425 -73.92)" fill="silver"/>
            <path id="Path_1989" data-name="Path 1989" d="M468.737,87.452v23.217l-6.408,2.581h0V84.871h0Zm0,0"
                  transform="translate(-402.675 -73.92)" fill="#a9a9a9"/>
            <path id="Path_1990" data-name="Path 1990"
                  d="M425.488,44.43v4.253H412.672V44.43a4.077,4.077,0,0,1,4.074-4.071h4.668A4.077,4.077,0,0,1,425.488,44.43Zm0,0"
                  transform="translate(-359.426 -35.152)" fill="#c2c2c2"/>
            <path id="Path_1991" data-name="Path 1991"
                  d="M425.488,284.809V298.7a14.857,14.857,0,0,1-4.472,10.628l-1.937,1.935-1.934-1.935a14.856,14.856,0,0,1-4.473-10.628V284.809Zm0,0"
                  transform="translate(-359.426 -248.06)" fill="#c9c9c9"/>
            <path id="Path_1992" data-name="Path 1992"
                  d="M462.328,284.809h6.409V298.7a14.857,14.857,0,0,1-4.472,10.628l-1.937,1.935Zm0,0"
                  transform="translate(-402.675 -248.06)" fill="#bbb"/>
            <path id="Path_1993" data-name="Path 1993"
                  d="M451.211,474.809v2.863a1.936,1.936,0,0,1-1.935,1.935h0a1.935,1.935,0,0,1-1.934-1.935v-2.863Zm0,0"
                  transform="translate(-389.62 -413.545)" fill="#6a6a6a"/>
            <path id="Path_1994" data-name="Path 1994"
                  d="M468.737,44.43v4.253h-6.409V40.359h2.336A4.077,4.077,0,0,1,468.737,44.43Zm0,0"
                  transform="translate(-402.675 -35.152)" fill="#a3a3a3"/>
            <path id="Path_1995" data-name="Path 1995"
                  d="M462.328,474.809h1.937v2.863a1.936,1.936,0,0,1-1.935,1.935h0Zm0,0"
                  transform="translate(-402.675 -413.545)" fill="#585858"/>
            <g id="Group_1091" data-name="Group 1091" transform="translate(24.515 22.299)">
                <path id="Path_1996" data-name="Path 1996"
                      d="M193.776,354.654a1.935,1.935,0,0,1-1.934,1.937H190v-3.872h1.841A1.935,1.935,0,0,1,193.776,354.654Zm0,0"
                      transform="translate(-190 -329.507)" fill="#bbb"/>
                <path id="Path_1997" data-name="Path 1997"
                      d="M196.9,294.654a1.935,1.935,0,0,1-1.934,1.937H190v-3.872h4.963A1.934,1.934,0,0,1,196.9,294.654Zm0,0"
                      transform="translate(-190 -277.249)" fill="#bbb"/>
                <path id="Path_1998" data-name="Path 1998"
                      d="M196.9,174.755a1.935,1.935,0,0,1-1.934,1.936H190V172.82h4.963A1.934,1.934,0,0,1,196.9,174.755Zm0,0"
                      transform="translate(-190 -172.82)" fill="#bbb"/>
            </g>
            <path id="Path_1999" data-name="Path 1999"
                  d="M198.223,0V11.433a3.987,3.987,0,0,1-3.979,3.984H190V11.546h4.244a.111.111,0,0,0,.111-.112V0Zm0,0"
                  transform="translate(-165.485)" fill="#a3a3a3"/>
        </g>
        <path id="Union_11" data-name="Union 11"
              d="M-1436,59a29.8,29.8,0,0,1,9.683-19.01,29.924,29.924,0,0,1,20.11-7.737,29.924,29.924,0,0,1,20.11,7.737A29.8,29.8,0,0,1-1376.416,59H-1436Zm14.027-43.267A15.75,15.75,0,0,1-1406.208,0a15.75,15.75,0,0,1,15.766,15.733,15.75,15.75,0,0,1-15.766,15.733A15.75,15.75,0,0,1-1421.974,15.733Z"
              transform="translate(1688.208 148)" fill="#a9a9a9"/>
    </g>
</svg>
