<?xml version="1.0" encoding="utf-8"?>

<!--
 * Copyright (c) 2020, WSO2 Inc. (http://www.wso2.org) All Rights Reserved.
 *
 * WSO2 Inc. licenses this file to you under the Apache License,
 * Version 2.0 (the "License"); you may not use this file except
 * in compliance with the License.
 * You may obtain a copy of the License at
 *
 *     http://www.apache.org/licenses/LICENSE-2.0
 *
 * Unless required by applicable law or agreed to in writing,
 * software distributed under the License is distributed on an
 * "AS IS" BASIS, WITHOUT WARRANTIES OR CONDITIONS OF ANY
 * KIND, either express or implied. See the License for the
 * specific language governing permissions and limitations
 * under the License.
-->

<svg xmlns="http://www.w3.org/2000/svg" width="304.445" height="184.789" viewBox="0 0 304.445 184.789">
    <g id="default-connector-illustration" transform="translate(-141.222 -68.495)">
        <path id="Path_81"
              d="M163.973,73.972A38.194,38.194,0,0,0,141.32,50.558a13.869,13.869,0,0,1-8.946-12.789V37.4A38.273,38.273,0,0,0,63.3,15.568a31.233,31.233,0,0,1-25,12.959q-.437,0-.875.009A39,39,0,0,0,0,66.285a38.284,38.284,0,0,0,74.235,13.67,7.834,7.834,0,0,1,9.5-4.79l.149.042a7.814,7.814,0,0,1,5.691,8.146,38.282,38.282,0,1,0,74.393-9.387Z"
              transform="translate(280.616 68.495) rotate(26)" fill="#dbdbdb" opacity="0.24"/>
        <path id="Path_95"
              d="M424.493,166.965a.914.914,0,0,1-.914-.914,1.1,1.1,0,0,0-1.1-1.1.915.915,0,0,1,0-1.829,1.1,1.1,0,0,0,1.1-1.1.915.915,0,1,1,1.829,0,1.1,1.1,0,0,0,1.1,1.1.915.915,0,0,1,0,1.829,1.1,1.1,0,0,0-1.1,1.1.914.914,0,0,1-.914.914Z"
              transform="translate(-243.207 65.047)" fill="#e0e0e0"/>
        <path id="Path_96"
              d="M68.794,419.851a.915.915,0,0,1-.645-.267l-2-2a.914.914,0,0,1,0-1.291l2-2a.914.914,0,0,1,1.291,0l2,2a.914.914,0,0,1,0,1.291l-2,2.008A.915.915,0,0,1,68.794,419.851Zm-.711-2.917.711.711.711-.711-.711-.708Z"
              transform="translate(75.344 -301.841)" fill="rgba(157,157,157,0.7)"/>
        <path id="Path_98"
              d="M141.064,46.254a.914.914,0,0,1-.645-.267l-2-2.005a.914.914,0,0,1,0-1.291l2-2a.914.914,0,0,1,1.291,0l2,2a.914.914,0,0,1,0,1.291l-2,2a.909.909,0,0,1-.645.267Zm-.711-2.917.711.711.711-.711-.711-.711Z"
              transform="translate(301.688 97.79)" fill="rgba(157,157,157,0.7)"/>
        <path id="Path_98-2" data-name="Path_98"
              d="M141.064,46.254a.914.914,0,0,1-.645-.267l-2-2.005a.914.914,0,0,1,0-1.291l2-2a.914.914,0,0,1,1.291,0l2,2a.914.914,0,0,1,0,1.291l-2,2a.909.909,0,0,1-.645.267Zm-.711-2.917.711.711.711-.711-.711-.711Z"
              transform="translate(145.688 57.79)" fill="rgba(157,157,157,0.7)"/>
        <path id="padlock"
              d="M70.9,3.681V2.932a2.932,2.932,0,1,0-5.864,0v.749a1.169,1.169,0,0,0-.586,1.01V8.209a1.174,1.174,0,0,0,1.173,1.173h4.691a1.174,1.174,0,0,0,1.173-1.173V4.691a1.169,1.169,0,0,0-.586-1.01ZM67.963,1.173a1.761,1.761,0,0,1,1.759,1.759v.586H66.2V2.932a1.761,1.761,0,0,1,1.759-1.759Zm.586,5.635v.815H67.377V6.808a.88.88,0,1,1,1.173,0Z"
              transform="translate(259.555 217)" fill="#6b6b6b" opacity="0.55"/>
        <path id="padlock-2" data-name="padlock"
              d="M70.9,3.681V2.932a2.932,2.932,0,1,0-5.864,0v.749a1.169,1.169,0,0,0-.586,1.01V8.209a1.174,1.174,0,0,0,1.173,1.173h4.691a1.174,1.174,0,0,0,1.173-1.173V4.691a1.169,1.169,0,0,0-.586-1.01ZM67.963,1.173a1.761,1.761,0,0,1,1.759,1.759v.586H66.2V2.932a1.761,1.761,0,0,1,1.759-1.759Zm.586,5.635v.815H67.377V6.808a.88.88,0,1,1,1.173,0Z"
              transform="translate(134.555 157)" fill="#6b6b6b" opacity="0.55"/>
        <g id="arrows" transform="translate(283.837 125.187)">
            <path id="Path_2070" data-name="Path 2070"
                  d="M139.231,39.774a2.471,2.471,0,0,0-3.487.216l-.04.045V38.3A37.816,37.816,0,0,0,80.372,4.8,38.119,38.119,0,0,0,67.189,16.255,2.471,2.471,0,0,0,71.2,19.14,32.864,32.864,0,0,1,130.763,38.3v1.731l-.041-.045a2.471,2.471,0,1,0-3.7,3.271l4.362,4.939a2.472,2.472,0,0,0,3.7,0l4.362-4.939a2.47,2.47,0,0,0-.216-3.488Zm0,0"
                  transform="translate(-55.735)" fill="#989898"/>
            <path id="Path_2071" data-name="Path 2071"
                  d="M72.312,194.137a2.471,2.471,0,0,0-3.449.563A32.864,32.864,0,0,1,9.3,175.536V173.8l.041.046a2.471,2.471,0,0,0,3.7-3.272L8.684,165.64a2.47,2.47,0,0,0-3.7,0L.618,170.579a2.471,2.471,0,1,0,3.7,3.272l.04-.046v1.731a37.816,37.816,0,0,0,55.332,33.5,38.129,38.129,0,0,0,13.182-11.453,2.47,2.47,0,0,0-.563-3.448Zm0,0"
                  transform="translate(0 -137.241)" fill="#989898"/>
            <path id="gear_3_" data-name="gear (3)"
                  d="M53.2,29.62l-4.466-3.492a16.252,16.252,0,0,0,0-3.669l4.47-3.494a2.191,2.191,0,0,0,.528-2.792L49.086,8.141A2.2,2.2,0,0,0,46.4,7.173L41.136,9.291a18.032,18.032,0,0,0-3.162-1.836l-.808-5.592A2.152,2.152,0,0,0,35.015,0H25.7a2.146,2.146,0,0,0-2.138,1.846l-.81,5.608A18.7,18.7,0,0,0,19.6,9.293L14.318,7.171a2.152,2.152,0,0,0-2.666.95L7,16.167a2.175,2.175,0,0,0,.528,2.8L12,22.463a16.1,16.1,0,0,0,0,3.669l-4.47,3.492a2.189,2.189,0,0,0-.53,2.792l4.644,8.034a2.194,2.194,0,0,0,2.687.968L19.59,39.3a18.115,18.115,0,0,0,3.164,1.838l.81,5.588A2.148,2.148,0,0,0,25.7,48.59h9.313a2.148,2.148,0,0,0,2.144-1.846l.81-5.608A18.737,18.737,0,0,0,41.127,39.3l5.284,2.124a2.154,2.154,0,0,0,2.666-.949l4.665-8.078A2.185,2.185,0,0,0,53.2,29.62Zm-22.841,4.8A10.123,10.123,0,1,1,40.482,24.3,10.123,10.123,0,0,1,30.359,34.418Z"
                  transform="translate(11.743 14.006)" fill="#868686"/>
        </g>
    </g>
</svg>
