<?xml version="1.0" encoding="utf-8"?>

<!--
 * Copyright (c) 2020, WSO2 Inc. (http://www.wso2.org) All Rights Reserved.
 *
 * WSO2 Inc. licenses this file to you under the Apache License,
 * Version 2.0 (the "License"); you may not use this file except
 * in compliance with the License.
 * You may obtain a copy of the License at
 *
 *     http://www.apache.org/licenses/LICENSE-2.0
 *
 * Unless required by applicable law or agreed to in writing,
 * software distributed under the License is distributed on an
 * "AS IS" BASIS, WITHOUT WARRANTIES OR CONDITIONS OF ANY
 * KIND, either express or implied. See the License for the
 * specific language governing permissions and limitations
 * under the License.
-->

<svg xmlns="http://www.w3.org/2000/svg" xmlns:xlink="http://www.w3.org/1999/xlink" width="308.667" height="133.801"
     viewBox="0 0 308.667 133.801">
    <defs>
        <linearGradient id="linear-gradient" x1="0.274" y1="0.5" x2="1" y2="0.5" gradientUnits="objectBoundingBox">
            <stop offset="0" stop-color="#fff"/>
            <stop offset="1" stop-color="#dbdddf"/>
        </linearGradient>
        <linearGradient id="linear-gradient-3" x1="0.274" y1="0.5" x2="1" y2="0.5" gradientUnits="objectBoundingBox">
            <stop offset="0" stop-color="#fff" stop-opacity="0"/>
            <stop offset="1" stop-color="#dbdddf"/>
        </linearGradient>
        <linearGradient id="linear-gradient-5" x2="1" y2="1" gradientUnits="objectBoundingBox">
            <stop offset="0" stop-color="#ff8213"/>
            <stop offset="1" stop-color="#fe6206"/>
        </linearGradient>
        <linearGradient id="linear-gradient-6" x1="1.015" y1="1" x2="0.029" y2="0.06" xlink:href="#linear-gradient-5"/>
        <linearGradient id="linear-gradient-7" x1="0.931" y1="0.856" x2="-0.099" y2="0.181"
                        gradientUnits="objectBoundingBox">
            <stop offset="0" stop-color="#ccc"/>
            <stop offset="1" stop-color="#fff"/>
        </linearGradient>
        <linearGradient id="linear-gradient-8" x1="0" y1="0.346" x2="0.789" y2="0.772" xlink:href="#linear-gradient-7"/>
        <linearGradient id="linear-gradient-39" x1="0.5" x2="0.624" y2="1.122" gradientUnits="objectBoundingBox">
            <stop offset="0" stop-color="#1de2da"/>
            <stop offset="1" stop-color="#22b7b1"/>
        </linearGradient>
        <linearGradient id="linear-gradient-40" x1="0.951" y1="0.243" x2="0.154" y2="0.543"
                        xlink:href="#linear-gradient-39"/>
    </defs>
    <g id="password-reset-illustration" transform="translate(-137 -98.211)">
        <g id="Group_1161" data-name="Group 1161" transform="translate(-97 -7)">
            <rect id="Rectangle_448" data-name="Rectangle 448" width="66" height="5" transform="translate(234 186)"
                  fill="url(#linear-gradient)"/>
            <g id="Path_2110" data-name="Path 2110" transform="translate(280 122)" fill="#f4f2f1">
                <path d="M 92 68 L 3 68 C 1.897199988365173 68 1 67.10279846191406 1 66 L 1 3 C 1 1.897199988365173 1.897199988365173 1 3 1 L 92 1 C 93.10279846191406 1 94 1.897199988365173 94 3 L 94 66 C 94 67.10279846191406 93.10279846191406 68 92 68 Z"
                      stroke="none"/>
                <path d="M 3 2 C 2.448600769042969 2 2 2.448600769042969 2 3 L 2 66 C 2 66.55139923095703 2.448600769042969 67 3 67 L 92 67 C 92.55139923095703 67 93 66.55139923095703 93 66 L 93 3 C 93 2.448600769042969 92.55139923095703 2 92 2 L 3 2 M 3 0 L 92 0 C 93.6568603515625 0 95 1.3431396484375 95 3 L 95 66 C 95 67.6568603515625 93.6568603515625 69 92 69 L 3 69 C 1.3431396484375 69 0 67.6568603515625 0 66 L 0 3 C 0 1.3431396484375 1.3431396484375 0 3 0 Z"
                      stroke="none" fill="#e6e3df"/>
            </g>
            <g id="Rectangle_376" data-name="Rectangle 376" transform="translate(280 122)" fill="#fff" stroke="#e6e3df"
               stroke-width="2">
                <path d="M3,0H92a3,3,0,0,1,3,3v8a0,0,0,0,1,0,0H0a0,0,0,0,1,0,0V3A3,3,0,0,1,3,0Z" stroke="none"/>
                <path d="M3,1H92a2,2,0,0,1,2,2V9a1,1,0,0,1-1,1H2A1,1,0,0,1,1,9V3A2,2,0,0,1,3,1Z" fill="none"/>
            </g>
            <circle id="Ellipse_110" data-name="Ellipse 110" cx="1.5" cy="1.5" r="1.5" transform="translate(367 126)"
                    fill="#eaecee"/>
            <circle id="Ellipse_111" data-name="Ellipse 111" cx="1.5" cy="1.5" r="1.5" transform="translate(363 126)"
                    fill="#eaecee"/>
            <circle id="Ellipse_112" data-name="Ellipse 112" cx="1.5" cy="1.5" r="1.5" transform="translate(359 126)"
                    fill="#eaecee"/>
            <g id="Rectangle_452" data-name="Rectangle 452" transform="translate(444 153)" fill="#f4f2f1"
               stroke="#e6e3df" stroke-width="2">
                <rect width="38" height="38" rx="3" stroke="none"/>
                <rect x="1" y="1" width="36" height="36" rx="2" fill="none"/>
            </g>
            <g id="Rectangle_453" data-name="Rectangle 453" transform="translate(481.237 175.264) rotate(-45)"
               fill="#f4f2f1" stroke="#e6e3df" stroke-width="2">
                <rect width="23" height="23" rx="1" stroke="none"/>
                <rect x="1" y="1" width="21" height="21" fill="none"/>
            </g>
            <g id="Ellipse_191" data-name="Ellipse 191" transform="translate(481.7 144)" fill="#f4f2f1" stroke="#e6e3df"
               stroke-width="2">
                <circle cx="9" cy="9" r="9" stroke="none"/>
                <circle cx="9" cy="9" r="8" fill="none"/>
            </g>
            <g id="recovery-arrow" transform="translate(313.737 148.805)">
                <g id="c187_arrow" transform="translate(0.246 0)">
                    <path id="_x3C_Group_x3E__5_"
                          d="M14.327,0H14.27a.206.206,0,0,0-.065,0A14.621,14.621,0,0,0,4.074,4.118L1.1,1.1a.5.5,0,0,0-.853.353v9.809a.5.5,0,0,0,.5.5h9.713a.5.5,0,0,0,.249-.931L7.766,7.853a9.295,9.295,0,1,1,6.365,15.988l.012,5.25h.072A14.544,14.544,0,0,0,14.327,0Z"
                          transform="translate(-0.246 0)" fill="#e6e3df"/>
                </g>
            </g>
        </g>
        <path id="Path_95"
              d="M424.493,166.965a.914.914,0,0,1-.914-.914,1.1,1.1,0,0,0-1.1-1.1.915.915,0,0,1,0-1.829,1.1,1.1,0,0,0,1.1-1.1.915.915,0,1,1,1.829,0,1.1,1.1,0,0,0,1.1,1.1.915.915,0,0,1,0,1.829,1.1,1.1,0,0,0-1.1,1.1.914.914,0,0,1-.914.914Z"
              transform="translate(-243.207 65.047)" fill="#ffe783"/>
        <path id="Path_96"
              d="M68.794,419.851a.915.915,0,0,1-.645-.267l-2-2a.914.914,0,0,1,0-1.291l2-2a.914.914,0,0,1,1.291,0l2,2a.914.914,0,0,1,0,1.291l-2,2.008A.915.915,0,0,1,68.794,419.851Zm-.711-2.917.711.711.711-.711-.711-.708Z"
              transform="translate(75.344 -301.84)" fill="#ffe783"/>
        <path id="Path_98"
              d="M141.064,46.254a.914.914,0,0,1-.645-.267l-2-2.005a.914.914,0,0,1,0-1.291l2-2a.914.914,0,0,1,1.291,0l2,2a.914.914,0,0,1,0,1.291l-2,2a.909.909,0,0,1-.645.267Zm-.711-2.917.711.711.711-.711-.711-.711Z"
              transform="translate(301.688 97.791)" fill="#ffe783"/>
        <path id="Path_98-2" data-name="Path_98"
              d="M141.064,46.254a.914.914,0,0,1-.645-.267l-2-2.005a.914.914,0,0,1,0-1.291l2-2a.914.914,0,0,1,1.291,0l2,2a.914.914,0,0,1,0,1.291l-2,2a.909.909,0,0,1-.645.267Zm-.711-2.917.711.711.711-.711-.711-.711Z"
              transform="translate(145.688 57.791)" fill="#ffe783"/>
        <path id="padlock"
              d="M70.9,3.681V2.932a2.932,2.932,0,1,0-5.864,0v.749a1.169,1.169,0,0,0-.586,1.01V8.209a1.174,1.174,0,0,0,1.173,1.173h4.691a1.174,1.174,0,0,0,1.173-1.173V4.691a1.169,1.169,0,0,0-.586-1.01ZM67.963,1.173a1.761,1.761,0,0,1,1.759,1.759v.586H66.2V2.932a1.761,1.761,0,0,1,1.759-1.759Zm.586,5.635v.815H67.377V6.808a.88.88,0,1,1,1.173,0Z"
              transform="translate(259.555 217)" fill="#ffb18d"/>
        <path id="padlock-2" data-name="padlock"
              d="M70.9,3.681V2.932a2.932,2.932,0,1,0-5.864,0v.749a1.169,1.169,0,0,0-.586,1.01V8.209a1.174,1.174,0,0,0,1.173,1.173h4.691a1.174,1.174,0,0,0,1.173-1.173V4.691a1.169,1.169,0,0,0-.586-1.01ZM67.963,1.173a1.761,1.761,0,0,1,1.759,1.759v.586H66.2V2.932a1.761,1.761,0,0,1,1.759-1.759Zm.586,5.635v.815H67.377V6.808a.88.88,0,1,1,1.173,0Z"
              transform="translate(134.555 157)" fill="#ffb18d"/>
        <rect id="Rectangle_446" data-name="Rectangle 446" width="66" height="5" transform="translate(169 197)"
              fill="url(#linear-gradient)"/>
        <rect id="Rectangle_447" data-name="Rectangle 447" width="66" height="5" transform="translate(338 197)"
              fill="url(#linear-gradient-3)"/>
        <rect id="Rectangle_454" data-name="Rectangle 454" width="20" height="5" transform="translate(335 179)"
              fill="url(#linear-gradient-3)"/>
        <g id="Group_1255" data-name="Group 1255" transform="translate(-1315 -1762.999)">
            <rect id="Rectangle_456" data-name="Rectangle 456" width="149" height="50" rx="6"
                  transform="translate(1541 1915)" fill="url(#linear-gradient-5)"/>
            <rect id="Rectangle_457" data-name="Rectangle 457" width="141" height="42" rx="5"
                  transform="translate(1545 1919)" fill="url(#linear-gradient-6)"/>
            <g id="Group_1151" data-name="Group 1151" transform="translate(94 117)">
                <path id="Path_2128" data-name="Path 2128"
                      d="M12.32,8.306l-2.593-1.5,2.593-1.5a.527.527,0,0,0,.193-.721l-.792-1.372A.528.528,0,0,0,11,3.025l-2.593,1.5V1.528A.528.528,0,0,0,7.879,1H6.295a.528.528,0,0,0-.528.528V4.522l-2.593-1.5a.528.528,0,0,0-.721.193L1.66,4.59a.527.527,0,0,0,.193.721l2.593,1.5-2.593,1.5a.527.527,0,0,0-.193.721L2.453,10.4a.528.528,0,0,0,.721.193L5.767,9.1V12.09a.528.528,0,0,0,.528.528H7.879a.528.528,0,0,0,.528-.528V9.1L11,10.593a.528.528,0,0,0,.721-.193l.792-1.372a.527.527,0,0,0-.193-.721Z"
                      transform="translate(1458.411 1816.382)" fill="url(#linear-gradient-7)"/>
                <path id="Subtraction_24" data-name="Subtraction 24"
                      d="M-11116-4062.192V-4068h.792a.528.528,0,0,1,.527.527v2.993l2.592-1.5a.554.554,0,0,1,.266-.07.532.532,0,0,1,.457.262l.37.641-5,2.949Z"
                      transform="translate(12581.5 5885.383)" fill="url(#linear-gradient-8)"/>
                <path id="Subtraction_26" data-name="Subtraction 26"
                      d="M-11103.461-4058.212h-.739l-.053-5.807,5.028,2.9-.394.686a.537.537,0,0,1-.46.263.524.524,0,0,1-.263-.07l-2.591-1.495,0,2.99a.557.557,0,0,1-.069.265A.534.534,0,0,1-11103.461-4058.212Z"
                      transform="translate(12569.754 5887.219)" fill="url(#linear-gradient-8)"/>
                <path id="Subtraction_28" data-name="Subtraction 28"
                      d="M-11113.253-4052.709h0l-.395-.682a.531.531,0,0,1,.192-.722l2.594-1.5-2.591-1.5a.514.514,0,0,1-.193-.2.527.527,0,0,1,0-.527l.369-.64,5.055,2.858-5.027,2.9Z"
                      transform="translate(12573.717 5878.786)" fill="url(#linear-gradient-8)"/>
            </g>
            <g id="Group_1154" data-name="Group 1154" transform="translate(142 117)">
                <path id="Path_2128-2" data-name="Path 2128"
                      d="M12.32,8.306l-2.593-1.5,2.593-1.5a.527.527,0,0,0,.193-.721l-.792-1.372A.528.528,0,0,0,11,3.025l-2.593,1.5V1.528A.528.528,0,0,0,7.879,1H6.295a.528.528,0,0,0-.528.528V4.522l-2.593-1.5a.528.528,0,0,0-.721.193L1.66,4.59a.527.527,0,0,0,.193.721l2.593,1.5-2.593,1.5a.527.527,0,0,0-.193.721L2.453,10.4a.528.528,0,0,0,.721.193L5.767,9.1V12.09a.528.528,0,0,0,.528.528H7.879a.528.528,0,0,0,.528-.528V9.1L11,10.593a.528.528,0,0,0,.721-.193l.792-1.372a.527.527,0,0,0-.193-.721Z"
                      transform="translate(1458.411 1816.382)" fill="url(#linear-gradient-7)"/>
                <path id="Subtraction_24-2" data-name="Subtraction 24"
                      d="M-11116-4062.192V-4068h.792a.528.528,0,0,1,.527.527v2.993l2.592-1.5a.554.554,0,0,1,.266-.07.532.532,0,0,1,.457.262l.37.641-5,2.949Z"
                      transform="translate(12581.5 5885.383)" fill="url(#linear-gradient-8)"/>
                <path id="Subtraction_26-2" data-name="Subtraction 26"
                      d="M-11103.461-4058.212h-.739l-.053-5.807,5.028,2.9-.394.686a.537.537,0,0,1-.46.263.524.524,0,0,1-.263-.07l-2.591-1.495,0,2.99a.557.557,0,0,1-.069.265A.534.534,0,0,1-11103.461-4058.212Z"
                      transform="translate(12569.754 5887.219)" fill="url(#linear-gradient-8)"/>
                <path id="Subtraction_28-2" data-name="Subtraction 28"
                      d="M-11113.253-4052.709h0l-.395-.682a.531.531,0,0,1,.192-.722l2.594-1.5-2.591-1.5a.514.514,0,0,1-.193-.2.527.527,0,0,1,0-.527l.369-.64,5.055,2.858-5.027,2.9Z"
                      transform="translate(12573.717 5878.786)" fill="url(#linear-gradient-8)"/>
            </g>
            <g id="Group_1152" data-name="Group 1152" transform="translate(110 117)">
                <path id="Path_2128-3" data-name="Path 2128"
                      d="M12.32,8.306l-2.593-1.5,2.593-1.5a.527.527,0,0,0,.193-.721l-.792-1.372A.528.528,0,0,0,11,3.025l-2.593,1.5V1.528A.528.528,0,0,0,7.879,1H6.295a.528.528,0,0,0-.528.528V4.522l-2.593-1.5a.528.528,0,0,0-.721.193L1.66,4.59a.527.527,0,0,0,.193.721l2.593,1.5-2.593,1.5a.527.527,0,0,0-.193.721L2.453,10.4a.528.528,0,0,0,.721.193L5.767,9.1V12.09a.528.528,0,0,0,.528.528H7.879a.528.528,0,0,0,.528-.528V9.1L11,10.593a.528.528,0,0,0,.721-.193l.792-1.372a.527.527,0,0,0-.193-.721Z"
                      transform="translate(1458.411 1816.382)" fill="url(#linear-gradient-7)"/>
                <path id="Subtraction_24-3" data-name="Subtraction 24"
                      d="M-11116-4062.192V-4068h.792a.528.528,0,0,1,.527.527v2.993l2.592-1.5a.554.554,0,0,1,.266-.07.532.532,0,0,1,.457.262l.37.641-5,2.949Z"
                      transform="translate(12581.5 5885.383)" fill="url(#linear-gradient-8)"/>
                <path id="Subtraction_26-3" data-name="Subtraction 26"
                      d="M-11103.461-4058.212h-.739l-.053-5.807,5.028,2.9-.394.686a.537.537,0,0,1-.46.263.524.524,0,0,1-.263-.07l-2.591-1.495,0,2.99a.557.557,0,0,1-.069.265A.534.534,0,0,1-11103.461-4058.212Z"
                      transform="translate(12569.754 5887.219)" fill="url(#linear-gradient-8)"/>
                <path id="Subtraction_28-3" data-name="Subtraction 28"
                      d="M-11113.253-4052.709h0l-.395-.682a.531.531,0,0,1,.192-.722l2.594-1.5-2.591-1.5a.514.514,0,0,1-.193-.2.527.527,0,0,1,0-.527l.369-.64,5.055,2.858-5.027,2.9Z"
                      transform="translate(12573.717 5878.786)" fill="url(#linear-gradient-8)"/>
            </g>
            <g id="Group_1155" data-name="Group 1155" transform="translate(158 117)">
                <path id="Path_2128-4" data-name="Path 2128"
                      d="M12.32,8.306l-2.593-1.5,2.593-1.5a.527.527,0,0,0,.193-.721l-.792-1.372A.528.528,0,0,0,11,3.025l-2.593,1.5V1.528A.528.528,0,0,0,7.879,1H6.295a.528.528,0,0,0-.528.528V4.522l-2.593-1.5a.528.528,0,0,0-.721.193L1.66,4.59a.527.527,0,0,0,.193.721l2.593,1.5-2.593,1.5a.527.527,0,0,0-.193.721L2.453,10.4a.528.528,0,0,0,.721.193L5.767,9.1V12.09a.528.528,0,0,0,.528.528H7.879a.528.528,0,0,0,.528-.528V9.1L11,10.593a.528.528,0,0,0,.721-.193l.792-1.372a.527.527,0,0,0-.193-.721Z"
                      transform="translate(1458.411 1816.382)" fill="url(#linear-gradient-7)"/>
                <path id="Subtraction_24-4" data-name="Subtraction 24"
                      d="M-11116-4062.192V-4068h.792a.528.528,0,0,1,.527.527v2.993l2.592-1.5a.554.554,0,0,1,.266-.07.532.532,0,0,1,.457.262l.37.641-5,2.949Z"
                      transform="translate(12581.5 5885.383)" fill="url(#linear-gradient-8)"/>
                <path id="Subtraction_26-4" data-name="Subtraction 26"
                      d="M-11103.461-4058.212h-.739l-.053-5.807,5.028,2.9-.394.686a.537.537,0,0,1-.46.263.524.524,0,0,1-.263-.07l-2.591-1.495,0,2.99a.557.557,0,0,1-.069.265A.534.534,0,0,1-11103.461-4058.212Z"
                      transform="translate(12569.754 5887.219)" fill="url(#linear-gradient-8)"/>
                <path id="Subtraction_28-4" data-name="Subtraction 28"
                      d="M-11113.253-4052.709h0l-.395-.682a.531.531,0,0,1,.192-.722l2.594-1.5-2.591-1.5a.514.514,0,0,1-.193-.2.527.527,0,0,1,0-.527l.369-.64,5.055,2.858-5.027,2.9Z"
                      transform="translate(12573.717 5878.786)" fill="url(#linear-gradient-8)"/>
            </g>
            <g id="Group_1157" data-name="Group 1157" transform="translate(190 117)">
                <path id="Path_2128-5" data-name="Path 2128"
                      d="M12.32,8.306l-2.593-1.5,2.593-1.5a.527.527,0,0,0,.193-.721l-.792-1.372A.528.528,0,0,0,11,3.025l-2.593,1.5V1.528A.528.528,0,0,0,7.879,1H6.295a.528.528,0,0,0-.528.528V4.522l-2.593-1.5a.528.528,0,0,0-.721.193L1.66,4.59a.527.527,0,0,0,.193.721l2.593,1.5-2.593,1.5a.527.527,0,0,0-.193.721L2.453,10.4a.528.528,0,0,0,.721.193L5.767,9.1V12.09a.528.528,0,0,0,.528.528H7.879a.528.528,0,0,0,.528-.528V9.1L11,10.593a.528.528,0,0,0,.721-.193l.792-1.372a.527.527,0,0,0-.193-.721Z"
                      transform="translate(1458.411 1816.382)" fill="url(#linear-gradient-7)"/>
                <path id="Subtraction_24-5" data-name="Subtraction 24"
                      d="M-11116-4062.192V-4068h.792a.528.528,0,0,1,.527.527v2.993l2.592-1.5a.554.554,0,0,1,.266-.07.532.532,0,0,1,.457.262l.37.641-5,2.949Z"
                      transform="translate(12581.5 5885.383)" fill="url(#linear-gradient-8)"/>
                <path id="Subtraction_26-5" data-name="Subtraction 26"
                      d="M-11103.461-4058.212h-.739l-.053-5.807,5.028,2.9-.394.686a.537.537,0,0,1-.46.263.524.524,0,0,1-.263-.07l-2.591-1.495,0,2.99a.557.557,0,0,1-.069.265A.534.534,0,0,1-11103.461-4058.212Z"
                      transform="translate(12569.754 5887.219)" fill="url(#linear-gradient-8)"/>
                <path id="Subtraction_28-5" data-name="Subtraction 28"
                      d="M-11113.253-4052.709h0l-.395-.682a.531.531,0,0,1,.192-.722l2.594-1.5-2.591-1.5a.514.514,0,0,1-.193-.2.527.527,0,0,1,0-.527l.369-.64,5.055,2.858-5.027,2.9Z"
                      transform="translate(12573.717 5878.786)" fill="url(#linear-gradient-8)"/>
            </g>
            <g id="Group_1153" data-name="Group 1153" transform="translate(126 117)">
                <path id="Path_2128-6" data-name="Path 2128"
                      d="M12.32,8.306l-2.593-1.5,2.593-1.5a.527.527,0,0,0,.193-.721l-.792-1.372A.528.528,0,0,0,11,3.025l-2.593,1.5V1.528A.528.528,0,0,0,7.879,1H6.295a.528.528,0,0,0-.528.528V4.522l-2.593-1.5a.528.528,0,0,0-.721.193L1.66,4.59a.527.527,0,0,0,.193.721l2.593,1.5-2.593,1.5a.527.527,0,0,0-.193.721L2.453,10.4a.528.528,0,0,0,.721.193L5.767,9.1V12.09a.528.528,0,0,0,.528.528H7.879a.528.528,0,0,0,.528-.528V9.1L11,10.593a.528.528,0,0,0,.721-.193l.792-1.372a.527.527,0,0,0-.193-.721Z"
                      transform="translate(1458.411 1816.382)" fill="url(#linear-gradient-7)"/>
                <path id="Subtraction_24-6" data-name="Subtraction 24"
                      d="M-11116-4062.192V-4068h.792a.528.528,0,0,1,.527.527v2.993l2.592-1.5a.554.554,0,0,1,.266-.07.532.532,0,0,1,.457.262l.37.641-5,2.949Z"
                      transform="translate(12581.5 5885.383)" fill="url(#linear-gradient-8)"/>
                <path id="Subtraction_26-6" data-name="Subtraction 26"
                      d="M-11103.461-4058.212h-.739l-.053-5.807,5.028,2.9-.394.686a.537.537,0,0,1-.46.263.524.524,0,0,1-.263-.07l-2.591-1.495,0,2.99a.557.557,0,0,1-.069.265A.534.534,0,0,1-11103.461-4058.212Z"
                      transform="translate(12569.754 5887.219)" fill="url(#linear-gradient-8)"/>
                <path id="Subtraction_28-6" data-name="Subtraction 28"
                      d="M-11113.253-4052.709h0l-.395-.682a.531.531,0,0,1,.192-.722l2.594-1.5-2.591-1.5a.514.514,0,0,1-.193-.2.527.527,0,0,1,0-.527l.369-.64,5.055,2.858-5.027,2.9Z"
                      transform="translate(12573.717 5878.786)" fill="url(#linear-gradient-8)"/>
            </g>
            <g id="Group_1156" data-name="Group 1156" transform="translate(174 117)">
                <path id="Path_2128-7" data-name="Path 2128"
                      d="M12.32,8.306l-2.593-1.5,2.593-1.5a.527.527,0,0,0,.193-.721l-.792-1.372A.528.528,0,0,0,11,3.025l-2.593,1.5V1.528A.528.528,0,0,0,7.879,1H6.295a.528.528,0,0,0-.528.528V4.522l-2.593-1.5a.528.528,0,0,0-.721.193L1.66,4.59a.527.527,0,0,0,.193.721l2.593,1.5-2.593,1.5a.527.527,0,0,0-.193.721L2.453,10.4a.528.528,0,0,0,.721.193L5.767,9.1V12.09a.528.528,0,0,0,.528.528H7.879a.528.528,0,0,0,.528-.528V9.1L11,10.593a.528.528,0,0,0,.721-.193l.792-1.372a.527.527,0,0,0-.193-.721Z"
                      transform="translate(1458.411 1816.382)" fill="url(#linear-gradient-7)"/>
                <path id="Subtraction_24-7" data-name="Subtraction 24"
                      d="M-11116-4062.192V-4068h.792a.528.528,0,0,1,.527.527v2.993l2.592-1.5a.554.554,0,0,1,.266-.07.532.532,0,0,1,.457.262l.37.641-5,2.949Z"
                      transform="translate(12581.5 5885.383)" fill="url(#linear-gradient-8)"/>
                <path id="Subtraction_26-7" data-name="Subtraction 26"
                      d="M-11103.461-4058.212h-.739l-.053-5.807,5.028,2.9-.394.686a.537.537,0,0,1-.46.263.524.524,0,0,1-.263-.07l-2.591-1.495,0,2.99a.557.557,0,0,1-.069.265A.534.534,0,0,1-11103.461-4058.212Z"
                      transform="translate(12569.754 5887.219)" fill="url(#linear-gradient-8)"/>
                <path id="Subtraction_28-7" data-name="Subtraction 28"
                      d="M-11113.253-4052.709h0l-.395-.682a.531.531,0,0,1,.192-.722l2.594-1.5-2.591-1.5a.514.514,0,0,1-.193-.2.527.527,0,0,1,0-.527l.369-.64,5.055,2.858-5.027,2.9Z"
                      transform="translate(12573.717 5878.786)" fill="url(#linear-gradient-8)"/>
            </g>
            <g id="Group_1158" data-name="Group 1158" transform="translate(206 117)">
                <path id="Path_2128-8" data-name="Path 2128"
                      d="M12.32,8.306l-2.593-1.5,2.593-1.5a.527.527,0,0,0,.193-.721l-.792-1.372A.528.528,0,0,0,11,3.025l-2.593,1.5V1.528A.528.528,0,0,0,7.879,1H6.295a.528.528,0,0,0-.528.528V4.522l-2.593-1.5a.528.528,0,0,0-.721.193L1.66,4.59a.527.527,0,0,0,.193.721l2.593,1.5-2.593,1.5a.527.527,0,0,0-.193.721L2.453,10.4a.528.528,0,0,0,.721.193L5.767,9.1V12.09a.528.528,0,0,0,.528.528H7.879a.528.528,0,0,0,.528-.528V9.1L11,10.593a.528.528,0,0,0,.721-.193l.792-1.372a.527.527,0,0,0-.193-.721Z"
                      transform="translate(1458.411 1816.382)" fill="url(#linear-gradient-7)"/>
                <path id="Subtraction_24-8" data-name="Subtraction 24"
                      d="M-11116-4062.192V-4068h.792a.528.528,0,0,1,.527.527v2.993l2.592-1.5a.554.554,0,0,1,.266-.07.532.532,0,0,1,.457.262l.37.641-5,2.949Z"
                      transform="translate(12581.5 5885.383)" fill="url(#linear-gradient-8)"/>
                <path id="Subtraction_26-8" data-name="Subtraction 26"
                      d="M-11103.461-4058.212h-.739l-.053-5.807,5.028,2.9-.394.686a.537.537,0,0,1-.46.263.524.524,0,0,1-.263-.07l-2.591-1.495,0,2.99a.557.557,0,0,1-.069.265A.534.534,0,0,1-11103.461-4058.212Z"
                      transform="translate(12569.754 5887.219)" fill="url(#linear-gradient-8)"/>
                <path id="Subtraction_28-8" data-name="Subtraction 28"
                      d="M-11113.253-4052.709h0l-.395-.682a.531.531,0,0,1,.192-.722l2.594-1.5-2.591-1.5a.514.514,0,0,1-.193-.2.527.527,0,0,1,0-.527l.369-.64,5.055,2.858-5.027,2.9Z"
                      transform="translate(12573.717 5878.786)" fill="url(#linear-gradient-8)"/>
            </g>
        </g>
        <g id="Group_1256" data-name="Group 1256" transform="translate(387 159.305)">
            <path id="Path_2177" data-name="Path 2177"
                  d="M2.022,34.9H4.963A21.365,21.365,0,0,1,41.485,19.7,21.341,21.341,0,0,1,48.1,34.9H48.1l0,.061,0,.075H48.1a21.515,21.515,0,0,1-21.374,21.49,21.24,21.24,0,0,1-15.129-6.318l4.8-4.626a14.7,14.7,0,1,0,20.3-21.261A14.667,14.667,0,0,0,11.66,34.878V34.9h2.906c1.8,0,2.536,1.206,1.635,2.674l-6.272,6.2c-1.435,1.435-1.849,1.422-3.274,0l-6.272-6.2C-.516,36.1.22,34.9,2.022,34.9Z"
                  transform="translate(0 -13.394)" fill="url(#linear-gradient-39)"/>
            <path id="Intersection_11" data-name="Intersection 11"
                  d="M0,18A18.2,18.2,0,0,1,18.4,0,18.554,18.554,0,0,1,31.221,5.089L28.713,7.508a14.7,14.7,0,1,0-20.3,21.262,14.668,14.668,0,0,0,25.03-10.556V18.19H30.537c-1.8,0-2.536-1.206-1.635-2.674l5.847-5.783A17.613,17.613,0,0,1,36.8,18,18.2,18.2,0,0,1,18.4,36,18.2,18.2,0,0,1,0,18Z"
                  transform="translate(45.104 39.698) rotate(180)" fill="url(#linear-gradient-40)"/>
        </g>
    </g>
</svg>
