<?xml version="1.0" encoding="utf-8"?>

<!--
 * Copyright (c) 2020, WSO2 Inc. (http://www.wso2.org) All Rights Reserved.
 *
 * WSO2 Inc. licenses this file to you under the Apache License,
 * Version 2.0 (the "License"); you may not use this file except
 * in compliance with the License.
 * You may obtain a copy of the License at
 *
 *     http://www.apache.org/licenses/LICENSE-2.0
 *
 * Unless required by applicable law or agreed to in writing,
 * software distributed under the License is distributed on an
 * "AS IS" BASIS, WITHOUT WARRANTIES OR CONDITIONS OF ANY
 * KIND, either express or implied. See the License for the
 * specific language governing permissions and limitations
 * under the License.
-->

<svg xmlns="http://www.w3.org/2000/svg" xmlns:xlink="http://www.w3.org/1999/xlink" width="304.445" height="184.789"
     viewBox="0 0 304.445 184.789">
    <defs>
        <filter id="Path_1950" x="117.375" y="49.715" width="87.626" height="105.79" filterUnits="userSpaceOnUse">
            <feOffset dy="3" input="SourceAlpha"/>
            <feGaussianBlur stdDeviation="3" result="blur"/>
            <feFlood flood-opacity="0.161"/>
            <feComposite operator="in" in2="blur"/>
            <feComposite in="SourceGraphic"/>
        </filter>
    </defs>
    <g id="user-claim-update-illustration" transform="translate(-141.222 -51.495)">
        <path id="Path_81"
              d="M163.973,73.972A38.194,38.194,0,0,0,141.32,50.558a13.869,13.869,0,0,1-8.946-12.789V37.4A38.273,38.273,0,0,0,63.3,15.568a31.233,31.233,0,0,1-25,12.959q-.437,0-.875.009A39,39,0,0,0,0,66.285a38.284,38.284,0,0,0,74.235,13.67,7.834,7.834,0,0,1,9.5-4.79l.149.042a7.814,7.814,0,0,1,5.691,8.146,38.282,38.282,0,1,0,74.393-9.387Z"
              transform="translate(246.616 51.495) rotate(26)" fill="#dbdbdb" opacity="0.24"/>
        <path id="Path_95"
              d="M424.493,166.965a.914.914,0,0,1-.914-.914,1.1,1.1,0,0,0-1.1-1.1.915.915,0,0,1,0-1.829,1.1,1.1,0,0,0,1.1-1.1.915.915,0,1,1,1.829,0,1.1,1.1,0,0,0,1.1,1.1.915.915,0,0,1,0,1.829,1.1,1.1,0,0,0-1.1,1.1.914.914,0,0,1-.914.914Z"
              transform="translate(-243.207 65.047)" fill="#e5e5e5"/>
        <path id="Path_96"
              d="M68.794,419.851a.915.915,0,0,1-.645-.267l-2-2a.914.914,0,0,1,0-1.291l2-2a.914.914,0,0,1,1.291,0l2,2a.914.914,0,0,1,0,1.291l-2,2.008A.915.915,0,0,1,68.794,419.851Zm-.711-2.917.711.711.711-.711-.711-.708Z"
              transform="translate(75.344 -301.841)" fill="rgba(157,157,157,0.7)"/>
        <path id="Path_98"
              d="M141.064,46.254a.914.914,0,0,1-.645-.267l-2-2.005a.914.914,0,0,1,0-1.291l2-2a.914.914,0,0,1,1.291,0l2,2a.914.914,0,0,1,0,1.291l-2,2a.909.909,0,0,1-.645.267Zm-.711-2.917.711.711.711-.711-.711-.711Z"
              transform="translate(301.688 97.79)" fill="rgba(157,157,157,0.7)"/>
        <path id="Path_98-2" data-name="Path_98"
              d="M141.064,46.254a.914.914,0,0,1-.645-.267l-2-2.005a.914.914,0,0,1,0-1.291l2-2a.914.914,0,0,1,1.291,0l2,2a.914.914,0,0,1,0,1.291l-2,2a.909.909,0,0,1-.645.267Zm-.711-2.917.711.711.711-.711-.711-.711Z"
              transform="translate(145.688 57.79)" fill="rgba(157,157,157,0.7)"/>
        <path id="padlock"
              d="M70.9,3.681V2.932a2.932,2.932,0,1,0-5.864,0v.749a1.169,1.169,0,0,0-.586,1.01V8.209a1.174,1.174,0,0,0,1.173,1.173h4.691a1.174,1.174,0,0,0,1.173-1.173V4.691a1.169,1.169,0,0,0-.586-1.01ZM67.963,1.173a1.761,1.761,0,0,1,1.759,1.759v.586H66.2V2.932a1.761,1.761,0,0,1,1.759-1.759Zm.586,5.635v.815H67.377V6.808a.88.88,0,1,1,1.173,0Z"
              transform="translate(259.555 217)" fill="#6b6b6b" opacity="0.55"/>
        <path id="padlock-2" data-name="padlock"
              d="M70.9,3.681V2.932a2.932,2.932,0,1,0-5.864,0v.749a1.169,1.169,0,0,0-.586,1.01V8.209a1.174,1.174,0,0,0,1.173,1.173h4.691a1.174,1.174,0,0,0,1.173-1.173V4.691a1.169,1.169,0,0,0-.586-1.01ZM67.963,1.173a1.761,1.761,0,0,1,1.759,1.759v.586H66.2V2.932a1.761,1.761,0,0,1,1.759-1.759Zm.586,5.635v.815H67.377V6.808a.88.88,0,1,1,1.173,0Z"
              transform="translate(134.555 157)" fill="#6b6b6b" opacity="0.55"/>
        <g id="history" transform="translate(227.597 83.21)">
            <g transform="matrix(1, 0, 0, 1, -86.37, -31.72)" filter="url(#Path_1950)">
                <path id="Path_1950-2" data-name="Path 1950"
                      d="M103.572,111.79H46.054A6.054,6.054,0,0,1,40,105.735V30.054A6.054,6.054,0,0,1,46.054,24H91.463l18.163,18.163v63.572A6.054,6.054,0,0,1,103.572,111.79Z"
                      transform="translate(86.37 31.72)" fill="#bdbdbd"/>
            </g>
            <g id="Group_1063" data-name="Group 1063" transform="translate(47.568 24)">
                <path id="Path_1951" data-name="Path 1951" d="M330.163,42.163H318.054A6.054,6.054,0,0,1,312,36.109V24Z"
                      transform="translate(-268.105 -24)" fill="#606060"/>
                <path id="Path_1952" data-name="Path 1952"
                      d="M197.84,163.027H161.514a1.514,1.514,0,0,1,0-3.027H197.84a1.514,1.514,0,0,1,0,3.027Z"
                      transform="translate(-144.864 -134.269)" fill="#606060"/>
                <path id="Path_1953" data-name="Path 1953"
                      d="M111.786,211.027H81.514a1.514,1.514,0,0,1,0-3.027h30.272a1.514,1.514,0,0,1,0,3.027Z"
                      transform="translate(-80 -173.187)" fill="#606060"/>
                <path id="Path_1954" data-name="Path 1954"
                      d="M221.623,259.027H209.514a1.514,1.514,0,0,1,0-3.027h12.109a1.514,1.514,0,0,1,0,3.027Z"
                      transform="translate(-183.782 -212.105)" fill="#606060"/>
                <path id="Path_1955" data-name="Path 1955"
                      d="M108.759,307.027H81.514a1.514,1.514,0,0,1,0-3.027h27.245a1.514,1.514,0,0,1,0,3.027Z"
                      transform="translate(-80 -251.024)" fill="#606060"/>
                <path id="Path_1957" data-name="Path 1957"
                      d="M288.65,211.027H273.514a1.514,1.514,0,0,1,0-3.027H288.65a1.514,1.514,0,0,1,0,3.027Z"
                      transform="translate(-235.673 -173.187)" fill="#606060"/>
                <path id="Path_1958" data-name="Path 1958"
                      d="M99.677,259.027H81.514a1.514,1.514,0,0,1,0-3.027H99.677a1.514,1.514,0,0,1,0,3.027Z"
                      transform="translate(-80 -212.105)" fill="#606060"/>
                <path id="Path_2026" data-name="Path 2026"
                      d="M99.677,259.027H81.514a1.514,1.514,0,0,1,0-3.027H99.677a1.514,1.514,0,0,1,0,3.027Z"
                      transform="translate(-47 -203.105)" fill="#606060"/>
                <path id="Path_1959" data-name="Path 1959"
                      d="M183.568,403.027h-6.054a1.514,1.514,0,0,1,0-3.027h6.054a1.514,1.514,0,0,1,0,3.027Z"
                      transform="translate(-157.837 -328.86)" fill="#606060"/>
                <path id="Path_1960" data-name="Path 1960"
                      d="M93.623,403.027H81.514a1.514,1.514,0,0,1,0-3.027H93.623a1.514,1.514,0,0,1,0,3.027Z"
                      transform="translate(-80 -328.86)" fill="#606060"/>
                <path id="Path_1961" data-name="Path 1961"
                      d="M90.6,355.027H81.514a1.514,1.514,0,1,1,0-3.027H90.6a1.514,1.514,0,1,1,0,3.027Z"
                      transform="translate(-80 -289.942)" fill="#606060"/>
                <path id="Path_1962" data-name="Path 1962"
                      d="M99.677,115.027H81.514a1.514,1.514,0,1,1,0-3.027H99.677a1.514,1.514,0,1,1,0,3.027Z"
                      transform="translate(-64.865 -95.35)" fill="#606060"/>
                <path id="Path_1963" data-name="Path 1963"
                      d="M170.6,355.027h-9.082a1.514,1.514,0,1,1,0-3.027H170.6a1.514,1.514,0,1,1,0,3.027Z"
                      transform="translate(-144.864 -289.942)" fill="#606060"/>
            </g>
            <path id="claim_outline" data-name="claim outline"
                  d="M13.255,14.273a4.007,4.007,0,1,0-8.014,0,.871.871,0,0,1-1.742,0A5.742,5.742,0,0,1,7.267,8.884a3.489,3.489,0,1,1,3.962,0A5.738,5.738,0,0,1,15,14.273a.871.871,0,0,1-1.742,0ZM7.5,6.012A1.747,1.747,0,1,0,9.249,4.267,1.749,1.749,0,0,0,7.5,6.012Z"
                  transform="translate(44.304 38.156)" fill="#606060"/>
        </g>
    </g>
</svg>
