<?xml version="1.0" encoding="utf-8"?>

<!--
 * Copyright (c) 2020, WSO2 Inc. (http://www.wso2.org) All Rights Reserved.
 *
 * WSO2 Inc. licenses this file to you under the Apache License,
 * Version 2.0 (the "License"); you may not use this file except
 * in compliance with the License.
 * You may obtain a copy of the License at
 *
 *     http://www.apache.org/licenses/LICENSE-2.0
 *
 * Unless required by applicable law or agreed to in writing,
 * software distributed under the License is distributed on an
 * "AS IS" BASIS, WITHOUT WARRANTIES OR CONDITIONS OF ANY
 * KIND, either express or implied. See the License for the
 * specific language governing permissions and limitations
 * under the License.
-->

<svg xmlns="http://www.w3.org/2000/svg" xmlns:xlink="http://www.w3.org/1999/xlink" width="304.445" height="133.802"
     viewBox="0 0 304.445 133.802">
    <defs>
        <linearGradient id="linear-gradient" x1="0.274" y1="0.5" x2="1" y2="0.5" gradientUnits="objectBoundingBox">
            <stop offset="0" stop-color="#fff"/>
            <stop offset="1" stop-color="#dbdddf"/>
        </linearGradient>
        <linearGradient id="linear-gradient-3" x1="0.274" y1="0.5" x2="1" y2="0.5" gradientUnits="objectBoundingBox">
            <stop offset="0" stop-color="#fff" stop-opacity="0"/>
            <stop offset="1" stop-color="#dbdddf"/>
        </linearGradient>
        <linearGradient id="linear-gradient-4" x1="0.236" y1="0.169" x2="0.821" y2="1.634"
                        gradientUnits="objectBoundingBox">
            <stop offset="0" stop-color="#ff8313"/>
            <stop offset="1" stop-color="#ff5402"/>
        </linearGradient>
        <linearGradient id="linear-gradient-5" x1="0.783" y1="1.027" x2="0.103" y2="-0.072"
                        xlink:href="#linear-gradient-4"/>
        <linearGradient id="linear-gradient-6" x1="0.084" y1="0.36" x2="0.818" y2="0.733"
                        gradientUnits="objectBoundingBox">
            <stop offset="0" stop-color="#e34700"/>
            <stop offset="0.472" stop-color="#e54800" stop-opacity="0.494"/>
            <stop offset="1" stop-color="#f34c00" stop-opacity="0"/>
        </linearGradient>
        <radialGradient id="radial-gradient" cx="0.208" cy="0.202" r="0.5" gradientUnits="objectBoundingBox">
            <stop offset="0" stop-color="#34b0f3"/>
            <stop offset="1" stop-color="#006faa"/>
        </radialGradient>
        <radialGradient id="radial-gradient-2" cx="0" cy="0.233" r="0.764"
                        gradientTransform="translate(0.106 0.025) rotate(27.054)" gradientUnits="objectBoundingBox">
            <stop offset="0" stop-color="#33b6fc"/>
            <stop offset="1" stop-color="#006faa"/>
        </radialGradient>
        <linearGradient id="linear-gradient-7" x1="0.433" x2="0.678" y2="0.398" gradientUnits="objectBoundingBox">
            <stop offset="0" stop-color="#006faa"/>
            <stop offset="1" stop-color="#0a7cb8" stop-opacity="0"/>
        </linearGradient>
        <linearGradient id="linear-gradient-8" x1="0.719" y1="0.4" x2="1.177" y2="0.537"
                        gradientUnits="objectBoundingBox">
            <stop offset="0" stop-color="#0070ac" stop-opacity="0"/>
            <stop offset="1" stop-color="#064769"/>
        </linearGradient>
        <radialGradient id="radial-gradient-3" cx="0.208" cy="0.202" r="0.5" gradientUnits="objectBoundingBox">
            <stop offset="0" stop-color="#29dbd3"/>
            <stop offset="1" stop-color="#22beb8"/>
        </radialGradient>
        <radialGradient id="radial-gradient-4" cx="0" cy="0.233" r="0.764"
                        gradientTransform="translate(0.106 0.025) rotate(27.054)" gradientUnits="objectBoundingBox">
            <stop offset="0" stop-color="#29dcd3"/>
            <stop offset="1" stop-color="#22bcb6"/>
        </radialGradient>
        <linearGradient id="linear-gradient-10" x1="0.433" x2="0.678" y2="0.398" gradientUnits="objectBoundingBox">
            <stop offset="0" stop-color="#00a69f"/>
            <stop offset="1" stop-color="#00a69f" stop-opacity="0"/>
        </linearGradient>
        <linearGradient id="linear-gradient-11" x1="0.719" y1="0.4" x2="1.177" y2="0.537"
                        gradientUnits="objectBoundingBox">
            <stop offset="0" stop-color="#15b5af" stop-opacity="0.49"/>
            <stop offset="1" stop-color="#00a69f"/>
        </linearGradient>
        <radialGradient id="radial-gradient-5" cx="0.208" cy="0.202" r="0.5" gradientUnits="objectBoundingBox">
            <stop offset="0" stop-color="#fff"/>
            <stop offset="1" stop-color="#f0f0f0"/>
        </radialGradient>
        <radialGradient id="radial-gradient-6" cx="0" cy="0.233" r="0.764"
                        gradientTransform="translate(0.106 0.025) rotate(27.054)" xlink:href="#radial-gradient-5"/>
        <linearGradient id="linear-gradient-13" x1="0.433" x2="0.678" y2="0.398" gradientUnits="objectBoundingBox">
            <stop offset="0" stop-color="#ccc"/>
            <stop offset="1" stop-color="#ccc" stop-opacity="0.169"/>
        </linearGradient>
        <linearGradient id="linear-gradient-14" x1="0.719" y1="0.4" x2="1.177" y2="0.537"
                        gradientUnits="objectBoundingBox">
            <stop offset="0" stop-color="#ccc" stop-opacity="0.188"/>
            <stop offset="1" stop-color="#ccc"/>
        </linearGradient>
    </defs>
    <g id="user-onboarding" transform="translate(-141.222 -98.21)">
        <g id="lock-idle-accounts-illustration">
            <rect id="Rectangle_455" data-name="Rectangle 455" width="66" height="5" transform="translate(170 180)"
                  opacity="0.6" fill="url(#linear-gradient)"/>
            <g id="Group_1162" data-name="Group 1162" transform="translate(-1385 -1581)">
                <g id="Path_2178" data-name="Path 2178" transform="translate(1584 1697)" fill="#f4f2f1">
                    <path d="M 34.5 68 C 29.97709083557129 68 25.59000015258789 67.11441040039063 21.46059989929199 65.36782073974609 C 17.47155952453613 63.68059921264648 13.88883018493652 61.26498031616211 10.81192016601563 58.18807983398438 C 7.735020160675049 55.11117935180664 5.319409847259521 51.52843856811523 3.632189989089966 47.53940963745117 C 1.885599970817566 43.40999984741211 1 39.02291107177734 1 34.5 C 1 29.97709083557129 1.885599970817566 25.59000015258789 3.632189989089966 21.46059989929199 C 5.319409847259521 17.47155952453613 7.735020160675049 13.88883018493652 10.81192016601563 10.81192016601563 C 13.88883018493652 7.735020160675049 17.47155952453613 5.319409847259521 21.46059989929199 3.632189989089966 C 25.59000015258789 1.885599970817566 29.97709083557129 1 34.5 1 C 39.02291107177734 1 43.40999984741211 1.885599970817566 47.53940963745117 3.632189989089966 C 51.52843856811523 5.319409847259521 55.11117935180664 7.735020160675049 58.18807983398438 10.81192016601563 C 61.26498031616211 13.88883018493652 63.68059921264648 17.47155952453613 65.36782073974609 21.46059989929199 C 67.11441040039063 25.59000015258789 68 29.97709083557129 68 34.5 C 68 39.02291107177734 67.11441040039063 43.40999984741211 65.36782073974609 47.53940963745117 C 63.68059921264648 51.52843856811523 61.26498031616211 55.11117935180664 58.18807983398438 58.18807983398438 C 55.11117935180664 61.26498031616211 51.52843856811523 63.68059921264648 47.53940963745117 65.36782073974609 C 43.40999984741211 67.11441040039063 39.02291107177734 68 34.5 68 Z"
                          stroke="none"/>
                    <path d="M 34.5 2 C 30.11164474487305 2 25.85562133789063 2.859024047851563 21.85014343261719 4.553192138671875 C 17.98031234741211 6.189987182617188 14.50442123413086 8.533645629882813 11.5190315246582 11.5190315246582 C 8.533645629882813 14.50442123413086 6.189987182617188 17.98031234741211 4.553192138671875 21.85014343261719 C 2.859024047851563 25.85562133789063 2 30.11164474487305 2 34.5 C 2 38.88835525512695 2.859024047851563 43.14437866210938 4.553192138671875 47.14985656738281 C 6.189987182617188 51.01969146728516 8.533645629882813 54.49557876586914 11.5190315246582 57.48096466064453 C 14.50442123413086 60.46635437011719 17.98031234741211 62.81001281738281 21.85014343261719 64.44680786132813 C 25.85562133789063 66.14097595214844 30.11164474487305 67 34.5 67 C 38.88835525512695 67 43.14437866210938 66.14097595214844 47.14985656738281 64.44680786132813 C 51.01969146728516 62.81001281738281 54.49557876586914 60.46635437011719 57.48096466064453 57.48096466064453 C 60.46635437011719 54.49557876586914 62.81001281738281 51.01969146728516 64.44680786132813 47.14985656738281 C 66.14097595214844 43.14437866210938 67 38.88835525512695 67 34.5 C 67 30.11164474487305 66.14097595214844 25.85562133789063 64.44680786132813 21.85014343261719 C 62.81001281738281 17.98031234741211 60.46635437011719 14.50442123413086 57.48096466064453 11.5190315246582 C 54.49557876586914 8.533645629882813 51.01969146728516 6.189987182617188 47.14985656738281 4.553192138671875 C 43.14437866210938 2.859024047851563 38.88835525512695 2 34.5 2 M 34.5 0 C 53.5538215637207 0 69 15.4461784362793 69 34.5 C 69 53.5538215637207 53.5538215637207 69 34.5 69 C 15.4461784362793 69 0 53.5538215637207 0 34.5 C 0 15.4461784362793 15.4461784362793 0 34.5 0 Z"
                          stroke="none" fill="#e6e3df"/>
                </g>
                <path id="application-outline"
                      d="M1.961,45.726,0,45.723A22.951,22.951,0,0,1,17.676,25.08a13.066,13.066,0,1,1,10.256,0A22.955,22.955,0,0,1,45.608,45.72l-1.966,0a20.9,20.9,0,0,0-41.678,0v0ZM11.7,13.063A11.105,11.105,0,1,0,22.8,1.961,11.118,11.118,0,0,0,11.7,13.063Z"
                      transform="translate(1595.926 1711.759)" fill="#e6e3df"/>
            </g>
            <path id="Path_95"
                  d="M424.493,166.965a.914.914,0,0,1-.914-.914,1.1,1.1,0,0,0-1.1-1.1.915.915,0,0,1,0-1.829,1.1,1.1,0,0,0,1.1-1.1.915.915,0,1,1,1.829,0,1.1,1.1,0,0,0,1.1,1.1.915.915,0,0,1,0,1.829,1.1,1.1,0,0,0-1.1,1.1.914.914,0,0,1-.914.914Z"
                  transform="translate(-243.207 65.047)" fill="#ffe783"/>
            <path id="Path_96"
                  d="M68.794,419.851a.915.915,0,0,1-.645-.267l-2-2a.914.914,0,0,1,0-1.291l2-2a.914.914,0,0,1,1.291,0l2,2a.914.914,0,0,1,0,1.291l-2,2.008A.915.915,0,0,1,68.794,419.851Zm-.711-2.917.711.711.711-.711-.711-.708Z"
                  transform="translate(75.344 -301.841)" fill="#ffe783"/>
            <path id="Path_98"
                  d="M141.064,46.254a.914.914,0,0,1-.645-.267l-2-2.005a.914.914,0,0,1,0-1.291l2-2a.914.914,0,0,1,1.291,0l2,2a.914.914,0,0,1,0,1.291l-2,2a.909.909,0,0,1-.645.267Zm-.711-2.917.711.711.711-.711-.711-.711Z"
                  transform="translate(301.688 97.79)" fill="#ffe783"/>
            <path id="Path_98-2" data-name="Path_98"
                  d="M141.064,46.254a.914.914,0,0,1-.645-.267l-2-2.005a.914.914,0,0,1,0-1.291l2-2a.914.914,0,0,1,1.291,0l2,2a.914.914,0,0,1,0,1.291l-2,2a.909.909,0,0,1-.645.267Zm-.711-2.917.711.711.711-.711-.711-.711Z"
                  transform="translate(145.688 57.79)" fill="#ffe783"/>
            <path id="padlock"
                  d="M70.9,3.681V2.932a2.932,2.932,0,1,0-5.864,0v.749a1.169,1.169,0,0,0-.586,1.01V8.209a1.174,1.174,0,0,0,1.173,1.173h4.691a1.174,1.174,0,0,0,1.173-1.173V4.691a1.169,1.169,0,0,0-.586-1.01ZM67.963,1.173a1.761,1.761,0,0,1,1.759,1.759v.586H66.2V2.932a1.761,1.761,0,0,1,1.759-1.759Zm.586,5.635v.815H67.377V6.808a.88.88,0,1,1,1.173,0Z"
                  transform="translate(259.555 217)" fill="#ffb18d"/>
            <path id="padlock-2" data-name="padlock"
                  d="M70.9,3.681V2.932a2.932,2.932,0,1,0-5.864,0v.749a1.169,1.169,0,0,0-.586,1.01V8.209a1.174,1.174,0,0,0,1.173,1.173h4.691a1.174,1.174,0,0,0,1.173-1.173V4.691a1.169,1.169,0,0,0-.586-1.01ZM67.963,1.173a1.761,1.761,0,0,1,1.759,1.759v.586H66.2V2.932a1.761,1.761,0,0,1,1.759-1.759Zm.586,5.635v.815H67.377V6.808a.88.88,0,1,1,1.173,0Z"
                  transform="translate(134.555 157)" fill="#ffb18d"/>
            <rect id="Rectangle_446" data-name="Rectangle 446" width="66" height="5" transform="translate(210 197)"
                  fill="url(#linear-gradient)"/>
            <g id="Group_1135" data-name="Group 1135" transform="translate(61 -7)">
                <rect id="Rectangle_448" data-name="Rectangle 448" width="66" height="5" transform="translate(234 186)"
                      fill="url(#linear-gradient-3)"/>
                <g id="Path_2110" data-name="Path 2110" transform="translate(280 122)" fill="#f4f2f1">
                    <path d="M 92 68 L 3 68 C 1.897199988365173 68 1 67.10279846191406 1 66 L 1 3 C 1 1.897199988365173 1.897199988365173 1 3 1 L 92 1 C 93.10279846191406 1 94 1.897199988365173 94 3 L 94 66 C 94 67.10279846191406 93.10279846191406 68 92 68 Z"
                          stroke="none"/>
                    <path d="M 3 2 C 2.448600769042969 2 2 2.448600769042969 2 3 L 2 66 C 2 66.55139923095703 2.448600769042969 67 3 67 L 92 67 C 92.55139923095703 67 93 66.55139923095703 93 66 L 93 3 C 93 2.448600769042969 92.55139923095703 2 92 2 L 3 2 M 3 0 L 92 0 C 93.6568603515625 0 95 1.3431396484375 95 3 L 95 66 C 95 67.6568603515625 93.6568603515625 69 92 69 L 3 69 C 1.3431396484375 69 0 67.6568603515625 0 66 L 0 3 C 0 1.3431396484375 1.3431396484375 0 3 0 Z"
                          stroke="none" fill="#e6e3df"/>
                </g>
                <g id="Rectangle_376" data-name="Rectangle 376" transform="translate(280 122)" fill="#fff"
                   stroke="#e6e3df" stroke-width="2">
                    <path d="M3,0H92a3,3,0,0,1,3,3v8a0,0,0,0,1,0,0H0a0,0,0,0,1,0,0V3A3,3,0,0,1,3,0Z" stroke="none"/>
                    <path d="M3,1H92a2,2,0,0,1,2,2V9a1,1,0,0,1-1,1H2A1,1,0,0,1,1,9V3A2,2,0,0,1,3,1Z" fill="none"/>
                </g>
                <circle id="Ellipse_110" data-name="Ellipse 110" cx="1.5" cy="1.5" r="1.5"
                        transform="translate(367 126)" fill="#eaecee"/>
                <circle id="Ellipse_111" data-name="Ellipse 111" cx="1.5" cy="1.5" r="1.5"
                        transform="translate(363 126)" fill="#eaecee"/>
                <circle id="Ellipse_112" data-name="Ellipse 112" cx="1.5" cy="1.5" r="1.5"
                        transform="translate(359 126)" fill="#eaecee"/>
                <g id="Group_1100" data-name="Group 1100" transform="translate(303.809 145.075)">
                    <g id="Union_3" data-name="Union 3" transform="translate(0)" fill="#f4f2f1">
                        <path d="M 28.07909393310547 27.7940559387207 L 0.5666564106941223 27.7940559387207 C 1.029971957206726 24.62698364257813 2.587173700332642 21.7166748046875 4.990006923675537 19.54903602600098 C 7.550296783447266 17.23941612243652 10.86481666564941 15.96744632720947 14.32299709320068 15.96744632720947 C 17.78116607666016 15.96744632720947 21.0956859588623 17.23941612243652 23.65599632263184 19.54903602600098 C 26.0587100982666 21.71683502197266 27.61584091186523 24.62714767456055 28.07909393310547 27.7940559387207 Z M 14.32299709320068 14.58988571166992 C 10.41924667358398 14.58988571166992 7.243307113647461 11.42953586578369 7.243307113647461 7.544946193695068 C 7.243307113647461 3.660346031188965 10.41924667358398 0.4999960660934448 14.32299709320068 0.4999960660934448 C 18.22674751281738 0.4999960660934448 21.40268707275391 3.660346031188965 21.40268707275391 7.544946193695068 C 21.40268707275391 11.42953586578369 18.22674751281738 14.58988571166992 14.32299709320068 14.58988571166992 Z"
                              stroke="none"/>
                        <path d="M 27.48773574829102 27.2940559387207 C 26.94598007202148 24.46501159667969 25.49139976501465 21.87842178344727 23.32108688354492 19.92029571533203 C 20.85280609130859 17.69369697570801 17.6572265625 16.46744537353516 14.32299709320068 16.46744537353516 C 10.98875713348389 16.46744537353516 7.793176651000977 17.69369697570801 5.324916839599609 19.92028617858887 C 3.154487371444702 21.87827682495117 1.69984245300293 24.46489524841309 1.158020257949829 27.2940559387207 L 27.48773574829102 27.2940559387207 M 14.32299709320068 14.08988571166992 C 17.95104598999023 14.08988571166992 20.90268707275391 11.15383625030518 20.90268707275391 7.544946193695068 C 20.90268707275391 3.936046123504639 17.95104598999023 0.9999960660934448 14.32299709320068 0.9999960660934448 C 10.69494724273682 0.9999960660934448 7.743307113647461 3.936046123504639 7.743307113647461 7.544946193695068 C 7.743307113647461 11.15383625030518 10.69494724273682 14.08988571166992 14.32299709320068 14.08988571166992 M 28.64567756652832 28.2940559387207 L -3.124084514638525e-06 28.2940559387207 C 0.3683068752288818 24.79082679748535 2.02165699005127 21.55344581604004 4.655086994171143 19.17777633666992 C 7.30739688873291 16.78514671325684 10.74095726013184 15.46744632720947 14.32299709320068 15.46744632720947 C 17.90503692626953 15.46744632720947 21.33858680725098 16.78514671325684 23.99090766906738 19.17777633666992 C 26.6240177154541 21.55344581604004 28.27731704711914 24.79082679748535 28.64567756652832 28.29337692260742 L 28.64567756652832 28.2940559387207 Z M 14.32299709320068 15.08988571166992 C 10.13682651519775 15.08988571166992 6.743307113647461 11.71194648742676 6.743307113647461 7.544946193695068 C 6.743307113647461 3.377946138381958 10.13682651519775 -3.937988367397338e-06 14.32299709320068 -3.937988367397338e-06 C 18.5091667175293 -3.937988367397338e-06 21.90268707275391 3.377946138381958 21.90268707275391 7.544946193695068 C 21.90268707275391 11.71194648742676 18.5091667175293 15.08988571166992 14.32299709320068 15.08988571166992 Z"
                              stroke="none" fill="#e6e3df"/>
                    </g>
                </g>
                <g id="Group_1164" data-name="Group 1164" transform="translate(313.809 145.075)">
                    <g id="Union_3-2" data-name="Union 3" transform="translate(0)" fill="#f4f2f1">
                        <path d="M 28.07909393310547 27.7940559387207 L 0.5666564106941223 27.7940559387207 C 1.029971957206726 24.62698364257813 2.587173700332642 21.7166748046875 4.990006923675537 19.54903602600098 C 7.550296783447266 17.23941612243652 10.86481666564941 15.96744632720947 14.32299709320068 15.96744632720947 C 17.78116607666016 15.96744632720947 21.0956859588623 17.23941612243652 23.65599632263184 19.54903602600098 C 26.0587100982666 21.71683502197266 27.61584091186523 24.62714767456055 28.07909393310547 27.7940559387207 Z M 14.32299709320068 14.58988571166992 C 10.41924667358398 14.58988571166992 7.243307113647461 11.42953586578369 7.243307113647461 7.544946193695068 C 7.243307113647461 3.660346031188965 10.41924667358398 0.4999960660934448 14.32299709320068 0.4999960660934448 C 18.22674751281738 0.4999960660934448 21.40268707275391 3.660346031188965 21.40268707275391 7.544946193695068 C 21.40268707275391 11.42953586578369 18.22674751281738 14.58988571166992 14.32299709320068 14.58988571166992 Z"
                              stroke="none"/>
                        <path d="M 27.48773574829102 27.2940559387207 C 26.94598007202148 24.46501159667969 25.49139976501465 21.87842178344727 23.32108688354492 19.92029571533203 C 20.85280609130859 17.69369697570801 17.6572265625 16.46744537353516 14.32299709320068 16.46744537353516 C 10.98875713348389 16.46744537353516 7.793176651000977 17.69369697570801 5.324916839599609 19.92028617858887 C 3.154487371444702 21.87827682495117 1.69984245300293 24.46489524841309 1.158020257949829 27.2940559387207 L 27.48773574829102 27.2940559387207 M 14.32299709320068 14.08988571166992 C 17.95104598999023 14.08988571166992 20.90268707275391 11.15383625030518 20.90268707275391 7.544946193695068 C 20.90268707275391 3.936046123504639 17.95104598999023 0.9999960660934448 14.32299709320068 0.9999960660934448 C 10.69494724273682 0.9999960660934448 7.743307113647461 3.936046123504639 7.743307113647461 7.544946193695068 C 7.743307113647461 11.15383625030518 10.69494724273682 14.08988571166992 14.32299709320068 14.08988571166992 M 28.64567756652832 28.2940559387207 L -3.124084514638525e-06 28.2940559387207 C 0.3683068752288818 24.79082679748535 2.02165699005127 21.55344581604004 4.655086994171143 19.17777633666992 C 7.30739688873291 16.78514671325684 10.74095726013184 15.46744632720947 14.32299709320068 15.46744632720947 C 17.90503692626953 15.46744632720947 21.33858680725098 16.78514671325684 23.99090766906738 19.17777633666992 C 26.6240177154541 21.55344581604004 28.27731704711914 24.79082679748535 28.64567756652832 28.29337692260742 L 28.64567756652832 28.2940559387207 Z M 14.32299709320068 15.08988571166992 C 10.13682651519775 15.08988571166992 6.743307113647461 11.71194648742676 6.743307113647461 7.544946193695068 C 6.743307113647461 3.377946138381958 10.13682651519775 -3.937988367397338e-06 14.32299709320068 -3.937988367397338e-06 C 18.5091667175293 -3.937988367397338e-06 21.90268707275391 3.377946138381958 21.90268707275391 7.544946193695068 C 21.90268707275391 11.71194648742676 18.5091667175293 15.08988571166992 14.32299709320068 15.08988571166992 Z"
                              stroke="none" fill="#e6e3df"/>
                    </g>
                </g>
                <g id="Group_1165" data-name="Group 1165" transform="translate(323.809 145.075)">
                    <g id="Union_3-3" data-name="Union 3" transform="translate(0)" fill="#f4f2f1">
                        <path d="M 28.07909393310547 27.7940559387207 L 0.5666564106941223 27.7940559387207 C 1.029971957206726 24.62698364257813 2.587173700332642 21.7166748046875 4.990006923675537 19.54903602600098 C 7.550296783447266 17.23941612243652 10.86481666564941 15.96744632720947 14.32299709320068 15.96744632720947 C 17.78116607666016 15.96744632720947 21.0956859588623 17.23941612243652 23.65599632263184 19.54903602600098 C 26.0587100982666 21.71683502197266 27.61584091186523 24.62714767456055 28.07909393310547 27.7940559387207 Z M 14.32299709320068 14.58988571166992 C 10.41924667358398 14.58988571166992 7.243307113647461 11.42953586578369 7.243307113647461 7.544946193695068 C 7.243307113647461 3.660346031188965 10.41924667358398 0.4999960660934448 14.32299709320068 0.4999960660934448 C 18.22674751281738 0.4999960660934448 21.40268707275391 3.660346031188965 21.40268707275391 7.544946193695068 C 21.40268707275391 11.42953586578369 18.22674751281738 14.58988571166992 14.32299709320068 14.58988571166992 Z"
                              stroke="none"/>
                        <path d="M 27.48773574829102 27.2940559387207 C 26.94598007202148 24.46501159667969 25.49139976501465 21.87842178344727 23.32108688354492 19.92029571533203 C 20.85280609130859 17.69369697570801 17.6572265625 16.46744537353516 14.32299709320068 16.46744537353516 C 10.98875713348389 16.46744537353516 7.793176651000977 17.69369697570801 5.324916839599609 19.92028617858887 C 3.154487371444702 21.87827682495117 1.69984245300293 24.46489524841309 1.158020257949829 27.2940559387207 L 27.48773574829102 27.2940559387207 M 14.32299709320068 14.08988571166992 C 17.95104598999023 14.08988571166992 20.90268707275391 11.15383625030518 20.90268707275391 7.544946193695068 C 20.90268707275391 3.936046123504639 17.95104598999023 0.9999960660934448 14.32299709320068 0.9999960660934448 C 10.69494724273682 0.9999960660934448 7.743307113647461 3.936046123504639 7.743307113647461 7.544946193695068 C 7.743307113647461 11.15383625030518 10.69494724273682 14.08988571166992 14.32299709320068 14.08988571166992 M 28.64567756652832 28.2940559387207 L -3.124084514638525e-06 28.2940559387207 C 0.3683068752288818 24.79082679748535 2.02165699005127 21.55344581604004 4.655086994171143 19.17777633666992 C 7.30739688873291 16.78514671325684 10.74095726013184 15.46744632720947 14.32299709320068 15.46744632720947 C 17.90503692626953 15.46744632720947 21.33858680725098 16.78514671325684 23.99090766906738 19.17777633666992 C 26.6240177154541 21.55344581604004 28.27731704711914 24.79082679748535 28.64567756652832 28.29337692260742 L 28.64567756652832 28.2940559387207 Z M 14.32299709320068 15.08988571166992 C 10.13682651519775 15.08988571166992 6.743307113647461 11.71194648742676 6.743307113647461 7.544946193695068 C 6.743307113647461 3.377946138381958 10.13682651519775 -3.937988367397338e-06 14.32299709320068 -3.937988367397338e-06 C 18.5091667175293 -3.937988367397338e-06 21.90268707275391 3.377946138381958 21.90268707275391 7.544946193695068 C 21.90268707275391 11.71194648742676 18.5091667175293 15.08988571166992 14.32299709320068 15.08988571166992 Z"
                              stroke="none" fill="#e6e3df"/>
                    </g>
                </g>
            </g>
        </g>
        <g id="Group_1273" data-name="Group 1273" transform="translate(-4839 -16399)">
            <rect id="Rectangle_492" data-name="Rectangle 492" width="143" height="81" rx="40.5"
                  transform="translate(5076 16520)" fill="url(#linear-gradient-4)"/>
            <rect id="Rectangle_493" data-name="Rectangle 493" width="127" height="67" rx="33.5"
                  transform="translate(5083 16527)" fill="url(#linear-gradient-5)"/>
            <g id="Group_1268" data-name="Group 1268" transform="translate(60 152)">
                <path id="Intersection_12" data-name="Intersection 12"
                      d="M-11087.112-4018.688l22.667-22.424c13.732,13.195,23,21.832,27.517,26a40.615,40.615,0,0,1-19.276,23.234Z"
                      transform="translate(16130.318 20436)" fill="url(#linear-gradient-6)"/>
                <path id="Intersection_19" data-name="Intersection 19"
                      d="M60.826,80.979h0Zm0,0H31.193A40.349,40.349,0,0,1,4.583,69.841,30.469,30.469,0,0,1,60.826,80.978Z"
                      transform="translate(5024 16368)" fill="url(#radial-gradient)"/>
                <ellipse id="Ellipse_215" data-name="Ellipse 215" cx="16.029" cy="16" rx="16.029" ry="16"
                         transform="translate(5038.675 16390.277)" fill="url(#radial-gradient-2)"/>
                <path id="Subtraction_32" data-name="Subtraction 32"
                      d="M-11054.46-4041.819h0c-2.85-10.724-9.519-19.285-18.3-23.486a30.731,30.731,0,0,1,6.14-.618,30.442,30.442,0,0,1,10.247,1.763,30.411,30.411,0,0,1,8.763,4.885,30.56,30.56,0,0,1,6.665,7.393c.389.608.761,1.237,1.1,1.869a40.189,40.189,0,0,1-14.622,8.195Z"
                      transform="translate(16121.318 20489)" fill="url(#linear-gradient-7)"/>
                <path id="Subtraction_33" data-name="Subtraction 33"
                      d="M-11096.971-4035a15.925,15.925,0,0,1-6.561-1.4,16.148,16.148,0,0,0,3.559.4,16.032,16.032,0,0,0,16.029-16,16.028,16.028,0,0,0-9.479-14.607,16.1,16.1,0,0,1,8.92,5.551,15.949,15.949,0,0,1,2.615,4.631,15.946,15.946,0,0,1,.945,5.427,15.879,15.879,0,0,1-4.7,11.313A15.938,15.938,0,0,1-11096.971-4035Z"
                      transform="translate(16151.674 20457.277)" fill="url(#linear-gradient-8)"/>
            </g>
            <g id="Group_1267" data-name="Group 1267" transform="translate(129 152)">
                <path id="Intersection_12-2" data-name="Intersection 12"
                      d="M-11087.112-4018.688l22.667-22.424c10.515,10.1,18.413,17.533,23.563,22.33a40.59,40.59,0,0,1-16.869,25.559Z"
                      transform="translate(16130.318 20436)" fill="url(#linear-gradient-6)"/>
                <path id="Intersection_17" data-name="Intersection 17"
                      d="M42.58,80.979A30.472,30.472,0,0,1,97.453,67.76,40.387,40.387,0,0,1,68.807,80.979Z"
                      transform="translate(4982 16368)" fill="url(#radial-gradient-3)"/>
                <ellipse id="Ellipse_215-2" data-name="Ellipse 215" cx="16.029" cy="16" rx="16.029" ry="16"
                         transform="translate(5038.675 16390.277)" fill="url(#radial-gradient-4)"/>
                <path id="Intersection_18" data-name="Intersection 18"
                      d="M66.562,55.694A30.7,30.7,0,0,1,82.949,56.84a30.545,30.545,0,0,1,14.5,10.919,40.619,40.619,0,0,1-13.126,9.59C81.234,67.484,74.834,59.653,66.562,55.694Z"
                      transform="translate(4982 16368)" fill="url(#linear-gradient-10)"/>
                <path id="Subtraction_33-2" data-name="Subtraction 33"
                      d="M-11096.971-4035a15.925,15.925,0,0,1-6.561-1.4,16.148,16.148,0,0,0,3.559.4,16.032,16.032,0,0,0,16.029-16,16.028,16.028,0,0,0-9.479-14.607,16.1,16.1,0,0,1,8.92,5.551,15.949,15.949,0,0,1,2.615,4.631,15.946,15.946,0,0,1,.945,5.427,15.879,15.879,0,0,1-4.7,11.313A15.938,15.938,0,0,1-11096.971-4035Z"
                      transform="translate(16151.674 20457.277)" fill="url(#linear-gradient-11)"/>
            </g>
            <g id="Group_1272" data-name="Group 1272" transform="translate(94 152)">
                <path id="Intersection_12-3" data-name="Intersection 12"
                      d="M-11087.112-4018.688l22.667-22.424c13.732,13.195,23,21.832,27.517,26a40.615,40.615,0,0,1-19.276,23.234Z"
                      transform="translate(16130.318 20436)" fill="url(#linear-gradient-6)"/>
                <path id="Intersection_14" data-name="Intersection 14"
                      d="M-11045.492-3987.021h-60.246a30.372,30.372,0,0,1,10.145-18.448,30.361,30.361,0,0,1,9.128-5.469,30.384,30.384,0,0,1,10.851-1.986,30.384,30.384,0,0,1,10.851,1.986,30.361,30.361,0,0,1,9.128,5.469,30.377,30.377,0,0,1,10.145,18.447Z"
                      transform="translate(16130.318 20436)" fill="url(#radial-gradient-5)"/>
                <ellipse id="Ellipse_215-3" data-name="Ellipse 215" cx="16.029" cy="16" rx="16.029" ry="16"
                         transform="translate(5038.675 16390.277)" fill="url(#radial-gradient-6)"/>
                <path id="Subtraction_32-2" data-name="Subtraction 32"
                      d="M-11054.46-4041.819h0c-2.85-10.724-9.519-19.285-18.3-23.486a30.731,30.731,0,0,1,6.14-.618,30.442,30.442,0,0,1,10.247,1.763,30.411,30.411,0,0,1,8.763,4.885,30.56,30.56,0,0,1,6.665,7.393c.389.608.761,1.237,1.1,1.869a40.189,40.189,0,0,1-14.622,8.195Z"
                      transform="translate(16121.318 20489)" fill="url(#linear-gradient-13)"/>
                <path id="Subtraction_33-3" data-name="Subtraction 33"
                      d="M-11096.971-4035a15.925,15.925,0,0,1-6.561-1.4,16.148,16.148,0,0,0,3.559.4,16.032,16.032,0,0,0,16.029-16,16.028,16.028,0,0,0-9.479-14.607,16.1,16.1,0,0,1,8.92,5.551,15.949,15.949,0,0,1,2.615,4.631,15.946,15.946,0,0,1,.945,5.427,15.879,15.879,0,0,1-4.7,11.313A15.938,15.938,0,0,1-11096.971-4035Z"
                      transform="translate(16151.674 20457.277)" fill="url(#linear-gradient-14)"/>
            </g>
        </g>
    </g>
</svg>
