<!--
 * Copyright (c) 2021, WSO2 Inc. (http://www.wso2.com). All Rights Reserved.
 *
 * This software is the property of WSO2 Inc. and its suppliers, if any.
 * Dissemination of any information or reproduction of any material contained
 * herein in any form is strictly forbidden, unless permitted by WSO2 expressly.
 * You may not alter or remove any copyright or other notice from copies of this content."
-->

<svg xmlns="http://www.w3.org/2000/svg" width="593.145" height="395.43" viewBox="0 0 593.145 395.43">
  <g id="illustration-1" transform="translate(0 666.665)">
    <g id="g12" transform="translate(0 -666.665)">
      <path id="path14" d="M562.1-271.235H166.666v-395.43H562.1v395.43" transform="translate(-67.809 666.665)" fill="#fff" fill-rule="evenodd"/>
      <path id="path16" d="M593.145-271.235H0v-395.43H593.145v395.43" transform="translate(0 666.665)" fill="#fff" fill-rule="evenodd"/>
      <path id="path18" d="M539.685-584.05a8.012,8.012,0,0,1-8.013-8.011,8.013,8.013,0,0,1,8.013-8.012,8.013,8.013,0,0,1,8.012,8.012A8.012,8.012,0,0,1,539.685-584.05Zm-340.213,192.1H156.663a42.013,42.013,0,0,0-41.89,41.89h0a42.013,42.013,0,0,0,41.89,41.89H518.637A68.031,68.031,0,0,0,586.47-376h0a68.031,68.031,0,0,0-67.832-67.831h0a28.765,28.765,0,0,1-28.681-28.681h0a28.765,28.765,0,0,1,28.681-28.68h34.518a29.906,29.906,0,0,0,29.819-29.819h0a29.906,29.906,0,0,0-29.819-29.819H509.507a11.644,11.644,0,0,1-11.609-11.61h0a11.644,11.644,0,0,1,11.609-11.609h7.7a8.035,8.035,0,0,0,8.011-8.011h0a8.036,8.036,0,0,0-8.011-8.012H466.713c-10.634,0-11.818,12.562-38.676,12.562h-77.39a10.486,10.486,0,0,0-10.455,10.454h0A10.487,10.487,0,0,0,350.647-566.6h10.039a15.193,15.193,0,0,1,15.149,15.147h0a15.193,15.193,0,0,1-15.149,15.148H345.578c-40.8,0-46.565,10.663-53.71,31.871s-44.26,22.918-44.26,22.918H196.86a22.9,22.9,0,0,0-22.828,22.827h0a22.9,22.9,0,0,0,22.828,22.827h2.613A22.022,22.022,0,0,1,221.429-413.9h0a22.021,22.021,0,0,1-21.957,21.956h0" transform="translate(-46.696 639.572)" fill="#d5def0" fill-rule="evenodd"/>
      <path id="path20" d="M267.314-252.788l15.632-15.632,15.633,15.632v.211l-15.633,15.631-15.632-15.631Zm0-34.933,15.632-15.632,15.633,15.632v.211l-15.633,15.632L267.314-287.51Zm0-69.865,15.632-15.632,15.633,15.632v.21l-15.633,15.634-15.632-15.634Zm31.265,73.533v27.807l-13.9-13.9Zm0-34.932v27.807l-13.9-13.9Zm0-34.933v27.808l-13.9-13.9,13.9-13.9Zm0-34.933v27.808l-13.9-13.9,13.9-13.9Zm-31.265,27.808v-27.808l13.9,13.9Zm0,104.8v-27.807l13.9,13.9-13.9,13.9Zm-3.668,29.4h3.668V-249.12l13.9,13.9-8.368,8.367h3.457l6.639-6.639,6.639,6.639h3.458l-8.368-8.367,13.9-13.9v22.271h3.667V-400.2h-3.667v4.222l-4.223-4.222H290.9l7.68,7.679v.21l-15.633,15.632-15.632-15.632v-.21l7.679-7.679h-3.457l-4.222,4.222V-400.2h-3.668v45.955a21.786,21.786,0,0,1,3.668.947v-.623l1.008,1.008a22.162,22.162,0,0,1,12.044,12.045l.852.851-.386.386a21.454,21.454,0,0,1,.735,2.721l1.379-1.378,15.633,15.632v.21L282.946-306.81l-8.9-8.9a22.054,22.054,0,0,1-1.985,1.472l9.156,9.155-13.9,13.9v-20.7a21.78,21.78,0,0,1-3.668.947v84.079h0" transform="translate(-107.265 558.252)" fill="#adbee3" fill-rule="evenodd"/>
      <path id="path22" d="M699.735-334.108l15.633-15.632L731-334.108v.211l-15.633,15.631L699.735-333.9Zm0-34.933,15.633-15.632L731-369.041v.211L715.368-353.2,699.735-368.83Zm0-34.932,15.633-15.632L731-403.973v.21L715.368-388.13l-15.633-15.633v-.21Zm0-34.933,15.633-15.632L731-438.906v.21l-15.633,15.634L699.735-438.7Zm0-69.865L715.368-524.4,731-508.772v.21l-15.633,15.633-15.633-15.633Zm0-34.932,15.633-15.633L731-543.7v.21l-15.633,15.632-15.633-15.632Zm0-34.933,15.633-15.632L731-578.637v.21l-15.633,15.633-15.633-15.633ZM731-365.373v27.807l-13.9-13.9Zm0-34.932V-372.5l-13.9-13.9Zm0-34.933v27.808l-13.9-13.9Zm0-104.8v27.808l-13.9-13.9Zm0-34.932v27.808l-13.9-13.9Zm-31.266,27.808v-27.808l13.9,13.9Zm0,34.932v-27.808l13.9,13.9Zm0,34.933V-505.1l13.9,13.9Zm0,34.932v-27.808l13.9,13.9Zm0,34.933v-27.808l13.9,13.9-13.9,13.9Zm0,34.932v-27.807l13.9,13.9Zm0,34.932v-27.807l13.9,13.9Zm-3.666,29.4h3.666V-330.44l13.9,13.9-8.368,8.367h3.457l6.64-6.639,6.64,6.639h3.457l-8.368-8.367,13.9-13.9v22.271h3.667v-144.31A28.958,28.958,0,0,1,731-457.073v14.71l-13.9-13.9,10.045-10.045a28.309,28.309,0,0,1-.5-2.962L715.368-458l-15.633-15.632v-.21l15.633-15.633,11.6,11.6q.273-1.414.678-2.78L717.1-491.2,731-505.1v17.151a29,29,0,0,1,3.667-4.595v-77.42a11.58,11.58,0,0,1-.268-2.472h0a11.566,11.566,0,0,1,.268-2.471v-25.161H731v17.979L717.1-596l4.075-4.075h-3.457l-2.347,2.346-2.347-2.346h-3.458L713.639-596l-13.9,13.9v-17.479a15.739,15.739,0,0,0-3.666,1.7v289.708h0" transform="translate(-283.198 639.572)" fill="#adbee3" fill-rule="evenodd"/>
      <path id="path24" d="M197.343-292.8v40.974l-20.487-20.488Zm-46.069,40.974V-292.8l20.488,20.486-20.488,20.488Zm51.473-146.638a23.016,23.016,0,0,0-12.856,10.17l7.452-7.452v38.369a22.756,22.756,0,0,0,5.4,2.51Zm0,88.54h-5.4v6.625l-6.625-6.625h-5.094l11.719,11.72v.309L174.308-274.86l-23.035-23.034v-.309l11.144-11.143a41.332,41.332,0,0,0-6.854,1.76l-4.29,4.288v-2.513a41.9,41.9,0,0,0-5.4,3.114v69.329a41.95,41.95,0,0,0,5.4,3.115v-11.074l15.078,15.078q1.47.1,2.964.107h2.237l-20.279-20.278v-.31l23.035-23.035,23.035,23.035v.31l-20.279,20.278h5.094l15.185-15.184v15.184h5.4v-83.78h0" transform="translate(-59.348 557.546)" fill="#adbee3" fill-rule="evenodd"/>
      <path id="path26" d="M788.436-380.229l23.034-23.035L834.5-380.229v.309L811.47-356.886,788.436-379.92Zm0-154.418,23.034-23.034L834.5-534.647v.31L811.47-511.3l-23.034-23.034ZM834.5-374.825v40.974l-20.486-20.488Zm0-51.472v40.974l-20.486-20.487Zm-46.068,40.974V-426.3l20.487,20.486Zm0,51.473v-40.974l20.487,20.486Zm-5.4-250.2h6.054a7.982,7.982,0,0,0,1.042-.068l-1.692-1.692v-.31l8.3-8.3a8.026,8.026,0,0,0-1.9-3.2l-6.405,6.407v-8.861h-5.4v16.024Zm0,83.856a28.488,28.488,0,0,1,5.4-.924v-28.125l20.487,20.488-7.561,7.561h5.093l5.015-5.015,5.014,5.015h5.095l-7.561-7.561L834.5-529.243v26.5a29.716,29.716,0,0,0,5.4-2.449v-51.639a29.712,29.712,0,0,0-5.4-2.449v19.54l-20.486-20.486.6-.6h-6.3l.6.6-20.487,20.486v-21.089h-5.4Zm0,192.025h5.4v-15.184l14.109,14.11q2.119-.384,4.192-.9l-18.3-18.3v-.31l23.034-23.035L834.5-328.757v.31L822.059-316a68.494,68.494,0,0,0,17.85-13.626v-92.746a68.837,68.837,0,0,0-7.522-6.9L811.47-408.359l-23.034-23.034v-.309l11.472-11.474q-2.281-.319-4.608-.485l-6.865,6.864v-7.113a28.486,28.486,0,0,1-5.4-.923v136.664h0" transform="translate(-318.579 639.572)" fill="#adbee3" fill-rule="evenodd"/>
      <path id="path28" d="M263.371-220.353H226.528a2.721,2.721,0,0,0-2.714,2.714v25.983a2.721,2.721,0,0,0,2.714,2.714h36.842a2.721,2.721,0,0,0,2.714-2.714v-25.983a2.721,2.721,0,0,0-2.714-2.714" transform="translate(-91.06 485.081)" fill="#759dcf" fill-rule="evenodd"/>
      <path id="path30" d="M304.124-220.353H267.282a2.721,2.721,0,0,0-2.713,2.714v25.983a2.721,2.721,0,0,0,2.713,2.714h36.842a2.721,2.721,0,0,0,2.714-2.714v-25.983a2.72,2.72,0,0,0-2.714-2.714" transform="translate(-107.641 485.081)" fill="#a2badf" fill-rule="evenodd"/>
      <path id="path32" d="M303.42-202.862H276.144a1.555,1.555,0,0,0-1.55,1.55v7.562a1.556,1.556,0,0,0,1.55,1.551H303.42a1.556,1.556,0,0,0,1.551-1.551v-7.562a1.555,1.555,0,0,0-1.551-1.55" transform="translate(-111.72 477.965)" fill="#759dcf" fill-rule="evenodd"/>
      <path id="path34" d="M293.685-199.811H280.271a.339.339,0,0,0-.338.338v1.651a.339.339,0,0,0,.338.338h13.414a.339.339,0,0,0,.338-.338v-1.651a.338.338,0,0,0-.338-.338" transform="translate(-113.892 476.724)" fill="#e0d9e2" fill-rule="evenodd"/>
      <path id="path36" d="M286.9-193.6h-6.627a.339.339,0,0,0-.339.338v1.65a.339.339,0,0,0,.339.338H286.9a.339.339,0,0,0,.339-.338v-1.65a.339.339,0,0,0-.339-.338" transform="translate(-113.892 474.196)" fill="#e0d9e2" fill-rule="evenodd"/>
      <path id="path38" d="M266.824-167.4h44.148a3.263,3.263,0,0,1,3.254,3.253v31.137a3.263,3.263,0,0,1-3.254,3.253H266.824a3.263,3.263,0,0,1-3.253-3.253v-31.137a3.262,3.262,0,0,1,3.253-3.253" transform="translate(-107.235 463.535)" fill="#759dcf" fill-rule="evenodd"/>
      <path id="path40" d="M217.989-167.4h44.148a3.262,3.262,0,0,1,3.253,3.253v31.137a3.263,3.263,0,0,1-3.253,3.253H217.989a3.263,3.263,0,0,1-3.254-3.253v-31.137a3.262,3.262,0,0,1,3.254-3.253" transform="translate(-87.366 463.535)" fill="#a2badf" fill-rule="evenodd"/>
      <path id="path42" d="M228.608-146.434h32.685a1.862,1.862,0,0,1,1.858,1.857v9.062a1.863,1.863,0,0,1-1.858,1.858H228.608a1.863,1.863,0,0,1-1.858-1.858v-9.062a1.862,1.862,0,0,1,1.858-1.857" transform="translate(-92.254 455.007)" fill="#759dcf" fill-rule="evenodd"/>
      <path id="path44" d="M253.662-142.781h16.073a.406.406,0,0,1,.4.406v1.978a.406.406,0,0,1-.4.4H253.662a.406.406,0,0,1-.406-.4v-1.978a.407.407,0,0,1,.406-.406" transform="translate(-103.039 453.521)" fill="#e0d9e2" fill-rule="evenodd"/>
      <path id="path46" d="M267.374-135.337h7.94a.407.407,0,0,1,.406.406v1.978a.406.406,0,0,1-.406.4h-7.94a.406.406,0,0,1-.4-.4v-1.978a.406.406,0,0,1,.4-.406" transform="translate(-108.617 450.492)" fill="#e0d9e2" fill-rule="evenodd"/>
      <path id="path48" d="M597.7-476.12a20.672,20.672,0,0,0-2.227,1.114,20.594,20.594,0,0,0-2.1,1.39,20.859,20.859,0,0,0-1.913,1.633.142.142,0,0,1-.084.039.144.144,0,0,1-.091-.017q-2.66-1.535-5.319-3.072a1.822,1.822,0,0,0-.666-.21,1.892,1.892,0,0,0-.7.052,1.868,1.868,0,0,0-.651.32,1.809,1.809,0,0,0-.477.543c-1.285,2.081-2.506,4.336-3.734,6.464a1.831,1.831,0,0,0-.232.688,1.871,1.871,0,0,0,.048.724,1.855,1.855,0,0,0,.32.651,1.81,1.81,0,0,0,.543.477c1.7,1.048,3.536,2.042,5.27,3.044a.137.137,0,0,1,.06.069.143.143,0,0,1,.009.093l-.121.492.006,0q-.079.358-.147.728-.116.634-.191,1.245T585.2-458.4q-.038.645-.039,1.261t.039,1.261c.026.429.064.847.113,1.25s.114.822.191,1.243.166.827.263,1.223a.136.136,0,0,1-.01.1.147.147,0,0,1-.065.071c-1.937,1.034-3.9,2.252-5.818,3.358l.068.085-.059.074a1.866,1.866,0,0,0-.32.651,1.871,1.871,0,0,0-.048.724,1.825,1.825,0,0,0,.232.687l4.013,6.95.074-.044c.04.036.082.07.125.1a1.868,1.868,0,0,0,.651.32,1.888,1.888,0,0,0,.722.048,1.853,1.853,0,0,0,.67-.221c1.754-.931,3.563-2.057,5.3-3.058a.156.156,0,0,1,.088-.015.16.16,0,0,1,.087.04,20.608,20.608,0,0,0,1.911,1.632,20.629,20.629,0,0,0,2.1,1.388,20.517,20.517,0,0,0,2.243,1.119,20.58,20.58,0,0,0,2.362.838.154.154,0,0,1,.077.052.136.136,0,0,1,.029.089v6.086a1.852,1.852,0,0,0,.142.709,1.853,1.853,0,0,0,.4.6,1.876,1.876,0,0,0,.6.4,1.835,1.835,0,0,0,.709.142h7.469a1.84,1.84,0,0,0,.709-.142,1.9,1.9,0,0,0,.6-.4,1.875,1.875,0,0,0,.4-.6,1.853,1.853,0,0,0,.142-.709v-6.086a.145.145,0,0,1,.029-.092.149.149,0,0,1,.082-.051l.025-.009a20.425,20.425,0,0,0,2.346-.834,20.622,20.622,0,0,0,2.229-1.113,20.653,20.653,0,0,0,2.1-1.39,20.75,20.75,0,0,0,1.914-1.634.139.139,0,0,1,.086-.04.156.156,0,0,1,.1.024l5.27,3.042a1.826,1.826,0,0,0,.685.231,1.882,1.882,0,0,0,.723-.048,1.878,1.878,0,0,0,.652-.32,1.848,1.848,0,0,0,.468-.527c1.385-2.226,2.693-4.666,4.014-6.952l-.071-.043a1.468,1.468,0,0,0,.032-.175,1.894,1.894,0,0,0-.047-.723,1.851,1.851,0,0,0-.322-.651,1.819,1.819,0,0,0-.541-.477L625.864-452a.147.147,0,0,1-.059-.069.153.153,0,0,1-.009-.1l.137-.558-.008,0c.047-.217.091-.437.133-.66.078-.422.142-.838.191-1.245s.088-.821.113-1.25.04-.85.04-1.261-.013-.83-.04-1.261-.063-.846-.113-1.253-.112-.818-.191-1.243-.165-.826-.263-1.219a.16.16,0,0,1,.01-.1.151.151,0,0,1,.067-.068l5.265-3.04a1.8,1.8,0,0,0,.541-.478,1.877,1.877,0,0,0,.321-.649,1.894,1.894,0,0,0,.047-.723,1.884,1.884,0,0,0-.222-.671c-1.255-2.324-2.694-4.668-4.022-6.967l-.075.044c-.04-.036-.081-.07-.123-.1a1.878,1.878,0,0,0-.652-.32,1.89,1.89,0,0,0-.722-.048,1.831,1.831,0,0,0-.685.228l-.391.224,0,0-4.889,2.822a.148.148,0,0,1-.094.019.149.149,0,0,1-.084-.042l-.012-.013a20.729,20.729,0,0,0-1.91-1.626,20.537,20.537,0,0,0-2.086-1.382,20.632,20.632,0,0,0-2.241-1.119,20.536,20.536,0,0,0-2.363-.837.142.142,0,0,1-.076-.052.129.129,0,0,1-.03-.089v-6.086a1.848,1.848,0,0,0-.142-.708,1.851,1.851,0,0,0-.406-.6,1.884,1.884,0,0,0-.6-.4,1.84,1.84,0,0,0-.709-.142h-7.469a1.833,1.833,0,0,0-.709.142,1.914,1.914,0,0,0-.6.4,1.853,1.853,0,0,0-.546,1.311v6.086a.162.162,0,0,1-.03.093.152.152,0,0,1-.081.05l-.025.009a20.739,20.739,0,0,0-2.347.833Zm2.626.231a19.018,19.018,0,0,0-2.195.782,19.4,19.4,0,0,0-2.108,1.053,19.611,19.611,0,0,0-1.985,1.316,19.655,19.655,0,0,0-1.813,1.548,1.248,1.248,0,0,1-.713.34,1.25,1.25,0,0,1-.776-.16c-1.749-1.009-3.586-2.009-5.3-3.06a.722.722,0,0,0-.258-.08.8.8,0,0,0-.292.022.775.775,0,0,0-.269.131.757.757,0,0,0-.192.219c-1.275,1.929-2.554,4.421-3.734,6.466a.745.745,0,0,0-.093.274.782.782,0,0,0,.023.3.762.762,0,0,0,.13.268.738.738,0,0,0,.219.193c1.573,1.04,3.6,2.081,5.266,3.043a1.236,1.236,0,0,1,.526.589,1.2,1.2,0,0,1,.079.26l.109.036-.123.491c-.1.387-.179.773-.25,1.157s-.128.766-.178,1.175-.085.794-.108,1.184-.035.781-.035,1.2.011.815.035,1.2.059.787.108,1.186.11.8.178,1.174.155.772.25,1.159a1.239,1.239,0,0,1-.078.822,1.244,1.244,0,0,1-.563.584l-4.665,2.694,0,0-.553.319a.753.753,0,0,0-.22.193.782.782,0,0,0-.13.268.783.783,0,0,0-.023.3.749.749,0,0,0,.093.274l3.453,5.984h0l.279.483a.756.756,0,0,0,.192.219.759.759,0,0,0,.269.13.769.769,0,0,0,.3.022.744.744,0,0,0,.274-.093c1.67-1.049,3.556-2.052,5.279-3.046a1.251,1.251,0,0,1,.771-.158,1.243,1.243,0,0,1,.713.337l0,0a19.543,19.543,0,0,0,1.814,1.548,19.573,19.573,0,0,0,1.984,1.314,19.387,19.387,0,0,0,2.123,1.06,19.365,19.365,0,0,0,2.233.79,1.248,1.248,0,0,1,.654.448,1.26,1.26,0,0,1,.252.753l0,6.086a.737.737,0,0,0,.056.286.768.768,0,0,0,.166.246.764.764,0,0,0,.245.166.746.746,0,0,0,.287.057h7.469a.738.738,0,0,0,.285-.057.781.781,0,0,0,.247-.165.792.792,0,0,0,.165-.247.737.737,0,0,0,.056-.286v-6.086a1.239,1.239,0,0,1,.271-.773,1.247,1.247,0,0,1,.69-.444,18.873,18.873,0,0,0,2.194-.781,19.384,19.384,0,0,0,2.108-1.053,19.507,19.507,0,0,0,1.985-1.316,19.439,19.439,0,0,0,1.814-1.548,1.247,1.247,0,0,1,.751-.342,1.251,1.251,0,0,1,.8.2l5.21,3.008a.72.72,0,0,0,.277.092.774.774,0,0,0,.3-.022.743.743,0,0,0,.268-.13.748.748,0,0,0,.193-.219c1.238-2.159,2.5-4.309,3.734-6.467a.729.729,0,0,0,.093-.275.774.774,0,0,0-.022-.3.774.774,0,0,0-.13-.268.719.719,0,0,0-.215-.193l-5.272-3.043a1.24,1.24,0,0,1-.526-.589,1.275,1.275,0,0,1-.066-.2l-.137-.028.138-.559c.1-.386.18-.773.251-1.157s.128-.766.178-1.175.085-.794.108-1.185.035-.781.035-1.2-.012-.815-.035-1.2-.06-.785-.108-1.184q-.076-.62-.178-1.179c-.071-.383-.154-.769-.251-1.155a1.246,1.246,0,0,1,.08-.823,1.254,1.254,0,0,1,.561-.583l5.221-3.014a.71.71,0,0,0,.217-.192.752.752,0,0,0,.13-.269.774.774,0,0,0,.022-.3.724.724,0,0,0-.093-.275c-1.275-1.9-2.551-4.428-3.734-6.467a.759.759,0,0,0-.193-.219.771.771,0,0,0-.268-.131.8.8,0,0,0-.3-.022.736.736,0,0,0-.275.094l-5.275,3.045a1.233,1.233,0,0,1-.791.158,1.258,1.258,0,0,1-.713-.353,19.81,19.81,0,0,0-1.806-1.54,19.542,19.542,0,0,0-1.978-1.309,19.355,19.355,0,0,0-2.122-1.058,19.159,19.159,0,0,0-2.232-.791,1.25,1.25,0,0,1-.655-.448,1.248,1.248,0,0,1-.251-.753l0-6.086a.757.757,0,0,0-.055-.286.763.763,0,0,0-.167-.245.748.748,0,0,0-.246-.166.739.739,0,0,0-.285-.056h-7.469a.746.746,0,0,0-.287.056.774.774,0,0,0-.246.165.76.76,0,0,0-.221.532v6.086a1.244,1.244,0,0,1-.268.773,1.264,1.264,0,0,1-.693.443Zm1.316,8.761a10.828,10.828,0,0,0-3.506,2.348,10.836,10.836,0,0,0-2.348,3.506,10.785,10.785,0,0,0-.816,4.133,10.785,10.785,0,0,0,.816,4.134,10.837,10.837,0,0,0,2.348,3.506,10.812,10.812,0,0,0,3.506,2.347,10.766,10.766,0,0,0,4.133.817,10.762,10.762,0,0,0,4.132-.817,10.809,10.809,0,0,0,3.509-2.347,10.831,10.831,0,0,0,2.346-3.506,10.785,10.785,0,0,0,.817-4.134,10.784,10.784,0,0,0-.817-4.133,10.831,10.831,0,0,0-2.346-3.506,10.825,10.825,0,0,0-3.507-2.347,10.768,10.768,0,0,0-4.134-.818,10.781,10.781,0,0,0-4.133.817Zm-4.286,1.568a11.933,11.933,0,0,1,3.868-2.585,11.872,11.872,0,0,1,4.551-.9,11.859,11.859,0,0,1,4.551.9,11.919,11.919,0,0,1,3.868,2.585,11.906,11.906,0,0,1,2.585,3.868,11.861,11.861,0,0,1,.9,4.551,11.862,11.862,0,0,1-.9,4.551,11.91,11.91,0,0,1-2.585,3.868,11.9,11.9,0,0,1-3.867,2.584,11.847,11.847,0,0,1-4.553.9,11.873,11.873,0,0,1-4.551-.9,11.918,11.918,0,0,1-3.868-2.585,11.911,11.911,0,0,1-2.585-3.868,11.873,11.873,0,0,1-.9-4.551,11.872,11.872,0,0,1,.9-4.551,11.919,11.919,0,0,1,2.585-3.868h0" transform="translate(-235.77 592.773)" fill="#adbee3" fill-rule="evenodd"/>
      <path id="path50" d="M77.464-375.476a20.654,20.654,0,0,0-2.227,1.113,20.846,20.846,0,0,0-2.1,1.39,20.844,20.844,0,0,0-1.913,1.633.143.143,0,0,1-.083.04.152.152,0,0,1-.091-.018q-2.659-1.535-5.319-3.072a1.841,1.841,0,0,0-.666-.209,1.876,1.876,0,0,0-.7.052,1.878,1.878,0,0,0-.651.32,1.843,1.843,0,0,0-.477.543c-1.285,2.082-2.505,4.337-3.735,6.465a1.844,1.844,0,0,0-.231.688,1.876,1.876,0,0,0,.048.724,1.868,1.868,0,0,0,.32.652,1.831,1.831,0,0,0,.543.477c1.7,1.047,3.536,2.042,5.271,3.044a.141.141,0,0,1,.06.069.146.146,0,0,1,.008.092l-.122.492.007,0c-.053.239-.1.482-.147.728q-.116.632-.19,1.244t-.113,1.249q-.039.645-.039,1.261c0,.41.013.831.039,1.261s.064.846.113,1.25.113.822.19,1.243.166.826.263,1.223a.142.142,0,0,1-.01.1.14.14,0,0,1-.065.07c-1.937,1.035-3.9,2.252-5.819,3.358l.068.086-.059.073a1.862,1.862,0,0,0-.32.651,1.876,1.876,0,0,0-.048.724,1.816,1.816,0,0,0,.232.687l4.013,6.95.074-.045c.04.036.082.071.124.1a1.878,1.878,0,0,0,.651.32,1.859,1.859,0,0,0,.722.047,1.849,1.849,0,0,0,.669-.219c1.756-.932,3.563-2.058,5.3-3.058a.144.144,0,0,1,.088-.016.157.157,0,0,1,.087.04,20.681,20.681,0,0,0,1.912,1.632,20.661,20.661,0,0,0,2.1,1.388,20.436,20.436,0,0,0,2.243,1.12,20.512,20.512,0,0,0,2.362.838.149.149,0,0,1,.077.051.14.14,0,0,1,.03.09v6.086a1.837,1.837,0,0,0,.142.708,1.853,1.853,0,0,0,.405.6,1.875,1.875,0,0,0,.6.4,1.835,1.835,0,0,0,.708.142h7.469a1.838,1.838,0,0,0,.708-.142,1.9,1.9,0,0,0,.6-.4,1.872,1.872,0,0,0,.4-.6,1.833,1.833,0,0,0,.142-.708v-6.086a.15.15,0,0,1,.029-.093.149.149,0,0,1,.083-.051l.024-.009a20.4,20.4,0,0,0,2.347-.834,20.439,20.439,0,0,0,2.229-1.114,20.645,20.645,0,0,0,2.1-1.388,20.781,20.781,0,0,0,1.913-1.635.151.151,0,0,1,.087-.041.154.154,0,0,1,.094.024l5.271,3.044a1.844,1.844,0,0,0,.685.23,1.9,1.9,0,0,0,.723-.048,1.867,1.867,0,0,0,.651-.32,1.838,1.838,0,0,0,.469-.527c1.385-2.227,2.694-4.665,4.014-6.952l-.07-.042c.013-.059.023-.117.031-.176a1.874,1.874,0,0,0-.048-.722,1.837,1.837,0,0,0-.32-.65,1.8,1.8,0,0,0-.542-.478l-5.273-3.044a.138.138,0,0,1-.059-.068.16.16,0,0,1-.009-.1l.137-.557-.008,0c.047-.217.092-.437.133-.661.077-.421.142-.837.191-1.243s.087-.822.113-1.251.04-.851.04-1.261-.013-.83-.04-1.261-.063-.846-.113-1.253-.112-.818-.191-1.243-.165-.826-.263-1.219a.156.156,0,0,1,.01-.1.145.145,0,0,1,.067-.069l5.266-3.04a1.8,1.8,0,0,0,.541-.478,1.883,1.883,0,0,0,.32-.65,1.873,1.873,0,0,0,.048-.722,1.848,1.848,0,0,0-.222-.671c-1.255-2.324-2.694-4.668-4.022-6.967l-.074.044c-.04-.036-.081-.071-.125-.1a1.868,1.868,0,0,0-.651-.32,1.891,1.891,0,0,0-.722-.048,1.821,1.821,0,0,0-.685.228l-.39.224,0,0-4.89,2.822a.146.146,0,0,1-.093.019.148.148,0,0,1-.084-.042l-.013-.013a20.594,20.594,0,0,0-1.909-1.626,20.59,20.59,0,0,0-2.086-1.382,20.614,20.614,0,0,0-2.241-1.119,20.554,20.554,0,0,0-2.363-.838.147.147,0,0,1-.076-.052.133.133,0,0,1-.03-.089v-6.087a1.843,1.843,0,0,0-.142-.709,1.85,1.85,0,0,0-.406-.6,1.862,1.862,0,0,0-.6-.4,1.839,1.839,0,0,0-.708-.142H81.8a1.835,1.835,0,0,0-.708.142,1.909,1.909,0,0,0-.6.4,1.851,1.851,0,0,0-.545,1.311v6.087a.162.162,0,0,1-.03.093.151.151,0,0,1-.082.05l-.024.009a20.738,20.738,0,0,0-2.348.833Zm2.626.231a19.294,19.294,0,0,0-2.195.782,19.438,19.438,0,0,0-2.107,1.053,19.632,19.632,0,0,0-1.985,1.316,19.5,19.5,0,0,0-1.814,1.548,1.237,1.237,0,0,1-.712.339,1.249,1.249,0,0,1-.776-.159c-1.748-1.009-3.587-2.008-5.3-3.06a.718.718,0,0,0-.257-.08.788.788,0,0,0-.292.022.779.779,0,0,0-.268.13.75.75,0,0,0-.193.22c-1.275,1.929-2.554,4.421-3.735,6.466a.748.748,0,0,0-.093.274.794.794,0,0,0,.023.3.761.761,0,0,0,.13.267.746.746,0,0,0,.22.194c1.573,1.04,3.6,2.08,5.267,3.043a1.236,1.236,0,0,1,.525.59,1.185,1.185,0,0,1,.079.259l.109.037-.122.491q-.143.58-.25,1.157-.1.561-.178,1.175c-.048.4-.085.794-.108,1.184s-.035.781-.035,1.2.012.815.035,1.2.06.786.108,1.186.109.8.178,1.174.154.772.25,1.158a1.24,1.24,0,0,1-.079.822,1.246,1.246,0,0,1-.564.586l-4.665,2.693,0,0-.552.319a.768.768,0,0,0-.221.193.775.775,0,0,0-.13.268.794.794,0,0,0-.023.3.757.757,0,0,0,.093.275l3.454,5.982h0l.28.484a.747.747,0,0,0,.193.219.766.766,0,0,0,.268.131.784.784,0,0,0,.3.021.713.713,0,0,0,.273-.093c1.671-1.049,3.556-2.051,5.279-3.046a1.252,1.252,0,0,1,.771-.159,1.254,1.254,0,0,1,.713.337l0,0A19.779,19.779,0,0,0,73.8-340.9a19.478,19.478,0,0,0,1.984,1.314,19.567,19.567,0,0,0,2.122,1.06,19.321,19.321,0,0,0,2.233.79,1.248,1.248,0,0,1,.654.448,1.259,1.259,0,0,1,.252.754l0,6.087a.734.734,0,0,0,.057.286.769.769,0,0,0,.166.246.764.764,0,0,0,.246.167.755.755,0,0,0,.286.055h7.469a.757.757,0,0,0,.286-.055.8.8,0,0,0,.247-.165.818.818,0,0,0,.165-.247.74.74,0,0,0,.056-.286v-6.086a1.243,1.243,0,0,1,.271-.773,1.248,1.248,0,0,1,.69-.444,18.978,18.978,0,0,0,2.194-.781,19.251,19.251,0,0,0,2.108-1.053,19.473,19.473,0,0,0,1.984-1.314,19.64,19.64,0,0,0,1.815-1.549,1.244,1.244,0,0,1,.75-.342,1.255,1.255,0,0,1,.8.2l5.211,3.009a.717.717,0,0,0,.275.092.79.79,0,0,0,.3-.021.764.764,0,0,0,.268-.131.749.749,0,0,0,.193-.219c1.238-2.159,2.5-4.309,3.734-6.467a.757.757,0,0,0,.093-.276.786.786,0,0,0-.023-.3.751.751,0,0,0-.13-.269.718.718,0,0,0-.215-.192l-5.272-3.043a1.237,1.237,0,0,1-.525-.59,1.143,1.143,0,0,1-.066-.2l-.138-.028.138-.558c.095-.386.179-.773.25-1.158s.128-.766.178-1.174.085-.795.108-1.186.035-.78.035-1.2-.012-.815-.035-1.2-.06-.785-.108-1.184q-.076-.62-.178-1.179c-.071-.383-.154-.769-.25-1.155a1.24,1.24,0,0,1,.079-.824,1.253,1.253,0,0,1,.561-.582l5.22-3.014a.707.707,0,0,0,.217-.193.741.741,0,0,0,.13-.268.789.789,0,0,0,.023-.3.758.758,0,0,0-.093-.275c-1.275-1.9-2.551-4.428-3.734-6.467a.763.763,0,0,0-.193-.22.776.776,0,0,0-.268-.13.8.8,0,0,0-.3-.022.739.739,0,0,0-.276.094l-5.274,3.045a1.237,1.237,0,0,1-.791.157,1.256,1.256,0,0,1-.713-.351,19.576,19.576,0,0,0-1.806-1.541,19.557,19.557,0,0,0-1.978-1.309,19.443,19.443,0,0,0-2.122-1.058,19.309,19.309,0,0,0-2.233-.791,1.244,1.244,0,0,1-.654-.448,1.249,1.249,0,0,1-.252-.752l0-6.087a.747.747,0,0,0-.056-.286.78.78,0,0,0-.166-.245.749.749,0,0,0-.246-.166.742.742,0,0,0-.286-.056H81.8a.741.741,0,0,0-.286.056.766.766,0,0,0-.247.165.759.759,0,0,0-.221.532v6.087a1.248,1.248,0,0,1-.268.773,1.262,1.262,0,0,1-.692.442Zm1.316,8.761a10.834,10.834,0,0,0-3.506,2.348,10.827,10.827,0,0,0-2.348,3.506,10.768,10.768,0,0,0-.817,4.133,10.773,10.773,0,0,0,.817,4.135,10.833,10.833,0,0,0,2.348,3.505,10.819,10.819,0,0,0,3.506,2.347,10.772,10.772,0,0,0,4.133.818,10.76,10.76,0,0,0,4.131-.818,10.8,10.8,0,0,0,3.508-2.347,10.821,10.821,0,0,0,2.347-3.506,10.777,10.777,0,0,0,.817-4.134,10.78,10.78,0,0,0-.817-4.133,10.821,10.821,0,0,0-2.347-3.506,10.839,10.839,0,0,0-3.506-2.348,10.769,10.769,0,0,0-4.133-.817,10.771,10.771,0,0,0-4.133.817Zm-4.286,1.568a11.929,11.929,0,0,1,3.868-2.584,11.866,11.866,0,0,1,4.552-.9,11.865,11.865,0,0,1,4.551.9,11.935,11.935,0,0,1,3.868,2.584,11.94,11.94,0,0,1,2.584,3.869,11.862,11.862,0,0,1,.9,4.551,11.863,11.863,0,0,1-.9,4.551,11.929,11.929,0,0,1-2.584,3.868,11.91,11.91,0,0,1-3.867,2.584,11.851,11.851,0,0,1-4.553.9,11.86,11.86,0,0,1-4.551-.9,11.928,11.928,0,0,1-3.868-2.585,11.933,11.933,0,0,1-2.584-3.867,11.871,11.871,0,0,1-.9-4.552,11.868,11.868,0,0,1,.9-4.551,11.939,11.939,0,0,1,2.584-3.869h0" transform="translate(-24.109 551.826)" fill="#adbee3" fill-rule="evenodd"/>
      <path id="path52" d="M167.613-320.022a8.912,8.912,0,0,0-1.981.843,9,9,0,0,0-1.738,1.31.309.309,0,0,1-.37.044l-2.349-1.356-.013-.008a.583.583,0,0,0-.428-.049.581.581,0,0,0-.354.27l-.009.017-1.652,2.861a.577.577,0,0,0-.056.442.579.579,0,0,0,.27.354l.016.009,2.329,1.344a.312.312,0,0,1,.147.342h0a9.027,9.027,0,0,0-.2,1.068,8.968,8.968,0,0,0-.066,1.089,8.967,8.967,0,0,0,.066,1.088,8.993,8.993,0,0,0,.2,1.068.309.309,0,0,1-.164.352l-2.328,1.344h0a.575.575,0,0,0-.27.354.577.577,0,0,0,.056.442l1.662,2.877h0a.582.582,0,0,0,.354.27.58.58,0,0,0,.441-.056l.018-.01,2.331-1.347a.312.312,0,0,1,.369.045,9.034,9.034,0,0,0,1.738,1.31,8.917,8.917,0,0,0,1.994.847.31.31,0,0,1,.225.3v2.709a.577.577,0,0,0,.171.41.58.58,0,0,0,.41.172h3.324a.577.577,0,0,0,.41-.172.577.577,0,0,0,.171-.41v-2.709a.311.311,0,0,1,.239-.3,8.906,8.906,0,0,0,1.98-.843,9.012,9.012,0,0,0,1.738-1.31.311.311,0,0,1,.386-.035l2.332,1.346a.582.582,0,0,0,.441.056.581.581,0,0,0,.354-.27l.01-.016,1.652-2.863h0a.582.582,0,0,0,.056-.441.58.58,0,0,0-.269-.354l-2.346-1.355a.311.311,0,0,1-.146-.342h0a8.989,8.989,0,0,0,.2-1.068,8.967,8.967,0,0,0,.066-1.088,8.962,8.962,0,0,0-.066-1.089,9.031,9.031,0,0,0-.2-1.068.308.308,0,0,1,.164-.351l2.329-1.344a.584.584,0,0,0,.269-.354.582.582,0,0,0-.056-.441l-.009-.017-1.652-2.861h0a.579.579,0,0,0-.354-.271.579.579,0,0,0-.441.057h0l-2.348,1.356a.309.309,0,0,1-.377-.051,8.982,8.982,0,0,0-1.731-1.3,8.888,8.888,0,0,0-1.993-.847.31.31,0,0,1-.226-.3v-2.709a.581.581,0,0,0-.171-.41.58.58,0,0,0-.41-.171h-3.324a.583.583,0,0,0-.41.171.581.581,0,0,0-.171.41v2.709a.31.31,0,0,1-.238.3Zm-1.092,5.009a5.041,5.041,0,0,1,3.574-1.48,5.039,5.039,0,0,1,3.573,1.48,5.036,5.036,0,0,1,1.48,3.574,5.037,5.037,0,0,1-1.48,3.573,5.037,5.037,0,0,1-3.573,1.48,5.04,5.04,0,0,1-3.574-1.48,5.039,5.039,0,0,1-1.48-3.573A5.039,5.039,0,0,1,166.521-315.012Zm-2.626,10h0" transform="translate(-64.544 527.093)" fill="#adbee3" fill-rule="evenodd"/>
      <path id="path54" d="M347.526-435.416a.867.867,0,0,0-.867-.867.867.867,0,0,0-.867.867v2.038h-2.038a.867.867,0,0,0-.868.868.867.867,0,0,0,.868.866h2.038v2.039a.868.868,0,0,0,.867.867.868.868,0,0,0,.867-.867v-2.039h2.038a.867.867,0,0,0,.867-.866.867.867,0,0,0-.867-.868h-2.038v-2.038" transform="translate(-139.505 572.933)" fill="#adbee3" fill-rule="evenodd"/>
      <path id="path56" d="M440.532-557.581a8.878,8.878,0,0,0-1.981.843,9,9,0,0,0-1.738,1.31.308.308,0,0,1-.369.045l-2.349-1.356-.013-.008a.581.581,0,0,0-.429-.049.578.578,0,0,0-.353.27l-.01.016-1.652,2.861a.583.583,0,0,0-.057.443.584.584,0,0,0,.27.354l.016.01L434.2-551.5a.309.309,0,0,1,.146.342h0a8.955,8.955,0,0,0-.2,1.068,8.942,8.942,0,0,0-.066,1.088,8.975,8.975,0,0,0,.066,1.089,9.015,9.015,0,0,0,.2,1.068.309.309,0,0,1-.164.352l-2.328,1.344h0a.577.577,0,0,0-.27.354.581.581,0,0,0,.057.442l1.662,2.878h0a.578.578,0,0,0,.353.27.582.582,0,0,0,.441-.056l.017-.01,2.332-1.347a.311.311,0,0,1,.369.045,8.968,8.968,0,0,0,1.738,1.31,8.843,8.843,0,0,0,1.994.847.31.31,0,0,1,.225.3v2.709a.577.577,0,0,0,.171.41.58.58,0,0,0,.41.172h3.324a.577.577,0,0,0,.41-.172.577.577,0,0,0,.171-.41v-2.709a.313.313,0,0,1,.239-.3,8.831,8.831,0,0,0,1.98-.843,8.969,8.969,0,0,0,1.738-1.31.308.308,0,0,1,.385-.035l2.333,1.346a.582.582,0,0,0,.441.056.579.579,0,0,0,.354-.27l.01-.016,1.652-2.862h0a.582.582,0,0,0,.056-.441.577.577,0,0,0-.269-.354L451.83-546.5a.31.31,0,0,1-.146-.342h0a8.828,8.828,0,0,0,.2-1.068,8.965,8.965,0,0,0,.066-1.089,8.964,8.964,0,0,0-.066-1.089,8.814,8.814,0,0,0-.2-1.067.311.311,0,0,1,.164-.353l2.329-1.344a.578.578,0,0,0,.269-.354.582.582,0,0,0-.056-.441l-.01-.017-1.652-2.861h0a.581.581,0,0,0-.354-.27.582.582,0,0,0-.441.056h0l-2.348,1.356a.311.311,0,0,1-.377-.051,9.01,9.01,0,0,0-1.731-1.3,8.879,8.879,0,0,0-1.994-.847.311.311,0,0,1-.225-.3v-2.709a.58.58,0,0,0-.171-.41.58.58,0,0,0-.41-.171h-3.324a.583.583,0,0,0-.41.171.58.58,0,0,0-.171.41v2.709a.311.311,0,0,1-.238.3Zm-1.092,5.009a5.039,5.039,0,0,1,3.574-1.481,5.039,5.039,0,0,1,3.573,1.481,5.036,5.036,0,0,1,1.48,3.573,5.038,5.038,0,0,1-1.48,3.574,5.039,5.039,0,0,1-3.573,1.481,5.039,5.039,0,0,1-3.574-1.481A5.04,5.04,0,0,1,437.96-549,5.038,5.038,0,0,1,439.44-552.572Zm-2.627,10h0" transform="translate(-175.582 623.745)" fill="#adbee3" fill-rule="evenodd"/>
      <path id="path58" d="M916.45-568.908a.867.867,0,0,0-.867-.867.867.867,0,0,0-.867.867v2.038h-2.038a.868.868,0,0,0-.868.867.867.867,0,0,0,.868.867h2.038v2.039a.867.867,0,0,0,.867.867.867.867,0,0,0,.867-.867v-2.039h2.039a.866.866,0,0,0,.866-.867.867.867,0,0,0-.866-.867H916.45v-2.038" transform="translate(-370.974 627.245)" fill="#adbee3" fill-rule="evenodd"/>
      <path id="path60" d="M64.638-187.677a.867.867,0,0,0-.867-.867.867.867,0,0,0-.867.867v2.039H60.866a.866.866,0,0,0-.867.866.867.867,0,0,0,.867.868H62.9v2.038a.867.867,0,0,0,.867.867.867.867,0,0,0,.867-.867V-183.9h2.038a.867.867,0,0,0,.867-.868.866.866,0,0,0-.867-.866H64.638v-2.039" transform="translate(-24.411 472.139)" fill="#adbee3" fill-rule="evenodd"/>
      <path id="path62" d="M533.809-480.288a8.9,8.9,0,0,0-1.981.844,9,9,0,0,0-1.738,1.31.307.307,0,0,1-.369.045l-2.349-1.356-.013-.008a.585.585,0,0,0-.429-.049.585.585,0,0,0-.354.27l-.01.017-1.652,2.861a.583.583,0,0,0-.057.443.581.581,0,0,0,.271.354l.016.01,2.33,1.344a.311.311,0,0,1,.145.342h0a9,9,0,0,0-.2,1.068,9.153,9.153,0,0,0-.065,1.089,9.15,9.15,0,0,0,.065,1.089,9,9,0,0,0,.2,1.068.31.31,0,0,1-.164.352l-2.328,1.344h0a.583.583,0,0,0-.271.354.579.579,0,0,0,.057.441l1.662,2.879h0a.583.583,0,0,0,.354.27.579.579,0,0,0,.441-.057l.017-.009,2.332-1.346a.31.31,0,0,1,.369.045,9,9,0,0,0,1.738,1.31,8.845,8.845,0,0,0,1.994.847.311.311,0,0,1,.225.3v2.709a.583.583,0,0,0,.171.41.583.583,0,0,0,.411.17h3.323a.581.581,0,0,0,.41-.17.583.583,0,0,0,.171-.41v-2.709a.311.311,0,0,1,.239-.3,8.823,8.823,0,0,0,1.981-.843,8.94,8.94,0,0,0,1.737-1.31.31.31,0,0,1,.386-.036l2.333,1.346a.579.579,0,0,0,.441.057.581.581,0,0,0,.354-.27l.01-.016,1.653-2.863h0a.577.577,0,0,0,.056-.44.583.583,0,0,0-.269-.354l-2.346-1.354a.31.31,0,0,1-.146-.342h0a8.677,8.677,0,0,0,.2-1.068,8.952,8.952,0,0,0,.066-1.089,8.963,8.963,0,0,0-.066-1.089,8.676,8.676,0,0,0-.2-1.068.309.309,0,0,1,.164-.352l2.329-1.344a.58.58,0,0,0,.269-.354.578.578,0,0,0-.056-.441l-.01-.017-1.651-2.862h0a.587.587,0,0,0-.354-.27.583.583,0,0,0-.441.056h0l-2.35,1.356a.308.308,0,0,1-.376-.051,9,9,0,0,0-1.73-1.3,8.9,8.9,0,0,0-1.995-.847.311.311,0,0,1-.225-.3V-483.3a.579.579,0,0,0-.171-.41.578.578,0,0,0-.41-.171h-3.323a.58.58,0,0,0-.411.171.579.579,0,0,0-.171.41v2.709a.31.31,0,0,1-.238.3Zm-1.092,5.01a5.042,5.042,0,0,1,3.574-1.48,5.042,5.042,0,0,1,3.574,1.48,5.041,5.041,0,0,1,1.48,3.573,5.043,5.043,0,0,1-1.48,3.574,5.042,5.042,0,0,1-3.574,1.48,5.042,5.042,0,0,1-3.574-1.48,5.04,5.04,0,0,1-1.48-3.574A5.038,5.038,0,0,1,532.717-475.277Zm-2.627,10h0" transform="translate(-213.532 592.298)" fill="#adbee3" fill-rule="evenodd"/>
      <path id="path64" d="M477.336-474.88a.867.867,0,0,0-.867-.867.867.867,0,0,0-.867.867v2.038h-2.038a.867.867,0,0,0-.867.867.868.868,0,0,0,.867.868H475.6v2.038a.867.867,0,0,0,.867.867.867.867,0,0,0,.867-.867v-2.038h2.038a.867.867,0,0,0,.867-.868.867.867,0,0,0-.867-.867h-2.038v-2.038" transform="translate(-192.319 588.989)" fill="#adbee3" fill-rule="evenodd"/>
      <path id="path66" d="M483.292-313.056a.866.866,0,0,0-.866-.866.866.866,0,0,0-.867.866v2.038h-2.039a.867.867,0,0,0-.866.868.866.866,0,0,0,.866.867h2.039v2.038a.867.867,0,0,0,.867.868.867.867,0,0,0,.866-.868v-2.038h2.039a.867.867,0,0,0,.867-.867.868.868,0,0,0-.867-.868h-2.039v-2.038" transform="translate(-194.743 523.15)" fill="#adbee3" fill-rule="evenodd"/>
      <path id="path68" d="M355.222-385.53a.867.867,0,0,0-.867-.867.867.867,0,0,0-.867.867v2.038h-2.038a.868.868,0,0,0-.868.868.868.868,0,0,0,.868.867h2.038v2.038a.867.867,0,0,0,.867.867.867.867,0,0,0,.867-.867v-2.038h2.038a.868.868,0,0,0,.868-.867.868.868,0,0,0-.868-.868h-2.038v-2.038" transform="translate(-142.636 552.637)" fill="#adbee3" fill-rule="evenodd"/>
      <path id="path70" d="M841-394.176a.867.867,0,0,0-.867-.867.867.867,0,0,0-.868.867v2.038h-2.037a.867.867,0,0,0-.868.867.868.868,0,0,0,.868.867h2.037v2.038a.867.867,0,0,0,.868.867.867.867,0,0,0,.867-.867V-390.4h2.038a.867.867,0,0,0,.867-.867.867.867,0,0,0-.867-.867H841v-2.038" transform="translate(-340.276 556.155)" fill="#adbee3" fill-rule="evenodd"/>
      <path id="path72" d="M626.782-285.8a22.511,22.511,0,0,1,9.237,6.657c2.3,2.8,30.484,56.788,32.295,60.3s1.806,12.4-2.464,17.869c-1.657,2.124-6.423,8.068-11.63,14.545H637.335c6.131-9.2,14.135-21.229,14.708-22.2.938-1.583,1.409-3.114-.3-5.788s-24.273-30.179-24.273-30.179-11.09-31-.684-41.207" transform="translate(-253.197 511.707)" fill="#1d1c30" fill-rule="evenodd"/>
      <path id="path74" d="M626.782-285.8a22.511,22.511,0,0,1,9.237,6.657c2.3,2.8,30.484,56.788,32.295,60.3s1.806,12.4-2.464,17.869c-1.657,2.124-6.423,8.068-11.63,14.545H637.335c6.131-9.2,14.135-21.229,14.708-22.2.938-1.583,1.409-3.114-.3-5.788s-24.273-30.179-24.273-30.179-11.09-31-.684-41.207Z" transform="translate(-253.197 511.707)" fill="none" stroke="#1e1c32" stroke-miterlimit="22.926" stroke-width="0.288"/>
      <path id="path76" d="M538.14-293.118s28.417,4.04,29.642,4.343,3.3,3.162,4.417,5.09,2.431,29.666,3.068,37.433-1.87,41.627-1.123,50.721c.123,1.509.355,3.632.656,6.128h-85c-1.091-10.057-8.671-41.522-9.291-49.083-.636-7.766-3.856-35.347-3.067-37.432s2.37-5.243,3.529-5.742,28.872-9.137,28.872-9.137l14.207,1.567,14.095-3.887" transform="translate(-194.197 514.686)" fill="#c7bcc4" fill-rule="evenodd"/>
      <path id="path78" d="M557.343-293.118l4.7.671a4.065,4.065,0,0,1-.974,1.928c-11.04,12.654-22.323,13.579-35.276,2.892a4.061,4.061,0,0,1-1.279-1.756l4.529-1.414,14.207,1.567,14.095-3.887" transform="translate(-213.4 514.686)" fill="#fff" fill-rule="evenodd"/>
      <path id="path80" d="M555.48-339.263l.243,7.074s1.183,14.436,1.363,16.628c.086,1.059,1.313,2.5,3.363,3.67-9.29,10.648-17.4,11.313-28.3,2.32,1.834-1.49,2.809-3.109,2.723-4.169-.18-2.191-1.363-16.628-1.363-16.628l-.911-7.02s5.705.445,11.621,1.246c5.705-1.753,11.263-3.121,11.263-3.121" transform="translate(-216.507 533.46)" fill="#f04153" fill-rule="evenodd"/>
      <path id="path82" d="M578.843-292.553s-3.285,14.2-3.53,17.09-4.1,31.982-3.7,36.9c.183,2.237,4.628,24.97,9.467,49.389H619.8c-.949-5.952-1.764-11.084-2.2-13.982-1.573-10.419-2.628-32.073-2.284-45.447s-2.981-33.442-3.376-35.347-4.191-4.285-5.367-4.727l-27.724-3.876" transform="translate(-232.551 514.456)" fill="#1d1c30" fill-rule="evenodd"/>
      <path id="path84" d="M574.6-259.536c-1.165,9.586-3.3,27.106-2.99,30.823,0,0,18.831-20.5,18.546-22.524s-7.947-17.1-7.947-17.1-3.292,3.785-7.608,8.806" transform="translate(-232.551 504.606)" fill="#393a56" fill-rule="evenodd"/>
      <path id="path86" d="M579.358-293.309s.834-.745,1.131-.77,5.407,1.705,5.407,1.705,7.453,11.717,7.576,13.214-18.3,16.571-18.3,16.571l1.633-13.784s2.671-13.475,3.5-16.8l-.944-.135" transform="translate(-234.01 515.077)" fill="#4b526d" fill-rule="evenodd"/>
      <path id="path88" d="M463.124-273.847a22.51,22.51,0,0,0-8.029,8.072c-1.817,3.134-20.834,60.993-22.047,64.755s.236,12.53,5.34,17.229c.553.509,1.393,1.272,2.449,2.228h21.071c-5.581-5.985-10.634-11.418-11.145-12.026-1.183-1.409-1.9-2.844-.641-5.761s19.035-33.729,19.035-33.729,5.894-32.4-6.033-40.768" transform="translate(-176.023 506.846)" fill="#1d1c30" fill-rule="evenodd"/>
      <path id="path90" d="M506.881-288s5.553,13.475,6.265,16.288,9.255,30.886,9.66,35.8c.179,2.187-.472,24.356-1.247,48.59h-38.3c-.017-2.529-.036-4.653-.055-6.168-.144-10.535-2.629-32.073-5.146-45.212s-2.5-33.482-2.423-35.426,3.436-4.91,4.525-5.538L506.881-288" transform="translate(-193.504 512.606)" fill="#1d1c30" fill-rule="evenodd"/>
      <path id="path92" d="M532.143-255.743c2.709,9.269,7.663,26.208,7.969,29.925,0,0-21.919-17.163-21.966-19.2s5.057-18.17,5.057-18.17,3.863,3.2,8.941,7.45" transform="translate(-210.809 502.511)" fill="#393a56" fill-rule="evenodd"/>
      <path id="path94" d="M521.89-288.883a4.167,4.167,0,0,0-1.24-.577c-.3.025-5.057,2.562-5.057,2.562s-5.447,12.774-5.323,14.27,20.755,13.37,20.755,13.37l-3.855-13.335s-4.828-12.859-6.188-16.005l.909-.286" transform="translate(-207.604 513.198)" fill="#4b526d" fill-rule="evenodd"/>
      <path id="path96" d="M509.143-332.008c-.142.032-.282.07-.421.112l0,0h0a5.848,5.848,0,0,0-4.112,6.008,5.847,5.847,0,0,0,6.251,5.41,5.845,5.845,0,0,0,5.41-6.25,5.832,5.832,0,0,0-2.584-4.441c.305,1.706.226,3.857-1.949,4.271l-.242-3.362a2.01,2.01,0,0,0-2.35-1.749" transform="translate(-205.295 530.516)" fill="#f04153" fill-rule="evenodd"/>
      <path id="path98" d="M578.924-338.458c.146.007.29.017.433.034h0a5.848,5.848,0,0,1,5.13,5.166,5.847,5.847,0,0,1-5.168,6.452,5.847,5.847,0,0,1-6.453-5.168,5.833,5.833,0,0,1,1.737-4.835c.009,1.732.477,3.834,2.689,3.847l-.369-3.35a2.009,2.009,0,0,1,2-2.145" transform="translate(-233.06 533.133)" fill="#f04153" fill-rule="evenodd"/>
      <path id="path100" d="M530.731-384.309h0a20.072,20.072,0,0,0-18.111,21.749l1.653,18.128a20.073,20.073,0,0,0,21.748,18.113h0a20.072,20.072,0,0,0,18.111-21.749L552.479-366.2a20.074,20.074,0,0,0-21.749-18.112" transform="translate(-208.527 551.821)" fill="#f78e73" fill-rule="evenodd"/>
      <path id="path102" d="M513.851-364.457a19.819,19.819,0,0,0-1.233,8.922l1.653,18.127a20.082,20.082,0,0,0,19.847,18.195C522.53-320.1,520.385-333.8,519.5-341.008s1.816-8.826,2.89-9.183,17.9-3.151,21.623-3.58a6.641,6.641,0,0,1,5.6,1.635l1.565-2.28-1.5-4.869s1.284.043,2.8,0a19.912,19.912,0,0,0-.735-3.768,31.786,31.786,0,0,1-6.575-2.968c-4.438-2.864-25.633.717-29.069.717a5.384,5.384,0,0,0-2.238.841" transform="translate(-208.527 544.796)" fill="#f46b62" fill-rule="evenodd"/>
      <path id="path104" d="M543.96-362.165s.121,1.332.235,2.57,1.386,2.512,2.335,2.425l-.257-2.807a2.8,2.8,0,0,1,2.771-2.34c7.022-9.735,4.681-23.957-4.369-30.617s-27.081-5.494-30.126-4.161-5.793,6.956-5.793,6.956-2.883-2.136-5.244-.674-9.217,17.824-8.861,21.727,8.614,10.944,8.614,10.944a2.8,2.8,0,0,1,3.147,1.8l.256,2.808c.949-.086,1.972-1.571,1.859-2.808l-.235-2.569c.089-.049.176-.1.263-.153,2.417-1.571,1.937-6.367,1.937-6.367l-2.227-3.116,4.421-5.815,5.086-1.673,11.556.443s13.626,1.694,12.433,5.659,2.2,7.769,2.2,7.769" transform="translate(-201.245 557.408)" fill="#1e1c32" fill-rule="evenodd"/>
      <path id="path106" d="M495.159-365.734a11.573,11.573,0,0,0-.508,3.426c.274,3.007,10.285,17.526,12.507,20.827,1.157-.105,1.312-8.707,1.134-10.653.089-.05.176-.1.263-.153,2.417-1.571,1.937-6.367,1.937-6.367l-2.227-3.116,4.421-5.816,4.852-1.6a7.1,7.1,0,0,1-3.148-2.021C504.361-361.055,498.54-361.61,495.159-365.734Zm48.8,10.347c.138,1.526,1.16,8.347,2.939,8.185,5.3-11.167,10.2-22.823,2.3-34.263-.929,7.362-8.263,11.853-15.607,13.4,3.885.846,8.915,2.436,8.17,4.911-1.192,3.967,2.2,7.769,2.2,7.769h0" transform="translate(-201.245 550.631)" fill="#16131a" fill-rule="evenodd"/>
      <path id="path108" d="M508.029-357.339s-8.384-18.177,8.481-21.285c0,0,4.464-8.813,13.407-6.6s14.542,2.148,18.554-1.8c0,0,2.3,4.329-.493,8.114,8.466,6.569,5.526,14.992,2.062,19.537-1.388-9.421-26.206,1.066-29.45-7.989-.323,8.653-9.395,6.5-12.561,10.03" transform="translate(-205.846 552.895)" fill="#1e1c32" fill-rule="evenodd"/>
      <path id="path110" d="M508.073-350.229a26.272,26.272,0,0,1-2.02-7.919c3.26-.31,7.489-2.651,12.982-8.21,0,0,2.244,3.3,12.6,3.723,6.291.259,14.29-2.07,18.8-6.921,5.391,6.142,2.726,13.245-.353,17.286-1.388-9.421-26.205,1.066-29.451-7.989-.323,8.653-9.394,6.5-12.56,10.03" transform="translate(-205.89 545.785)" fill="#16131a" fill-rule="evenodd"/>
      <path id="path112" d="M884.9-338.565c-3.546-13.3-15.936-5.984-21.238,5.4s-17.452,55.783-27.955,67.28c-4.071,4.456-2.826,4.831.917,2.66,18.668-10.822,53.158-57.038,48.276-75.339" transform="translate(-338.984 536.08)" fill="#232f4d" fill-rule="evenodd"/>
      <path id="path114" d="M833.2-258.9c-.128.6.434.626,1.5.186,28.3-23.936,43.331-77.445,43.379-77.617a.554.554,0,0,0-.38-.684.555.555,0,0,0-.686.38c-.048.172-15.283,54.411-43.812,77.734" transform="translate(-338.985 532.555)" fill="#1e75bc" fill-rule="evenodd"/>
      <path id="path116" d="M852.454-324.566c-6.185-9.694-14.205-.74-15.552,9.667s.2,48.842-5.265,60.653c-2.116,4.578-1.031,4.562,1.4,1.888,12.135-13.338,27.927-58.864,19.414-72.208" transform="translate(-337.896 529.171)" fill="#1e75bc" fill-rule="evenodd"/>
      <path id="path118" d="M830.518-247.837c.048.509.5.388,1.239-.232C848.251-274.285,846.7-320.7,846.7-320.852a.464.464,0,0,0-.476-.45.464.464,0,0,0-.449.477c0,.149,1.577,47.2-15.252,72.988" transform="translate(-337.9 526.153)" fill="#232f4d" fill-rule="evenodd"/>
      <path id="path120" d="M882.937-266.137c10.688,1.114,6.559,11.563-1.575,17.041s-40.9,20.263-48.49,29.766c-2.941,3.685-3.382,2.769-2.165-.383,6.072-15.719,37.518-47.958,52.229-46.424" transform="translate(-337.719 503.73)" fill="#1e75bc" fill-rule="evenodd"/>
      <path id="path122" d="M830.508-213.461c-.445.172-.535-.259-.325-1.133,15.014-24.75,54.457-42.866,54.583-42.925a.433.433,0,0,1,.574.21.433.433,0,0,1-.21.575c-.127.059-40.108,18.423-54.622,43.273" transform="translate(-337.719 500.219)" fill="#232f4d" fill-rule="evenodd"/>
      <path id="path124" d="M660.034-288.618,657.38-265.3s4.011,54.614,5.984,77.725h29.783l.654-92.951-33.767-8.094" transform="translate(-267.458 512.855)" fill="#1e1c32" fill-rule="evenodd"/>
      <path id="path126" d="M687.583-254.62l-1.311,8.242,2.61,72.576H725.19c.606-5.024,1.152-9.319,1.6-12.415,2.727-19.089,3.66-45.619,3.648-51.9s-7.285-15.6-9.784-16.279-33.066-.226-33.066-.226" transform="translate(-279.212 499.083)" fill="#1e1c32" fill-rule="evenodd"/>
      <path id="path128" d="M642.174-444.757s-1.24-2.308-2.219-1.875-33.854,48.808-34.969,52.97-.656,11.541,5.708,21.78,19.977,35.373,20.457,35.915,7.92-4.5,8.714-5.91c0,0,.326-.463-.151-1.405s-16.662-39.279-17.687-42.031,27.811-36.881,29.186-39.61,6.676-17.049-9.039-19.833" transform="translate(-245.948 577.166)" fill="#23203b" fill-rule="evenodd"/>
      <path id="path130" d="M692.867-466.794,678.55-456.567s-10.214,39.99-10.254,41.807-3.95,23.87-3.95,23.87,14.317,5.681,16.362.227,25-44.542,26.135-50.678-1.591-20.68-2.955-22.271-11.021-3.182-11.021-3.182" transform="translate(-270.292 585.346)" fill="#c2b6c7" fill-rule="evenodd"/>
      <path id="path132" d="M671.154-455.436s-12.966,4.562-14.159,5.244-8.2,26.2-8.764,28.589,3.182,46.132,3.182,50-4.886,52.155-5,52.95a1.429,1.429,0,0,0,1.477,1.7c1.136,0,13.863-23.975,14.886-26.7s-2.288-43.858-2.288-43.858l8.653-58.862,2.013-9.062" transform="translate(-262.989 580.726)" fill="#23203b" fill-rule="evenodd"/>
      <path id="path134" d="M717.026-444.534s18.584,18.732,19.266,19.868-18.634,65.109-18.861,68.063,9.546,46.474,9.886,47.61a2.2,2.2,0,0,1-.284,1.136,4.241,4.241,0,0,1-1.533,1.364c-.4.284-45.849-7.046-49.486-9.319s-11.476-37.61-11.476-42.383,2.749-23.037,2.749-23.037L689.65-419.1s16.156-24.23,27.376-25.436" transform="translate(-270.37 576.29)" fill="#272646" fill-rule="evenodd"/>
      <path id="path136" d="M739.093-449.5s21.528,21.677,22.21,22.813-18.634,65.109-18.861,68.063,9.546,46.474,9.886,47.61a2.2,2.2,0,0,1-.284,1.136,4.236,4.236,0,0,1-1.534,1.364c-.2.146-12.295-1.717-24.5-3.871,10.586-15.259,10.034-40.539,9.11-42.077-1.073-1.791-6.73-5.656-5.871-5.943s6.658-.429,7.088-1.861S744.926-409,744.926-409l5.446-3.672s2.435-17.613.716-20.191-13.052-12.324-13.144-12.4c1.409-.692-.16-4.093,1.149-4.234" transform="translate(-295.381 578.31)" fill="#201f38" fill-rule="evenodd"/>
      <path id="path138" d="M770.33-415.851a32.42,32.42,0,0,1,4.76,4.783c1.947,2.539,26.2,53.23,26.7,57.982s-1.273,12.754-10.011,22.872-27.989,35.294-28.609,35.8-7.9-6.3-8.523-7.978c0,0-.278-.563.407-1.513s25.032-40.146,26.63-42.983-24.094-45.2-25.13-48.425-3.917-20.206,13.777-20.542" transform="translate(-307.008 564.62)" fill="#38385f" fill-rule="evenodd"/>
      <path id="path140" d="M717.961-496.8c.131,7.084-1.706,14.4-1.242,21.5.095,1.447.788,1.928,2.573,3.088,2.473,3.68-4.29,15.317-8.738,16.01-.294.046-7.539-5.636-12.671-6.955-2.634-.676-4.8,2.687-5,2.543-1.067-.776,1.227-6.8.48-9.079.9-.242,1.707-2.259,2.347-2.846,4.157-3.835,2.8-13.407-.6-17.023-2.543-2.7,22.856-7.236,22.856-7.236" transform="translate(-281.785 597.556)" fill="#f46b62" fill-rule="evenodd"/>
      <path id="path142" d="M726.324-457.611c-.565,1.6-14.3,19.937-14.3,19.937s-.491.659-1.209-.176-9.181-12.648-9.181-12.648l18.8-14.005L720-467.726c.276-.294,6.907,8.469,6.326,10.115" transform="translate(-285.462 585.729)" fill="#fff" fill-rule="evenodd"/>
      <path id="path144" d="M696.168-460.745c0-.009-.021-.028-.072-.032-6.425-.453-7.4,17.751-6.269,21.319.008.024,3.9-5.958,6.591-8.337,1.216-1.076-2.588-9.3-.25-12.95" transform="translate(-280.494 582.902)" fill="#fff" fill-rule="evenodd"/>
      <path id="path146" d="M711.5-459.491S687.467-429.7,685.762-427.2s-14.771,33.294-16.589,39.884c0,0,20.112-25.112,22.953-27.384s13.354-11.022,13.354-11.022a1.52,1.52,0,0,0,.142-.966c-.142-.4-3.067-7.016-3.067-7.016s8.749,1.307,9.544,1.25,4.724-19.577,4.837-20.146-5.436-6.89-5.436-6.89" transform="translate(-272.256 582.375)" fill="#38385f" fill-rule="evenodd"/>
      <path id="path148" d="M688.381-460.792a70.308,70.308,0,0,0-7.38,2.041c-1.022.569-9.09,13.976-9.317,15.113a.713.713,0,0,0,.34.767,23.724,23.724,0,0,1,2.3,1.449c.169.17-2.813.511-2.813.511s-.34.129-.283.654-1.077,50.566-1.077,50.566,9.918-55.332,11.386-58.975a66.767,66.767,0,0,1,5.415-9.4l1.427-2.723" transform="translate(-272.654 582.905)" fill="#38385f" fill-rule="evenodd"/>
      <path id="path150" d="M678.79-514.183a5.669,5.669,0,0,1,5.7,5.636,5.668,5.668,0,0,1-5.636,5.7,5.668,5.668,0,0,1-5.7-5.636,5.669,5.669,0,0,1,5.636-5.7" transform="translate(-273.875 604.627)" fill="#f04153" fill-rule="evenodd"/>
      <path id="path152" d="M742.557-514.547a5.667,5.667,0,0,1,5.7,5.636,5.667,5.667,0,0,1-5.636,5.7,5.667,5.667,0,0,1-5.7-5.636,5.667,5.667,0,0,1,5.636-5.7" transform="translate(-299.819 604.775)" fill="#f04153" fill-rule="evenodd"/>
      <path id="path154" d="M698-563.294h0c10.676-.065,19.459,9.408,19.519,21.051l.1,19.238c.059,11.643-8.627,21.221-19.3,21.287h0c-10.676.065-19.46-9.408-19.52-21.05l-.1-19.239c-.059-11.643,8.627-21.222,19.3-21.287" transform="translate(-276.13 624.608)" fill="#f78e73" fill-rule="evenodd"/>
      <path id="path156" d="M716.765-544.1a22.788,22.788,0,0,1,.755,5.719l.1,19.238c.055,10.706-7.285,19.666-16.769,21.089-.931.1-1.529.157-1.658.17h-.009c10.6-1.049,12.846-14.976,12.846-19.175V-527.96c0-10.3-5.7-11.38-9.6-11.38H683.066a3.782,3.782,0,0,0-3.4,2.3l-.965-.733,0-.369a22.045,22.045,0,0,1,6.26-15.653c9.72,1.9,25.883,5.128,27,5.825.606.378,2.585,2,4.811,3.874" transform="translate(-276.13 620.743)" fill="#f46b62" fill-rule="evenodd"/>
      <path id="path158" d="M673.543-545.762l3.487,3.5s1.671-6.508,15.73-4.5-12.964-13.067-16.024-11.421-5.727,6.486-3.193,12.421" transform="translate(-273.622 622.58)" fill="#141215" fill-rule="evenodd"/>
      <path id="path160" d="M706.772-553.563s-13.837,1.518-20.879-2.954-13-6.544-14.809-4.115c-1.712,2.3,5.174,8.526,2.4,19.11-.15.574-.512,10.363-.724,10.963-.067-3.83-1.294-13.616-2.563-16.065-3.787-7.311-9.712-12.807-2.017-23.771,4.724-6.729,12.746-9.882,16.472-6.477,12.145,11.094,28.863-3.32,28.965,15.063,0,0,9.007,3.033.637,21.462a2.392,2.392,0,0,0-2.474,2.657l.074,9.839c-6.763,0-6.9-17.731-5.086-25.712" transform="translate(-270.327 630.695)" fill="#1e1c32" fill-rule="evenodd"/>
      <path id="path162" d="M723.4-181.5H762.56A3.452,3.452,0,0,0,766-184.938v-67.316a3.453,3.453,0,0,0-3.442-3.442H723.4a3.452,3.452,0,0,0-3.441,3.442v67.316A3.452,3.452,0,0,0,723.4-181.5" transform="translate(-292.92 499.46)" fill="#dbd6dd" fill-rule="evenodd"/>
      <path id="path164" d="M791.246-181.5h31.673a2.905,2.905,0,0,0,2.9-2.9V-252.8a2.905,2.905,0,0,0-2.9-2.9H791.246a2.905,2.905,0,0,0-2.9,2.9v68.408a2.9,2.9,0,0,0,2.9,2.9" transform="translate(-320.743 499.46)" fill="#fff" fill-rule="evenodd"/>
      <path id="path166" d="M706.753-213.725h40.563c0-7.269,7.836-8.072,7.836-8.072H714.589s-7.836.8-7.836,8.072" transform="translate(-287.545 485.669)" fill="#fff" fill-rule="evenodd"/>
      <path id="path168" d="M718.409-150.733h41.979a2.273,2.273,0,0,1,2.266,2.266v14.727a2.273,2.273,0,0,1-2.266,2.266H718.409a2.272,2.272,0,0,1-2.267-2.266v-14.727a2.272,2.272,0,0,1,2.267-2.266" transform="translate(-291.365 456.756)" fill="#ce1c6c" fill-rule="evenodd"/>
      <path id="path170" d="M786.955-150.733h9.219a4.344,4.344,0,0,1,3.712,2.832c1.322,2.88,1.181,5.759,5.1,5.759h1.686c3.918,0,3.808-2.947,5.1-5.759s3.505-2.83,3.713-2.832h8.748a2.273,2.273,0,0,1,2.266,2.266v14.727a2.273,2.273,0,0,1-2.266,2.266H786.955a2.273,2.273,0,0,1-2.267-2.266v-14.727a2.273,2.273,0,0,1,2.267-2.266" transform="translate(-319.254 456.756)" fill="#ee2289" fill-rule="evenodd"/>
      <path id="path172" d="M706.753-170.865h40.563c0-7.269,7.836-8.072,7.836-8.072H714.589s-7.836.8-7.836,8.072" transform="translate(-287.545 468.231)" fill="#fff" fill-rule="evenodd"/>
      <path id="path174" d="M832.41-191.3H795.52c0-7.27-7.17-8.072-7.17-8.072h36.889s7.172.8,7.172,8.072" transform="translate(-320.743 476.544)" fill="#a1a0b4" fill-rule="evenodd"/>
      <path id="path176" d="M797.392-242.106h28.276a1.25,1.25,0,0,1,1.247,1.246h0a1.25,1.25,0,0,1-1.247,1.246H797.392a1.25,1.25,0,0,1-1.246-1.246h0a1.25,1.25,0,0,1,1.246-1.246" transform="translate(-323.915 493.932)" fill="#dbd6dd" fill-rule="evenodd"/>
      <path id="path178" d="M797.392-218.95h28.276a1.25,1.25,0,0,1,1.247,1.246h0a1.25,1.25,0,0,1-1.247,1.246H797.392a1.25,1.25,0,0,1-1.246-1.246h0a1.25,1.25,0,0,1,1.246-1.246" transform="translate(-323.915 484.51)" fill="#dbd6dd" fill-rule="evenodd"/>
      <path id="path180" d="M797.392-170.6h28.276a1.25,1.25,0,0,1,1.247,1.246h0a1.25,1.25,0,0,1-1.247,1.246H797.392a1.25,1.25,0,0,1-1.246-1.246h0a1.25,1.25,0,0,1,1.246-1.246" transform="translate(-323.915 464.837)" fill="#dbd6dd" fill-rule="evenodd"/>
      <path id="path182" d="M729.214-243.809h27.314a1.25,1.25,0,0,1,1.246,1.246h0a1.25,1.25,0,0,1-1.246,1.246H729.214a1.25,1.25,0,0,1-1.246-1.246h0a1.249,1.249,0,0,1,1.246-1.246" transform="translate(-296.176 494.624)" fill="#a1a0b4" fill-rule="evenodd"/>
      <path id="path184" d="M729.214-191.654h27.314a1.25,1.25,0,0,1,1.246,1.246h0a1.25,1.25,0,0,1-1.246,1.246H729.214a1.25,1.25,0,0,1-1.246-1.246h0a1.249,1.249,0,0,1,1.246-1.246" transform="translate(-296.176 473.405)" fill="#a1a0b4" fill-rule="evenodd"/>
      <path id="path186" d="M729.214-158.282h27.314a1.25,1.25,0,0,1,1.246,1.246h0a1.25,1.25,0,0,1-1.246,1.246H729.214a1.25,1.25,0,0,1-1.246-1.246h0a1.249,1.249,0,0,1,1.246-1.246" transform="translate(-296.176 459.827)" fill="#a1a0b4" fill-rule="evenodd"/>
      <path id="path188" d="M690.509-156.531h23.7a2.088,2.088,0,0,0,2.083-2.083v-40.737a2.089,2.089,0,0,0-2.083-2.083h-23.7a2.089,2.089,0,0,0-2.083,2.083v40.737a2.089,2.089,0,0,0,2.083,2.083" transform="translate(-280.089 477.384)" fill="#dbd6dd" fill-rule="evenodd"/>
      <path id="path190" d="M731.565-156.531h19.168a1.757,1.757,0,0,0,1.752-1.753v-41.4a1.758,1.758,0,0,0-1.752-1.753H731.565a1.758,1.758,0,0,0-1.753,1.753v41.4a1.757,1.757,0,0,0,1.753,1.753" transform="translate(-296.927 477.384)" fill="#fff" fill-rule="evenodd"/>
      <path id="path192" d="M680.433-176.035H704.98c0-4.4,4.742-4.884,4.742-4.884H685.174s-4.741.486-4.741,4.884" transform="translate(-276.837 469.037)" fill="#fff" fill-rule="evenodd"/>
      <path id="path194" d="M687.486-137.913h25.4a1.376,1.376,0,0,1,1.372,1.371v8.911a1.376,1.376,0,0,1-1.372,1.372h-25.4a1.376,1.376,0,0,1-1.371-1.372v-8.911a1.375,1.375,0,0,1,1.371-1.371" transform="translate(-279.149 451.54)" fill="#ce1c6c" fill-rule="evenodd"/>
      <path id="path196" d="M728.969-137.913h5.579A2.63,2.63,0,0,1,736.8-136.2c.8,1.743.714,3.485,3.084,3.485H740.9c2.37,0,2.3-1.783,3.086-3.485a2.558,2.558,0,0,1,2.247-1.714h5.294a1.375,1.375,0,0,1,1.371,1.371v8.911a1.376,1.376,0,0,1-1.371,1.372H728.969a1.376,1.376,0,0,1-1.372-1.372v-8.911a1.376,1.376,0,0,1,1.372-1.371" transform="translate(-296.026 451.54)" fill="#ee2289" fill-rule="evenodd"/>
      <path id="path198" d="M680.433-150.1H704.98c0-4.4,4.742-4.884,4.742-4.884H685.174s-4.741.485-4.741,4.884" transform="translate(-276.837 458.484)" fill="#fff" fill-rule="evenodd"/>
      <path id="path200" d="M756.477-162.462H734.152c0-4.4-4.339-4.884-4.339-4.884h22.325s4.339.486,4.339,4.884" transform="translate(-296.927 463.515)" fill="#a1a0b4" fill-rule="evenodd"/>
      <path id="path202" d="M735.285-193.21H752.4a.756.756,0,0,1,.755.754h0a.756.756,0,0,1-.755.755H735.285a.757.757,0,0,1-.755-.755h0a.757.757,0,0,1,.755-.754" transform="translate(-298.847 474.038)" fill="#dbd6dd" fill-rule="evenodd"/>
      <path id="path204" d="M735.285-179.2H752.4a.755.755,0,0,1,.755.754h0a.756.756,0,0,1-.755.754H735.285a.757.757,0,0,1-.755-.754h0a.756.756,0,0,1,.755-.754" transform="translate(-298.847 468.336)" fill="#dbd6dd" fill-rule="evenodd"/>
      <path id="path206" d="M735.285-149.934H752.4a.756.756,0,0,1,.755.754h0a.756.756,0,0,1-.755.755H735.285a.757.757,0,0,1-.755-.755h0a.757.757,0,0,1,.755-.754" transform="translate(-298.847 456.431)" fill="#dbd6dd" fill-rule="evenodd"/>
      <path id="path208" d="M694.026-194.242h16.53a.757.757,0,0,1,.754.754h0a.757.757,0,0,1-.754.754h-16.53a.756.756,0,0,1-.754-.754h0a.757.757,0,0,1,.754-.754" transform="translate(-282.06 474.458)" fill="#a1a0b4" fill-rule="evenodd"/>
      <path id="path210" d="M694.026-162.678h16.53a.757.757,0,0,1,.754.754h0a.756.756,0,0,1-.754.754h-16.53a.756.756,0,0,1-.754-.754h0a.757.757,0,0,1,.754-.754" transform="translate(-282.06 461.616)" fill="#a1a0b4" fill-rule="evenodd"/>
      <path id="path212" d="M694.026-142.482h16.53a.756.756,0,0,1,.754.754h0a.757.757,0,0,1-.754.754h-16.53a.757.757,0,0,1-.754-.754h0a.756.756,0,0,1,.754-.754" transform="translate(-282.06 453.399)" fill="#a1a0b4" fill-rule="evenodd"/>
      <path id="path230" d="M281.13-291.387h15.853a8.387,8.387,0,0,0,8.363-8.362H272.769a8.386,8.386,0,0,0,8.362,8.362" transform="translate(-110.977 517.384)" fill="#fff" fill-rule="evenodd"/>
      <g id="Group_31" data-name="Group 31">
        <path id="path214" d="M275.082-302.606l-30.862-.149,0,1.844,30.862.149Zm-31.634-1.7,32.409.154a.773.773,0,0,1,.773.773l-.007,3.39a.774.774,0,0,1-.774.774l-32.409-.153a.774.774,0,0,1-.773-.773l.008-3.39a.775.775,0,0,1,.773-.774h0" transform="translate(-98.73 519.237)" fill="#1e1c32" fill-rule="evenodd"/>
        <path id="path216" d="M215.541-303.508l-41.8,47.629,1.386,1.216,41.8-47.629Zm-43.472,47.191,42.818-48.79a.774.774,0,0,1,1.091-.074l2.549,2.237a.774.774,0,0,1,.074,1.091l-42.817,48.791a.773.773,0,0,1-1.091.074l-2.549-2.237a.774.774,0,0,1-.074-1.091h0" transform="translate(-69.93 519.672)" fill="#1e1c32" fill-rule="evenodd"/>
        <path id="path218" d="M242.129-307.275a4.314,4.314,0,0,1,4.824,3.737,4.315,4.315,0,0,1-3.738,4.824,4.315,4.315,0,0,1-4.824-3.738,4.315,4.315,0,0,1,3.738-4.823" transform="translate(-96.976 520.46)" fill="#38385f" fill-rule="evenodd"/>
        <path id="path220" d="M203.213-168.024l-29.388-56.14,1.633-.855,29.389,56.14Zm-31.119-56.11L202.2-166.622a.774.774,0,0,0,1.043.329l3-1.572a.775.775,0,0,0,.329-1.044L176.47-226.42a.773.773,0,0,0-1.042-.329l-3,1.573a.773.773,0,0,0-.329,1.042h0" transform="translate(-69.982 487.719)" fill="#1e1c32" fill-rule="evenodd"/>
        <path id="path222" d="M220.777-128.708a4.316,4.316,0,0,0,5.569-2.5,4.317,4.317,0,0,0-2.5-5.57,4.316,4.316,0,0,0-5.569,2.5,4.316,4.316,0,0,0,2.5,5.57" transform="translate(-88.693 451.192)" fill="#38385f" fill-rule="evenodd"/>
        <path id="path224" d="M173.713-229.315a4.316,4.316,0,0,1,4.824,3.738,4.316,4.316,0,0,1-3.738,4.824,4.315,4.315,0,0,1-4.824-3.738,4.316,4.316,0,0,1,3.738-4.824" transform="translate(-69.141 488.742)" fill="#38385f" fill-rule="evenodd"/>
        <path id="path226" d="M156.177-118.243h60.148a5.467,5.467,0,0,0,5.45-5.45h0a5.466,5.466,0,0,0-5.45-5.45H156.177a5.466,5.466,0,0,0-5.451,5.45h0a5.467,5.467,0,0,0,5.451,5.45" transform="translate(-61.324 447.972)" fill="#38385f" fill-rule="evenodd"/>
        <path id="path228" d="M192.3-118.243h60.148a5.467,5.467,0,0,0,5.451-5.45h0a5.467,5.467,0,0,0-5.451-5.45H192.3a5.466,5.466,0,0,0-5.451,5.45h0a5.467,5.467,0,0,0,5.451,5.45" transform="translate(-76.022 447.972)" fill="#1e1c32" fill-rule="evenodd"/>
        <path id="path232" d="M283.925-291.911h9.525a5.039,5.039,0,0,0,5.024-5.024H278.9a5.039,5.039,0,0,0,5.024,5.024" transform="translate(-113.472 516.239)" fill="#cbede9" fill-rule="evenodd"/>
        <path id="path234" d="M273.491-306.218h26.516a6.414,6.414,0,0,1,6.4,6.4H267.1a6.414,6.414,0,0,1,6.4-6.4" transform="translate(-108.669 520.016)" fill="#38385f" fill-rule="evenodd"/>
        <path id="path236" d="M273.491-306.218h12.125a6.415,6.415,0,0,1,6.4,6.4H267.1a6.414,6.414,0,0,1,6.4-6.4" transform="translate(-108.669 520.016)" fill="#141215" fill-rule="evenodd"/>
      </g>
      <path id="path238" d="M814.115-514.375a.585.585,0,0,1-.815.137.584.584,0,0,1-.138-.815,24.9,24.9,0,0,1,8.847-7.648,24.689,24.689,0,0,1,11.327-2.736,24.714,24.714,0,0,1,17.529,7.262,24.715,24.715,0,0,1,7.26,17.529,24.716,24.716,0,0,1-7.26,17.529,24.717,24.717,0,0,1-17.529,7.261,24.683,24.683,0,0,1-15.255-5.251,24.808,24.808,0,0,1-8.809-13.565.585.585,0,0,1,.429-.708.586.586,0,0,1,.708.429,23.632,23.632,0,0,0,8.393,12.923,23.516,23.516,0,0,0,14.535,5,23.539,23.539,0,0,0,16.7-6.918,23.541,23.541,0,0,0,6.918-16.7,23.544,23.544,0,0,0-6.918-16.7,23.545,23.545,0,0,0-16.7-6.918,23.519,23.519,0,0,0-10.791,2.6,23.726,23.726,0,0,0-8.431,7.287" transform="translate(-329.249 609.206)" fill="#1e1c32" fill-rule="evenodd"/>
      <path id="path240" d="M853.111-496.4c1.4-5.167,4.008-7.177,4.279-7.374a.5.5,0,0,1,.572-.04,9.328,9.328,0,0,1,3.986,4.3,6.226,6.226,0,0,1,.014,5.251L851.8-476.649A6.2,6.2,0,0,1,847.221-474a9.315,9.315,0,0,1-5.7-1.292.5.5,0,0,1-.274-.489c0-.01.268-3.42,4.234-7.41a.5.5,0,0,1,.626-.1c.01,0,3.358,1.938,4.385.208l5.216-9.037c.973-1.684-2.075-3.541-2.344-3.7a.506.506,0,0,1-.255-.577Zm4.63-6.366a12.955,12.955,0,0,0-3.556,6.271c.973.648,3.655,2.7,2.4,4.878l-5.232,9.058c-1.272,2.117-4.354.836-5.4.322a12.944,12.944,0,0,0-3.653,6.215A8.2,8.2,0,0,0,847.1-475a5.165,5.165,0,0,0,3.821-2.147l10.161-17.6a5.2,5.2,0,0,0-.065-4.363,8.188,8.188,0,0,0-3.278-3.648h0" transform="translate(-342.264 600.436)" fill="#1e1c32" fill-rule="evenodd"/>
      <g id="g242" transform="translate(483.789 211.484)">
        <text id="text246" transform="translate(0 20)" fill="#1e1c32" font-size="19" font-family="OpenSans-ExtraBold, Open Sans" font-weight="800"><tspan x="0" y="0">24</tspan></text>
      </g>
      <path id="path248" d="M581.408-552.469h33.771a5.278,5.278,0,0,1,5.262,5.262v29.416a.578.578,0,0,1-.362.543.576.576,0,0,1-.64-.127l-8.968-8.968H581.408a5.278,5.278,0,0,1-5.262-5.262v-15.6a5.278,5.278,0,0,1,5.262-5.262" transform="translate(-234.407 620.204)" fill="#adbee3" fill-rule="evenodd"/>
      <path id="path250" d="M607.975-556.846H574.2a4.552,4.552,0,0,0-3.224,1.342,4.554,4.554,0,0,0-1.343,3.225v15.6a4.554,4.554,0,0,0,1.343,3.225,4.552,4.552,0,0,0,3.224,1.342h29.351l8.987,8.988v-29.156A4.553,4.553,0,0,0,611.2-555.5,4.555,4.555,0,0,0,607.975-556.846ZM574.2-558.237h33.771a5.938,5.938,0,0,1,4.208,1.75,5.943,5.943,0,0,1,1.749,4.208v29.415a1.278,1.278,0,0,1-.217.713,1.268,1.268,0,0,1-.575.471h0a1.27,1.27,0,0,1-.736.076,1.274,1.274,0,0,1-.66-.353l-8.764-8.764H574.2a5.947,5.947,0,0,1-4.209-1.749,5.943,5.943,0,0,1-1.748-4.209v-15.6a5.939,5.939,0,0,1,1.748-4.208,5.941,5.941,0,0,1,4.209-1.75h0" transform="translate(-231.193 622.551)" fill="#fff" fill-rule="evenodd"/>
      <path id="path252" d="M577.555-548.953a.381.381,0,0,1-.38-.38.381.381,0,0,1,.38-.38h34.332a.381.381,0,0,1,.381.38.381.381,0,0,1-.381.38H577.555" transform="translate(-234.826 619.083)" fill="#fff" fill-rule="evenodd"/>
      <path id="path254" d="M586.034-542.7a.381.381,0,0,1-.38-.381.38.38,0,0,1,.38-.38h25.853a.381.381,0,0,1,.381.38.382.382,0,0,1-.381.381Zm-8.479,0a.381.381,0,0,1-.38-.381.38.38,0,0,1,.38-.38h3.637a.379.379,0,0,1,.38.38.38.38,0,0,1-.38.381h-3.637" transform="translate(-234.826 616.537)" fill="#fff" fill-rule="evenodd"/>
      <path id="path256" d="M577.555-536.442a.381.381,0,0,1-.38-.38.381.381,0,0,1,.38-.38h34.332a.381.381,0,0,1,.381.38.381.381,0,0,1-.381.38H577.555" transform="translate(-234.826 613.993)" fill="#fff" fill-rule="evenodd"/>
      <path id="path258" d="M593.652-527.962a.381.381,0,0,1-.38-.38.381.381,0,0,1,.38-.38h24.784a.381.381,0,0,1,.381.38.381.381,0,0,1-.381.38H593.652" transform="translate(-241.375 610.543)" fill="#fff" fill-rule="evenodd"/>
      <path id="path260" d="M612.311-521.177a.381.381,0,0,1-.38-.381.38.38,0,0,1,.38-.38h13.717a.381.381,0,0,1,.381.38.381.381,0,0,1-.381.381H612.311" transform="translate(-248.966 607.782)" fill="#fff" fill-rule="evenodd"/>
      <path id="path262" d="M599.059-521.177a.381.381,0,0,1-.38-.381.38.38,0,0,1,.38-.38h4.9a.381.381,0,0,1,.381.38.381.381,0,0,1-.381.381h-4.9" transform="translate(-243.575 607.782)" fill="#fff" fill-rule="evenodd"/>
      <path id="path264" d="M910.494-112.224a.867.867,0,0,0-.868-.866.866.866,0,0,0-.867.866v2.038h-2.037a.868.868,0,0,0-.868.867.867.867,0,0,0,.868.866h2.037v2.039a.867.867,0,0,0,.867.867.867.867,0,0,0,.868-.867v-2.039h2.038a.867.867,0,0,0,.867-.866.868.868,0,0,0-.867-.867h-2.038v-2.038" transform="translate(-368.551 441.441)" fill="#adbee3" fill-rule="evenodd"/>
      <path id="path266" d="M320.018-134.754H290.653a4.376,4.376,0,0,0-3.1,1.288,4.377,4.377,0,0,0-1.289,3.1,4.372,4.372,0,0,0,1.289,3.1,4.374,4.374,0,0,0,3.1,1.289h29.365a4.374,4.374,0,0,0,3.1-1.289,4.372,4.372,0,0,0,1.289-3.1,4.377,4.377,0,0,0-1.289-3.1,4.376,4.376,0,0,0-3.1-1.288" transform="translate(-116.467 450.255)" fill="#1e75bc" fill-rule="evenodd"/>
      <path id="path268" d="M232.43-133.892h37.553a3.889,3.889,0,0,1,3.878,3.877h0a3.89,3.89,0,0,1-3.878,3.879H232.43v-7.756" transform="translate(-94.565 449.904)" fill="#fff" fill-rule="evenodd"/>
      <path id="path270" d="M232.079-134.754a.512.512,0,0,0-.512.512.511.511,0,0,0,.512.511h37.553a3.352,3.352,0,0,1,2.377.989,3.353,3.353,0,0,1,.989,2.376,3.354,3.354,0,0,1-.989,2.378,3.351,3.351,0,0,1-2.377.989H232.079a.512.512,0,0,0-.512.513.511.511,0,0,0,.512.51h37.553a4.376,4.376,0,0,0,3.1-1.289,4.375,4.375,0,0,0,1.289-3.1,4.38,4.38,0,0,0-1.289-3.1,4.379,4.379,0,0,0-3.1-1.288H232.079" transform="translate(-94.214 450.255)" fill="#2a4986" fill-rule="evenodd"/>
      <path id="path272" d="M337.88-130.366a4.377,4.377,0,0,0-1.289-3.1,4.378,4.378,0,0,0-3.1-1.288h3.817a4.376,4.376,0,0,1,3.1,1.288,4.377,4.377,0,0,1,1.29,3.1,4.372,4.372,0,0,1-1.29,3.1,4.374,4.374,0,0,1-3.1,1.289h-3.817a4.375,4.375,0,0,0,3.1-1.289,4.372,4.372,0,0,0,1.289-3.1" transform="translate(-135.682 450.255)" fill="#2a4986" fill-rule="evenodd"/>
      <path id="path274" d="M328.555-130.366a4.38,4.38,0,0,0-1.289-3.1,4.377,4.377,0,0,0-3.1-1.288h3.818a4.38,4.38,0,0,1,3.1,1.288,4.379,4.379,0,0,1,1.288,3.1,4.374,4.374,0,0,1-1.288,3.1,4.377,4.377,0,0,1-3.1,1.289h-3.818a4.374,4.374,0,0,0,3.1-1.289,4.375,4.375,0,0,0,1.289-3.1" transform="translate(-131.888 450.255)" fill="#2a4986" fill-rule="evenodd"/>
      <path id="path276" d="M242.81-147.714h25.715a3.83,3.83,0,0,1,2.714,1.129,3.827,3.827,0,0,1,1.129,2.714,3.832,3.832,0,0,1-1.129,2.715,3.83,3.83,0,0,1-2.714,1.129H242.81a3.828,3.828,0,0,1-2.714-1.129,3.832,3.832,0,0,1-1.129-2.715,3.828,3.828,0,0,1,1.129-2.714,3.829,3.829,0,0,1,2.714-1.129" transform="translate(-97.224 455.528)" fill="#ee2289" fill-rule="evenodd"/>
      <path id="path278" d="M317.533-146.96H284.649a3.406,3.406,0,0,0-3.4,3.4h0a3.405,3.405,0,0,0,3.4,3.4h32.884v-6.792" transform="translate(-114.429 455.221)" fill="#fff" fill-rule="evenodd"/>
      <path id="path280" d="M317.225-147.714a.448.448,0,0,1,.448.448.448.448,0,0,1-.448.448H284.342a2.938,2.938,0,0,0-2.081.865,2.941,2.941,0,0,0-.867,2.082,2.94,2.94,0,0,0,.867,2.082,2.939,2.939,0,0,0,2.081.866h32.884a.448.448,0,0,1,.448.448.448.448,0,0,1-.448.448H284.342a3.828,3.828,0,0,1-2.714-1.129,3.832,3.832,0,0,1-1.129-2.715,3.827,3.827,0,0,1,1.129-2.714,3.829,3.829,0,0,1,2.714-1.129h32.884" transform="translate(-114.122 455.528)" fill="#ce1c6c" fill-rule="evenodd"/>
      <path id="path282" d="M245.15-143.871a3.827,3.827,0,0,1,1.129-2.714,3.832,3.832,0,0,1,2.715-1.129H245.65a3.83,3.83,0,0,0-2.714,1.129,3.828,3.828,0,0,0-1.129,2.714,3.832,3.832,0,0,0,1.129,2.715,3.83,3.83,0,0,0,2.714,1.129h3.344a3.832,3.832,0,0,1-2.715-1.129,3.832,3.832,0,0,1-1.129-2.715" transform="translate(-98.38 455.528)" fill="#ce1c6c" fill-rule="evenodd"/>
      <path id="path284" d="M253.316-143.871a3.83,3.83,0,0,1,1.129-2.714,3.832,3.832,0,0,1,2.715-1.129h-3.343a3.832,3.832,0,0,0-2.715,1.129,3.83,3.83,0,0,0-1.129,2.714,3.835,3.835,0,0,0,1.129,2.715,3.832,3.832,0,0,0,2.715,1.129h3.343a3.832,3.832,0,0,1-2.715-1.129,3.835,3.835,0,0,1-1.129-2.715" transform="translate(-101.702 455.528)" fill="#ce1c6c" fill-rule="evenodd"/>
      <path id="path286" d="M547.35-123.767H421.056a4.328,4.328,0,0,1-4.251-4.012h0a3.745,3.745,0,0,1,3.771-4.011H546.869a4.328,4.328,0,0,1,4.251,4.011h0a3.745,3.745,0,0,1-3.77,4.012" transform="translate(-169.576 449.049)" fill="#9e9caf" fill-rule="evenodd"/>
      <path id="path288" d="M547.861-120.858H421.567a4.309,4.309,0,0,1-3.515-1.892,3.747,3.747,0,0,1,3.288-1.89H547.634a4.311,4.311,0,0,1,3.514,1.89,3.744,3.744,0,0,1-3.287,1.892" transform="translate(-170.086 446.14)" fill="#8b899c" fill-rule="evenodd"/>
      <path id="path290" d="M568.679-183.868H467.665a4.881,4.881,0,0,1-4.916-5.248l4.135-65.429a5.686,5.686,0,0,1,5.58-5.247H573.477a4.881,4.881,0,0,1,4.916,5.247l-4.135,65.429a5.685,5.685,0,0,1-5.579,5.248" transform="translate(-188.267 501.127)" fill="#8b899c" fill-rule="evenodd"/>
      <path id="path292" d="M570.724-183.868H472.689a4.881,4.881,0,0,1-4.916-5.248l4.135-65.429a5.686,5.686,0,0,1,5.579-5.247h98.035a4.881,4.881,0,0,1,4.915,5.247L576.3-189.116a5.685,5.685,0,0,1-5.578,5.248" transform="translate(-190.311 501.127)" fill="#fff" fill-rule="evenodd"/>
      <path id="path294" d="M487.11-259.793l91.226,72.913a5.448,5.448,0,0,0,.644-2.237l.644-10.174-75.7-60.5Zm80.949,75.925H557.971l-83.628-66.84.243-3.837a5.524,5.524,0,0,1,1.2-3.075l92.276,73.752h0" transform="translate(-192.988 501.127)" fill="#ece5e8" fill-rule="evenodd"/>
      <path id="path296" d="M444.008-123.767H421.056a4.329,4.329,0,0,1-4.252-4.012h0a3.745,3.745,0,0,1,3.771-4.011h22.952a4.327,4.327,0,0,1,4.251,4.011h0a3.745,3.745,0,0,1-3.771,4.012" transform="translate(-169.576 449.049)" fill="#fff" fill-rule="evenodd"/>
      <path id="path298" d="M566.127-131.16H461.035a2.164,2.164,0,0,1-2.125-2h0a1.873,1.873,0,0,1,1.885-2.006H565.887a2.164,2.164,0,0,1,2.126,2.006h0a1.873,1.873,0,0,1-1.885,2" transform="translate(-186.708 450.425)" fill="#cbc1cb" fill-rule="evenodd"/>
      <path id="path300" d="M404.784-314.2a20.8,20.8,0,0,1,.161-9.672l-16.561-1.4,23.05-10.1a53.243,53.243,0,0,0,7.2-11.9c2.306-5.9-3.947-20.887-6.3-24.608s-7.232-3.163-10.448-1.15c0,0-4.828-7.276-10.592-7.762s-24.084,1.2-29.406,14.647,3.24,26.883-5.33,40.713a3.445,3.445,0,0,0,.357,3.223c1.113,1.475,14.626,17.223,45.425,10.877,0,0,2.454-.569,2.445-2.871h0" transform="translate(-144.965 550.383)" fill="#1e1c32" fill-rule="evenodd"/>
      <path id="path302" d="M383.079-289.255c1.7-18.52,2.892-34.616,2.892-34.616L384.4-329.09s-14.182,11.462-24.251-.6c.478,8.273,1.661,16.6-3.592,25.081a3.445,3.445,0,0,0,.357,3.223l.045.06.017.02.039.05.041.05.025.032.073.087,0,0,.087.1.025.029.073.084.062.071.047.052.106.119.014.014.13.142.029.032.113.119.078.084.074.075.053.055.111.112.174.176.121.117.091.091c2.947,2.85,9.811,8.122,21.375,9.952l.034,0q1.5.238,3.115.393h.009" transform="translate(-144.965 529.564)" fill="#16131a" fill-rule="evenodd"/>
      <path id="path304" d="M410.094-281.154c-1.053-5.239-.316-7.345,1.151-14.343l-26.354-4.147-11.516,2.232a77.23,77.23,0,0,1-4.016,14.26c7.011,4.34,19.4,8.762,38.29,4.869,0,0,2.454-.569,2.445-2.871h0" transform="translate(-150.275 517.341)" fill="#16131a" fill-rule="evenodd"/>
      <path id="path306" d="M355.732-267.09c7.293,2.288,17.262,5.023,25.858,9.248.594.293-.617,2.581-.066,2.887a20.152,20.152,0,0,1,3.772,3.066c4.015,3.97,12.185,35.042,11.456,38.138-1.174,4.98-11.5,18.661-11.5,18.661-2.05,3.959-4.591,9.725-7.087,15.956H326.9c3.571-11.607,4.9-19.47,4.994-26.557h0c2.737-24.092-10.216-29.333-10.216-29.333l13.416-31.57c5.219-1.848,15.627-1.153,15.627-1.153,2.751,0,2.542-.116,5.005.657" transform="translate(-130.878 504.416)" fill="#ee2289" fill-rule="evenodd"/>
      <path id="path308" d="M398.5-170.295h-7.236c1.348-3.609,7.621-20.673,8.962-24.315-6.1-1.061-14.492-2.517-15.971-2.868s-7.147,2.886-7.147,2.886l.63-3.683-6.085,6.128,10.4-19.428s16.977,3.834,20.584,4.491,1.407.157,2.078.1c2.006-5.643-1.279-7.221-.889-9.952s.505-29.217.505-29.217c2.194,1.136,3.185,3.607,4.426,7.505.816,2.565,5.151,19.422,6.945,29.392.427,2.372.765,4.146.978,5.562-4.022,10.255-13.052,20.581-18.184,33.4" transform="translate(-151.209 495.577)" fill="#ce1c6c" fill-rule="evenodd"/>
      <path id="path310" d="M393.391-315.617l-2.566,7.711s-3.882,18.2-4.78,20.556c-.312.819-1.339,1.069-2.917,1.031,2.271,3.253,6.683,8.215,13.059,9.424,4.072.772,6.919.012,8.853-1.129-1.361-.719-2.664-1.573-2.658-2.275.055-6.21,1.122-17.14,4.488-19.16,3.854-2.315-13.479-16.159-13.479-16.159" transform="translate(-155.877 523.84)" fill="#f04153" fill-rule="evenodd"/>
      <path id="path312" d="M382.761-266.408a16.164,16.164,0,0,1-3.674-.143,27.753,27.753,0,0,0,8.162,7.375c10.055,6.371,14.9,2.9,16.428,1.262a11.221,11.221,0,0,1-2.451-1.573h0c-9.384,4.585-18.464-6.921-18.464-6.921h0" transform="translate(-154.233 503.877)" fill="#fff" fill-rule="evenodd"/>
      <path id="path314" d="M415.872-251.3s4.01,40.354,3.522,43.762-6.862,20.2-12.45,35.143h9.608c1.9-3.657,3.349-6.513,3.612-7.2.172-.444.835-1.735,1.749-3.426,1.642-3.04,4.094-7.374,5.942-10.408,5.891-9.671,5.875-7.413,3.836-18.741-1.794-9.97-7.3-28.419-8.118-30.983-1.241-3.9-6.662-8.429-7.7-8.145" transform="translate(-165.567 497.677)" fill="#272646" fill-rule="evenodd"/>
      <path id="path316" d="M417.992-159.672c-1.322,3.692-2.857,7.9-4.45,12.212a32.164,32.164,0,0,1,6.081.87c2.921,1.147,3.227,2.456,3.227,2.456.171-.444.834-1.735,1.748-3.426,1.643-3.04,4.094-7.374,5.942-10.408,1.772-2.91,3.008-4.738,3.818-6.182a16.7,16.7,0,0,1-3.821,2.763c-1.064.323-9.252,1.322-12.544,1.715" transform="translate(-168.251 462.215)" fill="#1e1c32" fill-rule="evenodd"/>
      <path id="path318" d="M353.042-268.382s7.357,35.642,8.366,46-2.232,17.776-5.877,25.561c-1.229,2.624-5.169,9.32-10.022,17.251H322.856l2.423-55.989-6.5-1.5c.386-2.813.7-5.142.917-6.774l12.791-22.614s4.821-3.911,20.551-1.933" transform="translate(-129.698 504.849)" fill="#272646" fill-rule="evenodd"/>
      <path id="path320" d="M339.27-242.406c-3.614,14.515-1.1,20.534-1.1,20.534L340.1-230.9s1.831,13.332,3.868,15.031c1.012.845,13.053,3.153,17.566,3.995a37.857,37.857,0,0,1-2.218,14.933c-3.239.333-22.724-2.412-23.655,3.883-.464,3.14-.36-6.962-.36-6.962l-1.153,29.278H322.856l2.423-55.989-6.5-1.505.017-.132.018-.13.018-.13.017-.13h0l.018-.128.017-.128.017-.127.017-.127.017-.126.017-.125.017-.124h0l.017-.123.017-.123.017-.122h0l.017-.12.017-.12h0l.016-.119h0l.017-.119h0l.016-.119h0l.016-.116h0l.016-.116h0l.015-.116h0l.016-.114h0l.016-.114h0l.015-.113h0l.015-.112h0l.015-.112h0l.015-.11h0l.015-.11h0l.015-.108h0l.014-.108h0l.015-.107h0l.014-.106h0l.014-.105h0l.014-.1h0l.013-.1h0l.014-.1h0l.013-.1h0l.014-.1h0l.013-.1h0l.013-.1h0l.013-.1h0l.013-.1h0l.013-.1h0l.013-.095h0l.013-.095h0l.013-.093h0l.012-.093h0l.013-.091h0l.012-.091h0l.012-.09h0l.013-.088h0l.012-.088h0l.011-.087h0l.011-.085h0l.012-.084h0l.011-.085h0l.011-.082h0l.011-.081h0l.01-.08h0l.011-.08h0l.01-.078h0l.01-.077h0l.01-.077,6.926-12.245,12.643,4.854" transform="translate(-129.698 496.028)" fill="#1e1c32" fill-rule="evenodd"/>
      <path id="path322" d="M320.464-249.771c-4.147,11.333-5.276,50.2-1.859,71.066h18.2c-7.443-41.419,8.189-71.045,4.755-81.542-5.5-16.8-18.367,3.027-21.094,10.476" transform="translate(-128.805 503.987)" fill="#38385f" fill-rule="evenodd"/>
      <path id="path324" d="M449.895-319.618l0,0h0ZM441.9-309.566l2.029-.889a58.516,58.516,0,0,0,5.9-9.043c-.482.92-3.678,6.507-8.357,3.092-5.087-3.715-5.292,2.168-5.292,2.168s3.077,3.5,4.865,4.313c.231.106.522.228.855.359h0" transform="translate(-177.463 525.47)" fill="#16131a" fill-rule="evenodd"/>
      <path id="path326" d="M437.8-308.382a5.8,5.8,0,0,0-6.367,5.173,5.8,5.8,0,0,0,5.171,6.366,5.8,5.8,0,0,0,6.368-5.172,5.8,5.8,0,0,0-5.172-6.367" transform="translate(-175.518 520.909)" fill="#f04153" fill-rule="evenodd"/>
      <path id="path328" d="M370.285-315.3c-.145.007-.288.02-.43.036h0a5.8,5.8,0,0,0-5.057,5.16,5.8,5.8,0,0,0,5.172,6.368,5.8,5.8,0,0,0,6.368-5.173,5.786,5.786,0,0,0-1.757-4.785c0,1.719-.447,3.807-2.642,3.835l.344-3.327a1.994,1.994,0,0,0-1.995-2.115" transform="translate(-148.405 523.713)" fill="#f04153" fill-rule="evenodd"/>
      <path id="path330" d="M399.881-360.846h0a19.928,19.928,0,0,0-21.81,17.716l-1.86,17.961a19.927,19.927,0,0,0,17.717,21.81h0a19.926,19.926,0,0,0,21.81-17.716l1.86-17.961a19.926,19.926,0,0,0-17.716-21.81" transform="translate(-153.02 542.285)" fill="#f78e73" fill-rule="evenodd"/>
      <path id="path332" d="M377.745-332.741l-1.534,14.811a19.947,19.947,0,0,0,12.665,20.6c-11.564-4.791-5.636-24.891-5.636-24.891,2.342-.4,6.035-4.763,8.182-7.3s3.809-5.1,7.514-5.027,11.535,2.02,11.535,2.02a21.786,21.786,0,0,0,6.367,8.066l.759-7.331a19.715,19.715,0,0,0-.376-6.378c-.479-.282-.971-.566-1.491-.859-15.914-8.947-29.42-1.709-37.985,6.293" transform="translate(-153.02 535.045)" fill="#f46b62" fill-rule="evenodd"/>
      <path id="path334" d="M425.563-337.032l-3.214,1.365a9.479,9.479,0,0,0-6.479-1.042s-7.055-2.593-10.794-1.148-1.539-3.746-.854-3.974a45.7,45.7,0,0,1,10.856-.082c3.091.594,7.74,1.319,7.74,1.319l2.744,3.563" transform="translate(-163.944 534.659)" fill="#16131a" fill-rule="evenodd"/>
      <path id="path336" d="M377.366-316.923l1.9.335s1.322,6.021-2.415,6.067l.344-3.327a1.884,1.884,0,0,0-.039-.637l.206-2.437" transform="translate(-153.325 524.371)" fill="#16131a" fill-rule="evenodd"/>
      <path id="path338" d="M404.3-346.252c-2.9-3.919-7.65-4.72-11.34.784-3.37,5.028-8.377,13.729-16.8,13.019l-.042-.154.021,0,.474-5.614s-.709.185-1.571.388a36.236,36.236,0,0,1-.291-10.061c.976-7.055,10.791-17.361,21.864-17.758s19.082,6.178,20.668,9.928,3.152,12.257,3.152,12.257l-1.948,2.786-2.1,5.538c-5.093-4.955-4.57-9.641-6.784-12-1.2-1.278-2.991-1.282-5.3.887" transform="translate(-152.371 544.202)" fill="#1e1c32" fill-rule="evenodd"/>
      <path id="path340" d="M392.023-328.678c-3.341,5.056-8.136,11.91-15.65,11.277l-.042-.154.021,0,.474-5.614s-.709.185-1.571.388c-.074-.485-.145-.993-.209-1.517,8.486,2.464,16.95-4.359,16.977-4.381" transform="translate(-152.589 529.154)" fill="#16131a" fill-rule="evenodd"/>
      <path id="path342" d="M417.927-253.592s5.171,42.415,5.068,43.791-1.476,8.01-1.476,8.01a27.973,27.973,0,0,0,3.108-7.652c.612-3.469,2.244-26.932,2.244-26.932l-2.754-1.479,2.551-.153-4.21-13.176a3.722,3.722,0,0,0-1.146-1.36c-.663-.384-3.079-1.6-3.118-1.613a1.579,1.579,0,0,0-.945.114s.5.342.677.452" transform="translate(-169.76 498.845)" fill="#43466c" fill-rule="evenodd"/>
      <path id="path344" d="M371.632-268.341s7.357,35.642,8.366,46a36.765,36.765,0,0,1-.637,11.485c1.356-10.6-13.559-35.536-13.559-35.536l3.877-1.836-5.2-2.346s2.4-13.415,2.55-15.658c.149-2.182-1.008-2.588-1.072-2.609,1.712.078,3.6.236,5.679.5" transform="translate(-148.288 504.808)" fill="#43466c" fill-rule="evenodd"/>
      <path id="path346" d="M91.128-119.956a3.706,3.706,0,0,1,3.705,3.706,3.706,3.706,0,0,1-3.705,3.7,3.705,3.705,0,0,1-3.7-3.7A3.706,3.706,0,0,1,91.128-119.956Zm20.586,16.745h6.441a4.681,4.681,0,0,0,4.668-4.667h0a4.683,4.683,0,0,0-4.668-4.669H101.139a3.716,3.716,0,0,1-3.7-3.7h0a3.717,3.717,0,0,1,3.7-3.706H550.677a3.717,3.717,0,0,1,3.705,3.706h0a3.717,3.717,0,0,1-3.705,3.7H527.341a4.682,4.682,0,0,0-4.668,4.669h0a4.68,4.68,0,0,0,4.668,4.667h5.469a7.431,7.431,0,0,1,7.409,7.41h0a7.432,7.432,0,0,1-7.409,7.41H111.715a7.433,7.433,0,0,1-7.409-7.41h0a7.432,7.432,0,0,1,7.409-7.41h0" transform="translate(-35.569 444.234)" fill="#141215" fill-rule="evenodd"/>
      <path id="path348" d="M455.283-445.97h33.77a4.555,4.555,0,0,1,3.226,1.343,4.557,4.557,0,0,1,1.342,3.225v15.6a4.555,4.555,0,0,1-1.342,3.225,4.554,4.554,0,0,1-3.226,1.342H459.7l-8.987,8.987V-441.4a4.553,4.553,0,0,1,1.342-3.225,4.554,4.554,0,0,1,3.225-1.343Zm33.77-1.39h-33.77a5.939,5.939,0,0,0-4.208,1.749,5.94,5.94,0,0,0-1.75,4.209v29.416a1.28,1.28,0,0,0,.217.713,1.273,1.273,0,0,0,.575.471h0a1.276,1.276,0,0,0,.736.076,1.283,1.283,0,0,0,.66-.353l8.764-8.764h28.774a5.939,5.939,0,0,0,4.209-1.749,5.943,5.943,0,0,0,1.75-4.209v-15.6a5.941,5.941,0,0,0-1.75-4.209,5.939,5.939,0,0,0-4.209-1.749h0" transform="translate(-182.809 577.44)" fill="#22273e" fill-rule="evenodd"/>
      <path id="path350" d="M492.967-438.075a.38.38,0,0,0,.38-.38.379.379,0,0,0-.38-.38H458.634a.381.381,0,0,0-.38.38.381.381,0,0,0,.38.38h34.333" transform="translate(-186.442 573.971)" fill="#22273e" fill-rule="evenodd"/>
      <path id="path352" d="M484.488-431.821a.38.38,0,0,0,.38-.38.381.381,0,0,0-.38-.38H458.634a.381.381,0,0,0-.38.38.381.381,0,0,0,.38.38Zm8.479,0a.379.379,0,0,0,.38-.38.38.38,0,0,0-.38-.38H489.33a.381.381,0,0,0-.38.38.38.38,0,0,0,.38.38h3.637" transform="translate(-186.442 571.427)" fill="#22273e" fill-rule="evenodd"/>
      <path id="path354" d="M492.967-425.565a.38.38,0,0,0,.38-.38.379.379,0,0,0-.38-.38H458.634a.381.381,0,0,0-.38.38.381.381,0,0,0,.38.38h34.333" transform="translate(-186.442 568.882)" fill="#22273e" fill-rule="evenodd"/>
      <path id="path356" d="M483.419-417.085a.38.38,0,0,0,.38-.38.38.38,0,0,0-.38-.38H458.634a.381.381,0,0,0-.38.38.381.381,0,0,0,.38.38h24.786" transform="translate(-186.442 565.432)" fill="#22273e" fill-rule="evenodd"/>
      <path id="path358" d="M472.352-410.3a.381.381,0,0,0,.38-.381.38.38,0,0,0-.38-.38H458.634a.38.38,0,0,0-.38.38.381.381,0,0,0,.38.381h13.718" transform="translate(-186.442 562.671)" fill="#22273e" fill-rule="evenodd"/>
      <path id="path360" d="M491.649-410.3a.381.381,0,0,0,.38-.381.38.38,0,0,0-.38-.38h-4.9a.38.38,0,0,0-.38.38.381.381,0,0,0,.38.381h4.9" transform="translate(-197.879 562.671)" fill="#22273e" fill-rule="evenodd"/>
    </g>
  </g>
</svg>
