<!--
 * Copyright (c) 2020, WSO2 Inc. (http://www.wso2.org) All Rights Reserved.
 *
 * WSO2 Inc. licenses this file to you under the Apache License,
 * Version 2.0 (the "License"); you may not use this file except
 * in compliance with the License.
 * You may obtain a copy of the License at
 *
 *     http://www.apache.org/licenses/LICENSE-2.0
 *
 * Unless required by applicable law or agreed to in writing,
 * software distributed under the License is distributed on an
 * "AS IS" BASIS, WITHOUT WARRANTIES OR CONDITIONS OF ANY
 * KIND, either express or implied. See the License for the
 * specific language governing permissions and limitations
 * under the License.
-->

<svg xmlns="http://www.w3.org/2000/svg" class="icon" width="14" height="14" viewBox="0 0 14 14">
    <path id="key" class="path fill primary"
          d="M-1897.375,14h-2.334a.292.292,0,0,1-.292-.293V11.375a.29.29,0,0,1,.086-.206l1.081-1.082V9.625a.292.292,0,0,1,.292-.292h.463l.413-.412V8.458a.292.292,0,0,1,.292-.292h.463l.412-.412V7.292a.292.292,0,0,1,.292-.292h.463l.292-.292-.377-.377a.291.291,0,0,1-.082-.253.292.292,0,0,1,.158-.214l.521-.261a4.616,4.616,0,0,1-.1-.937A4.672,4.672,0,0,1-1890.667,0,4.672,4.672,0,0,1-1886,4.667a4.657,4.657,0,0,1-4.634,4.669,4.764,4.764,0,0,1-.971-.1l-.26.521a.292.292,0,0,1-.214.158.281.281,0,0,1-.048,0,.291.291,0,0,1-.2-.085l-.377-.377-4.46,4.46A.293.293,0,0,1-1897.375,14Zm3.492-6.417a.3.3,0,0,0-.212.088l-4.073,4.073a.3.3,0,0,0,0,.424.3.3,0,0,0,.212.088.294.294,0,0,0,.212-.088l4.073-4.073a.3.3,0,0,0,0-.425A.3.3,0,0,0-1893.883,7.583Zm4.673-5.833a1.461,1.461,0,0,0-1.46,1.46,1.461,1.461,0,0,0,1.46,1.46,1.461,1.461,0,0,0,1.46-1.46A1.461,1.461,0,0,0-1889.21,1.75Zm0,2.32a.861.861,0,0,1-.859-.86.861.861,0,0,1,.859-.859.861.861,0,0,1,.86.859A.861.861,0,0,1-1889.21,4.07Z"
          transform="translate(1900)" fill="#464646"/>
</svg>
