<!--
 * Copyright (c) 2022, WSO2 Inc. (http://www.wso2.org) All Rights Reserved.
 *
 * WSO2 Inc. licenses this file to you under the Apache License,
 * Version 2.0 (the "License"); you may not use this file except
 * in compliance with the License.
 * You may obtain a copy of the License at
 *
 *     http://www.apache.org/licenses/LICENSE-2.0
 *
 * Unless required by applicable law or agreed to in writing,
 * software distributed under the License is distributed on an
 * "AS IS" BASIS, WITHOUT WARRANTIES OR CONDITIONS OF ANY
 * KIND, either express or implied. See the License for the
 * specific language governing permissions and limitations
 * under the License.
-->

<svg width="40" height="40" viewBox="0 0 40 40" fill="none" xmlns="http://www.w3.org/2000/svg">
<circle cx="20" cy="20" r="20" fill="url(#paint0_linear_1115_13255)"/>
<path d="M23.5 14.6C23.5 15.4736 23.095 16.7296 22.4106 17.771C21.7146 18.83 20.8454 19.5 20 19.5C19.1546 19.5 18.2854 18.83 17.5894 17.771C16.905 16.7296 16.5 15.4736 16.5 14.6C16.5 12.9362 18.0161 11.5 20 11.5C21.9839 11.5 23.5 12.9362 23.5 14.6Z" stroke="white"/>
<path d="M11.5 25.0193C11.5 22.5233 13.5233 20.5 16.0193 20.5C16.2937 20.5 16.5594 20.5962 16.7703 20.7719L19.0397 22.6631C19.596 23.1267 20.404 23.1267 20.9603 22.6631L23.2297 20.7719C23.4406 20.5962 23.7063 20.5 23.9807 20.5C26.4767 20.5 28.5 22.5233 28.5 25.0193V27C28.5 27.8284 27.8284 28.5 27 28.5H13C12.1716 28.5 11.5 27.8284 11.5 27V25.0193Z" stroke="white"/>
<defs>
<linearGradient id="paint0_linear_1115_13255" x1="7" y1="3.5" x2="37" y2="40" gradientUnits="userSpaceOnUse">
<stop stop-color="#EB4F63"/>
<stop offset="1" stop-color="#F97842"/>
</linearGradient>
</defs>
</svg>
