<!--
 * Copyright (c) 2020, WSO2 Inc. (http://www.wso2.org) All Rights Reserved.
 *
 * WSO2 Inc. licenses this file to you under the Apache License,
 * Version 2.0 (the "License"); you may not use this file except
 * in compliance with the License.
 * You may obtain a copy of the License at
 *
 *     http://www.apache.org/licenses/LICENSE-2.0
 *
 * Unless required by applicable law or agreed to in writing,
 * software distributed under the License is distributed on an
 * "AS IS" BASIS, WITHOUT WARRANTIES OR CONDITIONS OF ANY
 * KIND, either express or implied. See the License for the
 * specific language governing permissions and limitations
 * under the License.
-->

<svg xmlns="http://www.w3.org/2000/svg" class="icon" width="14" height="14" viewBox="0 0 14.001 13.994">
    <path id="onboarding" class="path fill primary"
          d="M7.012,14.013,7,14.026,3.283,10.308a1.326,1.326,0,0,1-.142-.142l-.03-.029,0,0a1.4,1.4,0,0,1-.15-1.542L2.821,8.45l-.7.7L0,7.028,2.97,4.059,5.091,6.18l-.228.228.125.125a1.4,1.4,0,0,1,1.542.151l0,0,.032.032a1.4,1.4,0,0,1,.137.137l.311.311.282-.282a1.49,1.49,0,0,1,.136-.136l.032-.032,0,0a1.4,1.4,0,0,1,1.542-.15l.143-.143-.24-.24,2.121-2.121L14,7.028,11.88,9.149l-.688-.688-.13.131a1.4,1.4,0,0,1-.151,1.542l0,0-.03.029a1.24,1.24,0,0,1-.141.142L7.025,14.026ZM3.661,8.442l-.005.005.122.123a.8.8,0,0,0-.192,1.192l3.426,3.427,1.976-1.976L7.594,9.819a1.4,1.4,0,0,1-1.988-.238h0l-.4-.448.006-.005L5.13,9.045,6.588,7.587l-.431-.431a.8.8,0,0,0-1.191.193l-.123-.123-.006.006-.4-.4L3.245,8.026Zm5.752,2.346,1.026-1.026a.8.8,0,0,0-.193-1.192l.123-.123-.006-.005.4-.4L9.574,6.844l-.417.417-.005-.005-.123.122a.8.8,0,0,0-1.186-.2L7.027,8l0,.016-.006-.006L5.956,9.068l.077.086,0,0,.019.03.064.07-.005.005a.8.8,0,0,0,1.11.091L8.274,8.3l.425.425L8.022,9.4ZM4.1,2.93A2.9,2.9,0,1,1,7,5.831,2.9,2.9,0,0,1,4.1,2.93Zm2.545,1.1L8.412,2.263l-.425-.422L6.64,3.185,6,2.549l-.426.423L6.64,4.033v0Z"
          transform="translate(0 -0.031)" fill="#464646"/>
</svg>
