<!--
 * Copyright (c) 2024, WSO2 Inc. (http://www.wso2.org) All Rights Reserved.
 *
 * WSO2 Inc. licenses this file to you under the Apache License,
 * Version 2.0 (the "License"); you may not use this file except
 * in compliance with the License.
 * You may obtain a copy of the License at
 *
 *     http://www.apache.org/licenses/LICENSE-2.0
 *
 * Unless required by applicable law or agreed to in writing,
 * software distributed under the License is distributed on an
 * "AS IS" BASIS, WITHOUT WARRANTIES OR CONDITIONS OF ANY
 * KIND, either express or implied. See the License for the
 * specific language governing permissions and limitations
 * under the License.
-->

<svg xmlns="http://www.w3.org/2000/svg" class="icon" width="24" height="24" viewBox="0 0 24 24">
    <path
        d="M12,22a7,7,0,0,0,5-11.894V7A5,5,0,0,0,7,7v3.106A7,7,0,0,0,12,22Zm1-6.277V18a1,1,0,0,1-2,0V15.723a2,2,0,1,1,2,0ZM9,7a3,3,0,0,1,6,0V8.683a6.93,6.93,0,0,0-6,0Z" />
</svg>
