<?xml version="1.0" encoding="UTF-8" standalone="no"?>

<!--
 * Copyright (c) 2020, WSO2 Inc. (http://www.wso2.org) All Rights Reserved.
 *
 * WSO2 Inc. licenses this file to you under the Apache License,
 * Version 2.0 (the "License"); you may not use this file except
 * in compliance with the License.
 * You may obtain a copy of the License at
 *
 *     http://www.apache.org/licenses/LICENSE-2.0
 *
 * Unless required by applicable law or agreed to in writing,
 * software distributed under the License is distributed on an
 * "AS IS" BASIS, WITHOUT WARRANTIES OR CONDITIONS OF ANY
 * KIND, either express or implied. See the License for the
 * specific language governing permissions and limitations
 * under the License.
-->

<svg class="icon" xmlns:xlink="http://www.w3.org/1999/xlink" xmlns="http://www.w3.org/2000/svg" style="fill-rule:evenodd;clip-rule:evenodd;stroke-linecap:round;stroke-linejoin:round;" xml:space="preserve" viewBox="0 0 1400 1400">
<g>
	<path d="M68.9+1178.4L68.9+1268.5C68.9+1302.9+96.8+1330.8+131.2+1330.8L1268.8+1330.8C1303.2+1330.8+1331.1+1302.9+1331.1+1268.5L1331.1+1178.4L68.9+1178.4Z" opacity="1" fill="#58595b"></path>
	<g opacity="1">
		<path d="M194.8+937.6C194.8+967.1+218.7+990.9+248.1+990.9L1151.9+990.9C1181.4+990.9+1205.2+967+1205.2+937.6L1205.2+865L194.8+865L194.8+937.6Z" opacity="1" fill="#ffffff"></path>
		<path d="M1205.2+282.7C1205.2+253.2+1181.3+229.4+1151.9+229.4L248.1+229.4C218.6+229.4+194.8+253.3+194.8+282.7L194.8+345L1205.2+345C1205.2+345+1205.2+282.7+1205.2+282.7Z" opacity="1" fill="#58595b"></path>
		<path d="M194.8+345L1205.2+345L1205.2+345L1205.2+865L1205.2+865L194.8+865L194.8+865L194.8+345L194.8+345Z" opacity="1" fill="#00b5d7"></path>
	</g>
	<path d="M954.8+1160C954.8+1170.1+946.6+1178.3+936.5+1178.3L488.7+1178.3C478.6+1178.3+470.4+1170.1+470.4+1160L470.4+1160C470.4+1149.9+478.6+1141.7+488.7+1141.7L936.5+1141.7C946.6+1141.7+954.8+1149.9+954.8+1160L954.8+1160Z" opacity="1" fill="#f1f2f2"></path>
	<g opacity="1">
		<path d="M842.6+990.9L712.6+990.9L582.6+990.9L573.8+1016.7L851.3+1016.7L842.6+990.9Z" opacity="1" fill="#bdbebf"></path>
		<path d="M573.8+1016.7L531.5+1141.7L712.6+1141.7L893.7+1141.7L851.3+1016.7L573.8+1016.7Z" opacity="1" fill="#d1d3d4"></path>
	</g>
	<path d="M791.2+928C791.2+937+783.9+944.2+775+944.2L650.2+944.2C641.2+944.2+634+936.9+634+928L634+928C634+919+641.3+911.8+650.2+911.8L775+911.8C783.9+911.7+791.2+919+791.2+928L791.2+928Z" opacity="1" fill="#d1d3d4"></path>
	<g opacity="1">
		<path d="M1145.3+194.8C1145.3+178.1+1131.8+164.6+1115.1+164.6L284.9+164.6C268.2+164.6+254.7+178.1+254.7+194.8L254.7+229.7L1145.3+229.7C1145.3+229.7+1145.3+194.8+1145.3+194.8Z" opacity="1" fill="#d1d3d4"></path>
		<path d="M254.7+229.7L1145.3+229.7L1145.3+229.7L1145.3+865L1145.3+865L254.7+865L254.7+865L254.7+229.7L254.7+229.7Z" opacity="1" fill="#ffffff"></path>
	</g>
	<path d="M300.9+197.2C300.9+205.1+294.5+211.5+286.6+211.5C278.7+211.5+272.3+205.1+272.3+197.2C272.3+189.3+278.7+182.9+286.6+182.9C294.5+182.9+300.9+189.3+300.9+197.2Z" opacity="1" fill="#ff9b8a"></path>
	<path d="M1066.4+197.2C1066.4+205.1+1060+211.5+1052.1+211.5C1044.2+211.5+1037.8+205.1+1037.8+197.2C1037.8+189.3+1044.2+182.9+1052.1+182.9C1060+182.9+1066.4+189.3+1066.4+197.2Z" opacity="1" fill="#00c68e"></path>
	<path d="M1118.6+197.2C1118.6+205.1+1112.2+211.5+1104.3+211.5C1096.4+211.5+1090+205.1+1090+197.2C1090+189.3+1096.4+182.9+1104.3+182.9C1112.1+182.9+1118.6+189.3+1118.6+197.2Z" opacity="1" fill="#ffe18f"></path>
	<path d="M1008+197.2C1008+205.1+1001.6+211.5+993.7+211.5L343+211.5C335.1+211.5+328.7+205.1+328.7+197.2L328.7+197.2C328.7+189.3+335.1+182.9+343+182.9L993.7+182.9C1001.6+182.9+1008+189.3+1008+197.2L1008+197.2Z" opacity="1" fill="#ffffff"></path>
	<path d="M291.2+260.1L1108.9+260.1L1108.9+260.1L1108.9+413.6L1108.9+413.6L291.2+413.6L291.2+413.6L291.2+260.1L291.2+260.1Z" opacity="1" fill="#008bba"></path>
	<path d="M291.2+668.4L678.2+668.4L678.2+668.4L678.2+715.7L678.2+715.7L291.2+715.7L291.2+715.7L291.2+668.4L291.2+668.4Z" opacity="1" fill="#d1d3d4"></path>
	<path d="M291.2+743.7L678.2+743.7L678.2+743.7L678.2+791.1L678.2+791.1L291.2+791.1L291.2+791.1L291.2+743.7L291.2+743.7Z" opacity="1" fill="#d1d3d4"></path>
	<path d="M254.7+838L1145.3+838L1145.3+838L1145.3+865L1145.3+865L254.7+865L254.7+865L254.7+838L254.7+838Z" opacity="1" fill="#f0f0f0"></path>
	<path d="M470.3+1246.8C470.3+1256.8+462.2+1265+452.1+1265L159.2+1265C149.2+1265+141+1256.9+141+1246.8L141+1246.8C141+1236.8+149.1+1228.6+159.2+1228.6L452.1+1228.6C462.2+1228.7+470.3+1236.8+470.3+1246.8L470.3+1246.8Z" opacity="1" fill="#68696b"></path>
	<path d="M700+1246.8C700+1256.8+691.9+1265+681.8+1265L553.5+1265C543.5+1265+535.3+1256.9+535.3+1246.8L535.3+1246.8C535.3+1236.8+543.4+1228.6+553.5+1228.6L681.8+1228.6C691.9+1228.7+700+1236.8+700+1246.8L700+1246.8Z" opacity="1" fill="#68696b"></path>
	<path d="M291.2+454.8L465.9+454.8L465.9+454.8L465.9+629.5L465.9+629.5L291.2+629.5L291.2+629.5L291.2+454.8L291.2+454.8Z" opacity="1" fill="#ff8170"></path>
	<path d="M505.5+454.8L680.2+454.8L680.2+454.8L680.2+629.5L680.2+629.5L505.5+629.5L505.5+629.5L505.5+454.8L505.5+454.8Z" opacity="1" fill="#ffe170"></path>
	<path d="M719.8+454.8L1108.8+454.8L1108.8+454.8L1108.8+791L1108.8+791L719.8+791L719.8+791L719.8+454.8L719.8+454.8Z" opacity="1" fill="#d1d3d4"></path>
	<path d="M726.7+461.5L1092.9+461.5L1092.9+461.5L1092.9+778L1092.9+778L726.7+778L726.7+778L726.7+461.5L726.7+461.5Z" opacity="1" fill="#ffffff"></path>
	<g opacity="1">
		<g opacity="1">
			<path d="M979.6+689.3L979.6+759.1L1049.4+759.1L1049.4+689.3L979.6+689.3ZM1039.6+749.3L989.4+749.3L989.4+699.1L1039.6+699.1L1039.6+749.3Z" opacity="1" fill="#000000"></path>
			<path d="M998.5+708.2L1030.5+708.2L1030.5+708.2L1030.5+740.2L1030.5+740.2L998.5+740.2L998.5+740.2L998.5+708.2L998.5+708.2Z" opacity="1" fill="#000000"></path>
		</g>
		<g opacity="1">
			<path d="M770.1+689.3L770.1+759.1L840+759.1L840+689.3L770.1+689.3ZM830.1+749.3L780+749.3L780+699.1L830.2+699.1L830.2+749.3L830.1+749.3Z" opacity="1" fill="#000000"></path>
			<path d="M789+708.2L821+708.2L821+708.2L821+740.2L821+740.2L789+740.2L789+740.2L789+708.2L789+708.2Z" opacity="1" fill="#000000"></path>
		</g>
		<g opacity="1">
			<path d="M979.6+479.8L979.6+549.6L1049.4+549.6L1049.4+479.8L979.6+479.8ZM1039.6+539.8L989.4+539.8L989.4+489.6L1039.6+489.6L1039.6+539.8Z" opacity="1" fill="#000000"></path>
			<path d="M998.5+498.7L1030.5+498.7L1030.5+498.7L1030.5+530.7L1030.5+530.7L998.5+530.7L998.5+530.7L998.5+498.7L998.5+498.7Z" opacity="1" fill="#000000"></path>
		</g>
		<g opacity="1">
			<path d="M770.1+479.8L770.1+549.6L840+549.6L840+479.8L770.1+479.8ZM830.1+539.8L780+539.8L780+489.6L830.2+489.6L830.2+539.8L830.1+539.8Z" opacity="1" fill="#000000"></path>
			<path d="M789+498.7L821+498.7L821+498.7L821+530.7L821+530.7L789+530.7L789+530.7L789+498.7L789+498.7Z" opacity="1" fill="#000000"></path>
		</g>
		<path d="M840+526.3L863.3+526.3L863.3+526.3L863.3+549.6L863.3+549.6L840+549.6L840+549.6L840+526.3L840+526.3Z" opacity="1" fill="#000000"></path>
		<path d="M863.2+479.8L886.5+479.8L886.5+479.8L886.5+503.1L886.5+503.1L863.2+503.1L863.2+503.1L863.2+479.8L863.2+479.8Z" opacity="1" fill="#000000"></path>
		<path d="M863.2+503L886.5+503L886.5+503L886.5+526.3L886.5+526.3L863.2+526.3L863.2+526.3L863.2+503L863.2+503Z" opacity="1" fill="#000000"></path>
		<path d="M863.2+526.3L886.5+526.3L886.5+526.3L886.5+549.6L886.5+549.6L863.2+549.6L863.2+549.6L863.2+526.3L863.2+526.3Z" opacity="1" fill="#000000"></path>
		<path d="M886.5+479.8L909.8+479.8L909.8+479.8L909.8+503.1L909.8+503.1L886.5+503.1L886.5+503.1L886.5+479.8L886.5+479.8Z" opacity="1" fill="#000000"></path>
		<path d="M886.5+526.3L909.8+526.3L909.8+526.3L909.8+549.6L909.8+549.6L886.5+549.6L886.5+549.6L886.5+526.3L886.5+526.3Z" opacity="1" fill="#000000"></path>
		<path d="M933.1+479.8L956.4+479.8L956.4+479.8L956.4+503.1L956.4+503.1L933.1+503.1L933.1+503.1L933.1+479.8L933.1+479.8Z" opacity="1" fill="#000000"></path>
		<path d="M956.4+503L979.7+503L979.7+503L979.7+526.3L979.7+526.3L956.4+526.3L956.4+526.3L956.4+503L956.4+503Z" opacity="1" fill="#000000"></path>
		<path d="M956.4+526.3L979.7+526.3L979.7+526.3L979.7+549.6L979.7+549.6L956.4+549.6L956.4+549.6L956.4+526.3L956.4+526.3Z" opacity="1" fill="#000000"></path>
		<path d="M840+735.8L863.3+735.8L863.3+735.8L863.3+759.1L863.3+759.1L840+759.1L840+759.1L840+735.8L840+735.8Z" opacity="1" fill="#000000"></path>
		<path d="M863.2+689.3L886.5+689.3L886.5+689.3L886.5+712.6L886.5+712.6L863.2+712.6L863.2+712.6L863.2+689.3L863.2+689.3Z" opacity="1" fill="#000000"></path>
		<path d="M863.2+712.5L886.5+712.5L886.5+712.5L886.5+735.8L886.5+735.8L863.2+735.8L863.2+735.8L863.2+712.5L863.2+712.5Z" opacity="1" fill="#000000"></path>
		<path d="M886.5+689.3L909.8+689.3L909.8+689.3L909.8+712.6L909.8+712.6L886.5+712.6L886.5+712.6L886.5+689.3L886.5+689.3Z" opacity="1" fill="#000000"></path>
		<path d="M886.5+735.8L909.8+735.8L909.8+735.8L909.8+759.1L909.8+759.1L886.5+759.1L886.5+759.1L886.5+735.8L886.5+735.8Z" opacity="1" fill="#000000"></path>
		<path d="M909.8+689.3L933.1+689.3L933.1+689.3L933.1+712.6L933.1+712.6L909.8+712.6L909.8+712.6L909.8+689.3L909.8+689.3Z" opacity="1" fill="#000000"></path>
		<path d="M909.8+712.5L933.1+712.5L933.1+712.5L933.1+735.8L933.1+735.8L909.8+735.8L909.8+735.8L909.8+712.5L909.8+712.5Z" opacity="1" fill="#000000"></path>
		<path d="M933.1+712.5L956.4+712.5L956.4+712.5L956.4+735.8L956.4+735.8L933.1+735.8L933.1+735.8L933.1+712.5L933.1+712.5Z" opacity="1" fill="#000000"></path>
		<path d="M933.1+735.8L956.4+735.8L956.4+735.8L956.4+759.1L956.4+759.1L933.1+759.1L933.1+759.1L933.1+735.8L933.1+735.8Z" opacity="1" fill="#000000"></path>
		<path d="M956.4+689.3L979.7+689.3L979.7+689.3L979.7+712.6L979.7+712.6L956.4+712.6L956.4+712.6L956.4+689.3L956.4+689.3Z" opacity="1" fill="#000000"></path>
		<path d="M840+619.4L863.3+619.4L863.3+619.4L863.3+642.7L863.3+642.7L840+642.7L840+642.7L840+619.4L840+619.4Z" opacity="1" fill="#000000"></path>
		<path d="M840+642.7L863.3+642.7L863.3+642.7L863.3+666L863.3+666L840+666L840+666L840+642.7L840+642.7Z" opacity="1" fill="#000000"></path>
		<path d="M863.2+619.4L886.5+619.4L886.5+619.4L886.5+642.7L886.5+642.7L863.2+642.7L863.2+642.7L863.2+619.4L863.2+619.4Z" opacity="1" fill="#000000"></path>
		<path d="M863.2+642.7L886.5+642.7L886.5+642.7L886.5+666L886.5+666L863.2+666L863.2+666L863.2+642.7L863.2+642.7Z" opacity="1" fill="#000000"></path>
		<path d="M863.2+666L886.5+666L886.5+666L886.5+689.3L886.5+689.3L863.2+689.3L863.2+689.3L863.2+666L863.2+666Z" opacity="1" fill="#000000"></path>
		<path d="M886.5+666L909.8+666L909.8+666L909.8+689.3L909.8+689.3L886.5+689.3L886.5+689.3L886.5+666L886.5+666Z" opacity="1" fill="#000000"></path>
		<path d="M909.8+619.4L933.1+619.4L933.1+619.4L933.1+642.7L933.1+642.7L909.8+642.7L909.8+642.7L909.8+619.4L909.8+619.4Z" opacity="1" fill="#000000"></path>
		<path d="M909.8+666L933.1+666L933.1+666L933.1+689.3L933.1+689.3L909.8+689.3L909.8+689.3L909.8+666L909.8+666Z" opacity="1" fill="#000000"></path>
		<path d="M933.1+619.4L956.4+619.4L956.4+619.4L956.4+642.7L956.4+642.7L933.1+642.7L933.1+642.7L933.1+619.4L933.1+619.4Z" opacity="1" fill="#000000"></path>
		<path d="M933.1+642.7L956.4+642.7L956.4+642.7L956.4+666L956.4+666L933.1+666L933.1+666L933.1+642.7L933.1+642.7Z" opacity="1" fill="#000000"></path>
		<path d="M956.4+619.4L979.7+619.4L979.7+619.4L979.7+642.7L979.7+642.7L956.4+642.7L956.4+642.7L956.4+619.4L956.4+619.4Z" opacity="1" fill="#000000"></path>
		<path d="M840+572.9L863.3+572.9L863.3+572.9L863.3+596.2L863.3+596.2L840+596.2L840+596.2L840+572.9L840+572.9Z" opacity="1" fill="#000000"></path>
		<path d="M840+596.2L863.3+596.2L863.3+596.2L863.3+619.5L863.3+619.5L840+619.5L840+619.5L840+596.2L840+596.2Z" opacity="1" fill="#000000"></path>
		<path d="M863.2+572.9L886.5+572.9L886.5+572.9L886.5+596.2L886.5+596.2L863.2+596.2L863.2+596.2L863.2+572.9L863.2+572.9Z" opacity="1" fill="#000000"></path>
		<path d="M886.5+549.6L909.8+549.6L909.8+549.6L909.8+572.9L909.8+572.9L886.5+572.9L886.5+572.9L886.5+549.6L886.5+549.6Z" opacity="1" fill="#000000"></path>
		<path d="M886.5+572.9L909.8+572.9L909.8+572.9L909.8+596.2L909.8+596.2L886.5+596.2L886.5+596.2L886.5+572.9L886.5+572.9Z" opacity="1" fill="#000000"></path>
		<path d="M886.5+596.2L909.8+596.2L909.8+596.2L909.8+619.5L909.8+619.5L886.5+619.5L886.5+619.5L886.5+596.2L886.5+596.2Z" opacity="1" fill="#000000"></path>
		<path d="M909.8+549.6L933.1+549.6L933.1+549.6L933.1+572.9L933.1+572.9L909.8+572.9L909.8+572.9L909.8+549.6L909.8+549.6Z" opacity="1" fill="#000000"></path>
		<path d="M909.8+572.9L933.1+572.9L933.1+572.9L933.1+596.2L933.1+596.2L909.8+596.2L909.8+596.2L909.8+572.9L909.8+572.9Z" opacity="1" fill="#000000"></path>
		<path d="M933.1+572.9L956.4+572.9L956.4+572.9L956.4+596.2L956.4+596.2L933.1+596.2L933.1+596.2L933.1+572.9L933.1+572.9Z" opacity="1" fill="#000000"></path>
		<path d="M933.1+596.2L956.4+596.2L956.4+596.2L956.4+619.5L956.4+619.5L933.1+619.5L933.1+619.5L933.1+596.2L933.1+596.2Z" opacity="1" fill="#000000"></path>
		<path d="M956.4+572.9L979.7+572.9L979.7+572.9L979.7+596.2L979.7+596.2L956.4+596.2L956.4+596.2L956.4+572.9L956.4+572.9Z" opacity="1" fill="#000000"></path>
		<path d="M956.4+596.2L979.7+596.2L979.7+596.2L979.7+619.5L979.7+619.5L956.4+619.5L956.4+619.5L956.4+596.2L956.4+596.2Z" opacity="1" fill="#000000"></path>
		<path d="M816.7+549.6L840+549.6L840+549.6L840+572.9L840+572.9L816.7+572.9L816.7+572.9L816.7+549.6L816.7+549.6Z" opacity="1" fill="#000000"></path>
		<path d="M793.4+572.9L816.7+572.9L816.7+572.9L816.7+596.2L816.7+596.2L793.4+596.2L793.4+596.2L793.4+572.9L793.4+572.9Z" opacity="1" fill="#000000"></path>
		<path d="M770.1+572.9L793.4+572.9L793.4+572.9L793.4+596.2L793.4+596.2L770.1+596.2L770.1+596.2L770.1+572.9L770.1+572.9Z" opacity="1" fill="#000000"></path>
		<path d="M770.1+596.1L793.4+596.1L793.4+596.1L793.4+619.4L793.4+619.4L770.1+619.4L770.1+619.4L770.1+596.1L770.1+596.1Z" opacity="1" fill="#000000"></path>
		<path d="M816.7+619.4L840+619.4L840+619.4L840+642.7L840+642.7L816.7+642.7L816.7+642.7L816.7+619.4L816.7+619.4Z" opacity="1" fill="#000000"></path>
		<path d="M793.4+619.4L816.7+619.4L816.7+619.4L816.7+642.7L816.7+642.7L793.4+642.7L793.4+642.7L793.4+619.4L793.4+619.4Z" opacity="1" fill="#000000"></path>
		<path d="M770.1+619.4L793.4+619.4L793.4+619.4L793.4+642.7L793.4+642.7L770.1+642.7L770.1+642.7L770.1+619.4L770.1+619.4Z" opacity="1" fill="#000000"></path>
		<path d="M816.7+642.7L840+642.7L840+642.7L840+666L840+666L816.7+666L816.7+666L816.7+642.7L816.7+642.7Z" opacity="1" fill="#000000"></path>
		<path d="M770.1+642.7L793.4+642.7L793.4+642.7L793.4+666L793.4+666L770.1+666L770.1+666L770.1+642.7L770.1+642.7Z" opacity="1" fill="#000000"></path>
		<path d="M816.7+666L840+666L840+666L840+689.3L840+689.3L816.7+689.3L816.7+689.3L816.7+666L816.7+666Z" opacity="1" fill="#000000"></path>
		<path d="M793.4+666L816.7+666L816.7+666L816.7+689.3L816.7+689.3L793.4+689.3L793.4+689.3L793.4+666L793.4+666Z" opacity="1" fill="#000000"></path>
		<path d="M1002.9+549.6L1026.2+549.6L1026.2+549.6L1026.2+572.9L1026.2+572.9L1002.9+572.9L1002.9+572.9L1002.9+549.6L1002.9+549.6Z" opacity="1" fill="#000000"></path>
		<path d="M979.6+549.6L1002.9+549.6L1002.9+549.6L1002.9+572.9L1002.9+572.9L979.6+572.9L979.6+572.9L979.6+549.6L979.6+549.6Z" opacity="1" fill="#000000"></path>
		<path d="M1026.2+572.9L1049.5+572.9L1049.5+572.9L1049.5+596.2L1049.5+596.2L1026.2+596.2L1026.2+596.2L1026.2+572.9L1026.2+572.9Z" opacity="1" fill="#000000"></path>
		<path d="M1026.2+596.1L1049.5+596.1L1049.5+596.1L1049.5+619.4L1049.5+619.4L1026.2+619.4L1026.2+619.4L1026.2+596.1L1026.2+596.1Z" opacity="1" fill="#000000"></path>
		<path d="M979.6+596.1L1002.9+596.1L1002.9+596.1L1002.9+619.4L1002.9+619.4L979.6+619.4L979.6+619.4L979.6+596.1L979.6+596.1Z" opacity="1" fill="#000000"></path>
		<path d="M1002.9+619.4L1026.2+619.4L1026.2+619.4L1026.2+642.7L1026.2+642.7L1002.9+642.7L1002.9+642.7L1002.9+619.4L1002.9+619.4Z" opacity="1" fill="#000000"></path>
		<path d="M1002.9+642.7L1026.2+642.7L1026.2+642.7L1026.2+666L1026.2+666L1002.9+666L1002.9+666L1002.9+642.7L1002.9+642.7Z" opacity="1" fill="#000000"></path>
		<path d="M979.6+642.7L1002.9+642.7L1002.9+642.7L1002.9+666L1002.9+666L979.6+666L979.6+666L979.6+642.7L979.6+642.7Z" opacity="1" fill="#000000"></path>
		<path d="M1026.2+666L1049.5+666L1049.5+666L1049.5+689.3L1049.5+689.3L1026.2+689.3L1026.2+689.3L1026.2+666L1026.2+666Z" opacity="1" fill="#000000"></path>
		<path d="M979.6+666L1002.9+666L1002.9+666L1002.9+689.3L1002.9+689.3L979.6+689.3L979.6+689.3L979.6+666L979.6+666Z" opacity="1" fill="#000000"></path>
	</g>
	<g opacity="1">
		<path d="M834.6+827.6C846.1+823.9+854.2+813.7+855.3+801.8C856.4+789.9+850.4+778.4+839.9+772.5L828.4+766.1L882.8+771.3C900.9+773+914.2+789.1+912.5+807.2C910.9+824.2+896.8+837+879.8+837L879.8+837C878.8+837+877.7+837+876.7+836.9L822+831.7L834.6+827.6Z" opacity="1" fill="#ccad8b"></path>
		<path d="M797.9+796.4C799.6+778.4+815.4+765+833.8+766.7L841.6+767.4L842.7+767.7C855.1+774.6+862.2+788.2+860.9+802.3C859.5+816.4+849.9+828.4+836.4+832.8L835.9+833L827.7+832.2C809.5+830.5+796.2+814.4+797.9+796.4Z" opacity="1" fill="#fad4ad"></path>
		<path d="M1170.2+938.8C1176.7+928.6+1177.1+921.2+1177.1+921.2L1177.1+749.1C1177.1+722.1+1199.1+700.1+1226.1+700.1L1243+700.1L1243+921.2L1243+921.9L1262.3+1039.5C1268.4+1076.7+1249.2+1113.9+1215.5+1130.6L1215.5+1330.6L1009+1330.6L1009+1168.4C1004.7+1169.1+1000.3+1169.4+995.9+1169.4L995.9+1169.4C953.6+1169.4+917.8+1139+911+1097.2L898+1018.3L1170.2+938.8Z" opacity="1" fill="#f5d0a8"></path>
		<path d="M978.1+1225L1244.4+1225L1244.4+1225L1244.4+1400L1244.4+1400L978.1+1400L978.1+1400L978.1+1225L978.1+1225Z" opacity="1" fill="#e46a5d"></path>
		<path d="M998.6+1250.1L1028.3+1250.1L1028.3+1250.1L1028.3+1377.7L1028.3+1377.7L998.6+1377.7L998.6+1377.7L998.6+1250.1L998.6+1250.1Z" opacity="1" fill="#c95f52"></path>
		<path d="M1027.5+1159.2L1049.3+1159.2L1049.3+1159.2L1049.3+1224.7L1049.3+1224.7L1027.5+1224.7L1027.5+1224.7L1027.5+1159.2L1027.5+1159.2Z" opacity="1" fill="#ebc7a2"></path>
		<g opacity="1">
			<g opacity="1">
				<path d="M1193.5+600.1C1190.5+584.6+1176.9+572.9+1160.5+572.9L911.5+572.9C893+572.9+877.9+587.9+877.9+606.5L877.9+645.7L1165.6+645.7L1193.5+600.1Z" opacity="1" fill="#6d6e71"></path>
				<path d="M1165.6+645.6L1194.1+645.6L1194.1+606.4C1194.1+604.2+1193.9+602.1+1193.5+600.1L1165.6+645.6Z" opacity="1" fill="#5d5e61"></path>
				<path d="M877.9+1035.8L877.9+1079.9C877.9+1088.4+881.1+1096.2+886.4+1102.1L927+1035.8C927+1035.8+877.9+1035.8+877.9+1035.8Z" opacity="1" fill="#6d6e71"></path>
				<path d="M886.4+1102C892.5+1108.9+901.5+1113.3+911.5+1113.3L1160.5+1113.3C1179+1113.3+1194.1+1098.3+1194.1+1079.7L1194.1+1035.6L926.9+1035.6L886.4+1102Z" opacity="1" fill="#5d5e61"></path>
				<path d="M926.9+1035.8L1194.1+1035.8L1194.1+645.6L1165.6+645.6L926.9+1035.8Z" opacity="1" fill="#7bc6f5"></path>
				<path d="M1165.6+645.6L877.9+645.6L877.9+1035.8L926.9+1035.8L1165.6+645.6Z" opacity="1" fill="#82ceff"></path>
			</g>
				<path d="M906.6+711.2L1165.5+711.2L1165.5+711.2L1165.5+970.1L1165.5+970.1L906.6+970.1L906.6+970.1L906.6+711.2L906.6+711.2Z" opacity="1" fill="#ffffff"></path>
				<path d="M1060.5+1074.6C1060.5+1088.1+1049.5+1099.1+1036+1099.1C1022.5+1099.1+1011.5+1088.1+1011.5+1074.6C1011.5+1061.1+1022.5+1050.1+1036+1050.1C1049.5+1050.1+1060.5+1061+1060.5+1074.6Z" opacity="1" fill="#494a4d"></path>
			<g opacity="1">
				<g opacity="1">
					<path d="M1085.8+890.5L1085.8+940.3L1135.6+940.3L1135.6+890.5L1085.8+890.5ZM1128.6+933.2L1092.8+933.2L1092.8+897.4L1128.6+897.4L1128.6+933.2Z" opacity="1" fill="#000000"></path>
					<path d="M1099.3+904L1122.1+904L1122.1+904L1122.1+926.8L1122.1+926.8L1099.3+926.8L1099.3+926.8L1099.3+904L1099.3+904Z" opacity="1" fill="#000000"></path>
				</g>
				<g opacity="1">
					<path d="M936.4+890.5L936.4+940.3L986.2+940.3L986.2+890.5L936.4+890.5ZM979.2+933.2L943.4+933.2L943.4+897.4L979.2+897.4L979.2+933.2Z" opacity="1" fill="#000000"></path>
					<path d="M949.9+904L972.7+904L972.7+904L972.7+926.8L972.7+926.8L949.9+926.8L949.9+926.8L949.9+904L949.9+904Z" opacity="1" fill="#000000"></path>
				</g>
				<g opacity="1">
					<path d="M1085.8+741.1L1085.8+790.9L1135.6+790.9L1135.6+741.1L1085.8+741.1ZM1128.6+783.9L1092.8+783.9L1092.8+748.1L1128.6+748.1L1128.6+783.9Z" opacity="1" fill="#000000"></path>
					<path d="M1099.3+754.6L1122.1+754.6L1122.1+754.6L1122.1+777.4L1122.1+777.4L1099.3+777.4L1099.3+777.4L1099.3+754.6L1099.3+754.6Z" opacity="1" fill="#000000"></path>
				</g>
				<g opacity="1">
					<path d="M936.4+741.1L936.4+790.9L986.2+790.9L986.2+741.1L936.4+741.1ZM979.2+783.9L943.4+783.9L943.4+748.1L979.2+748.1L979.2+783.9Z" opacity="1" fill="#000000"></path>
					<path d="M949.9+754.6L972.7+754.6L972.7+754.6L972.7+777.4L972.7+777.4L949.9+777.4L949.9+777.4L949.9+754.6L949.9+754.6Z" opacity="1" fill="#000000"></path>
				</g>
				<path d="M986.2+774.3L1002.8+774.3L1002.8+774.3L1002.8+790.9L1002.8+790.9L986.2+790.9L986.2+790.9L986.2+774.3L986.2+774.3Z" opacity="1" fill="#000000"></path>
				<path d="M1002.8+741.1L1019.4+741.1L1019.4+741.1L1019.4+757.7L1019.4+757.7L1002.8+757.7L1002.8+757.7L1002.8+741.1L1002.8+741.1Z" opacity="1" fill="#000000"></path>
				<path d="M1002.8+757.7L1019.4+757.7L1019.4+757.7L1019.4+774.3L1019.4+774.3L1002.8+774.3L1002.8+774.3L1002.8+757.7L1002.8+757.7Z" opacity="1" fill="#000000"></path>
				<path d="M1002.8+774.3L1019.4+774.3L1019.4+774.3L1019.4+790.9L1019.4+790.9L1002.8+790.9L1002.8+790.9L1002.8+774.3L1002.8+774.3Z" opacity="1" fill="#000000"></path>
				<path d="M1019.4+741.1L1036+741.1L1036+741.1L1036+757.7L1036+757.7L1019.4+757.7L1019.4+757.7L1019.4+741.1L1019.4+741.1Z" opacity="1" fill="#000000"></path>
				<path d="M1019.4+774.3L1036+774.3L1036+774.3L1036+790.9L1036+790.9L1019.4+790.9L1019.4+790.9L1019.4+774.3L1019.4+774.3Z" opacity="1" fill="#000000"></path>
				<path d="M1052.6+741.1L1069.2+741.1L1069.2+741.1L1069.2+757.7L1069.2+757.7L1052.6+757.7L1052.6+757.7L1052.6+741.1L1052.6+741.1Z" opacity="1" fill="#000000"></path>
				<path d="M1069.2+757.7L1085.8+757.7L1085.8+757.7L1085.8+774.3L1085.8+774.3L1069.2+774.3L1069.2+774.3L1069.2+757.7L1069.2+757.7Z" opacity="1" fill="#000000"></path>
				<path d="M1069.2+774.3L1085.8+774.3L1085.8+774.3L1085.8+790.9L1085.8+790.9L1069.2+790.9L1069.2+790.9L1069.2+774.3L1069.2+774.3Z" opacity="1" fill="#000000"></path>
				<path d="M986.2+923.7L1002.8+923.7L1002.8+923.7L1002.8+940.3L1002.8+940.3L986.2+940.3L986.2+940.3L986.2+923.7L986.2+923.7Z" opacity="1" fill="#000000"></path>
				<path d="M1002.8+890.5L1019.4+890.5L1019.4+890.5L1019.4+907.1L1019.4+907.1L1002.8+907.1L1002.8+907.1L1002.8+890.5L1002.8+890.5Z" opacity="1" fill="#000000"></path>
				<path d="M1002.8+907.1L1019.4+907.1L1019.4+907.1L1019.4+923.7L1019.4+923.7L1002.8+923.7L1002.8+923.7L1002.8+907.1L1002.8+907.1Z" opacity="1" fill="#000000"></path>
				<path d="M1019.4+890.5L1036+890.5L1036+890.5L1036+907.1L1036+907.1L1019.4+907.1L1019.4+907.1L1019.4+890.5L1019.4+890.5Z" opacity="1" fill="#000000"></path>
				<path d="M1019.4+923.7L1036+923.7L1036+923.7L1036+940.3L1036+940.3L1019.4+940.3L1019.4+940.3L1019.4+923.7L1019.4+923.7Z" opacity="1" fill="#000000"></path>
				<path d="M1036+890.5L1052.6+890.5L1052.6+890.5L1052.6+907.1L1052.6+907.1L1036+907.1L1036+907.1L1036+890.5L1036+890.5Z" opacity="1" fill="#000000"></path>
				<path d="M1036+907.1L1052.6+907.1L1052.6+907.1L1052.6+923.7L1052.6+923.7L1036+923.7L1036+923.7L1036+907.1L1036+907.1Z" opacity="1" fill="#000000"></path>
				<path d="M1052.6+907.1L1069.2+907.1L1069.2+907.1L1069.2+923.7L1069.2+923.7L1052.6+923.7L1052.6+923.7L1052.6+907.1L1052.6+907.1Z" opacity="1" fill="#000000"></path>
				<path d="M1052.6+923.7L1069.2+923.7L1069.2+923.7L1069.2+940.3L1069.2+940.3L1052.6+940.3L1052.6+940.3L1052.6+923.7L1052.6+923.7Z" opacity="1" fill="#000000"></path>
				<path d="M1069.2+890.5L1085.8+890.5L1085.8+890.5L1085.8+907.1L1085.8+907.1L1069.2+907.1L1069.2+907.1L1069.2+890.5L1069.2+890.5Z" opacity="1" fill="#000000"></path>
				<path d="M986.2+840.7L1002.8+840.7L1002.8+840.7L1002.8+857.3L1002.8+857.3L986.2+857.3L986.2+857.3L986.2+840.7L986.2+840.7Z" opacity="1" fill="#000000"></path>
				<path d="M986.2+857.3L1002.8+857.3L1002.8+857.3L1002.8+873.9L1002.8+873.9L986.2+873.9L986.2+873.9L986.2+857.3L986.2+857.3Z" opacity="1" fill="#000000"></path>
				<path d="M1002.8+840.7L1019.4+840.7L1019.4+840.7L1019.4+857.3L1019.4+857.3L1002.8+857.3L1002.8+857.3L1002.8+840.7L1002.8+840.7Z" opacity="1" fill="#000000"></path>
				<path d="M1002.8+857.3L1019.4+857.3L1019.4+857.3L1019.4+873.9L1019.4+873.9L1002.8+873.9L1002.8+873.9L1002.8+857.3L1002.8+857.3Z" opacity="1" fill="#000000"></path>
				<path d="M1002.8+873.9L1019.4+873.9L1019.4+873.9L1019.4+890.5L1019.4+890.5L1002.8+890.5L1002.8+890.5L1002.8+873.9L1002.8+873.9Z" opacity="1" fill="#000000"></path>
				<path d="M1019.4+873.9L1036+873.9L1036+873.9L1036+890.5L1036+890.5L1019.4+890.5L1019.4+890.5L1019.4+873.9L1019.4+873.9Z" opacity="1" fill="#000000"></path>
				<path d="M1036+840.7L1052.6+840.7L1052.6+840.7L1052.6+857.3L1052.6+857.3L1036+857.3L1036+857.3L1036+840.7L1036+840.7Z" opacity="1" fill="#000000"></path>
				<path d="M1036+873.9L1052.6+873.9L1052.6+873.9L1052.6+890.5L1052.6+890.5L1036+890.5L1036+890.5L1036+873.9L1036+873.9Z" opacity="1" fill="#000000"></path>
				<path d="M1052.6+840.7L1069.2+840.7L1069.2+840.7L1069.2+857.3L1069.2+857.3L1052.6+857.3L1052.6+857.3L1052.6+840.7L1052.6+840.7Z" opacity="1" fill="#000000"></path>
				<path d="M1052.6+857.3L1069.2+857.3L1069.2+857.3L1069.2+873.9L1069.2+873.9L1052.6+873.9L1052.6+873.9L1052.6+857.3L1052.6+857.3Z" opacity="1" fill="#000000"></path>
				<path d="M1069.2+840.7L1085.8+840.7L1085.8+840.7L1085.8+857.3L1085.8+857.3L1069.2+857.3L1069.2+857.3L1069.2+840.7L1069.2+840.7Z" opacity="1" fill="#000000"></path>
				<path d="M986.2+807.5L1002.8+807.5L1002.8+807.5L1002.8+824.1L1002.8+824.1L986.2+824.1L986.2+824.1L986.2+807.5L986.2+807.5Z" opacity="1" fill="#000000"></path>
				<path d="M986.2+824.1L1002.8+824.1L1002.8+824.1L1002.8+840.7L1002.8+840.7L986.2+840.7L986.2+840.7L986.2+824.1L986.2+824.1Z" opacity="1" fill="#000000"></path>
				<path d="M1002.8+807.5L1019.4+807.5L1019.4+807.5L1019.4+824.1L1019.4+824.1L1002.8+824.1L1002.8+824.1L1002.8+807.5L1002.8+807.5Z" opacity="1" fill="#000000"></path>
				<path d="M1019.4+790.9L1036+790.9L1036+790.9L1036+807.5L1036+807.5L1019.4+807.5L1019.4+807.5L1019.4+790.9L1019.4+790.9Z" opacity="1" fill="#000000"></path>
				<path d="M1019.4+807.5L1036+807.5L1036+807.5L1036+824.1L1036+824.1L1019.4+824.1L1019.4+824.1L1019.4+807.5L1019.4+807.5Z" opacity="1" fill="#000000"></path>
				<path d="M1019.4+824.1L1036+824.1L1036+824.1L1036+840.7L1036+840.7L1019.4+840.7L1019.4+840.7L1019.4+824.1L1019.4+824.1Z" opacity="1" fill="#000000"></path>
				<path d="M1036+790.9L1052.6+790.9L1052.6+790.9L1052.6+807.5L1052.6+807.5L1036+807.5L1036+807.5L1036+790.9L1036+790.9Z" opacity="1" fill="#000000"></path>
				<path d="M1036+807.5L1052.6+807.5L1052.6+807.5L1052.6+824.1L1052.6+824.1L1036+824.1L1036+824.1L1036+807.5L1036+807.5Z" opacity="1" fill="#000000"></path>
				<path d="M1052.6+807.5L1069.2+807.5L1069.2+807.5L1069.2+824.1L1069.2+824.1L1052.6+824.1L1052.6+824.1L1052.6+807.5L1052.6+807.5Z" opacity="1" fill="#000000"></path>
				<path d="M1052.6+824.1L1069.2+824.1L1069.2+824.1L1069.2+840.7L1069.2+840.7L1052.6+840.7L1052.6+840.7L1052.6+824.1L1052.6+824.1Z" opacity="1" fill="#000000"></path>
				<path d="M1069.2+807.5L1085.8+807.5L1085.8+807.5L1085.8+824.1L1085.8+824.1L1069.2+824.1L1069.2+824.1L1069.2+807.5L1069.2+807.5Z" opacity="1" fill="#000000"></path>
				<path d="M1069.2+824.1L1085.8+824.1L1085.8+824.1L1085.8+840.7L1085.8+840.7L1069.2+840.7L1069.2+840.7L1069.2+824.1L1069.2+824.1Z" opacity="1" fill="#000000"></path>
				<path d="M969.6+790.9L986.2+790.9L986.2+790.9L986.2+807.5L986.2+807.5L969.6+807.5L969.6+807.5L969.6+790.9L969.6+790.9Z" opacity="1" fill="#000000"></path>
				<path d="M953+807.5L969.6+807.5L969.6+807.5L969.6+824.1L969.6+824.1L953+824.1L953+824.1L953+807.5L953+807.5Z" opacity="1" fill="#000000"></path>
				<path d="M936.4+807.5L953+807.5L953+807.5L953+824.1L953+824.1L936.4+824.1L936.4+824.1L936.4+807.5L936.4+807.5Z" opacity="1" fill="#000000"></path>
				<path d="M936.4+824.1L953+824.1L953+824.1L953+840.7L953+840.7L936.4+840.7L936.4+840.7L936.4+824.1L936.4+824.1Z" opacity="1" fill="#000000"></path>
				<path d="M969.6+840.7L986.2+840.7L986.2+840.7L986.2+857.3L986.2+857.3L969.6+857.3L969.6+857.3L969.6+840.7L969.6+840.7Z" opacity="1" fill="#000000"></path>
				<path d="M953+840.7L969.6+840.7L969.6+840.7L969.6+857.3L969.6+857.3L953+857.3L953+857.3L953+840.7L953+840.7Z" opacity="1" fill="#000000"></path>
				<path d="M936.4+840.7L953+840.7L953+840.7L953+857.3L953+857.3L936.4+857.3L936.4+857.3L936.4+840.7L936.4+840.7Z" opacity="1" fill="#000000"></path>
				<path d="M969.6+857.3L986.2+857.3L986.2+857.3L986.2+873.9L986.2+873.9L969.6+873.9L969.6+873.9L969.6+857.3L969.6+857.3Z" opacity="1" fill="#000000"></path>
				<path d="M936.4+857.3L953+857.3L953+857.3L953+873.9L953+873.9L936.4+873.9L936.4+873.9L936.4+857.3L936.4+857.3Z" opacity="1" fill="#000000"></path>
				<path d="M969.6+873.9L986.2+873.9L986.2+873.9L986.2+890.5L986.2+890.5L969.6+890.5L969.6+890.5L969.6+873.9L969.6+873.9Z" opacity="1" fill="#000000"></path>
				<path d="M953+873.9L969.6+873.9L969.6+873.9L969.6+890.5L969.6+890.5L953+890.5L953+890.5L953+873.9L953+873.9Z" opacity="1" fill="#000000"></path>
				<path d="M1102.4+790.9L1119+790.9L1119+790.9L1119+807.5L1119+807.5L1102.4+807.5L1102.4+807.5L1102.4+790.9L1102.4+790.9Z" opacity="1" fill="#000000"></path>
				<path d="M1085.8+790.9L1102.4+790.9L1102.4+790.9L1102.4+807.5L1102.4+807.5L1085.8+807.5L1085.8+807.5L1085.8+790.9L1085.8+790.9Z" opacity="1" fill="#000000"></path>
				<path d="M1119+807.5L1135.6+807.5L1135.6+807.5L1135.6+824.1L1135.6+824.1L1119+824.1L1119+824.1L1119+807.5L1119+807.5Z" opacity="1" fill="#000000"></path>
				<path d="M1119+824.1L1135.6+824.1L1135.6+824.1L1135.6+840.7L1135.6+840.7L1119+840.7L1119+840.7L1119+824.1L1119+824.1Z" opacity="1" fill="#000000"></path>
				<path d="M1085.8+824.1L1102.4+824.1L1102.4+824.1L1102.4+840.7L1102.4+840.7L1085.8+840.7L1085.8+840.7L1085.8+824.1L1085.8+824.1Z" opacity="1" fill="#000000"></path>
				<path d="M1102.4+840.7L1119+840.7L1119+840.7L1119+857.3L1119+857.3L1102.4+857.3L1102.4+857.3L1102.4+840.7L1102.4+840.7Z" opacity="1" fill="#000000"></path>
				<path d="M1102.4+857.3L1119+857.3L1119+857.3L1119+873.9L1119+873.9L1102.4+873.9L1102.4+873.9L1102.4+857.3L1102.4+857.3Z" opacity="1" fill="#000000"></path>
				<path d="M1085.8+857.3L1102.4+857.3L1102.4+857.3L1102.4+873.9L1102.4+873.9L1085.8+873.9L1085.8+873.9L1085.8+857.3L1085.8+857.3Z" opacity="1" fill="#000000"></path>
				<path d="M1119+873.9L1135.6+873.9L1135.6+873.9L1135.6+890.5L1135.6+890.5L1119+890.5L1119+890.5L1119+873.9L1119+873.9Z" opacity="1" fill="#000000"></path>
				<path d="M1085.8+873.9L1102.4+873.9L1102.4+873.9L1102.4+890.5L1102.4+890.5L1085.8+890.5L1085.8+890.5L1085.8+873.9L1085.8+873.9Z" opacity="1" fill="#000000"></path>
			</g>
		</g>
		<path d="M824.7+1009C829.4+996+841.8+987.3+855.7+987.3C859.5+987.3+863.3+988+866.9+989.3L913.3+1006.1C921.6+1009.1+928.2+1015.1+931.9+1023.1C935.6+1031.1+936.1+1040+933.1+1048.3C928.4+1061.3+915.9+1070.1+902.1+1070.1C898.3+1070.1+894.5+1069.4+890.9+1068.1L844.4+1051.3C836.1+1048.3+829.5+1042.3+825.8+1034.3C822.1+1026.2+821.7+1017.2+824.7+1009Z" opacity="1" fill="#fad4ad"></path>
		<path d="M824.7+934.2C829.4+921.2+841.8+912.5+855.7+912.5C859.5+912.5+863.3+913.2+866.9+914.5L913.3+931.3C921.6+934.3+928.2+940.3+931.9+948.3C935.6+956.3+936.1+965.2+933.1+973.5C928.4+986.5+916+995.2+902.1+995.2C898.3+995.2+894.5+994.5+890.9+993.2L844.4+976.4C836.1+973.4+829.5+967.4+825.8+959.4C822.1+951.4+821.7+942.5+824.7+934.2Z" opacity="1" fill="#fad4ad"></path>
		<path d="M824.7+859.4C829.4+846.4+841.8+837.7+855.7+837.7C859.5+837.7+863.3+838.4+866.9+839.7L913.3+856.5C921.6+859.5+928.2+865.5+931.9+873.5C935.6+881.5+936.1+890.4+933.1+898.7C928.4+911.7+916+920.4+902.1+920.4C898.3+920.4+894.5+919.7+890.9+918.4L844.4+901.6C827.4+895.4+818.5+876.5+824.7+859.4Z" opacity="1" fill="#fad4ad"></path>
		<path d="M839.9+1029.4C838.7+1032.8+840.4+1036.5+843.8+1037.7L895.7+1056.4C899.1+1057.6+902.8+1055.9+904+1052.5L904+1052.5C905.2+1049.1+903.5+1045.4+900.1+1044.2L848.1+1025.5C844.9+1024.3+841.1+1026.1+839.9+1029.4L839.9+1029.4Z" opacity="1" fill="#ebc7a2"></path>
		<path d="M839.9+954.6C838.7+958+840.4+961.7+843.8+962.9L895.7+981.6C899.1+982.8+902.8+981.1+904+977.7L904+977.7C905.2+974.3+903.5+970.6+900.1+969.4L848.1+950.7C844.9+949.5+841.1+951.3+839.9+954.6L839.9+954.6Z" opacity="1" fill="#ebc7a2"></path>
		<path d="M839.9+879.9C838.7+883.3+840.4+887+843.8+888.2L895.7+906.9C899.1+908.1+902.8+906.4+904+903L904+903C905.2+899.6+903.5+895.9+900.1+894.7L848.1+876C844.9+874.8+841.1+876.5+839.9+879.9L839.9+879.9Z" opacity="1" fill="#ebc7a2"></path>
		<path d="M1158.5+951.9C1162+948.3+1167.8+941.7+1169.6+938.9C1176.6+928.3+1177.1+920.5+1177.1+920.5L1177.1+748.4C1177.1+721.4+1199.1+699.4+1226.1+699.4L1240.2+699.4C1240.9+699.4+1241.6+699.7+1242.1+700.2C1242.6+700.7+1242.9+701.4+1242.9+702.1L1242.7+920L1262.2+1038.8C1268.4+1076.6+1248.5+1114.4+1213.8+1130.7C1213.4+1130.9+1213+1131+1212.6+1131C1211.6+1131+1210.6+1130.4+1210.1+1129.4C1209.9+1128.9+1209.8+1128.3+1209.9+1127.8L1158.5+1120.1L1155.9+1116.8C1155.5+1117.1+1155.1+1117.3+1154.6+1117.4C1153.1+1117.6+1151.7+1116.6+1151.5+1115.1L1136.9+1023.6C1136.9+1023.5+1136.9+1023.4+1136.9+1023.3C1135+993.3+1142.3+969.3+1158.5+951.9Z" opacity="1" fill="#fad4ad"></path>
		<path d="M1181.6+966.2L1181.6+1115.4L1169.4+1115.4L1156+1019.7C1156+1019.7+1151.5+983.4+1181.6+966.2Z" opacity="1" fill="#ebc7a2"></path>
	</g>
</g>
</svg>
