<?xml version="1.0" encoding="utf-8"?>

<!--
 * Copyright (c) 2020, WSO2 Inc. (http://www.wso2.org) All Rights Reserved.
 *
 * WSO2 Inc. licenses this file to you under the Apache License,
 * Version 2.0 (the "License"); you may not use this file except
 * in compliance with the License.
 * You may obtain a copy of the License at
 *
 *     http://www.apache.org/licenses/LICENSE-2.0
 *
 * Unless required by applicable law or agreed to in writing,
 * software distributed under the License is distributed on an
 * "AS IS" BASIS, WITHOUT WARRANTIES OR CONDITIONS OF ANY
 * KIND, either express or implied. See the License for the
 * specific language governing permissions and limitations
 * under the License.
-->

<svg xmlns="http://www.w3.org/2000/svg" id="web-app-illustration" class="icon" xmlns:xlink="http://www.w3.org/1999/xlink" width="100" height="100" viewBox="0 0 92.778 80">
  <defs>
    <linearGradient id="linear-gradient" x1="0.404" y1="0.5" x2="1.567" y2="0.5" gradientUnits="objectBoundingBox">
      <stop offset="0" stop-color="#fff0d5" />
      <stop offset="0.001" stop-color="#fff0d5" />
      <stop offset="0.511" stop-color="#fff6df" />
      <stop offset="1" stop-color="#ff5000" stop-opacity="0.243" />
    </linearGradient>
  </defs>
  <g id="ui-design" transform="translate(0 -35.258)">
    <path id="Path_145" d="M69.331,94.59h-.1a20.336,20.336,0,0,1-15.12-6.683,31.176,31.176,0,0,0-23.4-10.274C13.764,77.706-.217,91.529,0,107.98c.218,16.36,13.945,29.557,30.846,29.557A31.479,31.479,0,0,0,44.176,134.6a10.543,10.543,0,0,1,10.685,1.084A23.938,23.938,0,0,0,69.149,140.4c12.935.021,23.553-10.208,23.629-22.767C92.853,104.953,82.369,94.665,69.331,94.59Z" transform="translate(0 -33.757)" fill="url(#linear-gradient)" />
    <path id="Path_146" d="M126,82.963V140.77a2.863,2.863,0,0,1-2.625,3.051H58.625A2.863,2.863,0,0,1,56,140.77V82.963a2.863,2.863,0,0,1,2.625-3.051h64.751A2.863,2.863,0,0,1,126,82.963Z" transform="translate(-44.611 -35.573)" fill="#ff5000" opacity="0.1" />
    <path id="Path_147" d="M126,103.5v48.958a2.605,2.605,0,0,1-2.625,2.584H58.625A2.605,2.605,0,0,1,56,152.453V103.5a2.605,2.605,0,0,1,2.625-2.584h64.751A2.605,2.605,0,0,1,126,103.5Z" transform="translate(-44.611 -52.302)" fill="#f5f4f9" />
    <path id="Path_148" d="M92.436,149.084h55.181v22H92.436Z" transform="translate(-73.637 -94.019)" fill="#e8e6ed" />
    <path id="Path_149" d="M126,110.709v-6.746a2.862,2.862,0,0,0-2.625-3.051H58.625A2.862,2.862,0,0,0,56,103.964v6.746Z" transform="translate(-44.611 -52.303)" fill="#ffd1bc" />
    <path id="Path_150" d="M106.435,221.185H89.57a.757.757,0,0,1-.757-.757V206.846a.757.757,0,0,1,.757-.757h16.865a.757.757,0,0,1,.757.757v13.581A.757.757,0,0,1,106.435,221.185Z" transform="translate(-73.141 -140.64)" fill="#ffd5b8" />
    <path id="Path_151" d="M110.167,308.453H96.626a1.042,1.042,0,1,1,0-2.084h13.542a1.042,1.042,0,1,1,0,2.084Z" transform="translate(-78.638 -222.127)" fill="#ddd9e4" />
    <path id="Path_152" d="M228.435,221.185H211.57a.757.757,0,0,1-.757-.757V206.846a.757.757,0,0,1,.757-.757h16.865a.757.757,0,0,1,.757.757v13.581A.757.757,0,0,1,228.435,221.185Z" transform="translate(-173.614 -140.64)" fill="#ffd0ba" />
    <path id="Path_153" d="M232.167,308.453H218.626a1.042,1.042,0,1,1,0-2.084h13.542a1.042,1.042,0,1,1,0,2.084Z" transform="translate(-179.008 -222.127)" fill="#ddd9e4" />
    <path id="Path_154" d="M350.435,221.185H333.57a.757.757,0,0,1-.757-.757V206.846a.757.757,0,0,1,.757-.757h16.865a.757.757,0,0,1,.757.757v13.581A.757.757,0,0,1,350.435,221.185Z" transform="translate(-274.086 -140.64)" fill="#ffe783" />
    <path id="Path_155" d="M354.167,308.453H340.626a1.042,1.042,0,0,1,0-2.084h13.542a1.042,1.042,0,0,1,0,2.084Z" transform="translate(-279.378 -222.127)" fill="#ddd9e4" />
    <path id="Path_156" d="M346.451,201.088H329.586a1.776,1.776,0,0,0-1.774,1.774v13.581a1.776,1.776,0,0,0,1.774,1.774h16.865a1.776,1.776,0,0,0,1.774-1.774V202.862A1.777,1.777,0,0,0,346.451,201.088Zm-.259,7.548H336.12v-5.514h10.071Zm-16.346-5.514h4.241v13.062h-4.241Zm6.275,13.062V210.67h10.071v5.514Z" transform="translate(-270.182 -136.647)" fill="#ffc136" />
    <path id="Path_157" d="M364.846,325.37h-6.22a1.042,1.042,0,0,0,0,2.084h6.22a1.042,1.042,0,0,0,0-2.084Z" transform="translate(-293.474 -237.694)" fill="#ffc136" />
    <path id="Path_158" d="M117.965,363.574H108.61a.61.61,0,0,1-.61-.61v-3.39a.61.61,0,0,1,.61-.61h9.355a.61.61,0,0,1,.61.61v3.39A.61.61,0,0,1,117.965,363.574Z" transform="translate(-88.7 -265.436)" fill="#ffd5b8" />
    <path id="Path_159" d="M241.022,363.574h-9.355a.61.61,0,0,1-.61-.61v-3.39a.61.61,0,0,1,.61-.61h9.355a.61.61,0,0,1,.61.61v3.39A.61.61,0,0,1,241.022,363.574Z" transform="translate(-189.767 -265.436)" fill="#ffbb9b" />
    <path id="Path_160" d="M364.08,363.574h-9.355a.61.61,0,0,1-.61-.61v-3.39a.61.61,0,0,1,.61-.61h9.355a.61.61,0,0,1,.61.61v3.39A.61.61,0,0,1,364.08,363.574Z" transform="translate(-290.834 -265.436)" fill="#ffe783" />
    <path id="Path_161" d="M257.116,379.874,263.479,397a.9.9,0,0,0,1.633.127l3.617-6.452a.9.9,0,0,1,.346-.346l6.452-3.617a.9.9,0,0,0-.127-1.633l-17.124-6.363A.9.9,0,0,0,257.116,379.874Z" transform="translate(-211.743 -283.345)" fill="#ffbe92" />
    <g id="Group_50" transform="translate(10.372 47.593)">
      <path id="Path_162" d="M89.082,120.942v.03a1.017,1.017,0,0,0,2.034,0v-.03a1.017,1.017,0,1,0-2.034,0Z" transform="translate(-81.337 -115.041)" fill="#ff5000" />
      <path id="Path_163" d="M108.407,120.942v.03a1.017,1.017,0,0,0,2.034,0v-.03a1.017,1.017,0,0,0-2.034,0Z" transform="translate(-97.732 -115.041)" fill="#ff5000" />
      <path id="Path_164" d="M127.731,120.942v.03a1.017,1.017,0,0,0,2.034,0v-.03a1.017,1.017,0,1,0-2.034,0Z" transform="translate(-114.303 -115.041)" fill="#ff5000" />
      <path id="Path_165" d="M119.52,95.912H54.514A3.538,3.538,0,0,0,51,99.465v5.894a.883.883,0,0,0,.878.888h64.245a.888.888,0,0,0,0-1.777H52.757V99.465a1.769,1.769,0,0,1,1.757-1.777H119.52a1.769,1.769,0,0,1,1.757,1.777v50.5a1.769,1.769,0,0,1-1.757,1.777H104.259a1.646,1.646,0,0,0-.9-.82l-14.794-5.56a1.627,1.627,0,0,0-1.75.386,1.672,1.672,0,0,0-.382,1.769l1.552,4.224H54.514a1.769,1.769,0,0,1-1.757-1.777V110.253a.879.879,0,1,0-1.757,0V149.97a3.538,3.538,0,0,0,3.514,3.554H88.635l3.293,8.961a1.644,1.644,0,0,0,1.426,1.087c.045,0,.089.005.133.005a1.637,1.637,0,0,0,1.441-.857l3.111-5.612,5.55-3.146a1.669,1.669,0,0,0,.5-.438h15.43a3.538,3.538,0,0,0,3.514-3.554v-50.5a3.538,3.538,0,0,0-3.514-3.554ZM97.155,155.571a1.667,1.667,0,0,0-.635.642l-3.02,5.448-5.348-14.553,14.391,5.408Z" transform="translate(-51 -95.912)" fill="#ff5000" />
    </g>
    <path id="Path_166" d="M232.314,443.128a1.017,1.017,0,0,1-1.017-1.017,1.225,1.225,0,0,0-1.223-1.223,1.017,1.017,0,1,1,0-2.034,1.225,1.225,0,0,0,1.223-1.224,1.017,1.017,0,0,1,2.034,0,1.225,1.225,0,0,0,1.223,1.224,1.017,1.017,0,0,1,0,2.034,1.225,1.225,0,0,0-1.223,1.223A1.017,1.017,0,0,1,232.314,443.128Z" transform="translate(-187.889 -329.516)" fill="#ffe783" />
    <path id="Path_167" d="M102.451,201.088H85.586a1.776,1.776,0,0,0-1.774,1.774v13.581a1.776,1.776,0,0,0,1.774,1.774h16.865a1.776,1.776,0,0,0,1.774-1.774V202.862A1.777,1.777,0,0,0,102.451,201.088Zm-.259,2.034v3.38H85.846v-3.38Zm-16.346,5.413H96.967v7.649H85.846ZM99,216.184v-7.649h3.191v7.649Z" transform="translate(-69.078 -136.647)" fill="#ffa052" />
    <path id="Path_168" d="M120.846,325.37h-6.22a1.042,1.042,0,1,0,0,2.084h6.22a1.042,1.042,0,1,0,0-2.084Z" transform="translate(-93.22 -237.694)" fill="#ffa052" />
    <path id="Path_169" d="M221.271,55.078l-2.236-2.236a1.016,1.016,0,0,0-1.438,0l-2.236,2.236a1.017,1.017,0,0,0,0,1.438l2.236,2.236a1.017,1.017,0,0,0,1.438,0l2.236-2.236a1.017,1.017,0,0,0,0-1.438ZM218.316,56.6l-.8-.8.8-.8.8.8Z" transform="translate(-176.41 -13.771)" fill="#ffa052" />
    <path id="Path_170" d="M224.451,201.088H207.586a1.776,1.776,0,0,0-1.774,1.774v13.581a1.776,1.776,0,0,0,1.774,1.774h16.865a1.776,1.776,0,0,0,1.774-1.774V202.862A1.777,1.777,0,0,0,224.451,201.088Zm-.26,7.854h-5.326v-5.82h5.326v5.82Zm-7.359-5.82v5.82h-8.986v-5.82Zm-8.986,7.854h4.512v5.208h-4.512Zm6.546,5.208v-5.208h9.8v5.208Z" transform="translate(-169.63 -136.647)" fill="rgba(255,80,0,0.65)" />
    <path id="Path_171" d="M242.846,325.37h-6.22a1.042,1.042,0,1,0,0,2.084h6.22a1.042,1.042,0,1,0,0-2.084Z" transform="translate(-193.347 -237.694)" fill="#ffae89" />
    <path id="Path_172" d="M161.9,37.5a1.225,1.225,0,0,1-1.223-1.223,1.017,1.017,0,1,0-2.034,0,1.225,1.225,0,0,1-1.224,1.223,1.017,1.017,0,0,0,0,2.034,1.225,1.225,0,0,1,1.224,1.223,1.017,1.017,0,0,0,2.034,0,1.225,1.225,0,0,1,1.223-1.223,1.017,1.017,0,0,0,0-2.034Z" transform="translate(-128.289)" fill="#f8cfbc" />
    <path id="Path_173" d="M343.423,55.078l-2.236-2.236a1.016,1.016,0,0,0-1.438,0l-2.236,2.236a1.017,1.017,0,0,0,0,1.438l2.236,2.236a1.017,1.017,0,0,0,1.438,0l2.236-2.236a1.017,1.017,0,0,0,0-1.438ZM340.468,56.6l-.8-.8.8-.8.8.8Z" transform="translate(-276.607 -13.771)" fill="#ffb898" />
  </g>
</svg>
