<!--
 * Copyright (c) 2025, WSO2 LLC. (https://www.wso2.com).
 *
 * WSO2 LLC. licenses this file to you under the Apache License,
 * Version 2.0 (the "License"); you may not use this file except
 * in compliance with the License.
 * You may obtain a copy of the License at
 *
 *     http://www.apache.org/licenses/LICENSE-2.0
 *
 * Unless required by applicable law or agreed to in writing,
 * software distributed under the License is distributed on an
 * "AS IS" BASIS, WITHOUT WARRANTIES OR CONDITIONS OF ANY
 * KIND, either express or implied. See the License for the
 * specific language governing permissions and limitations
 * under the License.
-->

<svg xmlns="http://www.w3.org/2000/svg" xmlns:xlink="http://www.w3.org/1999/xlink" fill="#000000"
    height="800px" width="800px" version="1.1" id="Layer_1" viewBox="-145 129 220 256"
    xml:space="preserve">
<path d="M75,316.8c-6,13.3-8.9,19.3-16.6,31c-10.8,16.4-26,36.9-44.9,37.1c-16.8,0.2-21.1-10.9-43.8-10.8  c-22.7,0.1-27.5,11-44.3,10.8c-18.9-0.2-33.3-18.7-44.1-35.1c-30.2-46-33.4-99.9-14.7-128.6c13.2-20.4,34.1-32.3,53.8-32.3  c20,0,32.5,11,49.1,11c16,0,25.8-11,48.9-11c17.5,0,36,9.5,49.2,26C24.3,238.6,31.3,300.3,75,316.8L75,316.8z M0.8,170.6  c8.4-10.8,14.8-26,12.5-41.6c-13.7,0.9-29.8,9.7-39.1,21.1c-8.5,10.3-15.5,25.6-12.8,40.5C-23.7,191.1-8.2,182.1,0.8,170.6  L0.8,170.6z"/>
</svg>
