<!--
 * Copyright (c) 2022-2024, WSO2 Inc. (http://www.wso2.org).
 *
 * WSO2 Inc. licenses this file to you under the Apache License,
 * Version 2.0 (the "License"); you may not use this file except
 * in compliance with the License.
 * You may obtain a copy of the License at
 *
 *     http://www.apache.org/licenses/LICENSE-2.0
 *
 * Unless required by applicable law or agreed to in writing,
 * software distributed under the License is distributed on an
 * "AS IS" BASIS, WITHOUT WARRANTIES OR CONDITIONS OF ANY
 * KIND, either express or implied. See the License for the
 * specific language governing permissions and limitations
 * under the License.
-->

<svg class="icon" width="16" height="16" viewBox="0 0 16 16" fill="none"
    xmlns="http://www.w3.org/2000/svg">
    <path
        d="M5.5 7C3.69671 7 2.14598 8.07203 1.42721 9.62225C1.37018 9.74525 1.31838 9.87127 1.27212 10C1.15774 10.3182 1.07714 10.6531 1.03469 11H6.5C6.22386 11 6 11.2239 6 11.5C6 11.7761 6.22386 12 6.5 12H0V11.5714C0 11.3786 0.00968053 11.188 0.0285867 11C0.0326709 10.9594 0.0371856 10.9189 0.0421262 10.8786C0.377432 8.14018 2.67457 6 5.5 6C7.05496 6 8.44992 6.64822 9.44591 7.68763C9.5542 7.80064 9.65777 7.91827 9.75632 8.0402L9.76427 8.05006C9.78707 8.0784 9.80961 8.10698 9.83187 8.13578C10.0019 8.35582 9.92983 8.66886 9.69402 8.81624C9.48716 8.94552 9.22364 8.9036 9.04694 8.74237C9.03535 8.73179 9.02412 8.7207 9.01331 8.7091C9.00371 8.69879 8.99442 8.68809 8.9855 8.67701C8.90698 8.57947 8.82456 8.4853 8.73849 8.39474C7.92098 7.53462 6.77347 7 5.5 7Z"
        fill="black" />
    <path fill-rule="evenodd" clip-rule="evenodd"
        d="M8 2.5C8 1.11929 6.88071 0 5.5 0C4.11929 0 3 1.11929 3 2.5C3 3.88071 4.11929 5 5.5 5C6.88071 5 8 3.88071 8 2.5ZM4 2.5C4 1.67157 4.67157 1 5.5 1C6.32843 1 7 1.67157 7 2.5C7 3.32843 6.32843 4 5.5 4C4.67157 4 4 3.32843 4 2.5Z"
        fill="black" />
    <path
        d="M12.3333 12.8333C12.6095 12.8333 12.8333 12.6095 12.8333 12.3333C12.8333 12.0572 12.6095 11.8333 12.3333 11.8333C12.0572 11.8333 11.8333 12.0572 11.8333 12.3333C11.8333 12.6095 12.0572 12.8333 12.3333 12.8333Z"
        fill="black" />
    <path fill-rule="evenodd" clip-rule="evenodd"
        d="M12.8333 15.2919C13.2892 15.2154 13.7101 15.0361 14.0716 14.7787L14.219 14.9261C14.4142 15.1213 14.7308 15.1213 14.9261 14.9261C15.1213 14.7308 15.1213 14.4142 14.9261 14.219L14.7787 14.0716C15.0361 13.7101 15.2154 13.2892 15.2919 12.8333H15.5C15.7761 12.8333 16 12.6095 16 12.3333C16 12.0572 15.7761 11.8333 15.5 11.8333H15.2919C15.2154 11.3775 15.0361 10.9565 14.7787 10.5951L14.9261 10.4477C15.1213 10.2525 15.1213 9.93587 14.9261 9.74061C14.7308 9.54535 14.4142 9.54535 14.219 9.74061L14.0716 9.88796C13.7101 9.63055 13.2892 9.45129 12.8333 9.37481V9.16667C12.8333 8.89052 12.6095 8.66667 12.3333 8.66667C12.0572 8.66667 11.8333 8.89052 11.8333 9.16667V9.37481C11.3775 9.45129 10.9565 9.63055 10.5951 9.88796L10.4477 9.74061C10.2525 9.54535 9.93588 9.54535 9.74062 9.74061C9.54536 9.93587 9.54536 10.2525 9.74062 10.4477L9.88796 10.5951C9.63055 10.9565 9.45129 11.3775 9.37481 11.8333H9.16667C8.89052 11.8333 8.66667 12.0572 8.66667 12.3333C8.66667 12.6095 8.89052 12.8333 9.16667 12.8333H9.37481C9.45129 13.2892 9.63055 13.7101 9.88796 14.0716L9.74061 14.219C9.54535 14.4142 9.54535 14.7308 9.74061 14.9261C9.93588 15.1213 10.2525 15.1213 10.4477 14.9261L10.5951 14.7787C10.9565 15.0361 11.3775 15.2154 11.8333 15.2919V15.5C11.8333 15.7761 12.0572 16 12.3333 16C12.6095 16 12.8333 15.7761 12.8333 15.5V15.2919ZM12.3333 14.3333C13.4379 14.3333 14.3333 13.4379 14.3333 12.3333C14.3333 11.2288 13.4379 10.3333 12.3333 10.3333C11.2288 10.3333 10.3333 11.2288 10.3333 12.3333C10.3333 13.4379 11.2288 14.3333 12.3333 14.3333Z"
        fill="black" />
</svg>
