<!--
 * Copyright (c) 2023, WSO2 Inc. (http://www.wso2.org) All Rights Reserved.
 *
 * WSO2 Inc. licenses this file to you under the Apache License,
 * Version 2.0 (the "License"); you may not use this file except
 * in compliance with the License.
 * You may obtain a copy of the License at
 *
 *     http://www.apache.org/licenses/LICENSE-2.0
 *
 * Unless required by applicable law or agreed to in writing,
 * software distributed under the License is distributed on an
 * "AS IS" BASIS, WITHOUT WARRANTIES OR CONDITIONS OF ANY
 * KIND, either express or implied. See the License for the
 * specific language governing permissions and limitations
 * under the License.
-->

<svg class="icon" width="16" height="16" viewBox="0 0 16 16" fill="none" xmlns="http://www.w3.org/2000/svg">
    <path fill-rule="evenodd" clip-rule="evenodd" d="M5.95376 4C6.78219 4 7.45376 3.32843 7.45376 2.5C7.45376 1.67157 6.78219 1 5.95376 1C5.12534 1 4.45376 1.67157 4.45376 2.5C4.45376 3.32843 5.12534 4 5.95376 4ZM5.95376 5C7.33447 5 8.45376 3.88071 8.45376 2.5C8.45376 1.11929 7.33447 0 5.95376 0C4.57305 0 3.45376 1.11929 3.45376 2.5C3.45376 3.88071 4.57305 5 5.95376 5ZM0.0124101 11.5381C0.422402 8.25514 2.91053 6 5.95326 6C6.22941 6 6.45326 6.22386 6.45326 6.5C6.45326 6.77614 6.22941 7 5.95326 7C3.4544 7 1.35721 8.83933 1.0047 11.662C0.985492 11.8159 1.11336 12 1.35507 12L4.99971 11.9998C5.27585 11.9998 5.49972 12.2236 5.49973 12.4998C5.49974 12.7759 5.2759 12.9998 4.99975 12.9998L1.35511 13C0.600267 13 -0.0918734 12.3731 0.0124101 11.5381ZM13.5813 7.00465L13.4375 7H9.18745C8.02765 7 7.07867 7.90259 7.00461 9.04367L6.99995 9.1875V15.0969C6.99995 15.1549 7.023 15.2105 7.06402 15.2516C7.13521 15.3228 7.24326 15.3346 7.32674 15.2872L7.37338 15.2516L9.62495 13H13.4375C14.5489 13 15.4668 12.1711 15.6065 11.0977L15.6203 10.9563L15.625 10.8125V10.0749L15.6299 10.0749V9.19996H15.625V9.1875C15.625 8.0277 14.7224 7.07872 13.5813 7.00465ZM13.4375 7.875H9.18745L9.06105 7.88101C8.39548 7.94461 7.87495 8.50527 7.87495 9.1875V13.5128L9.26252 12.125H13.4375L13.5583 12.1195C14.1956 12.0611 14.7052 11.546 14.7471 10.8997L14.7504 10.7842L14.75 9.1875L14.7439 9.0611C14.6803 8.39553 14.1197 7.875 13.4375 7.875Z" fill="black"/>
</svg>
