<!--
 * Copyright (c) 2020, WSO2 Inc. (http://www.wso2.org) All Rights Reserved.
 *
 * WSO2 Inc. licenses this file to you under the Apache License,
 * Version 2.0 (the "License"); you may not use this file except
 * in compliance with the License.
 * You may obtain a copy of the License at
 *
 *     http://www.apache.org/licenses/LICENSE-2.0
 *
 * Unless required by applicable law or agreed to in writing,
 * software distributed under the License is distributed on an
 * "AS IS" BASIS, WITHOUT WARRANTIES OR CONDITIONS OF ANY
 * KIND, either express or implied. See the License for the
 * specific language governing permissions and limitations
 * under the License.
-->

<svg id="application-outline" class="icon" width="16" height="16" viewBox="0 0 16 16" fill="none" xmlns="http://www.w3.org/2000/svg">
<path fill-rule="evenodd" clip-rule="evenodd" d="M3.5 1C2.67157 1 2 1.67157 2 2.5V4.5C2 5.32843 2.67157 6 3.5 6H5.5C6.32843 6 7 5.32843 7 4.5V2.5C7 1.67157 6.32843 1 5.5 1H3.5ZM5.5 0C6.88071 0 8 1.11929 8 2.5V4.5C8 5.88071 6.88071 7 5.5 7H3.5C2.11929 7 1 5.88071 1 4.5V2.5C1 1.11929 2.11929 0 3.5 0H5.5ZM2.5 9C1.67157 9 1 9.67157 1 10.5V13.5C1 14.3284 1.67157 15 2.5 15H5.5C6.32843 15 7 14.3284 7 13.5V10.5C7 9.67157 6.32843 9 5.5 9H2.5ZM5.5 8C6.88071 8 8 9.11929 8 10.5V13.5C8 14.8807 6.88071 16 5.5 16H2.5C1.11929 16 0 14.8807 0 13.5V10.5C0 9.11929 1.11929 8 2.5 8H5.5ZM15 2.5C15 1.67157 14.3284 1 13.5 1H11.5C10.6716 1 10 1.67157 10 2.5V4.5C10 5.32843 10.6716 6 11.5 6H13.5C14.3284 6 15 5.32843 15 4.5V2.5ZM9 2.5C9 1.11929 10.1193 0 11.5 0H13.5C14.8807 0 16 1.11929 16 2.5V4.5C16 5.88071 14.8807 7 13.5 7H11.5C10.1193 7 9 5.88071 9 4.5V2.5ZM11.5 9C10.6716 9 10 9.67157 10 10.5V12.5C10 13.3284 10.6716 14 11.5 14H13.5C14.3284 14 15 13.3284 15 12.5V10.5C15 9.67157 14.3284 9 13.5 9H11.5ZM13.5 8C14.8807 8 16 9.11929 16 10.5V12.5C16 13.8807 14.8807 15 13.5 15H11.5C10.1193 15 9 13.8807 9 12.5V10.5C9 9.11929 10.1193 8 11.5 8H13.5Z" fill="black"/>
</svg>
