<!--
 * Copyright (c) 2020, WSO2 Inc. (http://www.wso2.org) All Rights Reserved.
 *
 * WSO2 Inc. licenses this file to you under the Apache License,
 * Version 2.0 (the "License"); you may not use this file except
 * in compliance with the License.
 * You may obtain a copy of the License at
 *
 *     http://www.apache.org/licenses/LICENSE-2.0
 *
 * Unless required by applicable law or agreed to in writing,
 * software distributed under the License is distributed on an
 * "AS IS" BASIS, WITHOUT WARRANTIES OR CONDITIONS OF ANY
 * KIND, either express or implied. See the License for the
 * specific language governing permissions and limitations
 * under the License.
-->

<svg xmlns="http://www.w3.org/2000/svg" class="icon" width="14" height="14" viewBox="0 0 14 14">
    <path id="application-window-outline" class="path fill primary"
          d="M2,14a1,1,0,0,1-1-1V2A1,1,0,0,1,2,1H13a1,1,0,0,1,1,1V13a1,1,0,0,1-1,1Zm-.4-1.1a.5.5,0,0,0,.5.5H12.9a.5.5,0,0,0,.5-.5V3.6H1.6ZM13.4,3V2.1a.5.5,0,0,0-.5-.5H2.1a.5.5,0,0,0-.5.5V3ZM.657,11.939A1,1,0,0,1,0,11V1A1,1,0,0,1,1,0H12a1,1,0,0,1,.941.66A1.007,1.007,0,0,0,12.6.6H1.1a.5.5,0,0,0-.5.5V11.6a1.01,1.01,0,0,0,.058.338v0ZM2,4.75v-.5H4v.5ZM5,2.5V2h7.533v.5Zm-1,0V2h.5v.5Zm-1,0V2h.5v.5Zm-1,0V2h.5v.5Z"
          fill="#464646"/>
</svg>
