<!--
 * Copyright (c) 2020, WSO2 Inc. (http://www.wso2.org) All Rights Reserved.
 *
 * WSO2 Inc. licenses this file to you under the Apache License,
 * Version 2.0 (the "License"); you may not use this file except
 * in compliance with the License.
 * You may obtain a copy of the License at
 *
 *     http://www.apache.org/licenses/LICENSE-2.0
 *
 * Unless required by applicable law or agreed to in writing,
 * software distributed under the License is distributed on an
 * "AS IS" BASIS, WITHOUT WARRANTIES OR CONDITIONS OF ANY
 * KIND, either express or implied. See the License for the
 * specific language governing permissions and limitations
 * under the License.
-->

<svg xmlns="http://www.w3.org/2000/svg" class="icon" width="14" height="14" viewBox="0 0 80 80">
  <g id="discovery" transform="translate(0 -2.031)">
    <path id="Path_344" data-name="Path 344" d="M141.775,120.961A18.587,18.587,0,0,0,128.49,126.5a19.068,19.068,0,0,0,0,26.784,18.7,18.7,0,0,0,26.572,0,19.068,19.068,0,0,0,0-26.784,18.587,18.587,0,0,0-13.286-5.539ZM153.4,151.614a16.372,16.372,0,0,1-23.257,0c-10.34-10.423-2.953-28.29,11.629-28.29S163.742,141.193,153.4,151.614Z" transform="translate(-103.777 -100.199)"/>
    <path id="Path_345" data-name="Path 345" d="M78.267,71.852l-.907-.914a1.165,1.165,0,0,0-1.657,0,1.188,1.188,0,0,0,0,1.67l.907.914a3.621,3.621,0,0,1,0,5.092,3.552,3.552,0,0,1-5.052,0L56.435,63.37l5.052-5.092L71.836,68.71a1.165,1.165,0,0,0,1.657,0,1.188,1.188,0,0,0,0-1.67L62.911,56.373a2,2,0,0,0-2-.511L59.166,54.1a25.94,25.94,0,0,0-.358-29.334V6.213a4.17,4.17,0,0,0-4.149-4.182H4.149A4.17,4.17,0,0,0,0,6.213V53.9a1.172,1.172,0,1,0,2.344,0V6.213a1.814,1.814,0,0,1,1.8-1.819H54.659a1.814,1.814,0,0,1,1.805,1.819v15.7A25.291,25.291,0,0,0,38,13.953h0a25.741,25.741,0,0,0,.025,51.48,25.182,25.182,0,0,0,14.269-4.4l1.747,1.761a2.192,2.192,0,0,0-.082.578h0a2.026,2.026,0,0,0,.59,1.436l1.919,1.934V74a1.814,1.814,0,0,1-1.8,1.819H4.149A1.814,1.814,0,0,1,2.344,74v-14.6a1.172,1.172,0,1,0-2.344,0V74a4.17,4.17,0,0,0,4.149,4.182H54.659A4.17,4.17,0,0,0,58.808,74V69.1L69.9,80.285a5.882,5.882,0,0,0,8.366,0,6,6,0,0,0,0-8.433ZM59.084,57.359l-3.561,3.589L54.187,59.6a26.115,26.115,0,0,0,3.561-3.588ZM51.86,58.437A23.091,23.091,0,0,1,22.5,57.087c-15.88-14.41-5.59-40.76,15.5-40.76A23.409,23.409,0,0,1,51.86,58.437Z" transform="translate(0 0)"/>
    <path id="Path_346" data-name="Path 346" d="M211.239,205.927a5.964,5.964,0,1,0,5.917,5.964A5.947,5.947,0,0,0,211.239,205.927Zm0,9.565a3.6,3.6,0,1,1,3.573-3.6A3.591,3.591,0,0,1,211.239,215.492Z" transform="translate(-173.24 -171.782)"/>
    <path id="Path_347" data-name="Path 347" d="M180.441,167.09q-.135-.363-.295-.715l.836-.843a2.143,2.143,0,0,0,0-3.011l-2.41-2.429a2.1,2.1,0,0,0-2.987,0l-.837.843q-.35-.161-.71-.3v-1.192a2.123,2.123,0,0,0-2.112-2.129H168.52a2.123,2.123,0,0,0-2.112,2.129v1.192q-.36.136-.71.3l-.836-.843a2.1,2.1,0,0,0-2.987,0l-2.41,2.429a2.143,2.143,0,0,0,0,3.011l.836.843q-.16.352-.295.715h-1.182a2.123,2.123,0,0,0-2.112,2.129v3.436a2.123,2.123,0,0,0,2.112,2.129h1.182q.135.363.295.716l-.836.843a2.139,2.139,0,0,0,0,3.011l2.41,2.429a2.1,2.1,0,0,0,2.987,0l.837-.843q.35.161.71.3v1.192a2.123,2.123,0,0,0,2.112,2.129h3.408a2.123,2.123,0,0,0,2.112-2.129v-1.192q.36-.136.71-.3l.836.843a2.1,2.1,0,0,0,2.987,0l2.41-2.429a2.14,2.14,0,0,0,0-3.011l-.836-.843q.16-.352.295-.716h1.182a2.123,2.123,0,0,0,2.112-2.129v-3.436a2.123,2.123,0,0,0-2.112-2.129Zm.951,5.331h-1.8a1.173,1.173,0,0,0-1.128.861,8.616,8.616,0,0,1-.769,1.869,1.188,1.188,0,0,0,.193,1.413l1.273,1.283-2.082,2.1-1.273-1.283a1.165,1.165,0,0,0-1.4-.195,8.468,8.468,0,0,1-1.854.775,1.18,1.18,0,0,0-.854,1.137v1.813h-2.945v-1.813a1.18,1.18,0,0,0-.854-1.137,8.468,8.468,0,0,1-1.854-.775,1.165,1.165,0,0,0-1.4.195l-1.273,1.283-2.082-2.1,1.273-1.283a1.188,1.188,0,0,0,.193-1.413,8.617,8.617,0,0,1-.769-1.869,1.173,1.173,0,0,0-1.128-.861h-1.8v-2.968h1.8a1.173,1.173,0,0,0,1.128-.861,8.617,8.617,0,0,1,.769-1.869,1.188,1.188,0,0,0-.193-1.413l-1.273-1.283,2.082-2.1,1.273,1.283a1.165,1.165,0,0,0,1.4.195,8.475,8.475,0,0,1,1.854-.775,1.18,1.18,0,0,0,.854-1.137v-1.814H171.7v1.814a1.18,1.18,0,0,0,.854,1.137,8.475,8.475,0,0,1,1.854.775,1.165,1.165,0,0,0,1.4-.195l1.273-1.283,2.082,2.1-1.273,1.283a1.188,1.188,0,0,0-.193,1.413,8.622,8.622,0,0,1,.769,1.869,1.173,1.173,0,0,0,1.128.861h1.8v2.968Z" transform="translate(-132.226 -130.828)"/>
  </g>
</svg>
