<!--
 * Copyright (c) 2023, WSO2 Inc. (http://www.wso2.org) All Rights Reserved.
 *
 * WSO2 Inc. licenses this file to you under the Apache License,
 * Version 2.0 (the "License"); you may not use this file except
 * in compliance with the License.
 * You may obtain a copy of the License at
 *
 *     http://www.apache.org/licenses/LICENSE-2.0
 *
 * Unless required by applicable law or agreed to in writing,
 * software distributed under the License is distributed on an
 * "AS IS" BASIS, WITHOUT WARRANTIES OR CONDITIONS OF ANY
 * KIND, either express or implied. See the License for the
 * specific language governing permissions and limitations
 * under the License.
-->

<svg width="18" height="18" xmlns="http://www.w3.org/2000/svg" clip-rule="evenodd" fill-rule="evenodd" image-rendering="optimizeQuality" text-rendering="geometricPrecision" shape-rendering="geometricPrecision" viewBox="0 0 20 20" >
 <g>
  <g stroke="null" id="svg_3">
   <path stroke="null" fill="#464646" id="svg_1" d="m6.37133,15.65313l0,0.36942c0,0.2745 -0.18495,0.49989 -0.4098,0.49989l-1.82835,0c-0.22523,0 -0.41018,-0.22493 -0.41018,-0.49989l0,-0.36942l-1.64072,0c-0.59589,0 -1.06401,-0.20576 -1.39477,-0.60885c-0.33037,-0.40263 -0.49997,-0.97219 -0.49997,-1.69982l0,-9.13693c0,-0.72809 0.16845,-1.29813 0.4992,-1.70075c0.33037,-0.40309 0.79811,-0.60838 1.39553,-0.60838l14.04897,0c0.59743,0 1.06478,0.20669 1.39515,0.60932c0.33075,0.40309 0.49958,0.9736 0.49958,1.69982l0,4.25586c-0.30696,-0.15993 -0.63235,-0.27824 -0.97077,-0.34932l0,-3.90654c0,-0.40029 -0.0729,-0.69021 -0.21526,-0.8637c-0.14197,-0.17302 -0.37948,-0.26234 -0.7087,-0.26234l-14.04897,0c-0.3296,0 -0.5675,0.08885 -0.70947,0.2614c-0.14159,0.17302 -0.21449,0.46295 -0.21449,0.86464l0,9.13693c0,0.40122 0.07329,0.69021 0.21526,0.86324c0.14235,0.17349 0.38025,0.26234 0.7087,0.26234l9.93872,0c0.07137,0.41432 0.18188,0.81086 0.32653,1.18309l-5.9762,0zm3.74112,-4.21658c-0.15732,0 -0.28509,-0.20763 -0.28509,-0.46388c0,-0.25626 0.12777,-0.46435 0.28509,-0.46435l2.49907,0c-0.15233,0.2918 -0.28202,0.6023 -0.38639,0.92824l-2.11268,0zm0,-2.5378c-0.15732,0 -0.28509,-0.20809 -0.28509,-0.46435c0,-0.25626 0.12777,-0.46388 0.28509,-0.46388l4.87996,0c0.10398,0 0.19531,0.09072 0.24519,0.22586a4.36169,5.31563 0 0 0 -1.31841,0.70237l-3.80674,0zm0,-2.53874c-0.15732,0 -0.28509,-0.20763 -0.28509,-0.46388c0,-0.25626 0.12777,-0.46388 0.28509,-0.46388l4.97627,0c0.1577,0 0.28548,0.20763 0.28548,0.46388c0,0.25626 -0.12777,0.46388 -0.28548,0.46388l-4.97627,0zm-4.53769,5.37722l-3.37315,0c0.04297,-0.20201 0.10283,-0.39421 0.20835,-0.56489c0.09132,-0.14637 0.20413,-0.25439 0.3296,-0.33996c0.38639,-0.26281 1.41012,-0.34417 1.79305,-0.715c0.05794,-0.15245 0.11665,-0.36942 0.15348,-0.50644c0.00192,-0.00701 -0.00307,0.01169 0.01573,-0.05658c0.01573,-0.05752 -0.00921,-0.13561 -0.05103,-0.21978c-0.07099,-0.14169 -0.19032,-0.30068 -0.24365,-0.40356l-0.31349,-0.60791c-0.11473,-0.20856 -0.17459,-0.39935 -0.17804,-0.55554c-0.00192,-0.07388 0.00844,-0.14076 0.0307,-0.19874c0.02341,-0.06173 0.05947,-0.11317 0.10782,-0.15291c0.02264,-0.01871 0.04796,-0.0346 0.07597,-0.0477c-0.02034,-0.32968 -0.02801,-0.74493 -0.01496,-1.09284c0.00691,-0.08277 0.01995,-0.16507 0.03875,-0.24784c0.11511,-0.50036 0.46774,-0.86043 0.87063,-1.03018c0.19569,-0.0823 0.1201,-0.2787 0.31771,-0.26514c0.07214,0.00468 0.15041,0.0173 0.23253,0.03694c0.44088,0.18378 0.28778,0.11784 0.54985,0.2282c0.40289,0.16975 0.7559,0.52982 0.87063,1.03018c0.0188,0.08277 0.03185,0.16507 0.03875,0.24784c0.01305,0.34791 0.00537,0.76316 -0.01496,1.09284c0.02801,0.01309 0.05333,0.02899 0.07636,0.0477c0.04796,0.03975 0.08403,0.09119 0.10744,0.15291c0.02225,0.05799 0.03261,0.12486 0.03108,0.19874c-0.00384,0.15619 -0.0637,0.34698 -0.17804,0.55554l-0.31387,0.60791c-0.05295,0.10288 -0.17267,0.26187 -0.24365,0.40356c-0.04182,0.08417 -0.06676,0.16227 -0.05065,0.21978c0.01842,0.06827 0.01343,0.04957 0.01535,0.05658c0.03722,0.13701 0.09593,0.35399 0.15348,0.50644c0.38332,0.37083 1.40666,0.45219 1.79305,0.715c0.12547,0.08558 0.23866,0.1936 0.3296,0.33996c0.1059,0.17068 0.16576,0.36288 0.20835,0.56489l-3.37277,0z"/>
   <path stroke="null" id="svg_2" d="m16.3066,9.15314c1.89051,0 3.42303,1.86816 3.42303,4.17215c0,2.30399 -1.53252,4.17215 -3.42303,4.17215c-1.89051,0 -3.42341,-1.86816 -3.42341,-4.17215c0,-2.30399 1.5329,-4.17215 3.42341,-4.17215zm-0.97845,3.56845l0.518,0.59061l1.35448,-1.67457c0.11895,-0.1473 0.19339,-0.26514 0.33996,-0.0809l0.47541,0.59388c0.15617,0.18799 0.14849,0.29788 0.00115,0.47324l-1.89934,2.27593c-0.3108,0.37083 -0.25631,0.39327 -0.57134,0.01263l-1.01874,-1.2336c-0.06561,-0.08651 -0.05871,-0.17396 0.01343,-0.26047l0.55177,-0.6977c0.08365,-0.10755 0.15041,-0.0982 0.23521,0.00094z" fill="#464646"/>
  </g>
 </g>
</svg>
