<!--
 * Copyright (c) 2020, WSO2 Inc. (http://www.wso2.org) All Rights Reserved.
 *
 * WSO2 Inc. licenses this file to you under the Apache License,
 * Version 2.0 (the "License"); you may not use this file except
 * in compliance with the License.
 * You may obtain a copy of the License at
 *
 *     http://www.apache.org/licenses/LICENSE-2.0
 *
 * Unless required by applicable law or agreed to in writing,
 * software distributed under the License is distributed on an
 * "AS IS" BASIS, WITHOUT WARRANTIES OR CONDITIONS OF ANY
 * KIND, either express or implied. See the License for the
 * specific language governing permissions and limitations
 * under the License.
-->

<svg xmlns="http://www.w3.org/2000/svg" class="icon" width="14" height="14" viewBox="0 0 14 14">
    <path id="key-outline" class="path fill primary"
          d="M.292,14A.292.292,0,0,1,0,13.708V11.375a.291.291,0,0,1,.086-.206l1.081-1.082V9.625a.292.292,0,0,1,.292-.292h.463l.413-.412V8.458a.292.292,0,0,1,.292-.292h.463L3.5,7.754V7.292A.292.292,0,0,1,3.792,7h.463l.292-.292-.377-.377a.291.291,0,0,1,.076-.467L4.766,5.6a4.606,4.606,0,0,1-.1-.937A4.667,4.667,0,1,1,8.4,9.234l-.26.521a.292.292,0,0,1-.467.076l-.377-.377-4.46,4.46A.3.3,0,0,1,2.625,14ZM1.75,10.209a.294.294,0,0,1-.085.206L.583,11.5v1.921H2.5L7.086,8.835a.292.292,0,0,1,.412,0l.3.3.183-.365a.292.292,0,0,1,.334-.152A4.081,4.081,0,1,0,5.25,4.667a4.116,4.116,0,0,0,.135,1.022.293.293,0,0,1-.152.334L4.867,6.2l.3.3a.291.291,0,0,1,0,.412L4.581,7.5a.291.291,0,0,1-.206.086H4.083v.292A.291.291,0,0,1,4,8.081l-.583.583a.291.291,0,0,1-.206.086H2.917v.292a.289.289,0,0,1-.086.206l-.583.584a.294.294,0,0,1-.206.085H1.75Zm.086,1.956a.292.292,0,0,1,0-.412L5.918,7.669a.291.291,0,0,1,.412.412L2.247,12.164a.291.291,0,0,1-.412,0Zm7.5-8.956a1.458,1.458,0,1,1,1.458,1.458A1.46,1.46,0,0,1,9.333,3.209Zm.583,0a.875.875,0,1,0,.875-.875A.876.876,0,0,0,9.916,3.209Z"
          fill="#464646"/>
</svg>
