<!--
 * Copyright (c) 2020, WSO2 Inc. (http://www.wso2.org) All Rights Reserved.
 *
 * WSO2 Inc. licenses this file to you under the Apache License,
 * Version 2.0 (the "License"); you may not use this file except
 * in compliance with the License.
 * You may obtain a copy of the License at
 *
 *     http://www.apache.org/licenses/LICENSE-2.0
 *
 * Unless required by applicable law or agreed to in writing,
 * software distributed under the License is distributed on an
 * "AS IS" BASIS, WITHOUT WARRANTIES OR CONDITIONS OF ANY
 * KIND, either express or implied. See the License for the
 * specific language governing permissions and limitations
 * under the License.
-->

<svg id="login-attempts-outline" class="icon" width="16" height="16" viewBox="0 0 16 16" fill="none" xmlns="http://www.w3.org/2000/svg">
<path fill-rule="evenodd" clip-rule="evenodd" d="M2.5 6.72448V3.1868L8 1.07141L13.5 3.1868V6.8662C13.5 9.63884 13.2099 12.1533 11.5356 13.6406C10.677 14.4033 9.53055 15 8 15C6.2753 15 5.02177 14.1471 4.11489 13.1038C2.74052 11.5228 2.5 9.23433 2.5 6.72448ZM1.5 6.72448V2.5L8 0L14.5 2.5V6.8662C14.5 9.60348 14.2462 12.5704 12.1997 14.3883C11.1947 15.281 9.82023 16 8 16C5.89818 16 4.39075 14.9454 3.36017 13.7599C1.71819 11.8709 1.5 9.2273 1.5 6.72448ZM11.3763 5.82925C11.5581 5.62143 11.5371 5.30555 11.3293 5.12371C11.1214 4.94187 10.8056 4.96293 10.6237 5.17075L7.47565 8.76854L5.85355 7.14645C5.65829 6.95118 5.34171 6.95118 5.14645 7.14645C4.95118 7.34171 4.95118 7.65829 5.14645 7.85355L7.14645 9.85355L7.52435 10.2315L7.87629 9.82925L11.3763 5.82925Z" fill="black"/>
</svg>
