<!--
 * Copyright (c) 2020, WSO2 Inc. (http://www.wso2.org) All Rights Reserved.
 *
 * WSO2 Inc. licenses this file to you under the Apache License,
 * Version 2.0 (the "License"); you may not use this file except
 * in compliance with the License.
 * You may obtain a copy of the License at
 *
 *     http://www.apache.org/licenses/LICENSE-2.0
 *
 * Unless required by applicable law or agreed to in writing,
 * software distributed under the License is distributed on an
 * "AS IS" BASIS, WITHOUT WARRANTIES OR CONDITIONS OF ANY
 * KIND, either express or implied. See the License for the
 * specific language governing permissions and limitations
 * under the License.
-->

<svg id="onboarding-outline" class="icon" width="24" height="24" viewBox="0 0 24 24" fill="none" xmlns="http://www.w3.org/2000/svg">
<path fill-rule="evenodd" clip-rule="evenodd" d="M19.5 3C19.5 1.34315 18.1569 0 16.5 0H3C1.34315 0 0 1.34315 0 3V21C0 22.6569 1.34315 24 3 24H8.58535C8.53008 23.8436 8.5 23.6753 8.5 23.5C8.5 23.1158 8.64443 22.7654 8.88195 22.5H3L2.82507 22.4899C2.07906 22.4033 1.5 21.7693 1.5 21V3L1.51009 2.82507C1.59674 2.07906 2.23075 1.5 3 1.5H16.5L16.6749 1.51009C17.4209 1.59674 18 2.23075 18 3V10.8787L19.5 9.37869V3ZM4.5 6.75C4.5 6.33579 4.83579 6 5.25 6H11.25C11.6642 6 12 6.33579 12 6.75C12 7.16421 11.6642 7.5 11.25 7.5H5.25C4.83579 7.5 4.5 7.16421 4.5 6.75ZM5.25 10.5C4.83579 10.5 4.5 10.8358 4.5 11.25C4.5 11.6642 4.83579 12 5.25 12H6.75C7.16421 12 7.5 11.6642 7.5 11.25C7.5 10.8358 7.16421 10.5 6.75 10.5H5.25ZM4.5 15.75C4.5 15.3358 4.83579 15 5.25 15C5.66421 15 6 15.3358 6 15.75C6 16.1642 5.66421 16.5 5.25 16.5C4.83579 16.5 4.5 16.1642 4.5 15.75ZM21.6436 11.4749L22.3507 12.182C22.5459 12.3772 22.5459 12.6938 22.3507 12.8891L13.4625 21.7773L11.624 22.2015L12.0483 20.3631L20.9364 11.4749C21.1317 11.2796 21.4483 11.2796 21.6436 11.4749ZM23.4113 13.9497L14.2189 23.1421L11.1818 23.843C10.4617 24.0092 9.81634 23.3638 9.98251 22.6438L10.6834 19.6066L19.8758 10.4142C20.6568 9.63317 21.9232 9.63317 22.7042 10.4142L23.4113 11.1213C24.1924 11.9024 24.1924 13.1687 23.4113 13.9497Z" fill="black"/>
</svg>
