<!--
 * Copyright (c) 2023, WSO2 LLC. (https://www.wso2.com).
 *
 * WSO2 LLC. licenses this file to you under the Apache License,
 * Version 2.0 (the "License"); you may not use this file except
 * in compliance with the License.
 * You may obtain a copy of the License at
 *
 *     http://www.apache.org/licenses/LICENSE-2.0
 *
 * Unless required by applicable law or agreed to in writing,
 * software distributed under the License is distributed on an
 * "AS IS" BASIS, WITHOUT WARRANTIES OR CONDITIONS OF ANY
 * KIND, either express or implied. See the License for the
 * specific language governing permissions and limitations
 * under the License.
-->

<svg width="16" height="16" viewBox="0 0 16 16" fill="none" xmlns="http://www.w3.org/2000/svg">
<path fill-rule="evenodd" clip-rule="evenodd" d="M11.5 13.1875C12.432 13.1875 13.1875 12.432 13.1875 11.5C13.1875 10.568 12.432 9.8125 11.5 9.8125C10.568 9.8125 9.8125 10.568 9.8125 11.5C9.8125 12.432 10.568 13.1875 11.5 13.1875ZM11.5 12.3693C11.9801 12.3693 12.3693 11.9801 12.3693 11.5C12.3693 11.0199 11.9801 10.6307 11.5 10.6307C11.0199 10.6307 10.6307 11.0199 10.6307 11.5C10.6307 11.9801 11.0199 12.3693 11.5 12.3693Z" fill="black"/>
<path fill-rule="evenodd" clip-rule="evenodd" d="M12.5532 7.91723V7.67L12.5501 7.60901C12.5096 7.25598 12.2241 7 11.883 7H11.117L11.0558 7.00305L10.9979 7.01204C10.6751 7.07547 10.4468 7.34805 10.4468 7.67021V7.91723L10.3657 7.94145C10.1653 8.00526 9.97118 8.08586 9.78502 8.18227L9.71187 8.22208L9.53657 8.04713L9.48759 8.00315C9.20825 7.78525 8.82847 7.80757 8.58883 8.04721L8.04721 8.58883L8.00315 8.63789L7.96719 8.68818C7.78862 8.96142 7.82166 9.3111 8.04721 9.53665L8.22208 9.71149L8.18232 9.78493C8.08594 9.97102 8.00535 10.1651 7.94155 10.3654L7.91723 10.4464L7.67 10.4468C7.30006 10.4468 7 10.7469 7 11.117V11.883L7.00222 11.9379C7.03018 12.2824 7.31857 12.5532 7.67021 12.5532L7.91723 12.5528L7.94145 12.6343C8.00526 12.8347 8.08586 13.0288 8.18227 13.215L8.22208 13.2877L8.04713 13.4634C7.78548 13.7251 7.78548 14.1494 8.04721 14.4112L8.58883 14.9528L8.63664 14.9963C8.89992 15.2136 9.29031 15.1991 9.53665 14.9528L9.71149 14.7775L9.78493 14.8177C9.97102 14.9141 10.1651 14.9947 10.3654 15.0584L10.4464 15.0824L10.4468 15.33C10.4468 15.6999 10.7469 16 11.117 16H11.883L11.9379 15.9978C12.2824 15.9698 12.5532 15.6814 12.5532 15.3298L12.5528 15.0824L12.6343 15.0585C12.8347 14.9947 13.0288 14.9141 13.215 14.8177L13.2877 14.7775L13.4634 14.9529C13.7251 15.2145 14.1494 15.2145 14.4112 14.9528L14.9528 14.4112L14.9963 14.3634C15.2136 14.1001 15.1991 13.7097 14.9528 13.4634L14.7775 13.2877L14.8177 13.215C14.9141 13.0288 14.9947 12.8347 15.0585 12.6343L15.0824 12.5528L15.3298 12.5532L15.391 12.5501C15.744 12.5096 16 12.2241 16 11.883V11.117L15.9969 11.0558L15.988 10.9979C15.9245 10.6751 15.6519 10.4468 15.3298 10.4468L15.0824 10.4464L15.0584 10.3654C14.9947 10.1651 14.9141 9.97102 14.8177 9.78493L14.7775 9.71149L14.9529 9.53657L14.9968 9.48759C15.2148 9.20825 15.1924 8.82847 14.9528 8.58883L14.4112 8.04721L14.3621 8.00315L14.3118 7.96719C14.0386 7.78862 13.6889 7.82166 13.4634 8.04721L13.2881 8.22208L13.2151 8.18232C13.029 8.08594 12.8349 8.00535 12.6346 7.94155L12.5532 7.91723ZM12.393 8.72326L11.735 8.52685V7.81818H11.265V8.52689L10.6073 8.72319C10.4561 8.77176 10.3093 8.83265 10.1683 8.90519L9.56635 9.23278L9.06284 8.73028L8.73039 9.06273L9.23214 9.56438L8.90561 10.1675C8.83285 10.3088 8.77179 10.4559 8.72312 10.6075L8.52631 11.2637L7.81818 11.2648V11.7348L8.52743 11.7337L8.72334 12.3932C8.7718 12.544 8.83251 12.6903 8.9048 12.831L9.23344 13.4317L8.73017 13.937L9.06261 14.2695L9.56557 13.7653L10.1688 14.0951C10.3092 14.1673 10.4554 14.2279 10.6059 14.2764L11.2637 14.4706L11.2648 15.1818H11.7348L11.7337 14.4694L12.3948 14.2761C12.5445 14.2279 12.6899 14.1676 12.8296 14.0959L13.4304 13.764L13.9372 14.2697L14.2697 13.9372L13.764 13.4304L14.0959 12.8296C14.1676 12.6899 14.2279 12.5445 14.2761 12.3948L14.4694 11.7337L15.1818 11.7348V11.2648L14.4706 11.2637L14.2764 10.6059C14.2279 10.4554 14.1673 10.3092 14.0951 10.1688L13.7653 9.56558L14.2695 9.06261L13.9372 8.73028L13.4336 9.23279L12.8318 8.90523C12.6908 8.83271 12.5441 8.77183 12.393 8.72326Z" fill="black"/>
<path fill-rule="evenodd" clip-rule="evenodd" d="M3.5 0C2.11929 0 1 1.11929 1 2.5V13.5C1 14.8807 2.11929 16 3.5 16H6C6.27614 16 6.5 15.7761 6.5 15.5C6.5 15.2239 6.27614 15 6 15H3.5C2.67157 15 2 14.3284 2 13.5V2.5C2 1.67157 2.67157 1 3.5 1H10.5C11.3284 1 12 1.67157 12 2.5V5C12 5.27614 12.2239 5.5 12.5 5.5C12.7761 5.5 13 5.27614 13 5V2.5C13 1.11929 11.8807 0 10.5 0H3.5ZM4.5 3.5C4.22386 3.5 4 3.72386 4 4C4 4.27614 4.22386 4.5 4.5 4.5H9.5C9.77614 4.5 10 4.27614 10 4C10 3.72386 9.77614 3.5 9.5 3.5H4.5ZM4 7C4 6.72386 4.22386 6.5 4.5 6.5H7.5C7.77614 6.5 8 6.72386 8 7C8 7.27614 7.77614 7.5 7.5 7.5H4.5C4.22386 7.5 4 7.27614 4 7ZM4.5 9.5C4.22386 9.5 4 9.72386 4 10C4 10.2761 4.22386 10.5 4.5 10.5H5.5C5.77614 10.5 6 10.2761 6 10C6 9.72386 5.77614 9.5 5.5 9.5H4.5Z" fill="black"/>
</svg>
