<?xml version="1.0" encoding="utf-8"?>
<!--
 * Copyright (c) 2021, WSO2 Inc. (http://www.wso2.org) All Rights Reserved.
 *
 * WSO2 Inc. licenses this file to you under the Apache License,
 * Version 2.0 (the "License"); you may not use this file except
 * in compliance with the License.
 * You may obtain a copy of the License at
 *
 *     http://www.apache.org/licenses/LICENSE-2.0
 *
 * Unless required by applicable law or agreed to in writing,
 * software distributed under the License is distributed on an
 * "AS IS" BASIS, WITHOUT WARRANTIES OR CONDITIONS OF ANY
 * KIND, either express or implied. See the License for the
 * specific language governing permissions and limitations
 * under the License.
-->

<svg id="revoke-icon" class="icon"  width="16" height="16" viewBox="0 0 16 16" fill="none" xmlns="http://www.w3.org/2000/svg">
    <path
        d="M10.9997 10.4753C13.5264 10.2245 15.4997 8.09267 15.4997 5.5C15.4997 2.73858 13.2612 0.5 10.4997 0.5C7.90705 0.5 5.77528 2.47334 5.52441 5"
        stroke="black" stroke-linecap="round" />
    <circle cx="11" cy="5" r="1.5" stroke="black" />
    <path
        d="M5 12.9997V14.4584C5 14.4849 4.98946 14.5104 4.97071 14.5291L4.02929 15.4705C4.01054 15.4893 3.9851 15.4998 3.95858 15.4998H0.6C0.544772 15.4998 0.5 15.4551 0.5 15.3998V13.0411C0.5 13.0146 0.510537 12.9891 0.529293 12.9704L4 9.5"
        stroke="black" stroke-linecap="round" />
    <path d="M2 5.5L4 7.5H6.5V9.5L7.5 10.5V12.5H10L11 13.5" stroke="black" stroke-linecap="round" />
</svg>
