<svg width="16" height="16" viewBox="0 0 16 16" fill="none" xmlns="http://www.w3.org/2000/svg">
<path d="M11.4951 0.0146484C12.8757 0.0146484 13.9949 1.13414 13.9951 2.51465V8.49902C13.9949 8.77495 13.7711 8.99902 13.4951 8.99902C13.2193 8.99877 12.9954 8.7748 12.9951 8.49902V2.51465C12.9949 1.68642 12.3234 1.01465 11.4951 1.01465H2.50391C1.67582 1.01488 1.00415 1.68657 1.00391 2.51465V13.4844C1.00391 14.3127 1.67568 14.9841 2.50391 14.9844H7.58984C7.86581 14.9844 8.08955 15.2085 8.08984 15.4844C8.08984 15.7605 7.86599 15.9844 7.58984 15.9844H2.50391C1.12339 15.9841 0.00390625 14.8649 0.00390625 13.4844V2.51465C0.0041453 1.13428 1.12354 0.0148792 2.50391 0.0146484H11.4951ZM14.1172 10.8789C14.2947 10.6674 14.6098 10.6399 14.8213 10.8174C15.0327 10.9949 15.0603 11.31 14.8828 11.5215L11.5254 15.5215L11.2314 15.8721L10.8564 15.6094L8.71289 14.1094C8.48709 13.9509 8.43268 13.6391 8.59082 13.4131C8.74928 13.1872 9.06104 13.1328 9.28711 13.291L11.0537 14.5273L14.1172 10.8789ZM7.16992 12.4004C7.44591 12.4006 7.66992 12.6244 7.66992 12.9004C7.66971 13.1762 7.44578 13.4002 7.16992 13.4004H4C3.72399 13.4004 3.50021 13.1764 3.5 12.9004C3.5 12.6242 3.72386 12.4004 4 12.4004H7.16992ZM10 10.4004C10.2761 10.4004 10.5 10.6242 10.5 10.9004C10.4998 11.1764 10.276 11.4004 10 11.4004H4C3.72399 11.4004 3.50021 11.1764 3.5 10.9004C3.5 10.6242 3.72386 10.4004 4 10.4004H10ZM6.97168 5.41113C8.76155 5.4112 10.3623 6.47631 10.6318 8.19238C10.723 8.77617 10.2338 9.1852 9.75293 9.18555H4.19141C3.71022 9.18556 3.22026 8.77656 3.31152 8.19238L3.34082 8.0332C3.68134 6.41047 5.23784 5.41126 6.97168 5.41113ZM6.97168 6.41113C5.60997 6.41126 4.58184 7.16056 4.33398 8.18555H9.60938C9.36153 7.16047 8.33338 6.41119 6.97168 6.41113ZM7.12598 2.00781C7.88495 2.08915 8.47754 2.76514 8.47754 3.58594L8.46973 3.74805C8.39246 4.54698 7.75153 5.17039 6.97266 5.1709L6.81836 5.16309C6.10997 5.08736 5.54677 4.49403 5.47461 3.74805L5.4668 3.58594C5.4668 2.7103 6.14123 2 6.97266 2L7.12598 2.00781ZM6.97266 3C6.7417 3 6.4668 3.21313 6.4668 3.58594C6.46702 3.95846 6.7418 4.1709 6.97266 4.1709C7.20331 4.17032 7.47731 3.95795 7.47754 3.58594C7.47754 3.21365 7.20341 3.00058 6.97266 3Z" fill="black"/>
</svg>
