<?xml version="1.0" encoding="iso-8859-1"?>

<!--
 * Copyright (c) 2019, WSO2 Inc. (http://www.wso2.org) All Rights Reserved.
 *
 * WSO2 Inc. licenses this file to you under the Apache License,
 * Version 2.0 (the "License"); you may not use this file except
 * in compliance with the License.
 * You may obtain a copy of the License at
 *
 * http://www.apache.org/licenses/LICENSE-2.0
 *
 * Unless required by applicable law or agreed to in writing,
 * software distributed under the License is distributed on an
 * "AS IS" BASIS, WITHOUT WARRANTIES OR CONDITIONS OF ANY
 * KIND, either express or implied. See the License for the
 * specific language governing permissions and limitations
 * under the License.
-->

<svg id="login-error" class="icon" height="200px" viewBox="0 0 512 512" width="512pt" xmlns="http://www.w3.org/2000/svg">
    <path d="m256 0c-141.152344 0-256 114.847656-256 256s114.847656 256 256 256 256-114.847656 256-256-114.847656-256-256-256zm-192 256c0-105.871094 86.128906-192 192-192 41.40625 0 79.679688 13.296875 111.070312 35.679688l-267.390624 267.390624c-22.382813-31.390624-35.679688-69.679687-35.679688-111.070312zm192 192c-41.40625 0-79.679688-13.296875-111.070312-35.679688l267.390624-267.390624c22.382813 31.390624 35.679688 69.679687 35.679688 111.070312 0 105.871094-86.128906 192-192 192zm0 0" fill="#e76e54"/>
</svg>
