<!--
 * Copyright (c) 2020, WSO2 Inc. (http://www.wso2.org) All Rights Reserved.
 *
 * WSO2 Inc. licenses this file to you under the Apache License,
 * Version 2.0 (the "License"); you may not use this file except
 * in compliance with the License.
 * You may obtain a copy of the License at
 *
 *     http://www.apache.org/licenses/LICENSE-2.0
 *
 * Unless required by applicable law or agreed to in writing,
 * software distributed under the License is distributed on an
 * "AS IS" BASIS, WITHOUT WARRANTIES OR CONDITIONS OF ANY
 * KIND, either express or implied. See the License for the
 * specific language governing permissions and limitations
 * under the License.
-->

<svg xmlns="http://www.w3.org/2000/svg" class="icon" width="14" height="14" viewBox="0 0 14 14">
    <path id="settings-outline" class="path fill primary"
          d="M-1889.82,14a.532.532,0,0,1-.519-.426l-.128-.639a2.907,2.907,0,0,1-.338-.14l-.542.362a.53.53,0,0,1-.668-.067l-.3-.3a.531.531,0,0,1-.066-.668l.362-.543a2.524,2.524,0,0,1-.141-.338l-.639-.128a.53.53,0,0,1-.426-.518V10.18a.532.532,0,0,1,.426-.519l.047-.009a.221.221,0,0,1,.26.174.221.221,0,0,1-.174.26l-.047.009a.088.088,0,0,0-.07.085V10.6a.088.088,0,0,0,.07.085l.769.153a.222.222,0,0,1,.169.158,2.248,2.248,0,0,0,.2.493.221.221,0,0,1-.008.231l-.435.652a.087.087,0,0,0,.011.111l.3.3a.089.089,0,0,0,.11.011l.652-.435a.221.221,0,0,1,.23-.009,2.179,2.179,0,0,0,.494.2.221.221,0,0,1,.157.17l.154.769a.087.087,0,0,0,.085.069h.419a.087.087,0,0,0,.085-.069l.153-.769a.219.219,0,0,1,.157-.169,2.23,2.23,0,0,0,.493-.205.223.223,0,0,1,.231.009l.652.435a.088.088,0,0,0,.11-.011l.3-.3a.09.09,0,0,0,.011-.111l-.435-.652a.223.223,0,0,1-.009-.231,2.168,2.168,0,0,0,.2-.493.223.223,0,0,1,.17-.158l.769-.153a.087.087,0,0,0,.069-.085V10.18a.087.087,0,0,0-.069-.085l-.769-.154a.22.22,0,0,1-.17-.157,2.168,2.168,0,0,0-.2-.493.223.223,0,0,1,.009-.231l.435-.653a.089.089,0,0,0-.011-.11l-.3-.3a.086.086,0,0,0-.11-.011l-.652.435a.221.221,0,0,1-.231.008,2.254,2.254,0,0,0-.493-.2.22.22,0,0,1-.157-.169l-.153-.769a.088.088,0,0,0-.085-.07h-.419a.088.088,0,0,0-.085.07l-.154.769a.22.22,0,0,1-.157.169,2.281,2.281,0,0,0-.494.2.219.219,0,0,1-.23-.008l-.652-.435a.086.086,0,0,0-.11.011l-.3.3a.086.086,0,0,0-.011.11l.435.653a.221.221,0,0,1,.008.231,2.248,2.248,0,0,0-.2.493.22.22,0,0,1-.272.153.221.221,0,0,1-.154-.273,2.752,2.752,0,0,1,.181-.47l-.362-.542a.531.531,0,0,1,.066-.668l.3-.3a.531.531,0,0,1,.668-.066l.542.362a2.624,2.624,0,0,1,.338-.14l.128-.639a.532.532,0,0,1,.519-.426h.419a.53.53,0,0,1,.518.426l.128.639a2.528,2.528,0,0,1,.338.14l.543-.362a.531.531,0,0,1,.668.066l.3.3a.53.53,0,0,1,.067.668l-.362.542a2.935,2.935,0,0,1,.14.338l.639.128a.531.531,0,0,1,.425.519V10.6a.529.529,0,0,1-.425.518l-.639.128a2.808,2.808,0,0,1-.14.338l.362.543a.53.53,0,0,1-.067.668l-.3.3a.53.53,0,0,1-.668.067l-.543-.362a2.789,2.789,0,0,1-.338.14l-.128.639a.53.53,0,0,1-.518.426Zm-1.029-3.611a1.239,1.239,0,0,1,1.238-1.238,1.239,1.239,0,0,1,1.238,1.238.22.22,0,0,1-.221.22.22.22,0,0,1-.221-.22.8.8,0,0,0-.8-.8.8.8,0,0,0-.8.8.8.8,0,0,0,.8.8.791.791,0,0,0,.486-.166.221.221,0,0,1,.31.04.221.221,0,0,1-.04.311,1.227,1.227,0,0,1-.756.257A1.239,1.239,0,0,1-1890.849,10.39Zm-4.091.368a.693.693,0,0,1-.677-.554l-.207-1.039a3.967,3.967,0,0,1-.623-.258l-.882.588a.691.691,0,0,1-.87-.086l-.451-.451a.691.691,0,0,1-.086-.87l.588-.882a3.962,3.962,0,0,1-.258-.622l-1.039-.208A.693.693,0,0,1-1900,5.7V5.06a.691.691,0,0,1,.554-.676l1.039-.208a3.972,3.972,0,0,1,.258-.623l-.588-.882a.691.691,0,0,1,.086-.87l.451-.451a.691.691,0,0,1,.87-.086l.882.588a3.967,3.967,0,0,1,.623-.258l.207-1.039A.693.693,0,0,1-1894.94,0h.638a.693.693,0,0,1,.677.554l.207,1.039a3.967,3.967,0,0,1,.623.258l.882-.588a.691.691,0,0,1,.87.086l.451.451a.691.691,0,0,1,.086.87l-.588.882a3.972,3.972,0,0,1,.258.623l1.039.207a.693.693,0,0,1,.554.677V5.7a.693.693,0,0,1-.554.677l-1.039.208a4,4,0,0,1-.2.513.221.221,0,0,1-.3.1.22.22,0,0,1-.1-.294,3.494,3.494,0,0,0,.215-.572.22.22,0,0,1,.17-.158l1.169-.234a.248.248,0,0,0,.2-.243V5.06a.248.248,0,0,0-.2-.243l-1.169-.234a.221.221,0,0,1-.17-.157,3.507,3.507,0,0,0-.321-.777.221.221,0,0,1,.008-.231l.661-.992a.248.248,0,0,0-.031-.313l-.451-.451a.249.249,0,0,0-.313-.031l-.992.661a.221.221,0,0,1-.231.008,3.521,3.521,0,0,0-.776-.321.222.222,0,0,1-.157-.169l-.234-1.169a.248.248,0,0,0-.243-.2h-.638a.248.248,0,0,0-.243.2l-.234,1.169a.221.221,0,0,1-.157.169,3.511,3.511,0,0,0-.777.321.221.221,0,0,1-.231-.008l-.992-.661a.249.249,0,0,0-.313.031l-.451.451a.249.249,0,0,0-.031.313l.661.992a.221.221,0,0,1,.008.231,3.507,3.507,0,0,0-.321.777.221.221,0,0,1-.169.157l-1.17.234a.249.249,0,0,0-.2.243V5.7a.249.249,0,0,0,.2.243l1.17.234a.221.221,0,0,1,.169.157,3.507,3.507,0,0,0,.321.777.221.221,0,0,1-.008.231l-.661.992a.249.249,0,0,0,.031.313l.451.451a.249.249,0,0,0,.313.031l.992-.661a.221.221,0,0,1,.231-.008,3.511,3.511,0,0,0,.777.321.221.221,0,0,1,.157.17l.234,1.169a.248.248,0,0,0,.243.2h.638a.248.248,0,0,0,.243-.2l.234-1.169a.221.221,0,0,1,.157-.17,3.551,3.551,0,0,0,.56-.209.221.221,0,0,1,.294.1.222.222,0,0,1-.105.3,3.882,3.882,0,0,1-.5.2l-.208,1.039a.693.693,0,0,1-.677.554Zm-2.165-5.378a2.489,2.489,0,0,1,.134-.809.222.222,0,0,1,.282-.137.221.221,0,0,1,.137.281,2.028,2.028,0,0,0-.111.665,2.045,2.045,0,0,0,2.043,2.042,2.021,2.021,0,0,0,1.2-.387.221.221,0,0,1,.309.049.221.221,0,0,1-.05.309,2.461,2.461,0,0,1-1.455.472A2.488,2.488,0,0,1-1897.106,5.379Zm1.138,0a1.349,1.349,0,0,1,1.347-1.347,1.349,1.349,0,0,1,1.346,1.347,1.348,1.348,0,0,1-1.346,1.346A1.349,1.349,0,0,1-1895.968,5.379Zm.443,0a.905.905,0,0,0,.9.9.906.906,0,0,0,.9-.9.906.906,0,0,0-.9-.905A.906.906,0,0,0-1895.525,5.379Zm2.819,1.228a.22.22,0,0,1-.1-.3,2.02,2.02,0,0,0,.223-.931,2.045,2.045,0,0,0-2.042-2.043,2.035,2.035,0,0,0-1.427.58.221.221,0,0,1-.312,0,.22.22,0,0,1,0-.312,2.467,2.467,0,0,1,1.734-.706,2.488,2.488,0,0,1,2.485,2.485,2.491,2.491,0,0,1-.273,1.132.222.222,0,0,1-.2.121A.214.214,0,0,1-1892.706,6.607Z"
          transform="translate(1900)" fill="#464646"/>
</svg>
