<?xml version="1.0" encoding="utf-8"?>

<!--
 * Copyright (c) 2019, WSO2 Inc. (http://www.wso2.org) All Rights Reserved.
 *
 * WSO2 Inc. licenses this file to you under the Apache License,
 * Version 2.0 (the "License"); you may not use this file except
 * in compliance with the License.
 * You may obtain a copy of the License at
 *
 * http://www.apache.org/licenses/LICENSE-2.0
 *
 * Unless required by applicable law or agreed to in writing,
 * software distributed under the License is distributed on an
 * "AS IS" BASIS, WITHOUT WARRANTIES OR CONDITIONS OF ANY
 * KIND, either express or implied. See the License for the
 * specific language governing permissions and limitations
 * under the License.
-->

<svg version="1.1" id="status-shield-warning" class="icon status-shield warning" xmlns="http://www.w3.org/2000/svg" xmlns:xlink="http://www.w3.org/1999/xlink" x="0px"
	 y="0px" viewBox="0 0 162.5 200" style="enable-background:new 0 0 162.5 200; width: 162.5px; height: 200px" xml:space="preserve">
	<path style="fill:#F3F3F3;" d="M162.6,31.3c0.1,0-79.3-30.5-81.3-31.3C79.8,0.6-0.2,31.3-0.1,31.3v57.5c0,39.8,11.4,91.9,81.3,111.2
		c69.7-19.4,81.1-72.4,81.1-111.2C162.6,69.1,162.6,31.3,162.6,31.3z"/>
	<path style="fill:#E7E7E7;" d="M0,88.8c0,39.8,11.4,91.9,81.3,111.2V0c-3,1.1-81.3,31.3-81.3,31.3S-0.1,88.8,0,88.8z"/>
	<path style="fill:#F9D570;" class="lighter-side" d="M146.8,42c0.2,0-63.9-25.8-65.6-26.4c-1.4,0.5-65.8,25.3-65.6,25.2V89c0,33.4,6.5,79.1,65.6,95.3
		c58.9-16.3,65.6-62.6,65.6-95.3C146.9,72.5,146.9,42,146.8,42z"/>
	<path style="fill:#CCA544;" class="darker-side" d="M81.3,15.6c-1.4,0.5-65.8,25.3-65.6,25.2v48.3c0,33.4,6.5,79.1,65.6,95.3V15.6z"/>
	<g>
		<path style="fill:#FFFFFF;" d="M81.3,62.3c-5.1,0-8.9,2.7-8.9,6.9v39.3c0,4.3,3.8,6.9,8.9,6.9c5,0,8.9-2.8,8.9-6.9V69.2
			C90.3,65,86.3,62.3,81.3,62.3z"/>
		<path style="fill:#FFFFFF;" d="M81.3,124.3c-4.9,0-8.9,4-8.9,8.9s4,8.9,8.9,8.9s8.9-4,8.9-8.9S86.2,124.3,81.3,124.3z"/>
	</g>
</svg>
