<!--
 * Copyright (c) 2023, WSO2 Inc. (http://www.wso2.com). All Rights Reserved.
 *
 * This software is the property of WSO2 Inc. and its suppliers, if any.
 * Dissemination of any information or reproduction of any material contained
 * herein in any form is strictly forbidden, unless permitted by WSO2 expressly.
 * You may not alter or remove any copyright or other notice from copies of this content."
-->

<svg d="ask-help-icon" class="icon" width="16" height="16" viewBox="0 0 16 16" fill="none" xmlns="http://www.w3.org/2000/svg">
<path fill-rule="evenodd" clip-rule="evenodd" d="M0.00483513 2.68085C0.0914645 1.18573 1.33136 0 2.8482 0H8.48388L8.65124 0.00483501C10.1464 0.0914644 11.3321 1.33136 11.3321 2.8482V5H13.5C14.8255 5 15.91 6.03154 15.9947 7.33562L16 7.5V15.3964C16 15.4628 15.9737 15.5263 15.9268 15.5732C15.8454 15.6546 15.7219 15.6681 15.6265 15.6139L15.5732 15.5732L13 13H7.5C6.22974 13 5.18076 12.0526 5.02105 10.8259L5.00532 10.6644L5 10.5V8.51417L3.52509 8.514L1.25442 10.7848L1.172 10.8559C0.884331 11.0694 0.476101 11.0457 0.215223 10.7848C0.0774178 10.647 0 10.4601 0 10.2652V2.8482L0.00483513 2.68085ZM5 7.51424V7.5C5 6.17452 6.03154 5.08996 7.33562 5.00532L7.5 5H10.3323L10.3321 2.8482L10.3265 2.70377C10.2528 1.75054 9.45601 1 8.48388 1H2.8482L2.70376 1.00556C1.75054 1.07924 1 1.87607 1 2.8482L1.00009 9.625L3.11073 7.51424H5ZM13.5 6H7.5C6.7203 6 6.07955 6.59489 6.00687 7.35554L6 7.5L5.99948 10.4677L6.00322 10.5996C6.05116 11.3383 6.63357 11.927 7.36184 11.9937L7.5 12H13.4142L15 13.586V7.5C15 6.7203 14.4051 6.07955 13.6445 6.00687L13.5 6Z" fill="black"/>
</svg>
