<!--
 * Copyright (c) 2020, WSO2 Inc. (http://www.wso2.org) All Rights Reserved.
 *
 * WSO2 Inc. licenses this file to you under the Apache License,
 * Version 2.0 (the "License"); you may not use this file except
 * in compliance with the License.
 * You may obtain a copy of the License at
 *
 *     http://www.apache.org/licenses/LICENSE-2.0
 *
 * Unless required by applicable law or agreed to in writing,
 * software distributed under the License is distributed on an
 * "AS IS" BASIS, WITHOUT WARRANTIES OR CONDITIONS OF ANY
 * KIND, either express or implied. See the License for the
 * specific language governing permissions and limitations
 * under the License.
-->

<svg version="1.1" id="caret-left-icon" class="icon" height="14" width="14" xmlns="http://www.w3.org/2000/svg" x="0px" y="0px" viewBox="0 -1 8 14" xml:space="preserve">
    <g id="caret-icon" transform="translate(0 0)">
        <path id="Path_7" class="path" d="M17.261,12.523l.671-.671L13.049,6.968l4.883-4.884-.671-.671L11.707,6.968Z" transform="translate(-11.371 -0.94)"/>
        <path id="Path_8" class="path" d="M16.005,11.763a.721.721,0,0,0,1.006-1.006c-.544-.753-4.883-4.884-4.883-4.884S16.584,1.481,17.012.989,16.6-.527,16.005-.017s-5.89,5.89-5.89,5.89S15.464,11.313,16.005,11.763Zm.335-1.006-.335.335L10.786,5.873,16.005.654l.335.335L11.457,5.873Z" transform="translate(-10.115 0.156)"/>
    </g>
</svg>
