<?xml version="1.0" encoding="iso-8859-1"?>

<!--
 * Copyright (c) 2020, WSO2 Inc. (http://www.wso2.org) All Rights Reserved.
 *
 * WSO2 Inc. licenses this file to you under the Apache License,
 * Version 2.0 (the "License"); you may not use this file except
 * in compliance with the License.
 * You may obtain a copy of the License at
 *
 *     http://www.apache.org/licenses/LICENSE-2.0
 *
 * Unless required by applicable law or agreed to in writing,
 * software distributed under the License is distributed on an
 * "AS IS" BASIS, WITHOUT WARRANTIES OR CONDITIONS OF ANY
 * KIND, either express or implied. See the License for the
 * specific language governing permissions and limitations
 * under the License.
-->

<svg class="illustration avatar" enable-background="new 0 0 512 512" height="35" viewBox="0 0 512 512" width="35" xmlns="http://www.w3.org/2000/svg">
    <g>
        <path class="fill primary" d="m512 256c0 39.16-8.8 76.27-24.53 109.46-18.1 38.24-45.41 71.26-79.05 96.23-42.58 31.61-95.32 50.31-152.42 50.31s-109.84-18.7-152.42-50.31c-22.68-16.84-42.49-37.34-58.53-60.63-7.76-11.25-14.63-23.15-20.52-35.6-15.73-33.19-24.53-70.3-24.53-109.46s8.8-76.27 24.53-109.46c5.89-12.46 12.77-24.36 20.52-35.61 19.06-27.67 43.42-51.39 71.61-69.72 40.1-26.06 87.95-41.21 139.34-41.21s99.24 15.15 139.34 41.21c39.66 25.78 71.74 62.25 92.13 105.33 15.73 33.19 24.53 70.3 24.53 109.46z" fill="#d9723e"/>
        <path d="m487.47 89.77v275.69c-18.1 38.24-45.41 71.26-79.05 96.23h-304.84c-33.64-24.97-60.95-57.99-79.05-96.23v-275.69c0-26.82 21.74-48.56 48.56-48.56h365.82c26.82 0 48.56 21.74 48.56 48.56z" fill="#ecc32e"/>
        <path d="m93.61 41.21c-26.81 0-48.56 21.74-48.56 48.56v311.29c-7.76-11.25-14.63-23.15-20.52-35.6v-275.69c0-26.82 21.74-48.56 48.56-48.56z" fill="#e7a52e"/>
        <path d="m73.09 421.686c-4.72 0-8.561-3.84-8.561-8.561v-323.354c0-4.72 3.84-8.56 8.561-8.56h365.82c4.72 0 8.561 3.84 8.561 8.56v323.354c0 4.72-3.84 8.561-8.561 8.561z" fill="#e7a52e"/>
        <path d="m88.53 105.21h334.94v292.48h-334.94z" fill="#f6f1f1"/>
        <g>
            <path d="m271.104 445.996-10.716-5.728c-2.742-1.466-6.035-1.466-8.777 0l-10.716 5.728c-6.201 3.315-13.697-1.178-13.697-8.21v-69.684h57.603v69.684c0 7.031-7.496 11.524-13.697 8.21z" fill="#f93d6e"/>
            <path d="m310.857 330.857c0-6.457 8.733-14.22 6.841-20.047-1.961-6.039-13.654-7.17-17.312-12.196-3.695-5.077-1.183-16.535-6.26-20.23-5.026-3.658-15.13 2.246-21.169.285-5.826-1.891-10.5-12.669-16.957-12.669s-11.132 10.778-16.958 12.67c-6.039 1.961-16.143-3.943-21.169-.285-5.077 3.695-2.565 15.153-6.26 20.23-3.658 5.026-15.351 6.158-17.312 12.196-1.892 5.827 6.841 13.589 6.841 20.046s-8.733 14.22-6.841 20.047c1.961 6.039 13.654 7.17 17.312 12.196 3.695 5.077 1.183 16.535 6.26 20.23 5.026 3.658 15.13-2.246 21.169-.285 5.827 1.892 10.501 12.67 16.958 12.67s11.132-10.778 16.958-12.67c6.039-1.961 16.143 3.943 21.169.285 5.077-3.695 2.565-15.153 6.26-20.23 3.658-5.026 15.351-6.158 17.312-12.196 1.892-5.827-6.842-13.589-6.842-20.047z" fill="#ecc32e"/>
            <circle cx="256" cy="330.857" fill="#90d8f9" r="37.245"/>
            <path d="m263.815 367.268c-2.52.55-5.14.83-7.82.83-20.57 0-37.24-16.67-37.24-37.24s16.67-37.25 37.24-37.25c2.68 0 5.3.28 7.82.83-16.81 3.59-29.42 18.53-29.42 36.42s12.61 32.829 29.42 36.41z" fill="#61a2f9"/>
        </g>
        <path d="m337.57 149.582h-163.14c-7.738 0-14.011-6.273-14.011-14.011 0-7.738 6.273-14.011 14.011-14.011h163.14c7.738 0 14.011 6.273 14.011 14.011 0 7.738-6.273 14.011-14.011 14.011z" fill="#404a4a"/>
        <path d="m393.757 199.102h-275.514c-7.738 0-14.011-6.273-14.011-14.011 0-7.738 6.273-14.011 14.011-14.011h275.513c7.738 0 14.011 6.273 14.011 14.011.001 7.738-6.272 14.011-14.01 14.011z" fill="#404a4a"/>
        <path d="m393.757 248.622h-275.514c-7.738 0-14.011-6.273-14.011-14.011 0-7.738 6.273-14.011 14.011-14.011h275.513c7.738 0 14.011 6.273 14.011 14.011.001 7.738-6.272 14.011-14.01 14.011z" fill="#404a4a"/>
        <g fill="#90d8f9">
            <path d="m423.47 105.21v48.49c-26.78 0-48.48-21.71-48.48-48.49z"/>
            <path d="m137.01 105.21c0 26.78-21.7 48.49-48.48 48.49v-48.49z"/>
            <path d="m137.01 397.69h-48.48v-48.49c26.78 0 48.48 21.71 48.48 48.49z"/>
            <path d="m423.47 349.2v48.49h-48.48c0-26.78 21.7-48.49 48.48-48.49z"/>
        </g>
    </g>
</svg>
