<svg width="24" height="24" viewBox="0 0 24 24" fill="none" xmlns="http://www.w3.org/2000/svg">
<g clip-path="url(#clip0_1017_1738)">
<path d="M8 22H5.90576C4.30095 22 3 20.699 3 19.0942V13C3 9.68629 5.68629 7 9 7C12.3137 7 15 9.68629 15 13V17.3125" stroke="#FF7300"/>
<path d="M3.5 17H2.5C1.39543 17 0.5 16.1046 0.5 15C0.5 13.8954 1.39543 13 2.5 13H3.5" stroke="#FF7300"/>
<path d="M14.5 13H15.5C16.6046 13 17.5 13.8954 17.5 15C17.5 16.1046 16.6046 17 15.5 17H14.5" stroke="#FF7300"/>
<path d="M11 22C11 21.1716 10.3284 20.5 9.5 20.5C8.67157 20.5 8 21.1716 8 22C8 22.8284 8.67157 23.5 9.5 23.5C10.3284 23.5 11 22.8284 11 22Z" stroke="#FF7300"/>
<path fill-rule="evenodd" clip-rule="evenodd" d="M17.5 4C17.7761 4 18 3.77614 18 3.5C18 3.22386 17.7761 3 17.5 3C17.2239 3 17 3.22386 17 3.5C17 3.77614 17.2239 4 17.5 4ZM19.5 4C19.7761 4 20 3.77614 20 3.5C20 3.22386 19.7761 3 19.5 3C19.2239 3 19 3.22386 19 3.5C19 3.77614 19.2239 4 19.5 4Z" fill="#FF7300"/>
<path d="M16 6.5H15.882L15.7764 6.55279L14.5 7.19098V7V2C14.5 1.17157 15.1716 0.5 16 0.5H22C22.8284 0.5 23.5 1.17157 23.5 2V5C23.5 5.82843 22.8284 6.5 22 6.5H19H16Z" stroke="#FF7300"/>
</g>
<defs>
<clipPath id="clip0_1017_1738">
<rect width="24" height="24" fill="white"/>
</clipPath>
</defs>
</svg>
