<!--
 * Copyright (c) 2023, WSO2 Inc. (http://www.wso2.com). All Rights Reserved.
 *
 * This software is the property of WSO2 Inc. and its suppliers, if any.
 * Dissemination of any information or reproduction of any material contained
 * herein in any form is strictly forbidden, unless permitted by WSO2 expressly.
 * You may not alter or remove any copyright or other notice from copies of this content."
-->

<svg id="docs-icon" class="icon" width="16" height="16" viewBox="0 0 16 16" fill="none" xmlns="http://www.w3.org/2000/svg">
<path d="M5 4C4.72386 4 4.5 4.22386 4.5 4.5C4.5 4.77614 4.72386 5 5 5H11.5C11.7761 5 12 4.77614 12 4.5C12 4.22386 11.7761 4 11.5 4H5Z" fill="black"/>
<path d="M4.5 8C4.5 7.72386 4.72386 7.5 5 7.5H11.5C11.7761 7.5 12 7.72386 12 8C12 8.27614 11.7761 8.5 11.5 8.5H5C4.72386 8.5 4.5 8.27614 4.5 8Z" fill="black"/>
<path d="M5 10.5C4.72386 10.5 4.5 10.7239 4.5 11C4.5 11.2761 4.72386 11.5 5 11.5H8.5C8.77614 11.5 9 11.2761 9 11C9 10.7239 8.77614 10.5 8.5 10.5H5Z" fill="black"/>
<path fill-rule="evenodd" clip-rule="evenodd" d="M1 2C1 0.895431 1.89543 0 3 0H13C14.1046 0 15 0.895431 15 2V14C15 15.1046 14.1046 16 13 16H3C1.89543 16 1 15.1046 1 14V2ZM3 1H13C13.5523 1 14 1.44772 14 2V14C14 14.5523 13.5523 15 13 15H3C2.44772 15 2 14.5523 2 14V2C2 1.44772 2.44772 1 3 1Z" fill="black"/>
</svg>
