<!--
 * Copyright (c) 2021, WSO2 Inc. (http://www.wso2.com). All Rights Reserved.
 *
 * This software is the property of WSO2 Inc. and its suppliers, if any.
 * Dissemination of any information or reproduction of any material contained
 * herein in any form is strictly forbidden, unless permitted by WSO2 expressly.
 * You may not alter or remove any copyright or other notice from copies of this content."
-->

<svg id="bill-icon" class="icon" width="16" height="16" viewBox="0 0 16 16" fill="none" xmlns="http://www.w3.org/2000/svg">
<path d="M4.43243 5.40265C4.16375 5.40265 3.94595 5.62651 3.94595 5.90264C3.94595 6.17878 4.16375 6.40263 4.43243 6.40263H8.32432C8.593 6.40263 8.81081 6.17878 8.81081 5.90264C8.81081 5.62651 8.593 5.40265 8.32432 5.40265H4.43243Z" fill="black"/>
<path d="M4.43243 7.67482C4.16375 7.67482 3.94595 7.89867 3.94595 8.1748C3.94595 8.45094 4.16375 8.6748 4.43243 8.6748H11.5676C11.8362 8.6748 12.0541 8.45094 12.0541 8.1748C12.0541 7.89867 11.8362 7.67482 11.5676 7.67482H4.43243Z" fill="black"/>
<path d="M4.43243 9.94698C4.16375 9.94698 3.94595 10.1708 3.94595 10.447C3.94595 10.7231 4.16375 10.947 4.43243 10.947H11.5676C11.8362 10.947 12.0541 10.7231 12.0541 10.447C12.0541 10.1708 11.8362 9.94698 11.5676 9.94698H4.43243Z" fill="black"/>
<path fill-rule="evenodd" clip-rule="evenodd" d="M6.60623 0.201482C6.28451 -0.0671602 5.82359 -0.0671609 5.50187 0.201481L4.10192 1.37046L3.41423 0.819196C2.83921 0.35825 2 0.779359 2 1.52885V14.2717C2 14.9857 2.77035 15.4154 3.35289 15.0262L4.33983 14.367L5.41425 15.6589C5.74313 16.0543 6.32877 16.0817 6.6912 15.7185L8 14.4071L9.33465 15.7444C9.67474 16.0852 10.2172 16.0852 10.5572 15.7444L11.9275 14.3714L12.5858 14.8991C13.1608 15.36 14 14.9389 14 14.1894V1.52885C14 0.779359 13.1608 0.35825 12.5858 0.819196L11.8981 1.37046L10.4981 0.201482C10.1764 -0.0671602 9.71549 -0.0671609 9.39376 0.201481L8 1.3653L6.60623 0.201482ZM4.65534 2.19677L6.05405 1.02882L7.44782 2.19264C7.76954 2.46128 8.23046 2.46128 8.55218 2.19264L9.94595 1.02882L11.3447 2.19677C11.6613 2.46119 12.1137 2.46581 12.4354 2.20792L13.027 1.73366V13.9846L12.4589 13.5292C12.1137 13.2525 11.6226 13.2803 11.3091 13.5945L9.94595 14.9604L8.6113 13.623C8.27121 13.2822 7.72879 13.2822 7.3887 13.623L6.08637 14.928L5.02401 13.6506C4.73848 13.3073 4.24959 13.2346 3.88113 13.4807L2.97297 14.0874V1.73366L3.56461 2.20792C3.88632 2.46581 4.33869 2.46119 4.65534 2.19677Z" fill="black"/>
</svg>
