<svg xmlns="http://www.w3.org/2000/svg" width="46.985" height="32.021" viewBox="0 0 46.985 32.021">
  <g id="Group_686" data-name="Group 686" transform="translate(-16189 1844.021)">
    <g id="Rectangle_879" data-name="Rectangle 879" transform="translate(16189 -1832)" fill="#f8f8f8" stroke="#707070" stroke-width="1.6">
      <rect width="39" height="20" rx="2" stroke="none"/>
      <rect x="0.8" y="0.8" width="37.4" height="18.4" rx="1.2" fill="none"/>
    </g>
    <g id="keypad_1_" data-name="keypad (1)" transform="translate(16194 -1844.909)">
      <path id="Path_2437" data-name="Path 2437" d="M114.752,450.629H129.1a1.025,1.025,0,0,1,1.025,1.025v1.025A1.025,1.025,0,0,1,129.1,453.7H114.752a1.025,1.025,0,0,1-1.025-1.025v-1.025a1.025,1.025,0,0,1,1.025-1.025Zm0,0" transform="translate(-107.01 -423.906)" fill="#757579"/>
      <path id="Path_2438" data-name="Path 2438" d="M10.106,277.07h3.075a.512.512,0,0,1,.512.513v2.05a.512.512,0,0,1-.512.512H10.106a.512.512,0,0,1-.512-.512v-2.05A.512.512,0,0,1,10.106,277.07Zm0,0" transform="translate(-9.027 -260.597)" fill="#757579"/>
      <path id="Path_2439" data-name="Path 2439" d="M114.239,277.07h3.075a.513.513,0,0,1,.513.513v2.05a.512.512,0,0,1-.513.512h-3.075a.512.512,0,0,1-.513-.512v-2.05A.513.513,0,0,1,114.239,277.07Zm0,0" transform="translate(-107.01 -260.597)" fill="#757579"/>
      <path id="Path_2440" data-name="Path 2440" d="M218.376,277.07h3.075a.513.513,0,0,1,.513.513v2.05a.512.512,0,0,1-.513.512h-3.075a.512.512,0,0,1-.513-.512v-2.05A.513.513,0,0,1,218.376,277.07Zm0,0" transform="translate(-204.997 -260.597)" fill="#ff6522"/>
      <path id="Path_2441" data-name="Path 2441" d="M322.513,277.07h3.075a.512.512,0,0,1,.512.513v2.05a.512.512,0,0,1-.512.512h-3.075a.512.512,0,0,1-.512-.512v-2.05A.512.512,0,0,1,322.513,277.07Zm0,0" transform="translate(-302.984 -260.597)" fill="#757579"/>
      <path id="Path_2442" data-name="Path 2442" d="M62.173,363.852h3.075a.512.512,0,0,1,.513.512v2.05a.513.513,0,0,1-.513.513H62.173a.513.513,0,0,1-.513-.513v-2.05A.512.512,0,0,1,62.173,363.852Zm0,0" transform="translate(-58.019 -342.254)" fill="#ff5001"/>
      <path id="Path_2443" data-name="Path 2443" d="M10.106,450.629h3.075a.512.512,0,0,1,.512.513v2.05a.512.512,0,0,1-.512.513H10.106a.512.512,0,0,1-.512-.513v-2.05A.512.512,0,0,1,10.106,450.629Zm0,0" transform="translate(-9.027 -423.906)" fill="#757579"/>
      <path id="Path_2444" data-name="Path 2444" d="M426.65,450.629h3.075a.513.513,0,0,1,.513.513v2.05a.513.513,0,0,1-.513.513H426.65a.512.512,0,0,1-.512-.513v-2.05A.512.512,0,0,1,426.65,450.629Zm0,0" transform="translate(-400.971 -423.906)" fill="#757579"/>
      <path id="Path_2445" data-name="Path 2445" d="M166.31,363.852h3.075a.512.512,0,0,1,.512.512v2.05a.512.512,0,0,1-.512.513H166.31a.512.512,0,0,1-.512-.513v-2.05A.512.512,0,0,1,166.31,363.852Zm0,0" transform="translate(-156.006 -342.254)" fill="#757579"/>
      <path id="Path_2446" data-name="Path 2446" d="M270.442,363.852h3.075a.512.512,0,0,1,.513.512v2.05a.513.513,0,0,1-.513.513h-3.075a.513.513,0,0,1-.513-.513v-2.05A.512.512,0,0,1,270.442,363.852Zm0,0" transform="translate(-253.988 -342.254)" fill="#757579"/>
      <path id="Path_2447" data-name="Path 2447" d="M374.579,363.852h3.075a.512.512,0,0,1,.513.512v2.05a.513.513,0,0,1-.513.513h-3.075a.513.513,0,0,1-.513-.513v-2.05A.512.512,0,0,1,374.579,363.852Zm0,0" transform="translate(-351.975 -342.254)" fill="#757579"/>
      <path id="Path_2448" data-name="Path 2448" d="M426.65,277.07h3.075a.513.513,0,0,1,.513.513v2.05a.512.512,0,0,1-.513.512H426.65a.512.512,0,0,1-.512-.512v-2.05A.512.512,0,0,1,426.65,277.07Zm0,0" transform="translate(-400.971 -260.597)" fill="#ff5001"/>
    </g>
    <g id="transfer" transform="translate(16214.015 -1856.971)">
      <path id="Path_2449" data-name="Path 2449" d="M1.237,4.3A1.466,1.466,0,0,1,2.7,2.839H4.985l-.86.86.827.827L7.165,2.314,4.851,0,4.024.827l.842.842H2.7A2.638,2.638,0,0,0,.067,4.3v1.1h1.17V4.3Z" transform="translate(4.936 18.458)" fill="#757579"/>
      <path id="Path_2450" data-name="Path 2450" d="M336.855,324.164a1.466,1.466,0,0,1-1.465,1.465h-2.238l.851-.851-.827-.827-2.212,2.212,2.314,2.314.827-.827-.851-.851h2.136a2.638,2.638,0,0,0,2.635-2.635v-1.1h-1.17v1.1Z" transform="translate(-316.054 -297.458)" fill="#757579"/>
      <path id="Path_2451" data-name="Path 2451" d="M0,243.059H9V232.143H0Zm3.511-5.5v-1.016H7.826v2.115H1.17v-2.115H2.34v1.016Zm4.315,4.329H1.17v-2.06H2.334v.963H3.5v-.963H7.826Zm0-6.516H1.17v-2.06H2.34v1.016h1.17v-1.016H7.826Z" transform="translate(12.975 -219.193)" fill="#757579"/>
    </g>
  </g>
</svg>
