<!--
 * Copyright (c) 2021, WSO2 Inc. (http://www.wso2.com). All Rights Reserved.
 *
 * This software is the property of WSO2 Inc. and its suppliers, if any.
 * Dissemination of any information or reproduction of any material contained
 * herein in any form is strictly forbidden, unless permitted by WSO2 expressly.
 * You may not alter or remove any copyright or other notice from copies of this content."
-->

<svg id="login-attempts-icon" class="icon" width="24" height="24" viewBox="0 0 24 24" fill="none" xmlns="http://www.w3.org/2000/svg">
<path d="M14.9442 17.51V16.3H11.3142L13.3712 14.342C13.8698 13.8726 14.2072 13.4546 14.3832 13.088C14.5592 12.7213 14.6472 12.329 14.6472 11.911C14.6472 11.229 14.3978 10.69 13.8992 10.294C13.4005 9.89796 12.7332 9.69996 11.8972 9.69996C11.2665 9.69996 10.6945 9.81363 10.1812 10.041C9.67517 10.261 9.27184 10.5726 8.97117 10.976L9.97217 11.746C10.3902 11.2106 10.9915 10.943 11.7762 10.943C12.2455 10.943 12.6012 11.0383 12.8432 11.229C13.0852 11.4196 13.2062 11.6946 13.2062 12.054C13.2062 12.296 13.1438 12.5416 13.0192 12.791C12.9018 13.033 12.6708 13.319 12.3262 13.649L9.26817 16.553V17.51H14.9442Z" fill="black"/>
<path fill-rule="evenodd" clip-rule="evenodd" d="M9.40007 2.70996C10.5548 0.709962 13.4415 0.70996 14.5962 2.70996L23.5899 18.2875C24.7446 20.2875 23.3012 22.7875 20.9918 22.7875H3.00448C0.695076 22.7875 -0.748302 20.2875 0.406399 18.2875L9.40007 2.70996ZM13.2972 3.45996L22.2909 19.0375C22.8682 20.0375 22.1465 21.2875 20.9918 21.2875H3.00448C1.84977 21.2875 1.12809 20.0375 1.70544 19.0375L10.6991 3.45996C11.2765 2.45996 12.7198 2.45996 13.2972 3.45996Z" fill="black"/>
</svg>
