<?xml version="1.0" encoding="utf-8"?>

<!--
 * Copyright (c) 2020, WSO2 Inc. (http://www.wso2.org) All Rights Reserved.
 *
 * WSO2 Inc. licenses this file to you under the Apache License,
 * Version 2.0 (the "License"); you may not use this file except
 * in compliance with the License.
 * You may obtain a copy of the License at
 *
 *     http://www.apache.org/licenses/LICENSE-2.0
 *
 * Unless required by applicable law or agreed to in writing,
 * software distributed under the License is distributed on an
 * "AS IS" BASIS, WITHOUT WARRANTIES OR CONDITIONS OF ANY
 * KIND, either express or implied. See the License for the
 * specific language governing permissions and limitations
 * under the License.
-->

<svg version="1.1" id="metadata-icon" class="icon" xmlns="http://www.w3.org/2000/svg" viewBox="0 0 370.61 447.293" width="14" height="14" xml:space="preserve">
  <path id="Path_261" data-name="Path 261" d="M336,272V72c0-.176-.09-.328-.105-.5a7.522,7.522,0,0,0-.406-2.055c-.09-.258-.152-.5-.266-.754a7.947,7.947,0,0,0-1.6-2.344l-64-64a8.046,8.046,0,0,0-2.352-1.6c-.242-.1-.473-.168-.723-.254A7.685,7.685,0,0,0,264.434.07C264.3.078,264.16,0,264,0H8A8,8,0,0,0,0,8V424a8,8,0,0,0,8,8H208V416H16V16H256V72a8,8,0,0,0,8,8h56V272ZM272,64V27.313L308.688,64Zm0,0"/>
  <path id="Path_262" data-name="Path 262" d="M48,256h64v16H48Zm0,0"/>
  <path id="Path_263" data-name="Path 263" d="M48,352H80v16H48Zm0,0"/>
  <path id="Path_264" data-name="Path 264" d="M48,304H216v16H48Zm0,0"/>
  <path id="Path_265" data-name="Path 265" d="M128,256H288v16H128Zm0,0"/>
  <path id="Path_266" data-name="Path 266" d="M48,160h80v16H48Zm0,0"/>
  <path id="Path_267" data-name="Path 267" d="M144,160H288v16H144Zm0,0"/>
  <path id="Path_268" data-name="Path 268" d="M208,208h80v16H208Zm0,0"/>
  <path id="Path_269" data-name="Path 269" d="M48,208H192v16H48Zm0,0"/>
  <path id="Path_270" data-name="Path 270" d="M48,112H192v16H48Zm0,0"/>
  <path id="Path_271" data-name="Path 271" d="M208,112h80v16H208Zm0,0"/>
  <path id="Path_272" data-name="Path 272" d="M96,352H200v16H96Zm0,0"/>
  <path id="Path_273" data-name="Path 273" d="M48,64H96V80H48Zm0,0"/>
  <path id="Path_274" data-name="Path 274" d="M112,64h32V80H112Zm0,0"/>
  <g id="surface1" transform="translate(520.75 -76.692)">
    <path id="Path_287" data-name="Path 287" d="M17.453,496.744H4.972A4.832,4.832,0,0,0,.25,501.681V531.3a4.832,4.832,0,0,0,4.722,4.937H17.453a65.549,65.549,0,0,0,3.731,9.43l-8.821,9.221a5.1,5.1,0,0,0,0,6.982L32.4,582.821a4.583,4.583,0,0,0,6.678,0L47.9,573.6a59.666,59.666,0,0,0,9.019,3.9v13.049a4.832,4.832,0,0,0,4.722,4.937H89.972a4.832,4.832,0,0,0,4.722-4.937V577.5a59.666,59.666,0,0,0,9.019-3.9l8.82,9.222a4.583,4.583,0,0,0,6.678,0l20.036-20.948a5.1,5.1,0,0,0,0-6.982l-8.821-9.221a65.546,65.546,0,0,0,3.731-9.43h12.481a4.832,4.832,0,0,0,4.722-4.937V501.681a4.832,4.832,0,0,0-4.722-4.937H134.157a65.549,65.549,0,0,0-3.731-9.43l8.821-9.221a5.1,5.1,0,0,0,0-6.982l-20.036-20.948a4.583,4.583,0,0,0-6.678,0l-8.82,9.222a59.66,59.66,0,0,0-9.019-3.9V442.437a4.832,4.832,0,0,0-4.722-4.937H61.638a4.832,4.832,0,0,0-4.722,4.937v13.049a59.66,59.66,0,0,0-9.019,3.9l-8.82-9.222a4.583,4.583,0,0,0-6.678,0L12.362,471.111a5.1,5.1,0,0,0,0,6.982l8.821,9.221c-.392.8-.77,1.616-1.13,2.433A65.923,65.923,0,0,0,17.453,496.744Zm8.117,6.171A55.245,55.245,0,0,1,31.1,488.954a5.109,5.109,0,0,0-.727-6l-7.99-8.352,13.36-13.968,7.989,8.353a4.571,4.571,0,0,0,5.737.76,50.411,50.411,0,0,1,13.354-5.776,4.9,4.9,0,0,0,3.542-4.779V447.374H85.249v11.819a4.9,4.9,0,0,0,3.542,4.779,50.412,50.412,0,0,1,13.354,5.776,4.571,4.571,0,0,0,5.737-.76l7.989-8.353,13.36,13.968-7.99,8.352a5.109,5.109,0,0,0-.727,6,55.369,55.369,0,0,1,5.525,13.962,4.765,4.765,0,0,0,4.571,3.7h11.3v19.748h-11.3a4.765,4.765,0,0,0-4.571,3.7,55.369,55.369,0,0,1-5.525,13.962,5.109,5.109,0,0,0,.727,6l7.99,8.352-13.36,13.968L107.883,564a4.571,4.571,0,0,0-5.737-.76,50.41,50.41,0,0,1-13.354,5.776,4.9,4.9,0,0,0-3.542,4.779v11.819H66.361V573.792a4.9,4.9,0,0,0-3.542-4.779,50.41,50.41,0,0,1-13.354-5.776,4.571,4.571,0,0,0-5.737.76l-7.989,8.353-13.36-13.968,7.99-8.352a5.109,5.109,0,0,0,.727-6,55.369,55.369,0,0,1-5.525-13.962,4.765,4.765,0,0,0-4.571-3.7H9.694V506.618H21A4.765,4.765,0,0,0,25.57,502.916Zm0,0" transform="translate(-303 -73)" stroke="#000" stroke-width="3"/>
    <path id="Path_288" data-name="Path 288" d="M170.044,637.18A29.589,29.589,0,0,0,180.816,580.2a28.449,28.449,0,0,0-10.771-2.078,29.53,29.53,0,0,0,0,59.055Zm0-50.619a21.093,21.093,0,1,1-20.835,21.091A20.965,20.965,0,0,1,170.044,586.561Zm0,0" transform="translate(-397.42 -164.408)" stroke="#000" stroke-width="3"/>
  </g>
</svg>
