<!--
 * Copyright (c) 2021, WSO2 Inc. (http://www.wso2.com). All Rights Reserved.
 *
 * This software is the property of WSO2 Inc. and its suppliers, if any.
 * Dissemination of any information or reproduction of any material contained
 * herein in any form is strictly forbidden, unless permitted by WSO2 expressly.
 * You may not alter or remove any copyright or other notice from copies of this content."
-->

<svg id="password-recovery-illustrations" class="icon" width="24" height="24" viewBox="0 0 24 24" fill="none" xmlns="http://www.w3.org/2000/svg">
<path fill-rule="evenodd" clip-rule="evenodd" d="M12.97 6V4H12.9725C12.7238 1.75002 10.8163 0 8.5 0C6.18372 0 4.27619 1.75002 4.02747 4H4.04004V6H2C0.895431 6 0 6.89543 0 8V16C0 17.1046 0.89543 18 2 18H11.0709C11.0242 17.6734 11 17.3395 11 17C11 16.8319 11.0059 16.6651 11.0176 16.5H2C1.72386 16.5 1.5 16.2761 1.5 16V8C1.5 7.72386 1.72386 7.5 2 7.5H15C15.2761 7.5 15.5 7.72386 15.5 8V10.4596C15.9771 10.2771 16.4793 10.1454 17 10.0709V8C17 6.89543 16.1046 6 15 6H12.97ZM11.4585 4C11.2205 2.58114 9.9865 1.5 8.5 1.5C7.0135 1.5 5.77952 2.58114 5.54148 4H5.54004V6H11.47V4H11.4585Z" fill="black"/>
<path d="M7.75 11.25C7.75 10.8358 8.08579 10.5 8.5 10.5C8.91421 10.5 9.25 10.8358 9.25 11.25V12.75C9.25 13.1642 8.91421 13.5 8.5 13.5C8.08579 13.5 7.75 13.1642 7.75 12.75V11.25Z" fill="black"/>
<path d="M18 21.5C20.4853 21.5 22.5 19.4853 22.5 17C22.5 16.6029 22.4486 16.2178 22.352 15.851L23.6864 15.0805C23.8898 15.6832 24 16.3287 24 17C24 20.3137 21.3137 23 18 23C16.8023 23 15.6866 22.6491 14.75 22.0444V23.25C14.75 23.6642 14.4142 24 14 24C13.5858 24 13.25 23.6642 13.25 23.25V19.25H17.25C17.6642 19.25 18 19.5858 18 20C18 20.4142 17.6642 20.75 17.25 20.75H15.5117C16.2244 21.2239 17.0799 21.5 18 21.5Z" fill="black"/>
<path d="M21.25 11.9556V10.75C21.25 10.3358 21.5858 10 22 10C22.4142 10 22.75 10.3358 22.75 10.75V14.75H18.75C18.3358 14.75 18 14.4142 18 14C18 13.5858 18.3358 13.25 18.75 13.25H20.4883C19.7756 12.7761 18.9201 12.5 18 12.5C15.5147 12.5 13.5 14.5147 13.5 17C13.5 17.2924 13.5279 17.5782 13.5811 17.8551L12.2261 18.6374C12.0788 18.1169 12 17.5677 12 17C12 13.6863 14.6863 11 18 11C19.1977 11 20.3134 11.3509 21.25 11.9556Z" fill="black"/>
</svg>
