<!--
 * Copyright (c) 2020, WSO2 Inc. (http://www.wso2.org) All Rights Reserved.
 *
 * WSO2 Inc. licenses this file to you under the Apache License,
 * Version 2.0 (the "License"); you may not use this file except
 * in compliance with the License.
 * You may obtain a copy of the License at
 *
 *     http://www.apache.org/licenses/LICENSE-2.0
 *
 * Unless required by applicable law or agreed to in writing,
 * software distributed under the License is distributed on an
 * "AS IS" BASIS, WITHOUT WARRANTIES OR CONDITIONS OF ANY
 * KIND, either express or implied. See the License for the
 * specific language governing permissions and limitations
 * under the License.
-->

<svg xmlns="http://www.w3.org/2000/svg" id="user-config-icon" class="icon" width="14" height="14" viewBox="0 0 14 14">
    <path id="account-management-outline" class="path fill primary"
          d="M5.718,13.883a.271.271,0,0,1-.214-.2L5.326,13a6.206,6.206,0,0,1-1.378-.57l-.577.369a.274.274,0,0,1-.3,0A7.008,7.008,0,0,1,1.206,10.93a.272.272,0,0,1,0-.3l.37-.577A6.188,6.188,0,0,1,1,8.673L.318,8.5a.273.273,0,0,1-.2-.214,7.083,7.083,0,0,1,0-2.564.273.273,0,0,1,.2-.214L1,5.326a6.146,6.146,0,0,1,.57-1.379L1.2,3.371a.272.272,0,0,1,0-.3A7.008,7.008,0,0,1,3.07,1.206a.274.274,0,0,1,.3,0l.577.369A6.206,6.206,0,0,1,5.326,1L5.5.318a.271.271,0,0,1,.214-.2,7.1,7.1,0,0,1,2.564,0,.271.271,0,0,1,.214.2L8.673,1a6.206,6.206,0,0,1,1.378.57l.577-.369a.274.274,0,0,1,.3,0A7.008,7.008,0,0,1,12.793,3.07a.272.272,0,0,1,0,.3l-.37.577A6.146,6.146,0,0,1,13,5.326l.685.177a.273.273,0,0,1,.2.214,7.083,7.083,0,0,1,0,2.564.273.273,0,0,1-.2.214L13,8.673a6.146,6.146,0,0,1-.57,1.379l.37.577a.272.272,0,0,1,0,.3,7.008,7.008,0,0,1-1.864,1.864.274.274,0,0,1-.3,0l-.577-.369A6.206,6.206,0,0,1,8.673,13l-.177.684a.271.271,0,0,1-.214.2,7.029,7.029,0,0,1-2.564,0Zm-1.635-2.01a5.624,5.624,0,0,0,1.535.636.272.272,0,0,1,.2.2l.173.669a6.513,6.513,0,0,0,2.022,0l.173-.669a.272.272,0,0,1,.2-.2,5.624,5.624,0,0,0,1.535-.636.276.276,0,0,1,.289,0l.563.361a6.459,6.459,0,0,0,1.468-1.469l-.361-.563a.274.274,0,0,1,0-.288,5.624,5.624,0,0,0,.636-1.535.274.274,0,0,1,.2-.2l.668-.173a6.494,6.494,0,0,0,0-2.022l-.668-.173a.274.274,0,0,1-.2-.2,5.624,5.624,0,0,0-.636-1.535.274.274,0,0,1,0-.288l.361-.563a6.458,6.458,0,0,0-1.468-1.469l-.563.361a.276.276,0,0,1-.289,0A5.624,5.624,0,0,0,8.382,1.49a.272.272,0,0,1-.2-.2L8.011.626a6.513,6.513,0,0,0-2.022,0l-.173.669a.272.272,0,0,1-.2.2,5.624,5.624,0,0,0-1.535.636.276.276,0,0,1-.289,0L3.23,1.761A6.458,6.458,0,0,0,1.762,3.23l.361.563a.274.274,0,0,1,0,.288,5.624,5.624,0,0,0-.636,1.535.274.274,0,0,1-.2.2l-.668.173a6.494,6.494,0,0,0,0,2.022l.668.173a.274.274,0,0,1,.2.2,5.624,5.624,0,0,0,.636,1.535.274.274,0,0,1,0,.288l-.361.563A6.459,6.459,0,0,0,3.23,12.238l.563-.361a.275.275,0,0,1,.289,0Zm.472-.4a0,0,0,0,1,0,0A5.152,5.152,0,0,1,3.839,11v0a5.1,5.1,0,1,1,6.32.033,0,0,0,0,0,0,0,5.142,5.142,0,0,1-.723.473,0,0,0,0,0,0,0,5.1,5.1,0,0,1-4.882-.026Zm-.135-.823v.031a4.493,4.493,0,0,0,5.16.027c0-.02,0-.039,0-.059a2.58,2.58,0,0,0-5.161,0Zm4.76-5A2.179,2.179,0,0,1,7.945,7.62a3.186,3.186,0,0,1,2.209,2.619,4.5,4.5,0,1,0-6.3-.031,3.185,3.185,0,0,1,2.2-2.587A2.178,2.178,0,1,1,9.18,5.658Zm-3.76,0A1.58,1.58,0,1,0,7,4.081,1.58,1.58,0,0,0,5.42,5.658Z"
          transform="translate(0 0)" fill="#464646"/>
</svg>
