<!--
 * Copyright (c) 2021, WSO2 Inc. (http://www.wso2.com). All Rights Reserved.
 *
 * This software is the property of WSO2 Inc. and its suppliers, if any.
 * Dissemination of any information or reproduction of any material contained
 * herein in any form is strictly forbidden, unless permitted by WSO2 expressly.
 * You may not alter or remove any copyright or other notice from copies of this content."
-->

<svg d="onboard-users-illustration" class="icon" xmlns="http://www.w3.org/2000/svg"
     xmlns:xlink="http://www.w3.org/1999/xlink" width="226.5" height="194.227" viewBox="0 0 226.5 194.227">
    <defs>
        <linearGradient id="linear-gradient" x1="0.5" x2="0.5" y2="1" gradientUnits="objectBoundingBox">
            <stop offset="0" stop-color="#806a6a"/>
            <stop offset="1" stop-color="#665654"/>
        </linearGradient>
        <linearGradient id="linear-gradient-2" x1="0.5" x2="0.5" y2="1" gradientUnits="objectBoundingBox">
            <stop offset="0" stop-color="#ffc9b3"/>
            <stop offset="1" stop-color="#ffd2c2"/>
        </linearGradient>
        <linearGradient id="linear-gradient-3" x1="0.5" y1="1" x2="0.5" gradientUnits="objectBoundingBox">
            <stop offset="0" stop-color="#ffe0cc"/>
            <stop offset="1" stop-color="#ffeadb"/>
        </linearGradient>
        <linearGradient id="linear-gradient-4" y1="1" y2="0" xlink:href="#linear-gradient"/>
        <clipPath id="clip-path">
            <path id="Mask" d="M28,0A28,28,0,1,1,0,28,28,28,0,0,1,28,0Z" fill="url(#linear-gradient)"/>
        </clipPath>
        <linearGradient id="linear-gradient-6" x1="0.5" x2="0.5" y2="1" gradientUnits="objectBoundingBox">
            <stop offset="0" stop-color="#1d0024"/>
            <stop offset="1" stop-color="#100014"/>
        </linearGradient>
        <linearGradient id="linear-gradient-8" x1="0.5" x2="0.5" y2="1" gradientUnits="objectBoundingBox">
            <stop offset="0" stop-color="#f7b186"/>
            <stop offset="1" stop-color="#ffc299"/>
        </linearGradient>
        <linearGradient id="linear-gradient-9" x1="0.5" y1="1" x2="0.5" gradientUnits="objectBoundingBox">
            <stop offset="0" stop-color="#fcf2eb"/>
            <stop offset="1" stop-color="#fff9f5"/>
        </linearGradient>
        <clipPath id="clip-path-2">
            <path id="Mask-2" data-name="Mask" d="M11.5,23A11.5,11.5,0,1,0,0,11.5,11.5,11.5,0,0,0,11.5,23Z"
                  transform="translate(23 23) rotate(180)" fill="url(#linear-gradient-2)"/>
        </clipPath>
        <linearGradient id="linear-gradient-12" x1="0.5" y1="1" x2="0.5" gradientUnits="objectBoundingBox">
            <stop offset="0" stop-color="#130027"/>
            <stop offset="1" stop-color="#130017"/>
        </linearGradient>
        <linearGradient id="linear-gradient-13" x1="0.5" x2="0.5" y2="1" gradientUnits="objectBoundingBox">
            <stop offset="0" stop-color="#e6864e"/>
            <stop offset="1" stop-color="#e67240"/>
        </linearGradient>
        <linearGradient id="linear-gradient-14" x1="0.5" y1="1" x2="0.5" gradientUnits="objectBoundingBox">
            <stop offset="0" stop-color="#c36f0b"/>
            <stop offset="1" stop-color="#c57515"/>
        </linearGradient>
        <clipPath id="clip-path-3">
            <path id="Mask-3" data-name="Mask"
                  d="M6.5.534A4.615,4.615,0,0,0,4.629,0,4.075,4.075,0,0,0,2.837.534V2.212a3,3,0,0,0-.583-.035c-1.83,0-2.52,2.666-2.163,5.909.229,0,.763,0,1.526,1.068C1.426,7.667,3.638,7.9,4.477,9.078c-.42-1.411.687-2.365,1.64-1.793,1.87,1.122,2.29-2.3.381-2.327Z"
                  transform="translate(7.741 9.154) rotate(180)" fill="url(#linear-gradient-3)"/>
        </clipPath>
        <clipPath id="clip-path-4">
            <path id="Mask-4" data-name="Mask" d="M18.5,37A18.5,18.5,0,1,0,0,18.5,18.5,18.5,0,0,0,18.5,37Z"
                  transform="translate(37 37) rotate(180)" fill="url(#linear-gradient-4)"/>
        </clipPath>
        <linearGradient id="linear-gradient-16" y1="1" y2="0" xlink:href="#linear-gradient-8"/>
    </defs>
    <g id="card-2" transform="translate(-589.5 -293)">
        <circle id="Ellipse_438" data-name="Ellipse 438" cx="83.5" cy="83.5" r="83.5" transform="translate(602 301)"
                fill="#f5f5f5"/>
        <g id="Layer_2" data-name="Layer 2" transform="translate(587 337.694)">
            <g id="Слой_1" data-name="Слой 1" transform="translate(3 -0.002)">
                <g id="_3" data-name="3" transform="translate(0 0)">
                    <g id="CHAIR" transform="translate(0 50.539)">
                        <path id="Path_2938" data-name="Path 2938"
                              d="M259.713,899.61l17.441,18.806a8.2,8.2,0,0,1,3.151,6.459v19.781a4.538,4.538,0,0,1-4.538,4.538H253.08"
                              transform="translate(-225.434 -850.699)" fill="none" stroke="#d8baa3"
                              stroke-linecap="round" stroke-miterlimit="10" stroke-width="1"/>
                        <path id="Path_2939" data-name="Path 2939"
                              d="M57.824,503.1h0a2.985,2.985,0,0,1-2.985,2.985h-43.1A8.743,8.743,0,0,1,3,497.34V463.134a5.963,5.963,0,0,1,5.97-5.964H31.1a4.07,4.07,0,0,1,4.071,4.071V491.37a8.741,8.741,0,0,0,8.741,8.741H54.839a2.985,2.985,0,0,1,2.985,2.985Z"
                              transform="translate(-3 -457.17)" fill="#fff" stroke="#d8baa3" stroke-linecap="round"
                              stroke-miterlimit="10" stroke-width="1"/>
                        <path id="Path_2940" data-name="Path 2940"
                              d="M57.706,509.12a2.985,2.985,0,0,1-2.866,2.151h-43.1A8.743,8.743,0,0,1,3,502.53V468.325a5.969,5.969,0,0,1,3.262-5.319,5.94,5.94,0,0,0-.941,3.219v35.543a7.407,7.407,0,0,0,7.407,7.407h44.44A2.861,2.861,0,0,0,57.706,509.12Z"
                              transform="translate(-3 -462.36)" fill="#f0e1d4" stroke="#d8baa3" stroke-linecap="round"
                              stroke-miterlimit="10" stroke-width="1"/>
                        <path id="Path_2941" data-name="Path 2941"
                              d="M295,660.89h8.181a14.346,14.346,0,0,1,14.34,14.346v9.949"
                              transform="translate(-262.72 -638.369)" fill="none" stroke="#d8baa3"
                              stroke-linecap="round" stroke-miterlimit="10" stroke-width="1"/>
                        <path id="Path_2942" data-name="Path 2942"
                              d="M88.713,899.61l17.441,18.806a8.2,8.2,0,0,1,3.151,6.459v19.781a4.538,4.538,0,0,1-4.538,4.538H82.08"
                              transform="translate(-73.338 -850.699)" fill="none" stroke="#d8baa3"
                              stroke-linecap="round" stroke-miterlimit="10" stroke-width="1"/>
                    </g>
                    <g id="CHARACTER" transform="translate(8.211)">
                        <g id="RIGHT_HAND" data-name="RIGHT HAND" transform="translate(25.44 27.768)">
                            <path id="HAND"
                                  d="M308.414,251.226s8.167-1.216,13.074,9.514c4.3,9.4,7.5,18.16,7.5,18.16a127.5,127.5,0,0,0,17.765,7.67v5.317s-16.992.987-22.662,0c-4.169-.725-15.672-16.155-16.472-26.622S308.414,251.226,308.414,251.226Z"
                                  transform="translate(-307.398 -251.184)" fill="#ce7343"/>
                            <path id="ARM"
                                  d="M640.705,576.195c-.629-.127-.17-2.083.2-3.289a2.1,2.1,0,0,1,1.344-1.29,9.484,9.484,0,0,1,4.8-.63,7.137,7.137,0,0,1,4.2,2.581c.332.386,1.962,2.242,1.962,2.737Z"
                                  transform="translate(-603.582 -535.545)" fill="#fab6ad"/>
                        </g>
                        <path id="TORSO"
                              d="M95.909,211.332c-7.042.725-20.636,9.275-18.386,40.669,1.437,20.075,14.618,30.135,16.211,29.452s28.623-14.005,22.431-21.172c-5.924-6.854-4-12.1-3.064-21.38s2.333-19.382-5.2-22.878C95.705,210.362,97.792,211.137,95.909,211.332Z"
                              transform="translate(-77.274 -187.839)" fill="#e6814b"/>
                        <g id="LEGS" transform="translate(15.482 68.471)">
                            <g id="RIGHT_LEG" data-name="RIGHT LEG" transform="translate(2.234 2.465)">
                                <g id="SHOES" transform="translate(38.071 68.968)">
                                    <path id="Path_2943" data-name="Path 2943"
                                          d="M601.195,1339.714H581.939c-.02-.307-.025-.6-.021-.884h19.3A4.5,4.5,0,0,1,601.195,1339.714Z"
                                          transform="translate(-581.917 -1330.729)" fill="#383c4d"/>
                                    <path id="Path_2944" data-name="Path 2944"
                                          d="M584.091,1265.55c.069,2.191-1.961,3.578-1.961,8.105h19.254a4.5,4.5,0,0,0-3.571-4.673c-3.85-.875-7.351-2.045-7.7-3.427Z"
                                          transform="translate(-582.107 -1265.55)" fill="#ffb000"/>
                                </g>
                                <g id="PANT">
                                    <path id="Path_2945" data-name="Path 2945"
                                          d="M256.877,641.851s29.388-1.917,36.529,6.844-6.721,43.235-8.122,62.22c0,0-7.032.73-9.887,0s-5.341-37.517,1.853-46.423c0,0-26.246,6.561-36.909-1.715S252.44,642.006,256.877,641.851Z"
                                          transform="translate(-237.528 -641.673)" fill="#383c4d"/>
                                </g>
                            </g>
                            <g id="LEFT_LEG" data-name="LEFT LEG">
                                <g id="SHOE" transform="translate(84.013 47.281)">
                                    <path id="Path_2946" data-name="Path 2946"
                                          d="M1022.29,1065.756l-15.273,12.226c-.221-.275-.411-.545-.587-.807L1021.644,1065A4.389,4.389,0,0,1,1022.29,1065.756Z"
                                          transform="translate(-1003.209 -1063.019)" fill="#41465a"/>
                                    <path id="Path_2947" data-name="Path 2947"
                                          d="M977.29,1053.594c1.333,1.694.533,4.084,3.175,7.674l15.274-12.224a4.225,4.225,0,0,0-5.561-1.437c-3.571,1.753-7.025,3.047-8.113,2.168Z"
                                          transform="translate(-977.29 -1047.081)" fill="#ffb000"/>
                                </g>
                                <g id="PANT-2" data-name="PANT">
                                    <path id="Path_2948" data-name="Path 2948"
                                          d="M217.482,643.826c.442,2.473,24.346,9.571,50.951-7.952,0,0,4.128,23.113,31.014,38.446,0,0,5.92-2.631,7.529-6.173,0,0-18.967-24.242-25.72-43.887-2.837-8.24-38.515-3.929-43.73-2.24S215.519,632.807,217.482,643.826Z"
                                          transform="translate(-217.324 -619.378)" fill="#41465a"/>
                                </g>
                            </g>
                        </g>
                        <g id="LEFT_HAND" data-name="LEFT HAND" transform="translate(7.777 31.039)">
                            <path id="HAND-2" data-name="HAND"
                                  d="M156.431,281.256c6.156,2.045,14.821,20.262,14.821,20.262s9.7.93,24.374,7.075a9.145,9.145,0,0,1-1.6,5.81s-16.14,2.092-24.535,1.233c-2.839-.293-13.6-8.34-19.511-19.475C144.7,286.2,148.91,278.759,156.431,281.256Z"
                                  transform="translate(-147.621 -280.77)" fill="#e6966c"/>
                            <g id="ARM-2" data-name="ARM" transform="translate(47.013 26.14)">
                                <path id="Path_2949" data-name="Path 2949"
                                      d="M573.769,519.018s4.09-2.16,6.006-1.728a9.787,9.787,0,0,1,4.464,2.64c.24.48,1.92,2.832,1.92,3.359s-5.43.332-6.191.332-5.785.081-6.754-.12S573.769,519.018,573.769,519.018Z"
                                      transform="translate(-572.891 -517.233)" fill="#ffcfc9"/>
                                <path id="Path_2950" data-name="Path 2950"
                                      d="M635.313,524.121c.765,0,6.191.192,6.191-.332s-1.68-2.874-1.92-3.359a9.679,9.679,0,0,0-4.464-2.64s2.37,3.291.189,6.335"
                                      transform="translate(-628.241 -517.728)" fill="#fab6ad"/>
                            </g>
                        </g>
                        <g id="HEAD" transform="translate(17.624)">
                            <path id="Path_2951" data-name="Path 2951"
                                  d="M249.6,122.5c.123.955-2.008,5.76-5.808,9.495-3.335,3.276,11.011,5.81,11.386,5.727s2.051-5.127,2.394-6.309S249.6,122.5,249.6,122.5Z"
                                  transform="translate(-242.556 -108.958)" fill="#ffcfc9"/>
                            <path id="Path_2952" data-name="Path 2952"
                                  d="M309.32,132.872c-.148.51-.741,2.174-1.4,3.91a10.915,10.915,0,0,1-4.887-5.125c-1.571-3.1-1.375-6.258-1.563-7.075a.933.933,0,0,1,.071-.442C302.8,125.317,309.632,131.8,309.32,132.872Z"
                                  transform="translate(-294.31 -110.416)" fill="#fab6ad"/>
                            <path id="Path_2953" data-name="Path 2953"
                                  d="M312.69,59.19c.6,2.382,1.124,6.376.311,8.315s-2.25,5.5-2.812,5.689-6.752-.625-8.189-3.316a16.719,16.719,0,0,1-1.688-5.748c-.187-.809,3.188-7.378,7.5-7.253S312.516,58.5,312.69,59.19Z"
                                  transform="translate(-293.272 -50.587)" fill="#ffcfc9"/>
                            <path id="Path_2954" data-name="Path 2954"
                                  d="M258.73,7.42c-1.146.47-.277,1.8-2.432,2s-2.653-2.442-2.653-2.442a2.1,2.1,0,0,1-1.327,1.416s.576-1.119-.25-1.612a.987.987,0,0,0-1.333.167.8.8,0,0,0-1.105.5c-.386.86.31,1.375,1.216,1.474,0,0,.083,1.278-1.945,1.472s-2.445-1.056-2.445-1.056-.332-.306-.473.584.553,2.334-.861,3.473a3.911,3.911,0,0,1-1.054.687c.713.617.368,2.49-1.248,3.253-2.194,1.038-3.8.271-4-1.246-.18-1.37.693-.832.47-1.888a1.573,1.573,0,0,1-2.355-.478A1.458,1.458,0,0,1,237.5,11.7s-.942-1.291-.159-2.193c.884-1.029,2.267-.363,2.065-1s-.731-2.14.129-2.978,2.224-.5,2.418-.945-.082-1.105-.971-.72a1.981,1.981,0,0,1,.884-1.419,3.472,3.472,0,0,1,2.764-.171,2.648,2.648,0,0,1,1.352-2.02,2.4,2.4,0,0,1,3.044.853,1.35,1.35,0,0,1,1.15-.912c1.722-.25,3.14.2,3.471,1.586.35,1.463,2.909-1.909,4.112.973.247.589-.4,1.055.332,1.529.412.269.942-.608.53-.915a2.5,2.5,0,0,1,1.217,1.075A2.12,2.12,0,0,1,258.73,7.42Z"
                                  transform="translate(-236.698 0.002)" fill="#ffb000"/>
                        </g>
                    </g>
                    <path id="CHAIR-2" data-name="CHAIR" d="M24,660.89h9.949a14.346,14.346,0,0,1,14.34,14.346v9.949"
                          transform="translate(-21.678 -587.83)" fill="none" stroke="#d8baa3" stroke-linecap="round"
                          stroke-miterlimit="10" stroke-width="1"/>
                    <g id="TABLE" transform="translate(54.436 66.888)">
                        <path id="Path_2955" data-name="Path 2955"
                              d="M554.036,605.06H497.023a1.6,1.6,0,0,0-1.6,1.6h0a1.6,1.6,0,0,0,1.6,1.6h57.013Z"
                              transform="translate(-495.42 -605.06)" fill="#fff"/>
                        <path id="Path_2956" data-name="Path 2956"
                              d="M554.036,605.06H497.023a1.6,1.6,0,0,0-1.6,1.6h0a1.6,1.6,0,0,0,1.6,1.6h57.013"
                              transform="translate(-495.42 -605.06)" fill="none" stroke="#d8baa3" stroke-miterlimit="10"
                              stroke-width="1"/>
                        <path id="Path_2957" data-name="Path 2957"
                              d="M802.36,716.566l9.2-77.112a1.527,1.527,0,0,1,2.995-.066l11.466,76.747"
                              transform="translate(-768.428 -634.53)" fill="none" stroke="#d8baa3"
                              stroke-linecap="round" stroke-miterlimit="10" stroke-width="1"/>
                    </g>
                    <g id="LAPTOP" transform="translate(62.003 41.246)">
                        <rect id="Rectangle_1081" data-name="Rectangle 1081" width="46.019" height="2.826" rx="1.413"
                              transform="translate(0 22.676)" fill="#fff" stroke="#d8baa3" stroke-miterlimit="10"
                              stroke-width="1"/>
                        <path id="Path_2958" data-name="Path 2958"
                              d="M686.335,395.727H654.19a1.085,1.085,0,0,1-1.055-1.511l9.08-19.315a3.24,3.24,0,0,1,2.951-1.8h32.146a1.085,1.085,0,0,1,1.054,1.511l-9.08,19.314A3.239,3.239,0,0,1,686.335,395.727Z"
                              transform="translate(-643.179 -373.1)" fill="#fff" stroke="#d8baa3" stroke-miterlimit="10"
                              stroke-width="1"/>
                    </g>
                </g>
            </g>
        </g>
        <g id="User_06b" data-name="User 06b" transform="translate(760 293)">
            <path id="Mask-5" data-name="Mask" d="M28,0A28,28,0,1,1,0,28,28,28,0,0,1,28,0Z"
                  fill="url(#linear-gradient)"/>
            <g id="User_06b-2" data-name="User 06b" clip-path="url(#clip-path)">
                <path id="bun"
                      d="M.1,4.612C-.646,1.345,2.894-1.162,6.54.559c8.587,4.053,3.6,10.119.524,9.466S.847,7.878.1,4.612Z"
                      transform="translate(29.928 4.667)" fill="url(#linear-gradient-6)"/>
                <path id="hair"
                      d="M19.122,22.473c-4.01,1.926-4.6,1.823-13.44-5.413C-7.665,6.14,4.935-3.847,18.468,1.473,33.122,7.913,28.213,18.106,19.122,22.473Z"
                      transform="translate(12.985 7.393)" fill="url(#linear-gradient-6)"/>
                <path id="Mask-6" data-name="Mask"
                      d="M15.288,21c-1.369,2.987-3.111,4.48-4.48,4.48S7.7,23.987,6.328,21V17.267s-.609.018-1.027,0C.935,17.08-.524,10.056.161,3.031.663-2.114,5.021,4.947,12.114,0c-.28,5.413,2.053,4.853,3.08,4.2,4.667-2.147,4.76,6.627.148,5.947Q15.345,10.287,15.288,21Z"
                      transform="translate(17.192 16.52)" fill="url(#linear-gradient-8)"/>
                <path id="Path_2" data-name="Path 2" d="M0,2.819Q2.52,2.632,6.278,0,5.127,3.966,0,4.685Z"
                      transform="translate(23.52 30.968)" fill="#ff9768"/>
                <path id="body"
                      d="M13.2,2.206s.282-1.944.942-2.111,4.52-.187,4.524.56c0,.137.133,1.606.573,1.606S19.8.792,19.8.655c0-.747,3.841-.718,4.524-.56s.939,2.113.939,2.113S35.339,6.955,36.4,8.981q1.369,2.613,2.053,12.133H0q.684-9.52,2.053-12.133C3.114,6.956,13.2,2.206,13.2,2.206Z"
                      transform="translate(8.773 36.4)" fill="url(#linear-gradient-9)"/>
                <path id="hair-2" data-name="hair"
                      d="M1.6,2.88C-1.383,10.347.3,13.987,2.63,18.373s-.56,8.493-.56,8.493A8.34,8.34,0,0,0,5.43,19.96c0-4.76-3.36-7.747-.56-11.667S4.59-4.587,1.6,2.88Z"
                      transform="translate(28.373 11.947)" fill="url(#linear-gradient-6)"/>
            </g>
        </g>
        <g id="User_01c" data-name="User 01c" transform="translate(701 346)">
            <path id="Mask-7" data-name="Mask" d="M11.5,23A11.5,11.5,0,1,0,0,11.5,11.5,11.5,0,0,0,11.5,23Z"
                  transform="translate(23 23) rotate(180)" fill="url(#linear-gradient-2)"/>
            <g id="User_01c-2" data-name="User 01c" clip-path="url(#clip-path-2)">
                <path id="Combined_Shape" data-name="Combined Shape"
                      d="M13.516,8.2c.619,2.055,1,5.569-1.6,7.972-1.989,1.836-7.362,2.022-9.231-1.983-.312-.669.114-1.716.954-1.678.33.015.534-1.03.725-1.678C4.095,8.2,1.716,8.152.509,6.141-.979,3.662.852,0,5.239,0S12.14,3.631,13.516,8.2Z"
                      transform="translate(19.301 20.369) rotate(180)" fill="url(#linear-gradient-12)"/>
                <g id="Group_16" data-name="Group 16" transform="translate(3.612 6.79)">
                    <path id="Rectangle"
                          d="M15.146,5.177C15.715,4.062,16,0,16,0H0S.285,4.062.854,5.177C1.709,6.85,8,9,8,9S14.291,6.85,15.146,5.177Z"
                          transform="translate(15.388 16.21) rotate(180)" fill="url(#linear-gradient-13)"/>
                    <path id="Mask-8" data-name="Mask"
                          d="M6.5.534A4.615,4.615,0,0,0,4.629,0,4.075,4.075,0,0,0,2.837.534V2.212a3,3,0,0,0-.583-.035c-1.83,0-2.52,2.666-2.163,5.909.229,0,.763,0,1.526,1.068C1.426,7.667,3.638,7.9,4.477,9.078c-.42-1.411.687-2.365,1.64-1.793,1.87,1.122,2.29-2.3.381-2.327Z"
                          transform="translate(12.371 9.154) rotate(180)" fill="url(#linear-gradient-14)"/>
                    <g id="Group_16-2" data-name="Group 16" transform="translate(4.63)" clip-path="url(#clip-path-3)">
                        <path id="Path_2-2" data-name="Path 2"
                              d="M0,.61A7.735,7.735,0,0,1,2.67,1.64,3.41,3.41,0,0,0,0,0Z"
                              transform="translate(4.904 7.552) rotate(180)" fill="#ffd7b8" opacity="0.782"
                              style="mix-blend-mode: multiply;isolation: isolate"/>
                    </g>
                </g>
                <g id="Group_9" data-name="Group 9" transform="translate(8.417 14.494)">
                    <path id="Combined_Shape-2" data-name="Combined Shape"
                          d="M2.9,1.337c.551.025,1.828.295,1.828.878v.493a1.752,1.752,0,0,0,.747-.61A1.254,1.254,0,0,0,4.651,0,2.159,2.159,0,0,0,2.9,1.15,2.159,2.159,0,0,0,1.147,0,1.254,1.254,0,0,0,.321,2.1a1.752,1.752,0,0,0,.747.61V2.215c0-.583,1.312-.853,1.833-.878Z"
                          transform="translate(5.798 2.708) rotate(180)" fill="#fff"/>
                </g>
            </g>
        </g>
        <g id="User_02b" data-name="User 02b" transform="translate(744 363)">
            <path id="Mask-9" data-name="Mask" d="M18.5,37A18.5,18.5,0,1,0,0,18.5,18.5,18.5,0,0,0,18.5,37Z"
                  transform="translate(37 37) rotate(180)" fill="url(#linear-gradient-4)"/>
            <g id="User_02b-2" data-name="User 02b" clip-path="url(#clip-path-4)">
                <path id="Mask-10" data-name="Mask"
                      d="M9.251,3.446V0H1.373s.015,5.1,0,8.47C-.391,10.756-.391,12.186,1,13.663s11.324,2.216,11.324,2.216.745-7.165.862-9.108c.047-.782.554-3.323-1.416-3.323Z"
                      transform="translate(23.977 24.982) rotate(180)" fill="url(#linear-gradient-16)"/>
                <path id="Path_48" data-name="Path 48" d="M4,1.56A9.689,9.689,0,0,0,0,3,5.211,5.211,0,0,1,4,0Z"
                      transform="translate(20 23) rotate(180)" fill="#f08956"/>
                <path id="Combined_Shape-3" data-name="Combined Shape"
                      d="M5.066,9.329a1.249,1.249,0,0,1-1.539.213c-1.594-.828-.536-4.02,1.248-3.958.615.021.333-1.205-1.311-2.015,0,1.292-1.969,4.493-2.141,7.406-1.982.738-1.49,3.69-.129,3.69-.218,2.707,4.116,4.1,5.794,2.552,1.707,2.045,6.015,1,6.275-.775,2.962,1.581,4.909-2.965,2.136-4.729-1.141-.726-3.811-1-7.666-1-1.85,0-.786-4.329-.208-5.726.739-1.785,4.862-2.031,6.154-1.846,1.009.144,1.539.554,1.6.8C16.2,1.477,15.033,0,13.187,0c-3.139,0-6.277.923-6.77,3.2C6.025,5.013,6.047,7.937,5.066,9.329Z"
                      transform="translate(26.067 22.151) rotate(180)" fill="#fff"/>
                <g id="Group_2" data-name="Group 2" transform="translate(3.895 23.449)">
                    <path id="Combined_Shape-4" data-name="Combined Shape"
                          d="M27.695,7.878A26.673,26.673,0,0,0,29.541,0H0A26.68,26.68,0,0,0,1.846,7.878c.778,1.583,8,4.629,8,4.629s.144,1.393.492,1.592a65.657,65.657,0,0,0,8.862,0c.415-.2.492-1.591.492-1.591S26.918,9.457,27.695,7.878Z"
                          transform="translate(29.541 14.249) rotate(180)" fill="url(#linear-gradient-2)"/>
                </g>
            </g>
        </g>
    </g>
</svg>
