<!--
 * Copyright (c) 2021, WSO2 Inc. (http://www.wso2.com). All Rights Reserved.
 *
 * This software is the property of WSO2 Inc. and its suppliers, if any.
 * Dissemination of any information or reproduction of any material contained
 * herein in any form is strictly forbidden, unless permitted by WSO2 expressly.
 * You may not alter or remove any copyright or other notice from copies of this content."
-->

<svg id="setup-social-connections" class="icon" xmlns="http://www.w3.org/2000/svg"
     xmlns:xlink="http://www.w3.org/1999/xlink" width="94.263" height="85.705" viewBox="0 0 94.263 85.705">
    <defs>
        <filter id="Ellipse_245" x="46.895" y="35.062" width="38.265" height="38.265" filterUnits="userSpaceOnUse">
            <feOffset dy="3" input="SourceAlpha"/>
            <feGaussianBlur stdDeviation="3" result="blur"/>
            <feFlood flood-opacity="0.078"/>
            <feComposite operator="in" in2="blur"/>
            <feComposite in="SourceGraphic"/>
        </filter>
    </defs>
    <g id="card-3" transform="translate(-1066.788 -463.807)">
        <ellipse id="Oval" cx="40.308" cy="40.256" rx="40.308" ry="40.256"
                 transform="translate(1156.665 549.511) rotate(180)" fill="#f5f5f5"/>
        <g id="Group_1393" data-name="Group 1393" transform="translate(1142.947 525.133) rotate(180)">
            <g transform="matrix(-1, 0, 0, -1, 76.16, 61.33)" filter="url(#Ellipse_245)">
                <ellipse id="Ellipse_245-2" data-name="Ellipse 245" cx="10.132" cy="10.132" rx="10.132" ry="10.132"
                         transform="translate(76.16 61.33) rotate(180)" fill="#212a32"/>
            </g>
            <rect id="Rectangle_1022" data-name="Rectangle 1022" width="2.384" height="9.536" rx="0.4"
                  transform="translate(8.94 5.364)" fill="#fff"/>
            <rect id="Rectangle_1023" data-name="Rectangle 1023" width="2.384" height="9.536" rx="0.4"
                  transform="translate(5.364 11.324) rotate(-90)" fill="#fff"/>
        </g>
        <g id="Layer_2" data-name="Layer 2" transform="translate(1066.788 480.777)">
            <g id="Слой_1" data-name="Слой 1" transform="translate(0 0)">
                <g id="_2" data-name="2" transform="translate(0 0)">
                    <g id="WOMAN">
                        <g id="BLOUSE" transform="translate(3.998 25.234)">
                            <path id="BLOUSE-2" data-name="BLOUSE"
                                  d="M348.8,251.588c1.891,7.726,4.528,21.224,4.6,23.054s12.9,3,18.608,1.317c0,0,.058-17.754.452-22.668,5.25,2.6,10.377,5.873,12.451,5.873,2.884-.8,15.369-4.849,16.321-5.873v-6.713a147.32,147.32,0,0,1-15.771,4.223s-7.523-6.925-11.536-10.15l-.017-.015c-2.635-2.432-9.475-3.212-11.008-3.589-1.586-.39-9.674-1.488-9.674-1.488C350.485,237.332,347.119,244.708,348.8,251.588Z"
                                  transform="translate(-348.35 -235.56)" fill="#d2aa92"/>
                        </g>
                        <path id="Intersection_1" data-name="Intersection 1"
                              d="M22.115,38.852a1.2,1.2,0,0,1,1.2-1.2,1.185,1.185,0,0,1,.3.04c-.007,1.068-.011,1.883-.013,2.33a1.226,1.226,0,0,1-.292.035A1.2,1.2,0,0,1,22.115,38.852Zm-4.395,0a1.2,1.2,0,1,1,1.2,1.2A1.2,1.2,0,0,1,17.72,38.852Zm-4.394,0a1.2,1.2,0,1,1,1.2,1.2A1.2,1.2,0,0,1,13.326,38.852Zm-4.395,0a1.2,1.2,0,1,1,1.2,1.2A1.2,1.2,0,0,1,8.932,38.852ZM5,39.083c-.009-.21-.051-.576-.123-1.069a1.2,1.2,0,1,1,1.262,1.972C5.43,39.714,5.013,39.409,5,39.083Zm15.207-3.6a1.2,1.2,0,1,1,1.2,1.2A1.2,1.2,0,0,1,20.206,35.485Zm-4.395,0a1.2,1.2,0,1,1,1.2,1.2A1.2,1.2,0,0,1,15.812,35.485Zm-4.395,0a1.2,1.2,0,1,1,1.2,1.2A1.2,1.2,0,0,1,11.417,35.485Zm-4.4,0a1.2,1.2,0,1,1,1.2,1.2A1.2,1.2,0,0,1,7.021,35.485ZM4.258,34.362a1.2,1.2,0,0,1,.359,2.03C4.515,35.787,4.394,35.1,4.258,34.362ZM22.115,31.8a1.2,1.2,0,0,1,1.574-1.144c-.01.783-.019,1.552-.027,2.3A1.2,1.2,0,0,1,22.115,31.8Zm-4.395,0a1.2,1.2,0,1,1,1.2,1.2A1.2,1.2,0,0,1,17.72,31.8Zm-4.394,0a1.2,1.2,0,1,1,1.2,1.2A1.2,1.2,0,0,1,13.326,31.8Zm-4.395,0a1.2,1.2,0,1,1,1.2,1.2A1.2,1.2,0,0,1,8.932,31.8Zm-4.395,0a1.2,1.2,0,1,1,1.2,1.2A1.2,1.2,0,0,1,4.537,31.8Zm15.669-3.365a1.2,1.2,0,1,1,1.2,1.2A1.2,1.2,0,0,1,20.206,28.434Zm-4.395,0a1.2,1.2,0,1,1,1.2,1.2A1.2,1.2,0,0,1,15.812,28.434Zm-4.395,0a1.2,1.2,0,1,1,1.2,1.2A1.2,1.2,0,0,1,11.417,28.434Zm-4.4,0a1.2,1.2,0,1,1,1.2,1.2A1.2,1.2,0,0,1,7.021,28.434ZM3.332,29.529c-.125-.626-.253-1.266-.384-1.912a1.2,1.2,0,1,1,.384,1.912Zm18.783-4.623a1.2,1.2,0,0,1,1.7-1.095c-.017.716-.033,1.458-.048,2.213a1.2,1.2,0,0,1-1.647-1.119Zm-4.395,0a1.2,1.2,0,1,1,1.2,1.2A1.2,1.2,0,0,1,17.72,24.906Zm-4.394,0a1.2,1.2,0,1,1,1.2,1.2A1.2,1.2,0,0,1,13.326,24.906Zm-4.395,0a1.2,1.2,0,1,1,1.2,1.2A1.2,1.2,0,0,1,8.932,24.906Zm-4.395,0a1.2,1.2,0,1,1,1.2,1.2A1.2,1.2,0,0,1,4.537,24.906Zm-2.325-.831a1.2,1.2,0,0,1,.262,1.244Q2.344,24.7,2.212,24.076Zm35.571-2.534a1.2,1.2,0,1,1,1.2,1.2A1.2,1.2,0,0,1,37.784,21.542Zm-4.395,0a1.2,1.2,0,1,1,1.2,1.2A1.2,1.2,0,0,1,33.389,21.542Zm-13.183,0a1.2,1.2,0,1,1,1.2,1.2A1.2,1.2,0,0,1,20.206,21.542Zm-4.395,0a1.2,1.2,0,1,1,1.2,1.2A1.2,1.2,0,0,1,15.812,21.542Zm-4.395,0a1.2,1.2,0,1,1,1.2,1.2A1.2,1.2,0,0,1,11.417,21.542Zm-4.4,0a1.2,1.2,0,1,1,1.2,1.2A1.2,1.2,0,0,1,7.021,21.542Zm-4.395,0a1.2,1.2,0,1,1,1.2,1.2A1.2,1.2,0,0,1,2.627,21.542Zm39.551,0a1.2,1.2,0,0,1,2.306-.477c-.765.259-1.531.515-2.272.759A1.223,1.223,0,0,1,42.178,21.542Zm-12.7-.962a1.2,1.2,0,0,1,1.923.962c0,.021,0,.04,0,.06C30.785,21.282,30.143,20.938,29.477,20.579Zm19.007-2.6c0-.021,0-.041,0-.061s0-.041,0-.061a1.2,1.2,0,1,1,2.4,0c0,.021,0,.041,0,.061s0,.041,0,.061a1.2,1.2,0,0,1-.436.926q-.331.133-.694.272l-.073,0A1.2,1.2,0,0,1,48.483,17.978Zm-4.395,0c0-.021,0-.041,0-.061s0-.041,0-.061a1.2,1.2,0,1,1,2.4,0c0,.021,0,.041,0,.061s0,.041,0,.061a1.2,1.2,0,0,1-2.4,0Zm-4.395,0c0-.021,0-.041,0-.061s0-.041,0-.061a1.2,1.2,0,1,1,2.4,0c0,.021,0,.041,0,.061s0,.041,0,.061a1.2,1.2,0,0,1-2.4,0Zm-4.395,0c0-.021,0-.041,0-.061s0-.041,0-.061a1.2,1.2,0,1,1,2.4,0c0,.021,0,.041,0,.061s0,.041,0,.061a1.2,1.2,0,0,1-2.4,0Zm-4.4,0c0-.021,0-.041,0-.061s0-.041,0-.061a1.2,1.2,0,0,1,2.406,0c0,.021,0,.041,0,.061s0,.041,0,.061a1.2,1.2,0,0,1-2.406,0Zm-4.393,0c0-.021,0-.041,0-.061s0-.041,0-.061a1.2,1.2,0,1,1,2.4,0v.122a1.2,1.2,0,0,1-2.4,0Zm-4.4,0c0-.021,0-.041,0-.061s0-.041,0-.061a1.2,1.2,0,0,1,2.4,0c0,.021,0,.041,0,.061s0,.029,0,.044l-.459-.229c-.028.354-.055.773-.081,1.248a1.2,1.2,0,0,1-1.865-1Zm-4.395,0c0-.021,0-.041,0-.061s0-.041,0-.061a1.2,1.2,0,0,1,2.4,0v.122a1.2,1.2,0,0,1-2.4,0Zm-4.394,0c0-.021,0-.041,0-.061s0-.041,0-.061a1.2,1.2,0,1,1,2.4,0c0,.021,0,.041,0,.061s0,.041,0,.061a1.2,1.2,0,0,1-2.4,0Zm-4.395,0c0-.021,0-.041,0-.061s0-.041,0-.061a1.2,1.2,0,1,1,2.4,0c0,.021,0,.041,0,.061s0,.041,0,.061a1.2,1.2,0,0,1-2.4,0Zm-4.395,0c0-.021,0-.041,0-.061s0-.041,0-.061a1.2,1.2,0,1,1,2.4,0c0,.021,0,.041,0,.061s0,.041,0,.061a1.2,1.2,0,0,1-2.4,0Zm-3.4,1.183C.956,18.376.78,17.621.609,16.905a1.2,1.2,0,0,1,1.938.95c0,.021,0,.041,0,.061s0,.041,0,.061a1.2,1.2,0,0,1-1.2,1.2A1.251,1.251,0,0,1,1.134,19.16Zm49.833-4.549a1.2,1.2,0,0,1,1.865-1v2.006a1.2,1.2,0,0,1-1.865-1Zm-4.395,0a1.2,1.2,0,1,1,1.2,1.2A1.2,1.2,0,0,1,46.573,14.611Zm-4.395,0a1.2,1.2,0,0,1,.144-.571c.543-.134,1.117-.279,1.716-.435a1.2,1.2,0,1,1-1.86,1.006Zm-4.3.459c.541-.116,1.331-.289,2.311-.518,0,.02,0,.039,0,.058a1.2,1.2,0,0,1-2.312.459Zm-4.486-.459a1.2,1.2,0,0,1,1.946-.945l.125.114a1.2,1.2,0,1,1-2.071.831Zm-4.395,0a1.2,1.2,0,1,1,1.2,1.2A1.2,1.2,0,0,1,28.995,14.611Zm-4.394,0a1.2,1.2,0,1,1,1.2,1.2A1.2,1.2,0,0,1,24.6,14.611Zm-4.395,0a1.2,1.2,0,1,1,1.2,1.2A1.2,1.2,0,0,1,20.206,14.611Zm-4.395,0a1.2,1.2,0,1,1,1.2,1.2A1.2,1.2,0,0,1,15.812,14.611Zm-4.395,0a1.2,1.2,0,1,1,1.2,1.2A1.2,1.2,0,0,1,11.417,14.611Zm-4.4,0a1.2,1.2,0,1,1,1.2,1.2A1.2,1.2,0,0,1,7.021,14.611Zm-4.395,0a1.2,1.2,0,1,1,1.2,1.2A1.2,1.2,0,0,1,2.627,14.611ZM0,13.55a1.2,1.2,0,0,1,.636,1.061,1.2,1.2,0,0,1-.364.862A15.939,15.939,0,0,1,0,13.55ZM49.429,12.1q.559-.169,1.126-.345a1.2,1.2,0,0,1-.871.373A1.226,1.226,0,0,1,49.429,12.1ZM30.9,10.925a1.2,1.2,0,0,1,.391-.888c.615.545,1.216,1.083,1.785,1.593a1.2,1.2,0,0,1-2.176-.705Zm-4.393,0a1.2,1.2,0,1,1,1.2,1.2A1.2,1.2,0,0,1,26.511,10.925Zm-4.4,0a1.2,1.2,0,1,1,1.2,1.2A1.2,1.2,0,0,1,22.115,10.925Zm-4.395,0a1.2,1.2,0,1,1,1.2,1.2A1.2,1.2,0,0,1,17.72,10.925Zm-4.394,0a1.2,1.2,0,1,1,1.2,1.2A1.2,1.2,0,0,1,13.326,10.925Zm-4.395,0a1.2,1.2,0,1,1,1.2,1.2A1.2,1.2,0,0,1,8.932,10.925Zm-4.395,0a1.2,1.2,0,1,1,1.2,1.2A1.2,1.2,0,0,1,4.537,10.925Zm-4.395,0a1.2,1.2,0,1,1,1.2,1.2A1.2,1.2,0,0,1,.143,10.925ZM24.6,7.559a1.2,1.2,0,1,1,1.2,1.2A1.2,1.2,0,0,1,24.6,7.559Zm-4.395,0a1.2,1.2,0,1,1,1.2,1.2A1.2,1.2,0,0,1,20.206,7.559Zm-4.395,0a1.2,1.2,0,1,1,1.2,1.2A1.2,1.2,0,0,1,15.812,7.559Zm-4.395,0a1.2,1.2,0,1,1,1.2,1.2A1.2,1.2,0,0,1,11.417,7.559Zm-4.4,0a1.2,1.2,0,1,1,1.2,1.2A1.2,1.2,0,0,1,7.021,7.559Zm-4.395,0a1.2,1.2,0,1,1,1.2,1.2A1.2,1.2,0,0,1,2.627,7.559Zm26.525.595q.3.26.6.523A1.206,1.206,0,0,1,29.152,8.154ZM.6,7.268a1.215,1.215,0,0,1,.035.291,1.2,1.2,0,0,1-.29.784Q.46,7.8.6,7.268ZM22.115,4.033a1.2,1.2,0,0,1,.226-.7,12.554,12.554,0,0,1,2.143.993,1.2,1.2,0,0,1-2.369-.292Zm-4.395,0a1.2,1.2,0,1,1,1.2,1.2A1.2,1.2,0,0,1,17.72,4.033Zm-4.394,0a1.2,1.2,0,1,1,1.2,1.2A1.2,1.2,0,0,1,13.326,4.033Zm-4.395,0a1.2,1.2,0,1,1,1.2,1.2A1.2,1.2,0,0,1,8.932,4.033Zm-4.395,0a1.2,1.2,0,1,1,1.2,1.2A1.2,1.2,0,0,1,4.537,4.033Zm-3.274,1.2A17.461,17.461,0,0,1,2.2,3.191a1.2,1.2,0,0,1-.858,2.043C1.317,5.234,1.29,5.234,1.263,5.232ZM11.452.954c.833.129,1.6.253,2.181.358A1.2,1.2,0,0,1,11.452.954ZM7.021.666A1.2,1.2,0,0,1,7.075.312C7.783.412,8.6.528,9.427.65V.666a1.2,1.2,0,0,1-2.405,0Zm-3.857,1A6.726,6.726,0,0,1,4.826,0h0A1.2,1.2,0,0,1,3.164,1.668Z"
                              transform="translate(4.052 25.234)" fill="#fff" opacity="0"/>
                        <g id="HEAD">
                            <path id="NECK"
                                  d="M719.829,156.728c-.292,1.171-1.463,6.245-1.463,7.026s-8.055-.123-9.616-1.489a18.465,18.465,0,0,0,3.956-8.856Z"
                                  transform="translate(-699.815 -137.032)" fill="#ffcfc9"/>
                            <path id="HEAD-2" data-name="HEAD"
                                  d="M665.58,72.7s2.457,5.125,7.562,4.717a1.035,1.035,0,0,0,.825-.53c.7-1.272,2.559-4.851,2.491-6.976a53.723,53.723,0,0,0-1.195-7.45,9.42,9.42,0,0,0-9.667,4.476A5.236,5.236,0,0,0,665.58,72.7Z"
                                  transform="translate(-651.701 -55.782)" fill="#ffcfc9"/>
                            <g id="GLASSES" transform="translate(18.367 10.795)">
                                <line id="Line_74" data-name="Line 74" x2="9.029" transform="translate(0 1.497)"
                                      fill="none" stroke="#d8baa3" stroke-miterlimit="10" stroke-width="1"/>
                                <ellipse id="Ellipse_413" data-name="Ellipse 413" cx="0.885" cy="2.454" rx="0.885"
                                         ry="2.454" transform="translate(7.188)" fill="none" stroke="#d8baa3"
                                         stroke-miterlimit="10" stroke-width="1"/>
                            </g>
                            <g id="HAIR">
                                <path id="Path_2929" data-name="Path 2929"
                                      d="M651.248,23.419a87.537,87.537,0,0,0,16.811,2.7s3.358-3.478-.511-7.77c-2.212-2.454.5-5.564.5-5.564a29.338,29.338,0,0,1,6.782-1.078c1.23-1.808,1.264-4.375-2.156-6.91C669.13,2.177,662.188-.442,658.091,3.71c-2.347,2.372-.755,7.126-3.758,8.569C644.879,16.808,651.248,23.419,651.248,23.419Z"
                                      transform="translate(-649.15 -1.534)" fill="#424d76"/>
                                <path id="Path_2930" data-name="Path 2930"
                                      d="M704.68,4.759C701.134,2.137,694.2-.482,690.1,3.67c-2.347,2.372-.99,7.952-3.989,9.395"
                                      transform="translate(-682.226 -1.499)" fill="none" stroke="#424d76"
                                      stroke-miterlimit="10" stroke-width="3"/>
                                <path id="Path_2931" data-name="Path 2931"
                                      d="M646.143,39.622c1.23-1.808.715-4.906-3.106-6.792"
                                      transform="translate(-619.639 -29.452)" fill="none" stroke="#424d76"
                                      stroke-miterlimit="10" stroke-width="3"/>
                                <path id="Path_2932" data-name="Path 2932"
                                      d="M697.331,115.406s2.887-3.691-1.257-7.719c-2.372-2.3-.34-6.057-.34-6.057"
                                      transform="translate(-676.805 -90.835)" fill="none" stroke="#424d76"
                                      stroke-miterlimit="10" stroke-width="3"/>
                            </g>
                        </g>
                        <g id="ARM" transform="translate(60.572 44.993) rotate(-138)">
                            <path id="Path_2805" data-name="Path 2805"
                                  d="M6.154,4.531a9.354,9.354,0,0,1-.742,3.193c-.578.868-2.2,3.994-2.795,3.67-.276-.15.734-2.753.734-2.753a.854.854,0,0,1-.961-.168c-.4-.434-.451-.071-1.006-.314S1.046,7.47.37,7.421C-.116,7.387-.08,6.8.228,6.209c.41-.8,2.649-3.024,3.346-2.8L4.969,0,7.421,2.723Z"
                                  transform="translate(0)" fill="#ffcfc9"/>
                        </g>
                        <path id="SHADOW" d="M628.034,380.839a45.422,45.422,0,0,1-7.434-6.4"
                              transform="translate(-600.168 -337.462)" fill="none" stroke="#d8baa3"
                              stroke-miterlimit="10" stroke-width="1" opacity="0.39"/>
                    </g>
                </g>
            </g>
        </g>
        <g id="Group_1420" data-name="Group 1420">
            <g id="search_7_" data-name="search (7)" transform="translate(1147.828 508.469)">
                <path id="Path_2433" data-name="Path 2433"
                      d="M2.93,10.631l-.46,1.718-1.682.036A6.623,6.623,0,0,1,.739,6.211h0l1.5.275.656,1.489a3.946,3.946,0,0,0,.037,2.657Z"
                      transform="translate(0 -2.64)" fill="#fbbb00"/>
                <path id="Path_2434" data-name="Path 2434"
                      d="M18.1,9.352a6.609,6.609,0,0,1-2.357,6.391h0l-1.886-.1-.267-1.667a3.94,3.94,0,0,0,1.7-2.012H11.753V9.352H18.1Z"
                      transform="translate(-4.996 -3.975)" fill="#518ef8"/>
                <path id="Path_2435" data-name="Path 2435"
                      d="M11.333,17.675h0a6.614,6.614,0,0,1-9.962-2.023L3.513,13.9a3.932,3.932,0,0,0,5.666,2.013Z"
                      transform="translate(-0.583 -5.909)" fill="#28b446"/>
                <path id="Path_2436" data-name="Path 2436"
                      d="M11.378,1.522,9.236,3.276a3.932,3.932,0,0,0-5.8,2.059L1.286,3.571h0A6.613,6.613,0,0,1,11.378,1.522Z"
                      transform="translate(-0.547)" fill="#f14336"/>
            </g>
            <g id="github-logo" transform="translate(1100.142 463.807)">
                <path id="Path_3190" data-name="Path 3190"
                      d="M29.978,8.54a16,16,0,0,0-5.847-5.847A15.715,15.715,0,0,0,16.066.538,15.716,15.716,0,0,0,8,2.693,16,16,0,0,0,2.155,8.54,15.716,15.716,0,0,0,0,16.6a15.614,15.614,0,0,0,3.065,9.445,15.735,15.735,0,0,0,7.918,5.805.936.936,0,0,0,.837-.146.818.818,0,0,0,.272-.627q0-.063-.011-1.13T12.07,28.09l-.481.083a6.138,6.138,0,0,1-1.161.073A8.846,8.846,0,0,1,8.974,28.1a3.249,3.249,0,0,1-1.4-.627,2.654,2.654,0,0,1-.92-1.286L6.443,25.7a5.227,5.227,0,0,0-.659-1.067,2.524,2.524,0,0,0-.91-.795l-.146-.1a1.536,1.536,0,0,1-.272-.251,1.148,1.148,0,0,1-.188-.293q-.063-.147.1-.241a1.357,1.357,0,0,1,.607-.093l.418.063a3.054,3.054,0,0,1,1.036.5,3.376,3.376,0,0,1,1.015,1.087,3.688,3.688,0,0,0,1.161,1.308,2.463,2.463,0,0,0,1.37.45,5.949,5.949,0,0,0,1.192-.1,4.161,4.161,0,0,0,.941-.314A3.389,3.389,0,0,1,13.137,23.7a14.324,14.324,0,0,1-2.144-.377A8.538,8.538,0,0,1,9.027,22.5a5.632,5.632,0,0,1-1.684-1.4,6.736,6.736,0,0,1-1.1-2.2,10.446,10.446,0,0,1-.429-3.138,6.1,6.1,0,0,1,1.653-4.31A5.624,5.624,0,0,1,7.615,7.19a2.931,2.931,0,0,1,1.8.282,12.578,12.578,0,0,1,1.747.806q.555.334.889.565a15.108,15.108,0,0,1,8.034,0l.795-.5A11.259,11.259,0,0,1,22.8,7.42a2.742,2.742,0,0,1,1.7-.23,5.57,5.57,0,0,1,.167,4.267,6.1,6.1,0,0,1,1.653,4.31,10.562,10.562,0,0,1-.429,3.148,6.474,6.474,0,0,1-1.108,2.2A5.848,5.848,0,0,1,23.085,22.5a8.554,8.554,0,0,1-1.967.816,14.309,14.309,0,0,1-2.144.377,3.726,3.726,0,0,1,1.088,2.97V31.08a.833.833,0,0,0,.262.627.909.909,0,0,0,.826.146,15.733,15.733,0,0,0,7.918-5.805A15.617,15.617,0,0,0,32.133,16.6,15.729,15.729,0,0,0,29.978,8.54Z"
                      transform="translate(0 -0.538)"/>
            </g>
            <g id="facebook_8_" data-name="facebook (8)" transform="translate(1140 473.952)">
                <path id="Intersection_2" data-name="Intersection 2"
                      d="M-8248.5-7034.4a9,9,0,0,1,9-9,9,9,0,0,1,9,9,9,9,0,0,1-9,9A9,9,0,0,1-8248.5-7034.4Z"
                      transform="translate(8249 7043.952)" fill="#1976d2"/>
                <path id="Intersection_3" data-name="Intersection 3"
                      d="M-8241.1-7025.952v-6.215h-2.348v-2.936h2.348v-2.35a3.525,3.525,0,0,1,3.526-3.524h2.348v2.938h-1.174c-.65,0-1.174-.062-1.174.586v2.35h2.936l-1.174,2.936h-1.762v5.542a8.969,8.969,0,0,1-3.423.674Z"
                      transform="translate(8250.5 7044.5)" fill="#fff"/>
            </g>
        </g>
    </g>
</svg>
