<?xml version="1.0" encoding="utf-8"?>

<!--
 * Copyright (c) 2020, WSO2 Inc. (http://www.wso2.org) All Rights Reserved.
 *
 * WSO2 Inc. licenses this file to you under the Apache License,
 * Version 2.0 (the "License"); you may not use this file except
 * in compliance with the License.
 * You may obtain a copy of the License at
 *
 *     http://www.apache.org/licenses/LICENSE-2.0
 *
 * Unless required by applicable law or agreed to in writing,
 * software distributed under the License is distributed on an
 * "AS IS" BASIS, WITHOUT WARRANTIES OR CONDITIONS OF ANY
 * KIND, either express or implied. See the License for the
 * specific language governing permissions and limitations
 * under the License.
-->

<svg xmlns="http://www.w3.org/2000/svg" width="110.001" height="80.999" viewBox="0 0 110.001 80.999">
  <g id="box" transform="translate(-239.999 -341)">
    <path id="Path_397" data-name="Path 397" d="M-11603-2298a30,30,0,0,1-30-30,30.009,30.009,0,0,1,25.6-29.68A27.015,27.015,0,0,1-11581-2379a27.013,27.013,0,0,1,25.8,19.023q.6-.023,1.2-.023a31,31,0,0,1,31,31,31,31,0,0,1-31,31Z" transform="translate(11873 2720)" fill="#1581c2"/>
    <path id="Union_34" data-name="Union 34" d="M-11628.534-2339.966a15.163,15.163,0,0,1-4.467-10.785c0-.1,0-.191,0-.286V-2376a3,3,0,0,1,3-3,3,3,0,0,1,3,3v13.12a15.139,15.139,0,0,1,9.249-3.121,15.152,15.152,0,0,1,10.785,4.467,15.147,15.147,0,0,1,4.464,10.781,15.16,15.16,0,0,1-4.464,10.785,15.164,15.164,0,0,1-10.785,4.467A15.164,15.164,0,0,1-11628.534-2339.966Zm1.535-10.785a9.262,9.262,0,0,0,9.249,9.252,9.261,9.261,0,0,0,9.249-9.252,9.259,9.259,0,0,0-9.249-9.249A9.259,9.259,0,0,0-11627-2350.751Z" transform="translate(11889.999 2748)" fill="#fff"/>
    <path id="Subtraction_77" data-name="Subtraction 77" d="M-11617.75-2348.5a15.154,15.154,0,0,1-10.784-4.467,15.153,15.153,0,0,1-4.467-10.784,15.149,15.149,0,0,1,4.467-10.782,15.153,15.153,0,0,1,10.784-4.467,15.149,15.149,0,0,1,10.783,4.467,15.149,15.149,0,0,1,4.466,10.782,15.153,15.153,0,0,1-4.466,10.784A15.15,15.15,0,0,1-11617.75-2348.5Zm0-24.5a9.26,9.26,0,0,0-9.249,9.249,9.261,9.261,0,0,0,9.249,9.252,9.261,9.261,0,0,0,9.249-9.252A9.26,9.26,0,0,0-11617.75-2373Z" transform="translate(11917 2761)" fill="#fff"/>
    <path id="Union_33" data-name="Union 33" d="M-11612.537-2348.235l-6.934-9.2-6.933,9.2a3,3,0,0,1-4.2.59,3,3,0,0,1-.59-4.2l7.968-10.574-7.968-10.574a3,3,0,0,1,.59-4.2,3,3,0,0,1,4.2.59l6.933,9.2,6.934-9.2a3,3,0,0,1,4.2-.59,3,3,0,0,1,.59,4.2l-7.969,10.574,7.969,10.574a3,3,0,0,1-.59,4.2,2.984,2.984,0,0,1-1.8.6A3,3,0,0,1-11612.537-2348.235Z" transform="translate(11943 2759.524)" fill="#fff"/>
  </g>
</svg>
