<?xml version="1.0" encoding="utf-8"?>

<!--
 * Copyright (c) 2020, WSO2 Inc. (http://www.wso2.org) All Rights Reserved.
 *
 * WSO2 Inc. licenses this file to you under the Apache License,
 * Version 2.0 (the "License"); you may not use this file except
 * in compliance with the License.
 * You may obtain a copy of the License at
 *
 *     http://www.apache.org/licenses/LICENSE-2.0
 *
 * Unless required by applicable law or agreed to in writing,
 * software distributed under the License is distributed on an
 * "AS IS" BASIS, WITHOUT WARRANTIES OR CONDITIONS OF ANY
 * KIND, either express or implied. See the License for the
 * specific language governing permissions and limitations
 * under the License.
-->

<svg id="slack-illustration" class="icon" xmlns="http://www.w3.org/2000/svg" width="80" height="80" viewBox="0 0 80 80">
  <g id="slack" transform="translate(-232.999 -145)">
    <rect id="Rectangle_2" data-name="Rectangle 2" width="80" height="80" transform="translate(232.999 145)" fill="#fff" opacity="0"/>
    <path id="Path_3" data-name="Path 3" d="M-11615.965-2217.579v-6.693a6.693,6.693,0,0,1,6.692-6.692,6.691,6.691,0,0,1,6.691,6.692,6.692,6.692,0,0,1-6.69,6.693Zm-17.035-6.693v-17.036a6.692,6.692,0,0,1,6.691-6.692,6.694,6.694,0,0,1,6.693,6.692v17.036a6.694,6.694,0,0,1-6.693,6.693,6.693,6.693,0,0,1-6.691-6.69Z" transform="translate(11907.463 2400.945)" fill="#2db67e"/>
    <path id="Path_4" data-name="Path 4" d="M-11633-2355.271v-6.693h6.691a6.694,6.694,0,0,1,6.693,6.693,6.694,6.694,0,0,1-6.693,6.693,6.692,6.692,0,0,1-6.691-6.691Zm6.691-10.343a6.692,6.692,0,0,1-6.691-6.689,6.693,6.693,0,0,1,6.691-6.695h17.037a6.691,6.691,0,0,1,6.691,6.693,6.693,6.693,0,0,1-6.693,6.692Z" transform="translate(11907.463 2565.409)" fill="#ebb22f"/>
    <path id="Path_5" data-name="Path 5" d="M-11615.965-2355.271v-17.036a6.693,6.693,0,0,1,6.692-6.693,6.693,6.693,0,0,1,6.693,6.693l0,17.036a6.691,6.691,0,0,1-6.691,6.693,6.7,6.7,0,0,1-6.694-6.693Zm-17.035-17.036a6.693,6.693,0,0,1,6.693-6.693h6.691v6.693a6.7,6.7,0,0,1-6.694,6.692,6.692,6.692,0,0,1-6.69-6.688Z" transform="translate(11873.999 2565.409)" fill="#df1d5a"/>
    <path id="Path_6" data-name="Path 6" d="M-11626.309-2348.579a6.693,6.693,0,0,1-6.691-6.691,6.693,6.693,0,0,1,6.691-6.695h17.037a6.693,6.693,0,0,1,6.692,6.693,6.69,6.69,0,0,1-6.692,6.693Zm17.037-17.036a6.7,6.7,0,0,1-6.7-6.692,6.693,6.693,0,0,1,6.692-6.693,6.693,6.693,0,0,1,6.693,6.693v6.692Z" transform="translate(11873.999 2531.945)" fill="#36c4f2"/>
  </g>
</svg>
