<!--
 * Copyright (c) 2020, WSO2 Inc. (http://www.wso2.org) All Rights Reserved.
 *
 * WSO2 Inc. licenses this file to you under the Apache License,
 * Version 2.0 (the "License"); you may not use this file except
 * in compliance with the License.
 * You may obtain a copy of the License at
 *
 *     http://www.apache.org/licenses/LICENSE-2.0
 *
 * Unless required by applicable law or agreed to in writing,
 * software distributed under the License is distributed on an
 * "AS IS" BASIS, WITHOUT WARRANTIES OR CONDITIONS OF ANY
 * KIND, either express or implied. See the License for the
 * specific language governing permissions and limitations
 * under the License.
-->

<svg xmlns="http://www.w3.org/2000/svg" class="icon" width="14" height="14" viewBox="0 0 14 14">
    <path id="other-settings" class="path fill primary"
          d="M2.5,14A2.5,2.5,0,0,1,1.256,9.331l-.023.014A5.912,5.912,0,0,1,1,8.673L.318,8.5a.275.275,0,0,1-.2-.214,7.083,7.083,0,0,1,0-2.564.273.273,0,0,1,.2-.214L1,5.326a6.161,6.161,0,0,1,.57-1.379L1.2,3.371a.271.271,0,0,1,0-.3A7.008,7.008,0,0,1,3.07,1.206a.277.277,0,0,1,.154-.048.268.268,0,0,1,.148.044l.577.369A6.214,6.214,0,0,1,5.326,1L5.5.318a.271.271,0,0,1,.214-.2,7.083,7.083,0,0,1,2.564,0,.271.271,0,0,1,.214.2L8.673,1a6.161,6.161,0,0,1,1.378.57l.577-.369a.268.268,0,0,1,.148-.044.277.277,0,0,1,.154.048A7.008,7.008,0,0,1,12.793,3.07a.271.271,0,0,1,0,.3l-.37.577A6.153,6.153,0,0,1,13,5.326l.685.177a.273.273,0,0,1,.2.214,7.083,7.083,0,0,1,0,2.564.275.275,0,0,1-.2.214L13,8.673a6.075,6.075,0,0,1-.229.671h0A2.5,2.5,0,0,1,11.5,14ZM9.05,11.449a1.3,1.3,0,1,0,1.3-1.3A1.3,1.3,0,0,0,9.05,11.449Zm-3.3,0a1.3,1.3,0,1,0,1.3-1.3A1.3,1.3,0,0,0,5.75,11.449Zm-3.3,0a1.3,1.3,0,1,0,1.3-1.3A1.3,1.3,0,0,0,2.45,11.449ZM1.257,9.331l.022-.013Zm.028-.016L1.3,9.3ZM1.314,9.3,1.33,9.29Zm.033-.017.01-.005Zm11.17-.067a2.411,2.411,0,0,0-.248-.1,5.6,5.6,0,0,0,.239-.737.273.273,0,0,1,.2-.2l.668-.173a6.494,6.494,0,0,0,0-2.022l-.668-.173a.274.274,0,0,1-.2-.2,5.624,5.624,0,0,0-.636-1.535.274.274,0,0,1,0-.288l.361-.563a6.458,6.458,0,0,0-1.468-1.469l-.563.361a.277.277,0,0,1-.148.043.28.28,0,0,1-.141-.039A5.624,5.624,0,0,0,8.382,1.49a.271.271,0,0,1-.2-.2L8.011.626a6.494,6.494,0,0,0-2.022,0l-.173.669a.271.271,0,0,1-.2.2,5.624,5.624,0,0,0-1.535.636.28.28,0,0,1-.141.039.277.277,0,0,1-.148-.043L3.23,1.761A6.477,6.477,0,0,0,1.762,3.23l.361.563a.274.274,0,0,1,0,.288,5.624,5.624,0,0,0-.636,1.535.274.274,0,0,1-.2.2l-.668.173a6.494,6.494,0,0,0,0,2.022l.668.173a.273.273,0,0,1,.2.2,5.6,5.6,0,0,0,.239.738,2.483,2.483,0,0,1,.594-.115,5.038,5.038,0,0,1-.4-1.987,5.1,5.1,0,0,1,10.2,0,5.044,5.044,0,0,1-.406,1.99h0A2.481,2.481,0,0,1,12.517,9.215ZM11.058,9a4.438,4.438,0,0,0,.461-1.981,4.5,4.5,0,0,0-9,0A4.441,4.441,0,0,0,2.98,9H5.947a2.259,2.259,0,1,1,2.1,0ZM5.287,7A1.712,1.712,0,1,0,7,5.287,1.714,1.714,0,0,0,5.287,7Zm4.361,4.449a.7.7,0,1,1,.7.7A.7.7,0,0,1,9.649,11.449Zm-3.3,0a.7.7,0,1,1,.7.7A.7.7,0,0,1,6.35,11.449Zm-3.3,0a.7.7,0,1,1,.7.7A.7.7,0,0,1,3.049,11.449Z"
          fill="#464646"/>
</svg>
