<?xml version="1.0" encoding="utf-8"?>

<!--
 * Copyright (c) 2020, WSO2 Inc. (http://www.wso2.org) All Rights Reserved.
 *
 * WSO2 Inc. licenses this file to you under the Apache License,
 * Version 2.0 (the "License"); you may not use this file except
 * in compliance with the License.
 * You may obtain a copy of the License at
 *
 *     http://www.apache.org/licenses/LICENSE-2.0
 *
 * Unless required by applicable law or agreed to in writing,
 * software distributed under the License is distributed on an
 * "AS IS" BASIS, WITHOUT WARRANTIES OR CONDITIONS OF ANY
 * KIND, either express or implied. See the License for the
 * specific language governing permissions and limitations
 * under the License.
-->

<svg id="ad-illustration" width="100" height="100" viewBox="0 0 100 100" fill="none" xmlns="http://www.w3.org/2000/svg">
    <path
        d="M76.5002 50L55.0525 20M76.5002 50L65.5002 79.2069M76.5002 50L85.5392 79M23.5002 50L44.9472 20M23.5002 50L14.8379 79M23.5002 50L34.5002 79.2069"
        stroke="#4C5153" />
    <rect x="40.5" y="2.5" width="19" height="19" rx="9.5" fill="url(#paint0_linear_1756_82)" fill-opacity="0.4" />
    <rect x="40.5" y="2.5" width="19" height="19" rx="9.5" stroke="#4C5153" />
    <rect x="12.5" y="38.5" width="23" height="23" rx="11.5" fill="url(#paint1_linear_1756_82)" />
    <rect x="12.5" y="38.5" width="23" height="23" rx="11.5" stroke="#4C5153" />
    <rect x="2.5" y="78.5" width="19" height="19" rx="9.5" fill="url(#paint2_linear_1756_82)" fill-opacity="0.4" />
    <rect x="2.5" y="78.5" width="19" height="19" rx="9.5" stroke="#4C5153" />
    <rect x="52.5" y="78.5" width="19" height="19" rx="9.5" fill="url(#paint3_linear_1756_82)" fill-opacity="0.4" />
    <rect x="52.5" y="78.5" width="19" height="19" rx="9.5" stroke="#4C5153" />
    <rect x="28.5" y="78.5" width="19" height="19" rx="9.5" fill="url(#paint4_linear_1756_82)" fill-opacity="0.4" />
    <rect x="28.5" y="78.5" width="19" height="19" rx="9.5" stroke="#4C5153" />
    <rect x="78.5" y="78.5" width="19" height="19" rx="9.5" fill="url(#paint5_linear_1756_82)" fill-opacity="0.4" />
    <rect x="78.5" y="78.5" width="19" height="19" rx="9.5" stroke="#4C5153" />
    <rect x="64.5" y="38.5" width="23" height="23" rx="11.5" fill="url(#paint6_linear_1756_82)" />
    <rect x="64.5" y="38.5" width="23" height="23" rx="11.5" stroke="#4C5153" />
    <rect x="40.5" y="45.5" width="3" height="9" rx="1.5" fill="url(#paint7_linear_1756_82)" stroke="#4C5153" />
    <rect x="47.5" y="43.5" width="5" height="13" rx="2.5" fill="url(#paint8_linear_1756_82)" stroke="#4C5153" />
    <rect x="56.5" y="45.5" width="3" height="9" rx="1.5" fill="url(#paint9_linear_1756_82)" stroke="#4C5153" />
    <defs>
        <linearGradient id="paint0_linear_1756_82" x1="50" y1="2" x2="50" y2="22" gradientUnits="userSpaceOnUse">
            <stop stop-color="#EE575C" />
            <stop offset="1" stop-color="#F67147" />
        </linearGradient>
        <linearGradient id="paint1_linear_1756_82" x1="24" y1="38" x2="24" y2="62" gradientUnits="userSpaceOnUse">
            <stop stop-color="#EF595C" />
            <stop offset="1" stop-color="#F67049" />
        </linearGradient>
        <linearGradient id="paint2_linear_1756_82" x1="12" y1="78" x2="12" y2="98" gradientUnits="userSpaceOnUse">
            <stop stop-color="#EE575C" />
            <stop offset="1" stop-color="#F67147" />
        </linearGradient>
        <linearGradient id="paint3_linear_1756_82" x1="62" y1="78" x2="62" y2="98" gradientUnits="userSpaceOnUse">
            <stop stop-color="#EE575C" />
            <stop offset="1" stop-color="#F67147" />
        </linearGradient>
        <linearGradient id="paint4_linear_1756_82" x1="38" y1="78" x2="38" y2="98" gradientUnits="userSpaceOnUse">
            <stop stop-color="#EE575C" />
            <stop offset="1" stop-color="#F67147" />
        </linearGradient>
        <linearGradient id="paint5_linear_1756_82" x1="88" y1="78" x2="88" y2="98" gradientUnits="userSpaceOnUse">
            <stop stop-color="#EE575C" />
            <stop offset="1" stop-color="#F67147" />
        </linearGradient>
        <linearGradient id="paint6_linear_1756_82" x1="76" y1="38" x2="76" y2="62" gradientUnits="userSpaceOnUse">
            <stop stop-color="#EF595C" />
            <stop offset="1" stop-color="#F67049" />
        </linearGradient>
        <linearGradient id="paint7_linear_1756_82" x1="42" y1="45" x2="42" y2="55" gradientUnits="userSpaceOnUse">
            <stop stop-color="#EF595C" />
            <stop offset="1" stop-color="#F67049" />
        </linearGradient>
        <linearGradient id="paint8_linear_1756_82" x1="50" y1="43" x2="50" y2="57" gradientUnits="userSpaceOnUse">
            <stop stop-color="#EF595C" />
            <stop offset="1" stop-color="#F67049" />
        </linearGradient>
        <linearGradient id="paint9_linear_1756_82" x1="58" y1="45" x2="58" y2="55" gradientUnits="userSpaceOnUse">
            <stop stop-color="#EF595C" />
            <stop offset="1" stop-color="#F67049" />
        </linearGradient>
    </defs>
</svg>
