<?xml version="1.0" encoding="utf-8"?>

<!--
 * Copyright (c) 2023, WSO2 Inc. (http://www.wso2.org) All Rights Reserved.
 *
 * WSO2 Inc. licenses this file to you under the Apache License,
 * Version 2.0 (the "License"); you may not use this file except
 * in compliance with the License.
 * You may obtain a copy of the License at
 *
 *     http://www.apache.org/licenses/LICENSE-2.0
 *
 * Unless required by applicable law or agreed to in writing,
 * software distributed under the License is distributed on an
 * "AS IS" BASIS, WITHOUT WARRANTIES OR CONDITIONS OF ANY
 * KIND, either express or implied. See the License for the
 * specific language governing permissions and limitations
 * under the License.
-->

<svg class="icon" width="100" height="100" viewBox="0 0 100 100" fill="none" xmlns="http://www.w3.org/2000/svg">
    <path
        d="M73.0735 52.3483L54.2653 26M73.0735 52.3483L63.4273 78M73.0735 52.3483L81 77.8183M26.5963 52.3483L45.4037 26M26.5963 52.3483L19 77.8183M26.5963 52.3483L36.2425 78"
        stroke="#67777E" />
    <rect x="41" y="10" width="18" height="17" rx="8.5" fill="#67777E" />
    <rect x="17" y="41" width="21" height="21" rx="10.5" fill="url(#paint0_linear_1913_192)" />
    <rect x="8" y="76" width="18" height="18" rx="9" fill="#67777E" />
    <rect x="52" y="76" width="17" height="18" rx="8.5" fill="#67777E" />
    <rect x="31" y="76" width="17" height="18" rx="8.5" fill="#67777E" />
    <rect x="75" y="76" width="17" height="18" rx="8.5" fill="#67777E" />
    <rect x="62" y="41" width="21" height="21" rx="10.5" fill="url(#paint1_linear_1913_192)" />
    <rect x="41" y="48" width="4" height="8" rx="2" fill="#263238" />
    <rect x="41" y="48" width="4" height="8" rx="2" stroke="white" />
    <rect x="47" y="46" width="6" height="12" rx="3" fill="#263238" />
    <rect x="47" y="46" width="6" height="12" rx="3" stroke="#ECECEC" />
    <rect x="55" y="48" width="4" height="8" rx="2" fill="#263238" />
    <rect x="55" y="48" width="4" height="8" rx="2" stroke="white" />
    <defs>
        <linearGradient id="paint0_linear_1913_192" x1="27.5" y1="41" x2="27.5" y2="62" gradientUnits="userSpaceOnUse">
            <stop stop-color="#EF595C" />
            <stop offset="1" stop-color="#F67049" />
        </linearGradient>
        <linearGradient id="paint1_linear_1913_192" x1="72.5" y1="41" x2="72.5" y2="62" gradientUnits="userSpaceOnUse">
            <stop stop-color="#EF595C" />
            <stop offset="1" stop-color="#F67049" />
        </linearGradient>
    </defs>
</svg>
