<?xml version="1.0" encoding="utf-8"?>

<!--
 * Copyright (c) 2019, WSO2 Inc. (http://www.wso2.org) All Rights Reserved.
 *
 * WSO2 Inc. licenses this file to you under the Apache License,
 * Version 2.0 (the "License"); you may not use this file except
 * in compliance with the License.
 * You may obtain a copy of the License at
 *
 *     http://www.apache.org/licenses/LICENSE-2.0
 *
 * Unless required by applicable law or agreed to in writing,
 * software distributed under the License is distributed on an
 * "AS IS" BASIS, WITHOUT WARRANTIES OR CONDITIONS OF ANY
 * KIND, either express or implied. See the License for the
 * specific language governing permissions and limitations
 * under the License.
-->

<svg version="1.1" class="icon" id="associated-accounts" xmlns="http://www.w3.org/2000/svg" xmlns:xlink="http://www.w3.org/1999/xlink" x="0px" y="0px" width="227.833px" height="100px" viewBox="0 0 227.833 100" xml:space="preserve">
	<g id="browser">
		<rect id="tab-bg" x="2.741" y="4.508" class="path fill white" width="95.326" height="9.137" />
		<rect id="body-bg" x="3.394" y="13.589" fill="#F8F9FA" width="94.673" height="68.688" />
		<g id="user_2_">
			<g>
				<path class="path fill tertiary" d="M59.78,37.749c-1.408-1.408-3.084-2.451-4.913-3.083c1.959-1.349,3.247-3.606,3.247-6.16      c0-4.122-3.354-7.475-7.476-7.475s-7.475,3.353-7.475,7.475c0,2.554,1.286,4.812,3.246,6.16      c-1.829,0.631-3.505,1.675-4.914,3.083c-2.442,2.441-3.788,5.69-3.788,9.143h2.021c0-6.016,4.895-10.91,10.91-10.91      c6.016,0,10.909,4.895,10.909,10.91h2.021C63.568,43.439,62.222,40.19,59.78,37.749z M50.638,33.961      c-3.007,0-5.455-2.447-5.455-5.455s2.448-5.454,5.455-5.454c3.008,0,5.454,2.446,5.454,5.454S53.646,33.961,50.638,33.961z" />
			</g>
		</g>
		<rect id="text-line-1" x="17.768" y="52.988" class="path fill tertiary" width="65.74" height="1.446" />
		<rect id="text-line-2" x="23.343" y="56.436" class="path fill tertiary" width="54.626" height="1.448" />
		<rect id="text-line-3" x="31.164" y="59.827" class="path fill tertiary" width="38.984" height="1.447" />
		<polygon id="star" class="path fill tertiary" points="41.57,68.454 42.415,70.167 44.306,70.442 42.938,71.776 43.261,73.659 41.57,72.77     39.878,73.659 40.202,71.776 38.833,70.442 40.724,70.167  " />
		<rect id="divider-top" x="3.793" y="12.455" class="path fill tertiary" width="93.916" height="2.268" />
		<circle id="browser-button-1" class="path fill tertiary" cx="7.289" cy="8.856" r="1.332" />
		<circle id="browser-button-2" class="path fill tertiary" cx="10.839" cy="8.856" r="1.332" />
		<circle id="browser-button-3" class="path fill tertiary" cx="14.488" cy="8.856" r="1.331" />
		<path id="button" class="path fill tertiary" d="M35.036,72.536c0,0.489-0.412,0.887-0.919,0.887h-15.43c-0.507,0-0.918-0.398-0.918-0.887    v-2.959c0-0.49,0.411-0.888,0.918-0.888h15.43c0.507,0,0.919,0.397,0.919,0.888V72.536z" />
		<path id="outer-rounded-rect" class="path fill tertiary" d="M96.457,2.691H5.046c-1.729,0-3.132,1.402-3.132,3.132v73.839    c0,1.73,1.402,3.132,3.132,3.132h91.411c1.73,0,3.132-1.402,3.132-3.132V5.823C99.588,4.093,98.187,2.691,96.457,2.691z     M97.709,77.988c0,1.652-1.349,2.989-3.011,2.989H6.803c-1.662,0-3.01-1.337-3.01-2.989V7.497c0-1.651,1.348-2.989,3.01-2.989    h87.895c1.662,0,3.011,1.338,3.011,2.989V77.988z" />
	</g>
	<g id="link">
		<path class="path fill tertiary" d="M218.878,49.134c5.905-3.131,8.186-10.566,5.053-16.471c-3.131-5.903-10.566-8.184-16.469-5.053    l-8.866,4.703c-1.716,0.911-3.124,2.176-4.184,3.658c-1.871,0.05-3.717,0.534-5.382,1.417l-8.865,4.703    c-5.905,3.132-8.186,10.566-5.054,16.47c3.131,5.904,10.566,8.186,16.47,5.053l8.866-4.703c1.716-0.911,3.124-2.176,4.185-3.657    c1.871-0.05,3.717-0.534,5.382-1.417L218.878,49.134z M192.255,44.87c0.197,1.333,0.621,2.655,1.288,3.913    c0.65,1.226,1.505,2.328,2.518,3.261l-8.285,4.395c-1.949,1.034-4.438,0.27-5.473-1.678c-1.05-1.98-0.294-4.44,1.685-5.49    L192.255,44.87z M199.179,56.52l-8.865,4.702c-4.59,2.434-10.38,0.652-12.811-3.931c-2.432-4.584-0.655-10.378,3.931-12.81    l8.866-4.703c0.816-0.434,1.687-0.743,2.584-0.922c-0.359,0.973-0.594,1.99-0.698,3.025c-0.209,0.085-0.416,0.181-0.618,0.289    l-8.848,4.707c-3.301,1.751-4.558,5.85-2.807,9.15c1.735,3.271,5.862,4.537,9.132,2.802l8.866-4.703    c3.269-1.733,4.57-5.83,2.808-9.149c-0.703-1.326-0.595-2.87,0.148-4.059c0.913,0.774,1.678,1.723,2.244,2.79    C205.558,48.324,203.794,54.071,199.179,56.52z M206.788,46.354c-0.197-1.334-0.621-2.657-1.288-3.913    c-0.649-1.226-1.505-2.329-2.518-3.261l8.284-4.395c1.95-1.035,4.439-0.271,5.473,1.679c1.051,1.979,0.312,4.445-1.666,5.495    L206.788,46.354z M206.161,52.368c0.359-0.974,0.594-1.99,0.698-3.026c0.209-0.084,0.417-0.181,0.617-0.288l8.866-4.703    c3.271-1.734,4.543-5.879,2.807-9.15c-1.735-3.271-5.879-4.543-9.15-2.808l-8.865,4.704c-3.268,1.733-4.57,5.829-2.807,9.15    c0.703,1.324,0.593,2.868-0.149,4.057c-0.913-0.774-1.677-1.723-2.244-2.79c-2.448-4.616-0.685-10.361,3.93-12.81l8.866-4.703    c4.586-2.433,10.377-0.656,12.81,3.93c2.433,4.586,0.656,10.378-3.931,12.81l-8.865,4.703    C207.93,51.878,207.058,52.187,206.161,52.368z" />
		<path class="path fill tertiary" d="M209.598,61.719c-0.35-0.662-1.169-0.913-1.83-0.562c-0.661,0.35-0.912,1.169-0.562,1.83l1.269,2.391    c0.35,0.661,1.17,0.912,1.83,0.562c0.66-0.35,0.912-1.169,0.561-1.83L209.598,61.719z" />
		<path class="path fill tertiary" d="M189.446,29.505c0.351,0.66,1.17,0.912,1.83,0.562s0.911-1.169,0.561-1.83l-1.268-2.392    c-0.351-0.661-1.169-0.913-1.83-0.562c-0.66,0.35-0.911,1.169-0.562,1.83L189.446,29.505z" />
		<path class="path fill tertiary" d="M218.596,55.959l-2.294-1.438c-0.633-0.396-1.47-0.204-1.866,0.429c-0.396,0.634-0.205,1.469,0.429,1.866    l2.294,1.436c0.633,0.397,1.47,0.205,1.865-0.429C219.42,57.191,219.229,56.355,218.596,55.959z" />
		<path class="path fill tertiary" d="M180.448,35.264c2.521,1.578,2.391,1.515,2.617,1.584c0.572,0.175,1.212-0.046,1.544-0.576    c0.396-0.634,0.204-1.469-0.429-1.865l-2.294-1.438c-0.632-0.396-1.469-0.205-1.865,0.43    C179.623,34.033,179.815,34.868,180.448,35.264z" />
		<path class="path fill tertiary" d="M200.194,64.598c0.027-0.747-0.557-1.374-1.304-1.401c-0.747-0.026-1.375,0.556-1.402,1.305l-0.097,2.705    c-0.025,0.747,0.558,1.374,1.305,1.4c0.748,0.028,1.375-0.557,1.401-1.303L200.194,64.598z" />
		<path class="path fill tertiary" d="M198.849,26.626c-0.027,0.747,0.558,1.375,1.304,1.401c0.746,0.027,1.375-0.557,1.401-1.305l0.097-2.705    c0.027-0.747-0.557-1.374-1.303-1.4c-0.748-0.028-1.375,0.556-1.402,1.303L198.849,26.626z" />
	</g>
	<g id="account_secondary">
		<path id="shield_1_" class="path fill blue" d="M180.545,16.476l-26.87-14.318c-0.398-0.213-0.876-0.21-1.272,0.007l-26.127,14.318    c-0.428,0.234-0.695,0.684-0.695,1.173v18.703c0.016,15.375,9.125,29.283,23.211,35.443l3.627,1.58    c0.338,0.147,0.725,0.147,1.063,0.001l4.087-1.765c14.348-6.026,23.682-20.069,23.684-35.63V17.657    C181.254,17.163,180.98,16.708,180.545,16.476z M128.256,36.359 M156.522,69.159" />
		<g id="user_1_">
			<g>
				<path class="path fill white" d="M163.727,39.618c-1.589-1.587-3.478-2.763-5.541-3.474c2.209-1.521,3.66-4.067,3.66-6.946      c0-4.647-3.781-8.428-8.429-8.428c-4.647,0-8.427,3.78-8.427,8.428c0,2.879,1.451,5.425,3.659,6.946      c-2.062,0.711-3.952,1.887-5.541,3.474c-2.753,2.754-4.27,6.415-4.27,10.309h2.278c0-6.783,5.518-12.301,12.3-12.301      c6.783,0,12.301,5.518,12.301,12.301h2.278C167.996,46.033,166.48,42.372,163.727,39.618z M153.417,35.349      c-3.391,0-6.149-2.759-6.149-6.151s2.758-6.15,6.149-6.15c3.392,0,6.152,2.758,6.152,6.15S156.809,35.349,153.417,35.349z" />
			</g>
		</g>
	</g>
	<g id="account_primary">
	<defs>
		<filter id="f1" x="0" y="0" width="200%" height="200%">
			<feOffset result="offOut" in="SourceAlpha" dx="1" dy="1"/>
			<feBlend in="SourceGraphic" in2="blurOut" mode="normal"/>
			<feGaussianBlur result="blurOut" in="offOut" stdDeviation="1"/>
			<feComponentTransfer>
				<feFuncA type="linear" slope="0.3"/>
			</feComponentTransfer>
			<feMerge>
				<feMergeNode></feMergeNode>
				<feMergeNode in="SourceGraphic"></feMergeNode>
			</feMerge>
		</filter>
	</defs>
		<g>
			<g>
				<path filter="url(#f1)" id="shield_15_" class="path fill primary" d="M150.251,28.189l-31.323-16.69c-0.465-0.249-1.021-0.245-1.483,0.009l-30.456,16.69     c-0.499,0.273-0.81,0.797-0.81,1.367v21.802c0.018,17.923,10.637,34.135,27.057,41.316l4.229,1.842     c0.394,0.172,0.845,0.172,1.24,0.001l4.764-2.057c16.726-7.025,27.606-23.395,27.608-41.535v-21.37     C151.077,28.99,150.758,28.459,150.251,28.189z M89.297,51.367 M122.247,89.601" />
				<g id="user_13_">
					<g>
						<path class="path fill white" d="M130.645,55.166c-1.853-1.85-4.054-3.221-6.458-4.05c2.575-1.773,4.266-4.741,4.266-8.097       c0-5.418-4.407-9.824-9.825-9.824c-5.417,0-9.824,4.406-9.824,9.824c0,3.356,1.692,6.324,4.266,8.097       c-2.403,0.829-4.607,2.2-6.459,4.05c-3.209,3.21-4.977,7.479-4.977,12.018h2.655c0-7.907,6.432-14.339,14.338-14.339       c7.907,0,14.34,6.432,14.34,14.339h2.655C135.622,62.644,133.855,58.375,130.645,55.166z M118.627,50.188       c-3.953,0-7.169-3.216-7.169-7.17s3.216-7.169,7.169-7.169c3.954,0,7.171,3.215,7.171,7.169S122.582,50.188,118.627,50.188z" />
					</g>
				</g>
			</g>
		</g>
	</g>
</svg>
