<?xml version="1.0" encoding="utf-8"?>

<!--
 * Copyright (c) 2020, WSO2 Inc. (http://www.wso2.org) All Rights Reserved.
 *
 * WSO2 Inc. licenses this file to you under the Apache License,
 * Version 2.0 (the "License"); you may not use this file except
 * in compliance with the License.
 * You may obtain a copy of the License at
 *
 *     http://www.apache.org/licenses/LICENSE-2.0
 *
 * Unless required by applicable law or agreed to in writing,
 * software distributed under the License is distributed on an
 * "AS IS" BASIS, WITHOUT WARRANTIES OR CONDITIONS OF ANY
 * KIND, either express or implied. See the License for the
 * specific language governing permissions and limitations
 * under the License.
-->

<svg id="box-illustration" class="icon" xmlns="http://www.w3.org/2000/svg" width="100" height="100" viewBox="0 0 110.001 80.999">
  <g id="box" transform="translate(-239.999 -341)">
    <path d="M-11603-2298a30,30,0,0,1-30-30,30.009,30.009,0,0,1,25.6-29.68A27.015,27.015,0,0,1-11581-2379a27.013,27.013,0,0,1,25.8,19.023q.6-.023,1.2-.023a31,31,0,0,1,31,31,31,31,0,0,1-31,31Z" transform="translate(11873 2720)" fill="#1581c2"/>
    <path d="M-11753.532-2162.968a15.3,15.3,0,0,1-2.717-3.675,15.3,15.3,0,0,1-2.717,3.675,15.154,15.154,0,0,1-10.783,4.469,15.154,15.154,0,0,1-10.784-4.469,15.157,15.157,0,0,1-4.469-10.784c0-.094,0-.189,0-.287V-2199a3,3,0,0,1,3-3,3,3,0,0,1,3,3v13.12a15.131,15.131,0,0,1,9.249-3.123,15.141,15.141,0,0,1,10.783,4.469,15.272,15.272,0,0,1,2.717,3.673,15.3,15.3,0,0,1,2.717-3.673,15.153,15.153,0,0,1,10.783-4.469,15.153,15.153,0,0,1,10.784,4.469,15.142,15.142,0,0,1,4.466,10.781,15.154,15.154,0,0,1-4.466,10.784,15.154,15.154,0,0,1-10.784,4.469A15.154,15.154,0,0,1-11753.532-2162.968Zm1.535-10.784a9.26,9.26,0,0,0,9.248,9.252,9.261,9.261,0,0,0,9.249-9.252,9.26,9.26,0,0,0-9.249-9.249A9.26,9.26,0,0,0-11752-2173.751Zm-27,0a9.261,9.261,0,0,0,9.249,9.252,9.26,9.26,0,0,0,9.248-9.252,9.26,9.26,0,0,0-9.248-9.249A9.261,9.261,0,0,0-11779-2173.751Zm67.461,14.04-6.933-9.2-6.933,9.2a3,3,0,0,1-4.2.592,3,3,0,0,1-.591-4.2l7.968-10.573-7.968-10.574a3,3,0,0,1,.591-4.2,3,3,0,0,1,4.2.589l6.933,9.2,6.933-9.2a3,3,0,0,1,4.2-.589,3,3,0,0,1,.589,4.2l-7.968,10.574,7.968,10.573a3,3,0,0,1-.589,4.2,3,3,0,0,1-1.8.6A3,3,0,0,1-11711.537-2159.711Z" transform="translate(12041.999 2571)" fill="#fff"/>
  </g>
</svg>
