<?xml version="1.0" encoding="utf-8"?>

<!--
 * Copyright (c) 2020, WSO2 Inc. (http://www.wso2.org) All Rights Reserved.
 *
 * WSO2 Inc. licenses this file to you under the Apache License,
 * Version 2.0 (the "License"); you may not use this file except
 * in compliance with the License.
 * You may obtain a copy of the License at
 *
 *     http://www.apache.org/licenses/LICENSE-2.0
 *
 * Unless required by applicable law or agreed to in writing,
 * software distributed under the License is distributed on an
 * "AS IS" BASIS, WITHOUT WARRANTIES OR CONDITIONS OF ANY
 * KIND, either express or implied. See the License for the
 * specific language governing permissions and limitations
 * under the License.
-->

<svg id="box-illustration" class="icon" xmlns="http://www.w3.org/2000/svg" width="80" height="80" viewBox="0 0 80 80">
  <g id="box" transform="translate(-241.999 -332.58)">
    <rect id="Rectangle_1" data-name="Rectangle 1" width="80" height="80" transform="translate(241.999 332.58)" fill="#fff" opacity="0"/>
    <path id="Path_1" data-name="Path 1" d="M-11611.86-2321.922a21.139,21.139,0,0,1-21.139-21.139,21.144,21.144,0,0,1,18.035-20.915,19.036,19.036,0,0,1,18.6-15.024,19.031,19.031,0,0,1,18.179,13.4c.283-.007.564-.012.848-.012a21.845,21.845,0,0,1,21.847,21.848,21.846,21.846,0,0,1-21.844,21.842Z" transform="translate(11875.999 2723.502)" fill="#1581c2"/>
    <path id="Path_2" data-name="Path 2" d="M-11762.795-2174.5a10.751,10.751,0,0,1-1.914-2.59,10.793,10.793,0,0,1-1.914,2.59,10.682,10.682,0,0,1-7.6,3.149,10.678,10.678,0,0,1-7.6-3.149,10.675,10.675,0,0,1-3.153-7.6c0-.066,0-.133,0-.2v-17.588a2.114,2.114,0,0,1,2.114-2.114,2.114,2.114,0,0,1,2.114,2.114v9.245a10.658,10.658,0,0,1,6.518-2.2,10.666,10.666,0,0,1,7.6,3.149,10.746,10.746,0,0,1,1.913,2.588,10.791,10.791,0,0,1,1.914-2.588,10.682,10.682,0,0,1,7.6-3.148,10.676,10.676,0,0,1,7.6,3.149,10.668,10.668,0,0,1,3.148,7.6,10.677,10.677,0,0,1-3.148,7.6,10.679,10.679,0,0,1-7.6,3.149,10.679,10.679,0,0,1-7.6-3.149Zm1.082-7.6a6.523,6.523,0,0,0,6.516,6.52,6.526,6.526,0,0,0,6.521-6.52,6.524,6.524,0,0,0-6.52-6.517,6.525,6.525,0,0,0-4.624,1.9,6.528,6.528,0,0,0-1.92,4.617Zm-19.026,0a6.527,6.527,0,0,0,6.518,6.52,6.526,6.526,0,0,0,6.518-6.52,6.525,6.525,0,0,0-6.518-6.517,6.529,6.529,0,0,0-4.623,1.9,6.528,6.528,0,0,0-1.92,4.617Zm47.538,9.894-4.886-6.483-4.885,6.483a2.116,2.116,0,0,1-2.961.417,2.113,2.113,0,0,1-.415-2.96l5.614-7.45-5.614-7.451a2.114,2.114,0,0,1,.416-2.959,2.114,2.114,0,0,1,2.96.415l4.885,6.483,4.886-6.483a2.113,2.113,0,0,1,2.959-.415,2.114,2.114,0,0,1,.416,2.958l-5.615,7.451,5.615,7.451a2.114,2.114,0,0,1-.416,2.959,2.1,2.1,0,0,1-1.267.423,2.113,2.113,0,0,1-1.69-.837Z" transform="translate(12039.971 2566.233)" fill="#fff"/>
  </g>
</svg>
