<svg id="Layer_1" enable-background="new 0 0 497 497" height="60" viewBox="0 0 497 497" width="60" xmlns="http://www.w3.org/2000/svg"><g><path d="m82.833 497h331.333c18.299 0 33.133-14.834 33.133-33.133v-430.734c.001-18.299-14.833-33.133-33.132-33.133h-331.334c-18.299 0-33.133 14.834-33.133 33.133v430.733c0 18.3 14.834 33.134 33.133 33.134z" fill="#368df6"/><path d="m414.167 422.299v-347.55c0-3.92-2.743-7.329-6.586-8.1-13.516-2.711-24.236-13.567-26.928-26.908-.777-3.851-4.176-6.609-8.104-6.609h-248.148c-3.893 0-7.279 2.707-8.085 6.516-2.804 13.251-13.869 24.18-26.944 26.965-3.816.813-6.538 4.187-6.538 8.089v347.593c0 3.902 2.722 7.276 6.538 8.089 13.076 2.785 24.141 13.714 26.944 26.965.806 3.809 4.192 6.516 8.085 6.516h248.196c3.902 0 7.276-2.722 8.089-6.538 2.785-13.076 13.714-24.141 26.965-26.945 3.808-.804 6.516-4.19 6.516-8.083z" fill="#e9efff"/><g><path d="m308.75 387.25-22.519 39.341c-3.078 5.333-10.693 5.562-14.086.424l-10.746-16.272c-1.437-2.176-3.814-3.548-6.417-3.704l-19.465-1.167c-6.147-.368-9.757-7.077-6.679-12.41l22.519-39.341z" fill="#ff6c6c"/><path d="m299.75 387.25 22.772 39.341c3.078 5.333 10.693 5.562 14.086.424l10.746-16.272c1.437-2.176 3.814-3.548 6.417-3.704l19.465-1.167c6.147-.368 9.757-7.077 6.678-12.41l-22.772-39.341z" fill="#f74242"/><ellipse cx="304.376" cy="328.888" fill="#ffc55e" rx="66.267" ry="66.267" transform="matrix(.707 -.707 .707 .707 -143.409 311.556)"/><path d="m304.376 262.622c-3.879 0-7.675.352-11.371.992 31.177 5.395 54.895 32.556 54.895 65.275s-23.719 59.88-54.895 65.275c3.697.64 7.492.992 11.371.992 36.598 0 66.267-29.669 66.267-66.267 0-36.599-29.669-66.267-66.267-66.267z" fill="#ffa438"/><ellipse cx="304.376" cy="328.888" fill="#ff6c6c" rx="33.133" ry="33.133" transform="matrix(.582 -.813 .813 .582 -140.198 385.157)"/><path d="m304.376 295.755c-4.044 0-7.917.727-11.5 2.053 12.63 4.675 21.633 16.825 21.633 31.08s-9.003 26.405-21.633 31.08c3.583 1.326 7.456 2.053 11.5 2.053 18.299 0 33.133-14.834 33.133-33.133.001-18.299-14.834-33.133-33.133-33.133z" fill="#f74242"/></g><path d="m306.767 82.833h-116.534c-4.418 0-8 3.582-8 8v17.133c0 4.418 3.582 8 8 8h116.533c4.418 0 8-3.582 8-8v-17.133c.001-4.418-3.581-8-7.999-8z" fill="#77dfff"/><g><g><path d="m347.9 156.344h-198.8c-4.001 0-7.244-3.243-7.244-7.244s3.243-7.244 7.244-7.244h198.8c4.001 0 7.244 3.243 7.244 7.244s-3.244 7.244-7.244 7.244z" fill="#5b7fa0"/></g></g><g><g><path d="m347.9 189.477h-198.8c-4.001 0-7.244-3.243-7.244-7.244s3.243-7.244 7.244-7.244h198.8c4.001 0 7.244 3.243 7.244 7.244s-3.244 7.244-7.244 7.244z" fill="#5b7fa0"/></g></g><g><path d="m347.9 222.61h-198.8c-4.001 0-7.244-3.243-7.244-7.244s3.243-7.244 7.244-7.244h198.8c4.001 0 7.244 3.243 7.244 7.244s-3.244 7.244-7.244 7.244z" fill="#5b7fa0"/></g><path d="m414.167 0h-23c18.299 0 33.133 14.834 33.133 33.133v430.733c0 18.299-14.834 33.133-33.133 33.133h23c18.299 0 33.133-14.834 33.133-33.133v-430.733c0-18.299-14.834-33.133-33.133-33.133z" fill="#336fe7"/><path d="m407.58 66.649c-13.516-2.711-24.236-13.567-26.928-26.908-.777-3.851-4.176-6.608-8.104-6.608h-23c3.928 0 7.327 2.758 8.104 6.608 2.692 13.34 13.413 24.196 26.929 26.908 3.843.771 6.586 4.18 6.586 8.1v347.55c0 3.893-2.707 7.279-6.516 8.085-13.251 2.804-24.18 13.869-26.965 26.945-.813 3.816-4.187 6.538-8.089 6.538h23c3.902 0 7.276-2.722 8.089-6.538 2.785-13.076 13.714-24.141 26.965-26.945 3.809-.806 6.516-4.192 6.516-8.085v-347.55c0-3.919-2.743-7.329-6.587-8.1z" fill="#d3dcfb"/><path d="m306.767 82.833h-23c4.418 0 8 3.582 8 8v17.133c0 4.418-3.582 8-8 8h23c4.418 0 8-3.582 8-8v-17.133c0-4.418-3.582-8-8-8z" fill="#69cdff"/></g></svg>