<?xml version="1.0" encoding="utf-8"?>

<!--
 * Copyright (c) 2019, WSO2 Inc. (http://www.wso2.org) All Rights Reserved.
 *
 * WSO2 Inc. licenses this file to you under the Apache License,
 * Version 2.0 (the "License"); you may not use this file except
 * in compliance with the License.
 * You may obtain a copy of the License at
 *
 *     http://www.apache.org/licenses/LICENSE-2.0
 *
 * Unless required by applicable law or agreed to in writing,
 * software distributed under the License is distributed on an
 * "AS IS" BASIS, WITHOUT WARRANTIES OR CONDITIONS OF ANY
 * KIND, either express or implied. See the License for the
 * specific language governing permissions and limitations
 * under the License.
-->

<svg xmlns="http://www.w3.org/2000/svg" xmlns:xlink="http://www.w3.org/1999/xlink" width="304.445" height="120"
     viewBox="0 0 304.445 133.802">
    <defs>
        <linearGradient id="linear-gradient" x1="0.274" y1="0.5" x2="1" y2="0.5" gradientUnits="objectBoundingBox">
            <stop offset="0" stop-color="#fff"/>
            <stop offset="1" stop-color="#dbdddf"/>
        </linearGradient>
        <linearGradient id="linear-gradient-2" x1="0.274" y1="0.5" x2="1" y2="0.5" gradientUnits="objectBoundingBox">
            <stop offset="0" stop-color="#fff" stop-opacity="0"/>
            <stop offset="1" stop-color="#dbdddf"/>
        </linearGradient>
        <linearGradient id="linear-gradient-4" x1="0.92" y1="1" x2="0.253" y2="0.308" gradientUnits="objectBoundingBox">
            <stop offset="0" stop-color="#fe6206"/>
            <stop offset="1" stop-color="#ff8112"/>
        </linearGradient>
        <linearGradient id="linear-gradient-5" x1="0.772" y1="1.032" x2="0.174" y2="0.331"
                        gradientUnits="objectBoundingBox">
            <stop offset="0" stop-color="#fe6306"/>
            <stop offset="1" stop-color="#ff8112"/>
        </linearGradient>
        <linearGradient id="linear-gradient-6" x1="0.172" y1="-0.176" x2="0.753" y2="1"
                        xlink:href="#linear-gradient-5"/>
        <linearGradient id="linear-gradient-7" x1="0.598" y1="0.044" x2="0.5" y2="0.574"
                        xlink:href="#linear-gradient-4"/>
        <linearGradient id="linear-gradient-8" x2="1" y2="1" gradientUnits="objectBoundingBox">
            <stop offset="0" stop-color="#34f1e9"/>
            <stop offset="1" stop-color="#22b7b1"/>
        </linearGradient>
        <linearGradient id="linear-gradient-9" x1="1.015" y1="1" x2="0.029" y2="0.06" gradientUnits="objectBoundingBox">
            <stop offset="0" stop-color="#34f0e8"/>
            <stop offset="1" stop-color="#22b8b2"/>
        </linearGradient>
        <linearGradient id="linear-gradient-10" x1="0.931" y1="0.856" x2="-0.099" y2="0.181"
                        gradientUnits="objectBoundingBox">
            <stop offset="0" stop-color="#ccc"/>
            <stop offset="1" stop-color="#fff"/>
        </linearGradient>
        <linearGradient id="linear-gradient-11" x1="0" y1="0.346" x2="0.789" y2="0.772"
                        xlink:href="#linear-gradient-10"/>
    </defs>
    <g id="change-password" transform="translate(-141.222 -98.21)">
        <path id="Path_95"
              d="M424.493,166.965a.914.914,0,0,1-.914-.914,1.1,1.1,0,0,0-1.1-1.1.915.915,0,0,1,0-1.829,1.1,1.1,0,0,0,1.1-1.1.915.915,0,1,1,1.829,0,1.1,1.1,0,0,0,1.1,1.1.915.915,0,0,1,0,1.829,1.1,1.1,0,0,0-1.1,1.1.914.914,0,0,1-.914.914Z"
              transform="translate(-243.207 65.047)" fill="#ffe783"/>
        <path id="Path_96"
              d="M68.794,419.851a.915.915,0,0,1-.645-.267l-2-2a.914.914,0,0,1,0-1.291l2-2a.914.914,0,0,1,1.291,0l2,2a.914.914,0,0,1,0,1.291l-2,2.008A.915.915,0,0,1,68.794,419.851Zm-.711-2.917.711.711.711-.711-.711-.708Z"
              transform="translate(75.344 -301.841)" fill="#ffe783"/>
        <g id="Rectangle_475" data-name="Rectangle 475" transform="translate(323 146)" fill="#f4f2f1" stroke="#e6e3df"
           stroke-width="2">
            <rect width="38" height="38" rx="3" stroke="none"/>
            <rect x="1" y="1" width="36" height="36" rx="2" fill="none"/>
        </g>
        <g id="Rectangle_476" data-name="Rectangle 476" transform="translate(360.236 168.264) rotate(-45)"
           fill="#f4f2f1" stroke="#e6e3df" stroke-width="2">
            <rect width="23" height="23" rx="1" stroke="none"/>
            <rect x="1" y="1" width="21" height="21" fill="none"/>
        </g>
        <g id="Ellipse_211" data-name="Ellipse 211" transform="translate(360.7 137)" fill="#f4f2f1" stroke="#e6e3df"
           stroke-width="2">
            <circle cx="9" cy="9" r="9" stroke="none"/>
            <circle cx="9" cy="9" r="8" fill="none"/>
        </g>
        <path id="Path_98"
              d="M141.064,46.254a.914.914,0,0,1-.645-.267l-2-2.005a.914.914,0,0,1,0-1.291l2-2a.914.914,0,0,1,1.291,0l2,2a.914.914,0,0,1,0,1.291l-2,2a.909.909,0,0,1-.645.267Zm-.711-2.917.711.711.711-.711-.711-.711Z"
              transform="translate(301.688 97.79)" fill="#ffe783"/>
        <path id="Path_98-2" data-name="Path_98"
              d="M141.064,46.254a.914.914,0,0,1-.645-.267l-2-2.005a.914.914,0,0,1,0-1.291l2-2a.914.914,0,0,1,1.291,0l2,2a.914.914,0,0,1,0,1.291l-2,2a.909.909,0,0,1-.645.267Zm-.711-2.917.711.711.711-.711-.711-.711Z"
              transform="translate(145.688 57.79)" fill="#ffe783"/>
        <path id="padlock"
              d="M70.9,3.681V2.932a2.932,2.932,0,1,0-5.864,0v.749a1.169,1.169,0,0,0-.586,1.01V8.209a1.174,1.174,0,0,0,1.173,1.173h4.691a1.174,1.174,0,0,0,1.173-1.173V4.691a1.169,1.169,0,0,0-.586-1.01ZM67.963,1.173a1.761,1.761,0,0,1,1.759,1.759v.586H66.2V2.932a1.761,1.761,0,0,1,1.759-1.759Zm.586,5.635v.815H67.377V6.808a.88.88,0,1,1,1.173,0Z"
              transform="translate(259.555 217)" fill="#ffb18d"/>
        <path id="padlock-2" data-name="padlock"
              d="M70.9,3.681V2.932a2.932,2.932,0,1,0-5.864,0v.749a1.169,1.169,0,0,0-.586,1.01V8.209a1.174,1.174,0,0,0,1.173,1.173h4.691a1.174,1.174,0,0,0,1.173-1.173V4.691a1.169,1.169,0,0,0-.586-1.01ZM67.963,1.173a1.761,1.761,0,0,1,1.759,1.759v.586H66.2V2.932a1.761,1.761,0,0,1,1.759-1.759Zm.586,5.635v.815H67.377V6.808a.88.88,0,1,1,1.173,0Z"
              transform="translate(134.555 157)" fill="#ffb18d"/>
        <rect id="Rectangle_446" data-name="Rectangle 446" width="66" height="5" transform="translate(214 197)"
              fill="url(#linear-gradient)"/>
        <rect id="Rectangle_474" data-name="Rectangle 474" width="66" height="5" transform="translate(252 197)"
              fill="url(#linear-gradient-2)"/>
        <g id="Group_1135" data-name="Group 1135" transform="translate(-57 -7)">
            <rect id="Rectangle_448" data-name="Rectangle 448" width="66" height="5" transform="translate(234 186)"
                  fill="url(#linear-gradient)"/>
            <g id="Path_2110" data-name="Path 2110" transform="translate(280 122)" fill="#f4f2f1">
                <path d="M 92 68 L 3 68 C 1.897199988365173 68 1 67.10279846191406 1 66 L 1 3 C 1 1.897199988365173 1.897199988365173 1 3 1 L 92 1 C 93.10279846191406 1 94 1.897199988365173 94 3 L 94 66 C 94 67.10279846191406 93.10279846191406 68 92 68 Z"
                      stroke="none"/>
                <path d="M 3 2 C 2.448600769042969 2 2 2.448600769042969 2 3 L 2 66 C 2 66.55139923095703 2.448600769042969 67 3 67 L 92 67 C 92.55139923095703 67 93 66.55139923095703 93 66 L 93 3 C 93 2.448600769042969 92.55139923095703 2 92 2 L 3 2 M 3 0 L 92 0 C 93.6568603515625 0 95 1.3431396484375 95 3 L 95 66 C 95 67.6568603515625 93.6568603515625 69 92 69 L 3 69 C 1.3431396484375 69 0 67.6568603515625 0 66 L 0 3 C 0 1.3431396484375 1.3431396484375 0 3 0 Z"
                      stroke="none" fill="#e6e3df"/>
            </g>
            <g id="Rectangle_376" data-name="Rectangle 376" transform="translate(280 122)" fill="#fff" stroke="#e6e3df"
               stroke-width="2">
                <path d="M3,0H92a3,3,0,0,1,3,3v8a0,0,0,0,1,0,0H0a0,0,0,0,1,0,0V3A3,3,0,0,1,3,0Z" stroke="none"/>
                <path d="M3,1H92a2,2,0,0,1,2,2V9a1,1,0,0,1-1,1H2A1,1,0,0,1,1,9V3A2,2,0,0,1,3,1Z" fill="none"/>
            </g>
            <circle id="Ellipse_110" data-name="Ellipse 110" cx="1.5" cy="1.5" r="1.5" transform="translate(367 126)"
                    fill="#eaecee"/>
            <circle id="Ellipse_111" data-name="Ellipse 111" cx="1.5" cy="1.5" r="1.5" transform="translate(363 126)"
                    fill="#eaecee"/>
            <circle id="Ellipse_112" data-name="Ellipse 112" cx="1.5" cy="1.5" r="1.5" transform="translate(359 126)"
                    fill="#eaecee"/>
            <path id="locked-outline"
                  d="M.971,27.17A.972.972,0,0,1,0,26.2V10.675A.971.971,0,0,1,.971,9.7h2.91V5.725h0a5.822,5.822,0,0,1,11.643,0V9.7h2.912a.971.971,0,0,1,.969.971V26.2a.972.972,0,0,1-.969.971Zm.192-16.107V25.811A.2.2,0,0,0,1.357,26h16.69a.2.2,0,0,0,.194-.194V11.063a.193.193,0,0,0-.194-.194H1.357A.193.193,0,0,0,1.163,11.063ZM5.046,5.725V9.7H14.36V5.821a4.658,4.658,0,0,0-9.315-.1Zm4.075,16.4V19.317a1.94,1.94,0,1,1,1.165,0v2.807Zm-.2-4.658A.776.776,0,1,0,9.7,16.69.779.779,0,0,0,8.925,17.466Z"
                  transform="translate(318 146.059)" fill="#dbdbdb"/>
        </g>
        <g id="Group_1283" data-name="Group 1283" transform="translate(-170 -238.254)">
            <g id="Arrow_129_" transform="translate(413 358.705)">
                <g id="Group_1284" data-name="Group 1284" transform="translate(33.28)">
                    <g id="Group_1283-2" data-name="Group 1283">
                        <path id="Path_2265" data-name="Path 2265"
                              d="M212.173,43.482h-4.714l1.891-7.564a2.743,2.743,0,0,0-4.307-2.858L183.1,49.517a2.741,2.741,0,0,0,0,4.387l21.942,16.457A2.743,2.743,0,0,0,209.35,67.5l-1.891-7.564h4.714a13.715,13.715,0,0,1,4.569,26.646,2.744,2.744,0,0,0-1.827,2.585v11.36a2.741,2.741,0,0,0,3.289,2.686,30.171,30.171,0,0,0-6.032-59.733Z"
                              transform="translate(-182.003 -32.514)" fill="url(#linear-gradient-4)"/>
                    </g>
                </g>
                <g id="Group_1286" data-name="Group 1286" transform="translate(0 10.966)">
                    <g id="Group_1285" data-name="Group 1285">
                        <path id="Path_2266" data-name="Path 2266"
                              d="M59.243,141.858,37.3,125.4a2.743,2.743,0,0,0-4.307,2.858l1.891,7.564H30.171A13.715,13.715,0,0,1,25.6,109.177a2.744,2.744,0,0,0,1.827-2.585V95.233a2.742,2.742,0,0,0-1.007-2.124,2.706,2.706,0,0,0-2.282-.562,30.171,30.171,0,0,0,6.032,59.733h4.714l-1.891,7.564A2.743,2.743,0,0,0,37.3,162.7l21.942-16.457a2.741,2.741,0,0,0,0-4.387Z"
                              transform="translate(0 -92.488)" fill="url(#linear-gradient-5)"/>
                    </g>
                </g>
            </g>
            <path id="Intersection_20" data-name="Intersection 20"
                  d="M22.009,43.661A22.01,22.01,0,0,1,18.047,0V5.742a2.744,2.744,0,0,1-1.826,2.585A13.715,13.715,0,0,0,20.79,34.972H25.5l-1.891-7.564A2.743,2.743,0,0,1,27.92,24.55L49.863,41.008a2.733,2.733,0,0,1,1.059,2.653Z"
                  transform="translate(422.381 378.034)" fill="url(#linear-gradient-6)"/>
            <path id="Intersection_21" data-name="Intersection 21"
                  d="M32.912,37.682A2.746,2.746,0,0,1,34.739,35.1,13.715,13.715,0,0,0,30.17,8.452H25.456l1.891,7.564a2.743,2.743,0,0,1-4.306,2.858L1.1,2.417A2.728,2.728,0,0,1,.009,0H29.137a22.01,22.01,0,0,1,3.776,43.694Z"
                  transform="translate(446.28 377.678)" fill="url(#linear-gradient-7)"/>
        </g>
        <g id="Group_1282" data-name="Group 1282" transform="translate(-1238 -1753.308)">
            <rect id="Rectangle_456" data-name="Rectangle 456" width="120.123" height="40.31" rx="6"
                  transform="translate(1541 1915)" fill="url(#linear-gradient-8)"/>
            <rect id="Rectangle_457" data-name="Rectangle 457" width="113.673" height="33.86" rx="5"
                  transform="translate(1544.225 1918.225)" fill="url(#linear-gradient-9)"/>
            <g id="Group_1151" data-name="Group 1151" transform="translate(1551.479 1930.626)">
                <path id="Path_2128" data-name="Path 2128"
                      d="M10.24,6.89,8.15,5.683l2.09-1.207a.425.425,0,0,0,.156-.582L9.758,2.788a.426.426,0,0,0-.582-.156L7.086,3.84V1.426A.425.425,0,0,0,6.66,1H5.383a.425.425,0,0,0-.426.426V3.84L2.867,2.633a.426.426,0,0,0-.582.156L1.647,3.895a.425.425,0,0,0,.156.582l2.09,1.207L1.8,6.89a.425.425,0,0,0-.156.582l.639,1.106a.426.426,0,0,0,.582.156l2.09-1.207V9.94a.425.425,0,0,0,.426.426H6.66a.425.425,0,0,0,.426-.426V7.526l2.09,1.207a.426.426,0,0,0,.582-.156L10.4,7.472a.425.425,0,0,0-.156-.582Z"
                      transform="translate(-1.587 -1)" fill="url(#linear-gradient-10)"/>
                <path id="Subtraction_24" data-name="Subtraction 24"
                      d="M0,4.682V0H.639a.426.426,0,0,1,.426.426V2.839l2.09-1.207a.422.422,0,0,1,.212-.058.43.43,0,0,1,.37.213l.3.516L0,4.681Z"
                      transform="translate(4.435 0)" fill="url(#linear-gradient-11)"/>
                <path id="Subtraction_26" data-name="Subtraction 26"
                      d="M.637,4.682H.043L0,0l4.053,2.34-.319.552a.425.425,0,0,1-.581.156L1.063,1.842V4.256a.417.417,0,0,1-.058.212A.427.427,0,0,1,.637,4.682Z"
                      transform="translate(4.436 4.69)" fill="url(#linear-gradient-11)"/>
                <path id="Subtraction_28" data-name="Subtraction 28"
                      d="M.375,4.644h0L.057,4.092a.426.426,0,0,1,.156-.581L2.3,2.3.213,1.1A.426.426,0,0,1,.057.941a.43.43,0,0,1,0-.427L.354,0,4.428,2.3.376,4.643Z"
                      transform="translate(0 2.365)" fill="url(#linear-gradient-11)"/>
            </g>
            <g id="Group_1154" data-name="Group 1154" transform="translate(1590.176 1930.626)">
                <path id="Path_2128-2" data-name="Path 2128"
                      d="M10.24,6.89,8.15,5.683l2.09-1.207a.425.425,0,0,0,.156-.582L9.758,2.788a.426.426,0,0,0-.582-.156L7.086,3.84V1.426A.425.425,0,0,0,6.66,1H5.383a.425.425,0,0,0-.426.426V3.84L2.867,2.633a.426.426,0,0,0-.582.156L1.647,3.895a.425.425,0,0,0,.156.582l2.09,1.207L1.8,6.89a.425.425,0,0,0-.156.582l.639,1.106a.426.426,0,0,0,.582.156l2.09-1.207V9.94a.425.425,0,0,0,.426.426H6.66a.425.425,0,0,0,.426-.426V7.526l2.09,1.207a.426.426,0,0,0,.582-.156L10.4,7.472a.425.425,0,0,0-.156-.582Z"
                      transform="translate(-1.587 -1)" fill="url(#linear-gradient-10)"/>
                <path id="Subtraction_24-2" data-name="Subtraction 24"
                      d="M0,4.682V0H.639a.426.426,0,0,1,.426.426V2.839l2.09-1.207a.422.422,0,0,1,.212-.058.43.43,0,0,1,.37.213l.3.516L0,4.681Z"
                      transform="translate(4.435 0)" fill="url(#linear-gradient-11)"/>
                <path id="Subtraction_26-2" data-name="Subtraction 26"
                      d="M.637,4.682H.043L0,0l4.053,2.34-.319.552a.425.425,0,0,1-.581.156L1.063,1.842V4.256a.417.417,0,0,1-.058.212A.427.427,0,0,1,.637,4.682Z"
                      transform="translate(4.436 4.69)" fill="url(#linear-gradient-11)"/>
                <path id="Subtraction_28-2" data-name="Subtraction 28"
                      d="M.375,4.644h0L.057,4.092a.426.426,0,0,1,.156-.581L2.3,2.3.213,1.1A.426.426,0,0,1,.057.941a.43.43,0,0,1,0-.427L.354,0,4.428,2.3.376,4.643Z"
                      transform="translate(0 2.365)" fill="url(#linear-gradient-11)"/>
            </g>
            <g id="Group_1152" data-name="Group 1152" transform="translate(1564.378 1930.626)">
                <path id="Path_2128-3" data-name="Path 2128"
                      d="M10.24,6.89,8.15,5.683l2.09-1.207a.425.425,0,0,0,.156-.582L9.758,2.788a.426.426,0,0,0-.582-.156L7.086,3.84V1.426A.425.425,0,0,0,6.66,1H5.383a.425.425,0,0,0-.426.426V3.84L2.867,2.633a.426.426,0,0,0-.582.156L1.647,3.895a.425.425,0,0,0,.156.582l2.09,1.207L1.8,6.89a.425.425,0,0,0-.156.582l.639,1.106a.426.426,0,0,0,.582.156l2.09-1.207V9.94a.425.425,0,0,0,.426.426H6.66a.425.425,0,0,0,.426-.426V7.526l2.09,1.207a.426.426,0,0,0,.582-.156L10.4,7.472a.425.425,0,0,0-.156-.582Z"
                      transform="translate(-1.587 -1)" fill="url(#linear-gradient-10)"/>
                <path id="Subtraction_24-3" data-name="Subtraction 24"
                      d="M0,4.682V0H.639a.426.426,0,0,1,.426.426V2.839l2.09-1.207a.422.422,0,0,1,.212-.058.43.43,0,0,1,.37.213l.3.516L0,4.681Z"
                      transform="translate(4.435 0)" fill="url(#linear-gradient-11)"/>
                <path id="Subtraction_26-3" data-name="Subtraction 26"
                      d="M.637,4.682H.043L0,0l4.053,2.34-.319.552a.425.425,0,0,1-.581.156L1.063,1.842V4.256a.417.417,0,0,1-.058.212A.427.427,0,0,1,.637,4.682Z"
                      transform="translate(4.436 4.69)" fill="url(#linear-gradient-11)"/>
                <path id="Subtraction_28-3" data-name="Subtraction 28"
                      d="M.375,4.644h0L.057,4.092a.426.426,0,0,1,.156-.581L2.3,2.3.213,1.1A.426.426,0,0,1,.057.941a.43.43,0,0,1,0-.427L.354,0,4.428,2.3.376,4.643Z"
                      transform="translate(0 2.365)" fill="url(#linear-gradient-11)"/>
            </g>
            <g id="Group_1155" data-name="Group 1155" transform="translate(1603.075 1930.626)">
                <path id="Path_2128-4" data-name="Path 2128"
                      d="M10.24,6.89,8.15,5.683l2.09-1.207a.425.425,0,0,0,.156-.582L9.758,2.788a.426.426,0,0,0-.582-.156L7.086,3.84V1.426A.425.425,0,0,0,6.66,1H5.383a.425.425,0,0,0-.426.426V3.84L2.867,2.633a.426.426,0,0,0-.582.156L1.647,3.895a.425.425,0,0,0,.156.582l2.09,1.207L1.8,6.89a.425.425,0,0,0-.156.582l.639,1.106a.426.426,0,0,0,.582.156l2.09-1.207V9.94a.425.425,0,0,0,.426.426H6.66a.425.425,0,0,0,.426-.426V7.526l2.09,1.207a.426.426,0,0,0,.582-.156L10.4,7.472a.425.425,0,0,0-.156-.582Z"
                      transform="translate(-1.587 -1)" fill="url(#linear-gradient-10)"/>
                <path id="Subtraction_24-4" data-name="Subtraction 24"
                      d="M0,4.682V0H.639a.426.426,0,0,1,.426.426V2.839l2.09-1.207a.422.422,0,0,1,.212-.058.43.43,0,0,1,.37.213l.3.516L0,4.681Z"
                      transform="translate(4.435 0)" fill="url(#linear-gradient-11)"/>
                <path id="Subtraction_26-4" data-name="Subtraction 26"
                      d="M.637,4.682H.043L0,0l4.053,2.34-.319.552a.425.425,0,0,1-.581.156L1.063,1.842V4.256a.417.417,0,0,1-.058.212A.427.427,0,0,1,.637,4.682Z"
                      transform="translate(4.436 4.69)" fill="url(#linear-gradient-11)"/>
                <path id="Subtraction_28-4" data-name="Subtraction 28"
                      d="M.375,4.644h0L.057,4.092a.426.426,0,0,1,.156-.581L2.3,2.3.213,1.1A.426.426,0,0,1,.057.941a.43.43,0,0,1,0-.427L.354,0,4.428,2.3.376,4.643Z"
                      transform="translate(0 2.365)" fill="url(#linear-gradient-11)"/>
            </g>
            <g id="Group_1157" data-name="Group 1157" transform="translate(1628.873 1930.626)">
                <path id="Path_2128-5" data-name="Path 2128"
                      d="M10.24,6.89,8.15,5.683l2.09-1.207a.425.425,0,0,0,.156-.582L9.758,2.788a.426.426,0,0,0-.582-.156L7.086,3.84V1.426A.425.425,0,0,0,6.66,1H5.383a.425.425,0,0,0-.426.426V3.84L2.867,2.633a.426.426,0,0,0-.582.156L1.647,3.895a.425.425,0,0,0,.156.582l2.09,1.207L1.8,6.89a.425.425,0,0,0-.156.582l.639,1.106a.426.426,0,0,0,.582.156l2.09-1.207V9.94a.425.425,0,0,0,.426.426H6.66a.425.425,0,0,0,.426-.426V7.526l2.09,1.207a.426.426,0,0,0,.582-.156L10.4,7.472a.425.425,0,0,0-.156-.582Z"
                      transform="translate(-1.587 -1)" fill="url(#linear-gradient-10)"/>
                <path id="Subtraction_24-5" data-name="Subtraction 24"
                      d="M0,4.682V0H.639a.426.426,0,0,1,.426.426V2.839l2.09-1.207a.422.422,0,0,1,.212-.058.43.43,0,0,1,.37.213l.3.516L0,4.681Z"
                      transform="translate(4.435 0)" fill="url(#linear-gradient-11)"/>
                <path id="Subtraction_26-5" data-name="Subtraction 26"
                      d="M.637,4.682H.043L0,0l4.053,2.34-.319.552a.425.425,0,0,1-.581.156L1.063,1.842V4.256a.417.417,0,0,1-.058.212A.427.427,0,0,1,.637,4.682Z"
                      transform="translate(4.436 4.69)" fill="url(#linear-gradient-11)"/>
                <path id="Subtraction_28-5" data-name="Subtraction 28"
                      d="M.375,4.644h0L.057,4.092a.426.426,0,0,1,.156-.581L2.3,2.3.213,1.1A.426.426,0,0,1,.057.941a.43.43,0,0,1,0-.427L.354,0,4.428,2.3.376,4.643Z"
                      transform="translate(0 2.365)" fill="url(#linear-gradient-11)"/>
            </g>
            <g id="Group_1153" data-name="Group 1153" transform="translate(1577.277 1930.626)">
                <path id="Path_2128-6" data-name="Path 2128"
                      d="M10.24,6.89,8.15,5.683l2.09-1.207a.425.425,0,0,0,.156-.582L9.758,2.788a.426.426,0,0,0-.582-.156L7.086,3.84V1.426A.425.425,0,0,0,6.66,1H5.383a.425.425,0,0,0-.426.426V3.84L2.867,2.633a.426.426,0,0,0-.582.156L1.647,3.895a.425.425,0,0,0,.156.582l2.09,1.207L1.8,6.89a.425.425,0,0,0-.156.582l.639,1.106a.426.426,0,0,0,.582.156l2.09-1.207V9.94a.425.425,0,0,0,.426.426H6.66a.425.425,0,0,0,.426-.426V7.526l2.09,1.207a.426.426,0,0,0,.582-.156L10.4,7.472a.425.425,0,0,0-.156-.582Z"
                      transform="translate(-1.587 -1)" fill="url(#linear-gradient-10)"/>
                <path id="Subtraction_24-6" data-name="Subtraction 24"
                      d="M0,4.682V0H.639a.426.426,0,0,1,.426.426V2.839l2.09-1.207a.422.422,0,0,1,.212-.058.43.43,0,0,1,.37.213l.3.516L0,4.681Z"
                      transform="translate(4.435 0)" fill="url(#linear-gradient-11)"/>
                <path id="Subtraction_26-6" data-name="Subtraction 26"
                      d="M.637,4.682H.043L0,0l4.053,2.34-.319.552a.425.425,0,0,1-.581.156L1.063,1.842V4.256a.417.417,0,0,1-.058.212A.427.427,0,0,1,.637,4.682Z"
                      transform="translate(4.436 4.69)" fill="url(#linear-gradient-11)"/>
                <path id="Subtraction_28-6" data-name="Subtraction 28"
                      d="M.375,4.644h0L.057,4.092a.426.426,0,0,1,.156-.581L2.3,2.3.213,1.1A.426.426,0,0,1,.057.941a.43.43,0,0,1,0-.427L.354,0,4.428,2.3.376,4.643Z"
                      transform="translate(0 2.365)" fill="url(#linear-gradient-11)"/>
            </g>
            <g id="Group_1156" data-name="Group 1156" transform="translate(1615.974 1930.626)">
                <path id="Path_2128-7" data-name="Path 2128"
                      d="M10.24,6.89,8.15,5.683l2.09-1.207a.425.425,0,0,0,.156-.582L9.758,2.788a.426.426,0,0,0-.582-.156L7.086,3.84V1.426A.425.425,0,0,0,6.66,1H5.383a.425.425,0,0,0-.426.426V3.84L2.867,2.633a.426.426,0,0,0-.582.156L1.647,3.895a.425.425,0,0,0,.156.582l2.09,1.207L1.8,6.89a.425.425,0,0,0-.156.582l.639,1.106a.426.426,0,0,0,.582.156l2.09-1.207V9.94a.425.425,0,0,0,.426.426H6.66a.425.425,0,0,0,.426-.426V7.526l2.09,1.207a.426.426,0,0,0,.582-.156L10.4,7.472a.425.425,0,0,0-.156-.582Z"
                      transform="translate(-1.587 -1)" fill="url(#linear-gradient-10)"/>
                <path id="Subtraction_24-7" data-name="Subtraction 24"
                      d="M0,4.682V0H.639a.426.426,0,0,1,.426.426V2.839l2.09-1.207a.422.422,0,0,1,.212-.058.43.43,0,0,1,.37.213l.3.516L0,4.681Z"
                      transform="translate(4.435 0)" fill="url(#linear-gradient-11)"/>
                <path id="Subtraction_26-7" data-name="Subtraction 26"
                      d="M.637,4.682H.043L0,0l4.053,2.34-.319.552a.425.425,0,0,1-.581.156L1.063,1.842V4.256a.417.417,0,0,1-.058.212A.427.427,0,0,1,.637,4.682Z"
                      transform="translate(4.436 4.69)" fill="url(#linear-gradient-11)"/>
                <path id="Subtraction_28-7" data-name="Subtraction 28"
                      d="M.375,4.644h0L.057,4.092a.426.426,0,0,1,.156-.581L2.3,2.3.213,1.1A.426.426,0,0,1,.057.941a.43.43,0,0,1,0-.427L.354,0,4.428,2.3.376,4.643Z"
                      transform="translate(0 2.365)" fill="url(#linear-gradient-11)"/>
            </g>
            <g id="Group_1158" data-name="Group 1158" transform="translate(1641.772 1930.626)">
                <path id="Path_2128-8" data-name="Path 2128"
                      d="M10.24,6.89,8.15,5.683l2.09-1.207a.425.425,0,0,0,.156-.582L9.758,2.788a.426.426,0,0,0-.582-.156L7.086,3.84V1.426A.425.425,0,0,0,6.66,1H5.383a.425.425,0,0,0-.426.426V3.84L2.867,2.633a.426.426,0,0,0-.582.156L1.647,3.895a.425.425,0,0,0,.156.582l2.09,1.207L1.8,6.89a.425.425,0,0,0-.156.582l.639,1.106a.426.426,0,0,0,.582.156l2.09-1.207V9.94a.425.425,0,0,0,.426.426H6.66a.425.425,0,0,0,.426-.426V7.526l2.09,1.207a.426.426,0,0,0,.582-.156L10.4,7.472a.425.425,0,0,0-.156-.582Z"
                      transform="translate(-1.587 -1)" fill="url(#linear-gradient-10)"/>
                <path id="Subtraction_24-8" data-name="Subtraction 24"
                      d="M0,4.682V0H.639a.426.426,0,0,1,.426.426V2.839l2.09-1.207a.422.422,0,0,1,.212-.058.43.43,0,0,1,.37.213l.3.516L0,4.681Z"
                      transform="translate(4.435 0)" fill="url(#linear-gradient-11)"/>
                <path id="Subtraction_26-8" data-name="Subtraction 26"
                      d="M.637,4.682H.043L0,0l4.053,2.34-.319.552a.425.425,0,0,1-.581.156L1.063,1.842V4.256a.417.417,0,0,1-.058.212A.427.427,0,0,1,.637,4.682Z"
                      transform="translate(4.436 4.69)" fill="url(#linear-gradient-11)"/>
                <path id="Subtraction_28-8" data-name="Subtraction 28"
                      d="M.375,4.644h0L.057,4.092a.426.426,0,0,1,.156-.581L2.3,2.3.213,1.1A.426.426,0,0,1,.057.941a.43.43,0,0,1,0-.427L.354,0,4.428,2.3.376,4.643Z"
                      transform="translate(0 2.365)" fill="url(#linear-gradient-11)"/>
            </g>
        </g>
    </g>
</svg>
