<?xml version="1.0" encoding="utf-8"?>

<!--
 * Copyright (c) 2020, WSO2 Inc. (http://www.wso2.org) All Rights Reserved.
 *
 * WSO2 Inc. licenses this file to you under the Apache License,
 * Version 2.0 (the "License"); you may not use this file except
 * in compliance with the License.
 * You may obtain a copy of the License at
 *
 *     http://www.apache.org/licenses/LICENSE-2.0
 *
 * Unless required by applicable law or agreed to in writing,
 * software distributed under the License is distributed on an
 * "AS IS" BASIS, WITHOUT WARRANTIES OR CONDITIONS OF ANY
 * KIND, either express or implied. See the License for the
 * specific language governing permissions and limitations
 * under the License.
-->

<svg id="custom-app-illustration" class="icon" width="107" height="63" viewBox="0 0 107 63" fill="none" xmlns="http://www.w3.org/2000/svg">
<rect width="34" height="45" rx="4" fill="#ECECEC"/>
<path d="M29 26C29 27.1046 28.1046 28 27 28L7 28C5.89543 28 5 27.1046 5 26L5 24C5 22.8954 5.89543 22 7 22L27 22C28.1046 22 29 22.8954 29 24L29 26Z" fill="white"/>
<path d="M29 18C29 19.1046 28.1046 20 27 20L7 20C5.89543 20 5 19.1046 5 18L5 8C5 6.89543 5.89543 6 7 6L27 6C28.1046 6 29 6.89543 29 8L29 18Z" fill="white"/>
<rect x="37" y="1" width="70" height="56" rx="4" fill="#ECECEC"/>
<path d="M57 17C57 15.8954 57.8954 15 59 15H85C86.1046 15 87 15.8954 87 17V51C87 52.1046 86.1046 53 85 53H59C57.8954 53 57 52.1046 57 51V17Z" fill="url(#paint0_linear_927_10499)"/>
<path d="M40 15H54C55.1046 15 56 15.8954 56 17V51C56 52.1046 55.1046 53 54 53H40V15Z" fill="white"/>
<path d="M40 6.5C40 5.67157 40.6716 5 41.5 5V5C42.3284 5 43 5.67157 43 6.5V6.5C43 7.32843 42.3284 8 41.5 8V8C40.6716 8 40 7.32843 40 6.5V6.5Z" fill="black"/>
<path d="M45 6.5C45 5.67157 45.6716 5 46.5 5V5C47.3284 5 48 5.67157 48 6.5V6.5C48 7.32843 47.3284 8 46.5 8V8C45.6716 8 45 7.32843 45 6.5V6.5Z" fill="black"/>
<path d="M50 6.5C50 5.67157 50.6716 5 51.5 5V5C52.3284 5 53 5.67157 53 6.5V6.5C53 7.32843 52.3284 8 51.5 8V8C50.6716 8 50 7.32843 50 6.5V6.5Z" fill="black"/>
<path d="M104 53L90 53C88.8954 53 88 52.1046 88 51L88 17C88 15.8954 88.8954 15 90 15L104 15L104 53Z" fill="white"/>
<path d="M28.3786 43.4878H30.0487C31.1259 43.4878 32 44.3619 32 45.4389V48.5609C32 49.6381 31.1259 50.5122 30.0487 50.5122L28.3789 50.5124C28.1055 51.4726 27.7232 52.4013 27.2393 53.2676L28.4178 54.4461C28.7844 54.8206 28.9875 55.3046 28.9875 55.8275C28.9875 56.3503 28.7847 56.8419 28.4178 57.2088L26.2091 59.4175C25.4442 60.1745 24.211 60.1824 23.4461 59.4175L22.2676 58.239C21.4012 58.7229 20.4726 59.1055 19.5124 59.3786V61.0487C19.5124 62.1259 18.6383 63 17.5611 63H14.4391C13.3619 63 12.4878 62.1259 12.4878 61.0487V59.3786C11.5277 59.1052 10.599 58.7229 9.7327 58.239L8.55415 59.4175C7.78924 60.1824 6.54821 60.1745 5.79119 59.4175L3.58247 57.2088C3.21584 56.8422 3.01279 56.3503 3.01279 55.8275C3.01279 55.3046 3.21557 54.813 3.58247 54.4461L4.76102 53.2676C4.27706 52.4013 3.89448 51.4726 3.62141 50.5124H1.95129C0.874093 50.5124 0 49.6383 0 48.5611V45.4391C0 44.3619 0.874093 43.4878 1.95129 43.4878L3.62114 43.4876C3.89448 42.5274 4.27678 41.5987 4.76075 40.7324L3.5822 39.5539C3.21557 39.1794 3.01252 38.6954 3.01252 38.1725C3.01252 37.6497 3.21531 37.1581 3.5822 36.7912L5.79092 34.5825C6.55583 33.8255 7.78897 33.8255 8.55388 34.5825L9.73243 35.761C10.5988 35.2771 11.5274 34.8945 12.4876 34.6214V32.9513C12.4876 31.8741 13.3617 31 14.4389 31H17.5609C18.6381 31 19.5122 31.8741 19.5122 32.9513V34.6214C20.4723 34.8948 21.401 35.2771 22.2673 35.761L23.4458 34.5828C24.2108 33.8257 25.4518 33.8257 26.2088 34.5828L28.4175 36.7915C28.7842 37.1581 28.9872 37.6499 28.9872 38.1728C28.9872 38.6957 28.7844 39.1872 28.4175 39.5541L27.239 40.7327C27.7229 41.599 28.1055 42.5277 28.3786 43.4878Z" fill="#67777E"/>
<circle cx="16" cy="47" r="6" fill="white"/>
<path d="M44.963 33.0244H45.9024C46.5083 33.0244 47 33.5161 47 34.1219V35.878C47 36.4839 46.5083 36.9756 45.9024 36.9756L44.9631 36.9757C44.8094 37.5158 44.5943 38.0382 44.3221 38.5255L44.985 39.1885C45.1912 39.3991 45.3055 39.6713 45.3055 39.9655C45.3055 40.2596 45.1914 40.5361 44.985 40.7424L43.7426 41.9849C43.3123 42.4107 42.6187 42.4151 42.1884 41.9849L41.5255 41.3219C41.0382 41.5941 40.5158 41.8093 39.9757 41.9629V42.9024C39.9757 43.5083 39.4841 44 38.8781 44H37.122C36.5161 44 36.0244 43.5083 36.0244 42.9024V41.9629C35.4843 41.8092 34.9619 41.5941 34.4746 41.3219L33.8117 41.9849C33.3814 42.4151 32.6834 42.4107 32.2575 41.9849L31.0151 40.7424C30.8089 40.5362 30.6947 40.2596 30.6947 39.9655C30.6947 39.6713 30.8088 39.3948 31.0151 39.1885L31.6781 38.5255C31.4058 38.0382 31.1906 37.5158 31.037 36.9757H30.0976C29.4917 36.9757 29 36.4841 29 35.8781V34.122C29 33.5161 29.4917 33.0244 30.0976 33.0244L31.0369 33.0243C31.1906 32.4842 31.4057 31.9618 31.6779 31.4745L31.015 30.8115C30.8088 30.6009 30.6945 30.3287 30.6945 30.0345C30.6945 29.7404 30.8086 29.4639 31.015 29.2576L32.2574 28.0151C32.6877 27.5893 33.3813 27.5893 33.8116 28.0151L34.4745 28.6781C34.9618 28.4059 35.4842 28.1907 36.0243 28.037V27.0976C36.0243 26.4917 36.5159 26 37.1219 26H38.878C39.4839 26 39.9756 26.4917 39.9756 27.0976V28.037C40.5157 28.1908 41.0381 28.4059 41.5254 28.6781L42.1883 28.0153C42.6186 27.5895 43.3166 27.5895 43.7425 28.0153L44.9849 29.2577C45.1911 29.4639 45.3053 29.7406 45.3053 30.0347C45.3053 30.3288 45.1912 30.6053 44.9849 30.8117L44.3219 31.4746C44.5942 31.9619 44.8094 32.4843 44.963 33.0244Z" fill="#67777E"/>
<circle cx="38" cy="35" r="3.375" fill="white"/>
<defs>
<linearGradient id="paint0_linear_927_10499" x1="72" y1="15" x2="72" y2="53" gradientUnits="userSpaceOnUse">
<stop stop-color="#EE575C"/>
<stop offset="1" stop-color="#F67147"/>
</linearGradient>
</defs>
</svg>

