<?xml version="1.0" encoding="UTF-8" standalone="no"?>

<!--
 * Copyright (c) 2020, WSO2 Inc. (http://www.wso2.org) All Rights Reserved.
 *
 * WSO2 Inc. licenses this file to you under the Apache License,
 * Version 2.0 (the "License"); you may not use this file except
 * in compliance with the License.
 * You may obtain a copy of the License at
 *
 *     http://www.apache.org/licenses/LICENSE-2.0
 *
 * Unless required by applicable law or agreed to in writing,
 * software distributed under the License is distributed on an
 * "AS IS" BASIS, WITHOUT WARRANTIES OR CONDITIONS OF ANY
 * KIND, either express or implied. See the License for the
 * specific language governing permissions and limitations
 * under the License.
-->

<svg class="icon" id="federated-associations" height="100px" width="227.833px" 
    xmlns:xlink="http://www.w3.org/1999/xlink" 
    xmlns="http://www.w3.org/2000/svg" xml:space="preserve" version="1.1" viewBox="0 0 227.833 100">

    <g id="browser">
        <path d="M2.741+4.508L98.067+4.508L98.067+4.508L98.067+13.645L98.067+13.645L2.741+13.645L2.741+13.645L2.741+4.508L2.741+4.508Z" opacity="1" fill="#ffffff"/>
        <path d="M3.394+13.589L98.067+13.589L98.067+13.589L98.067+82.277L98.067+82.277L3.394+82.277L3.394+82.277L3.394+13.589L3.394+13.589Z" opacity="1" fill="#f8f9fa"/>
        <path d="M59.78+37.749C58.372+36.341+56.696+35.298+54.867+34.666C56.826+33.317+58.114+31.06+58.114+28.506C58.114+24.384+54.76+21.031+50.638+21.031C46.516+21.031+43.163+24.384+43.163+28.506C43.163+31.06+44.449+33.318+46.409+34.666C44.58+35.297+42.904+36.341+41.495+37.749C39.053+40.19+37.707+43.439+37.707+46.892L39.728+46.892C39.728+40.876+44.623+35.982+50.638+35.982C56.654+35.982+61.547+40.877+61.547+46.892L63.568+46.892C63.568+43.439+62.222+40.19+59.78+37.749ZM50.638+33.961C47.631+33.961+45.183+31.514+45.183+28.506C45.183+25.498+47.631+23.052+50.638+23.052C53.646+23.052+56.092+25.498+56.092+28.506C56.092+31.514+53.646+33.961+50.638+33.961Z" opacity="1" class="path fill tertiary"/>
        <path d="M17.768+52.988L83.508+52.988L83.508+52.988L83.508+54.434L83.508+54.434L17.768+54.434L17.768+54.434L17.768+52.988L17.768+52.988Z" opacity="1" class="path fill tertiary"/>
        <path d="M23.343+56.436L77.969+56.436L77.969+56.436L77.969+57.884L77.969+57.884L23.343+57.884L23.343+57.884L23.343+56.436L23.343+56.436Z" opacity="1" class="path fill tertiary"/>
        <path d="M31.164+59.827L70.148+59.827L70.148+59.827L70.148+61.274L70.148+61.274L31.164+61.274L31.164+61.274L31.164+59.827L31.164+59.827Z" opacity="1" class="path fill tertiary"/>
        <path d="M41.57+68.454L42.415+70.167L44.306+70.442L42.938+71.776L43.261+73.659L41.57+72.77L39.878+73.659L40.202+71.776L38.833+70.442L40.724+70.167L41.57+68.454Z" opacity="1" class="path fill tertiary"/>
        <path d="M3.793+12.455L97.709+12.455L97.709+12.455L97.709+14.723L97.709+14.723L3.793+14.723L3.793+14.723L3.793+12.455L3.793+12.455Z" opacity="1" class="path fill tertiary"/>
        <path d="M5.957+8.856C5.957+8.12036+6.55336+7.524+7.289+7.524C8.02464+7.524+8.621+8.12036+8.621+8.856C8.621+9.59164+8.02464+10.188+7.289+10.188C6.55336+10.188+5.957+9.59164+5.957+8.856Z" opacity="1" class="path fill tertiary"/>
        <path d="M9.507+8.856C9.507+8.12036+10.1034+7.524+10.839+7.524C11.5746+7.524+12.171+8.12036+12.171+8.856C12.171+9.59164+11.5746+10.188+10.839+10.188C10.1034+10.188+9.507+9.59164+9.507+8.856Z" opacity="1" class="path fill tertiary"/>
        <path d="M13.157+8.856C13.157+8.12091+13.7529+7.525+14.488+7.525C15.2231+7.525+15.819+8.12091+15.819+8.856C15.819+9.59109+15.2231+10.187+14.488+10.187C13.7529+10.187+13.157+9.59109+13.157+8.856Z" opacity="1" class="path fill tertiary"/>
        <path d="M35.036+72.536C35.036+73.025+34.624+73.423+34.117+73.423L18.687+73.423C18.18+73.423+17.769+73.025+17.769+72.536L17.769+69.577C17.769+69.087+18.18+68.689+18.687+68.689L34.117+68.689C34.624+68.689+35.036+69.086+35.036+69.577L35.036+72.536Z" opacity="1" class="path fill tertiary"/>
        <path d="M96.457+2.691L5.046+2.691C3.317+2.691+1.914+4.093+1.914+5.823L1.914+79.662C1.914+81.392+3.316+82.794+5.046+82.794L96.457+82.794C98.187+82.794+99.589+81.392+99.589+79.662L99.589+5.823C99.588+4.093+98.187+2.691+96.457+2.691ZM97.709+77.988C97.709+79.64+96.36+80.977+94.698+80.977L6.803+80.977C5.141+80.977+3.793+79.64+3.793+77.988L3.793+7.497C3.793+5.846+5.141+4.508+6.803+4.508L94.698+4.508C96.36+4.508+97.709+5.846+97.709+7.497C97.709+7.497+97.709+77.988+97.709+77.988Z" opacity="1" class="path fill tertiary"/>
    </g>
    <defs>
        <filter id="f1" x="0" y="0" width="200%" height="200%">
            <feOffset result="offOut" in="SourceAlpha" dx="1" dy="1"/>
            <feBlend in="SourceGraphic" in2="blurOut" mode="normal"/>
            <feGaussianBlur result="blurOut" in="offOut" stdDeviation="1"/>
            <feComponentTransfer>
                <feFuncA type="linear" slope="0.3"/>
            </feComponentTransfer>
            <feMerge>
                <feMergeNode></feMergeNode>
                <feMergeNode in="SourceGraphic"></feMergeNode>
            </feMerge>
        </filter>
    </defs>
    <g  filter="url(#f1)" id="account_primary">
        <use opacity="0.13" xlink:href="#Image" transform="matrix(0.0576 0 0 0.0576 104.382 12.79)"/>
        <g opacity="1">
            <path class="path fill primary" d="M150.251+28.189L118.928+11.499C118.463+11.25+117.907+11.254+117.445+11.508L86.989+28.198C86.49+28.471+86.179+28.995+86.179+29.565L86.179+51.367C86.197+69.29+96.816+85.502+113.236+92.683L117.465+94.525C117.859+94.697+118.31+94.697+118.705+94.526L123.469+92.469C140.195+85.444+151.075+69.074+151.077+50.934L151.077+29.564C151.077+28.99+150.758+28.459+150.251+28.189Z" opacity="1" fill="#000000"/>
            <path class="path fill white" d="M130.645+55.166C128.792+53.316+126.591+51.945+124.187+51.116C126.762+49.343+128.453+46.375+128.453+43.019C128.453+37.601+124.046+33.195+118.628+33.195C113.211+33.195+108.804+37.601+108.804+43.019C108.804+46.375+110.496+49.343+113.07+51.116C110.667+51.945+108.463+53.316+106.611+55.166C103.402+58.376+101.634+62.645+101.634+67.184L104.289+67.184C104.289+59.277+110.721+52.845+118.627+52.845C126.534+52.845+132.967+59.277+132.967+67.184L135.622+67.184C135.622+62.644+133.855+58.375+130.645+55.166ZM118.627+50.188C114.674+50.188+111.458+46.972+111.458+43.018C111.458+39.064+114.674+35.849+118.627+35.849C122.581+35.849+125.798+39.064+125.798+43.018C125.798+46.972+122.582+50.188+118.627+50.188Z" opacity="1" />
        </g>
        <path class="path fill blue stroke white" stroke-width="1" d="M154.97+46.7697C150.54+46.7697+146.847+49.7015+145.564+53.7057C144.376+52.0533+142.537+50.8997+140.347+50.8997C136.732+50.8997+133.806+53.8256+133.806+57.4404C133.806+58.1906+134.009+58.8837+134.241+59.5548C131.828+61.1333+130.23+63.8462+130.23+66.9453C130.23+71.828+134.18+75.7783+139.063+75.7783L163.072+75.7783C167.954+75.7783+171.924+71.828+171.924+66.9453C171.924+62.6394+168.827+59.0775+164.751+58.2901C164.834+57.7751+164.909+57.2476+164.909+56.7093C164.909+51.22+160.459+46.7697+154.97+46.7697Z" stroke-linecap="round" opacity="1" stroke-linejoin="round"/>
        <path class="path fill green stroke white" stroke-width="1" d="M147.468+55.8023C143.038+55.8023+139.345+58.7341+138.062+62.7383C136.874+61.0859+135.036+59.9323+132.845+59.9323C129.23+59.9323+126.304+62.8582+126.304+66.473C126.304+67.2232+126.507+67.9163+126.739+68.5874C124.326+70.1659+122.728+72.8788+122.728+75.9779C122.728+80.8606+126.678+84.8109+131.561+84.8109L155.57+84.8109C160.452+84.8109+164.423+80.8606+164.423+75.9779C164.423+71.672+161.325+68.1101+157.249+67.3227C157.332+66.8077+157.407+66.2802+157.407+65.7419C157.407+60.2526+152.957+55.8023+147.468+55.8023Z" stroke-linecap="round" opacity="1" stroke-linejoin="round"/>
    </g>
    <g id="connection">
        <path class="path stroke tertiary" stroke-width="1.92" d="M198.615+24.5138L198.615+24.5138C202.017+24.5138+204.775+27.272+204.775+30.6745L204.775+30.6745C204.775+34.0769+202.017+36.8351+198.615+36.8351L198.615+36.8351C195.212+36.8351+192.454+34.0769+192.454+30.6745L192.454+30.6745C192.454+27.272+195.212+24.5138+198.615+24.5138ZM175.068+14.7363L175.068+14.7363C176.741+14.7363+178.097+16.0927+178.097+17.7658L178.097+17.7658C178.097+19.439+176.741+20.7954+175.068+20.7954L175.068+20.7954C173.395+20.7954+172.038+19.439+172.038+17.7658L172.038+17.7658C172.038+16.0927+173.395+14.7363+175.068+14.7363ZM180.631+41.6797L180.631+41.6797C183.623+41.6797+186.049+44.1054+186.049+47.0977L186.049+47.0977C186.049+50.09+183.623+52.5157+180.631+52.5157L180.631+52.5157C177.639+52.5157+175.213+50.09+175.213+47.0977L175.213+47.0977C175.213+44.1054+177.639+41.6797+180.631+41.6797ZM213.958+13.3764L213.958+13.3764C215.864+13.3764+217.409+14.9213+217.409+16.8269L217.409+16.8269C217.409+18.7326+215.864+20.2775+213.958+20.2775L213.958+20.2775C212.053+20.2775+210.508+18.7326+210.508+16.8269L210.508+16.8269C210.508+14.9213+212.053+13.3764+213.958+13.3764ZM216.341+38.1251L216.341+38.1251C218.471+38.1251+220.198+39.8522+220.198+41.9828L220.198+41.9828C220.198+44.1133+218.471+45.8404+216.341+45.8404L216.341+45.8404C214.21+45.8404+212.483+44.1133+212.483+41.9828L212.483+41.9828C212.483+39.8522+214.21+38.1251+216.341+38.1251ZM184.183+42.7801L193.365+33.5213M176.961+20.2964L192.647+29.67M203.424+26.6416L211.892+19.373M203.139+35.0612L213.205+40.529M198.146+36.9307M198.427+36.9187L202.824+56.5205M203.959+56.2944L203.959+56.2944C207.431+56.2944+210.245+59.1088+210.245+62.5805L210.245+62.5805C210.245+66.0523+207.431+68.8666+203.959+68.8666L203.959+68.8666C200.487+68.8666+197.673+66.0523+197.673+62.5805L197.673+62.5805C197.673+59.1088+200.487+56.2944+203.959+56.2944ZM197.941+24.3772L197.4+16.1105M197.334+7.30308L197.334+7.30308C199.783+7.30308+201.769+9.2999+201.769+11.7631L201.769+11.7631C201.769+14.2263+199.783+16.2231+197.334+16.2231L197.334+16.2231C194.886+16.2231+192.9+14.2263+192.9+11.7631L192.9+11.7631C192.9+9.2999+194.886+7.30308+197.334+7.30308Z"  stroke-linecap="round" fill-opacity="0" opacity="1" stroke-linejoin="round"/>
    </g>
</svg>
