<svg width="1080" height="1080" viewBox="0 0 1080 1080" fill="none" xmlns="http://www.w3.org/2000/svg">
<g clip-path="url(#clip0_3380_73)">
<mask id="mask0_3380_73" style="mask-type:luminance" maskUnits="userSpaceOnUse" x="0" y="0" width="1080" height="1080">
<path d="M1080 0H0V1080H1080V0Z" fill="white"/>
</mask>
<g mask="url(#mask0_3380_73)">
<path d="M238.001 1081C196.98 1081 155.959 1081 114.333 1080.6C113.717 1072.24 113.096 1064.22 113.819 1056.32C115.57 1037.18 117.947 1018.1 120.399 998.939C122.139 997.597 123.551 996.315 125.792 994.281C127.858 998.242 129.593 1001.57 131.327 1004.89C131.805 1005.02 132.283 1005.15 132.761 1005.28C135.538 998.028 138.646 990.876 140.974 983.479C142.478 978.7 143.597 973.552 143.539 968.584C143.446 960.547 144.381 957.956 152.255 954.093C151.605 956.028 151.528 958.002 150.725 958.363C145.072 960.907 147.232 965.362 147.4 970.154C151.381 969.112 154.91 968.188 158.521 967.242C156.329 965.929 154.596 964.89 152.862 963.852C153.098 963.234 153.334 962.617 153.57 962C155.516 962 157.516 962.292 159.4 961.948C166.622 960.629 173.851 966.235 180.977 961.952C182.852 960.825 185.219 959.41 185.889 957.587C188.108 951.546 189.769 950.553 195.724 953.157C198.753 954.481 201.2 954.616 203.483 951.405C206.108 947.713 215.05 946.268 218.605 948.453C222.556 942.348 222.808 943.478 230.236 944.192C237.482 944.888 244.947 943.661 252.417 944.496C257.022 945.011 261.84 943.517 266.573 943.023C269.353 942.732 270.86 943.83 271.098 946.906C271.333 949.927 272.155 953.142 275.802 953.7C278.865 954.169 279.99 955.542 280.191 958.565C280.348 960.945 281.842 962.975 284.579 961.475C288.572 959.287 287.001 955.192 286.799 951.959C286.691 950.24 284.662 948.562 283.313 947.031C282.551 946.164 281.409 945.632 280.439 944.949C281.617 944.301 282.854 943.012 283.963 943.115C288.944 943.577 294.746 940.768 298.578 946.517C298.946 947.069 300.548 946.651 301.414 947.045C306.063 949.158 312.145 947.696 315.672 952.87C316.07 953.454 319.15 953.254 319.745 952.473C322.079 949.406 325.138 947.766 328.366 949.5C331.455 951.159 335.221 952.994 335.081 957.782C334.992 960.824 336.801 961.875 339.865 962.208C341.349 962.369 343.791 964.75 343.703 965.975C343.535 968.303 341.82 970.505 340.828 972.794C340.288 974.042 339.245 975.641 339.636 976.577C340.089 977.661 341.845 978.791 343.076 978.838C345.652 978.935 348.256 978.335 350.848 978.021C350.029 976.659 348.704 976.472 348.238 975.739C347.498 974.574 346.536 972.425 347.048 971.769C350.571 967.258 348.131 963.541 346.144 959.514C344.787 956.764 344.17 953.658 342.944 950.831C342.259 949.252 341.274 947.558 339.939 946.573C338.415 945.448 336.353 945.052 334.359 944.275C334.471 943.614 334.691 942.974 334.664 942.346C334.594 940.751 334.414 939.16 334.277 937.568C335.28 938.737 336.146 940.077 337.328 941.022C338.242 941.752 339.552 941.987 340.686 942.443C341.01 941.429 341.587 940.42 341.603 939.402C341.635 937.487 341.342 935.566 341.185 933.647C341.769 933.587 342.353 933.526 342.938 933.466C343.959 938.647 344.781 943.878 346.062 948.995C347.13 953.257 348.698 957.397 350.124 961.565C350.641 963.077 351.73 964.457 351.97 965.989C352.642 970.286 352.557 974.742 353.587 978.934C355.751 987.746 358.146 996.53 361.084 1005.11C361.974 1007.71 364.96 1009.59 366.986 1011.8C368.34 1009.83 369.695 1007.87 371.309 1006.19C373.237 1014.7 375.158 1022.88 376.521 1031.16C379.196 1047.4 381.56 1063.69 383.581 1079.97C335.094 1080 287.079 1080.01 239.035 1079.62C234.468 1055.27 229.93 1031.33 225.392 1007.39C225.061 1009.92 224.72 1012.46 225.117 1014.88C227.475 1029.24 229.838 1043.6 232.542 1057.9C234.011 1065.66 236.159 1073.3 238.001 1081Z" fill="#2B292C"/>
<path d="M418.004 1077.5C417.977 1077.92 417.95 1078.34 417.924 1079.26C417.951 1080.18 417.976 1080.59 418.001 1081C407.313 1081 396.626 1081 385.459 1080.79C384.98 1080.58 384.966 1080.17 385.25 1079.87C385.637 1078.11 386.012 1076.6 385.799 1075.18C383.943 1062.77 382.129 1050.35 380.022 1037.98C374.988 1008.42 368.59 979.156 359.234 950.647C355.106 938.066 349.768 925.882 345.381 913.349C352.467 911.191 359.171 909.266 365.824 907.174C367.639 906.603 369.299 905.535 371.198 905.021C372.252 907.318 373.214 909.258 374.01 911.263C380.987 928.851 387.935 946.451 394.883 964.416C395.803 967.523 396.732 970.263 397.683 973.404C399.58 979.804 401.453 985.803 403.209 992.126C403.388 993.3 403.685 994.15 403.95 995.33C404.191 996.479 404.464 997.298 404.722 998.482C405.129 1000.23 405.55 1001.62 405.946 1003.4C408.522 1016.57 411.123 1029.35 413.678 1042.5C413.94 1044.59 414.247 1046.3 414.521 1048.46C415.607 1057.94 416.725 1066.97 417.74 1076.18C417.759 1076.74 417.881 1077.12 418.004 1077.5Z" fill="#2C292C"/>
<path d="M238.25 1081C236.158 1073.3 234.01 1065.66 232.541 1057.9C229.837 1043.6 227.474 1029.24 225.116 1014.88C224.719 1012.46 225.06 1009.92 225.39 1007.39C229.929 1031.33 234.467 1055.27 239.005 1079.86C239.004 1080.51 239 1081 239 1081C239 1081 238.5 1081 238.25 1081Z" fill="#0A0A0C"/>
<path d="M1017.11 255.001C1017.09 285.878 1017.07 316.755 1017.27 348.059C1017.49 348.485 1017.43 348.504 1017.43 348.504C1017.27 349.971 1016.97 351.439 1016.97 352.906C1016.95 389.295 1016.97 425.685 1016.98 462.974C1017.03 466.25 1017.08 468.626 1017.13 471.001C1017.09 483.126 1017.05 495.25 1017 508.15C1017.04 511.285 1017.09 513.643 1017.14 516.001C1017.08 546.359 1017.03 576.717 1016.96 607.959C1017.02 610.563 1017.08 612.282 1017.05 614.463C1017.02 625.95 1017.08 636.974 1017.05 648.447C1017.02 651.93 1017.08 654.966 1017.14 658.001C1017.07 682.969 1016.98 707.936 1016.93 732.904C1016.9 746.056 1016.95 759.208 1016.96 773.11C1016.98 774.907 1017.01 775.954 1016.94 777.396C1015.13 783.161 1013.43 788.531 1011.46 794.07C1010.39 795.459 1009.58 796.678 1008.48 798.041C1006.51 799.609 1004.84 801.032 1003.15 802.074C1003.25 800.615 1003.37 799.538 1003.48 798.569C1001.48 797.962 999.853 797.466 998.821 797.152C998.993 794.408 999.117 792.42 999.241 790.433C998.665 789.985 998.09 789.537 997.514 789.089C996.071 795.276 992.166 792.929 989.125 792.681C998.046 785.968 1000.8 776.879 1000.8 766.553C1000.78 606.591 1000.76 446.628 1000.75 286.665C1000.75 285.094 1000.75 283.522 1000.75 282.149C766.278 282.149 532.606 282.149 298.712 282.149C298.712 285.145 298.712 287.638 298.712 290.131C298.711 304.115 298.71 318.098 298.33 332.093C291.569 330.015 285.186 327.925 278.988 325.577C279.29 324.935 279.408 324.552 279.588 323.706C279.535 315.18 279.418 307.116 279.447 298.6C279.624 294.666 279.595 291.181 279.697 287.7C280.085 274.467 280.515 261.235 281.138 247.72C284.172 240.037 289.165 233.721 295.958 230.6C306.133 225.926 317.234 223.782 328.725 223.989C344.145 224.267 359.575 223.925 375.462 223.939C399.35 224.045 422.777 224.094 446.203 224.068C463.808 224.048 481.412 223.934 499.475 223.945C620.813 224.041 741.692 224.06 862.572 224.057C884.378 224.057 906.184 223.966 928.449 224.023C944.906 224.303 960.904 224.477 977.25 224.765C979.064 224.973 980.529 225.067 982.288 225.335C983.032 225.541 983.481 225.575 984.235 225.755C985.651 226.102 986.761 226.302 988.154 226.675C989.958 227.205 991.478 227.564 993.313 228.107C1003.9 232.168 1012.03 238.358 1016.03 249.291C1016.2 250.114 1016.39 250.648 1016.58 251.569C1016.76 252.971 1016.93 253.986 1017.11 255.001ZM974.3 267.071C975.45 266.123 976.751 265.307 977.726 264.203C982.369 258.947 983.099 251.845 979.699 246.14C976.146 240.177 969.783 237.237 963.663 238.731C954.668 240.926 949.551 249.693 952.276 258.239C955.146 267.236 963.993 271.056 974.3 267.071ZM916.557 265.96C923.923 271.476 931.691 271.221 937.188 265.282C942.245 259.819 942.528 250.794 937.82 245.118C932.306 238.47 923.332 237.447 916.917 242.735C910.278 248.208 909.888 258.018 916.557 265.96ZM876.985 243.386C873.322 246.64 871.012 250.586 871.424 255.614C872.001 262.665 877.596 268.741 884.176 269.76C890.117 270.68 896.97 267.08 899.5 261.711C902.457 255.433 900.942 247.956 895.812 243.517C890.374 238.81 884.036 238.595 876.985 243.386ZM1007.7 793.93C1007.22 793.982 1006.74 794.035 1006.26 794.087C1006.37 794.513 1006.48 794.939 1006.6 795.366C1007.01 795.078 1007.42 794.789 1007.7 793.93Z" fill="#425267"/>
<path d="M120.398 998.939C124.583 982.507 129.058 966.004 133.643 949.531C134.441 946.662 135.696 943.92 137.001 940.519C144.541 926.631 151.821 913.343 159.435 900.115C173.279 909.914 189.056 913.067 205.013 913.849C238.385 915.484 271.808 916.367 305.219 916.782C317.784 916.938 330.376 914.94 343.111 914.258C345.522 920.389 347.778 926.186 349.814 932.156C350.049 932.886 350.504 933.443 351.124 934.32C351.885 936.725 352.481 938.81 352.917 941.238C351.67 943.993 351.363 946.007 355.172 946.322C357.581 954.088 359.83 961.533 361.702 969.063C361.051 970.766 360.312 972.468 360.584 973.988C361.56 979.454 362.546 984.964 364.225 990.236C364.924 992.43 367.375 994.067 369.291 996.23C370.051 999.638 370.55 1002.77 371.049 1005.91C369.694 1007.87 368.339 1009.83 366.985 1011.8C364.959 1009.59 361.973 1007.71 361.083 1005.11C358.145 996.53 355.75 987.746 353.586 978.934C352.556 974.742 352.641 970.286 351.969 965.989C351.729 964.457 350.64 963.077 350.123 961.565C348.697 957.398 347.129 953.257 346.062 948.995C344.78 943.878 343.958 938.647 342.937 933.466C342.352 933.526 341.768 933.587 341.184 933.648C341.341 935.566 341.634 937.487 341.602 939.402C341.586 940.42 341.009 941.43 340.685 942.443C339.551 941.987 338.241 941.752 337.327 941.022C336.145 940.077 335.279 938.737 334.276 937.568C334.413 939.16 334.593 940.751 334.663 942.346C334.69 942.975 334.47 943.614 334.358 944.275C336.352 945.052 338.414 945.448 339.938 946.573C341.273 947.558 342.258 949.253 342.943 950.831C344.169 953.658 344.786 956.764 346.143 959.514C348.13 963.542 350.57 967.258 347.047 971.769C346.535 972.425 347.497 974.574 348.237 975.739C348.703 976.472 350.028 976.659 350.847 978.022C348.255 978.335 345.651 978.935 343.075 978.838C341.844 978.791 340.088 977.661 339.635 976.577C339.244 975.641 340.287 974.043 340.827 972.794C341.819 970.505 343.535 968.303 343.702 965.975C343.79 964.75 341.348 962.369 339.864 962.208C336.8 961.875 334.991 960.824 335.08 957.782C335.22 952.994 331.454 951.159 328.365 949.5C325.137 947.766 322.078 949.406 319.744 952.473C319.149 953.254 316.069 953.454 315.671 952.871C312.144 947.696 306.062 949.158 301.413 947.045C300.547 946.652 298.945 947.069 298.577 946.517C294.745 940.768 288.943 943.577 283.962 943.115C282.853 943.012 281.616 944.301 280.438 944.949C281.408 945.632 282.55 946.165 283.312 947.031C284.661 948.563 286.69 950.24 286.798 951.96C287 955.193 288.571 959.288 284.578 961.475C281.841 962.975 280.348 960.945 280.19 958.565C279.989 955.542 278.864 954.169 275.801 953.7C272.154 953.142 271.332 949.927 271.097 946.906C270.859 943.83 269.352 942.732 266.572 943.023C261.839 943.517 257.021 945.011 252.416 944.496C244.946 943.661 237.481 944.888 230.235 944.192C222.808 943.478 222.555 942.348 218.604 948.453C215.049 946.269 206.108 947.713 203.483 951.405C201.199 954.616 198.752 954.481 195.723 953.157C189.768 950.553 188.107 951.546 185.888 957.587C185.218 959.41 182.851 960.825 180.976 961.952C173.85 966.235 166.621 960.629 159.399 961.948C157.515 962.292 155.515 962 153.569 962C153.333 962.617 153.097 963.235 152.861 963.852C154.595 964.89 156.328 965.929 158.52 967.242C154.909 968.188 151.38 969.112 147.399 970.155C147.231 965.362 145.071 960.907 150.724 958.363C151.527 958.002 151.604 956.028 152.254 954.094C144.38 957.956 143.445 960.547 143.538 968.585C143.596 973.552 142.477 978.7 140.973 983.479C138.645 990.876 135.537 998.028 132.76 1005.28C132.282 1005.15 131.804 1005.02 131.326 1004.89C129.592 1001.57 127.857 998.243 125.791 994.281C123.55 996.316 122.138 997.597 120.398 998.939ZM324.968 942.085C324.08 940.414 323.311 938.653 322.189 937.156C321.999 936.904 319.395 938.019 319.419 938.112C320.097 940.749 320.971 943.336 321.812 945.93C322.299 945.854 322.785 945.777 323.272 945.7C323.805 944.753 324.339 943.805 324.968 942.085ZM159.196 941.849C161.01 940.347 162.845 938.867 164.56 937.26C164.629 937.196 163.568 935.925 163.034 935.217C161.83 936.56 160.564 937.854 159.46 939.274C159.107 939.729 159.185 940.519 159.196 941.849ZM170.187 932.756C170.493 928.672 168.081 929.16 165.938 929.196C165.607 929.777 165.275 930.357 164.944 930.937C166.503 931.666 168.062 932.394 170.187 932.756ZM172.781 925.942C173.218 926.896 173.655 927.85 174.093 928.804C175.369 928.015 176.645 927.225 177.921 926.436C177.74 925.987 177.559 925.537 177.378 925.088C176.028 925.217 174.678 925.345 172.781 925.942ZM301.254 935.081C300.197 935.48 299.139 935.88 296.919 936.719C302.095 938.113 302.095 938.113 301.254 935.081Z" fill="#2C292C"/>
<path d="M371.308 1006.19C370.55 1002.77 370.051 999.638 369.284 995.824C366.703 986.422 364.391 977.7 362.079 968.977C359.83 961.533 357.581 954.088 355.165 945.965C354.359 943.823 353.718 942.358 353.078 940.894C352.481 938.809 351.885 936.725 351.11 934.026C350.633 932.935 350.334 932.459 350.034 931.983C347.778 926.186 345.522 920.389 343.333 914.108C343.925 913.59 344.452 913.554 344.979 913.518C349.767 925.882 355.105 938.066 359.233 950.646C368.589 979.155 374.987 1008.42 380.021 1037.98C382.128 1050.35 383.942 1062.77 385.798 1075.18C386.011 1076.6 385.636 1078.11 385.249 1079.87C384.965 1080.17 384.512 1080.05 384.282 1080.01C381.56 1063.69 379.195 1047.4 376.52 1031.16C375.157 1022.88 373.236 1014.7 371.308 1006.19Z" fill="#0A090B"/>
<path d="M159.101 900.054C151.821 913.342 144.541 926.631 137.009 940.128C128.641 929.827 120.146 919.585 112.486 908.752C94.386 883.154 78.1193 856.478 67.0205 826.96C61.4085 812.035 58.4692 796.603 58.0198 780.661C56.6837 733.259 61.2232 686.573 75.9407 641.293C80.0912 628.523 85.9188 616.299 91.2873 603.25C95.6733 596.736 99.7492 590.797 104.129 585.052C106.304 588.944 108.146 592.657 110.052 596.337C119.009 613.633 122.741 630.633 114.195 650.009C107.325 665.586 114.326 678.858 129.265 686.879C128.815 690.209 128.004 693.459 128.755 696.295C131.767 707.665 135.436 718.859 138.509 730.214C140.126 736.189 141.014 742.36 142.248 748.582C142.265 748.722 142.131 748.97 141.825 749.241C141.402 751.46 141.284 753.409 141.219 755.777C140.667 761.453 140.301 766.749 139.418 771.957C136.471 789.355 140.756 804.712 151.991 818.665C151.659 837.59 151.289 856.067 151.017 874.544C150.879 883.917 153.724 892.401 159.101 900.054Z" fill="#FB6E5A"/>
<path d="M159.436 900.115C153.725 892.401 150.88 883.917 151.018 874.544C151.29 856.067 151.66 837.591 152.196 818.289C153.607 800.469 152.214 783.677 148.047 767.171C146.45 760.842 144.191 754.68 142.233 748.442C141.016 742.36 140.127 736.189 138.51 730.214C135.437 718.86 131.768 707.665 128.756 696.295C128.005 693.459 128.816 690.209 129.635 686.92C139.823 688.306 148.529 691.554 156.53 697.115C164.687 702.786 174.088 704.928 183.615 701.485C193.322 697.977 202.341 698.753 211.752 702.344C225.613 707.633 239.12 706.408 252.088 698.941C258.711 695.127 265.415 691.359 272.396 688.281C280.509 684.705 285.508 678.74 287.963 670.532C290.747 661.225 291.329 651.756 287.418 642.637C281.907 629.789 282.224 617.247 287.544 604.392C291.613 594.56 293.232 584.113 291.157 573.547C289.082 562.979 286.345 552.54 284.345 541.984C289.645 541.518 294.5 541.113 299.8 540.714C308.53 541.311 316.922 541.256 325.079 542.614C350.958 546.923 374.169 558.164 396.207 571.832C429.465 592.458 458.567 618.382 487.437 644.559C490.957 647.75 494.508 650.908 498.298 654.308C500.836 649.337 502.633 644.785 505.282 640.802C518.409 621.071 519.471 597.393 527.009 575.503C527.683 573.613 528.221 572.022 528.992 570.124C531.425 565.82 533.624 561.823 536.28 557.89C544.036 559.09 551.372 560.024 558.62 561.418C565.398 562.721 572.082 564.512 579.07 566.326C581.558 567.857 583.784 569.15 586.02 570.821C586.319 572.884 586.607 574.568 586.903 576.684C586.111 590.403 586.017 603.779 584.362 616.958C581.378 640.722 577.937 664.453 573.788 688.039C570.188 708.5 566.067 728.93 560.848 749.028C555.459 769.778 541.715 779.878 516.383 777.256C506.053 776.186 495.723 773.549 485.808 770.342C451.789 759.339 419.802 743.641 388.328 726.853C386.062 725.645 383.716 724.588 380.902 723.214C372.984 748.353 370.384 773.348 370.903 799.251C371.17 804.49 371.508 809.253 371.822 814.354C371.864 815.136 371.93 815.58 371.961 816.455C374.665 829.582 377.407 842.279 380.13 855.357C381.066 859.07 381.988 862.411 382.979 865.732C386.883 878.815 383.734 890.127 374.523 899.987C373.198 901.406 372.186 903.118 371.03 904.694C369.299 905.535 367.639 906.603 365.824 907.174C359.171 909.265 352.467 911.191 345.381 913.349C344.453 913.554 343.926 913.59 343.178 913.775C330.377 914.94 317.785 916.938 305.22 916.782C271.809 916.367 238.386 915.484 205.014 913.849C189.057 913.067 173.28 909.914 159.436 900.115Z" fill="url(#paint0_linear_3380_73)"/>
<path d="M526.87 575.802C519.47 597.393 518.408 621.071 505.281 640.802C502.632 644.785 500.835 649.337 498.297 654.309C494.507 650.908 490.956 647.75 487.436 644.559C458.566 618.382 429.464 592.458 396.206 571.832C374.168 558.164 350.957 546.923 325.078 542.614C316.921 541.256 308.529 541.311 299.788 540.274C299.25 524.562 299.169 509.296 299.43 493.868C314.307 491.084 318.81 485.53 320.965 469.108C322.128 460.245 322.23 451.248 323.21 442.355C325.154 424.702 321.373 408.067 314.973 391.529C317.11 387.615 319.753 384.232 321.04 380.394C326.845 363.08 320.026 346.342 303.485 336.058C301.742 334.975 300.294 333.419 298.709 332.082C298.71 318.098 298.711 304.115 298.712 290.131C298.712 287.638 298.712 285.145 298.712 282.149C532.607 282.149 766.278 282.149 1000.75 282.149C1000.75 283.523 1000.75 285.094 1000.75 286.665C1000.76 446.628 1000.78 606.591 1000.8 766.554C1000.8 776.879 998.046 785.968 989.142 792.692C988.984 792.989 988.972 792.953 988.628 793.046C981.571 797.384 974.086 798.68 966.325 798.727C953.009 798.808 939.692 798.768 926.376 798.802C898.584 798.872 870.793 798.958 842.672 798.944C841.895 798.913 841.447 798.974 840.63 798.941C839.508 798.91 838.754 798.972 837.591 798.939C835.787 798.908 834.393 798.972 832.589 798.944C830.787 798.914 829.394 798.977 827.548 798.945C823.397 798.912 819.698 798.975 815.539 798.944C808.386 798.912 801.693 798.972 794.541 798.937C788.054 798.908 782.026 798.973 775.539 798.945C762.052 798.914 749.027 798.976 735.541 798.943C613.711 798.823 492.342 798.799 370.973 798.776C370.383 773.348 372.983 748.353 380.901 723.214C383.715 724.588 386.061 725.645 388.327 726.853C419.801 743.641 451.788 759.34 485.807 770.342C495.722 773.549 506.052 776.186 516.382 777.256C541.714 779.878 555.458 769.778 560.847 749.028C566.066 728.93 570.187 708.5 573.787 688.039C577.936 664.453 581.377 640.722 584.361 616.958C586.016 603.779 586.11 590.403 587.368 576.542C603.645 575.905 619.461 575.838 635.278 575.779C643.079 575.75 644.999 573.887 645.009 566.025C645.036 543.537 645.017 521.048 645.016 498.559C645.016 496.81 645.016 495.061 645.016 493.257C707.659 493.257 769.548 493.257 831.938 493.257C831.938 495.312 831.943 497.105 831.937 498.898C831.909 508.227 831.765 517.557 831.973 526.88C832.003 528.245 833.705 529.573 834.634 530.917C835.506 529.909 837.125 528.909 837.136 527.89C837.27 515.9 837.318 503.902 836.919 491.921C836.871 490.482 834.251 488.748 832.469 487.871C831.116 487.206 829.2 487.662 827.535 487.662C768.232 487.648 708.929 487.64 649.626 487.631C641.098 487.63 639.599 488.998 639.585 497.461C639.546 519.782 639.49 542.104 639.712 564.423C639.756 568.862 638.766 570.449 633.978 570.373C617.993 570.117 601.999 570.379 586.009 570.443C583.783 569.15 581.557 567.857 579.191 565.948C582.549 550.158 588.776 536.138 596.029 522.381C600.646 513.623 603.704 504.016 607.148 494.675C610.945 484.376 611.999 474.06 603.253 465.597C598.436 460.936 598.243 451.886 590.086 451.465C589.68 446.625 589.311 442.221 589.102 437.527C590.585 434.86 593.389 432.124 592.919 430.179C591.984 426.31 593.707 423.993 595.37 421.246C595.8 420.534 595.772 419.545 595.954 418.683C595.62 418.291 595.285 417.898 594.951 417.505C591.024 423.534 585.178 426.148 578.499 427.927C574.718 429.929 571.224 431.83 567.986 434.096C566.564 435.09 565.929 437.262 564.478 438.154C557.195 442.627 552.804 449.467 549.622 456.951C547.159 462.746 545.923 469.064 544.02 475.466C534.862 488.291 525.825 500.798 516.318 513.956C520.516 517.11 524.284 520.05 528.172 522.822C530.583 524.542 532.683 524.126 534.599 521.664C538.274 516.944 542.153 512.384 546.191 508.045C545.301 521.976 544.143 535.618 543.048 549.265C542.676 553.897 541.348 557.602 535.821 557.826C533.623 561.823 531.424 565.82 528.534 570.128C509.683 570.382 491.521 570.242 473.361 570.334C469.463 570.354 468.23 569.085 468.247 565.143C468.446 517.321 468.505 469.498 468.509 421.675C468.509 419.803 467.593 417.931 467.634 416.025C475.488 415.957 482.811 415.938 490.133 415.885C497.486 415.832 499.998 413.402 500.044 405.953C500.137 391.137 500.135 376.32 500.125 361.504C500.121 354.923 498.458 353.093 491.919 353.078C457.126 352.999 422.332 352.982 387.539 353.022C381.231 353.03 379.106 355.009 378.918 361.391C378.528 374.695 378.146 388.011 378.285 401.316C378.424 414.464 380.055 415.708 393.158 415.737C416.786 415.789 440.415 415.907 463.935 416.4C463.579 418.766 463.117 420.728 463.116 422.691C463.082 470.105 463.08 517.52 463.119 564.934C463.126 574.027 464.965 575.73 473.972 575.731C491.605 575.733 509.237 575.776 526.87 575.802ZM801.5 716.804C826.333 716.784 851.167 716.789 876 716.726C882.473 716.71 884.017 715.142 884.045 708.82C884.097 697.154 884.093 685.487 884.097 673.82C884.099 666.355 882.937 665.136 875.356 665.134C793.357 665.115 711.358 665.111 629.359 665.136C619.787 665.138 617.298 667.623 617.163 677.343C617.027 687.175 617.068 697.009 617.096 706.843C617.119 715.137 618.869 716.858 627.002 716.856C684.834 716.837 742.667 716.82 801.5 716.804ZM698.202 386.469C698.237 389.799 698.149 393.137 698.34 396.458C698.598 400.968 700.667 403.168 705.656 403.147C761.117 402.916 816.579 402.862 872.041 402.736C874.03 402.732 876.028 402.546 878.008 402.32C882.179 401.843 884.118 399.405 884.109 395.251C884.083 383.426 884.087 371.601 884.084 359.776C884.082 355.281 881.821 352.992 877.349 352.931C873.52 352.879 869.689 352.885 865.858 352.888C813.561 352.93 761.263 352.959 708.966 353.038C699.997 353.051 698.248 354.917 698.211 363.994C698.181 371.156 698.202 378.317 698.202 386.469ZM888.843 558.504C888.737 554.013 888.915 549.492 888.457 545.037C887.788 538.53 885.93 537.031 879.486 536.979C865.163 536.863 850.839 536.69 836.516 536.713C814.032 536.75 791.547 536.905 769.063 537.065C762.069 537.115 759.848 539.407 759.839 546.406C759.829 555.4 759.909 564.394 759.913 573.388C759.915 577.739 761.535 580.263 766.375 580.255C804.516 580.2 842.657 580.22 880.798 580.259C885.474 580.264 888.037 577.921 888.4 573.456C888.777 568.821 888.714 564.15 888.843 558.504ZM609.002 352.952C598.504 352.984 588.006 352.954 577.509 353.075C572.104 353.137 569.877 355.108 569.766 360.044C569.506 371.701 569.316 383.362 569.314 395.022C569.312 401.03 571.245 402.829 577.137 402.765C587.464 402.652 597.791 402.44 608.117 402.204C613.089 402.09 615.063 400.187 615.101 395.181C615.192 383.351 615.106 371.519 615.143 359.688C615.154 356.012 613.681 353.627 609.002 352.952ZM837.236 627.5C837.25 616.538 837.382 605.572 837.157 594.615C837.121 592.885 835.472 591.189 834.569 589.478C833.699 591.203 832.087 592.921 832.07 594.655C831.874 614.419 831.852 634.187 832.035 653.951C832.049 655.555 833.911 657.143 834.915 658.738C835.692 657.13 837.096 655.539 837.139 653.911C837.363 645.446 837.24 636.971 837.236 627.5ZM612.951 494.548C612.993 505.185 612.871 515.827 613.236 526.453C613.298 528.241 615.465 529.957 616.659 531.707C617.818 529.958 619.946 528.228 619.983 526.456C620.264 512.834 620.235 499.202 620.002 485.578C619.977 484.104 618.047 482.662 617.001 481.205C615.731 482.504 613.726 483.623 613.353 485.142C612.694 487.822 613.03 490.747 612.951 494.548Z" fill="white"/>
<path d="M927.99 223.918C906.184 223.966 884.378 224.057 862.572 224.057C741.692 224.06 620.813 224.041 499.483 223.587C500.415 221.407 501.528 219.322 503.232 217.997C508.329 214.033 513.824 210.574 518.866 206.546C535.055 193.611 550.742 180.018 567.315 167.602C585.623 153.887 604.427 140.787 623.503 128.157C646.469 112.952 671.188 101.35 698.286 95.4089C718.783 90.915 739.398 90.7443 760.107 93.8173C775.796 96.1453 790.733 100.871 805.386 106.885C824.602 114.771 842.503 124.951 858.385 138.182C869.566 147.496 879.697 158.115 889.923 168.518C902.308 181.118 912.466 195.506 921.643 210.553C924.197 214.74 925.898 219.448 927.99 223.918Z" fill="#F0F0F0"/>
<path d="M370.902 799.251C492.342 798.799 613.711 798.823 735.643 799.325C742.158 800.47 748.099 801.259 754.066 801.753C757.298 802.02 760.571 801.818 763.825 801.766C768.066 801.698 772.75 803.55 775.999 799.039C782.026 798.973 788.053 798.907 794.642 799.32C800.217 800.336 805.224 801.14 810.248 801.275C812.144 801.326 814.081 799.829 815.999 799.037C819.698 798.974 823.397 798.912 827.627 799.295C830.09 801.691 831.77 801.911 832.999 799.036C834.393 798.972 835.787 798.907 837.649 799.262C839.077 799.466 840.038 799.251 840.999 799.035C841.447 798.974 841.895 798.913 842.762 799.314C846.472 800.517 849.751 801.828 853.055 801.898C865.132 802.156 877.219 802.094 889.3 801.955C894.262 801.897 899.232 800.933 904.172 801.113C909.933 801.324 915.654 802.746 921.413 802.911C932.153 803.219 942.908 803.051 953.656 802.969C956.938 802.944 960.219 802.582 963.496 802.321C966.223 802.104 969.029 802.144 971.649 801.476C977.224 800.053 982.7 798.243 988.793 796.42C988.821 795.875 988.896 794.414 988.972 792.953C988.972 792.953 988.984 792.989 988.967 792.978C992.166 792.929 996.071 795.276 997.514 789.089C998.09 789.537 998.665 789.985 999.241 790.433C999.117 792.42 998.993 794.408 998.821 797.152C999.853 797.466 1001.48 797.962 1003.48 798.57C1003.37 799.538 1003.25 800.615 1002.98 802.314C1002.14 803.592 1001.43 804.248 1000.73 804.904C999.261 805.694 997.79 806.483 995.749 807.584C985.955 812.327 976.026 813.445 966.001 814.111C958.308 814.061 950.616 814.011 942.131 813.965C940.893 814.021 940.447 814.073 940.001 814.125C928.567 814.083 917.133 814.041 904.889 814.009C903.13 814.068 902.182 814.116 901.234 814.165C899.053 814.109 896.872 814.053 893.919 814.011C892.508 814.074 891.87 814.123 891.233 814.173C888.006 814.11 884.778 814.048 880.796 813.997C877.101 814.06 874.162 814.111 871.222 814.162C856.084 814.098 840.946 814.034 825.412 814.048C784.964 814.057 744.913 813.986 704.863 813.918C699.544 813.909 694.226 813.915 687.985 813.931C591.196 813.947 495.329 813.94 399.462 813.952C390.647 813.953 381.832 814.07 372.729 814.055C372.242 813.99 372.044 814.003 371.845 814.016C371.507 809.253 371.169 804.49 370.902 799.251Z" fill="#445369"/>
<path d="M973.971 267.268C963.994 271.056 955.147 267.236 952.278 258.239C949.552 249.693 954.669 240.926 963.664 238.731C969.784 237.237 976.147 240.177 979.701 246.14C983.1 251.845 982.37 258.947 977.727 264.204C976.752 265.307 975.451 266.123 973.971 267.268Z" fill="#F67663"/>
<path d="M916.285 265.708C909.888 258.018 910.278 248.209 916.918 242.735C923.332 237.447 932.307 238.47 937.82 245.119C942.528 250.795 942.245 259.82 937.189 265.282C931.691 271.222 923.923 271.477 916.285 265.708Z" fill="#F8F9FA"/>
<path d="M877.264 243.141C884.036 238.595 890.374 238.81 895.812 243.517C900.941 247.956 902.457 255.433 899.5 261.711C896.97 267.08 890.117 270.68 884.176 269.76C877.596 268.741 872.001 262.665 871.424 255.614C871.012 250.586 873.322 246.64 877.264 243.141Z" fill="#F67664"/>
<path d="M1007.77 794.216C1007.42 794.79 1007.01 795.078 1006.6 795.366C1006.48 794.94 1006.37 794.513 1006.26 794.087C1006.74 794.035 1007.22 793.982 1007.77 794.216Z" fill="#445369"/>
<path d="M361.702 969.062C364.391 977.7 366.703 986.422 369.022 995.55C367.375 994.067 364.924 992.43 364.225 990.235C362.546 984.964 361.56 979.454 360.584 973.988C360.312 972.467 361.051 970.766 361.702 969.062Z" fill="#2B292C"/>
<path d="M324.92 942.471C324.339 943.805 323.805 944.752 323.272 945.7C322.785 945.777 322.298 945.853 321.812 945.93C320.97 943.335 320.097 940.749 319.419 938.112C319.395 938.019 321.999 936.903 322.189 937.156C323.311 938.653 324.08 940.413 324.92 942.471Z" fill="#2B292C"/>
<path d="M159.132 941.502C159.186 940.519 159.108 939.729 159.461 939.274C160.565 937.854 161.831 936.56 163.034 935.217C163.569 935.925 164.63 937.196 164.561 937.26C162.846 938.867 161.011 940.347 159.132 941.502Z" fill="#2B292C"/>
<path d="M169.904 932.94C168.062 932.394 166.503 931.666 164.944 930.937C165.275 930.357 165.607 929.777 165.938 929.196C168.081 929.16 170.493 928.672 169.904 932.94Z" fill="#2B292C"/>
<path d="M173.056 925.708C174.679 925.345 176.029 925.217 177.379 925.088C177.56 925.537 177.741 925.987 177.922 926.436C176.646 927.225 175.37 928.015 174.094 928.804C173.656 927.85 173.219 926.896 173.056 925.708Z" fill="#2B292C"/>
<path d="M301.617 935.181C302.095 938.113 302.095 938.113 296.919 936.719C299.139 935.88 300.197 935.48 301.617 935.181Z" fill="#2B292C"/>
<path d="M352.917 941.238C353.718 942.358 354.358 943.823 355.006 945.643C351.363 946.007 351.67 943.993 352.917 941.238Z" fill="#2B292C"/>
<path d="M349.814 932.156C350.334 932.459 350.633 932.935 350.946 933.705C350.504 933.443 350.048 932.887 349.814 932.156Z" fill="#2B292C"/>
<path d="M141.825 749.241C141.966 750.873 141.801 752.776 141.401 755.018C141.284 753.409 141.402 751.46 141.825 749.241Z" fill="#FD7A64"/>
<path d="M373.017 814.133C381.832 814.07 390.647 813.953 399.462 813.952C495.329 813.941 591.196 813.947 687.524 814.028C685.987 817.24 684.439 820.806 681.914 823.433C664.644 841.405 645.325 856.752 621.972 866.005C607.077 871.907 591.902 877.452 576.399 881.357C564.481 884.36 551.882 885.416 539.539 885.79C522.789 886.298 505.918 886.194 489.242 884.724C475.303 883.495 461.429 880.513 447.777 877.258C425.817 872.022 404.489 864.685 383.832 855.489C382.958 855.1 381.89 855.145 380.53 854.982C377.405 842.279 374.664 829.582 372.189 816.29C372.643 815.174 372.83 814.653 373.017 814.133Z" fill="#F0F0F0"/>
<path d="M544.142 475.149C545.923 469.064 547.159 462.746 549.622 456.951C552.804 449.466 557.195 442.627 564.478 438.153C565.929 437.262 566.564 435.09 567.986 434.096C571.224 431.83 574.718 429.929 578.407 428.287C578.091 431.726 577.478 434.759 576.864 437.791C581.802 433.978 581.86 433.977 588.941 437.816C589.311 442.22 589.68 446.625 590.086 451.465C598.243 451.885 598.436 460.936 603.253 465.597C611.999 474.06 610.945 484.376 607.148 494.674C603.704 504.016 600.646 513.623 596.029 522.38C588.776 536.138 582.549 550.158 578.928 565.711C572.081 564.512 565.397 562.721 558.619 561.417C551.371 560.024 544.035 559.089 536.279 557.89C541.348 557.602 542.676 553.897 543.047 549.265C544.143 535.618 545.301 521.976 546.245 507.724C560.882 492.681 559.261 473.345 562.331 453.907C555.628 461.734 549.885 468.442 544.142 475.149Z" fill="#FAA296"/>
<path d="M586.02 570.821C602 570.379 617.994 570.117 633.979 570.373C638.767 570.449 639.757 568.862 639.713 564.423C639.491 542.104 639.547 519.782 639.586 497.461C639.6 488.998 641.099 487.63 649.627 487.631C708.93 487.64 768.233 487.648 827.536 487.662C829.201 487.662 831.117 487.206 832.47 487.871C834.252 488.748 836.872 490.482 836.92 491.921C837.319 503.902 837.271 515.9 837.137 527.89C837.126 528.909 835.507 529.909 834.635 530.917C833.707 529.573 832.004 528.245 831.974 526.88C831.766 517.557 831.91 508.227 831.938 498.898C831.944 497.105 831.939 495.312 831.939 493.257C769.549 493.257 707.66 493.257 645.017 493.257C645.017 495.061 645.017 496.81 645.017 498.559C645.018 521.048 645.037 543.537 645.01 566.025C645 573.887 643.08 575.75 635.279 575.779C619.462 575.838 603.646 575.905 587.363 576.111C586.608 574.568 586.319 572.884 586.02 570.821Z" fill="#A39A9A"/>
<path d="M467.104 416.06C467.594 417.931 468.51 419.803 468.51 421.675C468.506 469.498 468.447 517.321 468.247 565.143C468.231 569.085 469.464 570.354 473.362 570.334C491.522 570.242 509.684 570.382 528.301 570.435C528.221 572.022 527.683 573.613 527.008 575.503C509.238 575.776 491.605 575.733 473.973 575.731C464.966 575.73 463.127 574.027 463.12 564.934C463.081 517.519 463.083 470.105 463.117 422.691C463.118 420.728 463.58 418.766 463.899 416.392C463.971 415.98 463.946 416.052 464.216 415.954C464.677 415.838 464.868 415.821 465.289 415.946C466.048 416.079 466.576 416.069 467.104 416.06Z" fill="#A39A9A"/>
<path d="M284.344 541.983C283.334 541.433 282.771 540.822 282.333 539.574C282.223 526.68 281.988 514.422 281.912 501.845C285.704 494.397 291.604 492.414 299.089 494.029C299.169 509.296 299.25 524.562 299.343 540.268C294.499 541.113 289.644 541.518 284.344 541.983Z" fill="#43556A"/>
<path d="M372.729 814.055C372.83 814.653 372.643 815.174 372.226 815.859C371.929 815.58 371.863 815.136 371.821 814.354C372.044 814.003 372.242 813.99 372.729 814.055Z" fill="#EDECED"/>
<path d="M801.001 716.803C742.668 716.82 684.836 716.837 627.003 716.856C618.87 716.858 617.12 715.136 617.097 706.842C617.069 697.009 617.028 687.175 617.164 677.343C617.299 667.623 619.788 665.138 629.36 665.136C711.359 665.111 793.358 665.115 875.357 665.134C882.938 665.136 884.1 666.355 884.098 673.82C884.094 685.487 884.098 697.153 884.046 708.82C884.018 715.142 882.474 716.71 876.001 716.726C851.168 716.789 826.334 716.784 801.001 716.803Z" fill="#F3F3F3"/>
<path d="M698.202 385.974C698.203 378.317 698.182 371.156 698.212 363.994C698.249 354.917 699.998 353.051 708.967 353.038C761.264 352.959 813.562 352.93 865.859 352.888C869.69 352.885 873.521 352.879 877.351 352.931C881.822 352.992 884.083 355.281 884.085 359.776C884.088 371.601 884.084 383.426 884.11 395.251C884.119 399.405 882.18 401.843 878.009 402.32C876.029 402.546 874.031 402.732 872.042 402.736C816.58 402.862 761.118 402.916 705.657 403.147C700.668 403.168 698.599 400.968 698.341 396.458C698.15 393.137 698.238 389.799 698.202 385.974Z" fill="#F3F3F3"/>
<path d="M467.634 416.025C466.575 416.069 466.047 416.079 465.122 415.881C464.466 415.8 464.206 415.926 463.945 416.052C463.945 416.052 463.97 415.98 464.007 415.989C440.415 415.907 416.786 415.789 393.158 415.737C380.054 415.708 378.424 414.464 378.285 401.316C378.145 388.011 378.528 374.695 378.918 361.391C379.105 355.009 381.231 353.029 387.539 353.022C422.332 352.982 457.125 352.999 491.919 353.078C498.458 353.093 500.121 354.922 500.125 361.504C500.134 376.32 500.137 391.137 500.044 405.953C499.998 413.402 497.486 415.832 490.133 415.885C482.811 415.937 475.488 415.957 467.634 416.025Z" fill="#F3F3F3"/>
<path d="M299.43 493.868C291.604 492.414 285.704 494.397 281.678 502.1C280.847 504.066 280.204 505.429 280.003 506.855C279.051 513.636 278.218 520.435 277.343 527.228C272.608 519.211 267.432 511.416 263.243 503.123C257.415 491.585 257.257 478.987 258.538 466.46C259.35 458.51 258.798 451.023 255.974 443.436C254.163 438.568 253.018 433.084 253.179 427.927C253.514 417.219 262.98 412.638 271.989 418.463C275.157 420.51 277.842 423.303 281.042 426.005C281.823 424.994 282.529 423.935 283.379 423.005C288.723 417.156 293.932 411.169 299.516 405.556C304.195 400.853 309.324 396.597 314.554 391.998C321.373 408.067 325.154 424.702 323.21 442.355C322.23 451.248 322.128 460.245 320.965 469.108C318.81 485.53 314.307 491.083 299.43 493.868Z" fill="#FAA296"/>
<path d="M888.844 559C888.715 564.15 888.778 568.821 888.401 573.456C888.038 577.921 885.475 580.264 880.799 580.259C842.658 580.22 804.517 580.2 766.376 580.255C761.537 580.263 759.916 577.739 759.914 573.388C759.91 564.394 759.83 555.4 759.84 546.406C759.849 539.407 762.07 537.115 769.064 537.065C791.548 536.905 814.033 536.75 836.517 536.713C850.84 536.69 865.164 536.863 879.487 536.979C885.931 537.031 887.789 538.53 888.458 545.037C888.916 549.492 888.738 554.013 888.844 559Z" fill="#F3F3F3"/>
<path d="M609.448 352.974C613.682 353.627 615.154 356.012 615.143 359.688C615.106 371.519 615.193 383.351 615.102 395.181C615.064 400.187 613.089 402.09 608.117 402.204C597.791 402.44 587.465 402.652 577.138 402.765C571.246 402.829 569.312 401.03 569.313 395.022C569.316 383.362 569.506 371.701 569.766 360.044C569.877 355.108 572.104 353.137 577.509 353.075C588.006 352.954 598.505 352.984 609.448 352.974Z" fill="#F3F3F3"/>
<path d="M544.02 475.466C549.885 468.442 555.628 461.734 562.331 453.907C559.261 473.345 560.882 492.681 546.001 507.436C542.152 512.384 538.274 516.944 534.599 521.664C532.683 524.125 530.583 524.542 528.172 522.822C524.284 520.05 520.516 517.11 516.318 513.956C525.825 500.798 534.862 488.29 544.02 475.466ZM532.699 517.919C532.66 516.395 533.208 514.016 532.47 513.509C530.296 512.016 527.623 511.24 525.109 510.277C524.931 510.208 524.12 511.009 524.187 511.212C524.668 512.664 524.912 514.617 525.969 515.361C527.827 516.668 528.336 521.262 532.699 517.919Z" fill="#080606"/>
<path d="M988.629 793.046C988.897 794.414 988.822 795.875 988.794 796.42C982.701 798.244 977.225 800.053 971.65 801.476C969.03 802.144 966.224 802.104 963.497 802.321C960.22 802.582 956.939 802.944 953.657 802.969C942.909 803.051 932.154 803.219 921.414 802.911C915.655 802.746 909.934 801.324 904.173 801.113C899.233 800.933 894.263 801.897 889.301 801.955C877.22 802.094 865.134 802.156 853.056 801.898C849.752 801.828 846.473 800.518 843.092 799.406C870.794 798.957 898.585 798.872 926.377 798.802C939.693 798.768 953.01 798.808 966.326 798.727C974.087 798.68 981.572 797.384 988.629 793.046Z" fill="#425267"/>
<path d="M837.238 628C837.241 636.972 837.364 645.446 837.14 653.911C837.097 655.539 835.693 657.13 834.916 658.738C833.913 657.143 832.05 655.555 832.036 653.951C831.853 634.187 831.875 614.419 832.071 594.655C832.088 592.921 833.7 591.203 834.57 589.478C835.473 591.189 837.122 592.885 837.158 594.615C837.383 605.572 837.251 616.538 837.238 628Z" fill="#A39A9A"/>
<path d="M616.945 481.949C617.135 482.18 617.336 482.409 617.537 482.63C617.874 483.003 618.202 483.353 618.504 483.708C619.084 484.393 619.446 484.969 619.497 485.484L619.503 485.586C619.706 497.503 619.753 509.425 619.574 521.339L619.483 526.446C619.469 527.152 619.028 527.911 618.347 528.783C618.013 529.211 617.649 529.633 617.278 530.078C617.066 530.333 616.854 530.594 616.653 530.858C616.446 530.593 616.228 530.33 616.009 530.074C615.629 529.63 615.255 529.209 614.913 528.782C614.258 527.966 613.819 527.245 613.746 526.57L613.736 526.435C613.371 515.824 613.492 505.202 613.45 494.071C613.49 492.421 613.426 490.803 613.434 489.366C613.442 488.082 613.503 486.884 613.73 485.746L613.838 485.261C613.985 484.662 614.472 484.091 615.174 483.463C615.519 483.155 615.888 482.856 616.268 482.538C616.496 482.347 616.724 482.15 616.945 481.949Z" fill="#FCFCFC" stroke="#FCFCFC"/>
<path d="M589.101 437.527C581.86 433.977 581.802 433.978 576.864 437.791C577.477 434.759 578.091 431.726 578.797 428.333C585.178 426.148 591.024 423.533 594.951 417.505C595.285 417.898 595.62 418.29 595.954 418.683C595.772 419.545 595.8 420.534 595.37 421.246C593.707 423.993 591.984 426.31 592.919 430.179C593.389 432.124 590.585 434.86 589.101 437.527Z" fill="#130F0F"/>
<path d="M775.539 798.945C772.751 803.55 768.067 801.699 763.826 801.766C760.572 801.818 757.297 802.021 754.066 801.753C748.099 801.259 742.158 800.47 736.104 799.421C749.027 798.976 762.053 798.914 775.539 798.945Z" fill="#425267"/>
<path d="M815.54 798.944C814.082 799.829 812.145 801.326 810.249 801.275C805.225 801.14 800.218 800.336 795.103 799.416C801.694 798.972 808.387 798.911 815.54 798.944Z" fill="#425267"/>
<path d="M832.589 798.944C831.77 801.911 830.09 801.691 828.079 799.39C829.394 798.977 830.787 798.914 832.589 798.944Z" fill="#425267"/>
<path d="M840.631 798.941C840.039 799.25 839.078 799.466 838.06 799.358C838.755 798.972 839.509 798.91 840.631 798.941Z" fill="#425267"/>
<path d="M277.416 527.55C278.218 520.435 279.051 513.636 280.003 506.855C280.204 505.429 280.847 504.066 281.52 502.42C281.988 514.422 282.223 526.68 282.35 539.255C280.659 535.673 279.074 531.773 277.416 527.55Z" fill="#D9D0D4"/>
<path d="M464.216 415.953C464.206 415.926 464.466 415.8 464.892 415.739C464.867 415.821 464.677 415.838 464.216 415.953Z" fill="#FCFCFC"/>
<path d="M532.462 518.174C528.337 521.262 527.827 516.668 525.969 515.361C524.912 514.617 524.668 512.664 524.188 511.212C524.121 511.009 524.932 510.208 525.11 510.277C527.623 511.24 530.296 512.016 532.47 513.509C533.208 514.016 532.661 516.395 532.462 518.174Z" fill="#38454A"/>
<path d="M253.123 315.009C237.82 313.233 96.0825 581.688 101 589C105.918 596.312 107.894 593.5 109.5 598.5C111.106 603.5 116.623 613.72 116.623 613.72L118.123 621.203L118.623 629.184L115.123 645.147L112.623 652.63L111.623 656.621L111.123 660.611V664.103L112.123 670.089L117.623 678.071L123.123 683.059L129.623 687.05L135.123 687.549L141.123 689.544L151.123 694.034L160.623 699.521L171.123 703.013L176.623 702.514L183.123 701.018L195.5 699.521L204.623 700.02L210.123 702.015L221.123 705.009H233.123H239L246.5 702.015L251.5 700.02L256.5 696.5L277.5 686L281 683L284.623 677.5L287.5 672.5L289.623 666.5V657.119V649L286.5 639.5L284.623 633L284 616.5L289.623 601L291 593.5L292 585.5V577.5L289.623 569.323L285 542.5L278.5 528.5L271.123 517.443L264 504.5L259 492L257.5 472L258.123 464V455.5L260.123 444.5L253.5 431V425L254.5 421L260.123 415.679L268.123 416.677L280.5 426L293.123 411.19L307.123 398.22L315.123 389.739L320.5 380L322.123 369.786L321.123 360.308L315.123 346.839L298.123 332.372C298.123 332.372 268.427 316.785 253.123 315.009Z" fill="black" stroke="black"/>
<path d="M175 332.719C188.167 325.386 222.7 311.719 255.5 315.719L104.5 593L101 588.5L99 577.5V519.719L105 468.219L126.5 394.5L151 354.219L175 332.719Z" fill="black" stroke="black"/>
</g>
</g>
<defs>
<linearGradient id="paint0_linear_3380_73" x1="357.681" y1="540.714" x2="357.681" y2="916.79" gradientUnits="userSpaceOnUse">
<stop stop-color="#EE575C"/>
<stop offset="1" stop-color="#F67146"/>
</linearGradient>
<clipPath id="clip0_3380_73">
<rect width="1080" height="1080" fill="white"/>
</clipPath>
</defs>
</svg>
