
<?xml version="1.0" encoding="UTF-8" standalone="no"?>
<svg
   xmlns:dc="http://purl.org/dc/elements/1.1/"
   xmlns:cc="http://creativecommons.org/ns#"
   xmlns:rdf="http://www.w3.org/1999/02/22-rdf-syntax-ns#"
   xmlns:svg="http://www.w3.org/2000/svg"
   xmlns="http://www.w3.org/2000/svg"
   viewBox="0 0 4000 2666.6667"
   width="200"
   xml:space="preserve"
   id="svg2"
   version="1.1"><metadata
     id="metadata8"><rdf:RDF><cc:Work
         rdf:about=""><dc:format>image/svg+xml</dc:format><dc:type
           rdf:resource="http://purl.org/dc/dcmitype/StillImage" /></cc:Work></rdf:RDF></metadata><defs
     id="defs6"><clipPath
       id="clipPath186"
       clipPathUnits="userSpaceOnUse"><path
         id="path184"
         d="m 16515.7,11642.9 c 71.8,183.8 111.1,383.8 111.1,593 0,373.9 -125.8,718.6 -337.3,993.8 54,130.7 96.4,265.5 125.1,402.8 340.6,-491.6 568.9,-1058.4 661.6,-1661.7 -151.8,-99.8 -336.3,-209.4 -560.5,-327.9" /></clipPath><linearGradient
       id="linearGradient194"
       spreadMethod="pad"
       gradientTransform="matrix(-4468.48,-7758.45,-7758.45,4468.48,17570.7,15020.9)"
       gradientUnits="userSpaceOnUse"
       y2="0"
       x2="1"
       y1="0"
       x1="0"><stop
         id="stop190"
         offset="0"
         style="stop-opacity:1;stop-color:#d9effe" /><stop
         id="stop192"
         offset="1"
         style="stop-opacity:1;stop-color:#8bcffc" /></linearGradient><clipPath
       id="clipPath204"
       clipPathUnits="userSpaceOnUse"><path
         id="path202"
         d="m 14902.1,11233.6 c -302.3,0.1 -537.5,45.8 -631.1,115 -14.3,25.1 -28.9,49.5 -43.8,73 3.8,64.3 109.2,138.7 352.3,212.6 196.3,59.6 394.9,153.7 585.8,275.6 294.1,-153.9 566.9,-279 773.1,-279 10.1,0 20.1,0.3 29.9,0.9 -79.6,-97.9 -149.6,-194.7 -211.3,-289.4 -302.8,-76.7 -602.3,-108.7 -854.9,-108.7 m 1003.5,150 c 77.3,109.7 166,221.3 267.9,333.3 74.2,73 111.5,190.7 113.7,357.2 2.5,195.1 -47.1,320.9 -151.5,384.5 -49.5,30.1 -108.1,43.5 -174.2,43.5 -41.9,0 -86.8,-5.4 -134.2,-15.2 190.8,222.3 351.1,473.9 462.2,742.8 211.5,-275.2 337.3,-619.9 337.3,-993.8 0,-209.2 -39.3,-409.2 -111.1,-593 -43.5,-23.1 -88.5,-46.4 -135,-70.1 -152.9,-77.8 -313.4,-140.2 -475.1,-189.2 m 31.5,346.6 c -171.2,0 -416.9,109.1 -676.9,243 154.6,107.7 302.7,233.4 439,373.5 98.4,35.1 187,56.2 260.5,56.2 48.4,0 90.3,-9.2 123.9,-29.7 70.7,-43 105.6,-143.2 103.6,-297.8 -2.1,-163.2 -42.2,-269 -119.2,-314.4 -36.1,-21.2 -80.2,-30.8 -130.9,-30.8" /></clipPath><linearGradient
       id="linearGradient212"
       spreadMethod="pad"
       gradientTransform="matrix(-4468.48,-7758.45,-7758.45,4468.48,17570.7,15020.9)"
       gradientUnits="userSpaceOnUse"
       y2="0"
       x2="1"
       y1="0"
       x1="0"><stop
         id="stop208"
         offset="0"
         style="stop-opacity:1;stop-color:#faedc0" /><stop
         id="stop210"
         offset="1"
         style="stop-opacity:1;stop-color:#eec742" /></linearGradient><clipPath
       id="clipPath222"
       clipPathUnits="userSpaceOnUse"><path
         id="path220"
         d="m 14271,11348.6 c -29.9,22.2 -45.3,46.8 -43.8,73 14.9,-23.5 29.5,-47.9 43.8,-73" /></clipPath><linearGradient
       id="linearGradient228"
       spreadMethod="pad"
       gradientTransform="matrix(-4468.48,-7758.45,-7758.45,4468.48,17570.7,15020.9)"
       gradientUnits="userSpaceOnUse"
       y2="0"
       x2="1"
       y1="0"
       x1="0"><stop
         id="stop224"
         offset="0"
         style="stop-opacity:1;stop-color:#cadff9" /><stop
         id="stop226"
         offset="1"
         style="stop-opacity:1;stop-color:#5e9fed" /></linearGradient><clipPath
       id="clipPath238"
       clipPathUnits="userSpaceOnUse"><path
         id="path236"
         d="m 15757,11342.3 c 61.7,94.7 131.7,191.5 211.3,289.4 55.9,3.5 106.4,17.2 150.5,43.2 20.1,11.8 38.3,25.8 54.7,42 -101.9,-112 -190.6,-223.6 -267.9,-333.3 -49.5,-15 -99.1,-28.7 -148.6,-41.3" /></clipPath><linearGradient
       id="linearGradient244"
       spreadMethod="pad"
       gradientTransform="matrix(-4468.48,-7758.45,-7758.45,4468.48,17570.7,15020.9)"
       gradientUnits="userSpaceOnUse"
       y2="0"
       x2="1"
       y1="0"
       x1="0"><stop
         id="stop240"
         offset="0"
         style="stop-opacity:1;stop-color:#cadff9" /><stop
         id="stop242"
         offset="1"
         style="stop-opacity:1;stop-color:#5e9fed" /></linearGradient><clipPath
       id="clipPath254"
       clipPathUnits="userSpaceOnUse"><path
         id="path252"
         d="m 15938.4,11630.8 c -206.2,0 -479,125.1 -773.1,279 31.8,20.3 63.6,41.5 94.9,63.4 260,-133.9 505.7,-243 676.9,-243 50.7,0 94.8,9.6 130.9,30.8 77,45.4 117.1,151.2 119.2,314.4 2,154.6 -32.9,254.8 -103.6,297.8 -33.6,20.5 -75.5,29.7 -123.9,29.7 -73.5,0 -162.1,-21.1 -260.5,-56.2 44,45.3 86.7,92 128.1,140.2 47.4,9.8 92.3,15.2 134.2,15.2 66.1,0 124.7,-13.4 174.2,-43.5 104.4,-63.6 154,-189.4 151.5,-384.5 -2.2,-166.5 -39.5,-284.2 -113.7,-357.2 -16.4,-16.2 -34.6,-30.2 -54.7,-42 -44.1,-26 -94.6,-39.7 -150.5,-43.2 -9.8,-0.6 -19.8,-0.9 -29.9,-0.9" /></clipPath><linearGradient
       id="linearGradient260"
       spreadMethod="pad"
       gradientTransform="matrix(-4468.48,-7758.45,-7758.45,4468.48,17570.7,15020.9)"
       gradientUnits="userSpaceOnUse"
       y2="0"
       x2="1"
       y1="0"
       x1="0"><stop
         id="stop256"
         offset="0"
         style="stop-opacity:1;stop-color:#cadff9" /><stop
         id="stop258"
         offset="1"
         style="stop-opacity:1;stop-color:#5e9fed" /></linearGradient><clipPath
       id="clipPath270"
       clipPathUnits="userSpaceOnUse"><path
         id="path268"
         d="m 17076.2,11970.8 c -92.7,603.3 -321,1170.1 -661.6,1661.7 2.7,12.8 5.2,25.5 7.6,38.3 349,-497.3 584.4,-1071.7 681.1,-1682.1 -8.9,-5.9 -18,-11.9 -27.1,-17.9" /></clipPath><linearGradient
       id="linearGradient278"
       spreadMethod="pad"
       gradientTransform="matrix(-4468.48,-7758.45,-7758.45,4468.48,17570.7,15020.9)"
       gradientUnits="userSpaceOnUse"
       y2="0"
       x2="1"
       y1="0"
       x1="0"><stop
         id="stop274"
         offset="0"
         style="stop-opacity:1;stop-color:#5da0d5" /><stop
         id="stop276"
         offset="1"
         style="stop-opacity:1;stop-color:#1f3581" /></linearGradient><clipPath
       id="clipPath288"
       clipPathUnits="userSpaceOnUse"><path
         id="path286"
         d="m 15870.8,13613.3 c -206,131.4 -443.5,217.8 -698.5,245.4 76.8,275.8 135.8,559.4 170.4,824.4 262.5,-174.3 500.6,-377 711.1,-602.7 -52.3,-143.3 -112.8,-298.7 -183,-467.1" /></clipPath><linearGradient
       id="linearGradient294"
       spreadMethod="pad"
       gradientTransform="matrix(-4468.48,-7758.44,-7758.44,4468.48,16480.3,15648.9)"
       gradientUnits="userSpaceOnUse"
       y2="0"
       x2="1"
       y1="0"
       x1="0"><stop
         id="stop290"
         offset="0"
         style="stop-opacity:1;stop-color:#d9effe" /><stop
         id="stop292"
         offset="1"
         style="stop-opacity:1;stop-color:#8bcffc" /></linearGradient><clipPath
       id="clipPath304"
       clipPathUnits="userSpaceOnUse"><path
         id="path302"
         d="m 14380.2,12185.4 c -84.5,0.1 -106.4,46.5 -29.2,134.6 67.4,-26.6 138.5,-58.8 211.9,-94.3 -75,-27.1 -137.8,-40.3 -182.7,-40.3 m 304.5,91.6 c -87.9,44.4 -173.2,84.9 -254.6,118.7 4.6,3.9 9.4,7.8 14.3,11.8 283.1,230 552.1,820 727.9,1451.2 255,-27.6 492.5,-114 698.5,-245.4 -8.8,-21.2 -17.8,-42.6 -27,-64.2 -294.6,-695.7 -806.8,-1103.4 -1159.1,-1272.1" /></clipPath><linearGradient
       id="linearGradient310"
       spreadMethod="pad"
       gradientTransform="matrix(-4468.48,-7758.44,-7758.44,4468.48,16480.3,15648.9)"
       gradientUnits="userSpaceOnUse"
       y2="0"
       x2="1"
       y1="0"
       x1="0"><stop
         id="stop306"
         offset="0"
         style="stop-opacity:1;stop-color:#faedc0" /><stop
         id="stop308"
         offset="1"
         style="stop-opacity:1;stop-color:#eec742" /></linearGradient><clipPath
       id="clipPath320"
       clipPathUnits="userSpaceOnUse"><path
         id="path318"
         d="m 14562.9,12225.7 c -73.4,35.5 -144.5,67.7 -211.9,94.3 19.7,22.6 45.9,47.8 79.1,75.7 81.4,-33.8 166.7,-74.3 254.6,-118.7 -43.2,-20.7 -84.1,-37.8 -121.8,-51.3" /></clipPath><linearGradient
       id="linearGradient326"
       spreadMethod="pad"
       gradientTransform="matrix(-4468.48,-7758.44,-7758.44,4468.48,16480.3,15648.9)"
       gradientUnits="userSpaceOnUse"
       y2="0"
       x2="1"
       y1="0"
       x1="0"><stop
         id="stop322"
         offset="0"
         style="stop-opacity:1;stop-color:#cadff9" /><stop
         id="stop324"
         offset="1"
         style="stop-opacity:1;stop-color:#5e9fed" /></linearGradient><clipPath
       id="clipPath336"
       clipPathUnits="userSpaceOnUse"><path
         id="path334"
         d="m 16053.8,14080.4 c -210.5,225.7 -448.6,428.4 -711.1,602.7 1.5,11 2.9,22 4.2,32.9 264.6,-174.7 505,-378.4 717.8,-605.5 -3.6,-10 -7.2,-20 -10.9,-30.1" /></clipPath><linearGradient
       id="linearGradient342"
       spreadMethod="pad"
       gradientTransform="matrix(-4468.48,-7758.44,-7758.44,4468.48,16480.3,15648.9)"
       gradientUnits="userSpaceOnUse"
       y2="0"
       x2="1"
       y1="0"
       x1="0"><stop
         id="stop338"
         offset="0"
         style="stop-opacity:1;stop-color:#5da0d5" /><stop
         id="stop340"
         offset="1"
         style="stop-opacity:1;stop-color:#1f3581" /></linearGradient></defs><g
     transform="matrix(1.3333333,0,0,-1.3333333,0,2666.6667)"
     id="g10"><g
       transform="scale(0.1)"
       id="g12"><g
         transform="scale(1.84049)"
         id="g14"><path
           id="path16"
           style="fill:#ffffff;fill-opacity:1;fill-rule:nonzero;stroke:none"
           d="M 16300,0 H 0 V 10866.7 H 16300 V 0" /></g><g
         transform="scale(1.68733)"
         id="g18"><path
           id="path20"
           style="fill:#dbf2ff;fill-opacity:1;fill-rule:nonzero;stroke:none"
           d="M 2566.43,7065.69 C 3660.45,10187.1 5933.75,11293.4 7961.27,10528.8 9988.85,9764.21 12622.7,9954.57 13938.9,9735.43 15767.7,9430.95 16300,6307.13 13900.1,4746.13 11500.2,3185.09 10308.5,2509.41 5205.44,2296.05 102.401,2082.7 2210.8,6051.04 2566.43,7065.69" /></g><g
         transform="scale(1.71804)"
         id="g22"><path
           id="path24"
           style="fill:#dbf2ff;fill-opacity:1;fill-rule:nonzero;stroke:none"
           d="m 12193.4,3123.03 c 1584.9,1093.51 2648.7,2222.59 3201.8,1562.65 553.2,-659.94 904.8,-2036.04 -1069.8,-2406.28 -1974.5,-370.25 -3389.8,-24.1 -2132,843.63" /></g><path
         id="path26"
         style="fill:#9cd499;fill-opacity:1;fill-rule:nonzero;stroke:none"
         d="m 5196.35,2850.7 c -2.35,2.8 -3.94,6 -4.71,9.5 -21.3,97.6 -479.71,1404.6 -157.32,2253 188.73,496.6 247.64,1074.4 262.89,1269.4 1.67,21.4 30.08,27.7 40.5,8.9 100.21,-180.4 360.07,-760.2 110.06,-1570.2 -187.11,-606.3 -263.47,-774.2 -279.69,-952.6 -13.48,-148.3 45.91,-789.9 66.3,-1001.9 2.03,-21 -24.26,-32.1 -38.03,-16.1" /><path
         id="path28"
         style="fill:#74b570;fill-opacity:1;fill-rule:nonzero;stroke:none"
         d="m 5319.06,6387.6 -1.66,-0.1 c -1.81,-0.4 -4.9,-1.7 -5.24,-6 -17.15,-219.4 -77.19,-782.5 -263.82,-1273.7 -190.31,-500.8 -143.88,-1232.4 137.98,-2174.7 10.61,-35.5 17.62,-58.9 19.97,-69.7 0.25,-1.1 0.72,-2 1.43,-2.9 2.8,-3.2 6.05,-2.5 7.74,-1.8 1.66,0.7 4.4,2.5 3.99,6.7 -24.37,253.3 -79.62,858.3 -66.31,1004.7 10.89,119.7 47.16,230.7 126.63,473.9 40.3,123.4 90.45,276.9 153.68,481.7 250.83,812.7 -19.91,1398.4 -108.86,1558.5 -1.53,2.8 -3.76,3.4 -5.53,3.4 z M 5212.55,2828 c -10.37,0 -20.35,4.5 -27.58,13 -3.98,4.6 -6.66,10 -7.98,16 -2.12,9.7 -9.37,33.9 -19.41,67.5 -45.31,151.5 -151.43,506.2 -210.93,921.3 -74.53,519.8 -49.75,948 73.64,1272.7 185.26,487.5 244.91,1047.3 261.96,1265.3 1.27,16.3 12.83,29.5 28.77,33 15.92,3.5 31.9,-3.8 39.8,-18 50.19,-90.4 141.36,-282.5 188.04,-553.8 57.14,-332.1 31.32,-678 -76.75,-1028.1 -63.29,-205.1 -113.49,-358.7 -153.83,-482.2 -78.74,-241 -114.68,-351 -125.26,-467.3 -13.45,-148 47.34,-802.1 66.3,-999.1 1.55,-16.2 -7.12,-30.8 -22.12,-37.2 -4.8,-2.1 -9.77,-3.1 -14.65,-3.1" /><path
         id="path30"
         style="fill:#9cd499;fill-opacity:1;fill-rule:nonzero;stroke:none"
         d="m 5087.01,2717.5 c 72.97,1499.8 -283.75,2318.7 -1013.39,2967.2 -451.68,401.5 -636.17,619.7 -711.19,727.7 -12.88,18.5 -41.97,7.4 -39.26,-15 37.89,-313.5 176.09,-1235.6 523.46,-1596.4 421.56,-437.7 1037.7,-762 1126.88,-989 85.1,-216.6 59.46,-920.6 56.94,-984.4 -0.12,-3.2 0.43,-6.2 1.62,-9.1 l 54.94,-133.4 v 32.4" /><path
         id="path32"
         style="fill:#9cd499;fill-opacity:1;fill-rule:nonzero;stroke:none"
         d="m 5129.44,2655.8 c 12.88,-18.7 42.25,-7.6 39.38,14.9 -38.5,302.8 -229.73,1331 -738.48,1400.7 -591.82,81.1 -729.64,-56.7 -1134.99,8.1 -206.34,33 -378.24,89.1 -459.81,118.5 -18.82,6.8 -35.93,-13.3 -26.26,-30.9 61.05,-110.7 244.99,-375.9 656.31,-501 372.93,-113.6 859.36,72.9 1143.1,24.3 277.58,-47.6 423.27,-630.5 429.47,-655.8 l 0.35,-1.8 47.74,-310.4 c 0.5,-3.2 1.72,-6.3 3.57,-9 l 39.62,-57.6" /><path
         id="path34"
         style="fill:#74b570;fill-opacity:1;fill-rule:nonzero;stroke:none"
         d="m 5095.14,2791.7 -1.4,0.1 c -8.25,0.7 -14.32,8 -13.56,16.3 0.89,9.6 83.92,968.8 -322.47,1701.9 -210.06,379 -440.19,599.3 -662.74,812.4 -210.76,201.7 -409.83,392.3 -561.72,696.1 -3.7,7.4 -0.7,16.4 6.71,20.1 7.4,3.7 16.41,0.7 20.12,-6.7 149.56,-299.1 346.81,-487.9 555.64,-687.9 224.16,-214.6 455.96,-436.5 668.24,-819.4 410.95,-741.4 326.99,-1709.6 326.09,-1719.3 -0.71,-7.8 -7.25,-13.6 -14.91,-13.6" /><path
         id="path36"
         style="fill:#74b570;fill-opacity:1;fill-rule:nonzero;stroke:none"
         d="m 5135.65,2986.3 c -6.5,0 -12.5,4.2 -14.4,10.8 -152.94,527.1 -326.76,833.7 -547.03,964.7 -193.55,115.2 -398.14,79 -614.74,40.7 -54.72,-9.6 -111.31,-19.6 -167.65,-27 -493.53,-64.8 -728.71,53.2 -738.48,58.3 -7.36,3.8 -10.24,12.8 -6.44,20.2 3.81,7.3 12.87,10.2 20.22,6.4 2.31,-1.2 237.77,-118.5 720.8,-55.2 55.67,7.3 111.93,17.3 166.33,26.9 222.25,39.2 432.17,76.3 635.31,-44.5 227.2,-135.2 405.3,-447.3 560.49,-982.2 2.31,-7.9 -2.27,-16.2 -10.23,-18.5 -1.39,-0.4 -2.8,-0.6 -4.18,-0.6" /><path
         id="path38"
         style="fill:#74b570;fill-opacity:1;fill-rule:nonzero;stroke:none"
         d="m 4361.42,5065.7 c -3.2,0 -6.42,1.1 -9.15,3.2 -2.82,2.1 -285.82,217.6 -678.72,293 -8.13,1.6 -13.47,9.4 -11.9,17.6 1.56,8.1 9.39,13.4 17.55,11.9 400.18,-76.8 688.52,-296.6 691.39,-298.8 6.56,-5 7.77,-14.5 2.72,-21 -2.96,-3.8 -7.41,-5.9 -11.89,-5.9" /><path
         id="path40"
         style="fill:#74b570;fill-opacity:1;fill-rule:nonzero;stroke:none"
         d="m 4819.49,4413.1 c -5.12,0 -10.11,2.6 -12.91,7.4 -205.51,346.5 -449.15,434.7 -980.66,601.3 -7.9,2.5 -12.3,10.9 -9.82,18.8 2.47,8 10.89,12.4 18.8,9.9 539.11,-169 786.35,-258.7 997.48,-614.7 4.23,-7.2 1.87,-16.4 -5.25,-20.6 -2.4,-1.4 -5.04,-2.1 -7.64,-2.1" /><path
         id="path42"
         style="fill:#ffffff;fill-opacity:1;fill-rule:nonzero;stroke:none"
         d="m 4968.5,2218.9 h 326.2 c 138.23,0 256.97,98.2 282.93,234 l 108.43,567.2 c 2.56,13.4 -7.68,25.8 -21.28,25.8 H 4598.42 c -13.6,0 -23.84,-12.4 -21.29,-25.8 l 108.44,-567.2 c 25.96,-135.8 144.7,-234 282.93,-234" /><g
         transform="scale(1.54413)"
         id="g44"><path
           id="path46"
           style="fill:#9cd499;fill-opacity:1;fill-rule:nonzero;stroke:none"
           d="m 16113.7,1462.24 c 184.5,596.97 186.3,818.2 -51.8,1352.09 -238.2,533.89 -155.4,1464.38 -300.3,1205.92 -144.9,-258.4 -211.7,-943.06 100.4,-1316.6 312.2,-373.61 341.8,-527.67 346.5,-665.03 4.7,-137.43 -116.2,-543.41 -116.2,-543.41 l 21.4,-32.97" /></g><g
         transform="scale(1.53636)"
         id="g48"><path
           id="path50"
           style="fill:#74b570;fill-opacity:1;fill-rule:nonzero;stroke:none"
           d="m 16298.6,1858.22 c 0.6,2.34 0.9,4.62 1.4,6.97 -0.5,51.09 -5,314.18 -41.9,422.23 -41,119.89 -256.6,345.94 -294.1,601.68 -37.4,255.8 -120.9,460.57 -172,625.44 -67.4,217.72 16,486.27 103,566.4 -1.7,1.43 -3.5,2.47 -5.3,3.19 l -27.2,-12.24 c -6.5,-7.29 -13.5,-17.64 -21.2,-31.31 -145.6,-259.7 -212.8,-947.82 101,-1323.25 313.8,-375.5 343.5,-530.35 348.2,-668.4 1.3,-37.23 -6.6,-94.18 -18.8,-157.38 l 26.9,-33.33" /></g><g
         transform="scale(1.62588)"
         id="g52"><path
           id="path54"
           style="fill:#9cd499;fill-opacity:1;fill-rule:nonzero;stroke:none"
           d="m 15171.4,1508.29 c 160.3,671.76 162.4,910.64 75.9,1473.84 -86.6,563.14 1052.7,1686.1 995.5,1475.02 -57.2,-211.03 -226.2,-732.9 -538.8,-1035.56 -312.7,-302.61 -366.4,-572.55 -348.6,-867.04 17.8,-294.49 -125.5,-957.57 -125.5,-957.57 l -45.9,-116.74 -12.6,28.05" /></g><g
         transform="scale(1.61491)"
         id="g56"><path
           id="path58"
           style="fill:#74b570;fill-opacity:1;fill-rule:nonzero;stroke:none"
           d="m 15345.9,1796.5 -1.5,0.13 c -5.1,0.8 -8.5,5.51 -7.7,10.59 0.3,2.1 33.5,212.52 50.4,386.4 16.9,174 5.5,476.92 -10.8,582.5 -14.9,96.48 -10.3,413.46 188,717.44 98.6,151.22 174.1,245.22 278.6,375.25 103.2,128.49 231.7,288.38 439.1,572.36 3,4.14 8.8,5.01 13,1.98 4.1,-3.04 5,-8.86 2,-12.95 -207.7,-284.28 -336.3,-444.35 -439.6,-573.03 -104.2,-129.6 -179.4,-223.29 -277.5,-373.7 -195.1,-299.09 -199.9,-610 -185.2,-704.5 16.5,-106.51 27.9,-411.85 10.9,-587.15 -16.9,-174.44 -50.2,-385.41 -50.5,-387.51 -0.8,-4.58 -4.7,-7.81 -9.2,-7.81" /></g><g
         transform="scale(1.62582)"
         id="g60"><path
           id="path62"
           style="fill:#9cd499;fill-opacity:1;fill-rule:nonzero;stroke:none"
           d="m 15170.2,1272.4 c 101.9,450.24 81.3,212.57 -40.1,855.45 -139.1,735.81 608.1,1221.59 833,1038.06 197.5,-161.21 336.9,-1031.18 282.4,-998.02 -54.5,33.09 -525.3,720.43 -539.5,690.23 -14.2,-30.13 -553.9,-231.14 -565,-500.91 -11.2,-269.71 131.8,-717.42 131.8,-717.42 l -50.8,-378.89 -51.8,11.5" /></g><g
         transform="scale(1.62402)"
         id="g64"><path
           id="path66"
           style="fill:#74b570;fill-opacity:1;fill-rule:nonzero;stroke:none"
           d="m 15198.1,1280.83 33,-7.33 49.1,367.3 c -10.3,33.01 -142.4,460.03 -131.7,719.39 8.8,214.09 335.1,382.5 491.8,463.41 36.1,18.6 70.1,36.21 75,42.06 1.7,3.32 4.8,5.42 8.5,5.79 17.6,1.41 64.6,-57.21 279.6,-350.43 107.6,-146.73 228.8,-312.12 260.9,-339.83 9.5,34.72 -11.7,224.62 -64.5,447.77 -65.3,275.49 -147.2,469.89 -224.9,533.25 -76.1,62.19 -223.7,43.84 -376.1,-46.74 -281.4,-167.36 -527.4,-536.45 -442.9,-983.54 32.6,-172.54 57.4,-279.56 75.6,-357.69 41.1,-176.85 41.1,-176.85 -5,-371.55 -8.3,-34.85 -17.6,-74.02 -28.4,-121.86 z m 40.8,-27.77 c -0.7,0 -1.4,0.06 -2.1,0.19 l -51.8,11.57 c -2.4,0.49 -4.4,1.97 -5.8,4.06 -1.3,2.1 -1.7,4.56 -1.2,6.96 11.8,52.1 22.1,95.88 30.5,131.1 45.1,190.51 45.1,190.51 5,363.11 -18.2,78.32 -43.1,185.53 -75.8,358.43 -86.1,455.9 164.8,832.19 451.7,1002.88 161.5,95.99 313.7,113.36 397.2,45.19 110.6,-90.2 192.3,-379.12 231.2,-543.28 46.2,-195.44 82.2,-435.21 59.8,-466.92 -4.6,-6.47 -12.1,-8.07 -18.9,-3.94 -25.8,15.58 -119.3,141.74 -270.2,347.65 -104.1,141.99 -232.5,317.12 -262,340.94 -9.3,-8.25 -31.1,-19.7 -77.7,-43.78 -153.7,-79.37 -473.5,-244.45 -481.9,-447.77 -10.9,-265.33 130.2,-710.58 131.6,-715.02 0.4,-1.35 0.5,-2.71 0.3,-4.06 l -50.8,-379.31 c -0.3,-2.58 -1.7,-4.86 -3.9,-6.34 -1.5,-1.1 -3.4,-1.66 -5.2,-1.66" /></g><g
         transform="scale(1.51191)"
         id="g68"><path
           id="path70"
           style="fill:#74b570;fill-opacity:1;fill-rule:nonzero;stroke:none"
           d="m 16294.5,2276.52 5.5,7.34 c -9.4,61.78 -16.1,123.02 -18.3,179.71 -3.5,-106.36 12.8,-187.05 12.8,-187.05" /></g><g
         transform="scale(1.56699)"
         id="g72"><path
           id="path74"
           style="fill:#74b570;fill-opacity:1;fill-rule:nonzero;stroke:none"
           d="m 15776.5,2652.1 c -20.9,-38.17 -35.6,-78.75 -45.9,-119.34 101.5,230.31 532.9,397.45 563.6,430.7 l 5.8,8.61 c -147.2,60.82 -416.5,-124.06 -523.5,-319.97" /></g><g
         transform="scale(1.6194)"
         id="g76"><path
           id="path78"
           style="fill:#74b570;fill-opacity:1;fill-rule:nonzero;stroke:none"
           d="m 16289.8,2252.93 c -4.2,0 -8,2.9 -9,7.16 -0.6,2.35 -54.5,233.05 -113.1,424.17 l -0.5,1.91 c -35,114.18 -87.8,286.71 -186.7,387.43 -18.6,18.96 -91.4,53.78 -198,40.69 -131.5,-16.18 -330.5,-107.38 -531.8,-449.98 -2.6,-4.38 -8.3,-5.86 -12.7,-3.27 -4.4,2.59 -5.9,8.27 -3.3,12.66 205.2,349.14 409.9,442.32 545.5,458.93 109.4,13.46 189,-21.12 213.5,-46.07 102,-103.98 155.7,-279.11 191.2,-394.95 l 0.6,-1.98 c 58.7,-191.68 112.8,-422.99 113.3,-425.28 1.2,-5 -1.9,-10 -6.9,-11.18 -0.7,-0.12 -1.4,-0.24 -2.1,-0.24" /></g><g
         transform="scale(1.59123)"
         id="g80"><path
           id="path82"
           style="fill:#74b570;fill-opacity:1;fill-rule:nonzero;stroke:none"
           d="m 16255.6,2718.77 c -2.8,0 -5.6,1.26 -7.4,3.65 -3.2,4.15 -2.5,10.05 1.6,13.26 -0.1,0 16.2,17.34 24.3,102.37 6.4,66.55 1.7,212.29 -61.6,287.14 -24.2,28.65 -55,44.49 -91.6,47.13 -5.2,0.38 -9.1,4.9 -8.7,10.12 0.3,5.15 5,9.05 10,8.73 41.9,-3.08 77.1,-21.18 104.7,-53.79 67.2,-79.5 73.1,-226.68 66,-301.09 -9,-93.57 -27.8,-112.62 -31.5,-115.51 -1.7,-1.32 -3.8,-2.01 -5.8,-2.01" /></g><g
         transform="scale(1.60733)"
         id="g84"><path
           id="path86"
           style="fill:#74b570;fill-opacity:1;fill-rule:nonzero;stroke:none"
           d="m 16241.1,2492.46 c -0.6,0 -1.3,0.13 -1.9,0.25 -5.1,1.06 -8.3,6.04 -7.2,11.08 0.5,2.3 48.7,228.27 0.3,369.99 -1.7,4.85 0.9,10.14 5.9,11.82 4.9,1.68 10.1,-0.93 11.8,-5.78 50,-146.71 2.3,-370.5 0.3,-379.95 -1,-4.42 -4.9,-7.41 -9.2,-7.41" /></g><g
         transform="scale(1.60479)"
         id="g88"><path
           id="path90"
           style="fill:#74b570;fill-opacity:1;fill-rule:nonzero;stroke:none"
           d="m 15947.7,3875.66 c -3.9,0 -7.5,2.43 -8.8,6.36 -1.7,4.86 0.9,10.15 5.9,11.83 1.9,0.69 202.8,70.73 336.9,261.35 3,4.23 8.8,5.23 13.1,2.24 4.2,-2.93 5.2,-8.79 2.3,-13.02 -137.9,-195.73 -344.3,-267.58 -346.4,-268.26 -1,-0.38 -2,-0.5 -3,-0.5" /></g><g
         transform="scale(1.59067)"
         id="g92"><path
           id="path94"
           style="fill:#74b570;fill-opacity:1;fill-rule:nonzero;stroke:none"
           d="m 15918.1,3683.73 c -4.9,0 -8.9,3.78 -9.4,8.68 -0.4,5.22 3.5,9.74 8.6,10.18 1.7,0.13 162.5,14.96 367,143.28 4.4,2.76 10.2,1.44 12.9,-2.96 2.8,-4.4 1.5,-10.25 -2.9,-13.01 -208.7,-130.95 -368.7,-145.54 -375.4,-146.1 l -0.8,-0.07" /></g><g
         transform="scale(1.5694)"
         id="g96"><path
           id="path98"
           style="fill:#74b570;fill-opacity:1;fill-rule:nonzero;stroke:none"
           d="m 16006.9,3508.41 c -16.4,0 -25.6,1.6 -26.8,1.85 -5.2,1.02 -8.5,6.05 -7.6,11.22 1.1,5.22 6.2,8.6 11.3,7.58 1,-0.19 109.6,-19.05 300.5,91.24 4.5,2.68 10.4,1.09 13,-3.5 2.7,-4.52 1.1,-10.39 -3.4,-13 -144.4,-83.47 -242.6,-95.39 -287,-95.39" /></g><g
         transform="scale(1.5534)"
         id="g100"><path
           id="path102"
           style="fill:#ffffff;fill-opacity:1;fill-rule:nonzero;stroke:none"
           d="m 16300,1185.14 h -630.7 v 754.47 h 630.7 v -754.47" /></g><g
         transform="scale(1.65594)"
         id="g104"><path
           id="path106"
           style="fill:#2e5b9a;fill-opacity:1;fill-rule:nonzero;stroke:none"
           d="M 16266.2,1798.26 H 1862.22 c -18.63,0 -33.74,15.09 -33.74,33.75 0,18.66 15.11,33.76 33.74,33.76 H 16266.2 c 18.7,0 33.8,-15.1 33.8,-33.76 0,-18.66 -15.1,-33.75 -33.8,-33.75" /></g><g
         transform="scale(1.19272)"
         id="g108"><path
           id="path110"
           style="fill:#67a3d6;fill-opacity:1;fill-rule:nonzero;stroke:none"
           d="m 14743,4159.05 c 177.2,-423.4 350.4,-925.86 559.8,-1456.33 26.5,-67.16 94.1,-108.91 166.2,-108.91 h 630.4 c 114.7,0 200.6,104.97 177.8,217.32 -114.7,566.35 -425.7,2046.66 -591.6,2813.3 -136.8,632 -622.8,1175.8 -1269.5,1175.8 h -878.4 V 5309.86 c 859.8,-67.49 986.5,-628.22 1205.3,-1150.81" /></g><path
         id="path112"
         style="fill:#67a3d6;fill-opacity:1;fill-rule:nonzero;stroke:none"
         d="m 12400.3,4960.6 c -211.4,-505 -418,-1104.3 -667.7,-1737 -31.6,-80.1 -112.2,-129.9 -198.3,-129.9 h -751.9 c -136.7,0 -239.2,125.2 -212,259.2 136.8,675.5 507.7,2441.1 705.6,3355.5 163.2,753.8 742.8,1402.4 1514.2,1402.4 h 1047.6 V 6333.2 c -1025.4,-80.5 -1176.6,-749.3 -1437.5,-1372.6" /><g
         transform="scale(1.19377)"
         id="g114"><path
           id="path116"
           style="fill:#3e6bab;fill-opacity:1;fill-rule:nonzero;stroke:none"
           d="m 14753.3,4165.13 c 100.5,-240.33 199.9,-506.04 305,-787.33 80.6,-215.79 164,-438.95 254.5,-668.22 21.9,-55.54 79.3,-92.91 142.7,-92.91 h 629.9 c 47,0 91,20.86 120.9,57.3 29.7,36.36 41.4,83.6 32,129.67 -119.8,591.91 -429.1,2062.89 -590.9,2810.52 -120.5,556.31 -561.1,1155 -1243.9,1155 h -852.4 v -1440.9 c 340.9,-30.74 596.6,-144.08 781.3,-346.05 168.1,-183.87 263.2,-423.36 355.2,-654.9 21.2,-53.28 43.2,-108.39 65.7,-162.18 z m 1332.1,-1598.72 h -629.9 c -83.9,0 -160.1,50.1 -189.5,124.74 -90.6,229.69 -174.1,453.01 -254.8,669.05 -104.9,280.88 -204,546.09 -304.3,785.5 -22.7,54.2 -44.7,109.57 -65.9,163.1 -186.5,469.02 -362.6,912.07 -1117.1,971.38 -13.1,1 -23.1,11.89 -23.1,25.04 v 1489.07 c 0,13.91 11.2,25.13 25.1,25.13 h 877.6 c 312.4,0 603.9,-123.72 842.9,-357.77 220,-215.62 379.9,-512.83 450,-836.85 162,-747.8 471.3,-2219.11 591.2,-2811.19 12.4,-60.89 -3.1,-123.39 -42.5,-171.47 -39.3,-48.17 -97.6,-75.73 -159.7,-75.73" /></g><path
         id="path118"
         style="fill:#3e6bab;fill-opacity:1;fill-rule:nonzero;stroke:none"
         d="m 12790.2,8080.8 c -815.1,0 -1341.1,-714.7 -1484.8,-1378.8 -193.3,-892.5 -562.5,-2648.5 -705.6,-3355.1 -11.2,-55 2.8,-111.4 38.3,-154.8 35.6,-43.5 88.2,-68.4 144.3,-68.4 h 751.9 c 75.8,0 144.2,44.6 170.4,110.9 108,273.7 207.6,540.1 303.8,797.7 125.5,335.8 244.1,653 364.2,939.9 26.8,64.2 53,130 78.3,193.6 109.8,276.4 223.4,562.3 424.1,781.8 220.4,241.1 525.7,376.4 932.8,413.1 V 8080.8 H 12790.2 M 11534.3,3063.7 h -751.9 c -74.2,0 -143.7,32.9 -190.7,90.4 -47,57.4 -65.5,132 -50.7,204.7 143.1,706.8 512.5,2463.2 705.7,3355.9 83.7,386.8 274.6,741.6 537.4,999 285.2,279.4 633.1,427.1 1006.1,427.1 h 1047.6 c 16.6,0 30.1,-13.4 30.1,-30 V 6333.2 c 0,-15.7 -12.1,-28.7 -27.7,-29.9 -900.7,-70.7 -1110.9,-599.7 -1333.5,-1159.6 -25.4,-63.9 -51.6,-130 -78.7,-194.7 -119.6,-285.8 -238,-602.4 -363.3,-937.7 -96.3,-257.9 -196,-524.5 -304.2,-798.7 -35.1,-89.1 -126,-148.9 -226.2,-148.9" /><g
         transform="scale(1.05233)"
         id="g120"><path
           id="path122"
           style="fill:#92d1fc;fill-opacity:1;fill-rule:nonzero;stroke:none"
           d="m 15689.3,5173.02 h -2880.9 c -337.3,0 -610.7,273.4 -610.7,610.75 v 3534.74 c 0,337.33 273.4,610.75 610.7,610.75 h 2880.9 c 337.2,0 610.7,-273.42 610.7,-610.75 V 5783.77 c 0,-337.35 -273.5,-610.75 -610.7,-610.75" /></g><path
         id="path124"
         style="fill:#79b2e4;fill-opacity:1;fill-rule:nonzero;stroke:none"
         d="m 14011.3,5473.7 h -298 c -13.1,234.5 -98.6,1776.1 -105.1,2175.1 1.2,-20.6 3.7,-41.8 7.8,-63.7 l 395.3,-2111.4 m -403.5,2220.2 c 0,3 0.1,5.8 0.1,8.5 l 0.3,-1.3 c -0.1,-2.3 -0.3,-4.8 -0.4,-7.2" /><g
         transform="scale(1.00495)"
         id="g126"><path
           id="path128"
           style="fill:#63acc2;fill-opacity:1;fill-rule:nonzero;stroke:none"
           d="m 16114.6,9742.76 h -2388.2 c -102,0 -185.3,83.49 -185.3,185.39 v 27.79 c 0,101.96 83.3,185.36 185.3,185.36 h 2388.2 c 101.9,0 185.4,-83.4 185.4,-185.36 v -27.79 c 0,-101.9 -83.5,-185.39 -185.4,-185.39" /></g><g
         transform="scale(1.04455)"
         id="g130"><path
           id="path132"
           style="fill:#d9edfc;fill-opacity:1;fill-rule:nonzero;stroke:none"
           d="m 16108.8,6538.88 c -105.1,0 -191.2,86.07 -191.2,191.18 V 8277.9 c 0,105.22 86.1,191.19 191.2,191.19 105.1,0 191.2,-85.97 191.2,-191.19 V 6730.06 c 0,-105.11 -86.1,-191.18 -191.2,-191.18" /></g><g
         transform="scale(1.02005)"
         id="g134"><path
           id="path136"
           style="fill:#ffdb73;fill-opacity:1;fill-rule:nonzero;stroke:none"
           d="m 16300,11995.4 c 0,883.8 -716.4,1600.3 -1600.3,1600.3 -883.9,0 -1600.3,-716.5 -1600.3,-1600.3 0,-343.9 108.4,-662.3 292.9,-923.1 218.7,-309.1 340.2,-612.8 340.2,-991.3 v -351.76 c 0,-39.02 31.8,-70.88 70.9,-70.88 H 15596 c 39,0 70.9,31.86 70.9,70.88 V 10081 c 0,378.5 121.5,682.2 340.1,991.3 184.6,260.8 293,579.2 293,923.1" /></g><path
         id="path138"
         style="fill:#94bdf2;fill-opacity:1;fill-rule:nonzero;stroke:none"
         d="m 14633,9844.9 c -25.7,0 -47.5,19.7 -49.7,45.7 -1.3,14.2 -129,1425.1 -775.2,1829.7 -23.4,14.7 -30.5,45.5 -15.8,68.9 14.6,23.4 45.5,30.5 68.9,15.9 290.9,-182.2 517.7,-559.5 674,-1121.5 115.2,-413.8 147.4,-780.8 147.7,-784.5 2.3,-27.5 -18.1,-51.7 -45.6,-54 -1.4,-0.1 -2.9,-0.2 -4.3,-0.2" /><path
         id="path140"
         style="fill:#94bdf2;fill-opacity:1;fill-rule:nonzero;stroke:none"
         d="m 15339.9,9844.9 c -26.1,0 -48.1,20.2 -49.9,46.6 -0.6,9.7 -15.2,242.3 79,594.8 86.4,323.3 285.2,813.1 741.9,1310.2 18.7,20.4 50.3,21.7 70.6,3 20.3,-18.7 21.7,-50.3 3,-70.6 -846.3,-921.4 -795.3,-1821.6 -794.7,-1830.6 1.9,-27.5 -18.9,-51.4 -46.5,-53.3 -1.1,-0.1 -2.3,-0.1 -3.4,-0.1" /><path
         id="path142"
         style="fill:#94bdf2;fill-opacity:1;fill-rule:nonzero;stroke:none"
         d="m 14035,12397.5 c -48,0 -89.6,-9 -123.4,-29.1 -71.6,-42.4 -108.7,-141.3 -110,-294.1 -1.5,-161.7 35.5,-266.6 109.9,-311.7 178.2,-108 587.1,93.6 971.8,297.5 -321.4,172.1 -642.9,337.4 -848.3,337.4 m 1060.5,-337.7 c 396.5,-211.7 788.9,-407 972.5,-298.8 77,45.4 117.1,151.2 119.2,314.4 2,154.6 -32.9,254.8 -103.6,297.8 -177.6,108.1 -583.3,-98 -988.1,-313.4 m 842.9,-429 c -246.8,0 -588.9,179.3 -949,372.4 -361.6,-192.6 -704.9,-370.9 -949.9,-370.9 -68.1,0 -128.6,13.8 -179.8,44.8 -108.2,65.6 -159.9,195.8 -158.1,398.1 1.7,192.9 53.7,316.9 159.1,379.3 235.8,139.7 669,-91 1128.8,-337.8 469,250 911.3,484.9 1146.2,341.9 104.4,-63.6 154,-189.4 151.5,-384.5 -2.6,-203.4 -57.7,-334 -168.4,-399.2 -51.8,-30.6 -112.6,-44.1 -180.4,-44.1" /><g
         transform="scale(1.05048)"
         id="g144"><path
           id="path146"
           style="fill:#7abedf;fill-opacity:1;fill-rule:nonzero;stroke:none"
           d="m 15799,8529.87 h -3050.4 c -232.3,0 -429.6,52.83 -501,221.04 v 309.58 c 71.4,-208.1 268.7,-357.55 501,-357.55 H 15799 c 232.2,0 429.6,149.54 501,357.55 v -172.97 c -71.4,-208.1 -268.8,-357.65 -501,-357.65" /></g><g
         transform="scale(1.05048)"
         id="g148"><path
           id="path150"
           style="fill:#b2dffd;fill-opacity:1;fill-rule:nonzero;stroke:none"
           d="m 16300,9520.14 c -78.5,247.3 -310,426.51 -583.3,426.51 h -496.1 c 29.1,296.75 141.5,548.85 322.6,804.85 72.4,102.2 132.6,213.5 178.8,331.8 213.4,112.9 389,217.2 533.5,312.2 29.4,-190.9 44.5,-385.6 44.5,-582.8 V 9520.14 m -4052.4,0.03 v 1292.53 c 0,1414.7 776,2701.5 2026.2,3361.8 114.6,-60.6 225.2,-126.3 331.6,-197 -33,-252.3 -89.1,-522.3 -162.3,-784.8 -55.5,6 -112.1,9.1 -169.3,9.1 -858.3,0 -1554,-695.7 -1554,-1554 0,-333.8 105.3,-643.1 284.5,-896.3 181.1,-256 293.6,-508.1 322.7,-804.85 h -496.2 c -273.3,0 -504.7,-179.19 -583.2,-426.48 m 3259.1,3073.73 c -110.5,143.7 -245.4,267.5 -398.6,365.2 66.8,160.2 124.4,308.2 174.2,444.6 125,-133.9 239.7,-276.5 343.4,-426.3 -27.3,-130.8 -67.6,-259.1 -119,-383.5" /></g><g
         transform="scale(1.05048)"
         id="g152"><path
           id="path154"
           style="fill:#92d1fc;fill-opacity:1;fill-rule:nonzero;stroke:none"
           d="m 15799,8702.94 h -3050.4 c -232.3,0 -429.6,149.45 -501,357.55 v 459.68 c 78.5,247.29 309.9,426.48 583.2,426.48 h 496.2 c 5,-51.16 7.6,-103.68 7.6,-157.75 v -87.17 h -203.1 c -97.6,0 -177.4,-79.8 -177.4,-177.34 v -26.58 c 0,-97.48 79.8,-177.35 177.4,-177.35 h 2284.6 c 97.5,0 177.4,79.87 177.4,177.35 v 26.58 c 0,97.54 -79.9,177.34 -177.4,177.34 H 15213 v 87.17 c 0,54.07 2.5,106.59 7.6,157.75 h 496.1 c 273.3,0 504.8,-179.21 583.3,-426.51 v -459.65 c -71.4,-208.01 -268.8,-357.55 -501,-357.55" /></g><g
         transform="scale(1.00495)"
         id="g156"><path
           id="path158"
           style="fill:#68b0c8;fill-opacity:1;fill-rule:nonzero;stroke:none"
           d="m 16114.6,9742.76 h -2388.2 c -102,0 -185.3,83.49 -185.3,185.39 v 27.79 c 0,101.96 83.3,185.36 185.3,185.36 h 212.4 v -265.89 c 0,-39.61 32.3,-71.95 71.9,-71.95 h 524.7 c 7.5,-4.47 16.3,-7.06 25.5,-7.06 1.4,0 2.9,0.1 4.3,0.2 7.8,0.59 15,3.08 21.4,6.86 h 652.2 c 7.5,-4.47 16.2,-7.06 25.5,-7.06 1.1,0 2.3,0 3.4,0.1 8.2,0.6 15.6,3.08 22.2,6.96 h 540.4 c 39.6,0 72,32.34 72,71.95 v 265.89 h 212.3 c 101.9,0 185.4,-83.4 185.4,-185.36 v -27.79 c 0,-101.9 -83.5,-185.39 -185.4,-185.39" /></g><g
         transform="scale(1.01323)"
         id="g160"><path
           id="path162"
           style="fill:#f4da81;fill-opacity:1;fill-rule:nonzero;stroke:none"
           d="m 15700.9,9723.33 h -536 c 15.4,9.28 25.2,26.55 23.9,45.7 -0.5,7.79 -39,687.57 509.1,1465.87 159.6,48.4 318,110 468.9,186.8 45.9,23.3 90.3,46.4 133.2,69.1 -47.9,-122.7 -110.3,-238.1 -185.3,-344.1 -187.8,-265.3 -304.3,-526.7 -334.5,-834.4 -5.3,-53 -7.9,-107.5 -7.9,-163.5 v -90.4 -263.71 c 0,-39.28 -32.1,-71.36 -71.4,-71.36 m -586.7,0 h -646.8 c 15.5,9.38 25.4,27.14 23.7,46.49 -0.3,3.65 -32,365.88 -145.7,774.28 -72,258.8 -159.1,477.9 -260.8,656.3 92.4,-68.4 324.5,-113.5 622.9,-113.5 249.3,0 544.9,31.5 843.7,107.3 -212.1,-325.5 -324,-624.4 -382.9,-844.9 -93,-347.8 -78.6,-577.41 -78,-586.99 1.2,-16.77 10.6,-30.98 23.9,-38.98 m -697.6,0 h -520.4 c -39.3,0 -71.3,32.08 -71.3,71.36 v 263.71 90.4 c 0,56 -2.7,110.5 -7.9,163.5 -30.2,307.7 -146.8,569.1 -334.6,834.4 -185.8,262.6 -294.9,583.2 -294.9,929.4 0,889.8 721.2,1611.1 1611.1,1611.1 59.3,0 117.9,-3.2 175.5,-9.5 -173.5,-622.9 -438.9,-1205.2 -718.3,-1432.2 -4.9,-4 -9.6,-7.9 -14.2,-11.7 -146.2,60.9 -279.5,99.8 -391.5,99.8 -64.3,0 -121.7,-12.9 -170.4,-41.8 -104,-61.5 -155.4,-184 -157,-374.3 -1.8,-199.7 49.2,-328.2 156,-392.9 10,-6.1 20.3,-11.5 31.1,-16.2 566.7,-461.5 681.9,-1733.55 683,-1746.97 1.4,-16.39 10.7,-30.2 23.8,-38.1 m -375.2,1549.17 c -49.8,78.6 -102.7,148.2 -158.7,208.6 239.7,12 566.9,182.1 910.9,365.4 58.5,-31.4 116.4,-62.4 173.6,-92.3 -188.4,-120.3 -384.4,-213.1 -578.1,-272 -239.9,-72.9 -344,-146.3 -347.7,-209.7 m -186.1,306.7 c -35.3,0 -67.1,4.8 -94.8,15.1 -24,18.9 -48.6,36.3 -73.5,52.3 -44.7,54.8 -66.8,145.3 -65.7,270 1.3,150.8 37.9,248.4 108.6,290.3 33.4,19.8 74.4,28.7 121.8,28.7 86.2,0 193,-29.5 311.9,-76.5 -76.2,-87 -54.6,-132.8 28.8,-132.8 44.3,0 106.3,13 180.3,39.7 102.5,-49.7 209.4,-106.2 316.2,-163.4 -306.4,-162.4 -628.4,-323.4 -833.6,-323.4 m 1205.6,237.6 c -53.7,27.7 -108.1,56.4 -162.6,85.5 209.3,111.3 418.6,220.1 595.9,283.2 -134.6,-138.3 -280.7,-262.4 -433.3,-368.7 m -267.2,141.6 c -102.2,54.9 -203.2,109 -300.8,158.3 347.7,166.5 853.2,568.8 1144,1255.5 9.1,21.3 17.9,42.4 26.6,63.3 158.9,-101.3 298.8,-229.6 413.3,-378.6 -109.7,-265.3 -267.9,-513.7 -456.2,-733.1 -230.8,-47.9 -523.1,-203.4 -826.9,-365.4" /></g><path
         id="path164"
         style="fill:#94bff3;fill-opacity:1;fill-rule:nonzero;stroke:none"
         d="m 14633,9844.9 c -9.3,0 -18.1,2.6 -25.6,7.1 -13.3,8 -22.7,22 -24.1,38.6 -1.2,13.6 -117.9,1302.5 -692.1,1770.1 44,-19.6 93.7,-28.4 148.3,-28.4 8.8,0 17.8,0.2 26.9,0.7 56.8,-61.2 110.4,-131.7 160.8,-211.4 -1.5,-26.2 13.9,-50.8 43.8,-73 103,-180.7 191.3,-402.7 264.2,-665 115.2,-413.8 147.4,-780.8 147.7,-784.5 1.7,-19.6 -8.3,-37.6 -24.1,-47.1 -6.4,-3.8 -13.6,-6.3 -21.5,-6.9 -1.4,-0.1 -2.9,-0.2 -4.3,-0.2 m -690.4,1902.8 c -11,4.1 -21.4,9 -31.1,14.9 -16.2,9.9 -30.7,22.6 -43.4,38.1 25.3,-16.2 50.2,-33.9 74.5,-53" /><path
         id="path166"
         style="fill:#94bff3;fill-opacity:1;fill-rule:nonzero;stroke:none"
         d="m 15339.9,9844.9 c -9.4,0 -18.1,2.6 -25.7,7.1 -13.5,8.1 -23,22.5 -24.2,39.5 -0.6,9.7 -15.2,242.3 79,594.8 59.7,223.4 173.1,526.2 388,856 49.5,12.6 99.1,26.3 148.6,41.3 -555.3,-788.6 -516.3,-1477.4 -515.8,-1485.3 1.3,-19.4 -8.6,-36.9 -24.2,-46.3 -6.6,-3.9 -14.1,-6.4 -22.3,-7 -1.1,-0.1 -2.3,-0.1 -3.4,-0.1" /><path
         id="path168"
         style="fill:#94bff3;fill-opacity:1;fill-rule:nonzero;stroke:none"
         d="m 14039.5,11632.3 c -54.6,0 -104.3,8.8 -148.3,28.4 -10.9,4.8 -21.4,10.2 -31.5,16.4 -108.2,65.6 -159.9,195.8 -158.1,398.1 1.7,192.9 53.7,316.9 159.1,379.3 49.4,29.3 107.5,42.3 172.7,42.3 113.5,0 248.5,-39.4 396.7,-101.1 -33.2,-27.9 -59.4,-53.1 -79.1,-75.7 -120.4,47.6 -228.7,77.5 -316,77.5 -48,0 -89.6,-9 -123.4,-29.1 -71.6,-42.4 -108.7,-141.3 -110,-294.1 -1.2,-126.4 21.2,-218.1 66.5,-273.6 12.7,-15.5 27.2,-28.2 43.4,-38.1 9.7,-5.9 20.1,-10.8 31.1,-14.9 28.1,-10.4 60.3,-15.2 96,-15.2 208,-0.1 534.2,163.1 844.7,327.6 -108.2,58 -216.5,115.2 -320.4,165.6 37.7,13.5 78.6,30.6 121.8,51.3 98.9,-49.9 201.2,-104.7 304.8,-160.3 307.8,164.1 604,321.6 837.8,370.2 -41.4,-48.2 -84.1,-94.9 -128.1,-140.2 -179.6,-63.9 -391.7,-174.1 -603.7,-286.9 55.2,-29.4 110.3,-58.6 164.7,-86.6 -31.3,-21.9 -63.1,-43.1 -94.9,-63.4 -58,30.3 -116.7,61.7 -175.9,93.4 -348.6,-185.7 -680.1,-358 -923,-370.2 -9.1,-0.5 -18.1,-0.7 -26.9,-0.7" /><path
         id="path170"
         style="fill:#3e6bab;fill-opacity:1;fill-rule:nonzero;stroke:none"
         d="m 14416.7,9112.3 h -253.4 c -16.5,0 -30,13.4 -30,30 0,16.5 13.5,30 30,30 h 253.4 c 16.5,0 30,-13.5 30,-30 0,-16.6 -13.5,-30 -30,-30" /><path
         id="path172"
         style="fill:#3e6bab;fill-opacity:1;fill-rule:nonzero;stroke:none"
         d="m 13837.9,9112.3 h -445.7 c -323.3,0 -586.3,263 -586.3,586.3 v 694.2 c 0,16.6 13.4,30 30,30 16.6,0 30,-13.4 30,-30 v -694.2 c 0,-290.2 236.1,-526.3 526.3,-526.3 h 445.7 c 16.5,0 30,-13.5 30,-30 0,-16.6 -13.5,-30 -30,-30" /><path
         id="path174"
         style="fill:#3e6bab;fill-opacity:1;fill-rule:nonzero;stroke:none"
         d="m 15710,9112.3 h -880 c -16.6,0 -30,13.4 -30,30 0,16.5 13.4,30 30,30 h 880 c 16.6,0 30,-13.5 30,-30 0,-16.6 -13.4,-30 -30,-30" /><g
         transform="scale(1.05417)"
         id="g176"><path
           id="path178"
           style="fill:#3e6bab;fill-opacity:1;fill-rule:nonzero;stroke:none"
           d="m 14223.9,14125 c -1245.8,-658 -2019.1,-1940.3 -2019.1,-3350 V 5773.67 c 0,-320.45 260.8,-581.22 581.2,-581.22 h 2875.9 c 320.4,0 581.2,260.77 581.2,581.22 V 10775 c 0,1409.7 -773.4,2692 -2019.2,3350 m 1438,-8989.47 H 12786 c -351.8,0 -638.1,286.29 -638.1,638.14 V 10775 c 0,702.2 192.3,1390.8 555.9,1991.5 363.7,600.7 884.8,1090.3 1507,1415.8 8.2,4.4 18.1,4.4 26.3,0 622.2,-325.5 1143.3,-815.1 1507,-1415.8 363.6,-600.7 555.9,-1289.3 555.9,-1991.5 V 5773.67 c 0,-351.85 -286.3,-638.14 -638.1,-638.14" /></g><g
         id="g180"><g
           clip-path="url(#clipPath186)"
           id="g182"><g
             transform="scale(1.04762)"
             id="g188"><path
               id="path196"
               style="fill:url(#linearGradient194);fill-opacity:1;fill-rule:nonzero;stroke:none"
               d="m 15765,11113.6 c 68.5,175.5 106,366.4 106,566.1 0,357 -120.1,685.9 -321.9,948.7 51.5,124.7 92,253.3 119.4,384.5 325.1,-469.4 543,-1010.4 631.5,-1586.2 -144.9,-95.3 -321,-199.9 -535,-313.1" /></g></g></g><g
         id="g198"><g
           clip-path="url(#clipPath204)"
           id="g200"><g
             transform="scale(1.02005)"
             id="g206"><path
               id="path214"
               style="fill:url(#linearGradient212);fill-opacity:1;fill-rule:nonzero;stroke:none"
               d="m 14609.2,11012.8 c -296.4,0.1 -526.9,44.9 -618.7,112.8 -14,24.6 -28.3,48.5 -42.9,71.5 3.7,63.1 107,136 345.3,208.4 192.5,58.5 387.2,150.7 574.3,270.2 288.3,-150.8 555.8,-273.5 757.9,-273.5 9.9,0 19.7,0.3 29.3,0.9 -78,-96 -146.6,-190.9 -207.1,-283.7 -296.9,-75.3 -590.5,-106.6 -838.1,-106.6 m 983.8,147.1 c 75.8,107.5 162.7,216.9 262.6,326.7 72.8,71.5 109.3,186.9 111.5,350.2 2.4,191.3 -46.2,314.6 -148.5,376.9 -48.6,29.5 -106,42.6 -170.8,42.6 -41.1,0 -85.1,-5.2 -131.6,-14.9 187.1,218 344.2,464.7 453.1,728.3 207.4,-269.8 330.7,-607.7 330.7,-974.3 0,-205.1 -38.5,-401.2 -108.9,-581.4 -42.7,-22.5 -86.8,-45.4 -132.4,-68.7 -149.9,-76.2 -307.2,-137.4 -465.7,-185.4 m 30.9,339.8 c -167.9,0 -408.8,106.9 -663.6,238.1 151.5,105.6 296.7,228.9 430.3,366.3 96.5,34.3 183.4,55 255.4,55 47.5,0 88.5,-9 121.5,-29.1 69.3,-42.2 103.5,-140.4 101.5,-292 -2,-160 -41.3,-263.6 -116.8,-308.1 -35.4,-20.9 -78.6,-30.2 -128.3,-30.2" /></g></g></g><g
         id="g216"><g
           clip-path="url(#clipPath222)"
           id="g218"><path
             id="path230"
             style="fill:url(#linearGradient228);fill-opacity:1;fill-rule:nonzero;stroke:none"
             d="m 14271,11348.6 c -29.9,22.2 -45.3,46.8 -43.8,73 14.9,-23.5 29.5,-47.9 43.8,-73" /></g></g><g
         id="g232"><g
           clip-path="url(#clipPath238)"
           id="g234"><path
             id="path246"
             style="fill:url(#linearGradient244);fill-opacity:1;fill-rule:nonzero;stroke:none"
             d="m 15757,11342.3 c 61.7,94.7 131.7,191.5 211.3,289.4 55.9,3.5 106.4,17.2 150.5,43.2 20.1,11.8 38.3,25.8 54.7,42 -101.9,-112 -190.6,-223.6 -267.9,-333.3 -49.5,-15 -99.1,-28.7 -148.6,-41.3" /></g></g><g
         id="g248"><g
           clip-path="url(#clipPath254)"
           id="g250"><path
             id="path262"
             style="fill:url(#linearGradient260);fill-opacity:1;fill-rule:nonzero;stroke:none"
             d="m 15938.4,11630.8 c -206.2,0 -479,125.1 -773.1,279 31.8,20.3 63.6,41.5 94.9,63.4 260,-133.9 505.7,-243 676.9,-243 50.7,0 94.8,9.6 130.9,30.8 77,45.4 117.1,151.2 119.2,314.4 2,154.6 -32.9,254.8 -103.6,297.8 -33.6,20.5 -75.5,29.7 -123.9,29.7 -73.5,0 -162.1,-21.1 -260.5,-56.2 44,45.3 86.7,92 128.1,140.2 47.4,9.8 92.3,15.2 134.2,15.2 66.1,0 124.7,-13.4 174.2,-43.5 104.4,-63.6 154,-189.4 151.5,-384.5 -2.2,-166.5 -39.5,-284.2 -113.7,-357.2 -16.4,-16.2 -34.6,-30.2 -54.7,-42 -44.1,-26 -94.6,-39.7 -150.5,-43.2 -9.8,-0.6 -19.8,-0.9 -29.9,-0.9" /></g></g><g
         id="g264"><g
           clip-path="url(#clipPath270)"
           id="g266"><g
             transform="scale(1.04928)"
             id="g272"><path
               id="path280"
               style="fill:url(#linearGradient278);fill-opacity:1;fill-rule:nonzero;stroke:none"
               d="m 16274.2,11408.5 c -88.4,575 -306,1115.2 -630.6,1583.7 2.6,12.2 5,24.3 7.3,36.5 332.6,-473.9 556.9,-1021.4 649.1,-1603.1 -8.5,-5.6 -17.2,-11.3 -25.8,-17.1" /></g></g></g><g
         id="g282"><g
           clip-path="url(#clipPath288)"
           id="g284"><path
             id="path296"
             style="fill:url(#linearGradient294);fill-opacity:1;fill-rule:nonzero;stroke:none"
             d="m 15870.8,13613.3 c -206,131.4 -443.5,217.8 -698.5,245.4 76.8,275.8 135.8,559.4 170.4,824.4 262.5,-174.3 500.6,-377 711.1,-602.7 -52.3,-143.3 -112.8,-298.7 -183,-467.1" /></g></g><g
         id="g298"><g
           clip-path="url(#clipPath304)"
           id="g300"><path
             id="path312"
             style="fill:url(#linearGradient310);fill-opacity:1;fill-rule:nonzero;stroke:none"
             d="m 14380.2,12185.4 c -84.5,0.1 -106.4,46.5 -29.2,134.6 67.4,-26.6 138.5,-58.8 211.9,-94.3 -75,-27.1 -137.8,-40.3 -182.7,-40.3 m 304.5,91.6 c -87.9,44.4 -173.2,84.9 -254.6,118.7 4.6,3.9 9.4,7.8 14.3,11.8 283.1,230 552.1,820 727.9,1451.2 255,-27.6 492.5,-114 698.5,-245.4 -8.8,-21.2 -17.8,-42.6 -27,-64.2 -294.6,-695.7 -806.8,-1103.4 -1159.1,-1272.1" /></g></g><g
         id="g314"><g
           clip-path="url(#clipPath320)"
           id="g316"><path
             id="path328"
             style="fill:url(#linearGradient326);fill-opacity:1;fill-rule:nonzero;stroke:none"
             d="m 14562.9,12225.7 c -73.4,35.5 -144.5,67.7 -211.9,94.3 19.7,22.6 45.9,47.8 79.1,75.7 81.4,-33.8 166.7,-74.3 254.6,-118.7 -43.2,-20.7 -84.1,-37.8 -121.8,-51.3" /></g></g><g
         id="g330"><g
           clip-path="url(#clipPath336)"
           id="g332"><path
             id="path344"
             style="fill:url(#linearGradient342);fill-opacity:1;fill-rule:nonzero;stroke:none"
             d="m 16053.8,14080.4 c -210.5,225.7 -448.6,428.4 -711.1,602.7 1.5,11 2.9,22 4.2,32.9 264.6,-174.7 505,-378.4 717.8,-605.5 -3.6,-10 -7.2,-20 -10.9,-30.1" /></g></g><g
         transform="scale(1.00483)"
         id="g346"><path
           id="path348"
           style="fill:#67a3d6;fill-opacity:1;fill-rule:nonzero;stroke:none"
           d="m 15353.6,3078.83 h -862.5 c -40.3,0 -77.3,21.6 -82.3,48.47 l -828.9,4426.93 c -35.2,190.48 51,318.96 139.4,353.89 559.5,220.93 1846.6,220.93 2406,0 88.5,-34.93 174.7,-163.41 139.5,-353.89 L 15435.9,3127.3 c -5,-26.87 -42,-48.47 -82.3,-48.47" /></g><g
         transform="scale(1.00673)"
         id="g350"><path
           id="path352"
           style="fill:#3e6bab;fill-opacity:1;fill-rule:nonzero;stroke:none"
           d="m 14894.2,8028.77 c -486.2,0 -931,-61.09 -1189.8,-163.31 -67.5,-26.61 -155.3,-133.89 -120.8,-320.14 l 827.2,-4418.36 c 1.6,-8.55 23,-24.14 53,-24.14 h 860.8 c 30,0 51.2,15.59 52.8,24.04 l 827.3,4418.56 c 34.5,186.15 -53.3,293.43 -120.7,320.04 -259,102.22 -703.7,163.31 -1189.8,163.31 m 430.4,-4985.55 h -860.8 c -55.9,0 -103.8,31.29 -111.5,72.81 L 13525,7534.4 c -36.7,198.46 51.4,344.57 157.4,386.49 566.2,223.6 1857.2,223.6 2423.5,0 106,-41.92 194.1,-188.03 157.4,-386.4 L 15436,3115.93 c -7.6,-41.42 -55.6,-72.71 -111.4,-72.71" /></g><path
         id="path354"
         style="fill:#7dbae9;fill-opacity:1;fill-rule:nonzero;stroke:none"
         d="m 15459.9,4749 c -125.9,0 -228.8,131.4 -231.8,296.2 l -44,2378 c -3.1,170.5 101.6,310.9 231.8,310.9 h 359.7 c 143.9,0 253,-169.9 228.4,-355.5 L 15688.3,5000.5 C 15669,4855.1 15572.6,4749 15459.9,4749" /><g
         transform="scale(1.03701)"
         id="g356"><path
           id="path358"
           style="fill:#f5ce5c;fill-opacity:1;fill-rule:nonzero;stroke:none"
           d="m 16300,8239.68 c 0,-40.79 -33.2,-73.96 -74,-73.96 -40.8,0 -73.8,33.17 -73.8,73.96 0,40.79 33,73.87 73.8,73.87 40.8,0 74,-33.08 74,-73.87" /></g><g
         transform="scale(1.03701)"
         id="g360"><path
           id="path362"
           style="fill:#f5ce5c;fill-opacity:1;fill-rule:nonzero;stroke:none"
           d="m 16300,7897.16 c 0,-40.79 -33.2,-73.87 -74,-73.87 -40.8,0 -73.8,33.08 -73.8,73.87 0,40.88 33,73.96 73.8,73.96 40.8,0 74,-33.08 74,-73.96" /></g><g
         transform="scale(1.03701)"
         id="g364"><path
           id="path366"
           style="fill:#f39892;fill-opacity:1;fill-rule:nonzero;stroke:none"
           d="m 16300,7554.73 c 0,-40.79 -33.2,-73.87 -74,-73.87 -40.8,0 -73.8,33.08 -73.8,73.87 0,40.79 33,73.96 73.8,73.96 40.8,0 74,-33.17 74,-73.96" /></g><g
         transform="scale(1.03701)"
         id="g368"><path
           id="path370"
           style="fill:#f39892;fill-opacity:1;fill-rule:nonzero;stroke:none"
           d="m 16300,7212.3 c 0,-40.89 -33.2,-73.96 -74,-73.96 -40.8,0 -73.8,33.07 -73.8,73.96 0,40.79 33,73.87 73.8,73.87 40.8,0 74,-33.08 74,-73.87" /></g><g
         transform="scale(1.03701)"
         id="g372"><path
           id="path374"
           style="fill:#f39892;fill-opacity:1;fill-rule:nonzero;stroke:none"
           d="m 16300,6869.78 c 0,-40.8 -33.2,-73.87 -74,-73.87 -40.8,0 -73.8,33.07 -73.8,73.87 0,40.89 33,73.96 73.8,73.96 40.8,0 74,-33.07 74,-73.96" /></g><g
         transform="scale(1.3104)"
         id="g376"><path
           id="path378"
           style="fill:#b0d5ff;fill-opacity:1;fill-rule:nonzero;stroke:none"
           d="m 15064.5,9283.88 -163.9,253.34 c -47.9,-5.48 -96.5,-8.38 -145.8,-8.38 -72.2,0 -143.1,6.14 -212.1,17.75 l -177.1,-244.3 c -86.6,22.47 -170.2,52.28 -250.2,88.7 l 16.3,301.21 c -104.7,59.17 -200.2,132.79 -283.9,218.15 l -286.6,-93.54 c -56.2,68.29 -106.6,141.51 -150.5,218.89 l 190,233.9 c -49.2,107.3 -83.8,222.6 -101.5,343.4 l -286.7,92.8 c -1.8,30.5 -2.8,61.2 -2.8,92.2 0,58.6 3.4,116.5 9.8,173.4 l 291.1,77.5 c 24,119.4 64.7,232.8 119.7,337.6 l -177.5,243.6 c 47.9,74.9 102.2,145.3 161.9,210.6 l 281.3,-108.5 c 87.8,80.8 187,149.3 294.9,202.9 l -0.3,301.7 c 81.7,32 166.8,57.4 254.6,75.2 l 163.9,-253.3 c 47.9,5.4 96.5,8.4 145.7,8.4 72.4,0 143.3,-6.2 212.2,-17.8 l 177,244.3 c 86.6,-22.5 170.3,-52.3 250.3,-88.7 l -16.3,-301.2 c 104.8,-59.2 200.2,-132.8 283.8,-218.2 l 286.7,93.6 c 56.2,-68.3 106.6,-141.5 150.6,-218.9 l -190.1,-233.9 c 49.2,-107.3 83.8,-222.6 101.5,-343.4 l 286.7,-92.8 c 1.7,-30.5 2.8,-61.2 2.8,-92.1 0,-58.7 -3.4,-116.6 -9.8,-173.5 l -291.1,-77.5 c -24,-119.5 -64.7,-232.8 -119.7,-337.6 l 177.5,-243.65 c -47.9,-74.87 -102.1,-145.29 -162,-210.6 l -281.2,108.52 c -87.8,-80.76 -187,-149.26 -294.9,-202.89 l 0.3,-301.66 c -81.7,-32.07 -166.8,-57.39 -254.6,-75.24 M 14754.8,11404 c -334.6,0 -606,-271.4 -606,-606 0,-334.8 271.4,-606.1 606,-606.1 334.7,0 606.1,271.3 606.1,606.1 0,334.6 -271.4,606 -606.1,606" /></g><g
         transform="scale(1.27511)"
         id="g380"><path
           id="path382"
           style="fill:#ffffff;fill-opacity:1;fill-rule:nonzero;stroke:none"
           d="m 16012.7,10370.5 c -8.9,0 -17.8,3 -25.1,9.1 -16.7,13.8 -18.9,38.6 -5.1,55.2 154.1,185.4 239.1,420.5 239.1,662 0,115.6 -19,229.2 -56.3,337.5 -7,20.5 3.9,42.8 24.4,49.8 20.4,7.1 42.7,-3.8 49.8,-24.3 40.1,-116.5 60.5,-238.6 60.5,-363 0,-259.8 -91.4,-512.7 -257.2,-712.1 -7.8,-9.4 -18.9,-14.2 -30.1,-14.2" /></g><g
         transform="scale(1.24897)"
         id="g384"><path
           id="path386"
           style="fill:#ffffff;fill-opacity:1;fill-rule:nonzero;stroke:none"
           d="m 16255.7,12088.3 c -9.8,0 -19.7,3.6 -27.4,10.9 -105.7,99.6 -228.3,175.1 -364.1,224.3 -20.8,7.6 -31.5,30.6 -24,51.3 7.5,20.8 30.6,31.6 51.3,24 146.1,-53 277.9,-134.2 391.7,-241.3 16.1,-15.2 16.8,-40.5 1.7,-56.6 -7.9,-8.4 -18.5,-12.6 -29.2,-12.6" /></g><g
         transform="scale(1.191)"
         id="g388"><path
           id="path390"
           style="fill:#ffffff;fill-opacity:1;fill-rule:nonzero;stroke:none"
           d="m 15975.4,12954.6 c -18.8,0 -35.9,12.7 -40.6,31.7 -5.8,22.5 7.9,45.3 30.4,51 95.2,24 193.7,36.2 292.8,36.2 23.2,0 42,-18.8 42,-42 0,-23.2 -18.8,-41.9 -42,-41.9 -92.2,0 -183.8,-11.4 -272.3,-33.7 -3.4,-0.9 -6.9,-1.3 -10.3,-1.3" /></g><path
         id="path392"
         style="fill:#b0d5ff;fill-opacity:1;fill-rule:nonzero;stroke:none"
         d="m 10579.6,11435.3 c -36.3,0 -72.4,1.3 -108.3,3.9 l -86.4,279.2 c -115.1,18.5 -226.6,53.3 -331.2,102.8 l -229.04,-181.4 c -74,43.2 -144.4,92.8 -210.34,148.3 l 94.08,276.4 c -80.75,80.9 -151,174 -207.65,277.9 l -291.6,-12.1 c -11.88,27.1 -23.13,54.7 -33.53,82.8 -19.71,53.3 -36.08,107 -49.44,160.9 l 238.46,168.2 c -18.38,116.6 -19.44,233.3 -4.74,346.9 l -243.15,161.7 c 18.4,84.2 44.03,166.4 76.38,245.8 l 292,-4.1 c 52.64,102.9 119.76,198.5 199.8,283.5 l -101.72,273.9 c 63.46,56.6 132.27,108.2 206.06,154 l 234.03,-175.1 c 41.6,21 84.8,40 129.6,56.6 65.7,24.3 132.1,42.5 198.7,55.2 l 78.7,281.4 c 49.8,5 99.5,7.5 148.9,7.5 36.3,0 72.4,-1.4 108.3,-4 l 86.4,-279.1 c 115.1,-18.6 226.6,-53.4 331.2,-102.8 l 229,181.3 c 74,-43.1 144.4,-92.7 210.4,-148.2 l -94.1,-276.4 c 80.7,-81 151,-174.1 207.6,-277.9 l 291.6,12 c 11.9,-27.1 23.2,-54.6 33.6,-82.8 19.7,-53.2 36,-106.9 49.4,-160.8 l -238.5,-168.3 c 18.4,-116.5 19.5,-233.2 4.8,-346.9 l 243.1,-161.7 c -18.4,-84.1 -44,-166.3 -76.4,-245.8 l -291.9,4.1 c -52.7,-102.9 -119.8,-198.5 -199.8,-283.5 l 101.7,-273.9 c -63.5,-56.6 -132.3,-108.2 -206.1,-153.9 l -234,175 c -41.6,-21 -84.8,-40 -129.6,-56.5 -65.7,-24.3 -132.1,-42.6 -198.7,-55.2 l -78.8,-281.5 c -49.7,-5 -99.4,-7.4 -148.8,-7.4 m -0.3,2084.3 c -67.6,0 -136.4,-11.8 -203.6,-36.7 -304.1,-112.4 -459.38,-450.1 -346.9,-754.2 87.7,-236.9 312,-383.5 550.7,-383.5 67.6,0 136.4,11.7 203.6,36.6 304,112.5 459.4,450.1 346.9,754.2 -87.7,237 -312,383.6 -550.7,383.6" /><path
         id="path394"
         style="fill:#ffffff;fill-opacity:1;fill-rule:nonzero;stroke:none"
         d="m 11555,12552.8 c -5.5,0 -11.1,0.9 -16.6,2.8 -26.1,9.2 -39.7,37.8 -30.5,63.8 74.6,211.5 72.8,443.9 -5.1,654.5 -37.3,101 -90.5,193.9 -157.9,276.3 -17.5,21.4 -14.4,52.9 7,70.4 21.3,17.5 52.8,14.3 70.3,-7 74.5,-91 133.2,-193.6 174.4,-305 86,-232.5 88,-489.1 5.6,-722.4 -7.3,-20.6 -26.6,-33.4 -47.2,-33.4" /><path
         id="path396"
         style="fill:#ffffff;fill-opacity:1;fill-rule:nonzero;stroke:none"
         d="m 10994.6,13822.8 c -6.5,0 -13.2,1.3 -19.5,4 -121.9,51.6 -250.3,77.5 -382,76.6 -27.8,0 -50.1,22.2 -50.3,49.7 -0.2,27.6 22.1,50.1 49.7,50.3 145.4,1 287.2,-27.5 421.6,-84.5 25.4,-10.8 37.3,-40.2 26.5,-65.6 -8.1,-19 -26.6,-30.5 -46,-30.5" /><path
         id="path398"
         style="fill:#ffffff;fill-opacity:1;fill-rule:nonzero;stroke:none"
         d="m 10025,13725 c -16,0 -31.61,7.6 -41.3,21.7 -15.62,22.8 -9.84,53.9 12.92,69.5 72.18,49.6 150.78,90.2 233.58,120.9 26,9.6 54.7,-3.7 64.3,-29.6 9.6,-25.9 -3.7,-54.6 -29.5,-64.2 -75.2,-27.8 -146.4,-64.6 -211.8,-109.5 -8.6,-5.9 -18.5,-8.8 -28.2,-8.8" /><g
         transform="scale(1.423)"
         id="g400"><path
           id="path402"
           style="fill:#b0d5ff;fill-opacity:1;fill-rule:nonzero;stroke:none"
           d="m 15456,7220.17 -111.9,173.06 c -32.7,-3.74 -66,-5.72 -99.6,-5.72 -49.4,0 -97.8,4.18 -144.9,12.12 l -121,-166.88 c -59.1,15.34 -116.3,35.71 -170.9,60.59 l 11.1,205.75 c -71.6,40.42 -136.8,90.71 -193.9,149.03 l -195.8,-63.9 c -38.4,46.65 -72.8,96.67 -102.9,149.51 l 129.9,159.78 c -33.6,73.28 -57.3,152.06 -69.4,234.62 l -195.8,63.35 c -1.2,20.84 -1.9,41.82 -1.9,62.96 0,40.08 2.3,79.6 6.6,118.51 l 198.9,52.92 c 16.4,81.6 44.2,159.03 81.7,230.61 l -121.2,166.44 c 32.8,51.16 69.8,99.26 110.6,143.87 l 192.2,-74.13 c 60,55.16 127.7,101.96 201.5,138.6 l -0.3,206.06 c 55.8,21.91 114,39.2 174,51.41 l 111.9,-173.07 c 32.7,3.74 65.9,5.72 99.6,5.72 49.4,0 97.8,-4.19 144.9,-12.12 l 120.9,166.88 c 59.2,-15.35 116.3,-35.71 171,-60.59 l -11.1,-205.76 c 71.5,-40.41 136.8,-90.7 193.8,-149.02 l 195.9,63.9 c 38.3,-46.65 72.8,-96.67 102.9,-149.51 l -129.9,-159.78 c 33.6,-73.28 57.3,-152.06 69.3,-234.62 l 195.8,-63.36 c 1.3,-20.83 2,-41.81 2,-62.96 0,-40.07 -2.3,-79.59 -6.7,-118.5 l -198.9,-52.92 c -16.3,-81.6 -44.2,-159.03 -81.7,-230.61 l 121.2,-166.45 c -32.7,-51.14 -69.7,-99.25 -110.6,-143.86 l -192.1,74.13 c -60,-55.17 -127.8,-101.96 -201.5,-138.59 l 0.2,-206.07 c -55.8,-21.91 -113.9,-39.2 -173.9,-51.4 m -211.5,1448.26 c -228.7,0 -414,-185.35 -414,-413.99 0,-228.63 185.3,-413.98 414,-413.98 228.7,0 414,185.35 414,413.98 0,228.64 -185.3,413.99 -414,413.99" /></g><g
         transform="scale(1.39761)"
         id="g404"><path
           id="path406"
           style="fill:#ffffff;fill-opacity:1;fill-rule:nonzero;stroke:none"
           d="m 16096.3,7903.63 c -8.1,0 -16.2,2.71 -22.9,8.26 -15.2,12.64 -17.2,35.2 -4.7,50.39 103,123.8 159.7,280.8 159.7,442.1 0,77.25 -12.6,153.1 -37.5,225.42 -6.5,18.69 3.5,39.04 22.2,45.48 18.6,6.43 39,-3.49 45.5,-22.18 27.4,-79.84 41.4,-163.51 41.4,-248.72 0,-177.98 -62.6,-351.23 -176.2,-487.85 -7,-8.51 -17.3,-12.9 -27.5,-12.9" /></g><g
         transform="scale(1.37831)"
         id="g408"><path
           id="path410"
           style="fill:#ffffff;fill-opacity:1;fill-rule:nonzero;stroke:none"
           d="m 16259.9,9023.14 c -8.9,0 -17.9,3.26 -24.9,9.86 -70.2,66.06 -151.4,116.13 -241.5,148.82 -18.8,6.83 -28.5,27.63 -21.7,46.47 6.8,18.84 27.6,28.55 46.4,21.73 99.5,-36.08 189.2,-91.32 266.6,-164.2 14.5,-13.73 15.2,-36.69 1.5,-51.28 -7.1,-7.58 -16.8,-11.4 -26.4,-11.4" /></g><g
         transform="scale(1.33522)"
         id="g412"><path
           id="path414"
           style="fill:#ffffff;fill-opacity:1;fill-rule:nonzero;stroke:none"
           d="m 16075.5,9498.18 c -16.7,0 -31.9,11.31 -36.3,28.29 -5,20.05 7.1,40.41 27.2,45.47 63.7,16.1 129.8,24.26 196.2,24.26 20.6,0 37.4,-16.77 37.4,-37.44 0,-20.68 -16.8,-37.45 -37.4,-37.45 -60.3,0 -120.1,-7.4 -177.8,-21.98 -3.2,-0.78 -6.3,-1.15 -9.3,-1.15" /></g><g
         transform="scale(1.00419)"
         id="g416"><path
           id="path418"
           style="fill:#9ec8ff;fill-opacity:1;fill-rule:nonzero;stroke:none"
           d="m 5614.54,16018.9 h -110 c -47.05,0 -85.56,38.5 -85.56,85.5 v 110 c 0,47.1 38.51,85.6 85.56,85.6 h 110 c 47.06,0 85.55,-38.5 85.55,-85.6 v -110 c 0,-47 -38.49,-85.5 -85.55,-85.5" /></g><g
         transform="scale(1.00419)"
         id="g420"><path
           id="path422"
           style="fill:#9ec8ff;fill-opacity:1;fill-rule:nonzero;stroke:none"
           d="m 6303.09,16018.9 h -110 c -47.06,0 -85.57,38.5 -85.57,85.5 v 110 c 0,47.1 38.51,85.6 85.57,85.6 h 110 c 47.06,0 85.55,-38.5 85.55,-85.6 v -110 c 0,-47 -38.49,-85.5 -85.55,-85.5" /></g><g
         transform="scale(1.00419)"
         id="g424"><path
           id="path426"
           style="fill:#9ec8ff;fill-opacity:1;fill-rule:nonzero;stroke:none"
           d="m 6991.63,16018.9 h -110 c -47.05,0 -85.55,38.5 -85.55,85.5 v 110 c 0,47.1 38.5,85.6 85.55,85.6 h 110 c 47.06,0 85.56,-38.5 85.56,-85.6 v -110 c 0,-47 -38.5,-85.5 -85.56,-85.5" /></g><path
         id="path428"
         style="fill:#9cd499;fill-opacity:1;fill-rule:nonzero;stroke:none"
         d="m 6534.8,11929.6 c 0,-277.3 -224.75,-502 -502,-502 -277.25,0 -502,224.7 -502,502 0,277.2 224.75,502 502,502 277.25,0 502,-224.8 502,-502" /><path
         id="path430"
         style="fill:#ffffff;fill-opacity:1;fill-rule:nonzero;stroke:none"
         d="m 5982.98,11752.3 h -1.11 c -8.23,0.3 -15.97,4 -21.41,10.2 l -136.35,154.9 c -10.95,12.4 -9.73,31.4 2.7,42.4 12.44,10.9 31.4,9.7 42.34,-2.8 l 115.45,-131.1 268.7,262.9 c 11.84,11.6 30.83,11.4 42.42,-0.4 11.59,-11.9 11.39,-30.9 -0.46,-42.5 l -291.3,-285 c -5.61,-5.5 -13.14,-8.6 -20.98,-8.6" /><g
         transform="scale(1.47711)"
         id="g432"><path
           id="path434"
           style="fill:#9cd499;fill-opacity:1;fill-rule:nonzero;stroke:none"
           d="m 16300,10116.9 c 0,-187.71 -152.1,-339.87 -339.9,-339.87 -187.6,0 -339.8,152.16 -339.8,339.87 0,187.7 152.2,339.8 339.8,339.8 187.8,0 339.9,-152.1 339.9,-339.8" /></g><g
         transform="scale(1.46315)"
         id="g436"><path
           id="path438"
           style="fill:#ffffff;fill-opacity:1;fill-rule:nonzero;stroke:none"
           d="m 16078.4,10092.2 h -0.8 c -5.6,0.2 -10.9,2.8 -14.6,7 l -93.2,105.9 c -7.5,8.5 -6.7,21.4 1.8,28.9 8.5,7.5 21.5,6.7 29,-1.8 l 78.8,-89.7 183.7,179.7 c 8.1,8 21.1,7.8 29,-0.3 7.9,-8.1 7.8,-21 -0.3,-29 l -199.1,-194.8 c -3.8,-3.8 -9,-5.9 -14.3,-5.9" /></g><path
         id="path440"
         style="fill:#9ec8ff;fill-opacity:1;fill-rule:nonzero;stroke:none"
         d="M 8277.4,13882.3 H 4792.2 c -35.51,0 -64.57,29.1 -64.57,64.6 0,35.5 29.06,64.6 64.57,64.6 h 3485.2 c 35.52,0 64.57,-29.1 64.57,-64.6 0,-35.5 -29.05,-64.6 -64.57,-64.6" /><g
         transform="scale(1.48579)"
         id="g442"><path
           id="path444"
           style="fill:#9ec8ff;fill-opacity:1;fill-rule:nonzero;stroke:none"
           d="m 16256.5,11195.3 h -2345.7 c -23.9,0 -43.5,19.6 -43.5,43.5 0,23.9 19.6,43.5 43.5,43.5 h 2345.7 c 23.9,0 43.5,-19.6 43.5,-43.5 0,-23.9 -19.6,-43.5 -43.5,-43.5" /></g><g
         transform="scale(1.42038)"
         id="g446"><path
           id="path448"
           style="fill:#9ec8ff;fill-opacity:1;fill-rule:nonzero;stroke:none"
           d="m 16261.8,11464.7 h -1717.7 c -21,0 -38.2,17.2 -38.2,38.2 v 14.6 c 0,21 17.2,38.2 38.2,38.2 h 1717.7 c 21,0 38.2,-17.2 38.2,-38.2 v -14.6 c 0,-21 -17.2,-38.2 -38.2,-38.2" /></g><path
         id="path450"
         style="fill:#9ec8ff;fill-opacity:1;fill-rule:nonzero;stroke:none"
         d="M 8277.4,13524.8 H 4792.2 c -35.51,0 -64.57,29 -64.57,64.5 0,35.5 29.06,64.6 64.57,64.6 h 3485.2 c 35.52,0 64.57,-29.1 64.57,-64.6 0,-35.5 -29.05,-64.5 -64.57,-64.5" /><path
         id="path452"
         style="fill:#9ec8ff;fill-opacity:1;fill-rule:nonzero;stroke:none"
         d="M 8277.4,13152.3 H 4792.2 c -35.51,0 -64.57,29.1 -64.57,64.6 0,35.5 29.06,64.5 64.57,64.5 h 3485.2 c 35.52,0 64.57,-29 64.57,-64.5 0,-35.5 -29.05,-64.6 -64.57,-64.6" /><path
         id="path454"
         style="fill:#9ec8ff;fill-opacity:1;fill-rule:nonzero;stroke:none"
         d="M 8785.8,11099.6 V 8777.3 l 3762.9,-1473.3 41.1,3555.6 -3804,240" /><path
         id="path456"
         style="fill:#e4efff;fill-opacity:1;fill-rule:nonzero;stroke:none"
         d="M 12417,7595.3 8932.44,8959.6 v 2050 l 3536.96,-208.1 -52.4,-3206.2" /><path
         id="path458"
         style="fill:#9ec8ff;fill-opacity:1;fill-rule:nonzero;stroke:none"
         d="m 10649.8,8802.1 c 0,-150.5 -111.9,-272.5 -250,-272.5 -138.1,0 -250,122 -250,272.5 0,150.5 111.9,272.5 250,272.5 138.1,0 250,-122 250,-272.5" /><path
         id="path460"
         style="fill:#9ec8ff;fill-opacity:1;fill-rule:nonzero;stroke:none"
         d="m 11395.3,8607.1 c 0,-180.9 -134.5,-327.5 -300.5,-327.5 -165.9,0 -300.4,146.6 -300.4,327.5 0,180.9 134.5,327.5 300.4,327.5 166,0 300.5,-146.6 300.5,-327.5" /><path
         id="path462"
         style="fill:#9ec8ff;fill-opacity:1;fill-rule:nonzero;stroke:none"
         d="m 12216.7,8371.6 c 0,-193.7 -144.1,-350.8 -321.9,-350.8 -177.7,0 -321.8,157.1 -321.8,350.8 0,193.8 144.1,350.9 321.8,350.9 177.8,0 321.9,-157.1 321.9,-350.9" /><path
         id="path464"
         style="fill:#9ec8ff;fill-opacity:1;fill-rule:nonzero;stroke:none"
         d="m 10875,9189.3 533.4,-135.2 c 37.8,-9.5 74.6,19 74.6,58 v 53.9 c 0,28.4 -20,52.8 -47.8,58.6 l -533.5,110 c -37.1,7.6 -71.9,-20.8 -71.9,-58.7 v -28.6 c 0,-27.4 18.6,-51.3 45.2,-58" /><path
         id="path466"
         style="fill:#9ec8ff;fill-opacity:1;fill-rule:nonzero;stroke:none"
         d="m 10653.2,9385.8 -358.8,74 c -37.2,7.6 -71.9,-20.7 -71.9,-58.6 0,-27.4 18.5,-51.3 45.1,-58.1 l 358.8,-90.9 c 37.8,-9.5 74.5,19 74.5,58.1 v 16.9 c 0,28.4 -19.9,52.9 -47.7,58.6" /><path
         id="path468"
         style="fill:#9ec8ff;fill-opacity:1;fill-rule:nonzero;stroke:none"
         d="m 11663,9104.2 v -68 c 0,-27.4 18.5,-51.3 45.1,-58 l 477.2,-120.9 c 37.8,-9.5 74.5,19 74.5,58 v 90.5 c 0,28.4 -19.9,52.9 -47.7,58.6 l -477.2,98.4 c -37.2,7.7 -71.9,-20.7 -71.9,-58.6" /><path
         id="path470"
         style="fill:#9ec8ff;fill-opacity:1;fill-rule:nonzero;stroke:none"
         d="m 9206.37,10090.6 -64.19,11.2 c -26.83,4.6 -47.46,30.3 -46.33,57.4 l 1.43,34.3 c 1.12,26.9 23.44,45.6 50.12,41.7 l 63.81,-9.4 c 27.66,-4 49.56,-29.8 48.63,-57.6 l -1.18,-35.6 c -0.93,-28 -24.47,-46.8 -52.29,-42" /><path
         id="path472"
         style="fill:#9ec8ff;fill-opacity:1;fill-rule:nonzero;stroke:none"
         d="m 9492.54,10041.1 -71.59,12.4 c -29.9,5.2 -53.25,32.6 -52.46,61.2 l 1,36.3 c 0.79,28.5 25.26,48 54.97,43.6 l 71.12,-10.4 c 30.86,-4.5 55.7,-32 55.16,-61.5 l -0.69,-37.6 c -0.54,-29.7 -26.44,-49.4 -57.51,-44" /><path
         id="path474"
         style="fill:#9ec8ff;fill-opacity:1;fill-rule:nonzero;stroke:none"
         d="m 9802.84,9987.4 -80.08,13.9 c -33.41,5.7 -59.89,35 -59.51,65.3 l 0.49,38.5 c 0.37,30.1 27.28,50.5 60.44,45.7 l 79.48,-11.6 c 34.53,-5.1 62.78,-34.5 62.71,-65.8 l -0.09,-39.9 c -0.07,-31.5 -28.65,-52.1 -63.44,-46.1" /><path
         id="path476"
         style="fill:#9ec8ff;fill-opacity:1;fill-rule:nonzero;stroke:none"
         d="m 10144,9911.6 -92.2,16 c -38.5,6.7 -69.47,38.5 -69.71,71.1 l -0.31,41.3 c -0.25,32.4 30.12,54.1 68.22,48.5 l 91.4,-13.4 c 39.8,-5.8 73,-37.8 73.6,-71.5 l 0.9,-43 c 0.6,-34 -31.8,-55.9 -71.9,-49" /><path
         id="path478"
         style="fill:#9ec8ff;fill-opacity:1;fill-rule:nonzero;stroke:none"
         d="m 10547.7,9841.8 -104.8,18.1 c -43.6,7.5 -79.2,41.9 -80.2,76.7 l -1.2,44.1 c -0.9,34.6 33,57.4 76.1,51.1 l 103.8,-15.2 c 45.3,-6.6 83.5,-41.2 85,-77.2 l 1.8,-46.1 c 1.5,-36.4 -34.8,-59.5 -80.5,-51.5" /><path
         id="path480"
         style="fill:#9ec8ff;fill-opacity:1;fill-rule:nonzero;stroke:none"
         d="m 9221.73,10519.4 -62.99,5.5 c -26.35,2.3 -46.62,25.3 -45.55,51.2 l 1.38,32.9 c 1.06,25.7 22.97,45.3 49.17,43.6 l 62.62,-3.9 c 27.14,-1.7 48.64,-24.6 47.76,-51.2 l -1.13,-34 c -0.89,-26.8 -23.96,-46.6 -51.26,-44.1" /><path
         id="path482"
         style="fill:#9ec8ff;fill-opacity:1;fill-rule:nonzero;stroke:none"
         d="m 9502.16,10494.6 -70.09,6.2 c -29.29,2.6 -52.18,26.9 -51.42,54.2 l 0.96,34.7 c 0.75,27.2 24.71,47.7 53.81,45.9 l 69.64,-4.4 c 30.2,-1.8 54.52,-26.1 54.01,-54.3 l -0.66,-35.8 c -0.52,-28.3 -25.84,-49.2 -56.25,-46.5" /><path
         id="path484"
         style="fill:#9ec8ff;fill-opacity:1;fill-rule:nonzero;stroke:none"
         d="m 9805.44,10467.9 -78.19,6.9 c -32.63,2.9 -58.51,28.6 -58.15,57.6 l 0.46,36.6 c 0.36,28.7 26.64,50.3 59.04,48.2 l 77.63,-4.8 c 33.7,-2.1 61.27,-27.9 61.2,-57.7 l -0.08,-37.9 c -0.07,-30 -27.95,-51.9 -61.91,-48.9" /><path
         id="path486"
         style="fill:#9ec8ff;fill-opacity:1;fill-rule:nonzero;stroke:none"
         d="m 10135.9,10428.6 -89.8,7.9 c -37.4,3.3 -67.56,31.1 -67.79,62.1 l -0.29,39.2 c -0.24,30.8 29.28,53.8 66.38,51.4 l 89.1,-5.5 c 38.6,-2.4 70.9,-30.3 71.5,-62.2 l 0.8,-40.8 c 0.6,-32.2 -30.9,-55.6 -69.9,-52.1" /><path
         id="path488"
         style="fill:#9ec8ff;fill-opacity:1;fill-rule:nonzero;stroke:none"
         d="m 10527.9,10394 -101.7,9 c -42.3,3.7 -76.9,33.5 -77.7,66.4 l -1.2,41.8 c -0.8,32.7 32,57.1 73.9,54.4 l 100.7,-6.3 c 43.9,-2.7 80.9,-32.5 82.3,-66.6 l 1.7,-43.5 c 1.4,-34.3 -33.8,-59.1 -78,-55.2" /><path
         id="path490"
         style="fill:#9ec8ff;fill-opacity:1;fill-rule:nonzero;stroke:none"
         d="m 9249.17,10427.1 -123.39,13.1 c -10.04,1.1 -17.82,10.1 -17.4,20.1 0.41,10.1 8.86,17.4 18.89,16.4 l 123.18,-12.1 c 10.58,-1.1 18.91,-10.3 18.56,-20.7 -0.34,-10.4 -9.24,-17.9 -19.84,-16.8" /><path
         id="path492"
         style="fill:#9ec8ff;fill-opacity:1;fill-rule:nonzero;stroke:none"
         d="m 9534.3,10397 -137.37,14.5 c -11.16,1.2 -19.95,10.8 -19.65,21.4 0.29,10.6 9.53,18.3 20.68,17.2 l 137.11,-13.5 c 11.79,-1.2 21.22,-11 21.02,-22 -0.2,-11 -9.98,-18.9 -21.79,-17.6" /><path
         id="path494"
         style="fill:#9ec8ff;fill-opacity:1;fill-rule:nonzero;stroke:none"
         d="m 9843.05,10364.3 -153.33,16.3 c -12.45,1.3 -22.39,11.4 -22.24,22.6 0.14,11.2 10.28,19.3 22.71,18.1 l 153,-15 c 13.18,-1.4 23.89,-11.8 23.86,-23.4 -0.02,-11.7 -10.8,-20 -24,-18.6" /><path
         id="path496"
         style="fill:#9ec8ff;fill-opacity:1;fill-rule:nonzero;stroke:none"
         d="m 10181.4,10317 -176.1,18.7 c -14.26,1.5 -25.85,12.4 -25.94,24.5 -0.09,12 11.32,20.6 25.54,19.2 l 175.7,-17.3 c 15.2,-1.5 27.7,-12.8 28,-25.3 0.2,-12.5 -12,-21.4 -27.2,-19.8" /><path
         id="path498"
         style="fill:#9ec8ff;fill-opacity:1;fill-rule:nonzero;stroke:none"
         d="m 10581.8,10274.7 -199.6,21.1 c -16.2,1.7 -29.5,13.5 -29.8,26.3 -0.3,12.8 12.4,21.9 28.5,20.3 l 199,-19.6 c 17.2,-1.7 31.7,-13.9 32.2,-27.2 0.5,-13.4 -13.1,-22.7 -30.3,-20.9" /><path
         id="path500"
         style="fill:#9ec8ff;fill-opacity:1;fill-rule:nonzero;stroke:none"
         d="m 9234.34,9994.1 -125.72,24 c -10.23,1.9 -18.14,12 -17.71,22.5 0.44,10.5 9.04,17.5 19.26,15.6 l 125.51,-23 c 10.78,-2 19.27,-12.4 18.9,-23.2 -0.35,-10.9 -9.43,-18 -20.24,-15.9" /><path
         id="path502"
         style="fill:#9ec8ff;fill-opacity:1;fill-rule:nonzero;stroke:none"
         d="m 9525.39,9938.4 -140.31,26.8 c -11.4,2.2 -20.36,13 -20.05,24.1 0.3,11.1 9.74,18.4 21.12,16.3 l 140.05,-25.7 c 12.05,-2.2 21.69,-13.3 21.47,-24.8 -0.21,-11.5 -10.2,-19 -22.28,-16.7" /><path
         id="path504"
         style="fill:#9ec8ff;fill-opacity:1;fill-rule:nonzero;stroke:none"
         d="m 9841.37,9878 -157.03,30 c -12.74,2.5 -22.9,14 -22.75,25.8 0.14,11.7 10.52,19.3 23.23,17 l 156.7,-28.7 c 13.5,-2.5 24.48,-14.4 24.45,-26.6 -0.03,-12.2 -11.07,-20.1 -24.6,-17.5" /><path
         id="path506"
         style="fill:#9ec8ff;fill-opacity:1;fill-rule:nonzero;stroke:none"
         d="m 10190.8,9793.2 -181,34.6 c -14.63,2.8 -26.54,15.3 -26.63,28 -0.1,12.6 11.62,20.7 26.23,18 l 180.6,-33.1 c 15.6,-2.9 28.5,-15.9 28.8,-29 0.2,-13.3 -12.3,-21.5 -28,-18.5" /><path
         id="path508"
         style="fill:#9ec8ff;fill-opacity:1;fill-rule:nonzero;stroke:none"
         d="m 10603.3,9714.3 -205.8,39.4 c -16.6,3.1 -30.3,16.7 -30.7,30.2 -0.3,13.5 12.7,22 29.3,19 l 205.3,-37.7 c 17.7,-3.2 32.7,-17.3 33.2,-31.4 0.6,-14.2 -13.5,-22.9 -31.3,-19.5" /><path
         id="path510"
         style="fill:#9ec8ff;fill-opacity:1;fill-rule:nonzero;stroke:none"
         d="m 11829.8,9639.3 c -2,0 -4.1,0.3 -6.2,0.8 -9.7,2.5 -17,10.6 -18.5,20.5 l -101,669.4 -319.1,-434.5 c -5.7,-7.7 -15.3,-11.5 -24.8,-9.7 -9.4,1.7 -17,8.8 -19.5,18 l -52.7,195.5 c -110.5,-128.8 -253.6,-296.2 -262.7,-308.7 -8,-11 -23.6,-13.8 -34.7,-6 -11.2,7.9 -14.1,23.1 -6.4,34.4 10.2,15 248.9,293.2 296.6,348.8 6.1,7 15.5,10.1 24.5,8.1 9.1,-2.1 16.2,-9 18.7,-17.9 l 51.4,-191 324.3,441.4 c 6,8.2 16.3,11.9 26.1,9.5 9.8,-2.4 17.2,-10.5 18.7,-20.6 l 101.2,-670.8 209.2,275 c 5.4,7.1 14.2,10.8 23.1,9.6 8.9,-1.1 16.5,-6.9 19.9,-15.2 l 63.4,-153.4 198.6,262 c 8.3,11 24,13.2 35,4.8 11,-8.3 13.2,-24 4.8,-35 l -225,-296.8 c -5.4,-7.2 -14.2,-10.8 -23.1,-9.7 -8.9,1.1 -16.5,6.9 -19.9,15.2 l -63.4,153.5 -218.6,-287.3 c -4.8,-6.3 -12.2,-9.9 -19.9,-9.9" /><path
         id="path512"
         style="fill:#3b65a1;fill-opacity:1;fill-rule:nonzero;stroke:none"
         d="m 7366.48,3454.6 c 80,-266.7 550,-362.5 333.34,-399.6 -216.67,-37.1 -393.34,-27.1 -480,66.2 -86.67,93.4 -204.78,43.4 -189.06,140 15.72,96.7 59.06,273.4 59.06,273.4 l 276.66,-80" /><path
         id="path514"
         style="fill:#3b65a1;fill-opacity:1;fill-rule:nonzero;stroke:none"
         d="m 8812.42,3478.5 c 94.88,-170 108.21,-253.4 391.55,-336.7 283.33,-83.3 -42.97,-120.9 -309.64,-104.2 -266.67,16.6 -183.68,61.3 -360.35,54.7 -176.66,-6.7 -6.68,339.5 -6.68,339.5 l 285.12,46.7" /><path
         id="path516"
         style="fill:#f09959;fill-opacity:1;fill-rule:nonzero;stroke:none"
         d="m 8030.45,9005.4 c 95.18,-46 186.24,-75.8 259.83,-92 -66.79,64.8 -116.33,119.2 -130.87,162.8 -48.21,144.7 98.6,588.1 98.6,588.1 h -316.1 c 0,0 -91.46,-276.1 -175.31,-585.2 72.26,-11.9 170.42,-28.6 263.85,-73.7" /><path
         id="path518"
         style="fill:#4476bd;fill-opacity:1;fill-rule:nonzero;stroke:none"
         d="m 8764.82,7174.6 c 100.9,-960 159.95,-1816.7 84.61,-2527.4 -54.92,-518.2 34.08,-1276 34.08,-1276 0,0 -340.37,-105.3 -412.47,-86.4 -72.09,18.9 -261.29,1261.9 -242.32,1722.4 18.98,460.4 -405.45,1992.5 -405.45,1992.5 l 941.55,174.9" /><path
         id="path520"
         style="fill:#3e6bab;fill-opacity:1;fill-rule:nonzero;stroke:none"
         d="m 8228.96,5066.1 c 90.42,433 284.6,1096 591.08,1540.2 -26.01,178 20.67,407.3 -18.43,593.3 l -978.33,-199.9 c 0,0 391.8,-1414.4 405.68,-1933.6" /><path
         id="path522"
         style="fill:#4476bd;fill-opacity:1;fill-rule:nonzero;stroke:none"
         d="m 8402.5,6998.9 c 10.68,-1006 -605.91,-2297.8 -769.35,-2767.7 -160,-460 -193.33,-880 -193.33,-880 0,0 -413.49,20.1 -397,71.3 16.49,51.1 -103.82,1109 174.72,1501.4 278.53,392.4 355.76,1968.7 355.76,1968.7 l 829.2,106.3" /><path
         id="path524"
         style="fill:#f09959;fill-opacity:1;fill-rule:nonzero;stroke:none"
         d="m 9763.15,8274.6 c 0,0 240.05,260 300.05,373.3 60,113.3 113.3,173.3 86.6,86.7 -26.6,-86.7 -80,-209.4 -80,-209.4 0,0 313.4,-42.7 420,0 106.7,42.7 106.7,42.7 106.7,42.7 0,0 -86.7,-206.7 -166.7,-240 -80,-33.3 -298.3,-75 -400,-93.3 -101.64,-18.3 -326.65,-173.4 -326.65,-173.4 l 60,213.4" /><path
         id="path526"
         style="fill:#f09959;fill-opacity:1;fill-rule:nonzero;stroke:none"
         d="m 9719.8,9250.4 c 171.36,84.6 237.64,198.6 165.77,382.6 -55.05,140.9 177.43,278.1 139.73,337.4 -22.4,35.1 -176.14,-177.9 -230.99,-240.6 C 9690,9610.6 9600.6,9349.9 9600.6,9349.9 l 119.2,-99.5" /><path
         id="path528"
         style="fill:#6dbdd6;fill-opacity:1;fill-rule:nonzero;stroke:none"
         d="m 7890.71,8934.6 c 354.11,-50 845.77,-286.7 1145.77,-172.9 134.03,50.8 518.54,594 553.54,594 35,0 225,-135 225,-135 0,0 -384.57,-722.8 -624.57,-902.8 -240,-180 -1160.22,-273.2 -1162.01,-268.3 -28.62,77.4 -137.73,885 -137.73,885" /><path
         id="path530"
         style="fill:#82d0e8;fill-opacity:1;fill-rule:nonzero;stroke:none"
         d="m 8748.37,8319.6 c -136.61,294.6 -331.27,468.3 -460.24,594.3 -73.21,16.3 -163.4,45.9 -257.68,91.5 -92.41,44.6 -196.31,64.8 -263.85,73.7 -17.85,-72.7 -46.63,-174.1 -73.68,-293.4 -91.08,-401.8 -7.62,-1226.1 -177.73,-1991.6 -28.1,-126.3 471.47,-348.2 959.01,-246.4 270.33,56.4 378.66,156.9 378.66,156.9 0,0 66.91,1245.3 -104.49,1615" /><path
         id="path532"
         style="fill:#e38540;fill-opacity:1;fill-rule:nonzero;stroke:none"
         d="m 7912.38,9572.8 c 74.79,-174.1 165.48,-294.9 239.28,-373.2 14.59,187.5 106.35,464.7 106.35,464.7 h -316.1 c 0,0 -11.28,-34 -29.53,-91.5" /><path
         id="path534"
         style="fill:#f09959;fill-opacity:1;fill-rule:nonzero;stroke:none"
         d="m 8501.59,9740.1 c 65.45,-203.3 1.4,-405.9 -143.07,-452.4 -144.47,-46.5 -314.64,80.7 -380.09,284.1 -65.45,203.4 -1.4,405.9 143.07,452.4 144.47,46.5 314.64,-80.7 380.09,-284.1" /><path
         id="path536"
         style="fill:#6dbdd6;fill-opacity:1;fill-rule:nonzero;stroke:none"
         d="m 7975.46,8739.6 c -205.64,-315 19.36,-1030 84.36,-1065 61.05,-32.9 636.12,-339.3 805.8,-384.6 5.03,160 -22.36,333.5 -29.41,495.4 -64.84,283.9 -48.45,514.2 -241.39,714.2 -356.71,369.7 -619.36,240 -619.36,240" /><path
         id="path538"
         style="fill:#82d0e8;fill-opacity:1;fill-rule:nonzero;stroke:none"
         d="m 7975.46,8804.6 c -171.87,-449.8 67.81,-970 191.08,-1030 123.28,-60 783.28,-420 933.28,-350 150,70 875,725 875,725 0,0 -155,230 -185,220 -30,-10 -769.46,-426.6 -819.46,-396.6 -50,30 -290.54,421.6 -530.54,641.6 -240,220 -435.51,265.5 -464.36,190" /><path
         id="path540"
         style="fill:#58556e;fill-opacity:1;fill-rule:nonzero;stroke:none"
         d="m 7833.7,9336.4 c -173.32,160.9 -191.77,428.5 -133.32,475.5 58.46,47 -5.84,36.4 26.3,145.4 32.16,109.1 138.95,150 171.77,155.8 32.82,5.9 42.09,81.2 101.76,109.3 59.66,28.1 168.59,20.4 239.8,-22.5 71.21,-42.9 109.2,-43.1 188.12,-37.2 78.91,6 172.43,-19.9 169.51,-107.8 -2.92,-87.9 58.45,-99.1 37.99,-133 -20.45,-33.8 -119.82,-164.4 -274.73,-145.9 -154.9,18.6 -182.38,71.2 -202.25,-51.6 -19.87,-122.7 8.18,-152 0,-157.8 -8.18,-5.9 -42.46,-35.1 -66.63,-14.6 -9.99,8.4 -55.53,131.5 -125.16,118.9 -104.91,-18.9 -9.28,-136.5 -9.28,-136.5 40.16,-13.6 48.16,-31.2 48.16,-31.2 0,0 24.9,-47.7 -54.01,-100.3 -78.91,-52.6 -118.03,-66.5 -118.03,-66.5" /><path
         id="path542"
         style="fill:#f09959;fill-opacity:1;fill-rule:nonzero;stroke:none"
         d="m 8033.4,9638.8 c 33.4,-49.3 28.97,-110.6 -9.89,-136.9 -38.86,-26.4 -97.44,-7.7 -130.83,41.5 -33.4,49.3 -28.98,110.6 9.88,136.9 38.87,26.4 97.44,7.8 130.84,-41.5" /><g
         transform="scale(1.06417)"
         id="g544"><path
           id="path546"
           style="fill:#ffffff;fill-opacity:1;fill-rule:nonzero;stroke:none"
           d="m 11676.5,15972.9 c -122.5,-1.4 -235.9,-39.3 -330.2,-103.1 -125.1,255.5 -389,430.2 -692.4,426.9 -386.9,-4.3 -703.2,-296.5 -747.55,-670.8 -80.16,59.1 -179.49,93.7 -286.7,92.5 -262.27,-2.9 -472.52,-217.8 -469.63,-480 2.88,-262.3 217.8,-472.5 480.05,-469.6 196.87,2.1 1863.13,-2.2 2059.63,0 332.5,3.6 599.1,276.1 595.4,608.6 -3.7,332.5 -276.2,599.1 -608.6,595.5" /></g><g
         transform="scale(1.4876)"
         id="g548"><path
           id="path550"
           style="fill:#9ec8ff;fill-opacity:1;fill-rule:nonzero;stroke:none"
           d="m 16272.2,5990.14 h -868.4 c -15.3,0 -27.8,12.57 -27.8,27.83 0,15.33 12.5,27.83 27.8,27.83 h 868.4 c 15.3,0 27.8,-12.5 27.8,-27.83 0,-15.26 -12.5,-27.83 -27.8,-27.83" /></g><g
         transform="scale(1.4876)"
         id="g552"><path
           id="path554"
           style="fill:#9ec8ff;fill-opacity:1;fill-rule:nonzero;stroke:none"
           d="m 16273.8,6114.03 h -1333.7 c -14.4,0 -26.2,11.76 -26.2,26.22 v 3.16 c 0,14.45 11.8,26.28 26.2,26.28 h 1333.7 c 14.4,0 26.2,-11.83 26.2,-26.28 v -3.16 c 0,-14.46 -11.8,-26.22 -26.2,-26.22" /></g><g
         transform="scale(1.4876)"
         id="g556"><path
           id="path558"
           style="fill:#9ec8ff;fill-opacity:1;fill-rule:nonzero;stroke:none"
           d="m 16273.8,6235.17 h -1333.7 c -14.4,0 -26.2,11.83 -26.2,26.28 v 3.16 c 0,14.45 11.8,26.21 26.2,26.21 h 1333.7 c 14.4,0 26.2,-11.76 26.2,-26.21 v -3.16 c 0,-14.45 -11.8,-26.28 -26.2,-26.28" /></g><g
         transform="scale(1.4876)"
         id="g560"><path
           id="path562"
           style="fill:#9ec8ff;fill-opacity:1;fill-rule:nonzero;stroke:none"
           d="m 16273.8,5237.38 h -1333.7 c -14.4,0 -26.2,11.76 -26.2,26.22 v 3.16 c 0,14.45 11.8,26.28 26.2,26.28 h 1333.7 c 14.4,0 26.2,-11.83 26.2,-26.28 v -3.16 c 0,-14.46 -11.8,-26.22 -26.2,-26.22" /></g><g
         transform="scale(1.4876)"
         id="g564"><path
           id="path566"
           style="fill:#9ec8ff;fill-opacity:1;fill-rule:nonzero;stroke:none"
           d="m 16273.8,5358.52 h -1333.7 c -14.4,0 -26.2,11.83 -26.2,26.28 v 3.16 c 0,14.45 11.8,26.28 26.2,26.28 h 1333.7 c 14.4,0 26.2,-11.83 26.2,-26.28 v -3.16 c 0,-14.45 -11.8,-26.28 -26.2,-26.28" /></g><g
         transform="scale(1.53825)"
         id="g568"><path
           id="path570"
           style="fill:#9ec8ff;fill-opacity:1;fill-rule:nonzero;stroke:none"
           d="m 15987.1,6114.08 c -45,0 -81.7,-36.6 -81.7,-81.65 V 5846.7 c 0,-44.98 36.7,-81.65 81.7,-81.65 h 185.7 c 45,0 81.7,36.67 81.7,81.65 v 185.73 c 0,45.05 -36.7,81.65 -81.7,81.65 z m 185.7,-394.53 h -185.7 c -70.1,0 -127.2,57.01 -127.2,127.15 v 185.73 c 0,70.15 57.1,127.16 127.2,127.16 h 185.7 c 70.1,0 127.2,-57.01 127.2,-127.16 V 5846.7 c 0,-70.14 -57.1,-127.15 -127.2,-127.15" /></g><g
         transform="scale(1.53825)"
         id="g572"><path
           id="path574"
           style="fill:#9ec8ff;fill-opacity:1;fill-rule:nonzero;stroke:none"
           d="m 15987.1,5324.94 c -45,0 -81.7,-36.66 -81.7,-81.71 v -185.67 c 0,-45.05 36.7,-81.71 81.7,-81.71 h 185.7 c 45,0 81.7,36.66 81.7,81.71 v 185.67 c 0,45.05 -36.7,81.71 -81.7,81.71 z m 185.7,-394.6 h -185.7 c -70.1,0 -127.2,57.07 -127.2,127.22 v 185.67 c 0,70.14 57.1,127.22 127.2,127.22 h 185.7 c 70.1,0 127.2,-57.08 127.2,-127.22 v -185.67 c 0,-70.15 -57.1,-127.22 -127.2,-127.22" /></g><g
         transform="scale(1.54461)"
         id="g576"><path
           id="path578"
           style="fill:#f37168;fill-opacity:1;fill-rule:nonzero;stroke:none"
           d="m 16025.3,5799.98 -1.1,0.07 c -6.6,0.32 -12.8,3.56 -16.8,8.81 l -132.9,173.37 c -7.7,9.97 -5.8,24.15 4.1,31.79 10,7.64 24.2,5.7 31.8,-4.21 l 116.6,-152.14 231.4,247.89 c 8.5,9.13 22.8,9.65 32,1.11 9.1,-8.55 9.6,-22.86 1.1,-32.05 l -249.6,-267.38 c -4.3,-4.6 -10.3,-7.26 -16.6,-7.26" /></g><g
         transform="scale(1.54461)"
         id="g580"><path
           id="path582"
           style="fill:#f37168;fill-opacity:1;fill-rule:nonzero;stroke:none"
           d="m 16025.3,5014.09 h -1.1 c -6.6,0.32 -12.8,3.56 -16.8,8.87 l -132.9,173.38 c -7.7,9.9 -5.8,24.15 4.1,31.79 10,7.57 24.2,5.69 31.8,-4.21 l 116.6,-152.14 231.4,247.89 c 8.5,9.13 22.8,9.64 32,1.1 9.1,-8.55 9.6,-22.92 1.1,-32.05 l -249.6,-267.45 c -4.3,-4.59 -10.3,-7.18 -16.6,-7.18" /></g><path
         id="path584"
         style="fill:#9ec8ff;fill-opacity:1;fill-rule:nonzero;stroke:none"
         d="m 4967.67,8702.5 c 0,-541.1 -438.72,-979.9 -979.92,-979.9 -541.18,0 -979.9,438.8 -979.9,979.9 0,541.2 438.72,980 979.9,980 541.2,0 979.92,-438.8 979.92,-980" /><path
         id="path586"
         style="fill:#ffffff;fill-opacity:1;fill-rule:nonzero;stroke:none"
         d="m 4881.59,8702.5 c 0,-493.6 -400.18,-893.8 -893.84,-893.8 -493.65,0 -893.83,400.2 -893.83,893.8 0,493.7 400.18,893.9 893.83,893.9 493.66,0 893.84,-400.2 893.84,-893.9" /><path
         id="path588"
         style="fill:#f39892;fill-opacity:1;fill-rule:nonzero;stroke:none"
         d="m 4731.96,8702.5 c 0,-411 -333.19,-744.2 -744.21,-744.2 -411.01,0 -744.2,333.2 -744.2,744.2 0,411.1 333.19,744.3 744.2,744.3 411.02,0 744.21,-333.2 744.21,-744.3" /><path
         id="path590"
         style="fill:#ffffff;fill-opacity:1;fill-rule:nonzero;stroke:none"
         d="m 4629.12,8702.5 c 0,-354.2 -287.15,-641.3 -641.37,-641.3 -354.21,0 -641.36,287.1 -641.36,641.3 0,354.3 287.15,641.4 641.36,641.4 354.22,0 641.37,-287.1 641.37,-641.4" /><path
         id="path592"
         style="fill:#f39892;fill-opacity:1;fill-rule:nonzero;stroke:none"
         d="m 4462.09,8702.5 c 0,-261.9 -212.37,-474.3 -474.34,-474.3 -261.96,0 -474.33,212.4 -474.33,474.3 0,262 212.37,474.4 474.33,474.4 261.97,0 474.34,-212.4 474.34,-474.4" /><path
         id="path594"
         style="fill:#ffffff;fill-opacity:1;fill-rule:nonzero;stroke:none"
         d="m 4063.25,8435.3 c 0,-41.7 -33.8,-75.5 -75.5,-75.5 -41.69,0 -75.49,33.8 -75.49,75.5 0,41.7 33.8,75.5 75.49,75.5 41.7,0 75.5,-33.8 75.5,-75.5" /><path
         id="path596"
         style="fill:#ffffff;fill-opacity:1;fill-rule:nonzero;stroke:none"
         d="m 3987.75,8564.5 c -32.67,0 -60.67,17.4 -62.3,39.7 l -24.71,338.7 c -3.38,46.3 35.67,87 87.01,87 51.36,0 90.4,-40.7 87.02,-87 l -24.71,-338.7 c -1.62,-22.3 -29.63,-39.7 -62.31,-39.7" /><g
         transform="scale(1.32849)"
         id="g598"><path
           id="path600"
           style="fill:#2e5b9a;fill-opacity:1;fill-rule:nonzero;stroke:none"
           d="m 16269.4,3510.98 h -2653.6 c -16.8,0 -30.6,13.85 -30.6,30.71 v 9.71 c 0,16.86 13.8,30.71 30.6,30.71 h 2653.6 c 16.8,0 30.6,-13.85 30.6,-30.71 v -9.71 c 0,-16.86 -13.8,-30.71 -30.6,-30.71" /></g><g
         transform="scale(1.35805)"
         id="g602"><path
           id="path604"
           style="fill:#2e5b9a;fill-opacity:1;fill-rule:nonzero;stroke:none"
           d="m 15467.5,2298.52 h 777.7 l -418.1,1148.7 h -777.7 z m 809.2,-44.18 H 15452 c -9.3,0 -17.5,5.81 -20.7,14.58 l -434.2,1192.88 c -2.4,6.78 -1.5,14.29 2.7,20.18 4.1,5.96 10.8,9.42 18.1,9.42 h 824.7 c 9.3,0 17.6,-5.74 20.7,-14.5 l 434.2,-1192.89 c 2.5,-6.77 1.5,-14.28 -2.7,-20.25 -4.1,-5.89 -10.9,-9.42 -18.1,-9.42" /></g><g
         transform="scale(1.34891)"
         id="g606"><path
           id="path608"
           style="fill:#2e5b9a;fill-opacity:1;fill-rule:nonzero;stroke:none"
           d="m 16277.8,2569.86 h -830.3 c -12.3,0 -22.3,10 -22.3,22.24 0,12.3 10,22.24 22.3,22.24 h 830.3 c 12.3,0 22.2,-9.94 22.2,-22.24 0,-12.24 -9.9,-22.24 -22.2,-22.24" /></g><g
         transform="scale(1.33987)"
         id="g610"><path
           id="path612"
           style="fill:#2e5b9a;fill-opacity:1;fill-rule:nonzero;stroke:none"
           d="m 16277.6,2889.47 h -835.9 c -12.4,0 -22.4,10.08 -22.4,22.39 0,12.39 10,22.39 22.4,22.39 h 835.9 c 12.4,0 22.4,-10 22.4,-22.39 0,-12.31 -10,-22.39 -22.4,-22.39" /></g><g
         transform="scale(1.33082)"
         id="g614"><path
           id="path616"
           style="fill:#2e5b9a;fill-opacity:1;fill-rule:nonzero;stroke:none"
           d="m 16277.5,3213.43 h -841.6 c -12.5,0 -22.6,10.14 -22.6,22.54 0,12.47 10.1,22.54 22.6,22.54 h 841.6 c 12.4,0 22.5,-10.07 22.5,-22.54 0,-12.4 -10.1,-22.54 -22.5,-22.54" /></g><g
         transform="scale(1.18479)"
         id="g618"><path
           id="path620"
           style="fill:#2e5b9a;fill-opacity:1;fill-rule:nonzero;stroke:none"
           d="m 14866.5,2634.65 h 891.5 l 479.2,1316.7 h -891.5 z m 909.2,-50.64 h -945.3 c -8.3,0 -16.1,4.05 -20.8,10.81 -4.7,6.83 -5.9,15.44 -3,23.21 l 497.6,1367.33 c 3.6,10.05 13.2,16.63 23.8,16.63 h 945.3 c 8.3,0 16.1,-3.97 20.8,-10.8 4.7,-6.76 5.9,-15.36 3,-23.13 l -497.6,-1367.33 c -3.7,-10.05 -13.2,-16.72 -23.8,-16.72" /></g><g
         transform="scale(1.15756)"
         id="g622"><path
           id="path624"
           style="fill:#2e5b9a;fill-opacity:1;fill-rule:nonzero;stroke:none"
           d="m 16274.1,2994.67 h -967.6 c -14.3,0 -25.9,11.66 -25.9,25.91 0,14.34 11.6,25.92 25.9,25.92 h 967.6 c 14.3,0 25.9,-11.58 25.9,-25.92 0,-14.25 -11.6,-25.91 -25.9,-25.91" /></g><g
         transform="scale(1.1666)"
         id="g626"><path
           id="path628"
           style="fill:#2e5b9a;fill-opacity:1;fill-rule:nonzero;stroke:none"
           d="m 16274.3,3318.61 h -960.1 c -14.2,0 -25.7,11.58 -25.7,25.72 0,14.23 11.5,25.72 25.7,25.72 h 960.1 c 14.2,0 25.7,-11.49 25.7,-25.72 0,-14.14 -11.5,-25.72 -25.7,-25.72" /></g><g
         transform="scale(1.17564)"
         id="g630"><path
           id="path632"
           style="fill:#2e5b9a;fill-opacity:1;fill-rule:nonzero;stroke:none"
           d="m 16274.5,3637.58 h -952.7 c -14.1,0 -25.5,11.48 -25.5,25.52 0,14.12 11.4,25.52 25.5,25.52 h 952.7 c 14.1,0 25.5,-11.4 25.5,-25.52 0,-14.04 -11.4,-25.52 -25.5,-25.52" /></g><g
         transform="scale(1.20285)"
         id="g634"><path
           id="path636"
           style="fill:#2e5b9a;fill-opacity:1;fill-rule:nonzero;stroke:none"
           d="m 15908.8,9985.34 c -344.1,-64.22 -524.6,-520.92 -390.9,-814.89 137.5,-302.4 338.7,-285.65 570.4,-85.76 109.4,94.34 165.1,190.64 190.9,396.33 20.8,165.91 -5.4,572.38 -370.4,504.32" /></g><g
         transform="scale(1.05848)"
         id="g638"><path
           id="path640"
           style="fill:#f09959;fill-opacity:1;fill-rule:nonzero;stroke:none"
           d="m 16300,10185.6 c 0,0 -41,101.4 -34.7,209.8 6.4,108.3 -69.2,404.3 -91.3,353.9 -22,-50.4 -15.6,-434.6 -15.6,-434.6 0,0 -60,176.4 -69.5,129.1 -9.4,-47.2 22.6,-223.5 69.5,-302.3 46.8,-78.7 113.3,-129.1 113.3,-129.1 l 28.3,173.2" /></g><g
         transform="scale(1.06872)"
         id="g642"><path
           id="path644"
           style="fill:#f09959;fill-opacity:1;fill-rule:nonzero;stroke:none"
           d="m 16262.2,8360.07 c -243.3,-107.61 -331.8,-154.39 -327.1,-196.5 4.7,-42.11 4.7,-42.11 4.7,-42.11 0,0 -235.3,-140.35 -140.4,-126.32 94.9,14.04 213.3,71.68 213.3,71.68 0,0 170.3,-68.59 203.1,0 32.7,68.68 84.2,210.72 84.2,210.72 l -37.8,82.53" /></g><g
         transform="scale(1.18036)"
         id="g646"><path
           id="path648"
           style="fill:#9cd499;fill-opacity:1;fill-rule:nonzero;stroke:none"
           d="m 16300,9080.25 c -384,-228 -977.1,-330.09 -1073.1,-310.07 -96,20.01 -621.3,403.99 -621.3,403.99 0,0 -73.6,-156.06 -73.6,-178.64 0,-22.6 452,-495.87 559.4,-581.2 107.2,-85.23 1078.7,-31.35 1078.7,-31.35 l 129.9,697.27" /></g><g
         transform="scale(1.20776)"
         id="g650"><path
           id="path652"
           style="fill:#3e6bab;fill-opacity:1;fill-rule:nonzero;stroke:none"
           d="m 15974.4,4289.92 c -63.5,-220.74 -47.4,-242.76 -150.7,-304.94 -103.3,-62.1 -155.1,-90.25 17.4,-82.72 172.4,7.54 200.2,20.62 237.1,75.85 36.9,55.14 67.5,35.85 144.7,55.14 77.1,19.38 -58.1,278.78 -58.1,278.78 l -190.4,-22.11" /></g><g
         transform="scale(1.28097)"
         id="g654"><path
           id="path656"
           style="fill:#3e6bab;fill-opacity:1;fill-rule:nonzero;stroke:none"
           d="m 16006,4239.91 c 0,0 91,-114.44 109.3,-210.77 18.2,-96.26 -31.2,-278.39 0,-278.39 31.2,0 156.1,195.17 158.7,270.58 2.6,75.49 -26,156.13 0,229.05 26,72.83 -106.7,145.67 -106.7,145.67 L 16006,4239.91" /></g><g
         transform="scale(1.27299)"
         id="g658"><path
           id="path660"
           style="fill:#4476bd;fill-opacity:1;fill-rule:nonzero;stroke:none"
           d="m 15455.5,6978.43 c 184.6,-902.52 333.9,-1483.82 569.6,-1892.31 235.6,-408.48 274.9,-685.31 274.9,-685.31 0,0 -133.5,-202.36 -188.5,-210.22 -55,-7.85 -724.6,931.35 -857.2,1345.49 -132.6,414.15 -366.2,1442.35 -366.2,1442.35 h 567.4" /></g><g
         transform="scale(1.23962)"
         id="g662"><path
           id="path664"
           style="fill:#3e6bab;fill-opacity:1;fill-rule:nonzero;stroke:none"
           d="m 16239.4,4811.64 c -118.4,398.91 -189.7,767.57 -185.4,1531.52 -59.9,241.44 -119.1,513.94 -182.4,823.15 H 15312 c 8.7,-65.18 19.6,-146.25 32,-238.14 79,-336.88 225.5,-944.88 321,-1243.04 87.9,-274.6 405.6,-773.79 635,-1091.06 -15.8,61.47 -35.7,133.43 -60.6,217.57" /></g><g
         transform="scale(1.20951)"
         id="g666"><path
           id="path668"
           style="fill:#4476bd;fill-opacity:1;fill-rule:nonzero;stroke:none"
           d="m 15477.2,7211.6 c 74.4,-725.83 151.6,-1552.61 253.6,-1899.86 101.9,-347.25 176.3,-1165.76 176.3,-1165.76 0,0 142.8,-16.54 251.3,74.41 108.4,90.95 141.6,752.7 71.2,1355.92 -70.5,603.22 37.1,1649.02 37.1,1649.02 l -789.5,-13.73" /></g><g
         transform="scale(1.16034)"
         id="g670"><path
           id="path672"
           style="fill:#a7d3b7;fill-opacity:1;fill-rule:nonzero;stroke:none"
           d="m 16195,9063.83 v 0 c 35.2,12.07 70.3,24.91 105,38.51 v -0.02 c -34.7,-13.59 -69.9,-26.43 -105,-38.5" /></g><g
         transform="scale(1.16034)"
         id="g674"><path
           id="path676"
           style="fill:#88c484;fill-opacity:1;fill-rule:nonzero;stroke:none"
           d="m 15850,8510.5 c -89.9,0 -178.3,1.63 -255.4,5.86 309.8,137.55 482.9,358.2 600.4,547.47 35.1,12.06 70.3,24.9 105,38.49 -21.2,-30.05 -44.2,-62.4 -69.3,-97.39 -124,-172.78 -172.4,-322.56 -181.1,-492.19 -64.8,-1.38 -132.6,-2.24 -199.6,-2.24" /></g><g
         transform="scale(1.21758)"
         id="g678"><path
           id="path680"
           style="fill:#9cd499;fill-opacity:1;fill-rule:nonzero;stroke:none"
           d="m 15916.7,9470.66 c 0,0 43.9,-432.56 60.3,-476.36 16.4,-43.8 323,-409.43 240.9,-902.82 -82.2,-493.44 13.9,-1035.41 13.9,-1035.41 0,0 -397.2,-153.34 -731.2,-208.12 -334,-54.7 -115,418.86 -169.7,814.4 -54.8,395.71 -76.7,621.64 136.9,919.29 213.5,297.68 273.7,396.23 268.2,505.74 -5.4,109.51 -109.5,383.28 -109.5,383.28 h 290.2" /></g><g
         transform="scale(1.19601)"
         id="g682"><path
           id="path684"
           style="fill:#f09959;fill-opacity:1;fill-rule:nonzero;stroke:none"
           d="m 16300,9099.69 c -18.8,29.2 -31.9,48.57 -34.9,56.78 -16.8,44.59 -61.4,484.94 -61.4,484.94 h -295.4 c 0,0 105.9,-278.7 111.4,-390.18 5.5,-108.72 -52.7,-206.92 -257.2,-492.74 146.1,38.76 414.8,135.26 537.5,341.2" /></g><g
         transform="scale(1.19017)"
         id="g686"><path
           id="path688"
           style="fill:#e38540;fill-opacity:1;fill-rule:nonzero;stroke:none"
           d="m 16300,9530.6 c -9.7,87.58 -16.8,158.13 -16.8,158.13 h -296.9 c 0,0 106.5,-280.07 112,-392.1 1.7,-33.65 -2.6,-66.31 -15.6,-103.76 74.6,70.99 155.5,178.1 217.3,337.73" /></g><g
         transform="scale(1.18601)"
         id="g690"><path
           id="path692"
           style="fill:#f09959;fill-opacity:1;fill-rule:nonzero;stroke:none"
           d="m 16272.8,9593.36 c -27.4,-179.89 -204.9,-297.7 -346.3,-276.26 -141.4,21.43 -169.9,161.07 -142.7,340.96 27.3,179.9 141,321.26 282.3,299.83 141.4,-21.43 233.9,-184.64 206.7,-364.53" /></g><g
         transform="scale(1.20183)"
         id="g694"><path
           id="path696"
           style="fill:#88c484;fill-opacity:1;fill-rule:nonzero;stroke:none"
           d="m 15528.8,7391.66 c 11,119.48 19.8,248.95 3,371.18 -23.3,167.58 -40.6,305.03 -37.1,430.43 144,149.83 352.6,479.72 564,588.84 0,0 155,-126.41 184.1,-249.62 29.2,-123.21 57.2,-468.53 -184.1,-769.65 -137.5,-171.65 -356.5,-297.71 -529.9,-371.18" /></g><g
         transform="scale(1.20152)"
         id="g698"><path
           id="path700"
           style="fill:#9cd499;fill-opacity:1;fill-rule:nonzero;stroke:none"
           d="m 16183.6,8863.46 c 116.4,-52.38 56.4,-657.49 -21.8,-774.51 -54.5,-81.31 -720.5,-561.29 -1017.3,-665.32 -296.7,-104.04 -663,-162.3 -663,-162.3 0,0 -108.1,151.39 -33.2,196.34 74.9,45.02 607.5,236.45 869.7,465.33 262.2,228.87 399.6,581.11 590.9,753.2 124.9,112.3 191.4,224.71 274.7,187.26" /></g><g
         transform="scale(1.19615)"
         id="g702"><path
           id="path704"
           style="fill:#2e5b9a;fill-opacity:1;fill-rule:nonzero;stroke:none"
           d="m 15597.7,9569.11 c 185.1,139.46 309.3,197.78 311.9,167.35 2.5,-30.43 48.1,-349.91 169.9,-420.92 121.7,-70.99 208.2,-12.67 214.4,27.9 6.1,40.57 -92.7,532.49 -92.7,532.49 l -385.5,35.49 -152.7,-162.28 -65.3,-180.03" /></g><g
         transform="scale(1.25868)"
         id="g706"><path
           id="path708"
           style="fill:#2e5b9a;fill-opacity:1;fill-rule:nonzero;stroke:none"
           d="m 15521.4,9120.02 c 26.5,-127.12 74.1,-193.33 92.7,-201.27 18.5,-7.95 587.9,-56.65 495.2,-449.4 -92.7,-392.75 190.7,-553.76 190.7,-553.76 0,0 -124.6,-113.85 -373.4,-58.79 -248.8,55.05 -275.5,243.63 -201.2,436.96 74.1,193.32 -141.5,186.77 -170.1,334.38 -28.6,147.6 0,245.59 0,245.59 l -85.4,47.67 51.5,198.62" /></g></g></g></svg>
