<?xml version="1.0" encoding="utf-8"?>

<!--
 * Copyright (c) 2020, WSO2 Inc. (http://www.wso2.org) All Rights Reserved.
 *
 * WSO2 Inc. licenses this file to you under the Apache License,
 * Version 2.0 (the "License"); you may not use this file except
 * in compliance with the License.
 * You may obtain a copy of the License at
 *
 *     http://www.apache.org/licenses/LICENSE-2.0
 *
 * Unless required by applicable law or agreed to in writing,
 * software distributed under the License is distributed on an
 * "AS IS" BASIS, WITHOUT WARRANTIES OR CONDITIONS OF ANY
 * KIND, either express or implied. See the License for the
 * specific language governing permissions and limitations
 * under the License.
-->

<svg id="jdbc-illustration" width="100" height="100" viewBox="0 0 100 100" fill="none" xmlns="http://www.w3.org/2000/svg">
    <path
        d="M12 72.9589C12 77.9522 25.8792 84 43 84C52.9632 84 61.8287 82.1832 67.5 79.7567L67 79L66 77.5L64.5 73.3151L63.5 68.3836L68 62.2192L73.3339 60.9863L74 49.4795V24C74 25.2329 67.5 32.2192 41.5 32.2192C15 32.2192 12 24 12 24V72.9589Z"
        fill="url(#paint0_linear_1756_115)" fill-opacity="0.4" />
    <ellipse cx="43" cy="22" rx="31" ry="11" fill="url(#paint1_linear_1756_115)" stroke="#4C5153" />
    <path d="M12 21.5V73" stroke="#4C5153" />
    <path d="M74 21.5V60.5" stroke="#4C5153" stroke-linecap="round" />
    <path d="M70 31V39.5" stroke="#4C5153" stroke-linecap="round" />
    <path d="M70 49V57.5" stroke="#4C5153" stroke-linecap="round" />
    <path d="M74 39C74 45.0751 60.1208 50 43 50C25.8792 50 12 45.0751 12 39" stroke="#4C5153" />
    <path d="M74 56C74 62.0751 60.1208 67 43 67C25.8792 67 12 62.0751 12 56" stroke="#4C5153" />
    <path d="M12 73C12 79.0751 25.8792 84 43 84C52.6266 84 61.2283 82.443 66.9142 80" stroke="#4C5153" />
    <mask id="path-10-inside-1_1756_115" fill="white">
        <path fill-rule="evenodd" clip-rule="evenodd"
            d="M79.1489 54.2755V55.0687C79.1489 55.3153 79.3109 55.5326 79.5472 55.6031C80.5261 55.915 81.475 56.309 82.3848 56.7802C82.5966 56.8955 82.8591 56.8578 83.0298 56.6874L83.5986 56.1197C84.7013 55.017 86.4108 54.8555 87.7467 55.7285L87.9926 55.9043L88.2324 56.1197L90.8803 58.7676C92.0519 59.9392 92.161 61.7959 91.0957 63.1615L90.8807 63.401L90.3132 63.9672C90.1415 64.1384 90.1034 64.4024 90.2198 64.6152C90.691 65.525 91.085 66.4739 91.3969 67.4528C91.4663 67.688 91.682 67.8495 91.9271 67.8498L92.7234 67.8511C94.2984 67.8511 95.6311 68.9674 95.9411 70.5453L95.9851 70.8284L96 71.1277V74.8723C96 76.54 94.7485 77.9359 93.0226 78.134L92.7233 78.1489L91.9292 78.1477C91.6831 78.1473 91.4664 78.3095 91.3973 78.5457C91.0854 79.525 90.6913 80.4742 90.22 81.3843C90.1036 81.5951 90.1405 81.8574 90.3106 82.0278L90.8803 82.5986C92.0846 83.8029 92.1555 85.7115 91.0928 86.9987L90.8803 87.2324L88.2324 89.8803C86.9528 91.1599 84.8782 91.1599 83.599 89.8807L83.0278 89.3106C82.8574 89.1405 82.5951 89.1036 82.3843 89.22C81.4742 89.6913 80.525 90.0854 79.5457 90.3973C79.3095 90.4664 79.1473 90.6831 79.1477 90.9292L79.1489 91.7234C79.1489 93.4425 77.825 94.8525 76.1411 94.9891L75.8723 95H72.1277C70.318 95 68.8511 93.533 68.8511 91.7245L68.8498 90.9271C68.8495 90.682 68.688 90.4663 68.4528 90.3969C67.4739 90.085 66.525 89.691 65.6152 89.2198C65.4024 89.1034 65.1384 89.1415 64.9672 89.3132L64.4014 89.8803C63.1971 91.0846 61.2885 91.1555 60.0013 90.0928L59.7676 89.8803L57.1197 87.2324C55.8401 85.9528 55.8401 83.8782 57.1193 82.599L57.6885 82.0274C57.8582 81.857 57.8954 81.5953 57.78 81.3843C57.3087 80.4742 56.9146 79.525 56.6027 78.5457C56.5324 78.3093 56.315 78.1473 56.0684 78.1477L55.2766 78.1489C53.5575 78.1489 52.1476 76.825 52.0109 75.1411L52 74.8723V71.1277C52 69.3181 53.467 67.8511 55.2755 67.8511L56.0705 67.8498C56.3161 67.8495 56.5326 67.6882 56.6031 67.4528C56.915 66.4739 57.309 65.525 57.7802 64.6152C57.8956 64.4022 57.8572 64.1388 57.6859 63.9675L57.1197 63.4014C56.017 62.2987 55.8555 60.5892 56.7285 59.2533L56.9043 59.0075L57.1197 58.7676L59.7676 56.1197C60.9392 54.9481 62.7959 54.839 64.1615 55.9043L64.401 56.1193L64.9698 56.687C65.1408 56.8576 65.4036 56.8954 65.6157 56.78C66.5258 56.3087 67.475 55.9146 68.4543 55.6027C68.6897 55.5324 68.8511 55.3159 68.8511 55.0702V54.2766C68.8511 52.7016 69.9674 51.369 71.5453 51.0589L71.8284 51.0149L72.1277 51H75.8723C77.54 51 78.9359 52.2515 79.134 53.9774L79.1489 54.2755ZM83 73C83 77.9706 78.9706 82 74 82C69.0294 82 65 77.9706 65 73C65 68.0294 69.0294 64 74 64C78.9706 64 83 68.0294 83 73ZM78.6364 73C78.6364 75.5606 76.5606 77.6364 74 77.6364C71.4394 77.6364 69.3636 75.5606 69.3636 73C69.3636 70.4394 71.4394 68.3636 74 68.3636C76.5606 68.3636 78.6364 70.4394 78.6364 73Z" />
    </mask>
    <path fill-rule="evenodd" clip-rule="evenodd"
        d="M79.1489 54.2755V55.0687C79.1489 55.3153 79.3109 55.5326 79.5472 55.6031C80.5261 55.915 81.475 56.309 82.3848 56.7802C82.5966 56.8955 82.8591 56.8578 83.0298 56.6874L83.5986 56.1197C84.7013 55.017 86.4108 54.8555 87.7467 55.7285L87.9926 55.9043L88.2324 56.1197L90.8803 58.7676C92.0519 59.9392 92.161 61.7959 91.0957 63.1615L90.8807 63.401L90.3132 63.9672C90.1415 64.1384 90.1034 64.4024 90.2198 64.6152C90.691 65.525 91.085 66.4739 91.3969 67.4528C91.4663 67.688 91.682 67.8495 91.9271 67.8498L92.7234 67.8511C94.2984 67.8511 95.6311 68.9674 95.9411 70.5453L95.9851 70.8284L96 71.1277V74.8723C96 76.54 94.7485 77.9359 93.0226 78.134L92.7233 78.1489L91.9292 78.1477C91.6831 78.1473 91.4664 78.3095 91.3973 78.5457C91.0854 79.525 90.6913 80.4742 90.22 81.3843C90.1036 81.5951 90.1405 81.8574 90.3106 82.0278L90.8803 82.5986C92.0846 83.8029 92.1555 85.7115 91.0928 86.9987L90.8803 87.2324L88.2324 89.8803C86.9528 91.1599 84.8782 91.1599 83.599 89.8807L83.0278 89.3106C82.8574 89.1405 82.5951 89.1036 82.3843 89.22C81.4742 89.6913 80.525 90.0854 79.5457 90.3973C79.3095 90.4664 79.1473 90.6831 79.1477 90.9292L79.1489 91.7234C79.1489 93.4425 77.825 94.8525 76.1411 94.9891L75.8723 95H72.1277C70.318 95 68.8511 93.533 68.8511 91.7245L68.8498 90.9271C68.8495 90.682 68.688 90.4663 68.4528 90.3969C67.4739 90.085 66.525 89.691 65.6152 89.2198C65.4024 89.1034 65.1384 89.1415 64.9672 89.3132L64.4014 89.8803C63.1971 91.0846 61.2885 91.1555 60.0013 90.0928L59.7676 89.8803L57.1197 87.2324C55.8401 85.9528 55.8401 83.8782 57.1193 82.599L57.6885 82.0274C57.8582 81.857 57.8954 81.5953 57.78 81.3843C57.3087 80.4742 56.9146 79.525 56.6027 78.5457C56.5324 78.3093 56.315 78.1473 56.0684 78.1477L55.2766 78.1489C53.5575 78.1489 52.1476 76.825 52.0109 75.1411L52 74.8723V71.1277C52 69.3181 53.467 67.8511 55.2755 67.8511L56.0705 67.8498C56.3161 67.8495 56.5326 67.6882 56.6031 67.4528C56.915 66.4739 57.309 65.525 57.7802 64.6152C57.8956 64.4022 57.8572 64.1388 57.6859 63.9675L57.1197 63.4014C56.017 62.2987 55.8555 60.5892 56.7285 59.2533L56.9043 59.0075L57.1197 58.7676L59.7676 56.1197C60.9392 54.9481 62.7959 54.839 64.1615 55.9043L64.401 56.1193L64.9698 56.687C65.1408 56.8576 65.4036 56.8954 65.6157 56.78C66.5258 56.3087 67.475 55.9146 68.4543 55.6027C68.6897 55.5324 68.8511 55.3159 68.8511 55.0702V54.2766C68.8511 52.7016 69.9674 51.369 71.5453 51.0589L71.8284 51.0149L72.1277 51H75.8723C77.54 51 78.9359 52.2515 79.134 53.9774L79.1489 54.2755ZM83 73C83 77.9706 78.9706 82 74 82C69.0294 82 65 77.9706 65 73C65 68.0294 69.0294 64 74 64C78.9706 64 83 68.0294 83 73ZM78.6364 73C78.6364 75.5606 76.5606 77.6364 74 77.6364C71.4394 77.6364 69.3636 75.5606 69.3636 73C69.3636 70.4394 71.4394 68.3636 74 68.3636C76.5606 68.3636 78.6364 70.4394 78.6364 73Z"
        fill="url(#paint2_linear_1756_115)" />
    <path
        d="M79.1489 54.2755H80.1489V54.2505L80.1477 54.2256L79.1489 54.2755ZM83.5986 56.1197L84.305 56.8275L84.3057 56.8268L83.5986 56.1197ZM87.7467 55.7285L88.3284 54.9151L88.3113 54.9029L88.2937 54.8914L87.7467 55.7285ZM87.9926 55.9043L88.6607 55.1603L88.6194 55.1232L88.5743 55.0909L87.9926 55.9043ZM88.2324 56.1197L88.9395 55.4126L88.9205 55.3936L88.9006 55.3757L88.2324 56.1197ZM90.8803 58.7676L90.1732 59.4747V59.4747L90.8803 58.7676ZM91.0957 63.1615L91.8398 63.8296L91.8629 63.8039L91.8842 63.7766L91.0957 63.1615ZM90.8807 63.401L91.587 64.1089L91.6064 64.0895L91.6248 64.0691L90.8807 63.401ZM92.7234 67.8511L92.7219 68.8511H92.7234V67.8511ZM95.9411 70.5453L96.9293 70.3919L96.9262 70.3721L96.9224 70.3525L95.9411 70.5453ZM95.9851 70.8284L96.9838 70.7786L96.9812 70.7266L96.9732 70.675L95.9851 70.8284ZM96 71.1277H97V71.1027L96.9988 71.0779L96 71.1277ZM93.0226 78.134L93.0724 79.1328L93.1046 79.1312L93.1367 79.1275L93.0226 78.134ZM92.7233 78.1489L92.7218 79.1489L92.7475 79.149L92.7731 79.1477L92.7233 78.1489ZM90.8803 82.5986L90.1725 83.305L90.1732 83.3057L90.8803 82.5986ZM91.0928 86.9987L91.8327 87.6714L91.8488 87.6537L91.864 87.6353L91.0928 86.9987ZM90.8803 87.2324L91.5874 87.9395L91.6042 87.9227L91.6202 87.9052L90.8803 87.2324ZM83.599 89.8807L84.3061 89.1736L84.3054 89.1729L83.599 89.8807ZM79.1489 91.7234H80.1489L80.1489 91.7219L79.1489 91.7234ZM76.1411 94.9891L76.1814 95.9883L76.2017 95.9875L76.222 95.9859L76.1411 94.9891ZM75.8723 95V96H75.8925L75.9127 95.9992L75.8723 95ZM68.8511 91.7245H69.8511L69.8511 91.7229L68.8511 91.7245ZM64.4014 89.8803L65.1085 90.5874L65.1094 90.5866L64.4014 89.8803ZM60.0013 90.0928L59.3286 90.8327L59.3463 90.8488L59.3647 90.864L60.0013 90.0928ZM59.7676 89.8803L59.0605 90.5874L59.0773 90.6042L59.0948 90.6202L59.7676 89.8803ZM57.1197 87.2324L56.4126 87.9395H56.4126L57.1197 87.2324ZM57.1193 82.599L57.8264 83.3061L57.8279 83.3046L57.1193 82.599ZM55.2766 78.1489V79.1489L55.2781 79.1489L55.2766 78.1489ZM52.0109 75.1411L51.0117 75.1815L51.0125 75.2017L51.0141 75.222L52.0109 75.1411ZM52 74.8723H51V74.8925L51.0008 74.9127L52 74.8723ZM55.2755 67.8511V68.8511L55.2771 68.8511L55.2755 67.8511ZM57.1197 63.4014L56.4126 64.1085L56.4127 64.1086L57.1197 63.4014ZM56.7285 59.2533L55.9151 58.6716L55.9029 58.6887L55.8914 58.7063L56.7285 59.2533ZM56.9043 59.0075L56.1603 58.3393L56.1232 58.3806L56.0909 58.4257L56.9043 59.0075ZM57.1197 58.7676L56.4126 58.0605L56.3936 58.0795L56.3757 58.0994L57.1197 58.7676ZM59.7676 56.1197L59.0605 55.4126V55.4126L59.7676 56.1197ZM64.1615 55.9043L64.8296 55.1602L64.8039 55.1371L64.7766 55.1158L64.1615 55.9043ZM64.401 56.1193L65.1074 55.4115L65.0887 55.3928L65.0691 55.3752L64.401 56.1193ZM71.5453 51.0589L71.3919 50.0707L71.3721 50.0738L71.3525 50.0776L71.5453 51.0589ZM71.8284 51.0149L71.7786 50.0162L71.7266 50.0188L71.675 50.0268L71.8284 51.0149ZM72.1277 51V50H72.1027L72.0778 50.0012L72.1277 51ZM79.134 53.9774L80.1328 53.9274L80.1312 53.8953L80.1275 53.8633L79.134 53.9774ZM64.9698 56.687L65.6762 55.9792L64.9698 56.687ZM65.6157 56.78L65.1558 55.892L65.1467 55.8967L65.1377 55.9017L65.6157 56.78ZM57.7802 64.6152L56.9009 64.1391L56.8965 64.1472L56.8923 64.1553L57.7802 64.6152ZM57.6859 63.9675L58.3929 63.2603L57.6859 63.9675ZM56.0705 67.8498L56.072 68.8498L56.0705 67.8498ZM56.6031 67.4528L55.6503 67.1493L55.6477 67.1574L55.6453 67.1656L56.6031 67.4528ZM56.6027 78.5457L55.6441 78.8304L55.6469 78.8398L55.6498 78.8492L56.6027 78.5457ZM56.0684 78.1477L56.0669 77.1477L56.0684 78.1477ZM68.4543 55.6027L68.1683 54.6444L68.1596 54.647L68.1508 54.6498L68.4543 55.6027ZM83.0298 56.6874L83.7362 57.3952L83.0298 56.6874ZM57.78 81.3843L56.892 81.8442L56.8973 81.8543L56.9027 81.8643L57.78 81.3843ZM68.8498 90.9271L67.8498 90.9287L68.8498 90.9271ZM68.4528 90.3969L68.1493 91.3497L68.1595 91.3529L68.1697 91.3559L68.4528 90.3969ZM90.3132 63.9672L91.0194 64.6751L90.3132 63.9672ZM90.2198 64.6152L91.1077 64.1553L91.1026 64.1454L91.0972 64.1356L90.2198 64.6152ZM83.0278 89.3106L83.7342 88.6028L83.0278 89.3106ZM82.3843 89.22L82.8442 90.108L82.8561 90.1018L82.8678 90.0953L82.3843 89.22ZM79.5472 55.6031L79.8507 54.6503L79.842 54.6475L79.8332 54.6449L79.5472 55.6031ZM91.9292 78.1477L91.9307 77.1477L91.9292 78.1477ZM91.3973 78.5457L92.3502 78.8492L92.3538 78.8378L92.3572 78.8263L91.3973 78.5457ZM90.3106 82.0278L89.6028 82.7342L90.3106 82.0278ZM91.9271 67.8498L91.9287 66.8498L91.9271 67.8498ZM65.6152 89.2198L65.1356 90.0972L65.1454 90.1026L65.1553 90.1077L65.6152 89.2198ZM64.9672 89.3132L64.2592 88.6069L64.9672 89.3132ZM80.1489 55.0687V54.2755H78.1489V55.0687H80.1489ZM82.8447 55.8923C81.8849 55.3952 80.8837 54.9794 79.8507 54.6503L79.2436 56.5559C80.1685 56.8506 81.0651 57.2229 81.9249 57.6682L82.8447 55.8923ZM82.8922 55.4119L82.3234 55.9796L83.7362 57.3952L84.305 56.8275L82.8922 55.4119ZM88.2937 54.8914C86.575 53.7682 84.3399 53.9642 82.8915 55.4126L84.3057 56.8268C85.0627 56.0699 86.2466 55.9428 87.1997 56.5656L88.2937 54.8914ZM88.5743 55.0909L88.3284 54.9151L87.165 56.5419L87.4108 56.7177L88.5743 55.0909ZM88.9006 55.3757L88.6607 55.1603L87.3244 56.6483L87.5642 56.8637L88.9006 55.3757ZM91.5874 58.0605L88.9395 55.4126L87.5253 56.8268L90.1732 59.4747L91.5874 58.0605ZM91.8842 63.7766C93.2495 62.0264 93.128 59.6011 91.5874 58.0605L90.1732 59.4747C90.9758 60.2773 91.0726 61.5654 90.3072 62.5465L91.8842 63.7766ZM91.6248 64.0691L91.8398 63.8296L90.3516 62.4935L90.1366 62.7329L91.6248 64.0691ZM91.0194 64.6751L91.587 64.1089L90.1744 62.693L89.6069 63.2592L91.0194 64.6751ZM92.3497 67.1493C92.0206 66.1163 91.6048 65.1151 91.1077 64.1553L89.3318 65.0751C89.7771 65.9349 90.1494 66.8315 90.4441 67.7564L92.3497 67.1493ZM92.725 66.8511L91.9287 66.8498L91.9256 68.8498L92.7219 68.8511L92.725 66.8511ZM96.9224 70.3525C96.5231 68.3205 94.7914 66.8511 92.7234 66.8511V68.8511C93.8054 68.8511 94.739 69.6142 94.9599 70.7381L96.9224 70.3525ZM96.9732 70.675L96.9293 70.3919L94.953 70.6987L94.9969 70.9818L96.9732 70.675ZM96.9988 71.0779L96.9838 70.7786L94.9863 70.8782L95.0012 71.1775L96.9988 71.0779ZM97 74.8723V71.1277H95V74.8723H97ZM93.1367 79.1275C95.3515 78.8733 97 77.064 97 74.8723H95C95 76.016 94.1456 76.9986 92.9086 77.1405L93.1367 79.1275ZM92.7731 79.1477L93.0724 79.1328L92.9728 77.1353L92.6735 77.1502L92.7731 79.1477ZM91.9276 79.1477L92.7218 79.1489L92.7249 77.1489L91.9307 77.1477L91.9276 79.1477ZM91.108 81.8442C91.6052 80.8841 92.021 79.8826 92.3502 78.8492L90.4445 78.2422C90.1498 79.1675 89.7774 80.0644 89.332 80.9244L91.108 81.8442ZM91.5881 81.8922L91.0184 81.3214L89.6028 82.7342L90.1725 83.305L91.5881 81.8922ZM91.864 87.6353C93.2516 85.9545 93.1597 83.4638 91.5874 81.8915L90.1732 83.3057C91.0095 84.1421 91.0593 85.4685 90.3217 86.362L91.864 87.6353ZM91.6202 87.9052L91.8327 87.6714L90.353 86.3259L90.1404 86.5597L91.6202 87.9052ZM88.9395 90.5874L91.5874 87.9395L90.1732 86.5253L87.5253 89.1732L88.9395 90.5874ZM82.8919 90.5878C84.5617 92.2576 87.2695 92.2574 88.9395 90.5874L87.5253 89.1732C86.6362 90.0623 85.1947 90.0622 84.3061 89.1736L82.8919 90.5878ZM82.3214 90.0184L82.8926 90.5885L84.3054 89.1729L83.7342 88.6028L82.3214 90.0184ZM79.8492 91.3502C80.8826 91.021 81.8841 90.6052 82.8442 90.108L81.9244 88.332C81.0644 88.7774 80.1675 89.1498 79.2422 89.4445L79.8492 91.3502ZM80.1489 91.7219L80.1477 90.9276L78.1477 90.9307L78.1489 91.725L80.1489 91.7219ZM76.222 95.9859C78.4209 95.8074 80.1489 93.9677 80.1489 91.7234H78.1489C78.1489 92.9174 77.2291 93.8975 76.0602 93.9924L76.222 95.9859ZM75.9127 95.9992L76.1814 95.9883L76.1007 93.99L75.832 94.0008L75.9127 95.9992ZM72.1277 96H75.8723V94H72.1277V96ZM67.8511 91.7245C67.8511 94.0855 69.766 96 72.1277 96V94C70.8701 94 69.8511 92.9805 69.8511 91.7245H67.8511ZM67.8498 90.9287L67.8511 91.726L69.8511 91.7229L69.8498 90.9256L67.8498 90.9287ZM65.1553 90.1077C66.1151 90.6048 67.1163 91.0206 68.1493 91.3497L68.7564 89.4441C67.8315 89.1494 66.9349 88.7771 66.0751 88.3318L65.1553 90.1077ZM65.1094 90.5866L65.6751 90.0194L64.2592 88.6069L63.6935 89.174L65.1094 90.5866ZM59.3647 90.864C61.0455 92.2516 63.5362 92.1597 65.1085 90.5874L63.6943 89.1732C62.8579 90.0095 61.5315 90.0593 60.638 89.3217L59.3647 90.864ZM59.0948 90.6202L59.3286 90.8327L60.6741 89.353L60.4403 89.1404L59.0948 90.6202ZM56.4126 87.9395L59.0605 90.5874L60.4747 89.1732L57.8268 86.5253L56.4126 87.9395ZM56.4122 81.8919C54.7424 83.5617 54.7426 86.2695 56.4126 87.9395L57.8268 86.5253C56.9377 85.6362 56.9378 84.1947 57.8264 83.3061L56.4122 81.8919ZM56.9799 81.3218L56.4107 81.8934L57.8279 83.3046L58.3971 82.7331L56.9799 81.3218ZM55.6498 78.8492C55.979 79.8826 56.3948 80.8841 56.892 81.8442L58.668 80.9244C58.2226 80.0644 57.8502 79.1675 57.5555 78.2422L55.6498 78.8492ZM55.2781 79.1489L56.07 79.1477L56.0669 77.1477L55.275 77.1489L55.2781 79.1489ZM51.0141 75.222C51.1926 77.4208 53.0323 79.1489 55.2766 79.1489V77.1489C54.0826 77.1489 53.1025 76.2291 53.0076 75.0602L51.0141 75.222ZM51.0008 74.9127L51.0117 75.1815L53.01 75.1007L52.9992 74.832L51.0008 74.9127ZM51 71.1277V74.8723H53V71.1277H51ZM55.2755 66.8511C52.9145 66.8511 51 68.766 51 71.1277H53C53 69.8701 54.0195 68.8511 55.2755 68.8511V66.8511ZM56.0689 66.8498L55.274 66.8511L55.2771 68.8511L56.072 68.8498L56.0689 66.8498ZM56.8923 64.1553C56.3952 65.1151 55.9794 66.1163 55.6503 67.1493L57.5559 67.7564C57.8506 66.8315 58.2229 65.9349 58.6682 65.0751L56.8923 64.1553ZM56.4127 64.1086L56.9789 64.6747L58.3929 63.2603L57.8267 62.6942L56.4127 64.1086ZM55.8914 58.7063C54.7682 60.425 54.9642 62.6601 56.4126 64.1085L57.8268 62.6943C57.0699 61.9374 56.9428 60.7534 57.5656 59.8004L55.8914 58.7063ZM56.0909 58.4257L55.9151 58.6716L57.5419 59.835L57.7177 59.5892L56.0909 58.4257ZM56.3757 58.0994L56.1603 58.3393L57.6483 59.6756L57.8637 59.4358L56.3757 58.0994ZM59.0605 55.4126L56.4126 58.0605L57.8268 59.4747L60.4747 56.8268L59.0605 55.4126ZM64.7766 55.1158C63.0264 53.7505 60.6011 53.872 59.0605 55.4126L60.4747 56.8268C61.2773 56.0242 62.5654 55.9274 63.5465 56.6928L64.7766 55.1158ZM65.0691 55.3752L64.8296 55.1602L63.4935 56.6484L63.7329 56.8634L65.0691 55.3752ZM65.6762 55.9792L65.1074 55.4115L63.6946 56.8271L64.2634 57.3948L65.6762 55.9792ZM68.1508 54.6498C67.1175 54.979 66.1159 55.3948 65.1558 55.892L66.0756 57.668C66.9356 57.2226 67.8325 56.8502 68.7578 56.5555L68.1508 54.6498ZM67.8511 54.2766V55.0702H69.8511V54.2766H67.8511ZM71.3525 50.0776C69.3205 50.4769 67.8511 52.2086 67.8511 54.2766H69.8511C69.8511 53.1946 70.6142 52.261 71.7381 52.0401L71.3525 50.0776ZM71.675 50.0268L71.3919 50.0707L71.6987 52.047L71.9818 52.0031L71.675 50.0268ZM72.0778 50.0012L71.7786 50.0162L71.8783 52.0137L72.1775 51.9988L72.0778 50.0012ZM75.8723 50H72.1277V52H75.8723V50ZM80.1275 53.8633C79.8733 51.6485 78.064 50 75.8723 50V52C77.016 52 77.9986 52.8544 78.1405 54.0914L80.1275 53.8633ZM80.1477 54.2256L80.1328 53.9274L78.1353 54.0274L78.1502 54.3255L80.1477 54.2256ZM74 83C79.5228 83 84 78.5228 84 73H82C82 77.4183 78.4183 81 74 81V83ZM64 73C64 78.5228 68.4772 83 74 83V81C69.5817 81 66 77.4183 66 73H64ZM74 63C68.4772 63 64 67.4772 64 73H66C66 68.5817 69.5817 65 74 65V63ZM84 73C84 67.4772 79.5228 63 74 63V65C78.4183 65 82 68.5817 82 73H84ZM74 78.6364C77.1129 78.6364 79.6364 76.1129 79.6364 73H77.6364C77.6364 75.0083 76.0083 76.6364 74 76.6364V78.6364ZM68.3636 73C68.3636 76.1129 70.8871 78.6364 74 78.6364V76.6364C71.9917 76.6364 70.3636 75.0083 70.3636 73H68.3636ZM74 67.3636C70.8871 67.3636 68.3636 69.8871 68.3636 73H70.3636C70.3636 70.9917 71.9917 69.3636 74 69.3636V67.3636ZM79.6364 73C79.6364 69.8871 77.1129 67.3636 74 67.3636V69.3636C76.0083 69.3636 77.6364 70.9917 77.6364 73H79.6364ZM64.2634 57.3948C64.7479 57.8783 65.4926 57.9855 66.0937 57.6584L65.1377 55.9017C65.3146 55.8054 65.5337 55.8369 65.6762 55.9792L64.2634 57.3948ZM58.6596 65.0913C58.9856 64.4892 58.8772 63.7444 58.3929 63.2603L56.9789 64.6747C56.8372 64.5331 56.8055 64.3152 56.9009 64.1391L58.6596 65.0913ZM56.072 68.8498C56.7587 68.8488 57.3637 68.3979 57.561 67.7401L55.6453 67.1656C55.7014 66.9784 55.8735 66.8501 56.0689 66.8498L56.072 68.8498ZM57.5613 78.2609C57.3649 77.5997 56.7566 77.1466 56.0669 77.1477L56.07 79.1477C55.8734 79.148 55.7 79.0189 55.6441 78.8304L57.5613 78.2609ZM68.7403 56.5609C69.3994 56.3642 69.8511 55.758 69.8511 55.0702H67.8511C67.8511 54.8738 67.9801 54.7006 68.1683 54.6444L68.7403 56.5609ZM81.9067 57.6586C82.5076 57.9856 83.252 57.8784 83.7362 57.3952L82.3234 55.9796C82.4662 55.8371 82.6857 55.8055 82.8628 55.9019L81.9067 57.6586ZM58.3971 82.7331C58.8796 82.2486 58.9855 81.5042 58.6573 80.9044L56.9027 81.8643C56.8054 81.6863 56.8368 81.4655 56.9799 81.3218L58.3971 82.7331ZM69.8498 90.9256C69.8488 90.2378 69.3956 89.6325 68.736 89.4378L68.1697 91.3559C67.9803 91.3 67.8501 91.1262 67.8498 90.9287L69.8498 90.9256ZM89.6069 63.2592C89.1206 63.7443 89.0128 64.4922 89.3423 65.0949L91.0972 64.1356C91.1941 64.3127 91.1624 64.5325 91.0194 64.6751L89.6069 63.2592ZM79.2651 89.4375C78.602 89.6314 78.1466 90.2399 78.1477 90.9307L80.1477 90.9276C80.148 91.1264 80.017 91.3014 79.8263 91.3572L79.2651 89.4375ZM83.7342 88.6028C83.2486 88.1182 82.5013 88.013 81.9008 88.3447L82.8678 90.0953C82.6888 90.1942 82.4661 90.1628 82.3214 90.0184L83.7342 88.6028ZM78.1489 55.0687C78.1489 55.7574 78.6012 56.3643 79.2611 56.5613L79.8332 54.6449C80.0206 54.7008 80.1489 54.8732 80.1489 55.0687H78.1489ZM91.9307 77.1477C91.2399 77.1466 90.6314 77.602 90.4375 78.2651L92.3572 78.8263C92.3014 79.017 92.1264 79.148 91.9276 79.1477L91.9307 77.1477ZM89.3447 80.9008C89.013 81.5013 89.1182 82.2486 89.6028 82.7342L91.0184 81.3214C91.1628 81.4661 91.1942 81.6888 91.0953 81.8678L89.3447 80.9008ZM90.4378 67.736C90.6325 68.3956 91.2378 68.8488 91.9256 68.8498L91.9287 66.8498C92.1262 66.8501 92.3 66.9803 92.3559 67.1697L90.4378 67.736ZM66.0949 88.3423C65.4922 88.0128 64.7443 88.1206 64.2592 88.6069L65.6751 90.0194C65.5325 90.1624 65.3127 90.1941 65.1356 90.0972L66.0949 88.3423Z"
        fill="#4C5153" mask="url(#path-10-inside-1_1756_115)" />
    <defs>
        <linearGradient id="paint0_linear_1756_115" x1="43" y1="24" x2="43" y2="84" gradientUnits="userSpaceOnUse">
            <stop stop-color="#EE575C" />
            <stop offset="1" stop-color="#F67147" />
        </linearGradient>
        <linearGradient id="paint1_linear_1756_115" x1="43" y1="11" x2="43" y2="33" gradientUnits="userSpaceOnUse">
            <stop stop-color="#EF595C" />
            <stop offset="1" stop-color="#F67049" />
        </linearGradient>
        <linearGradient id="paint2_linear_1756_115" x1="74" y1="51" x2="74" y2="95" gradientUnits="userSpaceOnUse">
            <stop stop-color="#EF595C" />
            <stop offset="1" stop-color="#F67049" />
        </linearGradient>
    </defs>
</svg>
