<?xml version="1.0" encoding="utf-8"?>

<!--
 * Copyright (c) 2023, WSO2 Inc. (http://www.wso2.org) All Rights Reserved.
 *
 * WSO2 Inc. licenses this file to you under the Apache License,
 * Version 2.0 (the "License"); you may not use this file except
 * in compliance with the License.
 * You may obtain a copy of the License at
 *
 *     http://www.apache.org/licenses/LICENSE-2.0
 *
 * Unless required by applicable law or agreed to in writing,
 * software distributed under the License is distributed on an
 * "AS IS" BASIS, WITHOUT WARRANTIES OR CONDITIONS OF ANY
 * KIND, either express or implied. See the License for the
 * specific language governing permissions and limitations
 * under the License.
-->

<svg class="icon" width="100" height="100" viewBox="0 0 100 100" fill="none" xmlns="http://www.w3.org/2000/svg">
    <path d="M18 55.5V79.5C18 81.7091 19.7909 83.5 22 83.5H26.5" stroke="#67777E" />
    <path d="M82 55.5V79.5C82 81.7091 80.2091 83.5 78 83.5H73.5" stroke="#67777E" />
    <path d="M50 33.5V66.5" stroke="#67777E" />
    <rect x="2" y="24" width="32" height="32" rx="16" fill="#67777E" />
    <path
        d="M23.6523 42.3406C22.7962 41.4857 21.7568 40.8371 20.613 40.4439C21.4269 39.8849 22.0407 39.0799 22.3646 38.1466C22.6885 37.2133 22.7055 36.2008 22.4131 35.2572C22.1207 34.3135 21.5343 33.4883 20.7396 32.9022C19.9449 32.3162 18.9836 32 17.9964 32C17.0093 32 16.048 32.3162 15.2533 32.9022C14.4586 33.4883 13.8721 34.3135 13.5797 35.2572C13.2873 36.2008 13.3043 37.2133 13.6282 38.1466C13.9522 39.0799 14.566 39.8849 15.3799 40.4439C13.811 40.9897 12.4505 42.01 11.4866 43.3638C10.6439 44.5474 10.1408 45.9348 10.0255 47.3758C9.99803 47.7196 10.2799 48 10.6248 48C10.9692 48 11.2455 47.7202 11.2772 47.3772C11.4217 45.8136 12.1073 44.3416 13.2259 43.222C14.4921 41.9548 16.2094 41.2429 18 41.2429C19.7906 41.2429 21.5079 41.9548 22.7741 43.222C23.8924 44.3413 24.5779 45.8128 24.7227 47.376C24.7545 47.7196 25.0313 48 25.3764 48C25.721 48 26.0031 47.7206 25.9768 47.377C25.9127 46.5385 25.7159 45.7141 25.3927 44.9349C24.9897 43.9635 24.3982 43.0817 23.6523 42.3406ZM17.9976 39.9958C17.3304 39.9958 16.6782 39.7978 16.1235 39.4268C15.5687 39.0558 15.1363 38.5286 14.881 37.9116C14.6257 37.2947 14.5589 36.6159 14.689 35.961C14.8192 35.3061 15.1405 34.7045 15.6123 34.2323C16.084 33.7602 16.6851 33.4386 17.3395 33.3083C17.9939 33.1781 18.6722 33.2449 19.2886 33.5005C19.905 33.756 20.4318 34.1887 20.8025 34.7439C21.1732 35.2991 21.371 35.9519 21.371 36.6196C21.371 37.063 21.2838 37.502 21.1142 37.9116C20.9447 38.3213 20.6962 38.6934 20.383 39.007C20.0697 39.3205 19.6979 39.5691 19.2886 39.7388C18.8793 39.9085 18.4406 39.9958 17.9976 39.9958Z"
        fill="white" />
    <rect x="34" y="2" width="32" height="32" rx="16" fill="#67777E" />
    <path
        d="M55.6523 20.3406C54.7962 19.4857 53.7568 18.8371 52.613 18.4439C53.4269 17.8849 54.0407 17.0799 54.3646 16.1466C54.6885 15.2133 54.7055 14.2008 54.4131 13.2572C54.1207 12.3135 53.5343 11.4883 52.7396 10.9022C51.9449 10.3162 50.9836 10 49.9964 10C49.0093 10 48.048 10.3162 47.2533 10.9022C46.4586 11.4883 45.8721 12.3135 45.5797 13.2572C45.2873 14.2008 45.3043 15.2133 45.6282 16.1466C45.9522 17.0799 46.566 17.8849 47.3799 18.4439C45.811 18.9897 44.4505 20.01 43.4866 21.3638C42.6439 22.5474 42.1408 23.9348 42.0255 25.3758C41.998 25.7196 42.2799 26 42.6248 26C42.9692 26 43.2455 25.7202 43.2772 25.3772C43.4217 23.8136 44.1073 22.3416 45.2259 21.222C46.4921 19.9548 48.2094 19.2429 50 19.2429C51.7906 19.2429 53.5079 19.9548 54.7741 21.222C55.8924 22.3413 56.5779 23.8128 56.7227 25.376C56.7545 25.7196 57.0313 26 57.3764 26C57.721 26 58.0031 25.7206 57.9768 25.377C57.9127 24.5385 57.7159 23.7141 57.3927 22.9349C56.9897 21.9635 56.3982 21.0817 55.6523 20.3406ZM49.9976 17.9958C49.3304 17.9958 48.6782 17.7978 48.1235 17.4268C47.5687 17.0558 47.1363 16.5286 46.881 15.9116C46.6257 15.2947 46.5589 14.6159 46.689 13.961C46.8192 13.3061 47.1405 12.7045 47.6123 12.2323C48.084 11.7602 48.6851 11.4386 49.3395 11.3083C49.9939 11.1781 50.6722 11.2449 51.2886 11.5005C51.905 11.756 52.4318 12.1887 52.8025 12.7439C53.1732 13.2991 53.371 13.9519 53.371 14.6196C53.371 15.063 53.2838 15.502 53.1142 15.9116C52.9447 16.3213 52.6962 16.6934 52.383 17.007C52.0697 17.3205 51.6979 17.5691 51.2886 17.7388C50.8793 17.9085 50.4406 17.9958 49.9976 17.9958Z"
        fill="white" />
    <rect x="66" y="24" width="32" height="32" rx="16" fill="#67777E" />
    <path
        d="M87.6523 42.3406C86.7962 41.4857 85.7568 40.8371 84.613 40.4439C85.4269 39.8849 86.0407 39.0799 86.3646 38.1466C86.6885 37.2133 86.7055 36.2008 86.4131 35.2572C86.1207 34.3135 85.5343 33.4883 84.7396 32.9022C83.9449 32.3162 82.9836 32 81.9964 32C81.0093 32 80.048 32.3162 79.2533 32.9022C78.4586 33.4883 77.8721 34.3135 77.5797 35.2572C77.2873 36.2008 77.3043 37.2133 77.6282 38.1466C77.9522 39.0799 78.566 39.8849 79.3799 40.4439C77.811 40.9897 76.4505 42.01 75.4866 43.3638C74.6439 44.5474 74.1408 45.9348 74.0255 47.3758C73.998 47.7196 74.2799 48 74.6248 48C74.9692 48 75.2455 47.7202 75.2772 47.3772C75.4217 45.8136 76.1073 44.3416 77.2259 43.222C78.4921 41.9548 80.2094 41.2429 82 41.2429C83.7906 41.2429 85.5079 41.9548 86.7741 43.222C87.8924 44.3413 88.5779 45.8128 88.7227 47.376C88.7545 47.7196 89.0313 48 89.3764 48C89.721 48 90.0031 47.7206 89.9768 47.377C89.9127 46.5385 89.7159 45.7141 89.3927 44.9349C88.9897 43.9635 88.3982 43.0817 87.6523 42.3406ZM81.9976 39.9958C81.3304 39.9958 80.6782 39.7978 80.1235 39.4268C79.5687 39.0558 79.1363 38.5286 78.881 37.9116C78.6257 37.2947 78.5589 36.6159 78.689 35.961C78.8192 35.3061 79.1405 34.7045 79.6123 34.2323C80.084 33.7602 80.6851 33.4386 81.3395 33.3083C81.9939 33.1781 82.6722 33.2449 83.2886 33.5005C83.905 33.756 84.4318 34.1887 84.8025 34.7439C85.1732 35.2991 85.371 35.9519 85.371 36.6196C85.371 37.063 85.2838 37.502 85.1142 37.9116C84.9447 38.3213 84.6962 38.6934 84.383 39.007C84.0697 39.3205 83.6979 39.5691 83.2886 39.7388C82.8793 39.9085 82.4406 39.9958 81.9976 39.9958Z"
        fill="white" />
    <rect x="26" y="66" width="48" height="32" rx="4" fill="#ECECEC" />
    <circle cx="31" cy="71" r="1" fill="#4C5153" />
    <circle cx="35" cy="71" r="1" fill="#4C5153" />
    <circle cx="39" cy="71" r="1" fill="#4C5153" />
    <path
        d="M71 93C71 94.1046 70.1046 95 69 95L31 95C29.8954 95 29 94.1046 29 93L29 78C29 76.8954 29.8954 76 31 76L69 76C70.1046 76 71 76.8954 71 78L71 93Z"
        fill="white" />
</svg>