<?xml version="1.0" encoding="utf-8"?>

<!--
 * Copyright (c) 2023, WSO2 Inc. (http://www.wso2.org) All Rights Reserved.
 *
 * WSO2 Inc. licenses this file to you under the Apache License,
 * Version 2.0 (the "License"); you may not use this file except
 * in compliance with the License.
 * You may obtain a copy of the License at
 *
 *     http://www.apache.org/licenses/LICENSE-2.0
 *
 * Unless required by applicable law or agreed to in writing,
 * software distributed under the License is distributed on an
 * "AS IS" BASIS, WITHOUT WARRANTIES OR CONDITIONS OF ANY
 * KIND, either express or implied. See the License for the
 * specific language governing permissions and limitations
 * under the License.
-->

<svg class="icon" width="100" height="100" viewBox="0 0 100 100" fill="none" xmlns="http://www.w3.org/2000/svg">
    <path d="M17 55.5V79.5C17 81.7091 18.7909 83.5 21 83.5H25.5" stroke="#67777E" />
    <path d="M81 55.5V79.5C81 81.7091 79.2091 83.5 77 83.5H72.5" stroke="#67777E" />
    <path d="M49 33.5V66.5" stroke="#67777E" />
    <rect x="1" y="24" width="32" height="32" rx="16" fill="#F26254" />
    <path
        d="M22.6523 42.3406C21.7962 41.4857 20.7568 40.8371 19.613 40.4439C20.4269 39.8849 21.0407 39.0799 21.3646 38.1466C21.6885 37.2133 21.7055 36.2008 21.4131 35.2572C21.1207 34.3135 20.5343 33.4883 19.7396 32.9022C18.9449 32.3162 17.9836 32 16.9964 32C16.0093 32 15.048 32.3162 14.2533 32.9022C13.4586 33.4883 12.8721 34.3135 12.5797 35.2572C12.2873 36.2008 12.3043 37.2133 12.6282 38.1466C12.9522 39.0799 13.566 39.8849 14.3799 40.4439C12.811 40.9897 11.4505 42.01 10.4866 43.3638C9.64387 44.5474 9.14081 45.9348 9.02553 47.3758C8.99803 47.7196 9.27994 48 9.62483 48C9.96924 48 10.2455 47.7202 10.2772 47.3772C10.4217 45.8136 11.1073 44.3416 12.2259 43.222C13.4921 41.9548 15.2094 41.2429 17 41.2429C18.7906 41.2429 20.5079 41.9548 21.7741 43.222C22.8924 44.3413 23.5779 45.8128 23.7227 47.376C23.7545 47.7196 24.0313 48 24.3764 48C24.721 48 25.0031 47.7206 24.9768 47.377C24.9127 46.5385 24.7159 45.7141 24.3927 44.9349C23.9897 43.9635 23.3982 43.0817 22.6523 42.3406ZM16.9976 39.9958C16.3304 39.9958 15.6782 39.7978 15.1235 39.4268C14.5687 39.0558 14.1363 38.5286 13.881 37.9116C13.6257 37.2947 13.5589 36.6159 13.689 35.961C13.8192 35.3061 14.1405 34.7045 14.6123 34.2323C15.084 33.7602 15.6851 33.4386 16.3395 33.3083C16.9939 33.1781 17.6722 33.2449 18.2886 33.5005C18.905 33.756 19.4318 34.1887 19.8025 34.7439C20.1732 35.2991 20.371 35.9519 20.371 36.6196C20.371 37.063 20.2838 37.502 20.1142 37.9116C19.9447 38.3213 19.6962 38.6934 19.383 39.007C19.0697 39.3205 18.6979 39.5691 18.2886 39.7388C17.8793 39.9085 17.4406 39.9958 16.9976 39.9958Z"
        fill="white" />
    <rect x="33" y="2" width="32" height="32" rx="16" fill="url(#paint0_linear_1913_225)" />
    <path
        d="M54.6523 20.3406C53.7962 19.4857 52.7568 18.8371 51.613 18.4439C52.4269 17.8849 53.0407 17.0799 53.3646 16.1466C53.6885 15.2133 53.7055 14.2008 53.4131 13.2572C53.1207 12.3135 52.5343 11.4883 51.7396 10.9022C50.9449 10.3162 49.9836 10 48.9964 10C48.0093 10 47.048 10.3162 46.2533 10.9022C45.4586 11.4883 44.8721 12.3135 44.5797 13.2572C44.2873 14.2008 44.3043 15.2133 44.6282 16.1466C44.9522 17.0799 45.566 17.8849 46.3799 18.4439C44.811 18.9897 43.4505 20.01 42.4866 21.3638C41.6439 22.5474 41.1408 23.9348 41.0255 25.3758C40.998 25.7196 41.2799 26 41.6248 26C41.9692 26 42.2455 25.7202 42.2772 25.3772C42.4217 23.8136 43.1073 22.3416 44.2259 21.222C45.4921 19.9548 47.2094 19.2429 49 19.2429C50.7906 19.2429 52.5079 19.9548 53.7741 21.222C54.8924 22.3413 55.5779 23.8128 55.7227 25.376C55.7545 25.7196 56.0313 26 56.3764 26C56.721 26 57.0031 25.7206 56.9768 25.377C56.9127 24.5385 56.7159 23.7141 56.3927 22.9349C55.9897 21.9635 55.3982 21.0817 54.6523 20.3406ZM48.9976 17.9958C48.3304 17.9958 47.6782 17.7978 47.1235 17.4268C46.5687 17.0558 46.1363 16.5286 45.881 15.9116C45.6257 15.2947 45.5589 14.6159 45.689 13.961C45.8192 13.3061 46.1405 12.7045 46.6123 12.2323C47.084 11.7602 47.6851 11.4386 48.3395 11.3083C48.9939 11.1781 49.6722 11.2449 50.2886 11.5005C50.905 11.756 51.4318 12.1887 51.8025 12.7439C52.1732 13.2991 52.371 13.9519 52.371 14.6196C52.371 15.063 52.2838 15.502 52.1142 15.9116C51.9447 16.3213 51.6962 16.6934 51.383 17.007C51.0697 17.3205 50.6979 17.5691 50.2886 17.7388C49.8793 17.9085 49.4406 17.9958 48.9976 17.9958Z"
        fill="white" />
    <rect x="65" y="24" width="32" height="32" rx="16" fill="#F26254" />
    <path
        d="M86.6523 42.3406C85.7962 41.4857 84.7568 40.8371 83.613 40.4439C84.4269 39.8849 85.0407 39.0799 85.3646 38.1466C85.6885 37.2133 85.7055 36.2008 85.4131 35.2572C85.1207 34.3135 84.5343 33.4883 83.7396 32.9022C82.9449 32.3162 81.9836 32 80.9964 32C80.0093 32 79.048 32.3162 78.2533 32.9022C77.4586 33.4883 76.8721 34.3135 76.5797 35.2572C76.2873 36.2008 76.3043 37.2133 76.6282 38.1466C76.9522 39.0799 77.566 39.8849 78.3799 40.4439C76.811 40.9897 75.4505 42.01 74.4866 43.3638C73.6439 44.5474 73.1408 45.9348 73.0255 47.3758C72.998 47.7196 73.2799 48 73.6248 48C73.9692 48 74.2455 47.7202 74.2772 47.3772C74.4217 45.8136 75.1073 44.3416 76.2259 43.222C77.4921 41.9548 79.2094 41.2429 81 41.2429C82.7906 41.2429 84.5079 41.9548 85.7741 43.222C86.8924 44.3413 87.5779 45.8128 87.7227 47.376C87.7545 47.7196 88.0313 48 88.3764 48C88.721 48 89.0031 47.7206 88.9768 47.377C88.9127 46.5385 88.7159 45.7141 88.3927 44.9349C87.9897 43.9635 87.3982 43.0817 86.6523 42.3406ZM80.9976 39.9958C80.3304 39.9958 79.6782 39.7978 79.1235 39.4268C78.5687 39.0558 78.1363 38.5286 77.881 37.9116C77.6257 37.2947 77.5589 36.6159 77.689 35.961C77.8192 35.3061 78.1405 34.7045 78.6123 34.2323C79.084 33.7602 79.6851 33.4386 80.3395 33.3083C80.9939 33.1781 81.6722 33.2449 82.2886 33.5005C82.905 33.756 83.4318 34.1887 83.8025 34.7439C84.1732 35.2991 84.371 35.9519 84.371 36.6196C84.371 37.063 84.2838 37.502 84.1142 37.9116C83.9447 38.3213 83.6962 38.6934 83.383 39.007C83.0697 39.3205 82.6979 39.5691 82.2886 39.7388C81.8793 39.9085 81.4406 39.9958 80.9976 39.9958Z"
        fill="white" />
    <rect x="25" y="66" width="48" height="32" rx="4" fill="#ECECEC" />
    <circle cx="30" cy="71" r="1" fill="#4C5153" />
    <circle cx="34" cy="71" r="1" fill="#4C5153" />
    <circle cx="38" cy="71" r="1" fill="#4C5153" />
    <path
        d="M40 79C40 77.8954 40.8954 77 42 77H56C57.1046 77 58 77.8954 58 79V93C58 94.1046 57.1046 95 56 95H42C40.8954 95 40 94.1046 40 93V79Z"
        fill="url(#paint1_linear_1913_225)" />
    <path d="M38 95L30 95C28.8954 95 28 94.1046 28 93L28 79C28 77.8954 28.8954 77 30 77L38 77L38 95Z" fill="white" />
    <path d="M60 77H68C69.1046 77 70 77.8954 70 79V93C70 94.1046 69.1046 95 68 95H60V77Z" fill="white" />
    <defs>
        <linearGradient id="paint0_linear_1913_225" x1="49" y1="2" x2="49" y2="34" gradientUnits="userSpaceOnUse">
            <stop stop-color="#EF595C" />
            <stop offset="1" stop-color="#F67049" />
        </linearGradient>
        <linearGradient id="paint1_linear_1913_225" x1="49" y1="77" x2="49" y2="95" gradientUnits="userSpaceOnUse">
            <stop stop-color="#EE575C" />
            <stop offset="1" stop-color="#F67147" />
        </linearGradient>
    </defs>
</svg>
