<?xml version="1.0" encoding="utf-8"?>

<!--
 * Copyright (c) 2020, WSO2 Inc. (http://www.wso2.org) All Rights Reserved.
 *
 * WSO2 Inc. licenses this file to you under the Apache License,
 * Version 2.0 (the "License"); you may not use this file except
 * in compliance with the License.
 * You may obtain a copy of the License at
 *
 *     http://www.apache.org/licenses/LICENSE-2.0
 *
 * Unless required by applicable law or agreed to in writing,
 * software distributed under the License is distributed on an
 * "AS IS" BASIS, WITHOUT WARRANTIES OR CONDITIONS OF ANY
 * KIND, either express or implied. See the License for the
 * specific language governing permissions and limitations
 * under the License.
-->

<svg id="ldap-illustration" class="icon" xmlns="http://www.w3.org/2000/svg" xmlns:xlink="http://www.w3.org/1999/xlink"
     width="100" height="100" viewBox="0 0 93.953 79.672">
    <g transform="translate(-4220.136 2450.822)">
        <path class="path fill primary" d="M79.977,97.46a18.63,18.63,0,0,0-11.05-11.42A6.765,6.765,0,0,1,64.564,79.8q0-.088,0-.182A18.668,18.668,0,0,0,30.873,68.975a15.234,15.234,0,0,1-12.192,6.319q-.213,0-.427,0A19.021,19.021,0,0,0,0,93.711a18.674,18.674,0,0,0,36.209,6.668,3.821,3.821,0,0,1,4.632-2.336l.072.02a3.811,3.811,0,0,1,2.776,3.973,18.673,18.673,0,1,0,36.286-4.579Z"
              transform="matrix(-0.966, 0.259, -0.259, -0.966, 4329.974, -2332.818)" fill="#ff5000" opacity="0.1" />
        <g transform="translate(64 2)" opacity="0.25">
            <line class="path stroke primary" y2="15" transform="translate(4200 -2420.5)" fill="none" stroke="#ff5000" stroke-width="1"/>
            <line class="path stroke primary" y2="18.867" transform="translate(4177 -2420.5)" fill="none" stroke="#ff5000" stroke-width="1"/>
            <line class="path stroke primary" y2="18.867" transform="translate(4223 -2420.5)" fill="none" stroke="#ff5000" stroke-width="1"/>
            <path class="path stroke primary" d="M4176.5-2401.666l47.017,0" fill="none" stroke="#ff5000" stroke-width="1"/>
            <circle class="path fill stroke primary" id="Ellipse_9" cx="8.133" cy="8.133" r="8.133" transform="translate(4191.846 -2431.761)"
                    fill="#ff5000" stroke="#ff5000" stroke-width="1"/>
            <circle class="path fill stroke primary" cx="8.133" cy="8.133" r="8.133" transform="translate(4168.846 -2431.761)" fill="#ff5000"
                    stroke="#ff5000" stroke-width="1"/>
            <circle class="path fill stroke primary" cx="8.133" cy="8.133" r="8.133" transform="translate(4214.846 -2431.761)" fill="#ff5000"
                    stroke="#ff5000" stroke-width="1"/>
            <g transform="translate(4196.6 -2427.463)">
                <g>
                    <path class="path fill stroke primary" d="M5.763,4.365a3.363,3.363,0,0,0-1.283-.8,1.952,1.952,0,1,0-2.209,0A3.381,3.381,0,0,0,0,6.752H.527a2.85,2.85,0,1,1,5.7,0h.527a3.354,3.354,0,0,0-.991-2.387ZM3.376,3.376A1.424,1.424,0,1,1,4.8,1.952,1.424,1.424,0,0,1,3.376,3.376Z"
                          fill="#ff5000" stroke="#ff5000" stroke-width="0.5"/>
                </g>
            </g>
            <g transform="translate(4173.6 -2427.463)">
                <g>
                    <path class="path fill stroke primary" d="M5.763,4.365a3.363,3.363,0,0,0-1.283-.8,1.952,1.952,0,1,0-2.209,0A3.381,3.381,0,0,0,0,6.752H.527a2.85,2.85,0,1,1,5.7,0h.527a3.354,3.354,0,0,0-.991-2.387ZM3.376,3.376A1.424,1.424,0,1,1,4.8,1.952,1.424,1.424,0,0,1,3.376,3.376Z"
                          fill="#ff5000" stroke="#ff5000" stroke-width="0.5"/>
                </g>
            </g>
            <g transform="translate(4219.6 -2427.463)">
                <g>
                    <path class="path fill stroke primary" d="M5.763,4.365a3.363,3.363,0,0,0-1.283-.8,1.952,1.952,0,1,0-2.209,0A3.381,3.381,0,0,0,0,6.752H.527a2.85,2.85,0,1,1,5.7,0h.527a3.354,3.354,0,0,0-.991-2.387ZM3.376,3.376A1.424,1.424,0,1,1,4.8,1.952,1.424,1.424,0,0,1,3.376,3.376Z"
                          fill="#ff5000" stroke="#ff5000" stroke-width="0.5"/>
                </g>
            </g>
            <g class="path fill stroke primary" transform="translate(4182 -2407)" fill="#ff5000" stroke="#ff5000" stroke-width="1">
                <rect width="36" height="14" rx="2" stroke="none"/>
                <rect x="0.5" y="0.5" width="35" height="13" rx="1.5" fill="none"/>
            </g>
            <circle class="path fill primary" cx="1" cy="1" r="1" transform="translate(4213 -2403)" fill="#ff5000"/>
            <circle class="path fill primary" cx="1" cy="1" r="1" transform="translate(4210 -2403)" fill="#ff5000"/>
            <circle class="path fill primary" cx="1" cy="1" r="1" transform="translate(4207 -2403)" fill="#ff5000"/>
        </g>
        <g transform="translate(67 4)">
            <line class="path stroke primary" y2="15" transform="translate(4200 -2420.5)" fill="none" stroke="#ff5000" stroke-width="1"/>
            <line class="path stroke primary" y2="18.867" transform="translate(4177 -2420.5)" fill="none" stroke="#ff5000" stroke-width="1"/>
            <line class="path stroke primary" y2="18.867" transform="translate(4223 -2420.5)" fill="none" stroke="#ff5000" stroke-width="1"/>
            <path class="path stroke primary" d="M4176.5-2401.666l47.017,0" fill="none" stroke="#ff5000" stroke-width="1"/>
            <circle class="path fill stroke primary" cx="8.133" cy="8.133" r="8.133" transform="translate(4191.846 -2431.761)" fill="#ffa052"
                    stroke="#ff5000" stroke-width="1" style="fill-opacity: 0.7;"/>
            <circle class="path fill stroke primary" cx="8.133" cy="8.133" r="8.133" transform="translate(4168.846 -2431.761)" fill="#fdd250"
                    stroke="#ff5000" stroke-width="1" style="fill-opacity: 0.5;"/>
            <circle class="path fill stroke primary" cx="8.133" cy="8.133" r="8.133" transform="translate(4214.846 -2431.761)" fill="#fdd250"
                    stroke="#ff5000" stroke-width="1" style="fill-opacity: 0.5;"/>
            <g transform="translate(4196.6 -2427.463)">
                <g>
                    <path d="M5.763,4.365a3.363,3.363,0,0,0-1.283-.8,1.952,1.952,0,1,0-2.209,0A3.381,3.381,0,0,0,0,6.752H.527a2.85,2.85,0,1,1,5.7,0h.527a3.354,3.354,0,0,0-.991-2.387ZM3.376,3.376A1.424,1.424,0,1,1,4.8,1.952,1.424,1.424,0,0,1,3.376,3.376Z"
                          fill="#fff" stroke="#fff" stroke-width="0.5"/>
                </g>
            </g>
            <g transform="translate(4173.6 -2427.463)">
                <g>
                    <path d="M5.763,4.365a3.363,3.363,0,0,0-1.283-.8,1.952,1.952,0,1,0-2.209,0A3.381,3.381,0,0,0,0,6.752H.527a2.85,2.85,0,1,1,5.7,0h.527a3.354,3.354,0,0,0-.991-2.387ZM3.376,3.376A1.424,1.424,0,1,1,4.8,1.952,1.424,1.424,0,0,1,3.376,3.376Z"
                          fill="#fff" stroke="#fff" stroke-width="0.5"/>
                </g>
            </g>
            <g transform="translate(4219.6 -2427.463)">
                <g>
                    <path d="M5.763,4.365a3.363,3.363,0,0,0-1.283-.8,1.952,1.952,0,1,0-2.209,0A3.381,3.381,0,0,0,0,6.752H.527a2.85,2.85,0,1,1,5.7,0h.527a3.354,3.354,0,0,0-.991-2.387ZM3.376,3.376A1.424,1.424,0,1,1,4.8,1.952,1.424,1.424,0,0,1,3.376,3.376Z"
                          fill="#fff" stroke="#fff" stroke-width="0.5"/>
                </g>
            </g>
            <g class="path fill stroke primary" transform="translate(4182 -2407)" fill="#ffa052" stroke="#ff5000" stroke-width="1" style="fill-opacity: 0.7;">
                <rect width="36" height="14" rx="2" stroke="none"/>
                <rect x="0.5" y="0.5" width="35" height="13" rx="1.5" fill="none"/>
            </g>
            <circle cx="1" cy="1" r="1" transform="translate(4213 -2403)" fill="#fff"/>
            <circle cx="1" cy="1" r="1" transform="translate(4210 -2403)" fill="#fff"/>
            <circle cx="1" cy="1" r="1" transform="translate(4207 -2403)" fill="#fff"/>
        </g>
        <path class="path fill tertiary" d="M305.934,34.759a.816.816,0,0,0-.577.239l-1.8,1.8a.816.816,0,0,0,0,1.154l1.8,1.8a.816.816,0,0,0,1.154,0l1.8-1.8a.816.816,0,0,0,0-1.155l-1.8-1.8a.817.817,0,0,0-.577-.238Zm-.644,2.615.644-.644.644.644-.644.644Z"
              transform="translate(3984.646 -2420.104)" fill="#696969"/>
        <path class="path fill secondary" d="M368.647,404.443a.816.816,0,0,0-.577.239l-1.8,1.8a.816.816,0,0,0,0,1.154l1.8,1.8a.816.816,0,0,0,1.154,0l1.8-1.8a.816.816,0,0,0,0-1.155l-1.8-1.8a.817.817,0,0,0-.577-.238ZM368,407.058l.644-.644.644.644-.644.644Z"
              transform="translate(3863.171 -2800.14)" fill="#595959"/>
        <path class="path fill primary" d="M93.28,445.2a.816.816,0,0,0-.816.816.984.984,0,0,1-.983.982.816.816,0,1,0,0,1.633.984.984,0,0,1,.983.982.816.816,0,0,0,1.633,0,.984.984,0,0,1,.982-.982.816.816,0,0,0,0-1.633.984.984,0,0,1-.982-.982.816.816,0,0,0-.817-.816Z"
              transform="translate(4166.583 -2891.556)" fill="#ffe783"/>
        <path class="path fill tertiary" d="M136.613,398.806a.816.816,0,0,0-.816.816.984.984,0,0,1-.982.982.816.816,0,1,0,0,1.633.984.984,0,0,1,.982.982.816.816,0,1,0,1.633,0,.984.984,0,0,1,.983-.982.816.816,0,1,0,0-1.633.984.984,0,0,1-.983-.982.816.816,0,0,0-.817-.816Z"
              transform="translate(4130.326 -2837.583)" fill="#494949"/>
    </g>
</svg>
