<?xml version="1.0" encoding="utf-8"?>
<!--
 * Copyright (c) 2023, WSO2 Inc. (http://www.wso2.org) All Rights Reserved.
 *
 * WSO2 Inc. licenses this file to you under the Apache License,
 * Version 2.0 (the "License"); you may not use this file except
 * in compliance with the License.
 * You may obtain a copy of the License at
 *
 *     http://www.apache.org/licenses/LICENSE-2.0
 *
 * Unless required by applicable law or agreed to in writing,
 * software distributed under the License is distributed on an
 * "AS IS" BASIS, WITHOUT WARRANTIES OR CONDITIONS OF ANY
 * KIND, either express or implied. See the License for the
 * specific language governing permissions and limitations
 * under the License.
-->

<svg id="custom-app-illustration" class="icon" width="70" height="66" viewBox="0 0 70 66"
    fill="none" xmlns="http://www.w3.org/2000/svg">
    <path
        d="M4 11C4 8.79086 5.79086 7 8 7H23C25.2091 7 27 8.79086 27 11V39C27 41.2091 25.2091 43 23 43H8C5.79086 43 4 41.2091 4 39V11Z"
        fill="white" />
    <path
        d="M43 27C43 24.7909 44.7909 23 47 23H62C64.2091 23 66 24.7909 66 27V55C66 57.2091 64.2091 59 62 59H47C44.7909 59 43 57.2091 43 55V27Z"
        fill="white" />
    <path
        d="M7 12C7 10.8954 7.89543 10 9 10H22C23.1046 10 24 10.8954 24 12V38C24 39.1046 23.1046 40 22 40H9C7.89543 40 7 39.1046 7 38V12Z"
        fill="url(#paint0_linear_2064_18)" />
    <path d="M11 15H20" stroke="white" stroke-linecap="round" />
    <path d="M11 18H20" stroke="white" stroke-linecap="round" />
    <path d="M11 21H20" stroke="white" stroke-linecap="round" />
    <path d="M11 32H12" stroke="white" stroke-linecap="round" />
    <path
        d="M46 28C46 26.8954 46.8954 26 48 26H61C62.1046 26 63 26.8954 63 28V54C63 55.1046 62.1046 56 61 56H48C46.8954 56 46 55.1046 46 54V28Z"
        fill="#67777E" />
    <path d="M50 30H59" stroke="white" stroke-linecap="round" />
    <path d="M50 37H59" stroke="white" stroke-linecap="round" />
    <path d="M50 40H59" stroke="white" stroke-linecap="round" />
    <path d="M49 52H50" stroke="white" stroke-linecap="round" />
    <path d="M16 43V49C16 50.6569 17.3431 52 19 52H39M39 52L36.3256 49M39 52L36.3256 55"
        stroke="#F66F4A" stroke-width="2" stroke-linecap="round" />
    <path d="M54 23L54 17C54 15.3431 52.6569 14 51 14L31 14M31 14L33.6744 17M31 14L33.6744 11"
        stroke="#67777E" stroke-width="2" stroke-linecap="round" />
    <defs>
        <linearGradient id="paint0_linear_2064_18" x1="15.5" y1="10" x2="15.5" y2="40"
            gradientUnits="userSpaceOnUse">
            <stop stop-color="#EE575C" />
            <stop offset="1" stop-color="#F67147" />
        </linearGradient>
    </defs>
</svg>