<?xml version="1.0" encoding="iso-8859-1"?>

<!--
 * Copyright (c) 2020, WSO2 Inc. (http://www.wso2.org) All Rights Reserved.
 *
 * WSO2 Inc. licenses this file to you under the Apache License,
 * Version 2.0 (the "License"); you may not use this file except
 * in compliance with the License.
 * You may obtain a copy of the License at
 *
 *     http://www.apache.org/licenses/LICENSE-2.0
 *
 * Unless required by applicable law or agreed to in writing,
 * software distributed under the License is distributed on an
 * "AS IS" BASIS, WITHOUT WARRANTIES OR CONDITIONS OF ANY
 * KIND, either express or implied. See the License for the
 * specific language governing permissions and limitations
 * under the License.
-->

<svg id="oidc-mobile-template-illustration" class="icon" xmlns="http://www.w3.org/2000/svg" xmlns:xlink="http://www.w3.org/1999/xlink" width="100" height="100"
     viewBox="0 0 100 100">
    <defs>
        <linearGradient id="linear-gradient" x1="0.404" y1="0.5" x2="1.567" y2="0.5" gradientUnits="objectBoundingBox">
            <stop offset="0" stop-color="#fff0d5"/>
            <stop offset="0.001" stop-color="#fff0d5"/>
            <stop offset="0.511" stop-color="#fff6df"/>
            <stop offset="1" stop-color="#d9ceff"/>
        </linearGradient>
        <clipPath id="clip-OIDC_Mobile">
            <rect width="100" height="100"/>
        </clipPath>
    </defs>
    <g id="OIDC_Mobile" clip-path="url(#clip-OIDC_Mobile)">
        <rect width="100" height="100" fill="#fff"/>
        <g id="mobile" transform="translate(3 -32.503)">
            <path id="Path_128"
                  d="M71.683,93.014h-.108a20.845,20.845,0,0,1-15.633-7.047A31.956,31.956,0,0,0,31.751,75.135c-17.52.077-31.975,14.652-31.748,32A31.965,31.965,0,0,0,45.675,135.2a10.725,10.725,0,0,1,11.048,1.143,24.247,24.247,0,1,0,14.96-43.333Z"
                  transform="translate(0 -26.212)" fill="url(#linear-gradient)"/>
            <path id="Path_129"
                  d="M183.378,45.868v68.156a3.459,3.459,0,0,1-3.545,3.365H139.817a3.459,3.459,0,0,1-3.545-3.365V45.868a3.459,3.459,0,0,1,3.545-3.365h40.017A3.459,3.459,0,0,1,183.378,45.868Z"
                  transform="translate(-111.862)" fill="#ff5000" opacity="0.1"/>
            <path id="Path_130"
                  d="M183.378,66.868v68.156a3.459,3.459,0,0,1-3.545,3.365H139.817a3.459,3.459,0,0,1-3.545-3.365V66.868a3.459,3.459,0,0,1,3.545-3.365h40.017A3.459,3.459,0,0,1,183.378,66.868Z"
                  transform="translate(-111.862 -16.869)" fill="#f5f4f9"/>
            <path id="Path_131"
                  d="M136.272,387.176v11.667a3.545,3.545,0,0,0,3.545,3.545h40.017a3.545,3.545,0,0,0,3.545-3.545V387.176Z"
                  transform="translate(-111.862 -280.868)" fill="#ffd5b8"/>
            <path id="Path_132"
                  d="M206.274,68.387l1.575-4.887H176.614l1.575,4.887a1.7,1.7,0,0,0,1.617,1.187h24.851A1.7,1.7,0,0,0,206.274,68.387Z"
                  transform="translate(-144.268 -16.866)" fill="#ffa052"/>
            <path id="Path_133"
                  d="M175.817,58.5h-4.391a.98.98,0,0,0-.936.648l-1.575,4.645a.714.714,0,0,1-.681.48H143.383a.714.714,0,0,1-.681-.48l-1.16-3.424H166a.936.936,0,1,0,0-1.87H135.8a4.426,4.426,0,0,0-4.528,4.3v52a.985.985,0,0,0,1.967,0v-52A2.5,2.5,0,0,1,135.8,60.37h3.675l1.355,4a2.669,2.669,0,0,0,2.553,1.776h24.851a2.669,2.669,0,0,0,2.553-1.776l1.355-4h3.675a2.5,2.5,0,0,1,2.561,2.434v68.244a2.5,2.5,0,0,1-2.561,2.434H135.8a2.5,2.5,0,0,1-2.561-2.434V119.96a.985.985,0,0,0-1.967,0v11.089a4.426,4.426,0,0,0,4.528,4.3h40.017a4.426,4.426,0,0,0,4.528-4.3V62.8A4.426,4.426,0,0,0,175.817,58.5Z"
                  transform="translate(-107.845 -12.85)" fill="#ff5000"/>
            <path id="Path_134"
                  d="M231.771,319.711H218.714a1.015,1.015,0,0,1,0-2.031h13.056a1.015,1.015,0,0,1,0,2.031Z"
                  transform="translate(-177.279 -223.685)" fill="#fdd250"/>
            <path id="Path_135"
                  d="M242.653,338.854h-6a1.015,1.015,0,0,1,0-2.031h6a1.015,1.015,0,0,1,0,2.031Z"
                  transform="translate(-191.691 -239.246)" fill="#ddd9e4"/>
            <path id="Path_136"
                  d="M242.653,358h-6a1.015,1.015,0,0,1,0-2.031h6a1.015,1.015,0,0,1,0,2.031Z"
                  transform="translate(-191.691 -254.807)" fill="#ddd9e4"/>
            <g id="Group_49" transform="translate(43.551 111.818)">
                <ellipse id="Ellipse_16" cx="1.096" cy="1.108" rx="1.096" ry="1.108"
                         transform="translate(6.632)" fill="#ffa052"/>
                <ellipse id="Ellipse_17" cx="1.096" cy="1.108" rx="1.096" ry="1.108"
                         transform="translate(3.316)" fill="#ffa052"/>
                <ellipse id="Ellipse_18" cx="1.096" cy="1.108" rx="1.096" ry="1.108"
                         fill="#ffa052"/>
            </g>
            <path id="Path_141"
                  d="M400.623,144.767a.984.984,0,0,1-.984-.984,1.188,1.188,0,0,0-1.186-1.187.984.984,0,0,1,0-1.967,1.188,1.188,0,0,0,1.186-1.186.984.984,0,0,1,1.967,0,1.188,1.188,0,0,0,1.186,1.186.984.984,0,0,1,0,1.967,1.188,1.188,0,0,0-1.186,1.187A.984.984,0,0,1,400.623,144.767Z"
                  transform="translate(-323.25 -78.051)" fill="#ffe783"/>
            <path id="Path_142"
                  d="M79.822,311.377a.984.984,0,0,1-.984-.984,1.188,1.188,0,0,0-1.187-1.186.984.984,0,1,1,0-1.967,1.188,1.188,0,0,0,1.187-1.187.984.984,0,0,1,1.967,0,1.188,1.188,0,0,0,1.186,1.187.984.984,0,0,1,0,1.967,1.188,1.188,0,0,0-1.186,1.186A.984.984,0,0,1,79.822,311.377Z"
                  transform="translate(-61.586 -213.572)" fill="#ffa052"/>
            <path id="Path_143"
                  d="M406.461,209.479a.98.98,0,0,1-.7-.288l-2.166-2.166a.983.983,0,0,1,0-1.391l2.166-2.166a.983.983,0,0,1,1.391,0l2.166,2.166a.983.983,0,0,1,0,1.391l-2.166,2.166A.98.98,0,0,1,406.461,209.479Zm-.775-3.149.775.775.775-.775-.775-.775Z"
                  transform="translate(-328.767 -130.695)" fill="#ffa052"/>
            <path id="Path_144"
                  d="M89.1,255.774a.984.984,0,0,1-.984-.984,1.188,1.188,0,0,0-1.186-1.187.984.984,0,1,1,0-1.967,1.188,1.188,0,0,0,1.186-1.186.984.984,0,0,1,1.967,0,1.188,1.188,0,0,0,1.187,1.186.984.984,0,1,1,0,1.967,1.188,1.188,0,0,0-1.187,1.187A.984.984,0,0,1,89.1,255.774Z"
                  transform="translate(-69.899 -168.345)" fill="#ffa052"/>
        </g>
        <g id="oidc-logo" transform="translate(35.959 28.352)">
            <g id="g2202">
                <path id="path2204"
                      d="M-8204.389,9813.5a18.467,18.467,0,0,0-11.184-3.557c-8.764,0-15.859,5.416-15.859,12.1,0,6.115,5.914,11.135,13.574,12v-3.52c-5.162-.8-9.031-4.287-9.031-8.477,0-4.752,5.055-8.641,11.316-8.641a13.227,13.227,0,0,1,7.984,2.523l-2.9,2.229h9.059v-6.914Z"
                      transform="translate(8231.432 -9806.319)" fill="#ccc"/>
                <path id="path2206" d="M-5335.867,8155.858v24.74l2.12-2.9v-24.823Z"
                      transform="translate(5350.734 -8152.877)" fill="#ff6200"/>
            </g>
        </g>
    </g>
</svg>
