<?xml version="1.0" encoding="utf-8"?>

<!--
 * Copyright (c) 2020, WSO2 Inc. (http://www.wso2.org) All Rights Reserved.
 *
 * WSO2 Inc. licenses this file to you under the Apache License,
 * Version 2.0 (the "License"); you may not use this file except
 * in compliance with the License.
 * You may obtain a copy of the License at
 *
 *     http://www.apache.org/licenses/LICENSE-2.0
 *
 * Unless required by applicable law or agreed to in writing,
 * software distributed under the License is distributed on an
 * "AS IS" BASIS, WITHOUT WARRANTIES OR CONDITIONS OF ANY
 * KIND, either express or implied. See the License for the
 * specific language governing permissions and limitations
 * under the License.
-->

<svg version="1.1" id="saml-web-app-template-illustration" class="icon" xmlns="http://www.w3.org/2000/svg" xmlns:xlink="http://www.w3.org/1999/xlink" width="100" height="100" viewBox="-15 -10 100 100">
    <g id="saml-web-app-illustration" transform="translate(-27.528 0)">
        <path id="Path_36" class="path fill primary" d="M77.081,13.971A22.416,22.416,0,1,0,39.587,37.334a17.011,17.011,0,0,1,4.225,11.925q-.029.871-.008,1.754A30.189,30.189,0,0,0,73.592,80.056,29.783,29.783,0,0,0,85.9,23.16,17.2,17.2,0,0,1,77.081,13.971Z" transform="translate(-5.375 0)" fill="#ff5000" opacity="0.1"/>
        <path id="Path_37" class="path fill primary" d="M100.844,89.5H89.618a24.118,24.118,0,0,0,.838-2.712l6.052-1.724a1.2,1.2,0,0,0,.87-1.153V78.066a1.2,1.2,0,0,0-.87-1.153L90.456,75.19a24.123,24.123,0,0,0-2.8-6.761l3.061-5.5a1.2,1.2,0,0,0-.2-1.43l-4.136-4.136a1.2,1.2,0,0,0-1.43-.2l-5.5,3.061a24.123,24.123,0,0,0-6.761-2.8l-1.724-6.052a1.2,1.2,0,0,0-1.153-.87H63.965a1.2,1.2,0,0,0-1.153.87l-1.724,6.052a24.11,24.11,0,0,0-6.3,2.533V52.173a1.567,1.567,0,0,0-1.567-1.567H34.1a1.567,1.567,0,0,0-1.567,1.567v15.21A1.567,1.567,0,0,0,34.1,68.95H45.82a24.111,24.111,0,0,0-2.5,6.24l-6.052,1.724a1.2,1.2,0,0,0-.87,1.153v5.849a1.2,1.2,0,0,0,.87,1.153l6.052,1.724a24.124,24.124,0,0,0,2.8,6.761l-3.061,5.5a1.2,1.2,0,0,0,.2,1.43l4.136,4.136a1.2,1.2,0,0,0,1.43.2l5.5-3.061a24.124,24.124,0,0,0,6.761,2.8l1.724,6.052a1.2,1.2,0,0,0,1.153.87h5.849a1.2,1.2,0,0,0,1.153-.87l1.724-6.052a24.1,24.1,0,0,0,2.77-.861v2.584a1.567,1.567,0,0,0,1.567,1.567h23.817a1.567,1.567,0,0,0,1.567-1.567V91.071a1.567,1.567,0,0,0-1.567-1.567Z" transform="translate(-4.218 -42.605)" fill="#ff5000" opacity="0.1"/>
        <path id="Path_38" class="path fill primary" d="M118.267,104.915V99.066a1.2,1.2,0,0,0-.87-1.153l-6.053-1.724a24.123,24.123,0,0,0-2.8-6.761l3.061-5.5a1.2,1.2,0,0,0-.2-1.43l-4.136-4.136a1.2,1.2,0,0,0-1.43-.2l-5.5,3.061a24.123,24.123,0,0,0-6.761-2.8l-1.724-6.052A1.2,1.2,0,0,0,90.7,71.5H84.852a1.2,1.2,0,0,0-1.153.87l-1.724,6.052a24.123,24.123,0,0,0-6.761,2.8l-5.5-3.061a1.2,1.2,0,0,0-1.43.2L64.149,82.5a1.2,1.2,0,0,0-.2,1.43l3.061,5.5a24.123,24.123,0,0,0-2.8,6.761l-6.052,1.724a1.2,1.2,0,0,0-.87,1.153v5.849a1.2,1.2,0,0,0,.87,1.153l6.052,1.724a24.124,24.124,0,0,0,2.8,6.761l-3.061,5.5a1.2,1.2,0,0,0,.2,1.43l4.136,4.136a1.2,1.2,0,0,0,1.43.2l5.5-3.061a24.124,24.124,0,0,0,6.761,2.8L83.7,131.61a1.2,1.2,0,0,0,1.153.87H90.7a1.2,1.2,0,0,0,1.153-.87l1.724-6.052a24.123,24.123,0,0,0,6.761-2.8l5.5,3.061a1.2,1.2,0,0,0,1.43-.2l4.136-4.136a1.2,1.2,0,0,0,.2-1.43l-3.061-5.5a24.123,24.123,0,0,0,2.8-6.761l6.052-1.724a1.2,1.2,0,0,0,.87-1.153Z" transform="translate(-25.106 -60.321)" fill="#ffa052" opacity="0.8"/>
        <path id="Path_39" class="path fill primary" d="M110.811,116.086v9.735a1.567,1.567,0,0,1-1.567,1.567h-8.567a24.282,24.282,0,0,1,1.468-2.825l-3.062-5.5a1.2,1.2,0,0,1,.2-1.431l4.136-4.136a1.2,1.2,0,0,1,1.431-.2l5.5,3.062c.152-.092.306-.183.461-.272Z" transform="translate(-60.24 -95.454)" fill="#ffc136"/>
        <circle id="Ellipse_1" class="path fill primary" cx="14.698" cy="14.698" r="14.698" transform="translate(47.973 26.972)" fill="#ffd5b8" opacity="0.5"/>
        <circle id="Ellipse_2" cx="12.1" cy="12.1" r="12.1" transform="translate(50.571 29.569)" fill="#f5f4f9"/>
        <path id="Path_40" class="path fill primary" d="M149.363,281.357a19.1,19.1,0,0,1-19.076-19.076.782.782,0,0,1,1.564,0,17.532,17.532,0,0,0,17.512,17.512.782.782,0,1,1,0,1.564Z" transform="translate(-86.692 -220.612)" fill="#ffc136" opacity="0.4"/>
        <path id="Path_41" class="path fill primary" d="M266.363,164.357a.782.782,0,0,1-.782-.782,17.532,17.532,0,0,0-17.512-17.512.782.782,0,1,1,0-1.564,19.1,19.1,0,0,1,19.076,19.076A.782.782,0,0,1,266.363,164.357Z" transform="translate(-185.398 -121.906)" fill="#ffc136" opacity="0.4"/>
        <g id="Group_10" transform="translate(28.31 11.284)">
            <path id="Path_45" d="M53.221,90.513H34.1a1.567,1.567,0,0,1-1.567-1.567V73.735A1.567,1.567,0,0,1,34.1,72.168H53.221a1.567,1.567,0,0,1,1.567,1.567v15.21A1.567,1.567,0,0,1,53.221,90.513Z" transform="translate(-32.528 -72.168)" fill="#f5f4f9"/>
        </g>
        <path id="Path_46" class="path fill primary" d="M136.054,72.168h-5.341V90.513h5.341a1.567,1.567,0,0,0,1.567-1.567V73.735A1.567,1.567,0,0,0,136.054,72.168Z" transform="translate(-87.051 -60.884)" fill="#ffae89" opacity="0.7"/>
        <path id="Path_47" class="path fill primary" d="M54.789,77.288V73.735a1.567,1.567,0,0,0-1.567-1.567H34.1a1.567,1.567,0,0,0-1.567,1.567v3.553Z" transform="translate(-4.218 -60.884)" fill="#ffd1bc" opacity="0.8"/>
        <path id="Path_48" class="path fill primary" d="M64.4,157.634H56.628a.784.784,0,1,1,0-1.567H64.4a.784.784,0,1,1,0,1.567Z" transform="translate(-23.889 -131.664)" fill="#ddd9e4" opacity="0.6"/>
        <path id="Path_49" class="path fill primary" d="M60.17,136.83H56.628a.783.783,0,1,1,0-1.567H60.17a.783.783,0,1,1,0,1.567Z" transform="translate(-23.889 -114.113)" fill="#ddd9e4" opacity="0.5"/>
        <path id="Path_50" d="M332.486,339.29H308.669a1.567,1.567,0,0,1-1.567-1.567v-15.21a1.567,1.567,0,0,1,1.567-1.567h23.817a1.567,1.567,0,0,1,1.567,1.567v15.21A1.567,1.567,0,0,1,332.486,339.29Z" transform="translate(-235.86 -270.762)" fill="#f5f4f9"/>
        <path id="Path_51" class="path fill primary" d="M334.053,326.065v-3.553a1.567,1.567,0,0,0-1.567-1.567H308.669a1.567,1.567,0,0,0-1.567,1.567v3.553Z" transform="translate(-235.86 -270.762)" fill="#fdd250" opacity="0.8"/>
        <path id="Path_52" class="path fill primary" d="M96.626,105.5H86.5c.139-.43.269-.865.384-1.3l5.62-1.6a1.989,1.989,0,0,0,1.438-1.9V94.848a1.989,1.989,0,0,0-1.438-1.9l-5.62-1.6A24.878,24.878,0,0,0,84.339,85.2l2.843-5.106a1.988,1.988,0,0,0-.33-2.363l-4.136-4.136a1.988,1.988,0,0,0-2.364-.33L75.245,76.1A24.88,24.88,0,0,0,69.1,73.559l-1.6-5.62A1.988,1.988,0,0,0,65.6,66.5H59.746a1.989,1.989,0,0,0-1.9,1.438l-1.6,5.62a24.917,24.917,0,0,0-4.889,1.865v-6.47A2.352,2.352,0,0,0,49,66.605H29.877a2.352,2.352,0,0,0-2.349,2.349v3.553a.782.782,0,0,0,.782.782H49.789V84.164A.786.786,0,0,1,49,84.95H29.877a.786.786,0,0,1-.786-.786V76.813a.782.782,0,0,0-1.564,0v7.351a2.352,2.352,0,0,0,2.349,2.349H40.293a24.919,24.919,0,0,0-1.836,4.829l-5.62,1.6a1.988,1.988,0,0,0-1.438,1.9V100.7a1.989,1.989,0,0,0,1.438,1.9l5.62,1.6A24.883,24.883,0,0,0,41,110.347l-2.843,5.107a1.988,1.988,0,0,0,.33,2.363l4.136,4.136a1.988,1.988,0,0,0,2.364.33L50.1,119.44a24.881,24.881,0,0,0,6.145,2.546l1.6,5.62a1.989,1.989,0,0,0,1.9,1.438H65.6a1.989,1.989,0,0,0,1.9-1.438l1.6-5.62c.456-.121.91-.257,1.359-.4v1.48a2.352,2.352,0,0,0,2.349,2.349H96.626a2.352,2.352,0,0,0,2.349-2.349v-15.21a2.352,2.352,0,0,0-2.349-2.349ZM29.092,71.725V68.954a.786.786,0,0,1,.786-.786H49a.786.786,0,0,1,.786.786v2.771Zm39.194,48.855a.782.782,0,0,0-.566.545L66,127.178a.419.419,0,0,1-.4.3H59.747a.418.418,0,0,1-.4-.3l-1.724-6.052a.782.782,0,0,0-.566-.545,23.328,23.328,0,0,1-6.542-2.71.782.782,0,0,0-.786-.015l-5.5,3.061a.418.418,0,0,1-.5-.069L39.6,116.712a.418.418,0,0,1-.069-.5l3.061-5.5a.782.782,0,0,0-.015-.786,23.325,23.325,0,0,1-2.71-6.542.782.782,0,0,0-.545-.566L33.266,101.1a.418.418,0,0,1-.3-.4V94.849a.418.418,0,0,1,.3-.4l6.052-1.724a.782.782,0,0,0,.545-.566,23.359,23.359,0,0,1,2.2-5.644H49a2.352,2.352,0,0,0,2.349-2.349V77.192a23.35,23.35,0,0,1,5.7-2.227.782.782,0,0,0,.566-.545l1.724-6.052a.419.419,0,0,1,.4-.3H65.6a.418.418,0,0,1,.4.3L67.72,74.42a.782.782,0,0,0,.566.545,23.333,23.333,0,0,1,6.542,2.71.781.781,0,0,0,.786.015l5.5-3.061a.418.418,0,0,1,.5.069l4.136,4.136a.418.418,0,0,1,.069.5l-3.061,5.5a.782.782,0,0,0,.015.786,23.326,23.326,0,0,1,2.71,6.542.782.782,0,0,0,.545.566l6.052,1.724a.419.419,0,0,1,.3.4V100.7a.418.418,0,0,1-.3.4l-6.052,1.724a.781.781,0,0,0-.545.566c-.175.712-.387,1.422-.629,2.116H81.658a.782.782,0,1,0,0,1.564H96.626a.786.786,0,0,1,.786.786v2.771H72.023v-2.771a.786.786,0,0,1,.786-.786h4.543a.782.782,0,0,0,0-1.564H72.809a2.352,2.352,0,0,0-2.349,2.349v12.079C69.747,120.182,69.018,120.4,68.286,120.581Zm28.34,3.268H72.809a.786.786,0,0,1-.786-.786V112.187H97.411v10.876A.786.786,0,0,1,96.626,123.849Z" transform="translate(0 -56.103)" fill="#ff5000"/>
        <path id="Path_53" class="path fill primary" d="M333.107,384.827q-.036,0-.072,0a.782.782,0,0,1-.672-.536L331.291,381a.782.782,0,0,1,1.486-.485l.51,1.561.286-.525a.782.782,0,0,1,1.373,0l.286.525.51-1.561a.782.782,0,1,1,1.486.485l-1.073,3.285a.782.782,0,0,1-1.43.131l-.466-.856-.466.856A.782.782,0,0,1,333.107,384.827Z" transform="translate(-256.234 -320.565)" fill="#ff7c41"/>
        <path id="Path_54" class="path fill primary" d="M375.909,384.827q-.036,0-.072,0a.782.782,0,0,1-.672-.536L374.092,381a.782.782,0,1,1,1.486-.485l.51,1.561.286-.525a.782.782,0,0,1,1.374,0l.286.525.51-1.561a.782.782,0,1,1,1.486.485l-1.073,3.285a.782.782,0,0,1-1.43.131l-.466-.856-.466.856A.782.782,0,0,1,375.909,384.827Z" transform="translate(-292.343 -320.565)" fill="#ff7c41"/>
        <path id="Path_55" class="path fill primary" d="M421.015,384.827a.782.782,0,0,1-.686-.408l-.466-.856-.466.856a.782.782,0,0,1-1.43-.131L416.894,381a.782.782,0,0,1,1.486-.485l.51,1.561.286-.525a.782.782,0,0,1,1.373,0l.286.525.51-1.561a.782.782,0,1,1,1.486.485l-1.073,3.285a.782.782,0,0,1-.672.536C421.063,384.826,421.039,384.827,421.015,384.827Z" transform="translate(-328.453 -320.565)" fill="#ff7c41"/>
        <path id="Path_56" class="path fill primary" d="M429.47,173.781a.78.78,0,0,1-.553-.229l-1.719-1.719a.782.782,0,0,1,0-1.106l1.719-1.719a.782.782,0,0,1,1.106,0l1.719,1.719a.782.782,0,0,1,0,1.106l-1.719,1.719A.78.78,0,0,1,429.47,173.781Zm-.613-2.5.613.613.613-.613-.613-.613Z" transform="translate(-336.985 -142.39)" fill="#ffa052"/>
        <path id="Path_57" class="path fill primary" d="M343.792,66.091a.782.782,0,0,1-.782-.782.943.943,0,0,0-.942-.942.782.782,0,1,1,0-1.564.943.943,0,0,0,.942-.942.782.782,0,1,1,1.564,0,.943.943,0,0,0,.942.942.782.782,0,0,1,0,1.564.943.943,0,0,0-.942.942A.782.782,0,0,1,343.792,66.091Z" transform="translate(-264.7 -51.529)" fill="#ffe783" opacity="0.3"/>
        <path id="Path_58" class="path fill primary" d="M49.769,326.306a.782.782,0,0,1-.782-.782.943.943,0,0,0-.942-.942.782.782,0,0,1,0-1.564.943.943,0,0,0,.942-.942.782.782,0,1,1,1.564,0,.943.943,0,0,0,.942.942.782.782,0,0,1,0,1.564.943.943,0,0,0-.942.942A.782.782,0,0,1,49.769,326.306Z" transform="translate(-16.65 -271.058)" fill="#ffb18d" opacity="0.3"/>
        <path id="Path_59" class="path fill primary" d="M42.326,380.017a.782.782,0,0,1-.782-.782.943.943,0,0,0-.942-.942.782.782,0,0,1,0-1.564.943.943,0,0,0,.942-.942.782.782,0,1,1,1.564,0,.943.943,0,0,0,.942.942.782.782,0,0,1,0,1.564.943.943,0,0,0-.942.942A.782.782,0,0,1,42.326,380.017Z" transform="translate(-10.371 -316.37)" fill="#ffe783" opacity="0.3"/>
        <g id="saml-logo" transform="translate(6 -13)">
            <path id="Path_60" d="M60.17,33.655a28.7,28.7,0,0,0-3.745,7.6c-1.135,3.961-1.036,4.476-1.036,4.476s.451.163,3.7-.4a19.6,19.6,0,0,0,5.347-1.675s-5.1,2-6.786-.306S60.17,33.655,60.17,33.655Z" transform="translate(-6 14)" fill="#ed0000"/>
            <path id="Path_61" d="M62.49,33.277s-.748.768-1.85,4.221-.994,4.482-.994,4.482S60.553,37,63.316,36.5s7,6.828,7.02,6.905a22.583,22.583,0,0,0-4.8-7.284C61.922,32.321,62.49,33.277,62.49,33.277Z" transform="translate(-6 14)" fill="#ed0000"/>
            <path id="Path_62" d="M63.538,38.832a28.648,28.648,0,0,1,4.27,4.246,22.318,22.318,0,0,1,1.671,2.554s-.14.29-3.774,1.226a34.328,34.328,0,0,1-8.814.6s9.537-.472,9.646-3.136S63.538,38.832,63.538,38.832Z" transform="translate(-6 14)" fill="#ed0000"/>
        </g>
    </g>
</svg>
