<!--
 * Copyright (c) 2023, WSO2 LLC. (https://www.wso2.com). All Rights Reserved.
 *
 * WSO2 LLC. licenses this file to you under the Apache License,
 * Version 2.0 (the "License"); you may not use this file except
 * in compliance with the License.
 * You may obtain a copy of the License at
 *
 *     http://www.apache.org/licenses/LICENSE-2.0
 *
 * Unless required by applicable law or agreed to in writing,
 * software distributed under the License is distributed on an
 * "AS IS" BASIS, WITHOUT WARRANTIES OR CONDITIONS OF ANY
 * KIND, either express or implied. See the License for the
 * specific language governing permissions and limitations
 * under the License.
-->

<svg id="selfcare-profile" class="icon" width="98" height="98" viewBox="0 0 98 98" fill="none"
    xmlns="http://www.w3.org/2000/svg">
    <g id="user-settings">
        <g id="export-illustration">
            <g id="cogwheel">
                <path id="cogwheel-outer"
                    d="M97.7413 57.64V40.1013C97.7415 39.5124 97.6256 38.9293 97.4004 38.3853C97.1752 37.8412 96.845 37.3469 96.4287 36.9304C96.0124 36.514 95.5181 36.1837 94.9741 35.9583C94.4301 35.7329 93.847 35.6169 93.2582 35.6169H91.8735C90.9813 35.6139 90.1101 35.346 89.3704 34.8472C88.6306 34.3485 88.0556 33.6413 87.7182 32.8153L87.695 32.7598C87.348 31.9366 87.2535 31.0288 87.4235 30.1518C87.5936 29.2747 88.0204 28.468 88.6499 27.8341L89.6294 26.8546C90.0457 26.4383 90.3759 25.9441 90.6012 25.4002C90.8265 24.8563 90.9425 24.2733 90.9425 23.6846C90.9425 23.0959 90.8265 22.5129 90.6012 21.969C90.3759 21.4251 90.0457 20.9309 89.6294 20.5146L77.2254 8.11317C76.8091 7.69687 76.3149 7.36665 75.771 7.14135C75.2271 6.91605 74.6441 6.80009 74.0554 6.80009C73.4667 6.80009 72.8837 6.91605 72.3398 7.14135C71.7959 7.36665 71.3017 7.69687 70.8854 8.11317L69.9059 9.09263C69.272 9.72214 68.4653 10.149 67.5882 10.3191C66.7112 10.4891 65.8034 10.3946 64.9802 10.0476L64.9247 10.0244C64.0987 9.687 63.3915 9.11199 62.8928 8.37222C62.394 7.63245 62.1261 6.76124 62.1231 5.86905V4.48308C62.1231 3.2941 61.6508 2.15381 60.81 1.31306C59.9693 0.472324 58.829 0 57.64 0L40.1 0C38.911 0 37.7707 0.472324 36.93 1.31306C36.0892 2.15381 35.6169 3.2941 35.6169 4.48308V5.86776C35.6144 6.75922 35.3475 7.6299 34.8499 8.36958C34.3523 9.10927 33.6465 9.68471 32.8217 10.0231L32.7663 10.0463C31.943 10.3933 31.0352 10.4878 30.1582 10.3178C29.2812 10.1477 28.4745 9.72085 27.8405 9.09134L26.8611 8.11188C26.4448 7.69558 25.9506 7.36536 25.4067 7.14006C24.8627 6.91476 24.2798 6.7988 23.691 6.7988C23.1023 6.7988 22.5193 6.91476 21.9754 7.14006C21.4315 7.36536 20.9373 7.69558 20.521 8.11188L8.11317 20.5184C7.69687 20.9347 7.36664 21.4289 7.14135 21.9729C6.91605 22.5168 6.80009 23.0997 6.80009 23.6885C6.80009 24.2772 6.91605 24.8602 7.14135 25.4041C7.36664 25.948 7.69687 26.4422 8.11317 26.8585L9.09263 27.838C9.72214 28.4719 10.149 29.2786 10.3191 30.1556C10.4891 31.0327 10.3946 31.9405 10.0476 32.7637L10.0244 32.8192C9.687 33.6451 9.11199 34.3523 8.37222 34.8511C7.63245 35.3499 6.76124 35.6177 5.86905 35.6208H4.48308C3.29409 35.6208 2.15381 36.0931 1.31307 36.9338C0.472324 37.7746 0 38.9149 0 40.1039V57.64C0 58.829 0.472324 59.9693 1.31307 60.81C2.15381 61.6508 3.29409 62.1231 4.48308 62.1231H5.86775C6.75995 62.1261 7.63116 62.394 8.37093 62.8928C9.1107 63.3915 9.68571 64.0987 10.0231 64.9247L10.0463 64.9802C10.3933 65.8034 10.4878 66.7112 10.3178 67.5882C10.1477 68.4653 9.72085 69.272 9.09134 69.9059L8.11188 70.8854C7.69558 71.3017 7.36535 71.7959 7.14006 72.3398C6.91476 72.8837 6.7988 73.4667 6.7988 74.0554C6.7988 74.6441 6.91476 75.2271 7.14006 75.771C7.36535 76.3149 7.69558 76.8091 8.11188 77.2254L20.5146 89.6281C20.9309 90.0444 21.4251 90.3746 21.969 90.5999C22.5129 90.8252 23.0959 90.9412 23.6846 90.9412C24.2733 90.9412 24.8563 90.8252 25.4002 90.5999C25.9441 90.3746 26.4383 90.0444 26.8546 89.6281L27.8341 88.6487C28.468 88.0192 29.2747 87.5923 30.1517 87.4222C31.0288 87.2522 31.9366 87.3467 32.7598 87.6937L32.8153 87.7169C33.6413 88.0543 34.3485 88.6293 34.8472 89.3691C35.346 90.1088 35.6139 90.98 35.6169 91.8722V93.2569C35.6169 94.4459 36.0892 95.5862 36.93 96.4269C37.7707 97.2677 38.911 97.74 40.1 97.74H57.64C58.829 97.74 59.9693 97.2677 60.81 96.4269C61.6508 95.5862 62.1231 94.4459 62.1231 93.2569V91.8735C62.1261 90.9813 62.394 90.1101 62.8928 89.3704C63.3915 88.6306 64.0987 88.0556 64.9247 87.7182L64.9802 87.695C65.8034 87.348 66.7112 87.2535 67.5882 87.4235C68.4653 87.5936 69.272 88.0204 69.9059 88.6499L70.8854 89.6294C71.3017 90.0457 71.7959 90.3759 72.3398 90.6012C72.8837 90.8265 73.4667 90.9425 74.0554 90.9425C74.6441 90.9425 75.2271 90.8265 75.771 90.6012C76.3149 90.3759 76.8091 90.0457 77.2254 89.6294L89.6281 77.2267C90.0444 76.8104 90.3746 76.3162 90.5999 75.7723C90.8252 75.2284 90.9412 74.6454 90.9412 74.0567C90.9412 73.468 90.8252 72.885 90.5999 72.3411C90.3746 71.7972 90.0444 71.303 89.6281 70.8867L88.6487 69.9072C88.0192 69.2733 87.5923 68.4666 87.4222 67.5895C87.2522 66.7125 87.3467 65.8047 87.6937 64.9815L87.7169 64.926C88.0543 64.1 88.6293 63.3928 89.3691 62.8941C90.1088 62.3953 90.98 62.1274 91.8722 62.1244H93.2569C94.4459 62.1244 95.5862 61.6521 96.4269 60.8113C97.2677 59.9706 97.74 58.8303 97.74 57.6413L97.7413 57.64Z"
                    fill="#FF8826" class="fill-primary lighten-1"></path>
                <path id="cogwheel-middle"
                    d="M48.8699 82.8958C67.6611 82.8958 82.8944 67.6625 82.8944 48.8713C82.8944 30.0801 67.6611 14.8468 48.8699 14.8468C30.0787 14.8468 14.8455 30.0801 14.8455 48.8713C14.8455 67.6625 30.0787 82.8958 48.8699 82.8958Z"
                    fill="#FF7300" class="fill-primary"></path>
            </g>
        </g>
        <g id="user-illustration">
            <g id="user-bg">
                <path id="outer-circle"
                    d="M49.0378 73.5566C62.5792 73.5566 73.5567 62.5792 73.5567 49.0378C73.5567 35.4964 62.5792 24.5189 49.0378 24.5189C35.4964 24.5189 24.5189 35.4964 24.5189 49.0378C24.5189 62.5792 35.4964 73.5566 49.0378 73.5566Z"
                    fill="#4CCBD7" class="fill-accent2 lighten-1"></path>
                <path id="inner-circle"
                    d="M48.9191 68.24C59.336 68.24 67.7806 59.7954 67.7806 49.3785C67.7806 38.9616 59.336 30.5171 48.9191 30.5171C38.5022 30.5171 30.0576 38.9616 30.0576 49.3785C30.0576 59.7954 38.5022 68.24 48.9191 68.24Z"
                    fill="#19BECE" class="fill-accent2"></path>
            </g>
            <g id="user">
                <path id="user-body"
                    d="M32.7546 67.4464C32.9603 67.073 33.1796 66.7039 33.4128 66.3391C35.0795 63.7578 37.3676 61.6363 40.0673 60.1692C42.7671 58.7021 45.7919 57.9363 48.8646 57.942C51.9372 57.9478 54.9591 58.725 57.6533 60.2023C60.3475 61.6796 62.6277 63.8097 64.2846 66.3972C64.5204 66.7654 64.7423 67.1405 64.9505 67.5225C60.511 71.4164 54.8049 73.5597 48.8997 73.5516C42.952 73.5618 37.2073 71.3895 32.7546 67.4464Z"
                    fill="white" class="primary-accent3"></path>
                <path id="user-head"
                    d="M48.8301 57.471C54.159 57.471 58.4789 53.1586 58.4789 47.839C58.4789 42.5194 54.159 38.2069 48.8301 38.2069C43.5012 38.2069 39.1813 42.5194 39.1813 47.839C39.1813 53.1586 43.5012 57.471 48.8301 57.471Z"
                    fill="white" class="primary-accent3"></path>
                <path id="user-body-shadow"
                    d="M56.1469 72.4611C55.4405 69.4492 54.0903 66.626 52.1893 64.1855C50.2883 61.7449 47.8814 59.7448 45.134 58.3227C48.4238 57.6524 51.834 57.8911 54.9984 59.0131C56.9073 59.6932 58.6897 60.6862 60.2725 61.9515C61.8445 63.2055 63.1999 64.7091 64.2846 66.4023C64.5194 66.7688 64.744 67.1469 64.9505 67.5276C62.3956 69.7723 59.395 71.4534 56.1469 72.4611Z"
                    fill="#E0E1E2" class="fill-accent3 darken-1"></path>
                <path id="user-head-shadow"
                    d="M48.8299 57.4697C47.4708 57.4727 46.1265 57.1868 44.8862 56.6309C46.2975 56.9494 47.7624 56.9469 49.1726 56.6234C50.5828 56.2999 51.9023 55.6637 53.0337 54.7619C54.165 53.8601 55.0794 52.7156 55.7091 51.4131C56.3389 50.1105 56.6679 48.6831 56.6721 47.2363C56.6695 45.3777 56.1303 43.5594 55.1191 41.9999C54.1079 40.4405 52.6679 39.2062 50.9721 38.4456C53.2842 38.9687 55.3221 40.3262 56.6958 42.2582C58.0694 44.1902 58.6823 46.5609 58.417 48.9166C58.1518 51.2722 57.0271 53.4473 55.2581 55.0254C53.4892 56.6035 51.2004 57.4738 48.8299 57.4697Z"
                    fill="#E0E1E2" class="fill-accent3 darken-1"></path>
            </g>
        </g>
    </g>
</svg>