<!--
 * Copyright (c) 2023, WSO2 LLC. (https://www.wso2.com). All Rights Reserved.
 *
 * WSO2 LLC. licenses this file to you under the Apache License,
 * Version 2.0 (the "License"); you may not use this file except
 * in compliance with the License.
 * You may obtain a copy of the License at
 *
 *     http://www.apache.org/licenses/LICENSE-2.0
 *
 * Unless required by applicable law or agreed to in writing,
 * software distributed under the License is distributed on an
 * "AS IS" BASIS, WITHOUT WARRANTIES OR CONDITIONS OF ANY
 * KIND, either express or implied. See the License for the
 * specific language governing permissions and limitations
 * under the License.
-->

<svg id="selfcare-export-profile" class="icon" width="95" height="82" viewBox="0 0 95 82"
    fill="none" xmlns="http://www.w3.org/2000/svg">
    <g id="export-illustration">
        <g id="export-illustration_2">
            <g id="cogwheel">
                <path id="cogwheel-outer"
                    d="M75.741 44.666V31.075C75.7411 30.6187 75.6514 30.1669 75.4768 29.7453C75.3023 29.3237 75.0464 28.9406 74.7238 28.6179C74.4012 28.2952 74.0182 28.0392 73.5967 27.8645C73.1751 27.6899 72.7233 27.6 72.267 27.6H71.194C70.5026 27.5977 69.8275 27.3901 69.2543 27.0036C68.681 26.6171 68.2354 26.0691 67.974 25.429L67.956 25.386C67.6871 24.7481 67.6139 24.0446 67.7456 23.365C67.8774 22.6854 68.2082 22.0602 68.696 21.569L69.455 20.81C69.7776 20.4874 70.0335 20.1044 70.2081 19.6829C70.3827 19.2615 70.4725 18.8097 70.4725 18.3535C70.4725 17.8973 70.3827 17.4455 70.2081 17.024C70.0335 16.6026 69.7776 16.2196 69.455 15.897L59.843 6.287C59.5204 5.96441 59.1374 5.70851 58.716 5.53392C58.2945 5.35934 57.8427 5.26948 57.3865 5.26948C56.9303 5.26948 56.4785 5.35934 56.0571 5.53392C55.6356 5.70851 55.2526 5.96441 54.93 6.287L54.171 7.046C53.6798 7.53381 53.0546 7.86461 52.375 7.99637C51.6954 8.12813 50.9919 8.0549 50.354 7.786L50.311 7.768C49.6709 7.50658 49.1229 7.061 48.7364 6.48774C48.3499 5.91449 48.1423 5.23938 48.14 4.548V3.474C48.14 2.55264 47.774 1.66901 47.1225 1.01751C46.471 0.36601 45.5874 0 44.666 0L31.074 0C30.1526 0 29.269 0.36601 28.6175 1.01751C27.966 1.66901 27.6 2.55264 27.6 3.474V4.547C27.5981 5.23781 27.3912 5.91251 27.0056 6.4857C26.6201 7.05889 26.0731 7.50481 25.434 7.767L25.391 7.785C24.7531 8.0539 24.0496 8.12713 23.37 7.99537C22.6904 7.86361 22.0652 7.53281 21.574 7.045L20.815 6.286C20.4924 5.96341 20.1094 5.70751 19.688 5.53292C19.2665 5.35834 18.8147 5.26848 18.3585 5.26848C17.9023 5.26848 17.4505 5.35834 17.029 5.53292C16.6076 5.70751 16.2246 5.96341 15.902 6.286L6.287 15.9C5.9644 16.2226 5.70851 16.6056 5.53392 17.0271C5.35934 17.4485 5.26948 17.9003 5.26948 18.3565C5.26948 18.8127 5.35934 19.2645 5.53392 19.6859C5.70851 20.1074 5.9644 20.4904 6.287 20.813L7.046 21.572C7.53381 22.0632 7.86461 22.6884 7.99637 23.368C8.12813 24.0476 8.0549 24.7511 7.786 25.389L7.768 25.432C7.50658 26.0721 7.061 26.6201 6.48774 27.0066C5.91449 27.3931 5.23938 27.6007 4.548 27.603H3.474C2.55264 27.603 1.66901 27.969 1.01751 28.6205C0.36601 29.272 0 30.1556 0 31.077V44.666C0 45.5874 0.36601 46.471 1.01751 47.1225C1.66901 47.774 2.55264 48.14 3.474 48.14H4.547C5.23838 48.1423 5.91349 48.3499 6.48674 48.7364C7.06 49.1229 7.50558 49.6709 7.767 50.311L7.785 50.354C8.0539 50.9919 8.12713 51.6954 7.99537 52.375C7.86361 53.0546 7.53281 53.6798 7.045 54.171L6.286 54.93C5.96341 55.2526 5.70751 55.6356 5.53292 56.057C5.35834 56.4785 5.26848 56.9303 5.26848 57.3865C5.26848 57.8427 5.35834 58.2945 5.53292 58.716C5.70751 59.1374 5.96341 59.5204 6.286 59.843L15.897 69.454C16.2196 69.7766 16.6026 70.0325 17.0241 70.2071C17.4455 70.3817 17.8973 70.4715 18.3535 70.4715C18.8097 70.4715 19.2615 70.3817 19.6829 70.2071C20.1044 70.0325 20.4874 69.7766 20.81 69.454L21.569 68.695C22.0602 68.2072 22.6854 67.8764 23.365 67.7446C24.0446 67.6129 24.7481 67.6861 25.386 67.955L25.429 67.973C26.0691 68.2344 26.6171 68.68 27.0036 69.2533C27.3901 69.8265 27.5977 70.5016 27.6 71.193V72.266C27.6 73.1874 27.966 74.071 28.6175 74.7225C29.269 75.374 30.1526 75.74 31.074 75.74H44.666C45.5874 75.74 46.471 75.374 47.1225 74.7225C47.774 74.071 48.14 73.1874 48.14 72.266V71.194C48.1423 70.5026 48.3499 69.8275 48.7364 69.2543C49.1229 68.681 49.6709 68.2354 50.311 67.974L50.354 67.956C50.9919 67.6871 51.6954 67.6139 52.375 67.7456C53.0546 67.8774 53.6798 68.2082 54.171 68.696L54.93 69.455C55.2526 69.7776 55.6356 70.0335 56.0571 70.2081C56.4785 70.3827 56.9303 70.4725 57.3865 70.4725C57.8427 70.4725 58.2945 70.3827 58.716 70.2081C59.1374 70.0335 59.5204 69.7776 59.843 69.455L69.454 59.844C69.7766 59.5214 70.0325 59.1384 70.2071 58.7169C70.3817 58.2955 70.4715 57.8437 70.4715 57.3875C70.4715 56.9313 70.3817 56.4795 70.2071 56.0581C70.0325 55.6366 69.7766 55.2536 69.454 54.931L68.695 54.172C68.2072 53.6808 67.8764 53.0556 67.7446 52.376C67.6129 51.6964 67.6861 50.9929 67.955 50.355L67.973 50.312C68.2344 49.6719 68.68 49.1239 69.2533 48.7374C69.8265 48.3509 70.5016 48.1433 71.193 48.141H72.266C73.1874 48.141 74.071 47.775 74.7225 47.1235C75.374 46.472 75.74 45.5884 75.74 44.667L75.741 44.666Z"
                    fill="#FF8826" class="fill-primary lighten-1"></path>
                <path id="cogwheel-middle"
                    d="M37.87 64.237C52.4315 64.237 64.236 52.4325 64.236 37.871C64.236 23.3095 52.4315 11.505 37.87 11.505C23.3084 11.505 11.504 23.3095 11.504 37.871C11.504 52.4325 23.3084 64.237 37.87 64.237Z"
                    fill="#FF7300" class="fill-primary"></path>
            </g>
            <g id="arrow">
                <path id="arrow-body"
                    d="M47.671 76.086C48.1342 72.6994 48.3664 69.2852 48.366 65.867V42.473H27.375V65.867C27.3746 69.2852 27.6068 72.6994 28.07 76.086C28.462 78.948 30.41 81.037 32.687 81.037H43.055C45.327 81.037 47.279 78.948 47.671 76.086Z"
                    fill="white" class="fill-accent3"></path>
                <path id="arrow-shadow"
                    d="M27.375 55.027L47.722 74.937C48.1496 72.4498 48.3651 69.9307 48.366 67.407V49.47H27.375V55.027Z"
                    fill="#FFA45A" fill-opacity="0.8" class="fill-primary lighten-2 opacity-60"></path>
                <path id="arrow-head"
                    d="M37.176 20.2C37.2679 20.0663 37.3909 19.9571 37.5345 19.8815C37.678 19.806 37.8378 19.7666 38 19.7666C38.1622 19.7666 38.322 19.806 38.4655 19.8815C38.6091 19.9571 38.7321 20.0663 38.824 20.2L58.924 49.435C59.0268 49.5851 59.0867 49.7605 59.0972 49.9421C59.1078 50.1238 59.0685 50.3049 58.9838 50.4659C58.899 50.6269 58.7719 50.7617 58.6161 50.8558C58.4604 50.95 58.282 50.9998 58.1 51H17.9C17.7177 51 17.5389 50.9503 17.3828 50.8561C17.2268 50.7618 17.0995 50.6268 17.0146 50.4654C16.9298 50.3041 16.8907 50.1226 16.9015 49.9407C16.9123 49.7587 16.9726 49.5831 17.076 49.433L37.176 20.2Z"
                    fill="white" class="fill-accent3"></path>
            </g>
        </g>
        <g id="user-illustration">
            <g id="user-bg">
                <path id="outer-circle"
                    d="M76 81C86.4934 81 95 72.4934 95 62C95 51.5066 86.4934 43 76 43C65.5066 43 57 51.5066 57 62C57 72.4934 65.5066 81 76 81Z"
                    fill="#4CCBD7" class="fill-accent2 lighten-1"></path>
                <path id="inner-circle"
                    d="M75.908 76.8801C83.9802 76.8801 90.524 70.3363 90.524 62.2641C90.524 54.1919 83.9802 47.6481 75.908 47.6481C67.8358 47.6481 61.292 54.1919 61.292 62.2641C61.292 70.3363 67.8358 76.8801 75.908 76.8801Z"
                    fill="#19BECE" class="fill-accent2"></path>
            </g>
            <g id="user">
                <path id="user-body"
                    d="M63.382 76.2651C63.5413 75.9757 63.7113 75.6897 63.892 75.4071C65.1835 73.4068 66.9566 71.7628 69.0487 70.6259C71.1407 69.489 73.4847 68.8956 75.8657 68.9C78.2467 68.9045 80.5885 69.5068 82.6763 70.6515C84.764 71.7963 86.5309 73.4469 87.815 75.4521C87.9976 75.7374 88.1696 76.0281 88.331 76.3241C84.8907 79.3415 80.469 81.0024 75.893 80.9961C71.284 81.004 66.8324 79.3206 63.382 76.2651Z"
                    fill="white" class="primary-accent3"></path>
                <path id="user-head"
                    d="M75.8391 68.5351C79.9685 68.5351 83.3161 65.1933 83.3161 61.0711C83.3161 56.9488 79.9685 53.6071 75.8391 53.6071C71.7096 53.6071 68.3621 56.9488 68.3621 61.0711C68.3621 65.1933 71.7096 68.5351 75.8391 68.5351Z"
                    fill="white" class="primary-accent3"></path>
                <path id="user-body-shadow"
                    d="M81.509 80.151C80.9616 77.8171 79.9153 75.6294 78.4422 73.7382C76.969 71.8469 75.1039 70.2971 72.975 69.195C75.5243 68.6756 78.1669 68.8605 80.619 69.73C82.0982 70.257 83.4794 71.0265 84.706 72.007C85.9241 72.9788 86.9744 74.1439 87.815 75.456C87.997 75.74 88.171 76.033 88.331 76.328C86.3512 78.0675 84.026 79.3701 81.509 80.151Z"
                    fill="#E0E1E2" class="fill-accent3 darken-1"></path>
                <path id="user-head-shadow"
                    d="M75.839 68.534C74.7857 68.5363 73.7441 68.3148 72.783 67.884C73.8766 68.1308 75.0117 68.1289 76.1045 67.8782C77.1973 67.6275 78.2198 67.1346 79.0965 66.4357C79.9732 65.7369 80.6817 64.85 81.1697 63.8406C81.6578 62.8313 81.9128 61.7251 81.916 60.604C81.914 59.1637 81.4961 57.7547 80.7125 56.5463C79.929 55.3378 78.8131 54.3814 77.499 53.792C79.2906 54.1974 80.8699 55.2493 81.9343 56.7464C82.9988 58.2435 83.4737 60.0807 83.2682 61.9061C83.0626 63.7315 82.191 65.417 80.8203 66.6399C79.4495 67.8628 77.6759 68.5372 75.839 68.534Z"
                    fill="#E0E1E2" class="fill-accent3 darken-1"></path>
            </g>
        </g>
    </g>
</svg>