<?xml version="1.0" encoding="iso-8859-1"?>

<!--
 * Copyright (c) 2021, WSO2 Inc. (http://www.wso2.org) All Rights Reserved.
 *
 * WSO2 Inc. licenses this file to you under the Apache License,
 * Version 2.0 (the "License"); you may not use this file except
 * in compliance with the License.
 * You may obtain a copy of the License at
 *
 *     http://www.apache.org/licenses/LICENSE-2.0
 *
 * Unless required by applicable law or agreed to in writing,
 * software distributed under the License is distributed on an
 * "AS IS" BASIS, WITHOUT WARRANTIES OR CONDITIONS OF ANY
 * KIND, either express or implied. See the License for the
 * specific language governing permissions and limitations
 * under the License.
-->

<svg xmlns="http://www.w3.org/2000/svg" class="icon" id="settingIcon" viewBox="0 0 74 74" width="512" height="512">
    <path d="M41.29,72.25H32.71a1,1,0,0,1-.988-.847l-1.1-7.134a27.661,27.661,0,0,1-8.379-3.478L16.4,65.058a1,1,0,0,1-1.3-.1L9.043,58.9a1,1,0,0,1-.1-1.3l4.266-5.837A27.661,27.661,0,0,1,9.73,43.383L2.6,42.278a1,1,0,0,1-.847-.988V32.71a1,1,0,0,1,.847-.988l7.134-1.1a27.661,27.661,0,0,1,3.478-8.379L8.942,16.4a1,1,0,0,1,.1-1.3l6.06-6.06a1,1,0,0,1,1.3-.1l5.837,4.266A27.661,27.661,0,0,1,30.617,9.73l1.1-7.134a1,1,0,0,1,.988-.847h8.58a1,1,0,0,1,.988.847l1.1,7.134a27.661,27.661,0,0,1,8.379,3.478L57.6,8.942a1,1,0,0,1,1.3.1l6.06,6.06a1,1,0,0,1,.1,1.3l-4.266,5.837a27.661,27.661,0,0,1,3.478,8.379l7.134,1.1a1,1,0,0,1,.847.988v8.58a1,1,0,0,1-.847.988l-7.134,1.1a27.661,27.661,0,0,1-3.478,8.379L65.058,57.6a1,1,0,0,1-.1,1.3l-6.06,6.06a1,1,0,0,1-1.3.1l-5.837-4.266a27.661,27.661,0,0,1-8.379,3.478l-1.1,7.134A1,1,0,0,1,41.29,72.25Zm-7.723-2h6.866l1.079-6.963a1,1,0,0,1,.786-.826,25.686,25.686,0,0,0,8.953-3.716,1,1,0,0,1,1.14.028l5.7,4.165,4.849-4.849-4.165-5.7a1,1,0,0,1-.028-1.14A25.686,25.686,0,0,0,62.461,42.3a1,1,0,0,1,.826-.786l6.963-1.079V33.567l-6.963-1.079a1,1,0,0,1-.826-.786,25.686,25.686,0,0,0-3.716-8.953,1,1,0,0,1,.028-1.14l4.165-5.7-4.849-4.849-5.7,4.165a1,1,0,0,1-1.14.028A25.686,25.686,0,0,0,42.3,11.539a1,1,0,0,1-.786-.826L40.433,3.75H33.567l-1.079,6.963a1,1,0,0,1-.786.826,25.686,25.686,0,0,0-8.953,3.716,1,1,0,0,1-1.14-.028l-5.7-4.165-4.849,4.849,4.165,5.7a1,1,0,0,1,.028,1.14A25.686,25.686,0,0,0,11.539,31.7a1,1,0,0,1-.826.786L3.75,33.567v6.866l6.963,1.079a1,1,0,0,1,.826.786,25.686,25.686,0,0,0,3.716,8.953,1,1,0,0,1-.028,1.14l-4.165,5.7,4.849,4.849,5.7-4.165a1,1,0,0,1,1.14-.028A25.686,25.686,0,0,0,31.7,62.461a1,1,0,0,1,.786.826Z"/>
    <path d="M37,57A20,20,0,1,1,57,37,20.023,20.023,0,0,1,37,57Zm0-38A18,18,0,1,0,55,37,18.02,18.02,0,0,0,37,19Z"/>
    <path d="M37,47.375A10.375,10.375,0,1,1,47.375,37,10.387,10.387,0,0,1,37,47.375Zm0-18.75A8.375,8.375,0,1,0,45.375,37,8.384,8.384,0,0,0,37,28.625Z"/>
</svg>
