<?xml version="1.0" encoding="utf-8"?>

<!--
 * Copyright (c) 2020, WSO2 Inc. (http://www.wso2.org) All Rights Reserved.
 *
 * WSO2 Inc. licenses this file to you under the Apache License,
 * Version 2.0 (the "License"); you may not use this file except
 * in compliance with the License.
 * You may obtain a copy of the License at
 *
 *     http://www.apache.org/licenses/LICENSE-2.0
 *
 * Unless required by applicable law or agreed to in writing,
 * software distributed under the License is distributed on an
 * "AS IS" BASIS, WITHOUT WARRANTIES OR CONDITIONS OF ANY
 * KIND, either express or implied. See the License for the
 * specific language governing permissions and limitations
 * under the License.
-->

<svg id="slack-illustration" class="icon" xmlns="http://www.w3.org/2000/svg" width="100" height="100" viewBox="0 0 105.002 104.999">
  <g id="slack" transform="translate(-239.999 -152)">
    <path d="M-11605-2198v-11a11,11,0,0,1,11-11,11,11,0,0,1,11,11,11,11,0,0,1-11,11Zm-28-11v-28a11,11,0,0,1,11-11,11,11,0,0,1,11,11v28a11,11,0,0,1-11,11A11,11,0,0,1-11633-2209Z" transform="translate(11928 2400)" fill="#2db67e"/>
    <path d="M-11633-2340v-11h11a11,11,0,0,1,11,11,11,11,0,0,1-11,11A11,11,0,0,1-11633-2340Zm11-17a11,11,0,0,1-11-11,11,11,0,0,1,11-11h28a11,11,0,0,1,11,11,11,11,0,0,1-11,11Z" transform="translate(11928 2586)" fill="#ebb22f"/>
    <path d="M-11605-2340v-28a11,11,0,0,1,11-11,11,11,0,0,1,11,11v28a11,11,0,0,1-11,11A11,11,0,0,1-11605-2340Zm-28-28a11,11,0,0,1,11-11h11v11a11,11,0,0,1-11,11A11,11,0,0,1-11633-2368Z" transform="translate(11873 2586)" fill="#df1d5a"/>
    <path d="M-11622-2329a11,11,0,0,1-11-11,11,11,0,0,1,11-11h28a11,11,0,0,1,11,11,11,11,0,0,1-11,11Zm28-28a11,11,0,0,1-11-11,11,11,0,0,1,11-11,11,11,0,0,1,11,11v11Z" transform="translate(11873 2531)" fill="#36c4f2"/>
  </g>
</svg>
