<?xml version="1.0" encoding="utf-8"?>

<!--
 * Copyright (c) 2020, WSO2 Inc. (http://www.wso2.org) All Rights Reserved.
 *
 * WSO2 Inc. licenses this file to you under the Apache License,
 * Version 2.0 (the "License"); you may not use this file except
 * in compliance with the License.
 * You may obtain a copy of the License at
 *
 *     http://www.apache.org/licenses/LICENSE-2.0
 *
 * Unless required by applicable law or agreed to in writing,
 * software distributed under the License is distributed on an
 * "AS IS" BASIS, WITHOUT WARRANTIES OR CONDITIONS OF ANY
 * KIND, either express or implied. See the License for the
 * specific language governing permissions and limitations
 * under the License.
-->

<svg id="workday-illustration" class="icon" xmlns="http://www.w3.org/2000/svg" width="100" height="100" viewBox="0 0 80.856 105.149">
  <g id="workday-hcm" transform="translate(-599.856 -343)">
    <path d="M-11563.469-2348.36l-.289-.639a32.409,32.409,0,0,0-29.171-19,32.409,32.409,0,0,0-29.172,19l-.289.639a5.478,5.478,0,0,1-5.112,3.46,5.506,5.506,0,0,1-5.5-5.5,5.462,5.462,0,0,1,.52-2.336,42.9,42.9,0,0,1,9.214-13.669,42.874,42.874,0,0,1,13.669-9.217A42.72,42.72,0,0,1-11593-2379h.134a42.716,42.716,0,0,1,16.6,3.377,42.864,42.864,0,0,1,13.669,9.217,42.9,42.9,0,0,1,9.214,13.669,5.462,5.462,0,0,1,.52,2.336,5.506,5.506,0,0,1-5.5,5.5A5.478,5.478,0,0,1-11563.469-2348.36Z" transform="translate(12232.858 2722)" fill="#f08906"/>
    <g transform="translate(12233.282 2772.852)" fill="#005dbc">
      <path d="M-11606.4-2324.755h-10.718a2.026,2.026,0,0,1-.453.052,2,2,0,0,1-1.947-1.553l-13.438-50.374a2.029,2.029,0,0,1,1.655-2.318h6.855a1.979,1.979,0,0,1,.449-.053,2,2,0,0,1,1.95,1.553l8.546,37.537s.411,1.982.969,5.013c.289,1.565.616,3.41.864,4.829.389-2.178,1.028-5.743,1.186-6.6.236-1.255,1.268-6.522,1.268-6.522l8.694-34.258a2.132,2.132,0,0,1,2.414-1.55h10.662a1.9,1.9,0,0,1,.447,0,2,2,0,0,1,1.947,1.55l8.7,34.258s1.03,5.267,1.264,6.522c.161.858.8,4.417,1.188,6.6.251-1.419.575-3.261.864-4.826.558-3.031.967-5.01.967-5.01l8.548-37.54c.015-.067.032-.128.053-.193a2,2,0,0,1,1.81-1.358h.091a2.108,2.108,0,0,1,.444.05h6.854a2.1,2.1,0,0,1,1.7,1.944,1.667,1.667,0,0,1-.044.374l-13.436,50.374c-.018.064-.032.125-.053.187,0,0,0,0,0,.006a2,2,0,0,1-2.344,1.308h-10.718a2,2,0,0,1-2.4-1.5l-9.316-38.506s-.625-2.333-1.077-4.452-.732-4.025-.732-4.025-.387,2.321-.825,4.354-.929,3.777-.929,3.777l-9.557,38.852a2,2,0,0,1-1.944,1.553A2,2,0,0,1-11606.4-2324.755Z" stroke="none"/>
      <path d="M -11605.947265625 -2325.102783203125 C -11605.2119140625 -2325.102783203125 -11604.55859375 -2325.62548828125 -11604.392578125 -2326.345703125 L -11604.3916015625 -2326.3486328125 L -11604.3916015625 -2326.3515625 L -11594.8349609375 -2365.20361328125 L -11594.8330078125 -2365.2099609375 L -11594.8310546875 -2365.21630859375 C -11594.826171875 -2365.233642578125 -11594.3388671875 -2366.973388671875 -11593.908203125 -2368.969482421875 C -11593.4775390625 -2370.96923828125 -11593.0908203125 -2373.281494140625 -11593.0869140625 -2373.304443359375 L -11592.296875 -2373.296875 C -11592.2939453125 -2373.278076171875 -11592.0126953125 -2371.37939453125 -11591.568359375 -2369.296875 C -11591.1240234375 -2367.212646484375 -11590.5029296875 -2364.888427734375 -11590.49609375 -2364.865234375 L -11590.4951171875 -2364.860595703125 L -11590.494140625 -2364.855712890625 L -11581.1767578125 -2326.345947265625 C -11581.0078125 -2325.614501953125 -11580.3671875 -2325.103759765625 -11579.6171875 -2325.103759765625 C -11579.49609375 -2325.103759765625 -11579.375 -2325.11767578125 -11579.255859375 -2325.145263671875 L -11579.2119140625 -2325.1552734375 L -11579.166015625 -2325.1552734375 L -11573.283203125 -2325.1552734375 L -11568.4482421875 -2325.1552734375 L -11568.40234375 -2325.1552734375 L -11568.3583984375 -2325.14501953125 C -11568.2392578125 -2325.117431640625 -11568.1171875 -2325.103515625 -11567.9970703125 -2325.103515625 C -11567.3154296875 -2325.103515625 -11566.7119140625 -2325.533935546875 -11566.48828125 -2326.17578125 C -11566.484375 -2326.1904296875 -11566.4794921875 -2326.205078125 -11566.4736328125 -2326.21923828125 C -11566.4658203125 -2326.24560546875 -11566.4580078125 -2326.274658203125 -11566.44921875 -2326.306884765625 L -11566.435546875 -2326.359130859375 L -11553.001953125 -2376.7255859375 C -11552.9794921875 -2376.822998046875 -11552.9697265625 -2376.9140625 -11552.9697265625 -2377.006103515625 C -11552.96484375 -2377.6923828125 -11553.541015625 -2378.34814453125 -11554.31640625 -2378.548095703125 L -11561.123046875 -2378.548095703125 L -11561.166015625 -2378.548095703125 L -11561.20703125 -2378.556884765625 C -11561.3330078125 -2378.583984375 -11561.4541015625 -2378.597900390625 -11561.5673828125 -2378.597900390625 L -11561.5732421875 -2378.597900390625 L -11561.6494140625 -2378.597900390625 C -11562.2998046875 -2378.56640625 -11562.876953125 -2378.13232421875 -11563.087890625 -2377.514892578125 C -11563.1064453125 -2377.455078125 -11563.119140625 -2377.4091796875 -11563.130859375 -2377.358642578125 L -11571.677734375 -2339.822998046875 C -11571.6982421875 -2339.720703125 -11572.103515625 -2337.751708984375 -11572.6416015625 -2334.8251953125 C -11572.900390625 -2333.42333984375 -11573.19140625 -2331.777099609375 -11573.42578125 -2330.4541015625 L -11573.505859375 -2330.002197265625 L -11574.29296875 -2330.00146484375 C -11574.677734375 -2332.156494140625 -11575.3212890625 -2335.741943359375 -11575.4814453125 -2336.59423828125 C -11575.7060546875 -2337.805908203125 -11576.689453125 -2342.83154296875 -11576.7421875 -2343.101806640625 L -11585.4365234375 -2377.34912109375 L -11585.4375 -2377.353271484375 L -11585.4384765625 -2377.357421875 C -11585.607421875 -2378.087646484375 -11586.248046875 -2378.597900390625 -11586.99609375 -2378.597900390625 C -11587.0615234375 -2378.597900390625 -11587.123046875 -2378.6025390625 -11587.1767578125 -2378.60693359375 C -11587.21875 -2378.6103515625 -11587.2587890625 -2378.613525390625 -11587.29296875 -2378.613525390625 C -11587.318359375 -2378.613525390625 -11587.337890625 -2378.611572265625 -11587.353515625 -2378.608154296875 L -11587.3974609375 -2378.597900390625 L -11587.443359375 -2378.597900390625 L -11593.2568359375 -2378.597900390625 L -11598.10546875 -2378.597900390625 L -11598.12109375 -2378.597900390625 L -11598.1376953125 -2378.59912109375 C -11598.208984375 -2378.604736328125 -11598.2802734375 -2378.607666015625 -11598.3505859375 -2378.607666015625 C -11599.2705078125 -2378.607666015625 -11599.9521484375 -2378.128662109375 -11600.1298828125 -2377.357666015625 L -11600.130859375 -2377.353515625 L -11600.1318359375 -2377.34912109375 L -11608.8232421875 -2343.1015625 C -11608.8759765625 -2342.83154296875 -11609.8603515625 -2337.8056640625 -11610.087890625 -2336.594970703125 C -11610.23828125 -2335.778564453125 -11610.865234375 -2332.28564453125 -11611.2734375 -2329.998779296875 L -11612.060546875 -2330.000244140625 C -11612.244140625 -2331.046630859375 -11612.599609375 -2333.06494140625 -11612.9248046875 -2334.825439453125 C -11613.462890625 -2337.7529296875 -11613.8701171875 -2339.72509765625 -11613.890625 -2339.82568359375 L -11622.435546875 -2377.35791015625 C -11622.6044921875 -2378.089599609375 -11623.24609375 -2378.600830078125 -11623.99609375 -2378.600830078125 C -11624.11328125 -2378.600830078125 -11624.2333984375 -2378.58642578125 -11624.3544921875 -2378.558349609375 L -11624.3994140625 -2378.548095703125 L -11624.4453125 -2378.548095703125 L -11631.251953125 -2378.548095703125 C -11632.0458984375 -2378.342529296875 -11632.7646484375 -2377.599853515625 -11632.5673828125 -2376.72607421875 L -11619.130859375 -2326.359130859375 L -11619.12890625 -2326.3525390625 L -11619.1279296875 -2326.345703125 C -11618.9619140625 -2325.62548828125 -11618.306640625 -2325.102783203125 -11617.5703125 -2325.102783203125 C -11617.451171875 -2325.102783203125 -11617.3291015625 -2325.1171875 -11617.2060546875 -2325.145263671875 L -11617.162109375 -2325.1552734375 L -11617.1171875 -2325.1552734375 L -11612.2822265625 -2325.1552734375 L -11606.3994140625 -2325.1552734375 L -11606.353515625 -2325.1552734375 L -11606.3095703125 -2325.14501953125 C -11606.1865234375 -2325.11669921875 -11606.0673828125 -2325.102783203125 -11605.947265625 -2325.102783203125 M -11605.947265625 -2324.702880859375 C -11606.0986328125 -2324.702880859375 -11606.248046875 -2324.720458984375 -11606.3994140625 -2324.75537109375 L -11612.2822265625 -2324.75537109375 L -11612.28515625 -2324.75537109375 L -11617.1171875 -2324.75537109375 C -11617.26953125 -2324.720458984375 -11617.4208984375 -2324.702880859375 -11617.5703125 -2324.702880859375 C -11618.48046875 -2324.702880859375 -11619.3046875 -2325.33056640625 -11619.517578125 -2326.256103515625 L -11632.9560546875 -2376.6298828125 C -11633.2041015625 -2377.707275390625 -11632.375 -2378.697021484375 -11631.30078125 -2378.947998046875 L -11631.2978515625 -2378.947998046875 L -11624.4453125 -2378.947998046875 C -11624.2939453125 -2378.983154296875 -11624.14453125 -2379.000732421875 -11623.99609375 -2379.000732421875 C -11623.08203125 -2379.000732421875 -11622.2587890625 -2378.372802734375 -11622.0458984375 -2377.447509765625 L -11613.5 -2339.910888671875 C -11613.5 -2339.910888671875 -11613.0888671875 -2337.928466796875 -11612.53125 -2334.89794921875 C -11612.2421875 -2333.3330078125 -11611.9150390625 -2331.48779296875 -11611.6669921875 -2330.069091796875 C -11611.2783203125 -2332.2470703125 -11610.638671875 -2335.811767578125 -11610.4814453125 -2336.667236328125 C -11610.2451171875 -2337.922607421875 -11609.2138671875 -2343.189453125 -11609.2138671875 -2343.189453125 L -11600.51953125 -2377.447509765625 C -11600.2890625 -2378.4482421875 -11599.4052734375 -2379.007568359375 -11598.3505859375 -2379.007568359375 C -11598.26953125 -2379.007568359375 -11598.1875 -2379.00439453125 -11598.10546875 -2378.997802734375 L -11593.2568359375 -2378.997802734375 L -11587.443359375 -2378.997802734375 C -11587.392578125 -2379.009521484375 -11587.3427734375 -2379.013427734375 -11587.29296875 -2379.013427734375 C -11587.193359375 -2379.013427734375 -11587.095703125 -2378.997802734375 -11586.99609375 -2378.997802734375 C -11586.0859375 -2378.997802734375 -11585.2626953125 -2378.372802734375 -11585.048828125 -2377.447509765625 L -11576.3515625 -2343.189453125 C -11576.3515625 -2343.189453125 -11575.3212890625 -2337.922607421875 -11575.087890625 -2336.667236328125 C -11574.9267578125 -2335.808837890625 -11574.2880859375 -2332.25 -11573.8994140625 -2330.07177734375 C -11573.6484375 -2331.49072265625 -11573.32421875 -2333.3330078125 -11573.03515625 -2334.89794921875 C -11572.4775390625 -2337.928466796875 -11572.068359375 -2339.907958984375 -11572.068359375 -2339.907958984375 L -11563.5205078125 -2377.447509765625 C -11563.505859375 -2377.5146484375 -11563.48828125 -2377.575927734375 -11563.4677734375 -2377.64013671875 C -11563.19921875 -2378.431396484375 -11562.47265625 -2378.962646484375 -11561.658203125 -2378.997802734375 C -11561.6318359375 -2378.997802734375 -11561.6025390625 -2378.997802734375 -11561.5732421875 -2378.997802734375 C -11561.5703125 -2378.997802734375 -11561.5703125 -2378.997802734375 -11561.5673828125 -2378.997802734375 C -11561.4208984375 -2378.997802734375 -11561.2724609375 -2378.980224609375 -11561.123046875 -2378.947998046875 L -11554.2685546875 -2378.947998046875 C -11553.3193359375 -2378.72607421875 -11552.5634765625 -2377.92919921875 -11552.5693359375 -2377.003662109375 C -11552.5693359375 -2376.881103515625 -11552.583984375 -2376.75830078125 -11552.61328125 -2376.6298828125 L -11566.048828125 -2326.256103515625 C -11566.06640625 -2326.19189453125 -11566.0810546875 -2326.130615234375 -11566.1015625 -2326.069091796875 C -11566.1044921875 -2326.066162109375 -11566.1044921875 -2326.066162109375 -11566.1044921875 -2326.063232421875 C -11566.3798828125 -2325.244140625 -11567.1513671875 -2324.70361328125 -11567.9970703125 -2324.70361328125 C -11568.1455078125 -2324.70361328125 -11568.296875 -2324.720458984375 -11568.4482421875 -2324.75537109375 L -11573.283203125 -2324.75537109375 C -11573.2861328125 -2324.75537109375 -11573.2861328125 -2324.75537109375 -11573.2861328125 -2324.75537109375 L -11579.166015625 -2324.75537109375 C -11579.3173828125 -2324.720458984375 -11579.46875 -2324.703857421875 -11579.6171875 -2324.703857421875 C -11580.5283203125 -2324.703857421875 -11581.353515625 -2325.329833984375 -11581.56640625 -2326.256103515625 L -11590.8828125 -2364.76171875 C -11590.8828125 -2364.76171875 -11591.5078125 -2367.09423828125 -11591.9599609375 -2369.21337890625 C -11592.412109375 -2371.33251953125 -11592.6923828125 -2373.23876953125 -11592.6923828125 -2373.23876953125 C -11592.6923828125 -2373.23876953125 -11593.0791015625 -2370.91796875 -11593.517578125 -2368.88525390625 C -11593.9560546875 -2366.8525390625 -11594.4462890625 -2365.108154296875 -11594.4462890625 -2365.108154296875 L -11604.0029296875 -2326.256103515625 C -11604.2158203125 -2325.33056640625 -11605.0390625 -2324.702880859375 -11605.947265625 -2324.702880859375 Z" stroke="none" fill="rgba(16,74,124,0.65)"/>
    </g>
  </g>
</svg>
