<?xml version="1.0" encoding="utf-8"?>

<!--
 * Copyright (c) 2020, WSO2 Inc. (http://www.wso2.org) All Rights Reserved.
 *
 * WSO2 Inc. licenses this file to you under the Apache License,
 * Version 2.0 (the "License"); you may not use this file except
 * in compliance with the License.
 * You may obtain a copy of the License at
 *
 *     http://www.apache.org/licenses/LICENSE-2.0
 *
 * Unless required by applicable law or agreed to in writing,
 * software distributed under the License is distributed on an
 * "AS IS" BASIS, WITHOUT WARRANTIES OR CONDITIONS OF ANY
 * KIND, either express or implied. See the License for the
 * specific language governing permissions and limitations
 * under the License.
-->

<svg id="workday-illustration" class="icon" xmlns="http://www.w3.org/2000/svg" width="80" height="80" viewBox="0 0 80 80">
  <g id="workday-hcm" transform="translate(-587.826 -339)">
    <rect id="Rectangle_3" data-name="Rectangle 3" width="80" height="80" transform="translate(587.826 339)" fill="#fff" opacity="0"/>
    <path id="Path_7" data-name="Path 7" d="M-11587.751-2359.046l-.187-.416a21.109,21.109,0,0,0-19-12.374,21.107,21.107,0,0,0-19,12.374l-.187.416a3.569,3.569,0,0,1-3.329,2.253,3.584,3.584,0,0,1-3.58-3.582,3.575,3.575,0,0,1,.337-1.521,27.919,27.919,0,0,1,6-8.9,27.917,27.917,0,0,1,8.9-6,27.829,27.829,0,0,1,10.829-2.2h.087a27.823,27.823,0,0,1,10.812,2.2,27.9,27.9,0,0,1,8.9,6,27.928,27.928,0,0,1,6,8.9,3.53,3.53,0,0,1,.341,1.521,3.585,3.585,0,0,1-3.584,3.582,3.567,3.567,0,0,1-3.346-2.253Z" transform="translate(12234.857 2723.183)" fill="#f08906"/>
    <g id="Group_1" data-name="Group 1" transform="translate(602.103 377.283)">
      <path id="Path_8" data-name="Path 8" d="M-11615.671-2343.679h-6.98a1.31,1.31,0,0,1-.3.034,1.3,1.3,0,0,1-1.269-1.011l-8.75-32.8a1.321,1.321,0,0,1,1.079-1.51h4.463a1.271,1.271,0,0,1,.293-.034,1.3,1.3,0,0,1,1.27,1.011l5.566,24.445s.268,1.291.631,3.265c.188,1.019.4,2.221.563,3.145.253-1.418.67-3.74.771-4.3.154-.817.825-4.247.825-4.247l5.663-22.31a1.387,1.387,0,0,1,1.571-1.009h6.944a1.226,1.226,0,0,1,.29,0,1.3,1.3,0,0,1,1.269,1.009l5.667,22.31s.67,3.43.822,4.247c.1.559.521,2.877.773,4.3.164-.924.375-2.124.563-3.143.363-1.974.629-3.262.629-3.262l5.567-24.447c.01-.044.021-.083.034-.126a1.3,1.3,0,0,1,1.178-.884h.061a1.334,1.334,0,0,1,.289.032h4.463a1.368,1.368,0,0,1,1.108,1.266.975.975,0,0,1-.027.244l-8.752,32.8c-.012.042-.021.082-.034.122h0a1.3,1.3,0,0,1-1.525.853h-6.979a1.3,1.3,0,0,1-.984-.164,1.3,1.3,0,0,1-.579-.812l-6.067-25.076s-.407-1.519-.7-2.9-.478-2.621-.478-2.621-.252,1.511-.537,2.835-.605,2.46-.605,2.46l-6.223,25.3a1.3,1.3,0,0,1-1.267,1.011,1.313,1.313,0,0,1-.3-.036Z" transform="translate(11633.014 2379.024)" fill="#005dbc"/>
      <path id="Path_9" data-name="Path 9" d="M-11615.362-2343.9a1.052,1.052,0,0,0,.977-.814h0l6.253-25.3v-.013c0-.007.324-1.14.585-2.442s.521-2.807.521-2.82h.521c0,.013.2,1.25.455,2.6.326,1.361.717,2.872.717,2.885v.006h0l6.057,25.079a1.054,1.054,0,0,0,1.041.814.66.66,0,0,0,.2-.032l.066-.007h7.033v.007a2.044,2.044,0,0,0,.261.032,1,1,0,0,0,.976-.7v-.026c0-.02,0-.032.064-.059v-.033l8.728-32.8v-.182a1.068,1.068,0,0,0-.847-1h-4.494v-.007a1.754,1.754,0,0,0-.26-.026h0a1.065,1.065,0,0,0-.978.71v.1l-5.6,24.448c0,.065-.261,1.348-.587,3.25-.2.918-.391,1.986-.521,2.853l-.064.293h-.52c-.262-1.406-.653-3.738-.782-4.292-.131-.794-.781-4.064-.781-4.24l-5.667-22.3h0v-.007a1.055,1.055,0,0,0-1.041-.807.878.878,0,0,1-.131-.007h-.129v.007h-6.969c-.066,0-.131-.007-.2-.007a1.015,1.015,0,0,0-1.107.814v.007h0l-5.665,22.3c-.066.176-.718,3.445-.847,4.24-.066.528-.521,2.8-.781,4.292h-.521c-.064-.684-.325-1.993-.521-3.146-.392-1.9-.651-3.191-.651-3.256l-5.536-24.441a1.054,1.054,0,0,0-1.041-.807,1.722,1.722,0,0,0-.26.026v.007h-4.494a1.109,1.109,0,0,0-.847,1.186l8.791,32.8v.006h0a1,1,0,0,0,.978.814,1.175,1.175,0,0,0,.26-.032v-.007h7.034l.065.007a.8.8,0,0,0,.26.032m0,.26a1.406,1.406,0,0,1-.326-.039h-6.967a1.393,1.393,0,0,1-.326.039,1.27,1.27,0,0,1-1.237-1.016l-8.791-32.8a1.353,1.353,0,0,1,1.107-1.511h4.493a1.189,1.189,0,0,1,.26-.032,1.4,1.4,0,0,1,1.3,1.01l5.535,24.447s.262,1.29.652,3.263c.2,1.022.392,2.221.521,3.145.262-1.42.717-3.738.781-4.3.2-.814.847-4.246.847-4.246l5.666-22.311a1.316,1.316,0,0,1,1.368-1.016c.064,0,.129.007.2.007h6.969c0-.007.064-.007.064-.007.064,0,.131.007.2.007a1.4,1.4,0,0,1,1.3,1.01l5.6,22.311s.715,3.432.846,4.246c.131.56.522,2.878.782,4.3.2-.925.391-2.123.586-3.145.326-1.973.586-3.263.586-3.263l5.6-24.447v-.124a1.335,1.335,0,0,1,1.173-.886h.064a1.874,1.874,0,0,1,.326.032h4.428a1.34,1.34,0,0,1,1.108,1.27v.241l-8.728,32.8a.125.125,0,0,0-.063.123v.007a1.358,1.358,0,0,1-1.239.886.9.9,0,0,1-.259-.039h-7.033a.9.9,0,0,1-.262.039,1.34,1.34,0,0,1-1.3-1.016l-6.057-25.073s-.392-1.517-.716-2.9c-.262-1.381-.457-2.625-.457-2.625s-.26,1.511-.52,2.833c-.327,1.328-.587,2.461-.587,2.461l-6.251,25.3a1.273,1.273,0,0,1-1.242,1.011Z" transform="translate(11633.03 2379.019)" fill="rgba(16,74,124,0.65)"/>
    </g>
  </g>
</svg>
