<?xml version="1.0" encoding="utf-8"?>

<!--
 * Copyright (c) 2020, WSO2 Inc. (http://www.wso2.org) All Rights Reserved.
 *
 * WSO2 Inc. licenses this file to you under the Apache License,
 * Version 2.0 (the "License"); you may not use this file except
 * in compliance with the License.
 * You may obtain a copy of the License at
 *
 *     http://www.apache.org/licenses/LICENSE-2.0
 *
 * Unless required by applicable law or agreed to in writing,
 * software distributed under the License is distributed on an
 * "AS IS" BASIS, WITHOUT WARRANTIES OR CONDITIONS OF ANY
 * KIND, either express or implied. See the License for the
 * specific language governing permissions and limitations
 * under the License.
-->

<svg version="1.1" id="ws-trust-template-illustration" class="icon" xmlns="http://www.w3.org/2000/svg" xmlns:xlink="http://www.w3.org/1999/xlink" width="100" height="100" viewBox="-4 -8 100 100">
    <g id="ws-trust-template-illustration" transform="translate(0 -23.5)">
        <path id="Path_81" class="path fill primary"
              d="M90.823,102.353A21.156,21.156,0,0,0,78.275,89.384,7.682,7.682,0,0,1,73.32,82.3q0-.1,0-.207A21.2,21.2,0,0,0,35.06,70.005a17.3,17.3,0,0,1-13.845,7.176q-.242,0-.485.005A21.6,21.6,0,0,0,0,98.095a21.206,21.206,0,0,0,41.119,7.572,4.339,4.339,0,0,1,5.26-2.653l.082.023a4.328,4.328,0,0,1,3.152,4.512,21.205,21.205,0,1,0,41.207-5.2Z"
              transform="translate(0 -31.088)" fill="#ffbd9f" opacity="0.1" />
        <path id="Path_82" class="path fill primary"
              d="M126.826,60.158a1.792,1.792,0,0,0-1.78-1.563h-4.152A33.03,33.03,0,0,0,96.55,32.635a8.133,8.133,0,1,0-16.141-.011,32.807,32.807,0,0,0-9.517,4.071A8.133,8.133,0,0,0,60.6,46.948,32.995,32.995,0,0,0,104.7,93.34l4.736,2.945a4.04,4.04,0,0,0,4.266,0L125.9,88.7a1.79,1.79,0,0,0,.828-1.264,106.386,106.386,0,0,0,.782-14.007,112.007,112.007,0,0,0-.682-13.273Z"
              transform="translate(-45.504)" fill="#ff5000" opacity="0.1"/>
        <circle id="Ellipse_7" cx="32.989" cy="32.989" r="32.989" class="path fill primary"
                transform="translate(9.963 34.863)" fill="#ffbd9f" opacity="0.6" />
        <g id="Group_12" transform="translate(14.704 34.863)">
            <path id="Path_83" class="path fill primary"
                  d="M98.109,135.737a8.132,8.132,0,0,1-16.251.472,33.17,33.17,0,0,1,7.474-8.581c.214-.016.427-.025.644-.025A8.133,8.133,0,0,1,98.109,135.737Z"
                  transform="translate(-81.858 -120.267)" fill="#ffa074" opacity="0.6" />
            <path id="Path_84" class="path fill primary"
                  d="M210.249,89.453a8.133,8.133,0,0,1-16.265,0,8.233,8.233,0,0,1,.185-1.733,33.24,33.24,0,0,1,15.9.013A8.114,8.114,0,0,1,210.249,89.453Z"
                  transform="translate(-173.844 -86.762)" fill="#ffa074" opacity="0.6"/>
            <path id="Path_85" class="path fill primary"
                  d="M304.877,257.629a32.994,32.994,0,0,1-19.613,30.166l-4.591-2.856a1.785,1.785,0,0,1-.829-1.263,106.293,106.293,0,0,1-.782-14.008,111.849,111.849,0,0,1,.683-13.273,1.791,1.791,0,0,1,1.778-1.565h23.235C304.838,255.752,304.877,256.687,304.877,257.629Z"
                  transform="translate(-243.64 -224.641)" fill="#ffd5b8" opacity="0.6" />
        </g>
        <circle id="Ellipse_8" cx="8.133" cy="8.133" r="8.133" class="path fill primary"
                transform="translate(14.689 39.509)" fill="#fdd250"  opacity="0.8" />
        <circle id="Ellipse_9" cx="8.133" cy="8.133" r="8.133" class="path fill primary"
                transform="translate(34.844 26.729)" fill="#ffa052"/>
        <circle id="Ellipse_10" cx="8.133" cy="8.133" r="8.133" class="path fill primary"
                transform="translate(22.742 89.86)" fill="#fdd250" opacity="0.9" />
        <path id="Path_89" class="path fill primary"
              d="M309.333,266.963a1.79,1.79,0,0,0,.828-1.264,106.384,106.384,0,0,0,.782-14.007,112.042,112.042,0,0,0-.682-13.274,1.792,1.792,0,0,0-1.78-1.563H281.528a1.792,1.792,0,0,0-1.78,1.563,112.038,112.038,0,0,0-.682,13.274,106.394,106.394,0,0,0,.782,14.007,1.79,1.79,0,0,0,.828,1.264l12.2,7.583a4.04,4.04,0,0,0,4.266,0Z"
              transform="translate(-228.939 -175.031)" fill="#ffa052" opacity="0.8" />
        <path id="Path_90" class="path fill primary"
              d="M123.615,73.922a2.7,2.7,0,0,0-2.67-2.348h-16a47.5,47.5,0,0,0-2.661-10.823,35.815,35.815,0,0,0,6.4-3.189,32.089,32.089,0,0,1,5.839,9.974.9.9,0,0,0,1.688-.614A33.9,33.9,0,0,0,93.4,45.838c0-.109.008-.217.008-.327a9.031,9.031,0,0,0-18.063,0c0,.1,0,.208.008.311a33.684,33.684,0,0,0-8.7,3.773,9.03,9.03,0,1,0-2.436,17.726c.09,0,.179,0,.269-.007A52.791,52.791,0,0,0,63.334,77.6H52.276a31.837,31.837,0,0,1,2.518-11.616.9.9,0,0,0-1.654-.7A33.971,33.971,0,0,0,54.19,93.957a34.2,34.2,0,0,0,9.637,11.5,9.03,9.03,0,0,0,16.76,6.717,34.4,34.4,0,0,0,3.768.21,33.928,33.928,0,0,0,16.219-4.127l4.287,2.666a4.908,4.908,0,0,0,5.215,0l12.2-7.583a2.683,2.683,0,0,0,1.243-1.9,107.459,107.459,0,0,0,.791-14.136,114.057,114.057,0,0,0-.69-13.387Zm-20.482-2.348H93.99a2.7,2.7,0,0,0-2.67,2.348c-.139,1.094-.26,2.335-.359,3.68H85.253V63.918A51.132,51.132,0,0,0,100.6,61.357a45.732,45.732,0,0,1,2.531,10.217ZM70.046,99.89q-.67-1.245-1.254-2.585a49.325,49.325,0,0,1,14.665-2.425v15.677a11.865,11.865,0,0,1-2.277-.406A9.032,9.032,0,0,0,70.046,99.89Zm20.71-6.434a54.023,54.023,0,0,0-5.5-.374V79.4h5.592c-.139,2.446-.214,5.149-.214,7.911C90.631,89.437,90.674,91.511,90.756,93.457Zm-7.3-.374a51.111,51.111,0,0,0-15.344,2.558A48.328,48.328,0,0,1,65.13,79.4H83.456Zm1.8,1.8a52.3,52.3,0,0,1,5.593.4c.135,2.355.329,4.464.576,6.168a2.683,2.683,0,0,0,1.243,1.9l2.56,1.592c-2.97,3.418-6.391,5.345-9.972,5.621ZM72.081,53.845a21.605,21.605,0,0,1,4.16-4.419A9.052,9.052,0,0,0,83.456,54.5v7.626a50.706,50.706,0,0,1-10.574-1.266,9,9,0,0,0-.8-7.011ZM92.5,49.452a26.212,26.212,0,0,1,7.42,10.241,49.347,49.347,0,0,1-14.67,2.428V54.5A9.05,9.05,0,0,0,92.5,49.452Zm14.952,6.762a34.321,34.321,0,0,1-5.846,2.875,27.638,27.638,0,0,0-8.466-11.4c0-.017.008-.034.012-.05A32.053,32.053,0,0,1,107.455,56.214ZM84.379,38.276a7.235,7.235,0,1,1-7.235,7.235A7.243,7.243,0,0,1,84.379,38.276ZM75.6,47.619l.008.035a22.574,22.574,0,0,0-4.625,4.654,9.09,9.09,0,0,0-2.254-1.84A31.877,31.877,0,0,1,75.6,47.619ZM56.989,58.29a7.235,7.235,0,1,1,7.235,7.235A7.243,7.243,0,0,1,56.989,58.29Zm9.4,8.767a9.066,9.066,0,0,0,5.8-4.52,52.4,52.4,0,0,0,11.265,1.381V77.6H65.13A50.78,50.78,0,0,1,66.39,67.057ZM52.276,79.4H63.334a50.191,50.191,0,0,0,3.09,16.851,35.854,35.854,0,0,0-6.388,3.18,32.2,32.2,0,0,1-4.248-6.293A31.69,31.69,0,0,1,52.276,79.4Zm8.99,21.381A34.345,34.345,0,0,1,67.1,97.913q.581,1.344,1.246,2.6a9.092,9.092,0,0,0-3.7,3.31,32.234,32.234,0,0,1-3.378-3.044Zm11.011,15.1a7.235,7.235,0,1,1,7.235-7.235A7.243,7.243,0,0,1,72.277,115.877Zm20.784-6.489a21.67,21.67,0,0,0,3.708-3.493l2.035,1.266A31.894,31.894,0,0,1,93.061,109.388Zm28.675-8.2a.891.891,0,0,1-.414.63l-12.2,7.583a3.123,3.123,0,0,1-3.318,0l-12.2-7.583a.892.892,0,0,1-.414-.63,105.678,105.678,0,0,1-.773-13.879,112.177,112.177,0,0,1,.675-13.16.9.9,0,0,1,.888-.779h26.954a.9.9,0,0,1,.888.779,112.169,112.169,0,0,1,.675,13.16,105.6,105.6,0,0,1-.772,13.879Z"
              transform="translate(-41.402 -10.648)" fill="#ff5000" />
        <path id="Path_95" class="path fill primary"
              d="M424.446,166.873a.9.9,0,0,1-.9-.9,1.079,1.079,0,0,0-1.078-1.078.9.9,0,1,1,0-1.8,1.079,1.079,0,0,0,1.078-1.078.9.9,0,1,1,1.8,0,1.08,1.08,0,0,0,1.078,1.078.9.9,0,0,1,0,1.8,1.08,1.08,0,0,0-1.078,1.078A.9.9,0,0,1,424.446,166.873Z"
              transform="translate(-345.848 -112.903)" fill="#ffe783" opacity="0.8" />/>
        <path id="Path_96" class="path fill primary"
              d="M68.748,419.759a.9.9,0,0,1-.635-.263l-1.972-1.972a.9.9,0,0,1,0-1.27l1.972-1.972a.9.9,0,0,1,1.27,0l1.972,1.972a.9.9,0,0,1,0,1.27L69.383,419.5A.9.9,0,0,1,68.748,419.759Zm-.7-2.871.7.7.7-.7-.7-.7Z"
              transform="translate(-54.044 -320.372)" fill="#ffa052" opacity="0.5" />
        <path id="Path_97" class="path fill primary"
              d="M395.058,110.985a.894.894,0,0,1-.635-.263l-1.972-1.972a.9.9,0,0,1,0-1.27l1.972-1.972a.9.9,0,0,1,1.27,0l1.972,1.972a.9.9,0,0,1,0,1.27l-1.972,1.972A.9.9,0,0,1,395.058,110.985Zm-.7-2.87.7.7.7-.7-.7-.7Z"
              transform="translate(-321.742 -67.061)" fill="#ffa052" opacity="0.4" />
        <path id="Path_98" class="path fill primary"
              d="M141.018,46.163a.9.9,0,0,1-.635-.263l-1.972-1.972a.9.9,0,0,1,0-1.27l1.972-1.972a.9.9,0,0,1,1.27,0l1.972,1.972a.9.9,0,0,1,0,1.27L141.653,45.9A.894.894,0,0,1,141.018,46.163Zm-.7-2.871.7.7.7-.7-.7-.7Z"
              transform="translate(-113.332 -13.882)" fill="#ffa052" opacity="0.7" />
        <path id="Path_99"
              d="M55.9,67.206a88.953,88.953,0,0,0-.486,12.284c.1,8.168.486,8.87.486,8.87l10.2,6.546L76.313,88.36s.368-1.521.4-9.238-.4-11.916-.4-11.916Z"
              fill="#fff"/>
        <g id="lock" transform="translate(-2.832 72.487)">
            <g id="Group_13" transform="translate(64)">
                <path id="Path_100" class="path fill primary"
                      d="M73.944,4.933h-.852v-1.1a3.98,3.98,0,0,0-7.955,0v1.1h-.852A.279.279,0,0,0,64,5.207v6.851a1.118,1.118,0,0,0,1.137,1.1h7.956a1.118,1.118,0,0,0,1.136-1.1V5.207A.279.279,0,0,0,73.944,4.933Zm-3.979,5.724a.268.268,0,0,1-.071.213.289.289,0,0,1-.212.091H68.546a.289.289,0,0,1-.212-.091.268.268,0,0,1-.071-.213L68.443,9.1a1.072,1.072,0,0,1-.465-.882,1.137,1.137,0,0,1,2.273,0,1.072,1.072,0,0,1-.465.882Zm1.422-5.724H66.841v-1.1a2.274,2.274,0,0,1,4.546,0Z"
                      transform="translate(-64)" fill="#ff7c41"/>
            </g>
        </g>
        <g id="user-icon" transform="translate(18.968 44.027)">
            <g id="Group_14" transform="translate(0)">
                <path id="Path_101"
                      d="M5.763,4.365a3.363,3.363,0,0,0-1.283-.8,1.952,1.952,0,1,0-2.209,0A3.381,3.381,0,0,0,0,6.752H.527a2.848,2.848,0,0,1,5.7,0h.527A3.354,3.354,0,0,0,5.763,4.365ZM3.376,3.376A1.424,1.424,0,1,1,4.8,1.952,1.426,1.426,0,0,1,3.376,3.376Z"
                      transform="translate(0)" fill="#fff" stroke="#fff" stroke-width="0.5"/>
            </g>
        </g>
        <g id="user-icon-2" transform="translate(39.968 31.027)">
            <g id="Group_14-2" transform="translate(0)">
                <path id="Path_101-2"
                      d="M5.763,4.365a3.363,3.363,0,0,0-1.283-.8,1.952,1.952,0,1,0-2.209,0A3.381,3.381,0,0,0,0,6.752H.527a2.848,2.848,0,0,1,5.7,0h.527A3.354,3.354,0,0,0,5.763,4.365ZM3.376,3.376A1.424,1.424,0,1,1,4.8,1.952,1.426,1.426,0,0,1,3.376,3.376Z"
                      transform="translate(0)" fill="#fff" stroke="#fff" stroke-width="0.5"/>
            </g>
        </g>
        <g id="user-icon-3" transform="translate(26.968 94.027)">
            <g id="Group_14-3" transform="translate(0)">
                <path id="Path_101-3"
                      d="M5.763,4.365a3.363,3.363,0,0,0-1.283-.8,1.952,1.952,0,1,0-2.209,0A3.381,3.381,0,0,0,0,6.752H.527a2.848,2.848,0,0,1,5.7,0h.527A3.354,3.354,0,0,0,5.763,4.365ZM3.376,3.376A1.424,1.424,0,1,1,4.8,1.952,1.426,1.426,0,0,1,3.376,3.376Z"
                      transform="translate(0)" fill="#fff" stroke="#fff" stroke-width="0.5"/>
            </g>
        </g>
    </g>
</svg>
