<!--
 * Copyright (c) 2022, WSO2 Inc. (http://www.wso2.org) All Rights Reserved.
 *
 * WSO2 Inc. licenses this file to you under the Apache License,
 * Version 2.0 (the "License"); you may not use this file except
 * in compliance with the License.
 * You may obtain a copy of the License at
 *
 *     http://www.apache.org/licenses/LICENSE-2.0
 *
 * Unless required by applicable law or agreed to in writing,
 * software distributed under the License is distributed on an
 * "AS IS" BASIS, WITHOUT WARRANTIES OR CONDITIONS OF ANY
 * KIND, either express or implied. See the License for the
 * specific language governing permissions and limitations
 * under the License.
-->

<svg xmlns="http://www.w3.org/2000/svg" width="35" height="35" viewBox="0 0 35 35">
    <g id="my-account-icon" transform="translate(-932 -5385)">
        <rect id="Rectangle_1110" data-name="Rectangle 1110" width="35" height="35" rx="4"
            transform="translate(932 5385)" fill="#e0e1e2" />
        <path id="application-outline"
            d="M.6,14H0A7.027,7.027,0,0,1,5.412,7.679a4,4,0,1,1,3.14,0A7.029,7.029,0,0,1,13.964,14h-.6A6.4,6.4,0,0,0,.6,14h0ZM3.582,4A3.4,3.4,0,1,0,6.982.6,3.4,3.4,0,0,0,3.582,4Z"
            transform="translate(942.518 5395.5)" fill="#232a31" />
    </g>
</svg>
