<!--
 * Copyright (c) 2020, WSO2 Inc. (http://www.wso2.org) All Rights Reserved.
 *
 * WSO2 Inc. licenses this file to you under the Apache License,
 * Version 2.0 (the "License"); you may not use this file except
 * in compliance with the License.
 * You may obtain a copy of the License at
 *
 *     http://www.apache.org/licenses/LICENSE-2.0
 *
 * Unless required by applicable law or agreed to in writing,
 * software distributed under the License is distributed on an
 * "AS IS" BASIS, WITHOUT WARRANTIES OR CONDITIONS OF ANY
 * KIND, either express or implied. See the License for the
 * specific language governing permissions and limitations
 * under the License.
-->

<svg xmlns="http://www.w3.org/2000/svg" class="icon" width="14" height="14" viewBox="0 0 11.507 13.999">
    <path id="oidc" class="path fill primary"
          d="M6.089,13.948,4.837,12.7,3.585,13.948a.3.3,0,0,1-.214.09l-.033,0-.034,0a.3.3,0,0,1-.217-.09L1.837,12.7.795,13.739a.284.284,0,0,1-.178.085.038.038,0,0,1,0,.015.132.132,0,0,1-.031,0L.56,13.826a.317.317,0,0,1-.188-.087l0,0A.812.812,0,0,1,0,13.061V2.778a1,1,0,0,1,1-1H8.557a1,1,0,0,1,1,1V13.061a.8.8,0,0,1-.339.653.076.076,0,0,1-.014.016l-.008.009a.3.3,0,0,1-.2.087.268.268,0,0,1-.053.013h0l0-.005a.067.067,0,0,0,0-.011.3.3,0,0,1-.169-.085l-.988-.988-1.2,1.2a.292.292,0,0,1-.213.088H6.336l-.032,0A.3.3,0,0,1,6.089,13.948ZM2.517,9.1a.3.3,0,0,0,.3.3h4.1a.3.3,0,0,0,0-.6H2.82A.3.3,0,0,0,2.517,9.1Zm0-2a.3.3,0,0,0,.3.3h4.1a.3.3,0,0,0,0-.6H2.82A.3.3,0,0,0,2.517,7.1Zm0-2a.3.3,0,0,0,.3.3h2.4a.3.3,0,0,0,0-.6H2.82A.3.3,0,0,0,2.517,5.1Zm8.364,7v0l0-.015A.3.3,0,0,1,10.715,12l-.554-.554V2.18a1,1,0,0,0-1-1H1.942V1.038a1,1,0,0,1,1-1H10.5a1,1,0,0,1,1,1V11.317a.8.8,0,0,1-.356.668.037.037,0,0,1-.011.013.294.294,0,0,1-.2.089l-.052.014Z"
          transform="translate(0.002 -0.04)" fill="#464646"/>
</svg>
