<!--
 * Copyright (c) 2020, WSO2 Inc. (http://www.wso2.org) All Rights Reserved.
 *
 * WSO2 Inc. licenses this file to you under the Apache License,
 * Version 2.0 (the "License"); you may not use this file except
 * in compliance with the License.
 * You may obtain a copy of the License at
 *
 *     http://www.apache.org/licenses/LICENSE-2.0
 *
 * Unless required by applicable law or agreed to in writing,
 * software distributed under the License is distributed on an
 * "AS IS" BASIS, WITHOUT WARRANTIES OR CONDITIONS OF ANY
 * KIND, either express or implied. See the License for the
 * specific language governing permissions and limitations
 * under the License.
-->

<svg xmlns="http://www.w3.org/2000/svg" class="icon" width="14" height="14" viewBox="0 0 14 14">
    <path id="organization" class="path fill primary"
          d="M10.5,14a.5.5,0,0,1-.5-.5v-3a.5.5,0,0,1,.5-.5h1.2V8.3H7.3V10H8.5a.5.5,0,0,1,.5.5v3a.5.5,0,0,1-.5.5h-3a.5.5,0,0,1-.5-.5v-3a.5.5,0,0,1,.5-.5H6.7V8.3H2.3V10H3.5a.5.5,0,0,1,.5.5v3a.5.5,0,0,1-.5.5H.5a.5.5,0,0,1-.5-.5v-3A.5.5,0,0,1,.5,10H1.7V8.2a.5.5,0,0,1,.5-.5H6.7V4H4a.5.5,0,0,1-.5-.5V.5A.5.5,0,0,1,4,0h6a.5.5,0,0,1,.5.5v3A.5.5,0,0,1,10,4H7.3V7.7h4.5a.5.5,0,0,1,.5.475.111.111,0,0,1,0,.024V10h1.2a.5.5,0,0,1,.5.5v3a.5.5,0,0,1-.5.5Z"
          fill="#464646"/>
</svg>
