<!--
 * Copyright (c) 2020, WSO2 Inc. (http://www.wso2.org) All Rights Reserved.
 *
 * WSO2 Inc. licenses this file to you under the Apache License,
 * Version 2.0 (the "License"); you may not use this file except
 * in compliance with the License.
 * You may obtain a copy of the License at
 *
 *     http://www.apache.org/licenses/LICENSE-2.0
 *
 * Unless required by applicable law or agreed to in writing,
 * software distributed under the License is distributed on an
 * "AS IS" BASIS, WITHOUT WARRANTIES OR CONDITIONS OF ANY
 * KIND, either express or implied. See the License for the
 * specific language governing permissions and limitations
 * under the License.
-->

<svg xmlns="http://www.w3.org/2000/svg" class="icon" width="14" height="14" viewBox="0 0 11.88 14">
    <path id="plugin" class="path fill primary"
          d="M2.955,15.479a2.143,2.143,0,0,1-.682-1.984,2.265,2.265,0,0,1,.763-1.236A2.944,2.944,0,0,1,3.219,8.3l.993-.995-.145-.144A.307.307,0,0,1,4.5,6.726l.56.56L6.4,5.95a.307.307,0,0,1,.434.434L5.5,7.721,7.954,10.18,9.292,8.842a.307.307,0,0,1,.433.434L8.387,10.614l.562.56a.307.307,0,0,1-.435.434l-.145-.145-.993.993a2.944,2.944,0,0,1-3.882.244,1.546,1.546,0,0,0-.633.995,1.779,1.779,0,0,0,.666,1.49l-.427.427S3.041,15.564,2.955,15.479ZM11.224,8.9,6.778,4.449a.307.307,0,0,1,.433-.434l.145.145.995-.995a2.946,2.946,0,0,1,3.949-.19l1.364-1.364.434.434L12.73,3.414a2.945,2.945,0,0,1-.221,3.91l-.995.995.145.145a.307.307,0,0,1,0,.433.3.3,0,0,1-.216.091A.307.307,0,0,1,11.224,8.9Z"
          transform="translate(-2.217 -1.612)" fill="#464646"/>
</svg>
