<!--
 * Copyright (c) 2020, WSO2 Inc. (http://www.wso2.org) All Rights Reserved.
 *
 * WSO2 Inc. licenses this file to you under the Apache License,
 * Version 2.0 (the "License"); you may not use this file except
 * in compliance with the License.
 * You may obtain a copy of the License at
 *
 *     http://www.apache.org/licenses/LICENSE-2.0
 *
 * Unless required by applicable law or agreed to in writing,
 * software distributed under the License is distributed on an
 * "AS IS" BASIS, WITHOUT WARRANTIES OR CONDITIONS OF ANY
 * KIND, either express or implied. See the License for the
 * specific language governing permissions and limitations
 * under the License.
-->

<svg xmlns="http://www.w3.org/2000/svg" class="icon" width="14" height="14" viewBox="0 0 14 14">
    <path id="target" class="path fill primary"
          d="M-1893,14a.3.3,0,0,1-.3-.3v-.407a6.281,6.281,0,0,1-4.153-1.84,6.28,6.28,0,0,1-1.84-4.153h-.408a.3.3,0,0,1-.3-.3.3.3,0,0,1,.3-.3h.408a6.283,6.283,0,0,1,1.841-4.152A6.28,6.28,0,0,1-1893.3.707V.3a.3.3,0,0,1,.3-.3.3.3,0,0,1,.3.3V.707a6.281,6.281,0,0,1,4.152,1.84,6.282,6.282,0,0,1,1.841,4.152h.407a.3.3,0,0,1,.3.3.3.3,0,0,1-.3.3h-.407a6.281,6.281,0,0,1-1.84,4.153,6.28,6.28,0,0,1-4.153,1.84V13.7A.3.3,0,0,1-1893,14Zm-2.8-7.3a.3.3,0,0,0-.3.3.3.3,0,0,0,.3.3h1.174a1.661,1.661,0,0,0,1.324,1.323V9.8a.3.3,0,0,0,.3.3.3.3,0,0,0,.3-.3V8.623a1.656,1.656,0,0,0,1.321-1.323h1.178a.3.3,0,0,0,.3-.3.3.3,0,0,0-.3-.3h-1.178a1.657,1.657,0,0,0-1.321-1.322V4.2a.3.3,0,0,0-.3-.3.3.3,0,0,0-.3.3V5.378a1.657,1.657,0,0,0-1.324,1.322Zm2.8,1.35A1.052,1.052,0,0,1-1894.05,7,1.051,1.051,0,0,1-1893,5.95,1.051,1.051,0,0,1-1891.949,7,1.052,1.052,0,0,1-1893,8.05Z"
          transform="translate(1900)" fill="#464646"/>
</svg>
