<?xml version="1.0" encoding="UTF-8" standalone="no"?>
<!--
* Copyright (c) 2022, WSO2 LLC. (http://www.wso2.com). All Rights Reserved.
*
* This software is the property of WSO2 LLC. and its suppliers, if any.
* Dissemination of any information or reproduction of any material contained
* herein in any form is strictly forbidden, unless permitted by WSO2 expressly.
* You may not alter or remove any copyright or other notice from copies of this content."
-->

<svg width="154mm" height="124mm" viewBox="0 0 154 124" version="1.1" id="svg5" inkscape:version="1.1.2 (1:1.1+202202050950+0a00cf5339)" sodipodi:docname="custom-3.svg"
	xmlns:inkscape="http://www.inkscape.org/namespaces/inkscape"
	xmlns:sodipodi="http://sodipodi.sourceforge.net/DTD/sodipodi-0.dtd"
	xmlns="http://www.w3.org/2000/svg"
	xmlns:svg="http://www.w3.org/2000/svg">
	<sodipodi:namedview id="namedview7" pagecolor="#ffffff" bordercolor="#666666" borderopacity="1.0" inkscape:pageshadow="2" inkscape:pageopacity="0.0" inkscape:pagecheckerboard="false" inkscape:document-units="mm" showgrid="false" inkscape:snap-grids="false" inkscape:zoom="0.60647144" inkscape:cx="111.29955" inkscape:cy="560.61997" inkscape:window-width="1848" inkscape:window-height="1024" inkscape:window-x="72" inkscape:window-y="27" inkscape:window-maximized="1" inkscape:current-layer="layer1" width="154mm" />
	<defs id="defs2">
		<style id="style1112">.cls-1{fill:none;}.cls-2{fill:#3d3d63;}</style>
	</defs>
	<g inkscape:label="Layer 1" inkscape:groupmode="layer" id="layer1">
		<path style="fill:#f5f6f6;fill-opacity:1;stroke:none;stroke-width:0.302381" d="M 0,62.000006 V 0 H 77.000008 154 V 62.000006 124 H 77.000008 0 Z" id="path793" />
		<path id="custom-illustration" d="m 95.263505,92.560448 -2.754924,-1.745367 a 2.9311371,3.213218 0 0 1 -1.395103,-2.002862 2.7406001,3.0043446 0 0 1 -0.09124,-1.015795 H 57.783982 a 1.3050477,1.4306403 0 0 1 -1.305068,-1.430616 1.3050477,1.4306403 0 0 1 1.305068,-1.430627 h 3.210389 a 5.6508563,6.1946722 0 0 1 5.494278,-4.764069 h 1.735686 l 1.305078,-5.293368 H 51.689383 A 3.0538116,3.3476982 0 0 1 48.648617,71.54438 V 35.291914 A 3.9151431,4.2919208 0 0 1 52.56376,31 h 53.93896 a 3.9151431,4.2919208 0 0 1 3.91514,4.291914 v 26.123543 l 0.97875,0.643766 a 3.0016096,3.2904727 0 0 1 1.09758,4.492221 0.37585374,0.41202439 0 0 0 0,0.472044 13.635139,14.94733 0 0 1 2.17812,4.134566 0.37846384,0.41488569 0 0 0 0.35219,0.271979 3.0016096,3.2904727 0 0 1 2.9755,3.233251 v 3.490745 a 3.0146602,3.3047791 0 0 1 -3.0016,3.290461 0.36410831,0.39914864 0 0 0 -0.35218,0.271991 13.738238,15.06035 0 0 1 -2.17945,4.120226 0.39151431,0.42919208 0 0 0 0,0.48666 2.9428825,3.2260938 0 0 1 0.29989,2.489335 2.9872542,3.2747356 0 0 1 -1.39638,2.002864 l -2.75366,1.745432 a 2.9520179,3.2361083 0 0 1 -1.50079,0.429317 3.0016096,3.2904727 0 0 1 -2.61012,-1.629493 0.39151431,0.42919208 0 0 0 -0.40594,-0.214669 12.71769,13.94159 0 0 1 -4.332771,0 0.40456476,0.44349846 0 0 0 -0.404472,0.200064 3.0016096,3.2904727 0 0 1 -2.610059,1.653776 2.9768138,3.2632905 0 0 1 -1.489063,-0.439061 z m 11.497475,-2.703895 a 0.39151431,0.42919208 0 0 0 0.2348,0.208708 0.39151431,0.42919208 0 0 0 0.29889,-0.03794 l 2.71448,-1.688057 a 0.37846384,0.41488569 0 0 0 0.18251,-0.27198 0.33931242,0.37196648 0 0 0 0,-0.314696 3.0159653,3.3062096 0 0 1 0.27424,-3.719624 11.034178,12.096063 0 0 0 1.74878,-3.333398 3.0159653,3.3062096 0 0 1 2.80587,-2.117384 0.39151431,0.42919208 0 0 0 0.39163,-0.429328 V 74.71932 a 0.37715877,0.41345503 0 0 0 -0.11098,-0.307668 0.37976888,0.41631633 0 0 0 -0.28065,-0.12166 3.0290158,3.3205162 0 0 1 -2.77979,-2.203146 11.119006,12.189054 0 0 0 -1.74743,-3.347717 3.0016096,3.2904727 0 0 1 -0.27523,-3.705359 0.36019316,0.39485671 0 0 0 0,-0.328752 0.3367023,0.36910519 0 0 0 -0.18151,-0.257386 l -2.75493,-1.745371 a 0.37454869,0.41059377 0 0 0 -0.28708,-0.04872 0.37715877,0.41345503 0 0 0 -0.23379,0.19033 3.039456,3.3319612 0 0 1 -3.06687,1.688167 10.379044,11.377882 0 0 0 -3.47142,0 3.0264057,3.3176548 0 0 1 -3.092946,-1.602294 0.39151431,0.42919208 0 0 0 -0.326523,-0.200614 0.37063357,0.40630186 0 0 0 -0.195822,0 l -2.753651,1.745377 a 0.34192248,0.37482773 0 0 0 -0.182497,0.257387 0.36932848,0.40487117 0 0 0 0,0.327673 3.0407611,3.3333918 0 0 1 -0.27425,3.719667 10.732711,11.765585 0 0 0 -1.761774,3.333354 3.0016096,3.2904727 0 0 1 -2.792808,2.117374 0.37976888,0.41631633 0 0 0 -0.280662,0.12167 0.37976888,0.41631633 0 0 0 -0.11098,0.307668 v 3.490801 a 0.39151431,0.42919208 0 0 0 0.391642,0.429317 2.9781187,3.2647212 0 0 1 2.754926,2.060118 10.861912,11.907218 0 0 0 1.761831,3.333408 3.0407611,3.3333918 0 0 1 0.274242,3.719679 0.34192248,0.37482773 0 0 0 0,0.314696 0.37846384,0.41488569 0 0 0 0.182504,0.27198 l 2.753643,1.743904 a 0.40456476,0.44349846 0 0 0 0.535076,-0.157337 3.01205,3.3019177 0 0 1 3.092949,-1.602305 10.36991,11.367868 0 0 0 3.47013,0 3.0629469,3.3577126 0 0 1 0.49464,-0.04333 3.0159653,3.3062096 0 0 1 2.59831,1.635233 z M 63.746646,84.935181 H 90.746748 A 14.424692,15.812867 0 0 1 89.730122,83.032399 H 66.48722 a 3.039456,3.3319612 0 0 0 -2.740574,1.9042 z M 70.83301,80.171112 H 86.493587 A 3.0303208,3.3219466 0 0 1 85.84107,78.153919 V 74.877744 H 72.138094 Z M 51.257297,71.54438 a 0.43066574,0.4721113 0 0 0 0.430602,0.470427 l 35.432011,-0.04323 a 2.9872542,3.2747356 0 0 1 1.774901,-0.643777 0.37976888,0.41631633 0 0 0 0.352172,-0.27198 13.605122,14.914425 0 0 1 2.178132,-4.134578 0.35105784,0.38484225 0 0 0 0,-0.472044 3.0251005,3.316224 0 0 1 -0.28707,-2.503611 2.9246118,3.2060649 0 0 1 1.396376,-1.989984 l 2.753651,-1.743971 a 2.9872542,3.2747356 0 0 1 2.277315,-0.334701 2.9885592,3.2761662 0 0 1 1.820529,1.536538 0.36671841,0.40200993 0 0 0 0.391637,0.18602 13.40806,14.698398 0 0 1 4.332767,0 0.3810739,0.41774694 0 0 0 0.39165,-0.18602 2.9872542,3.2747356 0 0 1 3.30178,-1.430672 V 42.44322 H 51.258682 Z m 0,-36.252466 v 4.291924 H 107.80632 V 35.291914 A 1.3050477,1.4306403 0 0 0 106.5013,33.861301 H 52.563661 a 1.3050477,1.4306403 0 0 0 -1.305028,1.430613 z m -12.759443,50.597473 -1.130173,-35.524245 5.511235,-0.02162 -1.321999,35.532779 a 1.4733989,1.6151929 0 0 1 -1.485165,1.529345 h -0.05471 a 1.4512131,1.5908719 0 0 1 -1.519097,-1.516478 z m 57.509565,-9.480835 a 5.9262215,6.4965374 0 0 1 5.926201,-6.495128 5.9249164,6.4951066 0 0 1 5.92494,6.495128 5.9236114,6.4936759 0 0 1 -5.92494,6.495116 5.9249164,6.4951066 0 0 1 -5.926201,-6.493709 z m 2.610065,0 a 3.3161262,3.6352569 0 0 0 3.316136,3.633818 v -0.02706 a 3.3148213,3.6338263 0 0 0 3.31482,-3.605212 3.3161262,3.6352569 0 0 0 -3.31482,-3.63528 3.3161262,3.6352569 0 0 0 -3.317417,3.6367 z M 71.589952,63.847537 66.735174,58.511222 a 1.3050477,1.4306403 0 0 1 0,-2.01719 l 4.854778,-5.336306 a 1.3050477,1.4306403 0 0 1 1.853171,0 1.3050477,1.4306403 0 0 1 0,2.03152 l -3.915141,4.291922 3.915141,4.347724 a 1.3050477,1.4306403 0 0 1 0,2.017183 1.3050477,1.4306403 0 0 1 -0.926561,0.429327 1.3050477,1.4306403 0 0 1 -0.92661,-0.4277 z m 14.01752,-0.02706 a 1.3050477,1.4306403 0 0 1 0,-2.002918 l 3.915141,-4.291918 -3.915141,-4.291924 a 1.3050477,1.4306403 0 0 1 -0.005,-2.025782 1.3050477,1.4306403 0 0 1 1.846665,0 l 4.867697,5.336251 a 1.3050477,1.4306403 0 0 1 0,2.017248 l -4.867845,5.264718 a 1.3050477,1.4306403 0 0 1 -0.913493,0.417967 1.2972175,1.4220564 0 0 1 -0.927899,-0.423378 z m -8.532377,-0.206014 a 1.3050477,1.4306403 0 0 1 -1.138013,-0.732497 1.3050477,1.4306403 0 0 1 0.03943,-1.464975 l 4.815613,-9.270545 a 1.3050477,1.4306403 0 0 1 0.792155,-0.672429 1.3050477,1.4306403 0 0 1 0.994433,0.143286 1.3050477,1.4306403 0 0 1 0.652567,0.87839 1.3050477,1.4306403 0 0 1 -0.130711,1.125939 l -4.867846,9.226206 a 1.3050477,1.4306403 0 0 1 -1.139301,0.766834 z m -39.682609,-22.21784 5.511234,-0.02163 -0.01973,7.776942 -5.5099,0.02163 z m 2.283833,1.573693 -0.01,4.612341 a 0.44241117,0.48498705 0 0 0 0.463159,0.46231 0.45154648,0.49500151 0 0 0 0.469566,-0.467719 l 0.01,-4.609525 a 0.4437162,0.48641767 0 0 0 -0.464643,-0.463395 h -0.01475 a 0.45154648,0.49500151 0 0 0 -0.452802,0.465016 z M 36,31.593845 a 0.51157872,0.560811 0 0 1 0.501138,0.01629 25.85169,28.339554 0 0 1 1.190204,4.379188 l -0.639488,-4.460736 a 3.1882315,3.4950541 0 0 1 1.251562,-0.327673 4.4228066,4.8484398 0 0 1 1.378135,0.299022 l 0.429615,3.131707 0.335409,-3.13312 a 7.6188684,8.3520775 0 0 1 1.566046,-0.274685 2.7262447,2.9886075 0 0 1 1.314166,0.490979 L 42.2123,36.594702 a 46.034252,50.464405 0 0 1 1.566046,-4.970032 0.89134759,0.97712729 0 0 1 0.56117,-0.06598 l -1.423807,8.74692 -5.50991,0.02163 z m 25.69769,5.131702 a 1.3050477,1.4306403 0 0 1 1.305037,-1.430622 1.3050477,1.4306403 0 0 1 1.305078,1.430622 1.3050477,1.4306403 0 0 1 -1.305078,1.43068 1.3050477,1.4306403 0 0 1 -1.303703,-1.432084 z m -4.345785,0 a 1.3050477,1.4306403 0 0 1 1.305028,-1.430622 1.3050477,1.4306403 0 0 1 1.305077,1.430622 1.3050477,1.4306403 0 0 1 -1.305077,1.43068 1.3050477,1.4306403 0 0 1 -1.305028,-1.432084 z m -4.358869,0 a 1.3050477,1.4306403 0 0 1 1.305028,-1.430622 1.3050477,1.4306403 0 0 1 1.305077,1.430622 1.3050477,1.4306403 0 0 1 -1.305077,1.43068 1.3050477,1.4306403 0 0 1 -1.305028,-1.432084 z" fill="#d1d2d3" style="stroke-width:1.36641" />
	</g>
</svg>
