<?xml version="1.0" encoding="UTF-8" standalone="no"?>
<!--
* Copyright (c) 2022, WSO2 LLC. (http://www.wso2.com). All Rights Reserved.
*
* This software is the property of WSO2 LLC. and its suppliers, if any.
* Dissemination of any information or reproduction of any material contained
* herein in any form is strictly forbidden, unless permitted by WSO2 expressly.
* You may not alter or remove any copyright or other notice from copies of this content."
-->

<svg width="154mm" height="124mm" viewBox="0 0 154 124" version="1.1" id="svg5" inkscape:version="1.2 (1:1.2+202206011327+fc4e4096c5)" sodipodi:docname="side-by-side-left-image.svg"
	xmlns:inkscape="http://www.inkscape.org/namespaces/inkscape"
	xmlns:sodipodi="http://sodipodi.sourceforge.net/DTD/sodipodi-0.dtd"
	xmlns="http://www.w3.org/2000/svg"
	xmlns:svg="http://www.w3.org/2000/svg">
	<sodipodi:namedview id="namedview7" pagecolor="#ffffff" bordercolor="#666666" borderopacity="1.0" inkscape:pageshadow="2" inkscape:pageopacity="0.0" inkscape:pagecheckerboard="false" inkscape:document-units="mm" showgrid="false" inkscape:snap-grids="false" inkscape:zoom="0.60647144" inkscape:cx="396.55618" inkscape:cy="562.26885" inkscape:window-width="1848" inkscape:window-height="1024" inkscape:window-x="72" inkscape:window-y="27" inkscape:window-maximized="1" inkscape:current-layer="layer1" width="154mm" inkscape:showpageshadow="2" inkscape:deskcolor="#d1d1d1" />
	<defs id="defs2" />
	<g inkscape:label="Layer 1" inkscape:groupmode="layer" id="layer1">
		<path style="fill:#ffffff;fill-opacity:1;stroke:none;stroke-width:0.302381" d="M 154,61.999992 V 124 H 76.999994 0 V 61.999992 0 H 76.999994 154 Z" id="path793" />
		<path style="fill:none;stroke:#dcdcdc;stroke-width:0.626467;stroke-linecap:butt;stroke-linejoin:miter;stroke-miterlimit:4;stroke-dasharray:none;stroke-opacity:1" d="m 153.76277,111.31322 c -69.19186,0.67374 -69.19186,0.67374 -69.19186,0.67374" id="path2740" />
		<rect style="fill:#d1d2d3;fill-opacity:1;stroke:#ffffff;stroke-width:0.120794;stroke-opacity:1" id="rect3063" width="15.241354" height="2.9715145" x="-103.72237" y="116.59864" transform="scale(-1,1)" />
		<rect style="fill:#d1d2d3;fill-opacity:1;stroke:#ffffff;stroke-width:0.104789;stroke-opacity:1" id="rect3063-1" width="11.415158" height="2.9858391" x="-134.4847" y="116.59145" transform="scale(-1,1)" />
		<rect style="fill:#d1d2d3;fill-opacity:1;stroke:#ffffff;stroke-width:0.104789;stroke-opacity:1" id="rect3063-1-4" width="11.415158" height="2.9858391" x="-149.86101" y="116.59145" transform="scale(-1,1)" />
		<rect style="fill:#d1d2d3;fill-opacity:1;stroke:#ffffff;stroke-width:0.0827129;stroke-opacity:1" id="rect3794" width="8.5470638" height="7.1175623" x="-123.4715" y="29.821224" ry="0.52968824" transform="scale(-1,1)" />
		<g id="g32" transform="matrix(-0.69221416,0,0,0.54616398,119.17511,1.0994701)">
			<rect style="fill:none;fill-opacity:1;stroke-width:0.26;stroke-miterlimit:4;stroke-dasharray:none" id="rect1821" width="100" height="96.591026" x="-50.650826" y="62.230286" ry="1.8440713" />
			<rect style="fill:#d1d2d3;fill-opacity:0.5;stroke:#ffffff;stroke-width:0.229552;stroke-opacity:1" id="rect3063-9" width="34.407337" height="4.7535424" x="1.7969" y="75.810852" />
			<rect style="fill:#d1d2d3;fill-opacity:0.5;stroke:#ffffff;stroke-width:0.313492;stroke-opacity:1" id="rect3063-9-5" width="65.089317" height="4.6865087" x="-33.550945" y="96.335358" />
			<rect style="fill:none;fill-opacity:0.632362;stroke:#d1d2d3;stroke-width:0.443782;stroke-miterlimit:4;stroke-dasharray:none;stroke-opacity:1" id="rect4216" width="71.715034" height="13.637746" x="-35.134254" y="91.629868" ry="1.476225" />
			<rect style="fill:#d1d2d3;fill-opacity:1;stroke:none;stroke-width:0.164973;stroke-opacity:1" id="rect4216-1" width="71.715027" height="13.637746" x="-35.132774" y="136.49773" ry="1.4762249" />
			<rect style="fill:#eff0f2;fill-opacity:0.3;stroke:none;stroke-width:0.291661;stroke-opacity:1" id="rect3063-9-5-5" width="56.336254" height="4.6867809" x="-27.468895" y="141.27203" />
			<rect style="fill:#d1d2d3;fill-opacity:0.5;stroke:#ffffff;stroke-width:0.279108;stroke-miterlimit:4;stroke-dasharray:none;stroke-opacity:1" id="rect3063-9-5-1" width="56.336254" height="4.6867809" x="-27.764238" y="116.67369" />
			<rect style="fill:none;fill-opacity:0.632362;stroke:#d1d2d3;stroke-width:0.443782;stroke-miterlimit:4;stroke-dasharray:none;stroke-opacity:1" id="rect4216-0" width="71.715034" height="13.637746" x="-35.056561" y="111.97134" ry="1.476225" />
			<rect style="fill:#d1d2d3;fill-opacity:0.251413;stroke:none;stroke-width:0.687822" id="rect286" width="122.38676" height="227.03804" x="49.43692" y="-1.9756705" />
			<path d="M 127.13358,93.631425 H 92.325623 c -2.735498,0 -4.973218,2.428746 -4.973218,5.397759 V 124.6698 c 0,2.96901 2.23772,5.39776 4.973218,5.39776 h 34.807957 c 2.73549,0 4.97322,-2.42875 4.97322,-5.39776 V 99.029184 c 0,-2.969013 -2.23773,-5.397759 -4.97322,-5.397759 z m 3.10997,30.473315 c 0,2.72119 -1.11886,3.93556 -3.62602,3.93556 H 92.846235 c -2.50716,0 -3.62602,-1.21437 -3.62602,-3.93556 V 99.589281 c 0,-2.721182 1.11886,-3.93555 3.62602,-3.93555 h 33.771295 c 2.50716,0 3.62602,1.214368 3.62602,3.93555 z m -28.90311,-16.30728 4.65811,4.04955 12.12022,-11.13257 9.32534,9.11028 v 15.18213 H 92.015081 v -9.11027 z m -5.594304,-9.105327 c -2.059614,0 -3.731055,1.814127 -3.731055,4.049567 0,2.23544 1.671441,4.04956 3.731055,4.04956 2.059616,0 3.731054,-1.81412 3.731054,-4.04956 0,-2.23544 -1.671438,-4.049567 -3.731054,-4.049567 z" id="path2895" style="fill:#d1d2d3;fill-opacity:1;stroke-width:0.0475772" />
		</g>
	</g>
</svg>
