<?xml version="1.0" encoding="UTF-8" standalone="no"?>
<!--
* Copyright (c) 2022, WSO2 LLC. (http://www.wso2.com). All Rights Reserved.
*
* This software is the property of WSO2 LLC. and its suppliers, if any.
* Dissemination of any information or reproduction of any material contained
* herein in any form is strictly forbidden, unless permitted by WSO2 expressly.
* You may not alter or remove any copyright or other notice from copies of this content."
-->

<svg width="154mm" height="124mm" viewBox="0 0 154 124" version="1.1" id="svg5" inkscape:version="1.2 (1:1.2+202206011327+fc4e4096c5)" sodipodi:docname="side-by-side-right-image.svg"
	xmlns:inkscape="http://www.inkscape.org/namespaces/inkscape"
	xmlns:sodipodi="http://sodipodi.sourceforge.net/DTD/sodipodi-0.dtd"
	xmlns="http://www.w3.org/2000/svg"
	xmlns:svg="http://www.w3.org/2000/svg">
	<sodipodi:namedview id="namedview7" pagecolor="#ffffff" bordercolor="#666666" borderopacity="1.0" inkscape:pageshadow="2" inkscape:pageopacity="0.0" inkscape:pagecheckerboard="false" inkscape:document-units="mm" showgrid="false" inkscape:snap-grids="false" inkscape:zoom="0.60647144" inkscape:cx="396.55618" inkscape:cy="562.26885" inkscape:window-width="1848" inkscape:window-height="1024" inkscape:window-x="72" inkscape:window-y="27" inkscape:window-maximized="1" inkscape:current-layer="layer1" width="154mm" inkscape:showpageshadow="2" inkscape:deskcolor="#d1d1d1" />
	<defs id="defs2" />
	<g inkscape:label="Layer 1" inkscape:groupmode="layer" id="layer1">
		<path style="fill:#ffffff;fill-opacity:1;stroke:none;stroke-width:0.30238" d="M -2.845788e-4,62.000003 V 0 H 76.999526 153.99932 V 62.000003 124 H 76.999526 -2.845788e-4 Z" id="path793" />
		<rect style="fill:#d1d2d3;fill-opacity:1;stroke:#ffffff;stroke-width:0.120883;stroke-opacity:1" id="rect3063" width="15.264796" height="2.9713011" x="7.7672777" y="115.532" />
		<rect style="fill:#d1d2d3;fill-opacity:1;stroke:#ffffff;stroke-width:0.104866;stroke-opacity:1" id="rect3063-1" width="11.432714" height="2.9856248" x="38.558243" y="115.52483" />
		<rect style="fill:#d1d2d3;fill-opacity:1;stroke:#ffffff;stroke-width:0.104866;stroke-opacity:1" id="rect3063-1-4" width="11.432714" height="2.9856248" x="53.958206" y="115.52483" />
		<rect style="fill:#d1d2d3;fill-opacity:1;stroke:#ffffff;stroke-width:0.0829776;stroke-opacity:1" id="rect3794" width="8.6024981" height="7.1170435" x="29.661993" y="29.81918" ry="0.52964967" />
		<rect style="fill:none;fill-opacity:1;stroke-width:0.158789;stroke-miterlimit:4;stroke-dasharray:none" id="rect1821" width="68.925995" height="52.269703" x="0.65695804" y="34.765129" ry="0.99790907" />
		<rect style="fill:#d1d2d3;fill-opacity:0.5;stroke:#ffffff;stroke-width:0.140539;stroke-opacity:1" id="rect3063-9" width="23.832758" height="2.5723505" x="9.6502104" y="42.11422" />
		<rect style="fill:#d1d2d3;fill-opacity:0.5;stroke:#ffffff;stroke-width:0.191458;stroke-opacity:1" id="rect3063-9-5" width="44.863457" height="2.5360785" x="12.44322" y="53.220901" />
		<rect style="fill:none;fill-opacity:0.632362;stroke:#d1d2d3;stroke-width:0.271699;stroke-miterlimit:4;stroke-dasharray:none;stroke-opacity:1" id="rect4216" width="49.674488" height="7.3799834" x="9.6258497" y="50.674587" ry="0.79885024" />
		<rect style="fill:#d1d2d3;fill-opacity:1;stroke:none;stroke-width:0.101002;stroke-opacity:1" id="rect4216-1" width="49.674488" height="7.3799834" x="9.6268702" y="74.954559" ry="0.79885018" />
		<rect style="fill:#eff0f2;fill-opacity:0.3;stroke:none;stroke-width:0.178565;stroke-opacity:1" id="rect3063-9-5-5" width="39.022148" height="2.5362232" x="14.935371" y="77.538139" />
		<rect style="fill:#d1d2d3;fill-opacity:0.5;stroke:#ffffff;stroke-width:0.183219;stroke-miterlimit:4;stroke-dasharray:none;stroke-opacity:1" id="rect3063-9-5-1" width="44.863457" height="2.5360785" x="12.505085" y="64.227928" />
		<rect style="fill:none;fill-opacity:0.632362;stroke:#d1d2d3;stroke-width:0.271699;stroke-miterlimit:4;stroke-dasharray:none;stroke-opacity:1" id="rect4216-0" width="49.674488" height="7.3799834" x="9.6796637" y="61.682247" ry="0.79885024" />
		<rect style="fill:#d1d2d3;fill-opacity:0.251413;stroke:none;stroke-width:0.420072" id="rect286" width="84.356285" height="122.86039" x="69.643433" y="0.020426679" />
		<path d="M 123.19662,51.757682 H 99.204894 c -1.88547,0 -3.42784,1.314302 -3.42784,2.920967 v 13.875279 c 0,1.606663 1.54237,2.920968 3.42784,2.920968 h 23.991726 c 1.88547,0 3.42784,-1.314305 3.42784,-2.920968 V 54.678649 c 0,-1.606665 -1.54237,-2.920967 -3.42784,-2.920967 z m 2.14358,16.490467 c 0,1.472557 -0.77118,2.129706 -2.49927,2.129706 H 99.563731 c -1.728085,0 -2.499271,-0.657149 -2.499271,-2.129706 V 54.981743 c 0,-1.472553 0.771186,-2.129702 2.499271,-2.129702 h 23.277199 c 1.72809,0 2.49927,0.657149 2.49927,2.129702 z m -19.92175,-8.824595 3.21064,2.191391 8.35399,-6.024329 6.42758,4.929978 V 68.73632 H 98.990849 v -4.929972 z m -3.85593,-4.927298 c -1.41961,0 -2.571671,0.981705 -2.571671,2.191401 0,1.209696 1.152061,2.191397 2.571671,2.191397 1.41961,0 2.57166,-0.981701 2.57166,-2.191397 0,-1.209696 -1.15205,-2.191401 -2.57166,-2.191401 z" id="path2895" style="fill:#d1d2d3;fill-opacity:1;stroke-width:0.0290567" />
		<g id="g954" transform="matrix(1,0,0,0.99983516,-84.697163,0.37145393)">
			<path style="fill:none;stroke:#dcdcdc;stroke-width:0.627;stroke-linecap:butt;stroke-linejoin:miter;stroke-miterlimit:4;stroke-dasharray:none;stroke-opacity:1" d="m 153.99841,110.94197 c -69.298199,0.67385 -69.298199,0.67385 -69.298199,0.67385" id="path2740-36" />
		</g>
	</g>
</svg>
