<!--
 * Copyright (c) 2020, WSO2 Inc. (http://www.wso2.org) All Rights Reserved.
 *
 * WSO2 Inc. licenses this file to you under the Apache License,
 * Version 2.0 (the "License"); you may not use this file except
 * in compliance with the License.
 * You may obtain a copy of the License at
 *
 *     http://www.apache.org/licenses/LICENSE-2.0
 *
 * Unless required by applicable law or agreed to in writing,
 * software distributed under the License is distributed on an
 * "AS IS" BASIS, WITHOUT WARRANTIES OR CONDITIONS OF ANY
 * KIND, either express or implied. See the License for the
 * specific language governing permissions and limitations
 * under the License.
-->

<svg xmlns="http://www.w3.org/2000/svg" class="icon" width="14" height="14" viewBox="0 0 10.902 14">
    <path id="analytics" class="path fill primary"
          d="M.3,14a1,1,0,0,1,.979-1L3.033,6.885a1,1,0,1,1,1.386-.49l3,2.794a1,1,0,0,1,.478-.183L9.661,2.842A1,1,0,1,1,10.24,3L8.483,9.124a1,1,0,1,1-1.429.549L4.027,6.85a.993.993,0,0,1-.4.142L1.855,13.168A1,1,0,1,1,.3,14Z"
          transform="translate(-0.301 -1.001)" fill="#464646"/>
</svg>
