<!--
 * Copyright (c) 2020, WSO2 Inc. (http://www.wso2.org) All Rights Reserved.
 *
 * WSO2 Inc. licenses this file to you under the Apache License,
 * Version 2.0 (the "License"); you may not use this file except
 * in compliance with the License.
 * You may obtain a copy of the License at
 *
 *     http://www.apache.org/licenses/LICENSE-2.0
 *
 * Unless required by applicable law or agreed to in writing,
 * software distributed under the License is distributed on an
 * "AS IS" BASIS, WITHOUT WARRANTIES OR CONDITIONS OF ANY
 * KIND, either express or implied. See the License for the
 * specific language governing permissions and limitations
 * under the License.
-->

<svg xmlns="http://www.w3.org/2000/svg" class="icon" width="14" height="14" viewBox="0 0 13.998 13.998">
    <path id="git-outline" class="path fill primary"
          d="M6.824,13.824l-6.4-6.4a.6.6,0,0,1,0-.849l6.4-6.4a.6.6,0,0,1,.849,0l6.4,6.4a.6.6,0,0,1,0,.849l-6.4,6.4a.6.6,0,0,1-.849,0ZM1,6.859a.2.2,0,0,0,0,.284l6.116,6.116a.2.2,0,0,0,.283,0l6.116-6.116a.2.2,0,0,0,0-.284L7.4.743a.2.2,0,0,0-.284,0L5.721,2.136,6.877,3.292A1,1,0,0,1,8.2,4.62L9.776,6.192a1,1,0,1,1-.444.4L7.8,5.064a1,1,0,0,1-.2.09V9.1a1,1,0,1,1-.6,0V5.154A1,1,0,0,1,6.432,3.7L5.3,2.561Z"
          transform="translate(-0.249 -0.002)" fill="#464646"/>
</svg>
