<!--
 * Copyright (c) 2020, WSO2 Inc. (http://www.wso2.org) All Rights Reserved.
 *
 * WSO2 Inc. licenses this file to you under the Apache License,
 * Version 2.0 (the "License"); you may not use this file except
 * in compliance with the License.
 * You may obtain a copy of the License at
 *
 *     http://www.apache.org/licenses/LICENSE-2.0
 *
 * Unless required by applicable law or agreed to in writing,
 * software distributed under the License is distributed on an
 * "AS IS" BASIS, WITHOUT WARRANTIES OR CONDITIONS OF ANY
 * KIND, either express or implied. See the License for the
 * specific language governing permissions and limitations
 * under the License.
-->

<svg xmlns="http://www.w3.org/2000/svg" class="icon" width="14" height="14" viewBox="0 0 11.804 14">
    <path id="idp-provider-outline" class="path fill primary"
          d="M5.734,13.964a17.708,17.708,0,0,1-2.819-1.651A9.744,9.744,0,0,1,.946,10.489,3.9,3.9,0,0,1,0,8.1V2.057a.41.41,0,0,1,.293-.392L5.784.017a.42.42,0,0,1,.236,0l5.491,1.648a.41.41,0,0,1,.292.392V8.1a3.9,3.9,0,0,1-.945,2.39,9.775,9.775,0,0,1-1.97,1.825A17.708,17.708,0,0,1,6.07,13.964.418.418,0,0,1,5.9,14,.422.422,0,0,1,5.734,13.964Zm-2.465-2.1A17,17,0,0,0,5.9,13.36a16.992,16.992,0,0,0,2.637-1.5c.1-.07.195-.144.295-.223a3.021,3.021,0,1,0-5.926-.829,2.956,2.956,0,0,0,.133.882Q3.157,11.779,3.269,11.86ZM.6,2.14V8.1a4.667,4.667,0,0,0,1.718,2.973c-.006-.087-.01-.175-.01-.263A3.622,3.622,0,0,1,4.852,7.357a2.483,2.483,0,1,1,2.154,0,3.623,3.623,0,0,1,2.545,3.452c0,.071,0,.141-.006.21A4.6,4.6,0,0,0,11.2,8.1V2.14L5.9.62ZM4.05,5.125A1.885,1.885,0,1,0,5.932,3.239,1.886,1.886,0,0,0,4.05,5.125Z"
          transform="translate(0 0)" fill="#464646"/>
</svg>
