<!--
 * Copyright (c) 2020, WSO2 Inc. (http://www.wso2.org) All Rights Reserved.
 *
 * WSO2 Inc. licenses this file to you under the Apache License,
 * Version 2.0 (the "License"); you may not use this file except
 * in compliance with the License.
 * You may obtain a copy of the License at
 *
 *     http://www.apache.org/licenses/LICENSE-2.0
 *
 * Unless required by applicable law or agreed to in writing,
 * software distributed under the License is distributed on an
 * "AS IS" BASIS, WITHOUT WARRANTIES OR CONDITIONS OF ANY
 * KIND, either express or implied. See the License for the
 * specific language governing permissions and limitations
 * under the License.
-->

<svg xmlns="http://www.w3.org/2000/svg" class="icon" width="14" height="14" viewBox="0 0 14 12.99">
    <path id="pending-approval-outline" class="path fill primary"
          d="M7.08,11.5H1a1,1,0,0,1-1-1V1A1,1,0,0,1,1,0H3.82V3.5a.4.4,0,0,0,.4.4h3a.4.4,0,0,0,.4-.4V0H10.5a1,1,0,0,1,1,1V5.5a3.87,3.87,0,1,1-4.42,6ZM6.86,9.12A3.27,3.27,0,1,0,10.13,5.85,3.274,3.274,0,0,0,6.86,9.12ZM.6,1v9.5a.4.4,0,0,0,.4.4H6.694A3.871,3.871,0,0,1,10.9,5.327V1a.4.4,0,0,0-.4-.4H8.22V3.5a1,1,0,0,1-1,1h-3a1,1,0,0,1-1-1V.6H1A.4.4,0,0,0,.6,1Zm9.49,8.55a.3.3,0,0,1-.3-.3v-2a.3.3,0,0,1,.6,0v1.7h1.7a.3.3,0,0,1,0,.6ZM5.371,3.061l0,0L4.309,2l.424-.424.638.638L6.717.87l.425.425L5.373,3.063Z"
          fill="#464646"/>
</svg>
