<!--
 * Copyright (c) 2020, WSO2 Inc. (http://www.wso2.org) All Rights Reserved.
 *
 * WSO2 Inc. licenses this file to you under the Apache License,
 * Version 2.0 (the "License"); you may not use this file except
 * in compliance with the License.
 * You may obtain a copy of the License at
 *
 *     http://www.apache.org/licenses/LICENSE-2.0
 *
 * Unless required by applicable law or agreed to in writing,
 * software distributed under the License is distributed on an
 * "AS IS" BASIS, WITHOUT WARRANTIES OR CONDITIONS OF ANY
 * KIND, either express or implied. See the License for the
 * specific language governing permissions and limitations
 * under the License.
-->

<svg xmlns="http://www.w3.org/2000/svg" class="icon" width="14" height="14" viewBox="0 0 14.003 14">
    <path id="release-outline" class="path fill primary"
          d="M.6,13.94a.6.6,0,0,1-.6-.6V3.57a.6.6,0,0,1,.6-.6H5.01a.6.6,0,0,1,.6.6V8.33h4.7a.6.6,0,0,1,.6.6v4.41a.6.6,0,0,1-.6.6Zm9.51-.6a.2.2,0,0,0,.2-.2V9.13a.2.2,0,0,0-.2-.2H5.61v4.41ZM.8,13.28h4.21V8.93H.6v4.15A.2.2,0,0,0,.8,13.28Zm4.21-4.95V3.77a.2.2,0,0,0-.2-.2H.8a.2.2,0,0,0-.2.2V8.33ZM10.9,7.083l-3.82-2.2a.6.6,0,0,1-.22-.819l2.2-3.82a.6.6,0,0,1,.82-.22L13.7,2.225a.6.6,0,0,1,.22.82l-2.2,3.82a.6.6,0,0,1-.819.219ZM9.485.712,7.48,4.185a.2.2,0,0,0,.074.274l3.472,2A.2.2,0,0,0,11.3,6.39L13.3,2.917a.2.2,0,0,0-.073-.273L9.759.639a.2.2,0,0,0-.1-.027A.2.2,0,0,0,9.485.712Z"
          transform="translate(0 0.06)" fill="#464646"/>
</svg>
