<!--
 * Copyright (c) 2020, WSO2 Inc. (http://www.wso2.org) All Rights Reserved.
 *
 * WSO2 Inc. licenses this file to you under the Apache License,
 * Version 2.0 (the "License"); you may not use this file except
 * in compliance with the License.
 * You may obtain a copy of the License at
 *
 *     http://www.apache.org/licenses/LICENSE-2.0
 *
 * Unless required by applicable law or agreed to in writing,
 * software distributed under the License is distributed on an
 * "AS IS" BASIS, WITHOUT WARRANTIES OR CONDITIONS OF ANY
 * KIND, either express or implied. See the License for the
 * specific language governing permissions and limitations
 * under the License.
-->

<svg xmlns="http://www.w3.org/2000/svg" class="icon" width="14" height="14" viewBox="0 0 12 14">
    <path id="remote-fetch-outline" class="path fill primary"
          d="M3.75,11.75A2.253,2.253,0,0,1,5.7,9.52V7.3H2.8a1,1,0,0,1-1-1V4.179a2.1,2.1,0,1,1,.63,0V6.2a.5.5,0,0,0,.5.5h6.14a.5.5,0,0,0,.5-.5V4.174a2.1,2.1,0,1,1,.63,0V6.3a1,1,0,0,1-1,1H6.3V9.52a2.25,2.25,0,1,1-2.55,2.23Zm.6,0A1.65,1.65,0,1,0,6,10.1,1.652,1.652,0,0,0,4.35,11.75ZM8.4,2.1A1.5,1.5,0,1,0,9.9.6,1.5,1.5,0,0,0,8.4,2.1ZM.6,2.1A1.5,1.5,0,1,0,2.1.6,1.5,1.5,0,0,0,.6,2.1Z"
          fill="#464646"/>
</svg>
