<?xml version="1.0" encoding="utf-8"?>

<!--
 * Copyright (c) 2020, WSO2 Inc. (http://www.wso2.org) All Rights Reserved.
 *
 * WSO2 Inc. licenses this file to you under the Apache License,
 * Version 2.0 (the "License"); you may not use this file except
 * in compliance with the License.
 * You may obtain a copy of the License at
 *
 *     http://www.apache.org/licenses/LICENSE-2.0
 *
 * Unless required by applicable law or agreed to in writing,
 * software distributed under the License is distributed on an
 * "AS IS" BASIS, WITHOUT WARRANTIES OR CONDITIONS OF ANY
 * KIND, either express or implied. See the License for the
 * specific language governing permissions and limitations
 * under the License.
-->

<svg id="app-icon" class="icon" xmlns="http://www.w3.org/2000/svg" width="14px" height="14px" viewBox="0 0 513 512">
    <g transform="translate(-5326 -2960)">
        <path class="path fill primary"
              d="M217,240H23A23,23,0,0,1,0,217V23A23,23,0,0,1,23,0H217a23,23,0,0,1,23,23V217a23,23,0,0,1-23,23ZM52,38A14.016,14.016,0,0,0,38,52V188a14.016,14.016,0,0,0,14,14H188a14.015,14.015,0,0,0,14-14V52a14.016,14.016,0,0,0-14-14Z"
              transform="translate(5326 2960)"/>
        <path class="path fill primary"
              d="M217,240H23A23,23,0,0,1,0,217V23A23,23,0,0,1,23,0H217a23,23,0,0,1,23,23V217a23,23,0,0,1-23,23ZM52,38A14.016,14.016,0,0,0,38,52V188a14.016,14.016,0,0,0,14,14H188a14.015,14.015,0,0,0,14-14V52a14.016,14.016,0,0,0-14-14Z"
              transform="translate(5598 2960)"/>
        <path class="path fill primary"
              d="M217,240H23A23,23,0,0,1,0,217V23A23,23,0,0,1,23,0H217a23,23,0,0,1,23,23V217a23,23,0,0,1-23,23ZM52,38A14.016,14.016,0,0,0,38,52V188a14.016,14.016,0,0,0,14,14H188a14.015,14.015,0,0,0,14-14V52a14.016,14.016,0,0,0-14-14Z"
              transform="translate(5326 3232)"/>
        <path class="path fill primary" d="M20,0A20,20,0,0,1,40,20V218a20,20,0,0,1-40,0V20A20,20,0,0,1,20,0Z"
              transform="translate(5700 3233)"/>
        <path class="path fill primary" d="M20,0A20,20,0,0,1,40,20V218a20,20,0,0,1-40,0V20A20,20,0,0,1,20,0Z"
              transform="translate(5839 3332) rotate(90)"/>
    </g>
</svg>
