<?xml version="1.0" encoding="utf-8"?>

<!--
 * Copyright (c) 2020, WSO2 Inc. (http://www.wso2.org) All Rights Reserved.
 *
 * WSO2 Inc. licenses this file to you under the Apache License,
 * Version 2.0 (the "License"); you may not use this file except
 * in compliance with the License.
 * You may obtain a copy of the License at
 *
 *     http://www.apache.org/licenses/LICENSE-2.0
 *
 * Unless required by applicable law or agreed to in writing,
 * software distributed under the License is distributed on an
 * "AS IS" BASIS, WITHOUT WARRANTIES OR CONDITIONS OF ANY
 * KIND, either express or implied. See the License for the
 * specific language governing permissions and limitations
 * under the License.
-->

<svg version="1.1" id="authorize-icon" x="0px" y="0px" class="icon" width="14" height="14" viewBox="0 0 480 480" xmlns="http://www.w3.org/2000/svg" xml:space="preserve">
    <path d="m13.536 350 10.588-12c-5.163-4.558-8.122-11.113-8.124-18v-280c.015-13.248 10.752-23.985 24-24h400c13.248.015 23.985 10.752 24 24v280c-.015 13.248-10.752 23.985-24 24h-136v16h136c22.081-.025 39.975-17.919 40-40v-280c-.025-22.081-17.919-39.975-40-40h-400c-22.081.025-39.975 17.919-40 40v280c.003 11.478 4.932 22.403 13.536 30z" />
    <path d="m40 32h16v16h-16z" />
    <path d="m72 32h16v16h-16z" />
    <path d="m104 32h16v16h-16z" />
    <path d="m40 64h400v16h-400z" />
    <path d="m384 112c-30.928 0-56 25.072-56 56s25.072 56 56 56 56-25.072 56-56c-.035-30.913-25.086-55.965-56-56zm0 96c-22.091 0-40-17.909-40-40s17.909-40 40-40 40 17.909 40 40c-.025 22.081-17.919 39.975-40 40z" />
    <path d="m402.343 146.343-26.343 26.344-10.343-10.344-11.314 11.314 16 16c3.124 3.124 8.189 3.124 11.314 0l32-32z" />
    <path d="m344 240h80v16h-80z" />
    <path d="m344 272h80v16h-80z" />
    <path d="m240 112c-30.928 0-56 25.072-56 56s25.072 56 56 56 56-25.072 56-56c-.035-30.913-25.086-55.965-56-56zm0 96c-22.091 0-40-17.909-40-40s17.909-40 40-40 40 17.909 40 40c-.025 22.081-17.919 39.975-40 40z" />
    <path d="m258.343 146.343-26.343 26.344-10.343-10.344-11.314 11.314 16 16c3.124 3.124 8.189 3.124 11.314 0l32-32z" />
    <path d="m200 240h80v16h-80z" />
    <path d="m200 272h80v16h-80z" />
    <path d="m96 128c13.416-.002 25.938 6.726 33.341 17.915l13.324-8.857c-17.085-25.776-51.83-32.822-77.606-15.738-15.652 10.374-25.061 27.903-25.059 46.68 0 3.124.259 6.243.774 9.325l15.78-2.648c-.369-2.206-.554-4.44-.554-6.677.025-22.081 17.919-39.975 40-40z" />
    <path d="m8 480h224c1.285.001 2.55-.31 3.688-.906 24.485-3.736 46.912-18.828 57.422-39.094h42.89c2.122 0 4.157-.843 5.657-2.343l10.343-10.344 10.343 10.344c1.5 1.5 3.535 2.343 5.657 2.343h16c2.122 0 4.157-.843 5.657-2.343l10.343-10.344 10.343 10.344c1.5 1.5 3.535 2.343 5.657 2.343h16c2.675 0 5.172-1.337 6.656-3.562l16-24c1.792-2.687 1.792-6.189 0-8.876l-16-24c-1.484-2.225-3.981-3.562-6.656-3.562h-138.89c-12.171-23.46-40.3-40-69.11-40-14.238-.015-28.156 4.216-39.977 12.152l-5.472-2.179c-.754-.292-1.489-.631-2.2-1.016-.066-.036-.131-.07-.2-.1-14.547-7.398-20.342-25.188-12.944-39.735 1.162-2.284 2.616-4.408 4.325-6.317 10.61-11.731 16.48-26.988 16.468-42.805v-29.68c0-25.542-14.446-49.119-36.777-60.053-7.852-3.883-16.451-6.02-25.207-6.267-8.289-.281-16.552 1.083-24.311 4.013-6.611 2.406-12.753 5.942-18.154 10.45-14.864 12.159-23.504 30.333-23.551 49.537v32c.029 15.814 5.896 31.06 16.475 42.814 9.034 10.1 10.041 25.05 2.442 36.269-.034.049-.067.1-.1.15-2.698 4.132-6.473 7.448-10.917 9.592-.086.042-.171.086-.255.132-.711.385-1.446.724-2.2 1.016l-.1.038-36.261 14.489c-15.189 6.083-25.13 20.818-25.084 37.18v74.32c0 4.418 3.582 8 8 8zm216-128c24.175 0 48.5 15.048 56.585 35 1.222 3.022 4.156 5 7.415 5h139.719l10.666 16-10.666 16h-8.406l-13.656-13.657c-3.124-3.124-8.189-3.124-11.314 0l-13.656 13.657h-9.374l-13.656-13.657c-3.124-3.124-8.189-3.124-11.314 0l-13.656 13.657h-44.687c-3.259 0-6.193 1.978-7.415 5-8.084 19.956-32.41 35-56.585 35-30.928 0-56-25.072-56-56s25.072-56 56-56zm-208 45.68c-.03-9.823 5.933-18.671 15.049-22.331l36.193-14.462c1.322-.513 2.612-1.105 3.862-1.775 6.926-3.418 12.817-8.619 17.068-15.068 11.722-17.318 10.145-40.394-3.825-55.956-3.106-3.427-5.687-7.294-7.659-11.477-.015-.031-.031-.063-.045-.094-3.087-6.397-4.675-13.414-4.643-20.517v-32c.048-14.389 6.522-28.005 17.652-37.125.051-.041.1-.082.15-.124 4.017-3.35 8.588-5.974 13.508-7.751 5.807-2.199 11.994-3.221 18.2-3.007 6.477.179 12.838 1.758 18.647 4.629 16.916 8.283 27.843 26.219 27.843 45.698v29.68c.01 11.847-4.383 23.276-12.326 32.066-16.818 18.707-15.286 47.506 3.422 64.324 2.951 2.653 6.236 4.909 9.771 6.71.537.287 1.076.547 1.612.8-26.57 29.485-24.207 74.926 5.278 101.495.995.897 2.015 1.765 3.058 2.605h-162.815z" />
    <path d="m208 432c13.255 0 24-10.745 24-24s-10.745-24-24-24-24 10.745-24 24c.015 13.249 10.751 23.985 24 24zm0-32c4.418 0 8 3.582 8 8s-3.582 8-8 8-8-3.582-8-8c.005-4.416 3.584-7.995 8-8z" />
</svg>
