<?xml version="1.0" encoding="iso-8859-1"?>

<!--
 * Copyright (c) 2020, WSO2 Inc. (http://www.wso2.org) All Rights Reserved.
 *
 * WSO2 Inc. licenses this file to you under the Apache License,
 * Version 2.0 (the "License"); you may not use this file except
 * in compliance with the License.
 * You may obtain a copy of the License at
 *
 *     http://www.apache.org/licenses/LICENSE-2.0
 *
 * Unless required by applicable law or agreed to in writing,
 * software distributed under the License is distributed on an
 * "AS IS" BASIS, WITHOUT WARRANTIES OR CONDITIONS OF ANY
 * KIND, either express or implied. See the License for the
 * specific language governing permissions and limitations
 * under the License.
-->

<svg class="icon" id="cog-wheel-icon" height="14px" width="14px" xmlns="http://www.w3.org/2000/svg" viewBox="0 0 40.372 40.373">
    <g id="Group_1003">
        <g id="Group_1002">
            <path id="Path_199" class="path fill primary"
                  d="M39.735,15.5l-3.693-.924a17.085,17.085,0,0,0-.683-1.631l1.962-3.271A.841.841,0,0,0,37.2,8.648L31.724,3.176A.841.841,0,0,0,30.7,3.05L27.425,5.013a16.939,16.939,0,0,0-1.63-.683L24.871.637A.841.841,0,0,0,24.055,0H16.318A.841.841,0,0,0,15.5.637L14.578,4.33a16.979,16.979,0,0,0-1.63.683L9.676,3.05a.842.842,0,0,0-1.028.126L3.177,8.648a.841.841,0,0,0-.126,1.028l1.962,3.271a17.037,17.037,0,0,0-.683,1.631L.637,15.5A.841.841,0,0,0,0,16.318v7.737a.841.841,0,0,0,.637.816l3.693.924a17.086,17.086,0,0,0,.683,1.631L3.051,30.7a.841.841,0,0,0,.126,1.028L8.648,37.2a.844.844,0,0,0,1.028.126l3.271-1.962a17.037,17.037,0,0,0,1.631.683l.924,3.693a.841.841,0,0,0,.816.637h7.737a.841.841,0,0,0,.816-.637l.924-3.693a17.085,17.085,0,0,0,1.631-.683L30.7,37.322a.841.841,0,0,0,1.028-.126L37.2,31.724a.841.841,0,0,0,.126-1.028L35.36,27.426a17.038,17.038,0,0,0,.683-1.631l3.693-.924a.841.841,0,0,0,.637-.816V16.318A.841.841,0,0,0,39.735,15.5ZM38.69,23.4l-3.5.876a.839.839,0,0,0-.6.557,15.192,15.192,0,0,1-.94,2.249.84.84,0,0,0,.027.816L35.542,31,31,35.542l-3.1-1.861a.846.846,0,0,0-.816-.027,15.236,15.236,0,0,1-2.25.94.839.839,0,0,0-.557.6l-.876,3.5H16.974l-.876-3.5a.839.839,0,0,0-.557-.6,15.236,15.236,0,0,1-2.25-.94.837.837,0,0,0-.816.027l-3.1,1.861L4.831,31l1.861-3.1a.84.84,0,0,0,.027-.816,15.192,15.192,0,0,1-.94-2.249.839.839,0,0,0-.6-.557l-3.5-.876V16.974l3.5-.876a.839.839,0,0,0,.6-.557,15.193,15.193,0,0,1,.94-2.249.84.84,0,0,0-.027-.816l-1.861-3.1L9.374,4.83l3.1,1.862a.834.834,0,0,0,.816.027,15.192,15.192,0,0,1,2.249-.94.839.839,0,0,0,.557-.6l.876-3.5H23.4l.876,3.5a.839.839,0,0,0,.557.6,15.192,15.192,0,0,1,2.249.94.842.842,0,0,0,.816-.027L31,4.83l4.543,4.544-1.861,3.1a.84.84,0,0,0-.027.816,15.192,15.192,0,0,1,.94,2.249.839.839,0,0,0,.6.557l3.5.876V23.4Z"
                  fill="#464646"/>
            <path id="Path_200" class="path fill primary"
                  d="M138.093,128a10.093,10.093,0,1,0,10.093,10.093A10.1,10.1,0,0,0,138.093,128Zm0,18.5a8.411,8.411,0,1,1,8.411-8.411A8.421,8.421,0,0,1,138.093,146.5Z"
                  transform="translate(-117.907 -117.907)" fill="#464646"/>
        </g>
    </g>
</svg>
