<!--
 * Copyright (c) 2020, WSO2 Inc. (http://www.wso2.org) All Rights Reserved.
 *
 * WSO2 Inc. licenses this file to you under the Apache License,
 * Version 2.0 (the "License"); you may not use this file except
 * in compliance with the License.
 * You may obtain a copy of the License at
 *
 *     http://www.apache.org/licenses/LICENSE-2.0
 *
 * Unless required by applicable law or agreed to in writing,
 * software distributed under the License is distributed on an
 * "AS IS" BASIS, WITHOUT WARRANTIES OR CONDITIONS OF ANY
 * KIND, either express or implied. See the License for the
 * specific language governing permissions and limitations
 * under the License.
-->

<svg version="1.1" id="graph-icon" class="icon" xmlns="http://www.w3.org/2000/svg" x="0px" y="0px" width="14" height="14" viewBox="0 0 511.9 511.9" xml:space="preserve">
	<g>
		<g>
			<path class="path" d="M460.8,25.55c-28.2-0.1-51.1,22.8-51.2,51c0,13.3,5.1,26.1,14.4,35.6l-93.5,187.1c-2-0.3-4.1-0.6-6.2-0.6
				c-6.6,0-13.2,1.3-19.3,3.8l-72.6-81.7c4.2-7.5,6.5-15.9,6.6-24.6c0-28.3-22.9-51.2-51.2-51.2s-51.2,22.9-51.2,51.2
				c0.1,12.2,4.5,24,12.6,33.2l-88.9,155.5c-3-0.6-6.1-0.9-9.1-0.9c-28.3,0-51.2,22.9-51.2,51.2c0,28.3,22.9,51.2,51.2,51.2
				s51.2-22.9,51.2-51.2c-0.1-12.2-4.5-24-12.6-33.2l88.8-155.5c9.5,1.9,19.4,0.9,28.3-2.9l72.6,81.7c-4.2,7.5-6.4,16-6.5,24.6
				c-0.1,28.3,22.8,51.3,51,51.4c28.3,0.1,51.3-22.8,51.4-51c0-13.3-5.1-26.2-14.4-35.8l93.5-187.1c2,0.3,4.1,0.6,6.2,0.6
				c28.3,0,51.2-22.9,51.2-51.2S489.1,25.55,460.8,25.55z"/>
		</g>
	</g>
</svg>
