<?xml version="1.0" encoding="utf-8"?>

<!--
 * Copyright (c) 2019, WSO2 Inc. (http://www.wso2.org) All Rights Reserved.
 *
 * WSO2 Inc. licenses this file to you under the Apache License,
 * Version 2.0 (the "License"); you may not use this file except
 * in compliance with the License.
 * You may obtain a copy of the License at
 *
 *     http://www.apache.org/licenses/LICENSE-2.0
 *
 * Unless required by applicable law or agreed to in writing,
 * software distributed under the License is distributed on an
 * "AS IS" BASIS, WITHOUT WARRANTIES OR CONDITIONS OF ANY
 * KIND, either express or implied. See the License for the
 * specific language governing permissions and limitations
 * under the License.
-->

<svg version="1.1" id="idp-certificate-icon" class="icon" xmlns="http://www.w3.org/2000/svg" viewBox="0 0 512 392.534" style="enable-background:new 0 0 14 14;" xml:space="preserve">
  <g id="patent" transform="translate(0 -59.733)">
    <g id="Group_55" data-name="Group 55">
      <g id="Group_54" data-name="Group 54">
        <path id="Path_257" data-name="Path 257" d="M503.467,59.733H8.533A8.537,8.537,0,0,0,0,68.267V418.134a8.531,8.531,0,0,0,8.533,8.533H230.4V409.6H17.067V76.8H494.934V409.6H281.6v17.067H503.467A8.525,8.525,0,0,0,512,418.134V68.267A8.531,8.531,0,0,0,503.467,59.733Z"/>
      </g>
    </g>
    <g id="Group_57" data-name="Group 57">
      <g id="Group_56" data-name="Group 56">
        <path id="Path_258" data-name="Path 258" d="M469.333,128a25.631,25.631,0,0,1-25.6-25.6,8.531,8.531,0,0,0-8.533-8.533H76.8a8.536,8.536,0,0,0-8.533,8.533,25.631,25.631,0,0,1-25.6,25.6,8.536,8.536,0,0,0-8.533,8.533V349.866a8.531,8.531,0,0,0,8.533,8.533,25.631,25.631,0,0,1,25.6,25.6,8.531,8.531,0,0,0,8.533,8.533H230.4V375.465H84.471A42.8,42.8,0,0,0,51.2,342.185V144.205a42.775,42.775,0,0,0,33.271-33.271H427.528A42.775,42.775,0,0,0,460.8,144.205V342.2a42.775,42.775,0,0,0-33.271,33.271H281.6v17.067H435.2A8.525,8.525,0,0,0,443.733,384a25.631,25.631,0,0,1,25.6-25.6,8.525,8.525,0,0,0,8.533-8.533V136.533A8.53,8.53,0,0,0,469.333,128Z"/>
      </g>
    </g>
    <g id="Group_59" data-name="Group 59">
      <g id="Group_58" data-name="Group 58">
        <path id="Path_259" data-name="Path 259" d="M256,298.667a51.2,51.2,0,1,0,51.2,51.2A51.251,51.251,0,0,0,256,298.667ZM256,384a34.133,34.133,0,1,1,34.133-34.133A34.167,34.167,0,0,1,256,384Z"/>
      </g>
    </g>
    <g id="Group_61" data-name="Group 61">
      <g id="Group_60" data-name="Group 60">
        <path id="Path_260" data-name="Path 260" d="M273.067,384v43.793l-12.339-8.226a8.493,8.493,0,0,0-9.463,0l-12.331,8.226V384H221.867v59.733a8.535,8.535,0,0,0,13.269,7.1L256,436.924l20.864,13.909a8.532,8.532,0,0,0,13.27-7.1V384Z"/>
      </g>
    </g>
    <g id="Group_63" data-name="Group 63">
      <g id="Group_62" data-name="Group 62">
        <rect id="Rectangle_3" data-name="Rectangle 3" width="119.467" height="17.067" transform="translate(196.267 136.533)"/>
      </g>
    </g>
    <g id="Group_65" data-name="Group 65">
      <g id="Group_64" data-name="Group 64">
        <rect id="Rectangle_4" data-name="Rectangle 4" width="332.8" height="17.067" transform="translate(93.867 179.2)"/>
      </g>
    </g>
    <g id="Group_67" data-name="Group 67">
      <g id="Group_66" data-name="Group 66">
        <rect id="Rectangle_5" data-name="Rectangle 5" width="187.733" height="17.067" transform="translate(162.133 221.867)"/>
      </g>
    </g>
    <g id="Group_69" data-name="Group 69">
      <g id="Group_68" data-name="Group 68">
        <rect id="Rectangle_6" data-name="Rectangle 6" width="247.467" height="17.067" transform="translate(128 264.533)"/>
      </g>
    </g>
    <g id="Group_71" data-name="Group 71">
      <g id="Group_70" data-name="Group 70">
        <rect id="Rectangle_7" data-name="Rectangle 7" width="76.8" height="17.067" transform="translate(102.4 324.267)"/>
      </g>
    </g>
    <g id="Group_73" data-name="Group 73">
      <g id="Group_72" data-name="Group 72">
        <rect id="Rectangle_8" data-name="Rectangle 8" width="76.8" height="17.067" transform="translate(332.8 324.267)"/>
      </g>
    </g>
  </g>
</svg>
