<?xml version="1.0" encoding="iso-8859-1"?>

<!--
 * Copyright (c) 2020, WSO2 Inc. (http://www.wso2.org) All Rights Reserved.
 *
 * WSO2 Inc. licenses this file to you under the Apache License,
 * Version 2.0 (the "License"); you may not use this file except
 * in compliance with the License.
 * You may obtain a copy of the License at
 *
 *     http://www.apache.org/licenses/LICENSE-2.0
 *
 * Unless required by applicable law or agreed to in writing,
 * software distributed under the License is distributed on an
 * "AS IS" BASIS, WITHOUT WARRANTIES OR CONDITIONS OF ANY
 * KIND, either express or implied. See the License for the
 * specific language governing permissions and limitations
 * under the License.
-->

<svg xmlns:xlink="http://www.w3.org/1999/xlink" version="1.1" id="lock-shield" class="icon" width="14px" height="14px"
     xmlns="http://www.w3.org/2000/svg" x="0px" y="0px" viewBox="0 0 512.005 512.005"
     style="enable-background:new 0 0 512.005 512.005;" xml:space="preserve">
	<g>
		<g>
			<g>
				<path class="path fill secondary" d="M256.003,234.672c-11.76,0-21.333,9.573-21.333,21.333c0,7.792,4.409,14.329,10.667,18.053v13.947
					c0,5.896,4.771,10.667,10.667,10.667c5.896,0,10.667-4.771,10.667-10.667v-13.947c6.258-3.724,10.667-10.262,10.667-18.053
					C277.336,244.245,267.763,234.672,256.003,234.672z"/>
                <path class="path fill secondary"
                      d="M256.003,149.339c-17.646,0-32,14.354-32,32v10.667h64v-10.667C288.003,163.693,273.648,149.339,256.003,149.339z"/>
                <path class="path fill secondary" d="M440.888,64.609l-181.333-64c-2.292-0.813-4.812-0.813-7.104,0l-181.333,64c-4.26,1.51-7.115,5.542-7.115,10.063v128
					c0,165.646,24.563,226.188,187.198,308.188c1.51,0.76,3.156,1.146,4.802,1.146c1.646,0,3.292-0.385,4.802-1.146
					c162.635-82,187.198-142.542,187.198-308.188v-128C448.003,70.151,445.148,66.12,440.888,64.609z M352.003,320.005
					c0,11.76-9.573,21.333-21.333,21.333H181.336c-11.76,0-21.333-9.573-21.333-21.333V213.339c0-11.76,9.573-21.333,21.333-21.333
					v-10.667c0-41.167,33.5-74.667,74.667-74.667s74.667,33.5,74.667,74.667v10.667c11.76,0,21.333,9.573,21.333,21.333V320.005z"/>
			</g>
		</g>
	</g>
</svg>
