<?xml version="1.0" encoding="utf-8"?>

<!--
 * Copyright (c) 2020, WSO2 Inc. (http://www.wso2.org) All Rights Reserved.
 *
 * WSO2 Inc. licenses this file to you under the Apache License,
 * Version 2.0 (the "License"); you may not use this file except
 * in compliance with the License.
 * You may obtain a copy of the License at
 *
 *     http://www.apache.org/licenses/LICENSE-2.0
 *
 * Unless required by applicable law or agreed to in writing,
 * software distributed under the License is distributed on an
 * "AS IS" BASIS, WITHOUT WARRANTIES OR CONDITIONS OF ANY
 * KIND, either express or implied. See the License for the
 * specific language governing permissions and limitations
 * under the License.
-->

<svg id="plug-icon" class="icon" xmlns="http://www.w3.org/2000/svg" width="14px" height="14px"
     viewBox="0 0 574.516 624.413">
    <g transform="translate(1426.422 -1005.235)">
        <path class="path fill primary"
              d="M344.83,383.761a20.872,20.872,0,0,0-29.528,0l-71.7,71.7a69.783,69.783,0,0,1-98.551,0L125.57,435.967a69.77,69.77,0,0,1,0-98.551l71.7-71.7a20.879,20.879,0,0,0-29.528-29.528l-71.7,71.7a111.587,111.587,0,0,0,0,157.615l19.49,19.49a111.551,111.551,0,0,0,157.6-.008l71.7-71.7A20.872,20.872,0,0,0,344.83,383.761Z"
              transform="translate(-1451.848 1023.902)"/>
        <path class="path fill primary"
              d="M344.416,406.372,159.953,221.91a20.884,20.884,0,0,0-29.534,29.534L314.881,435.906a20.884,20.884,0,0,0,29.536-29.534Z"
              transform="translate(-1432.619 1019.389)"/>
        <path class="path fill primary"
              d="M338.006,271.709a20.893,20.893,0,0,0-29.534-.146l-73.786,73.089a20.884,20.884,0,0,0,29.388,29.681l73.785-73.089A20.886,20.886,0,0,0,338.006,271.709Z"
              transform="translate(-1399.688 1035.105)"/>
        <path class="path fill primary"
              d="M267.875,201.746a20.886,20.886,0,0,0-29.535.14L165.252,275.67a20.885,20.885,0,0,0,29.675,29.4l73.089-73.785A20.886,20.886,0,0,0,267.875,201.746Z"
              transform="translate(-1421.588 1013.039)"/>
        <path class="path fill primary"
              d="M484.992,115.574l-19.5-19.49a111.19,111.19,0,0,0-157.6,0l-71.7,71.7a20.882,20.882,0,0,0,29.534,29.528l71.7-71.7a69.762,69.762,0,0,1,98.545,0l19.5,19.49a69.774,69.774,0,0,1,0,98.545l-71.7,71.7a20.882,20.882,0,0,0,29.521,29.541l71.7-71.7A111.583,111.583,0,0,0,484.992,115.574Z"
              transform="translate(-1399.189 971.208)"/>
        <path class="path fill primary"
              d="M435.912,314.874,251.45,130.411a20.879,20.879,0,1,0-29.528,29.528L406.385,344.4a20.879,20.879,0,0,0,29.528-29.528Z"
              transform="translate(-1403.701 990.472)"/>
        <path class="path fill primary"
              d="M106.167,410.677a12.531,12.531,0,1,0-17.724-17.72L77.582,403.821c-21.434,21.43-21.484,56.69-.109,78.6a12.531,12.531,0,1,0,17.941-17.5c-11.843-12.135-11.888-31.6-.109-43.377Z"
              transform="matrix(0.017, 1, -1, 0.017, -574.09, 1019.418)"/>
        <path class="path fill primary" d="M0,0H99V41H0Z" transform="translate(-950.901 1075.238) rotate(-45)"/>
        <path class="path fill primary"
              d="M-16.818,110.513S-26.882,57.6,10.463,23.144,102.536,0,102.536,0L98.014,40.694s-45.33-10-62.341,14-12.067,52.165-12.067,52.165Z"
              transform="translate(-1412.402 1538.739) rotate(-45)"/>
    </g>
</svg>
