<?xml version="1.0" encoding="iso-8859-1"?>

<!--
 * Copyright (c) 2020, WSO2 Inc. (http://www.wso2.org) All Rights Reserved.
 *
 * WSO2 Inc. licenses this file to you under the Apache License,
 * Version 2.0 (the "License"); you may not use this file except
 * in compliance with the License.
 * You may obtain a copy of the License at
 *
 *     http://www.apache.org/licenses/LICENSE-2.0
 *
 * Unless required by applicable law or agreed to in writing,
 * software distributed under the License is distributed on an
 * "AS IS" BASIS, WITHOUT WARRANTIES OR CONDITIONS OF ANY
 * KIND, either express or implied. See the License for the
 * specific language governing permissions and limitations
 * under the License.
-->

<svg id="scope-icon" class="icon" width="14" height="14" xmlns="http://www.w3.org/2000/svg" viewBox="0 0 60 60" xml:space="preserve">
	<g>
		<path d="M59,29h-2.025C56.458,14.907,45.093,3.542,31,3.025V1c0-0.553-0.447-1-1-1s-1,0.447-1,1v2.025
			C14.907,3.542,3.542,14.907,3.025,29H1c-0.553,0-1,0.447-1,1s0.447,1,1,1h2.025C3.542,45.093,14.907,56.458,29,56.975V59
			c0,0.553,0.447,1,1,1s1-0.447,1-1v-2.025C45.093,56.458,56.458,45.093,56.975,31H59c0.553,0,1-0.447,1-1S59.553,29,59,29z
			 M31,54.975V53c0-0.553-0.447-1-1-1s-1,0.447-1,1v1.975C16.01,54.46,5.54,43.99,5.025,31H7c0.553,0,1-0.447,1-1s-0.447-1-1-1H5.025
			C5.54,16.01,16.01,5.54,29,5.025V7c0,0.553,0.447,1,1,1s1-0.447,1-1V5.025C43.99,5.54,54.46,16.01,54.975,29H53
			c-0.553,0-1,0.447-1,1s0.447,1,1,1h1.975C54.46,43.99,43.99,54.46,31,54.975z"/>
		<path d="M42,29h-5.08c-0.441-3.059-2.861-5.479-5.92-5.92V18c0-0.553-0.447-1-1-1s-1,0.447-1,1v5.08
			c-3.059,0.441-5.479,2.862-5.92,5.92H18c-0.553,0-1,0.447-1,1s0.447,1,1,1h5.08c0.441,3.059,2.861,5.479,5.92,5.92V42
			c0,0.553,0.447,1,1,1s1-0.447,1-1v-5.08c3.059-0.441,5.479-2.862,5.92-5.92H42c0.553,0,1-0.447,1-1S42.553,29,42,29z M30,35
			c-2.757,0-5-2.243-5-5s2.243-5,5-5s5,2.243,5,5S32.757,35,30,35z"/>
	</g>
</svg>
