<?xml version="1.0" encoding="iso-8859-1"?>

<!--
 * Copyright (c) 2020, WSO2 Inc. (http://www.wso2.org) All Rights Reserved.
 *
 * WSO2 Inc. licenses this file to you under the Apache License,
 * Version 2.0 (the "License"); you may not use this file except
 * in compliance with the License.
 * You may obtain a copy of the License at
 *
 *     http://www.apache.org/licenses/LICENSE-2.0
 *
 * Unless required by applicable law or agreed to in writing,
 * software distributed under the License is distributed on an
 * "AS IS" BASIS, WITHOUT WARRANTIES OR CONDITIONS OF ANY
 * KIND, either express or implied. See the License for the
 * specific language governing permissions and limitations
 * under the License.
-->

<svg viewBox="0 0 457.14286 457.14286"  class="icon" id="server-icon" height="14" width="14" xmlns="http://www.w3.org/2000/svg">
    <path class="path fill primary" d="m448 323.75h-438.855469c-5.054687 0-9.144531 4.09375-9.144531 9.144531v115.105469c0 5.050781 4.089844 9.144531 9.144531 9.144531h438.855469c5.054688 0 9.144531-4.09375 9.144531-9.144531v-115.105469c0-5.050781-4.089843-9.144531-9.144531-9.144531zm-9.144531 115.105469h-420.570313v-96.820313h420.570313zm0 0" />
    <path class="path fill secondary" d="m55.242188 422.445312h45.714843c5.050781 0 9.140625-4.09375 9.140625-9.140624v-45.714844c0-5.050782-4.089844-9.144532-9.140625-9.144532h-45.714843c-5.054688 0-9.144532 4.09375-9.144532 9.144532v45.714844c0 5.046874 4.089844 9.140624 9.144532 9.140624zm9.140624-45.714843h27.429688v27.429687h-27.429688zm0 0" />
    <path class="path fill primary" d="m157.332031 399.589844h244.570313c5.054687 0 9.140625-4.09375 9.140625-9.144532 0-5.046874-4.085938-9.140624-9.140625-9.140624h-244.570313c-5.054687 0-9.144531 4.09375-9.144531 9.140624 0 5.050782 4.089844 9.144532 9.144531 9.144532zm0 0" />
    <path class="path fill primary" d="m448 161.875h-438.855469c-5.054687 0-9.144531 4.09375-9.144531 9.144531v115.105469c0 5.050781 4.089844 9.144531 9.144531 9.144531h438.855469c5.054688 0 9.144531-4.09375 9.144531-9.144531v-115.105469c0-5.050781-4.089843-9.144531-9.144531-9.144531zm-9.144531 115.105469h-420.570313v-96.820313h420.570313zm0 0" />
    <path class="path fill secondary" d="m55.242188 260.570312h45.714843c5.050781 0 9.140625-4.09375 9.140625-9.140624v-45.714844c0-5.050782-4.089844-9.144532-9.140625-9.144532h-45.714843c-5.054688 0-9.144532 4.09375-9.144532 9.144532v45.714844c0 5.046874 4.089844 9.140624 9.144532 9.140624zm9.140624-45.714843h27.429688v27.429687h-27.429688zm0 0" />
    <path class="path fill primary" d="m157.332031 237.714844h244.570313c5.054687 0 9.140625-4.09375 9.140625-9.144532 0-5.046874-4.085938-9.140624-9.140625-9.140624h-244.570313c-5.054687 0-9.144531 4.09375-9.144531 9.140624 0 5.050782 4.089844 9.144532 9.144531 9.144532zm0 0" />
    <path class="path fill primary" d="m448 0h-438.855469c-5.054687 0-9.144531 4.09375-9.144531 9.144531v115.105469c0 5.050781 4.089844 9.144531 9.144531 9.144531h438.855469c5.054688 0 9.144531-4.09375 9.144531-9.144531v-115.105469c0-5.050781-4.089843-9.144531-9.144531-9.144531zm-9.144531 115.105469h-420.570313v-96.820313h420.570313zm0 0" />
    <path class="path fill secondary" d="m55.242188 98.695312h45.714843c5.050781 0 9.140625-4.09375 9.140625-9.140624v-45.714844c0-5.050782-4.089844-9.144532-9.140625-9.144532h-45.714843c-5.054688 0-9.144532 4.09375-9.144532 9.144532v45.714844c0 5.046874 4.089844 9.140624 9.144532 9.140624zm9.140624-45.714843h27.429688v27.429687h-27.429688zm0 0" />
    <path class="path fill primary" d="m157.332031 75.839844h244.570313c5.054687 0 9.140625-4.09375 9.140625-9.144532 0-5.046874-4.085938-9.140624-9.140625-9.140624h-244.570313c-5.054687 0-9.144531 4.09375-9.144531 9.140624 0 5.050782 4.089844 9.144532 9.144531 9.144532zm0 0" />
</svg>
