<?xml version="1.0"?>

<!--
 * Copyright (c) 2019, WSO2 Inc. (http://www.wso2.org) All Rights Reserved.
 *
 * WSO2 Inc. licenses this file to you under the Apache License,
 * Version 2.0 (the "License"); you may not use this file except
 * in compliance with the License.
 * You may obtain a copy of the License at
 *
 *     http://www.apache.org/licenses/LICENSE-2.0
 *
 * Unless required by applicable law or agreed to in writing,
 * software distributed under the License is distributed on an
 * "AS IS" BASIS, WITHOUT WARRANTIES OR CONDITIONS OF ANY
 * KIND, either express or implied. See the License for the
 * specific language governing permissions and limitations
 * under the License.
-->

<svg class="icon" width="14px" height="14px" id="fido-icon" xmlns="http://www.w3.org/2000/svg" viewBox="0 0 511.74256 511">
    <path d="m132.734375 149.367188c-2.773437 1.265624-4.664063 3.914062-4.953125 6.949218-.292969 3.035156 1.058594 5.996094 3.539062 7.765625 2.484376 1.769531 5.722657 2.078125 8.496094.816407 12.730469-5.824219 26.273438-9.660157 40.167969-11.367188 4.679687-.574219 8.007813-4.835938 7.433594-9.515625-.578125-4.679687-4.835938-8.007813-9.515625-7.433594-15.621094 1.929688-30.855469 6.242188-45.167969 12.785157zm0 0"/>
    <path d="m72.789062 435.234375c.921876-.003906 1.835938-.152344 2.710938-.445313 4.46875-1.5 6.875-6.335937 5.378906-10.804687-2.921875-8.75-4.386718-17.925781-4.335937-27.152344v-21.757812c0-4.714844-3.820313-8.535157-8.535157-8.535157-4.710937 0-8.53125 3.820313-8.53125 8.535157v22.269531c-.007812 10.902344 1.753907 21.730469 5.214844 32.070312 1.164063 3.476563 4.425782 5.820313 8.097656 5.820313zm0 0"/>
    <path d="m102.347656 194.867188c4.171875-5.257813 8.824219-10.117188 13.902344-14.507813 3.4375-3.109375 3.765625-8.394531.738281-11.902344-3.027343-3.511719-8.304687-3.960937-11.882812-1.015625-5.875 5.089844-11.261719 10.714844-16.085938 16.808594-10.136719 12.601562-17.863281 26.960938-22.792969 42.359375-4.496093 13.742187-6.773437 28.109375-6.75 42.566406v71.761719c0 4.714844 3.820313 8.535156 8.53125 8.535156 4.714844 0 8.535157-3.820312 8.535157-8.535156v-71.761719c-.03125-12.683593 1.964843-25.285156 5.914062-37.335937 4.296875-13.441406 11.042969-25.976563 19.890625-36.972656zm0 0"/>
    <path d="m315.476562 264.523438c.394532 0 .785157-.027344 1.175782-.078126 4.664062-.648437 7.921875-4.949218 7.28125-9.617187-8.398438-61.0625-53.453125-109.667969-109.570313-118.210937-4.660156-.707032-9.011719 2.5-9.71875 7.160156s2.5 9.011718 7.160157 9.71875c48.640624 7.398437 87.894531 50.03125 95.230468 103.65625.582032 4.21875 4.183594 7.363281 8.441406 7.371094zm0 0"/>
    <path d="m255.648438 267.21875c-1.207032-34.476562-29.410157-61.855469-63.90625-62.042969-3.699219-.023437-7.390626.304688-11.023438.980469-14.917969 2.601562-28.417969 10.4375-38.078125 22.101562-8.703125 10.191407-13.84375 22.945313-14.640625 36.324219-.195312 1.523438-.28125 3.058594-.257812 4.59375v40.191407c0 15.964843 0 35.257812.085937 55.636718-.066406 30.261719 13.492187 58.945313 36.914063 78.105469l8.210937 6.730469c61.4375 50.410156 61.601563 50.503906 62.292969 50.964844 3.8125 2.527343 8.945312 1.566406 11.585937-2.167969 2.691407-3.734375 1.9375-8.929688-1.703125-11.742188-1.707031-1.308593-30.660156-25.070312-61.355468-50.246093l-8.210938-6.742188c-19.582031-16.066406-30.855469-40.125-30.667969-65.457031-.085937-19.867188-.085937-39.132813-.085937-55.082031v-40.191407c-.023438-.953125.027344-1.90625.152344-2.851562.527343-9.976563 4.308593-19.503907 10.769531-27.121094 7.121093-8.597656 17.082031-14.367187 28.085937-16.269531 2.613282-.484375 5.269532-.714844 7.925782-.691406 25.359374.125 46.066406 20.304687 46.847656 45.652343-.027344.429688.003906.859375.085937 1.28125v43.519531c0 17.679688 4.664063 35.046876 13.527344 50.34375 1.449219 2.777344 4.308594 4.535157 7.445313 4.578126 3.132812.042968 6.039062-1.636719 7.566406-4.375 1.527344-2.734376 1.429687-6.089844-.25-8.734376-7.433594-12.894531-11.308594-27.53125-11.222656-42.410156v-42.921875c.003906-.65625-.027344-1.304687-.09375-1.957031zm0 0"/>
    <path d="m198.980469 426.988281c16.46875 13.484375 31.410156 25.667969 41.886719 34.1875.25.265625.523437.515625.8125.742188l8.535156 6.902343c7.183594 5.863282 7.183594 5.863282 8.804687 6.40625.878907.308594 1.804688.464844 2.738281.460938 3.769532.007812 7.09375-2.460938 8.179688-6.066406 1.089844-3.609375-.316406-7.503906-3.460938-9.582032-.75-.582031-2.644531-2.132812-5.484374-4.445312l-7.734376-6.289062c-.246093-.261719-.507812-.503907-.792968-.726563-10.496094-8.53125-25.761719-20.984375-42.664063-34.789063-19.488281-15.949218-30.769531-39.816406-30.722656-65v-11.304687c-.085937-16.964844-.085937-32.425781-.085937-44.332031v-23.976563c-.011719-6.75 5.214843-12.351562 11.949218-12.800781 3.355469-.191406 6.628906 1.074219 8.984375 3.472656 2.933594 2.785156 4.601563 6.648438 4.617188 10.691406v13.609376c0 10.660156 0 26.171874-.085938 44.203124v.992188c.125 30 13.570313 58.394531 36.695313 77.507812 3.523437 2.925782 6.960937 5.757813 10.144531 8.335938 2.371094 1.921875 5.589844 2.433594 8.4375 1.339844 2.851563-1.09375 4.902344-3.625 5.382813-6.636719.476562-3.015625-.6875-6.058594-3.058594-7.980469-3.132813-2.558594-6.519532-5.34375-10.019532-8.234375-19.222656-15.886719-30.398437-39.484375-30.515624-64.417969v-.992187c.085937-17.917969.085937-33.484375.085937-44.160156v-13.566407c-.03125-8.734374-3.636719-17.074218-9.976563-23.082031-5.796874-5.605469-13.664062-8.546875-21.714843-8.117187-15.765625.96875-28.054688 14.039062-28.042969 29.835937v23.976563c0 11.945312 0 27.417968.085938 44.375v11.261718c-.046876 30.308594 13.546874 59.027344 37.019531 78.199219zm0 0"/>
    <path d="m60.328125 41.007812c2.085937 4.222657 7.195313 5.960938 11.417969 3.882813 53.835937-26.421875 114.976562-34.050781 173.652344-21.664063 4.609374.988282 9.148437-1.945312 10.140624-6.554687.988282-4.609375-1.945312-9.148437-6.554687-10.136719-62.425781-13.1875-127.472656-5.078125-184.746094 23.039063-2.039062.996093-3.59375 2.761719-4.328125 4.90625s-.582031 4.496093.417969 6.527343zm0 0"/>
    <path d="m310.851562 49.824219c2.5625 1.746093 5.867188 1.964843 8.636719.574219 2.769531-1.394532 4.566407-4.179688 4.695313-7.273438.125-3.097656-1.4375-6.023438-4.082032-7.636719-11.265624-7.257812-23.085937-13.621093-35.34375-19.027343-2.824218-1.417969-6.195312-1.160157-8.769531.667968-2.570312 1.828125-3.925781 4.925782-3.519531 8.054688.40625 3.132812 2.507812 5.78125 5.460938 6.890625 11.421874 5.046875 22.429687 10.984375 32.921874 17.75zm0 0"/>
    <path d="m21.195312 107.066406c-2.148437 2.203125-2.945312 5.398438-2.078124 8.351563.863281 2.957031 3.253906 5.21875 6.253906 5.914062 3 .699219 6.140625-.273437 8.222656-2.539062 40.28125-43.035157 96.644531-67.386719 155.589844-67.21875 18.828125-.035157 37.578125 2.472656 55.738281 7.457031 2.9375.816406 6.089844 0 8.261719-2.140625 2.175781-2.136719 3.042968-5.273437 2.28125-8.222656-.765625-2.953125-3.046875-5.273438-5.984375-6.089844-19.644531-5.390625-39.925781-8.105469-60.296875-8.070313-63.640625-.1875-124.496094 26.097657-167.988282 72.558594zm0 0"/>
    <path d="m133.894531 77.164062c-22.242187 6.414063-43.277343 16.453126-62.25 29.714844-2.496093 1.75-3.871093 4.699219-3.601562 7.734375.265625 3.039063 2.132812 5.703125 4.894531 6.992188 2.765625 1.285156 6.007812 1 8.503906-.75 17.4375-12.1875 36.769532-21.414063 57.214844-27.304688 2.929688-.851562 5.179688-3.199219 5.910156-6.160156.726563-2.960937-.183594-6.085937-2.382812-8.199219-2.199219-2.109375-5.359375-2.886718-8.289063-2.035156zm0 0"/>
    <path d="m5.902344 217.8125c4.484375 1.449219 9.292968-1.007812 10.746094-5.488281 8.25-25.519531 22.09375-48.875 40.515624-68.367188 3.230469-3.4375 3.0625-8.839843-.371093-12.070312-3.4375-3.230469-8.839844-3.066407-12.070313.371093-20.148437 21.328126-35.285156 46.882813-44.304687 74.800782-.699219 2.15625-.5156252 4.496094.515625 6.515625 1.027344 2.015625 2.816406 3.539062 4.96875 4.238281zm0 0"/>
    <path d="m383.742188 256.375c.3125 0 .628906-.019531.9375-.050781 4.675781-.515625 8.050781-4.714844 7.554687-9.386719-11.445313-101.886719-97.839844-178.761719-200.363281-178.296875-7.480469.007813-14.949219.425781-22.382813 1.246094-3.070312.28125-5.753906 2.195312-7.015625 5.007812-1.257812 2.816407-.902344 6.089844.933594 8.570313 1.835938 2.476562 4.863281 3.773437 7.925781 3.386718 6.820313-.753906 13.675781-1.136718 20.539063-1.144531 93.800781-.457031 172.875 69.851563 183.390625 163.0625.472656 4.328125 4.128906 7.605469 8.480469 7.605469zm0 0"/>
    <path d="m349.609375 264.140625h.769531c2.261719-.195313 4.355469-1.285156 5.816406-3.03125 1.457032-1.746094 2.15625-4 1.945313-6.261719-3.394531-36.476562-18.808594-70.792968-43.816406-97.5625-3.222657-3.453125-8.632813-3.640625-12.082031-.417968-3.453126 3.222656-3.640626 8.628906-.417969 12.082031 22.402343 23.988281 36.207031 54.734375 39.25 87.417969.394531 4.414062 4.101562 7.789062 8.535156 7.773437zm0 0"/>
    <path d="m55.816406 207.570312c24.636719-54.820312 79.867188-89.410156 139.945313-87.644531 3.046875.082031 5.910156-1.46875 7.503906-4.066406 1.597656-2.597656 1.683594-5.851563.230469-8.535156-1.453125-2.679688-4.226563-4.382813-7.273438-4.464844-66.933594-1.925781-128.449218 36.601563-155.929687 97.664063-8.6875 18.890624-13.703125 39.265624-14.78125 60.03125-.082031 2.808593-.167969 5.71875-.167969 8.621093 0 19.078125 0 29.300781.101562 30.386719.277344 4.5 4.023438 7.996094 8.53125 7.960938h.429688c4.652344-.269532 8.242188-4.207032 8.078125-8.867188-.074219-2.261719-.074219-28.074219-.074219-29.480469 0-2.734375.085938-5.464843.152344-7.894531.988281-18.578125 5.484375-36.804688 13.253906-53.710938zm0 0"/>
    <path d="m231.191406 125.183594c16.265625 4.332031 31.644532 11.480468 45.441406 21.117187 2.507813 1.742188 5.757813 2.015625 8.519532.714844 2.761718-1.304687 4.621094-3.980469 4.878906-7.023437.253906-3.042969-1.136719-5.992188-3.644531-7.734376-15.460938-10.796874-32.695313-18.792968-50.917969-23.628906l-3.160156-.769531c-2.980469-.824219-6.179688.03125-8.351563 2.238281-2.171875 2.203125-2.980469 5.414063-2.109375 8.382813.867188 2.972656 3.28125 5.238281 6.296875 5.925781zm0 0"/>
    <path d="m289.875 296.097656v-24.578125c.886719-36.464843-18.542969-70.40625-50.4375-88.109375-31.894531-17.699218-70.976562-16.234375-101.453125 3.808594-12.554687 8.183594-23.066406 19.136719-30.722656 32.019531-6.824219 11.390625-11.183594 24.089844-12.800781 37.273438-.566407 4.195312-.851563 8.425781-.851563 12.664062v111.957031c-.058594 30.257813 13.492187 58.9375 36.90625 78.105469l18.671875 15.359375c16.210938 13.328125 31.324219 25.746094 42.792969 35.113282 2.363281 1.925781 5.574219 2.449218 8.425781 1.363281 2.847656-1.082031 4.90625-3.601563 5.390625-6.613281.488281-3.007813-.667969-6.050782-3.027344-7.976563-11.460937-9.386719-26.558593-21.757813-42.753906-35.070313l-18.664063-15.359374c-19.550781-16.046876-30.824218-40.058594-30.675781-65.351563v-111.527344c.039063-14.492187 3.921875-28.710937 11.253907-41.210937 16.28125-27.390625 47.03125-42.777344 78.714843-39.386719 41.71875 5.101563 72.859375 40.875 72.164063 82.898437v25.003907c.007812 4.152343.289062 8.296875.855468 12.40625.628907 4.671875 4.929688 7.945312 9.597657 7.316406 4.671875-.632813 7.945312-4.929687 7.3125-9.601563-.472657-3.480468-.707031-6.992187-.699219-10.503906zm0 0"/>
    <path d="m278.058594 69.871094c33.191406 14.742187 62.226562 37.457031 84.53125 66.125 1.847656 2.464844 4.886718 3.746094 7.945312 3.339844 3.054688-.402344 5.660156-2.425782 6.804688-5.289063 1.144531-2.863281.65625-6.121094-1.277344-8.523437-24.082031-30.953126-55.449219-55.460938-91.304688-71.339844-.054687 0-.113281 0-.171874 0-.238282-.101563-.519532-.082032-.761719-.167969-.796875-.300781-1.632813-.480469-2.480469-.539063h-.105469c-.597656.054688-1.191406.175782-1.765625.359376-.4375.046874-.871094.136718-1.296875.265624-3.265625 1.238282-5.441406 4.355469-5.472656 7.847657-.027344 3.496093 2.089844 6.652343 5.335937 7.945312zm0 0"/>
    <path d="m486.140625 340.980469h-9.027344c-4.425781-38.792969-37.257812-68.09375-76.304687-68.09375s-71.878906 29.300781-76.304688 68.09375h-9.027344c-14.140624 0-25.601562 11.464843-25.601562 25.601562v119.464844c0 14.140625 11.460938 25.601563 25.601562 25.601563h170.664063c14.140625 0 25.601563-11.460938 25.601563-25.601563v-119.464844c0-14.136719-11.460938-25.601562-25.601563-25.601562zm-85.332031-51.242188c29.679687.054688 54.824218 21.871094 59.058594 51.242188h-17.246094c-4.035156-19.882813-21.519532-34.175781-41.8125-34.175781-20.289063 0-37.773438 14.292968-41.8125 34.175781h-17.246094c4.238281-29.371094 29.382812-51.1875 59.058594-51.242188zm24.039062 51.242188h-48.078125c3.546875-10.242188 13.199219-17.117188 24.039063-17.117188 10.84375 0 20.492187 6.875 24.039062 17.117188zm69.828125 145.066406c0 4.714844-3.820312 8.535156-8.535156 8.535156h-170.664063c-4.714843 0-8.535156-3.820312-8.535156-8.535156v-119.464844c0-4.710937 3.820313-8.535156 8.535156-8.535156h170.664063c4.714844 0 8.535156 3.824219 8.535156 8.535156zm0 0"/>
    <path d="m422.714844 383.402344c-14.347656-11.855469-35.535156-10.074219-47.699219 4.015625-12.160156 14.085937-10.835937 35.308593 2.984375 47.773437l-9.328125 17.363282c-2.84375 5.476562-2.636719 12.039062.546875 17.324218 2.878906 4.917969 8.140625 7.949219 13.839844 7.976563h35.5c5.699218-.023438 10.960937-3.054688 13.839844-7.96875 3.195312-5.3125 3.386718-11.910157.503906-17.398438l-9.054688-17.726562c7.261719-6.644531 11.300782-16.101563 11.078125-25.941407-.21875-9.839843-4.679687-19.105468-12.230469-25.417968zm-14.277344 59.605468 9.207031 17.78125-33.902343-.230468 9.285156-17.277344c3.820312-6.929688 2.378906-15.578125-3.480469-20.890625-4.902344-4.292969-6.933594-11-5.234375-17.289063 1.695312-6.289062 6.824219-11.0625 13.21875-12.304687 1.082031-.191406 2.179688-.28125 3.277344-.273437 4-.019532 7.878906 1.386718 10.941406 3.960937 3.882812 3.242187 6.128906 8.042969 6.125 13.105469.039062 4.78125-1.960938 9.351562-5.503906 12.5625-5.9375 5.226562-7.558594 13.824218-3.933594 20.855468zm0 0"/>
</svg>
