<svg width="16" height="16" viewBox="0 0 16 16" fill="none" xmlns="http://www.w3.org/2000/svg">
<path fill-rule="evenodd" clip-rule="evenodd" d="M7.5 0.5C5.84315 0.5 4.5 1.84315 4.5 3.5V5.5H3.5C2.11929 5.5 1 6.61929 1 8V12.5C1 13.8807 2.11929 15 3.5 15H4C4.27614 15 4.5 14.7761 4.5 14.5C4.5 14.2239 4.27614 14 4 14H3.5C2.67157 14 2 13.3284 2 12.5V8C2 7.17157 2.67157 6.5 3.5 6.5H11.7352C12.5637 6.5 13.2352 7.17157 13.2352 8V8.25V9.23184C13.2352 9.50799 13.4591 9.73184 13.7352 9.73184C14.0114 9.73184 14.2352 9.50799 14.2352 9.23184V8.25V8C14.2352 6.61929 13.1159 5.5 11.7352 5.5H10.5V3.5C10.5 1.84315 9.15685 0.5 7.5 0.5ZM9.5 5.5V3.5C9.5 2.39543 8.60457 1.5 7.5 1.5C6.39543 1.5 5.5 2.39543 5.5 3.5V5.5H9.5ZM14.1272 11.3369C14.0821 10.8877 13.4179 10.8877 13.3728 11.3369L13.2426 12.6336L12.0386 12.0964C11.6215 11.9103 11.2895 12.4774 11.6615 12.7405L12.7353 13.5L11.6615 14.2595C11.2895 14.5226 11.6215 15.0897 12.0386 14.9036L13.2426 14.3664L13.3728 15.6631C13.4179 16.1123 14.0821 16.1123 14.1272 15.6631L14.2574 14.3664L15.4614 14.9036C15.8785 15.0897 16.2105 14.5226 15.8385 14.2595L14.7647 13.5L15.8385 12.7405C16.2105 12.4774 15.8785 11.9103 15.4614 12.0964L14.2574 12.6336L14.1272 11.3369ZM7.87282 11.3369C7.91792 10.8877 8.58208 10.8877 8.62718 11.3369L8.75736 12.6336L9.96137 12.0964C10.3785 11.9103 10.7105 12.4774 10.3385 12.7405L9.26472 13.5L10.3385 14.2595C10.7105 14.5226 10.3785 15.0897 9.96137 14.9036L8.75736 14.3664L8.62718 15.6631C8.58208 16.1123 7.91792 16.1123 7.87282 15.6631L7.74264 14.3664L6.53863 14.9036C6.12154 15.0897 5.78945 14.5226 6.16145 14.2595L7.23528 13.5L6.16145 12.7405C5.78945 12.4774 6.12154 11.9103 6.53863 12.0964L7.74264 12.6336L7.87282 11.3369Z" fill="black"/>
</svg>
