<!--
 * Copyright (c) 2023-2024, WSO2 LLC. (https://www.wso2.com).
 *
 * WSO2 Inc. licenses this file to you under the Apache License,
 * Version 2.0 (the "License"); you may not use this file except
 * in compliance with the License.
 * You may obtain a copy of the License at
 *
 *     http://www.apache.org/licenses/LICENSE-2.0
 *
 * Unless required by applicable law or agreed to in writing,
 * software distributed under the License is distributed on an
 * "AS IS" BASIS, WITHOUT WARRANTIES OR CONDITIONS OF ANY
 * KIND, either express or implied. See the License for the
 * specific language governing permissions and limitations
 * under the License.
-->

<svg id="Passkey" width="16" height="16" viewBox="0 0 16 16" fill="none" xmlns="http://www.w3.org/2000/svg">
    <path fill-rule="evenodd" clip-rule="evenodd" d="M5.95376 4C6.78219 4 7.45376 3.32843 7.45376 2.5C7.45376 1.67157 6.78219 1 5.95376 1C5.12534 1 4.45376 1.67157 4.45376 2.5C4.45376 3.32843 5.12534 4 5.95376 4ZM5.95376 5C7.33447 5 8.45376 3.88071 8.45376 2.5C8.45376 1.11929 7.33447 0 5.95376 0C4.57305 0 3.45376 1.11929 3.45376 2.5C3.45376 3.88071 4.57305 5 5.95376 5ZM0.0124103 11.5381C0.422402 8.25514 2.91053 6 5.95326 6H6.40429C6.98749 6 7.56643 6.09927 8.11631 6.29356C8.37667 6.38556 8.51317 6.67121 8.42117 6.93157C8.32917 7.19194 8.04353 7.32843 7.78316 7.23644C7.34028 7.07995 6.874 7 6.40429 7H5.95326C3.4544 7 1.35721 8.83933 1.0047 11.662C0.98549 11.8159 1.11337 12 1.35509 12H3.49973C3.77588 12 3.99973 12.2239 3.99973 12.5C3.99973 12.7761 3.77588 13 3.49973 13H1.35509C0.600248 13 -0.0918729 12.3731 0.0124103 11.5381ZM12.5 12.5C13.8807 12.5 15 11.3807 15 10C15 8.61929 13.8807 7.5 12.5 7.5C11.1193 7.5 10 8.61929 10 10C10 11.3807 11.1193 12.5 12.5 12.5ZM12.5 13.5C14.433 13.5 16 11.933 16 10C16 8.067 14.433 6.5 12.5 6.5C10.567 6.5 9 8.067 9 10C9 10.2444 9.02505 10.483 9.07273 10.7132L5.69497 13.8039C5.57075 13.9175 5.5 14.0782 5.5 14.2465V15.4C5.5 15.7314 5.76863 16 6.1 16H7.905C8.05707 16 8.20346 15.9423 8.31459 15.8385L8.80958 15.3761C8.93105 15.2626 9 15.1038 9 14.9376V14.7025H9.57167C9.72374 14.7025 9.87013 14.6447 9.98125 14.5409L11.3155 13.2945C11.6855 13.4275 12.0843 13.5 12.5 13.5ZM6.5 14.4227L9.45201 11.7216C9.68843 12.1393 10.0082 12.5036 10.3888 12.7918L9.4139 13.7025H8.6C8.26863 13.7025 8 13.9711 8 14.3025V14.7639L7.74724 15H6.5V14.4227Z" fill="black"/>
</svg>
