<!--
 * Copyright (c) 2023, WSO2 LLC. (https://www.wso2.com).
 *
 * WSO2 Inc. licenses this file to you under the Apache License,
 * Version 2.0 (the "License"); you may not use this file except
 * in compliance with the License.
 * You may obtain a copy of the License at
 *
 *     http://www.apache.org/licenses/LICENSE-2.0
 *
 * Unless required by applicable law or agreed to in writing,
 * software distributed under the License is distributed on an
 * "AS IS" BASIS, WITHOUT WARRANTIES OR CONDITIONS OF ANY
 * KIND, either express or implied. See the License for the
 * specific language governing permissions and limitations
 * under the License.
-->

<svg id="Passkey" xmlns="http://www.w3.org/2000/svg" viewBox="0 0 24 24"><g id="icon-passkey"><circle id="icon-passkey-head" cx="10.5" cy="6" r="4.5"/><path id="icon-passkey-key" d="M22.5,10.5a3.5,3.5,0,1,0-5,3.15V19L19,20.5,21.5,18,20,16.5,21.5,15l-1.24-1.24A3.5,3.5,0,0,0,22.5,10.5Zm-3.5,0a1,1,0,1,1,1-1A1,1,0,0,1,19,10.5Z"/><path id="icon-passkey-body" d="M14.44,12.52A6,6,0,0,0,12,12H9a6,6,0,0,0-6,6v2H16V14.49A5.16,5.16,0,0,1,14.44,12.52Z"/></g></svg>