<?xml version="1.0" encoding="utf-8"?>

<!--
 * Copyright (c) 2020, WSO2 Inc. (http://www.wso2.org) All Rights Reserved.
 *
 * WSO2 Inc. licenses this file to you under the Apache License,
 * Version 2.0 (the "License"); you may not use this file except
 * in compliance with the License.
 * You may obtain a copy of the License at
 *
 *     http://www.apache.org/licenses/LICENSE-2.0
 *
 * Unless required by applicable law or agreed to in writing,
 * software distributed under the License is distributed on an
 * "AS IS" BASIS, WITHOUT WARRANTIES OR CONDITIONS OF ANY
 * KIND, either express or implied. See the License for the
 * specific language governing permissions and limitations
 * under the License.
-->

<svg id="sms-otp-icon" class="icon" height="14" width="14" viewBox="0 0 490 490" xmlns="http://www.w3.org/2000/svg">
    <circle cx="245" cy="245" fill="#fe5d6d" r="245" />
    <path d="m431.753 26.137h-350.786c-32.169 0-58.247 26.078-58.247 58.247v198.923c0 32.169 26.078 58.247 58.247 58.247 19.763 0 35.783 16.021 35.783 35.784v43.606c0 12.877 16.842 17.741 23.707 6.846l27.05-42.928c16.986-26.956 46.618-43.308 78.48-43.308h185.766c32.169 0 58.247-26.078 58.247-58.247v-198.923c0-32.169-26.078-58.247-58.247-58.247z" fill="#fec753" />
    <path d="m144.727 341.554c-32.169 0-58.247-26.078-58.247-58.247v-198.923c0-32.169 26.078-58.247 58.247-58.247h-63.76c-32.169 0-58.247 26.078-58.247 58.247v198.923c0 32.169 26.078 58.247 58.247 58.247 19.763 0 35.784 16.021 35.784 35.784v43.606c0 12.877 16.841 17.741 23.707 6.846l27.05-42.928c3.521-5.588 7.612-10.69 12.127-15.315-3.56-16.012-17.824-27.993-34.908-27.993z" fill="#e0a336" />
    <g fill="#fff">
        <path d="m171.354 184.117c9.568.048 17.391 3.829 23.467 11.339 6.172 7.607 8.253 16.315 6.244 26.123-1.435 7.129-5.023 12.99-10.765 17.583-5.694 4.546-12.2 6.818-19.521 6.818h-.072c-6.794 0-12.918-2.081-18.372-6.244-5.311-4.066-8.923-9.305-10.836-15.717-.671-2.248-.335-4.306 1.004-6.172s3.158-2.799 5.455-2.799c3.396 0 5.549 1.604 6.458 4.809 1.052 3.588 3.062 6.53 6.028 8.827 3.015 2.345 6.435 3.517 10.263 3.517h.287c3.875 0 7.344-1.148 10.406-3.445 3.109-2.344 5.167-5.358 6.172-9.042 1.435-5.598.454-10.622-2.942-15.071-3.301-4.353-7.656-6.603-13.062-6.746-7.751-.144-14.33-2.894-19.736-8.253-5.454-5.358-8.181-11.889-8.181-19.592v-2.009c0-7.703 2.703-14.282 8.109-19.736 5.358-5.406 11.841-8.109 19.449-8.109h.431c5.98 0 11.362 1.771 16.147 5.311 4.737 3.493 8.038 8.014 9.904 13.564.718 2.201.382 4.259-1.004 6.172-1.34 1.866-3.158 2.799-5.455 2.799h-.072c-3.206 0-5.311-1.507-6.315-4.521-.958-2.822-2.631-5.119-5.023-6.89-2.44-1.817-5.167-2.727-8.181-2.727h-.431c-3.875 0-7.153 1.388-9.832 4.163-2.727 2.727-4.09 6.053-4.09 9.976v2.225c0 3.875 1.387 7.153 4.162 9.832 2.727 2.676 6.028 4.015 9.904 4.015z" />
        <path d="m286.035 140.555c1.866 0 3.469.67 4.809 2.009 1.291 1.292 1.938 2.871 1.938 4.736v91.932c0 1.866-.646 3.47-1.938 4.809-1.34 1.292-2.942 1.938-4.809 1.938-1.818 0-3.397-.646-4.736-1.938-1.292-1.339-1.938-2.942-1.938-4.809v-64.159l-19.664 38.395c-.24.431-.503.789-.79 1.076-.573.814-1.268 1.436-2.081 1.866-1.675.814-3.397.933-5.167.359-1.723-.526-3.014-1.626-3.875-3.301l-19.521-38.251v64.015c0 1.866-.646 3.47-1.938 4.809-1.34 1.292-2.919 1.938-4.737 1.938-1.866 0-3.469-.646-4.808-1.938-1.292-1.339-1.938-2.942-1.938-4.809v-91.932c0-1.866.646-3.444 1.938-4.736 1.339-1.339 2.942-2.009 4.808-2.009 2.583 0 4.521 1.148 5.813 3.445 0 .048.023.096.072.143l.072.072 26.195 51.385 26.338-51.385c0 .048.096-.119.287-.502.144-.191.191-.263.144-.215.191-.239.359-.431.503-.574 1.339-1.579 2.009-2.368 2.009-2.368s1.004-.001 3.014-.001z" />
        <path d="m334.405 184.117c9.568.048 17.392 3.829 23.468 11.339 6.172 7.607 8.253 16.315 6.244 26.123-1.436 7.129-5.024 12.99-10.766 17.583-5.693 4.546-12.2 6.818-19.52 6.818h-.072c-6.794 0-12.918-2.081-18.372-6.244-5.311-4.066-8.924-9.305-10.837-15.717-.67-2.248-.335-4.306 1.005-6.172 1.339-1.866 3.158-2.799 5.454-2.799 3.396 0 5.55 1.604 6.459 4.809 1.052 3.588 3.062 6.53 6.028 8.827 3.015 2.345 6.435 3.517 10.263 3.517h.287c3.875 0 7.344-1.148 10.406-3.445 3.109-2.344 5.167-5.358 6.172-9.042 1.436-5.598.454-10.622-2.942-15.071-3.302-4.353-7.655-6.603-13.062-6.746-7.751-.144-14.33-2.894-19.735-8.253-5.454-5.358-8.182-11.889-8.182-19.592v-2.009c0-7.703 2.702-14.282 8.109-19.736 5.358-5.406 11.842-8.109 19.448-8.109h.431c5.98 0 11.363 1.771 16.147 5.311 4.736 3.493 8.038 8.014 9.904 13.564.718 2.201.382 4.259-1.005 6.172-1.34 1.866-3.158 2.799-5.454 2.799h-.072c-3.206 0-5.311-1.507-6.315-4.521-.957-2.822-2.632-5.119-5.023-6.89-2.44-1.817-5.167-2.727-8.182-2.727h-.431c-3.875 0-7.152 1.388-9.831 4.163-2.728 2.727-4.091 6.053-4.091 9.976v2.225c0 3.875 1.387 7.153 4.162 9.832 2.729 2.676 6.03 4.015 9.905 4.015z" />
    </g>
    <circle cx="449.971" cy="77.029" fill="#ffe6a9" r="22" />
    <circle cx="411.787" cy="115.213" fill="#ffe6a9" r="16" />
</svg>
