<!--
 * Copyright (c) 2020, WSO2 Inc. (http://www.wso2.org) All Rights Reserved.
 *
 * WSO2 Inc. licenses this file to you under the Apache License,
 * Version 2.0 (the "License"); you may not use this file except
 * in compliance with the License.
 * You may obtain a copy of the License at
 *
 *     http://www.apache.org/licenses/LICENSE-2.0
 *
 * Unless required by applicable law or agreed to in writing,
 * software distributed under the License is distributed on an
 * "AS IS" BASIS, WITHOUT WARRANTIES OR CONDITIONS OF ANY
 * KIND, either express or implied. See the License for the
 * specific language governing permissions and limitations
 * under the License.
-->

<svg id="sms-otp-icon" class="icon" width="16" height="16" viewBox="0 0 16 16" fill="none" xmlns="http://www.w3.org/2000/svg">
      <path fill-rule="evenodd" clip-rule="evenodd" d="M2.5 2C1.11929 2 0 3.11929 0 4.5V14.5534C0 15.5875 1.37784 15.9414 1.87622 15.0353L3.40316 12.259C3.49104 12.0993 3.65893 12 3.84127 12H5C5.27614 12 5.5 11.7761 5.5 11.5C5.5 11.2239 5.27614 11 5 11H3.84127C3.29423 11 2.79057 11.2978 2.52695 11.7771L1 14.5534V4.5C1 3.67157 1.67157 3 2.5 3H13.5C14.3284 3 15 3.67157 15 4.5V9.5C15 9.77614 15.2239 10 15.5 10C15.7761 10 16 9.77614 16 9.5V4.5C16 3.11929 14.8807 2 13.5 2H2.5ZM8.62718 11.3369C8.58208 10.8877 7.91792 10.8877 7.87282 11.3369L7.74264 12.6336L6.53863 12.0964C6.12154 11.9103 5.78945 12.4774 6.16145 12.7405L7.23528 13.5L6.16145 14.2595C5.78945 14.5226 6.12154 15.0897 6.53863 14.9036L7.74264 14.3664L7.87282 15.6631C7.91792 16.1123 8.58208 16.1123 8.62718 15.6631L8.75736 14.3664L9.96137 14.9036C10.3785 15.0897 10.7105 14.5226 10.3385 14.2595L9.26472 13.5L10.3385 12.7405C10.7105 12.4774 10.3785 11.9103 9.96137 12.0964L8.75736 12.6336L8.62718 11.3369ZM14.1272 11.3369C14.0821 10.8877 13.4179 10.8877 13.3728 11.3369L13.2426 12.6336L12.0386 12.0964C11.6215 11.9103 11.2895 12.4774 11.6615 12.7405L12.7353 13.5L11.6615 14.2595C11.2895 14.5226 11.6215 15.0897 12.0386 14.9036L13.2426 14.3664L13.3728 15.6631C13.4179 16.1123 14.0821 16.1123 14.1272 15.6631L14.2574 14.3664L15.4614 14.9036C15.8785 15.0897 16.2105 14.5226 15.8385 14.2595L14.7647 13.5L15.8385 12.7405C16.2105 12.4774 15.8785 11.9103 15.4614 12.0964L14.2574 12.6336L14.1272 11.3369ZM4 7C4 6.72386 4.22386 6.5 4.5 6.5H7C7.27614 6.5 7.5 6.72386 7.5 7C7.5 7.27614 7.27614 7.5 7 7.5H4.5C4.22386 7.5 4 7.27614 4 7ZM9 6.5C8.72386 6.5 8.5 6.72386 8.5 7C8.5 7.27614 8.72386 7.5 9 7.5H11.5C11.7761 7.5 12 7.27614 12 7C12 6.72386 11.7761 6.5 11.5 6.5H9Z" fill="black"/>
</svg>
