<svg width="512" height="512" viewBox="0 0 512 512" fill="none" xmlns="http://www.w3.org/2000/svg">
<path d="M256 0C114.51 0 0 114.497 0 256C0 397.49 114.497 512 256 512C397.49 512 512 397.503 512 256C512 114.51 397.503 0 256 0ZM256 477.867C133.663 477.867 34.133 378.338 34.133 256C34.133 133.662 133.663 34.133 256 34.133C378.337 34.133 477.867 133.663 477.867 256C477.867 378.337 378.337 477.867 256 477.867Z" fill="#2185D0"/>
<path d="M255.997 209.777C246.572 209.777 238.93 217.418 238.93 226.844V370.813C238.93 380.238 246.571 387.88 255.997 387.88C265.423 387.88 273.064 380.239 273.064 370.813V226.843C273.063 217.417 265.422 209.777 255.997 209.777Z" fill="#2185D0"/>
<path d="M256 124.122C237.179 124.122 221.867 139.434 221.867 158.255C221.867 177.076 237.179 192.388 256 192.388C274.821 192.388 290.133 177.076 290.133 158.255C290.133 139.434 274.821 124.122 256 124.122Z" fill="#2185D0"/>
</svg>
