<!--
 * Copyright (c) 2021, WSO2 Inc. (http://www.wso2.com). All Rights Reserved.
 *
 * This software is the property of WSO2 Inc. and its suppliers, if any.
 * Dissemination of any information or reproduction of any material contained
 * herein in any form is strictly forbidden, unless permitted by WSO2 expressly.
 * You may not alter or remove any copyright or other notice from copies of this content."
-->

<svg id="register-applications-illustration" class="icon" xmlns="http://www.w3.org/2000/svg" width="235" height="216.215" viewBox="0 0 235 216.215">
    <g id="card-1" transform="translate(-251 -271)">
        <circle id="Ellipse_439" data-name="Ellipse 439" cx="66.604" cy="66.604" r="66.604"
                transform="translate(302.457 330.396)" fill="#f5f5f5"/>
        <g id="Layer_2" data-name="Layer 2" transform="translate(313.012 343.784)">
            <g id="Слой_1" data-name="Слой 1" transform="translate(-34.972 -0.007)">
                <g id="_1" data-name="1" transform="translate(0)">
                    <g id="CHARACTER">
                        <g id="T-SHIRT" transform="translate(44.686 43.218)">
                            <path id="Path_3045" data-name="Path 3045"
                                  d="M117.817,207.849c3.378,2.482,12.555,6.822,18.266,10.82C140.691,221.894,144.8,236,144.8,236A38.388,38.388,0,0,1,127.61,245.1a225.752,225.752,0,0,0-8.467,41.183s-19.759,7.306-37.591,0c0,0-7.185-40.67-8.083-40.916s-14.212-4.332-18.579-10.876c0,0,5.15-14.836,12.17-17.744,7.628-3.161,17.792-7.492,21.329-9.394C90.193,206.371,117.817,207.849,117.817,207.849Z"
                                  transform="translate(-54.89 -207.017)" fill="#eaeaff"/>
                            <path id="Path_3046" data-name="Path 3046"
                                  d="M71.66,246.49l-14.976,20.2c-.163-.194-.319-.39-.463-.591l14.135-19.063Z"
                                  transform="translate(-55.942 -238.25)" fill="#fff"/>
                            <path id="Path_3047" data-name="Path 3047"
                                  d="M89.791,231.57,70.45,257.664c-.194-.148-.384-.3-.57-.447L88.459,232.15Z"
                                  transform="translate(-66.751 -226.445)" fill="#fff"/>
                            <path id="Path_3048" data-name="Path 3048"
                                  d="M109.824,215.59,86.366,247.231c-.209-.121-.418-.242-.626-.37l22.711-30.637h0C108.933,216,109.384,215.792,109.824,215.59Z"
                                  transform="translate(-79.3 -213.8)" fill="#fff"/>
                            <path id="Path_3049" data-name="Path 3049"
                                  d="M129.731,207.07l-26.165,35.292c-.221-.1-.443-.209-.666-.315L128.807,207.1C129.1,207.085,129.406,207.074,129.731,207.07Z"
                                  transform="translate(-92.878 -207.059)" fill="#fff"/>
                            <path id="Path_3050" data-name="Path 3050"
                                  d="M149.055,207.072l-27.347,36.9L121,243.7l27.165-36.641Z"
                                  transform="translate(-107.199 -207.051)" fill="#fff"/>
                            <path id="Path_3051" data-name="Path 3051"
                                  d="M168.954,207.615l-28.3,38.167c-.144-.044-.395-.121-.731-.23l28.144-37.962h0C168.359,207.6,168.651,207.6,168.954,207.615Z"
                                  transform="translate(-122.17 -207.47)" fill="#fff"/>
                            <path id="Path_3052" data-name="Path 3052"
                                  d="M181.076,208.437l-31.787,42.872c-.069-.326-.136-.639-.209-.939l31.115-41.96Z"
                                  transform="translate(-129.417 -208.119)" fill="#fff"/>
                            <path id="Path_3053" data-name="Path 3053"
                                  d="M190.127,209.37,154.57,257.331c-.065-.324-.127-.643-.19-.956l34.877-47.045Z"
                                  transform="translate(-133.611 -208.847)" fill="#fff"/>
                            <path id="Path_3054" data-name="Path 3054"
                                  d="M198.94,210.462l-39.355,53.084c-.063-.321-.125-.645-.186-.964l38.672-52.162Z"
                                  transform="translate(-137.583 -209.71)" fill="#fff"/>
                            <path id="Path_3055" data-name="Path 3055"
                                  d="M206.665,216.668l-42.2,56.913c-.058-.324-.119-.647-.18-.971l41.751-56.32C206.241,216.413,206.45,216.538,206.665,216.668Z"
                                  transform="translate(-141.452 -214.354)" fill="#fff"/>
                            <path id="Path_3056" data-name="Path 3056"
                                  d="M214.024,226.357l-44.7,60.311c-.061-.321-.119-.645-.18-.973L213.386,226Q213.7,226.182,214.024,226.357Z"
                                  transform="translate(-145.29 -222.037)" fill="#fff"/>
                            <path id="Path_3057" data-name="Path 3057"
                                  d="M221.3,235.793l-47.279,63.771c-.056-.319-.115-.645-.175-.975h0l46.818-63.148Z"
                                  transform="translate(-149.016 -229.507)" fill="#fff"/>
                            <path id="Path_3058" data-name="Path 3058"
                                  d="M228.553,245.355l-49.828,67.219c-.056-.311-.113-.626-.175-.979L227.923,245Z"
                                  transform="translate(-152.735 -237.071)" fill="#fff"/>
                            <path id="Path_3059" data-name="Path 3059"
                                  d="M237.114,255.258,185.7,324.621l-.7-.278,51.506-69.474Z"
                                  transform="translate(-157.839 -244.881)" fill="#fff"/>
                            <path id="Path_3060" data-name="Path 3060"
                                  d="M255.528,266.426l-50.558,68.182c-.25-.063-.5-.132-.749-.209l50.79-68.509C255.181,266.061,255.35,266.237,255.528,266.426Z"
                                  transform="translate(-173.047 -253.6)" fill="#fff"/>
                            <path id="Path_3061" data-name="Path 3061"
                                  d="M274.176,282.787l-48.592,65.549c-.267-.04-.537-.083-.8-.134l49.005-66.1C273.917,282.323,274.046,282.555,274.176,282.787Z"
                                  transform="translate(-189.314 -266.426)" fill="#fff"/>
                            <path id="Path_3062" data-name="Path 3062"
                                  d="M279.3,391.12c-.121.388-.336,1.085-.626,2.056h0L247.6,435.1c-.286-.019-.57-.038-.858-.063Z"
                                  transform="translate(-206.69 -352.688)" fill="#fff"/>
                            <path id="Path_3063" data-name="Path 3063"
                                  d="M418.044,302.1l-12.818,17.289c-.367.1-.741.209-1.117.292l13.6-18.345C417.821,301.6,417.934,301.854,418.044,302.1Z"
                                  transform="translate(-331.208 -281.65)" fill="#fff"/>
                            <path id="Path_3064" data-name="Path 3064"
                                  d="M294.872,442.73c-.148.585-.294,1.19-.443,1.81h0l-23.337,31.48h0c-.3,0-.605.013-.912.015Z"
                                  transform="translate(-225.237 -393.524)" fill="#fff"/>
                            <path id="Path_3065" data-name="Path 3065"
                                  d="M445.28,323.136l-7.542,10.181c-.447.221-.908.44-1.388.656l8.638-11.653C445.088,322.6,445.187,322.879,445.28,323.136Z"
                                  transform="translate(-356.718 -298.25)" fill="#fff"/>
                            <path id="Path_3066" data-name="Path 3066"
                                  d="M312.448,489.35q-.169.82-.336,1.67h0l-15.955,21.523c-.324.035-.647.071-.977.1Z"
                                  transform="translate(-245.018 -430.412)" fill="#fff"/>
                            <path id="Path_3067" data-name="Path 3067"
                                  d="M332.02,532.42c-.081.511-.165,1.025-.244,1.543l-8.732,11.774c-.34.067-.691.136-1.044.209Z"
                                  transform="translate(-266.239 -464.49)" fill="#fff"/>
                        </g>
                        <g id="HANDS" transform="translate(37.315 72.964)">
                            <g id="RIGHT" transform="translate(62.826 0.499)">
                                <path id="Path_3068" data-name="Path 3068"
                                      d="M361.13,384.349c-.472,8.768-17.1,16.909-25.871,20.6-.29,1.816-1.482,2.612-3.774,3.2-4.778,1.232-4.33,4.384-4.576,4.985-.386.958-5.1,2.05-6.233,1.253-.674-.478,1.23-6.482,2.313-8.592.674-1.313,5.192-3.8,8.154-4.87,0,0,15.03-18.218,17.089-19.245,0,0-5.559-15.239-7.885-20.723-.332-.787-.6-1.371-.772-1.683,0,0,8.35-2.505,14-7.369,0,0,.511,1.276,1.265,3.374C357.107,361.6,361.608,375.391,361.13,384.349Z"
                                      transform="translate(-320.534 -351.908)" fill="#c36f0b"/>
                                <path id="Path_3069" data-name="Path 3069"
                                      d="M426.986,355.273c-1.169,1.242-4.722,3.933-14.492,5.678-.334-.785-.6-1.372-.775-1.683,0,0,8.35-2.505,14-7.369C425.721,351.9,426.231,353.173,426.986,355.273Z"
                                      transform="translate(-392.684 -351.9)" fill="#b65a18"/>
                            </g>
                            <g id="LEFT">
                                <path id="Path_3070" data-name="Path 3070"
                                      d="M62.849,412.3c-1.267.559-5.052-.488-5.4-1.044s-.835-4.008-4.574-5.194c-2.676-.85-3.891-1.7-3.845-4.336-7.78-2.658-28.47-10.54-29.407-19.489-.626-5.97,5.618-23.049,8.225-29.852.683-1.777,1.115-2.854,1.115-2.854a48.925,48.925,0,0,0,13.82,7.624l-.645,1.768-7.53,20.621c3.428,1.3,15.911,16.632,17.857,19.038,4.056.785,8.4,3.605,8.908,5.125C61.905,405.3,64.153,411.72,62.849,412.3Z"
                                      transform="translate(-19.58 -349.526)" fill="#c36f0b"/>
                                <path id="Path_3071" data-name="Path 3071"
                                      d="M60.315,349.51a48.9,48.9,0,0,0,13.82,7.624l-.645,1.766c-4.123-.651-10.895-2.244-14.289-6.538C59.881,350.587,60.315,349.51,60.315,349.51Z"
                                      transform="translate(-50.929 -349.51)" fill="#b65a18"/>
                            </g>
                        </g>
                        <g id="HEAD" transform="translate(74.194)">
                            <path id="NECK"
                                  d="M236.942,152s-.342,7.515,7.87,12.317a106.021,106.021,0,0,0-14.882,13.544s-7.223-8.832-14.54-14.055c0,0,7.183-5.647,7.183-11.8Z"
                                  transform="translate(-211.392 -120.268)" fill="#b65a18"/>
                            <path id="HEAD-2" data-name="HEAD"
                                  d="M248.4,89.751a33.877,33.877,0,0,0-3.031,4.563c-1.278,6.929-5.636,11.513-11.162,11.513-4.789,0-8.025-5.369-9.515-10.361h0a2.269,2.269,0,0,1-.088-.278c-.37-1.376-2.371-4.112-3.378-5.428A.923.923,0,0,1,221.5,88.4c1.227-.7,1.864-.192,2.2.476-.177-4.991.029-10.229,2.935-10.258,3.34-.031,14.448-.25,16.373.392,1.655.551,2.747,2.87,2.751,10.283.261-.835.887-1.739,2.361-.893a.923.923,0,0,1,.278,1.351Z"
                                  transform="translate(-215.86 -62.156)" fill="#c36f0b"/>
                            <g id="HAIR">
                                <path id="Path_3075" data-name="Path 3075"
                                      d="M230.775,18.5c-2.209,2.776-4.824,9.2-4.824,9.2s.95-9.949-2.9-9.841c-1.831.05-5.513,2.616-9.369,2.2-3.2-.347-7.2-4.693-8.849-1.852-.912,2.177-.848,5.595-.71,9.11a27.413,27.413,0,0,0-4.133-9.279c-2.346-1.217-4.188-3.822-3.657-6.471.9-4.482,4.357-4.231,4.357-4.231,5.826.6,2.426-2.793,9.488-6s15.1-.171,15.786,3.695c.476,2.651,2.106,1.324,4.659,2.505C234.209,9.215,233.37,15.233,230.775,18.5Z"
                                      transform="translate(-196.241 0.007)" fill="#17001d"/>
                                <path id="Path_3076" data-name="Path 3076"
                                      d="M260.88,89.738c9.887,1.253,10.868-4.115,15.124-3.465"
                                      transform="translate(-247.386 -68.218)" fill="none" stroke="#18001e"
                                      stroke-miterlimit="10" stroke-width="3"/>
                            </g>
                        </g>
                    </g>
                </g>
            </g>
        </g>
        <g id="Group_1395" data-name="Group 1395" transform="translate(-171 -22)">
            <rect id="Rectangle_705" data-name="Rectangle 705" width="50" height="50" rx="14"
                  transform="translate(422 336)" fill="#f1f1f1"/>
            <g id="fingerprint_4_" data-name="fingerprint (4)" transform="translate(434.335 347.316)">
                <path id="Path_354" data-name="Path 354"
                      d="M92.807,269.509a.768.768,0,1,0-1.314-.8,7.666,7.666,0,0,1-3.486,3.2.769.769,0,0,0,.535,1.441A9.117,9.117,0,0,0,92.807,269.509Z"
                      transform="translate(-83.02 -254.586)" fill="#7c6766"/>
                <path id="Path_355" data-name="Path 355"
                      d="M190.886,180.893a3.844,3.844,0,0,0-6.715,1.2.768.768,0,1,0,1.467.457A2.309,2.309,0,1,1,190,184.067a19.471,19.471,0,0,1-4.948,7.689.769.769,0,0,0,1.084,1.09,21.082,21.082,0,0,0,5.347-8.378A3.944,3.944,0,0,0,190.886,180.893Z"
                      transform="translate(-174.697 -170.2)" fill="#7c6766"/>
                <path id="Path_356" data-name="Path 356"
                      d="M209.284,121.108a5.385,5.385,0,0,1,2.236-.155.769.769,0,0,0,.215-1.523,6.92,6.92,0,0,0-2.874.2.769.769,0,0,0,.423,1.478Z"
                      transform="translate(-197.626 -113.244)" fill="#7c6766"/>
                <path id="Path_357" data-name="Path 357"
                      d="M69.483,152.076a5.354,5.354,0,0,1,1.631-2.485.769.769,0,0,0-1-1.168,6.889,6.889,0,0,0-2.1,3.2c-.593,1.914-1.477,3.051-2.7,3.477a.769.769,0,0,0,.5,1.453C67.513,155.961,68.746,154.456,69.483,152.076Z"
                      transform="translate(-61.476 -140.639)" fill="#7c6766"/>
                <path id="Path_358" data-name="Path 358"
                      d="M136.762,240.359a.768.768,0,1,0-1.467-.458,12.081,12.081,0,0,1-5.375,6.956.769.769,0,0,0,.75,1.342A13.65,13.65,0,0,0,136.762,240.359Z"
                      transform="translate(-122.887 -227.091)" fill="#7c6766"/>
                <path id="Path_359" data-name="Path 359"
                      d="M13.112,0a13.121,13.121,0,1,0,2.515,26,.765.765,0,0,0,.558.242h7.683a.769.769,0,0,0,.768-.769v-6.09A13.129,13.129,0,0,0,13.112,0ZM1.537,13.121a11.579,11.579,0,1,1,21.8,5.433H18.492V15.528a1.534,1.534,0,1,1,3.068,0v.746a.768.768,0,1,0,1.537,0,4.9,4.9,0,0,0-.141-1.666A9.952,9.952,0,0,0,5.077,7.135a18.537,18.537,0,0,0-1.74,3.556.768.768,0,1,0,1.384.668C5.4,9.954,5.726,7.987,8.151,6.212a8.422,8.422,0,0,1,13.4,6.651,3.043,3.043,0,0,0-1.545-.408A6.823,6.823,0,0,0,16.9,7.226a.769.769,0,0,0-.833,1.292,5.306,5.306,0,0,1,2.428,4.35,3.074,3.074,0,0,0-1.536,2.66v3.026h-.771a.769.769,0,0,0-.768.769v5.151A11.59,11.59,0,0,1,1.537,13.121ZM23.1,24.7H16.953V20.092H23.1V24.7Z"
                      fill="#7c6766"/>
                <path id="Path_360" data-name="Path 360"
                      d="M361.463,422.48H363a.769.769,0,0,0,0-1.538h-1.536a.769.769,0,0,0,0,1.538Z"
                      transform="translate(-342.205 -399.364)" fill="#7c6766"/>
            </g>
        </g>
        <g id="Group_1396" data-name="Group 1396" transform="translate(-76 -65)">
            <rect id="Rectangle_705-2" data-name="Rectangle 705" width="50" height="50" rx="14"
                  transform="translate(422 336)" fill="#f1f1f1"/>
            <g id="password_4_" data-name="password (4)" transform="translate(433.339 357.752)">
                <path id="Path_365" data-name="Path 365"
                      d="M7.289,236.257H.81a.81.81,0,1,1,0-1.62H7.289a.81.81,0,1,1,0,1.62Z"
                      transform="translate(0 -231.859)" fill="#e67d48"/>
                <path id="Path_366" data-name="Path 366"
                      d="M22.144,205.257a.81.81,0,0,1-.7-1.215l3.239-5.612a.81.81,0,0,1,1.4.81l-3.24,5.612A.81.81,0,0,1,22.144,205.257Z"
                      transform="translate(-19.714 -198.054)" fill="#e67d48"/>
                <path id="Path_367" data-name="Path 367"
                      d="M25.579,205.257a.81.81,0,0,1-.7-.4l-3.24-5.612a.81.81,0,0,1,1.4-.81l3.24,5.612a.81.81,0,0,1-.7,1.215Z"
                      transform="translate(-19.91 -198.054)" fill="#e67d48"/>
                <path id="Path_368" data-name="Path 368"
                      d="M135.289,236.256H128.81a.81.81,0,0,1,0-1.62h6.479a.81.81,0,1,1,0,1.62Z"
                      transform="translate(-118.281 -231.859)" fill="#e67d48"/>
                <path id="Path_369" data-name="Path 369"
                      d="M150.144,205.257a.81.81,0,0,1-.7-1.215l3.239-5.612a.81.81,0,0,1,1.4.81l-3.24,5.612A.81.81,0,0,1,150.144,205.257Z"
                      transform="translate(-137.996 -198.054)" fill="#e67d48"/>
                <path id="Path_370" data-name="Path 370"
                      d="M153.579,205.257a.81.81,0,0,1-.7-.4l-3.24-5.612a.81.81,0,0,1,1.4-.81l3.24,5.612a.81.81,0,0,1-.7,1.215Z"
                      transform="translate(-138.191 -198.054)" fill="#e67d48"/>
                <path id="Path_371" data-name="Path 371"
                      d="M263.289,236.256H256.81a.81.81,0,0,1,0-1.62h6.479a.81.81,0,1,1,0,1.62Z"
                      transform="translate(-236.563 -231.859)" fill="#e67d48"/>
                <path id="Path_372" data-name="Path 372"
                      d="M278.144,205.257a.81.81,0,0,1-.7-1.215l3.239-5.612a.81.81,0,0,1,1.4.81l-3.24,5.612A.81.81,0,0,1,278.144,205.257Z"
                      transform="translate(-256.277 -198.054)" fill="#e67d48"/>
                <path id="Path_373" data-name="Path 373"
                      d="M281.579,205.257a.81.81,0,0,1-.7-.4l-3.24-5.612a.81.81,0,0,1,1.4-.81l3.24,5.612a.81.81,0,0,1-.7,1.215Z"
                      transform="translate(-256.473 -198.054)" fill="#e67d48"/>
            </g>
        </g>
        <g id="Group_1397" data-name="Group 1397" transform="translate(435.666 313.666)">
            <rect id="Rectangle_705-3" data-name="Rectangle 705" width="50" height="50" rx="14"
                  transform="translate(0.334 0.334)" fill="#f1f1f1"/>
            <path id="github_1_" data-name="github (1)"
                  d="M14.843.5A14.715,14.715,0,0,0,0,15.086,14.61,14.61,0,0,0,10.149,28.925c.742.137,1.014-.314,1.014-.7,0-.346-.012-1.264-.019-2.48-4.129.879-5-1.957-5-1.957a3.888,3.888,0,0,0-1.651-2.134c-1.345-.9.1-.886.1-.886a3.105,3.105,0,0,1,2.274,1.5,3.2,3.2,0,0,0,4.323,1.213,3.088,3.088,0,0,1,.94-1.951c-3.3-.365-6.761-1.619-6.761-7.208A5.573,5.573,0,0,1,6.9,10.412a5.1,5.1,0,0,1,.13-3.861s1.243-.391,4.082,1.5a14.232,14.232,0,0,1,7.422,0c2.82-1.886,4.063-1.5,4.063-1.5a5.244,5.244,0,0,1,.148,3.861,5.6,5.6,0,0,1,1.521,3.914c0,5.6-3.47,6.837-6.772,7.2a3.461,3.461,0,0,1,1,2.7c0,1.952-.019,3.52-.019,3.994,0,.382.26.839,1.02.693a14.566,14.566,0,0,0,10.188-13.82A14.717,14.717,0,0,0,14.843.5Z"
                  transform="translate(10.49 10.609)" fill="#212a32"/>
        </g>
        <g id="LAPTOP" transform="translate(336.414 447.494)">
            <path id="Path_3072" data-name="Path 3072"
                  d="M137.809,499.891H88.792l-8.251-32.432A2.968,2.968,0,0,1,83.4,463.67h59.807a2.968,2.968,0,0,1,2.852,3.789Z"
                  transform="translate(-80.426 -463.67)" fill="#fff" stroke="#e6814b" stroke-miterlimit="10"
                  stroke-width="7"/>
            <path id="Path_3073" data-name="Path 3073"
                  d="M144.623,507.2H98.577l-7.752-30.472c-.508-1.783-.867-3.894.987-3.894h59.575c1.854,0,1.5,2.114.987,3.894Z"
                  transform="translate(-88.726 -471.279)" fill="#e6814b"/>
            <path id="Path_3074" data-name="Path 3074"
                  d="M256.3,566.455h-5.605a.846.846,0,0,1-.819-.638l-.669-3.611a.389.389,0,0,1,.374-.5h7.833a.389.389,0,0,1,.374.5l-.672,3.616A.846.846,0,0,1,256.3,566.455Z"
                  transform="translate(-220.622 -545.113)" fill="none" stroke="#fff" stroke-linejoin="round"
                  stroke-width="6"/>
        </g>
    </g>
</svg>
