<!--
 * Copyright (c) 2021, WSO2 Inc. (http://www.wso2.com). All Rights Reserved.
 *
 * This software is the property of WSO2 Inc. and its suppliers, if any.
 * Dissemination of any information or reproduction of any material contained
 * herein in any form is strictly forbidden, unless permitted by WSO2 expressly.
 * You may not alter or remove any copyright or other notice from copies of this content."
-->

<svg id="guest-user" xmlns="http://www.w3.org/2000/svg" xmlns:xlink="http://www.w3.org/1999/xlink" width="548.734" height="279.365" viewBox="0 0 548.734 279.365">
  <defs>
    <linearGradient id="linear-gradient" x1="0.5" x2="0.5" y2="1" gradientUnits="objectBoundingBox">
      <stop offset="0" stop-color="#6a7680"/>
      <stop offset="1" stop-color="#384958"/>
    </linearGradient>
    <linearGradient id="linear-gradient-2" x1="0.5" x2="0.5" y2="1" gradientUnits="objectBoundingBox">
      <stop offset="0" stop-color="#5170ef"/>
      <stop offset="1" stop-color="#3250bb"/>
    </linearGradient>
  </defs>
  <g id="illustration-2" transform="translate(181.873 564.62)">
    <path id="Subtraction_39" data-name="Subtraction 39" d="M220.721-887.656h0a64.386,64.386,0,0,1-14.237-1.762,126.616,126.616,0,0,1-15.382-4.645c-10.551-3.844-21.792-9.053-32.664-14.091l-.04-.019c-3.271-1.516-6.653-3.083-9.965-4.589-4.444-2.03-10.242-3.017-17.726-3.017-12.035,0-26.942,2.557-42.725,5.265l-3.5.6c-18.091,3.091-35.705,5.865-52.326,5.865-2.515,0-4.981-.066-7.33-.2.545-.518,1.105-1.064,1.665-1.624a93.786,93.786,0,0,0,12.87-16.059,94.761,94.761,0,0,0,8.9-18.046A99.134,99.134,0,0,0,53.208-959.4a104.948,104.948,0,0,0,1.038-20.206,110.243,110.243,0,0,0-2.853-20.381,114.632,114.632,0,0,0-6.715-19.949,119.278,119.278,0,0,0-24.911-36.192,122.778,122.778,0,0,0-13.039-11.328c4.606,1.331,9.278,2.868,14.223,4.495l.2.065q1.54.507,3.1,1.017c6.687,2.187,12.348,3.954,18.237,5.47.366.414.744.836,1.126,1.255a106.919,106.919,0,0,0,11.805,11.17,91.276,91.276,0,0,0,12.613,8.6,74.7,74.7,0,0,0,13.038,5.809,59.776,59.776,0,0,0,13.082,2.808c1.635.155,3.277.234,4.882.234a47.676,47.676,0,0,0,7.862-.643,43.992,43.992,0,0,0,12.024-3.84,44,44,0,0,0,10.428-7.111,49,49,0,0,0,8.167-9.79,59.816,59.816,0,0,0,5.842-12.037,74.633,74.633,0,0,0,3.449-13.851,91.251,91.251,0,0,0,.991-15.233c-.048-2.906-.228-5.892-.534-8.876,3.8-5.643,7.186-11.395,10.46-16.957l0,0h0c.581-.987,1.182-2.008,1.771-3,.309.8.64,1.65.985,2.513a202.825,202.825,0,0,0,12.632,25.867,241.2,241.2,0,0,0,38.471,49.75,241.188,241.188,0,0,0,49.75,38.47A202.916,202.916,0,0,0,287.2-988.648c3.706,1.485,7.463,2.848,11.167,4.052-8.034,20.25-17.785,39.016-27.084,56.5q-.933,1.755-1.791,3.37c-13.724,25.846-13.724,25.846-30.492,32.717l-.022.009c-1.365.56-2.777,1.138-4.341,1.789A36.154,36.154,0,0,1,220.721-887.656ZM18.011-904.825a80.747,80.747,0,0,1-15.988-3.451A57.267,57.267,0,0,1-12.1-915.163c.842-1.9,1.634-3.851,2.354-5.809A99.134,99.134,0,0,0-4.792-940.4a104.812,104.812,0,0,0,1.038-20.207,110.333,110.333,0,0,0-2.852-20.38,114.636,114.636,0,0,0-6.715-19.949,119.3,119.3,0,0,0-24.911-36.192,123.024,123.024,0,0,0-12.148-10.652,67.644,67.644,0,0,1,7.2-10.454,36.221,36.221,0,0,1,13.008-10.184,34.935,34.935,0,0,1,14.572-2.913,56.161,56.161,0,0,1,8.5.69,115.568,115.568,0,0,1,23.339,18.049,114.075,114.075,0,0,1,23.777,34.518,109.805,109.805,0,0,1,6.432,19.029A105.543,105.543,0,0,1,49.2-979.608a100.092,100.092,0,0,1-.943,19.262,94.29,94.29,0,0,1-4.671,18.509A88.324,88.324,0,0,1,22.948-909.4c-1.583,1.583-3.244,3.123-4.937,4.577Zm-34.243-13.424h0a113.028,113.028,0,0,1-23.851-26.427,124.763,124.763,0,0,1-8.747-15.692,123.654,123.654,0,0,1-6.358-16.666,108.194,108.194,0,0,1-4.744-34.213,80.792,80.792,0,0,1,7.233-31.993,117.247,117.247,0,0,1,10.931,9.65,115.154,115.154,0,0,1,19.834,26.506A109.964,109.964,0,0,1-11-977.544a103.009,103.009,0,0,1,1.936,30.353,94.113,94.113,0,0,1-7.17,28.941Zm316.614-71.57h0a188.357,188.357,0,0,1-43.513-20.172,233.4,233.4,0,0,1-41.755-33.295,234.461,234.461,0,0,1-31.846-39.453,192.977,192.977,0,0,1-20.124-41.217,118.18,118.18,0,0,1,12.932-17.788,59.256,59.256,0,0,1,17.478-13.374c1.327,4.223,2.86,8.512,4.558,12.75a202.818,202.818,0,0,0,12.632,25.867,241.191,241.191,0,0,0,38.47,49.75,241.2,241.2,0,0,0,49.751,38.47c3.717,2.146,7.518,4.191,11.3,6.079a247.294,247.294,0,0,1-9.883,32.382Zm11.028-37.734h0a213.183,213.183,0,0,1-30.044-18.271,238.92,238.92,0,0,1-28.615-24.462,232.992,232.992,0,0,1-33.877-42.7,186.4,186.4,0,0,1-20.157-44.442c15.644-6.547,27.991-9.6,38.858-9.6a53.754,53.754,0,0,1,9.362.807c.441,2.833,1,5.689,1.66,8.488a114.6,114.6,0,0,0,6.716,19.95,119.262,119.262,0,0,0,24.911,36.192,119.332,119.332,0,0,0,35.65,24.671c.447,11-.395,23.125-2.73,39.3-.477,3.3-1.06,6.687-1.734,10.058Zm-213.028-2.861h0a52.586,52.586,0,0,1-12.848-1.658,66.354,66.354,0,0,1-12.946-4.818,82.725,82.725,0,0,1-12.639-7.747,98.853,98.853,0,0,1-11.922-10.446,104.559,104.559,0,0,0,22.54,2.655,75.438,75.438,0,0,0,29.493-5.8c23.888-9.922,36.723-25.025,44.3-35.521.76,13.353-1.264,25.827-5.852,36.072a50.734,50.734,0,0,1-8.813,13.619,41.922,41.922,0,0,1-12.549,9.421A42.421,42.421,0,0,1,98.382-1030.414Zm217.13-52.2h0a114.484,114.484,0,0,1-31.751-22.5,114.925,114.925,0,0,1-20.783-28.293,109.332,109.332,0,0,1-10.726-31.562,61.859,61.859,0,0,1,18.089,8.917,131.751,131.751,0,0,1,18.541,16.106,93.335,93.335,0,0,1,19.187,27.534,91.443,91.443,0,0,1,7.446,29.8Z" transform="translate(-23.824 602.401)" fill="#d5def0"/>
    <g id="g12" transform="translate(-181.873 -484.382)">
      <path id="path14" d="M51.542-208.978c9.74-8.537,10.625-22.486,8.851-34.742-.3-2.045-.309-4.235-1.485-5.93s-3.59-2.673-5.334-1.605c-1.446.886-1.915,2.733-2.606,4.294a12.081,12.081,0,0,1-4.309,5.131,4.6,4.6,0,0,1-4.174.847c-1.879-.782-2.358-3.206-2.57-5.25q-.594-5.713-1.188-11.427a19.159,19.159,0,0,0-1.285-6,6.374,6.374,0,0,0-4.454-3.844c-2-.329-4.282,1.056-4.472,3.1a18.983,18.983,0,0,0,.223,2.549,2.162,2.162,0,0,1-1.034,2.161,2.484,2.484,0,0,1-2.346-.69,27.317,27.317,0,0,1-5.687-6.822,37.926,37.926,0,0,0-5.385-7.094A11.112,11.112,0,0,0,6.34-277.67c-2.943.157-5.86,2.306-6.283,5.258s1.579,5.7,3.663,7.826a45.874,45.874,0,0,0,10.49,8,3.774,3.774,0,0,1,1.776,1.532c.594,1.313-.547,2.807-1.842,3.4-1.467.675-3.136.7-4.707,1.062s-3.22,1.256-3.656,2.827c-.606,2.18,1.381,4.175,3.257,5.418a39.28,39.28,0,0,0,12.294,5.4,13.241,13.241,0,0,1,4.525,1.614,3.8,3.8,0,0,1,1.688,4.2c-.574,1.521-2.4,2.188-4.007,2.07a27.369,27.369,0,0,1-4.67-1.217c-2.923-.75-6.526-.157-8.057,2.467a6.5,6.5,0,0,0-.058,5.791,14.987,14.987,0,0,0,3.653,4.706,39.507,39.507,0,0,0,18.068,9.935c6.759,1.539,12.86,1.485,19.069-1.595" transform="translate(167.697 360.489)" fill="#e7e8e5"/>
      <path id="path16" d="M57.83-195.809a90.186,90.186,0,0,0-5.193-16.464,183.932,183.932,0,0,0-9.437-18.9L40.472-236c-.9-1.582-1.791-3.152-2.758-4.633a91.983,91.983,0,0,0-6.044-8.192c-2.048-2.513-4.084-4.822-6-6.968s-3.755-4.106-5.5-5.824a72.987,72.987,0,0,0-8.831-7.487c-1.108-.8-1.988-1.391-2.589-1.784l-.687-.443a1.522,1.522,0,0,0-.241-.139,1.492,1.492,0,0,0,.22.172l.666.474c.587.414,1.452,1.024,2.546,1.841a77.141,77.141,0,0,1,8.729,7.559c1.729,1.725,3.544,3.694,5.455,5.843s3.931,4.467,5.967,6.979a92.958,92.958,0,0,1,6,8.173c.959,1.474,1.841,3.03,2.742,4.617l2.726,4.826a188.638,188.638,0,0,1,9.446,18.851,91.77,91.77,0,0,1,5.252,16.382" transform="translate(162.576 356.422)" fill="#dadbd8"/>
      <path id="path18" d="M93.885-225.386a4.158,4.158,0,0,0,.1-.893c.045-.577.083-1.412.114-2.445.065-2.065.056-4.92.035-8.068s.011-6,.107-8.055c.045-1.029.09-1.862.128-2.437a4.161,4.161,0,0,0,.017-.9,4.1,4.1,0,0,0-.162.884c-.084.572-.169,1.4-.248,2.435-.165,2.062-.24,4.921-.218,8.073.029,3.106.055,5.916.075,8.063,0,.97,0,1.788.006,2.444a4.128,4.128,0,0,0,.044.9" transform="translate(106.296 341.171)" fill="#dadbd8"/>
      <path id="path20" d="M16.473-188.561a5.676,5.676,0,0,0,1.061.01c.68-.015,1.665-.04,2.881-.034,2.434-.006,5.8.1,9.5.388s7.046.7,9.454,1.059c1.206.173,2.178.339,2.85.45a5.634,5.634,0,0,0,1.052.139,5.649,5.649,0,0,0-1.025-.285c-.666-.156-1.633-.363-2.837-.571-2.4-.433-5.752-.881-9.468-1.173a93.262,93.262,0,0,0-9.531-.276c-1.221.028-2.207.1-2.886.156a5.627,5.627,0,0,0-1.052.139" transform="translate(156.909 302.335)" fill="#dadbd8"/>
      <path id="path22" d="M136.592-167.636a1.354,1.354,0,0,0,.144-.34l.345-1c.295-.869.689-2.138,1.155-3.712.935-3.148,2.09-7.536,3.3-12.4s2.322-9.256,3.19-12.418c.427-1.538.778-2.8,1.039-3.744.111-.408.2-.744.277-1.021a1.37,1.37,0,0,0,.072-.364,1.372,1.372,0,0,0-.145.341l-.344,1c-.295.869-.689,2.138-1.156,3.712-.935,3.148-2.089,7.536-3.3,12.4s-2.322,9.254-3.19,12.417c-.427,1.537-.778,2.8-1.039,3.742-.111.408-.2.745-.277,1.021a1.391,1.391,0,0,0-.072.364" transform="translate(78.244 311.337)" fill="#dadbd8"/>
      <path id="path24" d="M31.9-122.671a1.4,1.4,0,0,0,.362.1l1.051.228,3.87.8c3.268.675,7.77,1.659,12.744,2.753s9.491,2.039,12.774,2.647c1.641.3,2.971.537,3.894.68l1.063.157a1.392,1.392,0,0,0,.375.029,1.447,1.447,0,0,0-.362-.1l-1.051-.227-3.87-.8c-3.267-.675-7.77-1.659-12.746-2.754s-9.489-2.038-12.771-2.646c-1.642-.3-2.971-.537-3.895-.68l-1.063-.157a1.41,1.41,0,0,0-.375-.029" transform="translate(146.809 258.976)" fill="#dadbd8"/>
      <path id="path26" d="M139.683-517.635,167.319-500.1l-11.291,19.2-28.313-18.628,11.968-18.1" transform="translate(84.056 517.635)" fill="#e7e8e5"/>
      <path id="path28" d="M190.029-500.1a.362.362,0,0,1-.1.029l-.305.061-1.177.213-4.345.74-14.431,2.369-.1.017-.033-.1c-.073-.21-.153-.438-.232-.666l-4.934-14.27-1.469-4.333-.388-1.182-.1-.309a.366.366,0,0,1-.024-.108.4.4,0,0,1,.048.1l.117.3.43,1.167,1.541,4.308,5,14.247.232.665-.132-.079,14.443-2.3,4.357-.666,1.184-.169.309-.038a.385.385,0,0,1,.106-.005" transform="translate(61.347 517.635)" fill="#dadbd8"/>
      <path id="path30" d="M127.715-473.156c-.016-.064,3.734-1.057,8.375-2.217s8.419-2.048,8.435-1.985-3.733,1.057-8.376,2.217-8.418,2.048-8.434,1.985" transform="translate(84.056 491.259)" fill="#dadbd8"/>
      <path id="path32" d="M204.824-442.947c-.065.01-.7-3.727-1.416-8.346s-1.244-8.373-1.179-8.384.7,3.727,1.416,8.347,1.244,8.373,1.179,8.383" transform="translate(35.26 479.678)" fill="#dadbd8"/>
      <path id="path34" d="M693.5-373.608l26.465-4.3,3.533,17.9-27.474,4-2.524-17.6" transform="translate(-286.476 426.129)" fill="#f3f2f1"/>
      <path id="path34-2" data-name="path34" d="M693.5-373.608l26.465-4.3,3.533,17.9-27.474,4-2.524-17.6" transform="translate(-693.497 426.834)" fill="#f3f2f1" opacity="0"/>
      <path id="path34-3" data-name="path34" d="M693.5-373.608l26.465-4.3,3.533,17.9-27.474,4-2.524-17.6" transform="translate(-174.761 408.806)" fill="#f3f2f1" opacity="0"/>
      <path id="path36" d="M719.961-377.911a1.821,1.821,0,0,1-.2.279l-.6.774-2.253,2.822-7.542,9.309-.063.078-.088-.049-.5-.282-10.784-6.058-3.254-1.86-.879-.516a1.94,1.94,0,0,1-.3-.194,1.942,1.942,0,0,1,.322.152l.9.477,3.291,1.793,10.818,6,.5.282-.151.029,7.6-9.263,2.311-2.775.636-.746a1.963,1.963,0,0,1,.234-.249" transform="translate(-286.476 426.13)" fill="#dadbd8"/>
      <path id="path38" d="M700.809-336.692c-.055-.037,1.694-2.692,3.9-5.928s4.048-5.83,4.1-5.793-1.693,2.691-3.9,5.928-4.047,5.83-4.1,5.793" transform="translate(-291.264 406.811)" fill="#dadbd8"/>
      <path id="path40" d="M760.129-342.808c-.042.051-2.47-1.885-5.423-4.323s-5.313-4.458-5.271-4.508,2.47,1.884,5.423,4.324,5.313,4.457,5.27,4.508" transform="translate(-323.11 408.925)" fill="#dadbd8"/>
      <path id="path42" d="M480.143-452.288,525.4-464.416l9.285,30.5-47.06,11.782-7.478-30.149" transform="translate(-146.75 482.782)" fill="#232f4d"/>
      <path id="path44" d="M501.81-381.412c-.058-.031,2.433-4.718,5.563-10.465s5.715-10.383,5.773-10.352-2.432,4.717-5.563,10.466-5.714,10.382-5.773,10.35" transform="translate(-160.939 442.055)" fill="#17282f"/>
      <path id="path46" d="M599.844-401.7c-.037.055-4.588-2.926-10.166-6.658s-10.071-6.8-10.034-6.858,4.588,2.925,10.167,6.658,10.07,6.8,10.033,6.857" transform="translate(-211.914 450.559)" fill="#17282f"/>
      <path id="path48" d="M480.143-452.288a.792.792,0,0,1,.15.061l.432.2,1.651.794,6.052,2.96,19.926,9.846.242.121-.154.042L520.4-456.793l3.639-5.592,1-1.513.265-.39a.831.831,0,0,1,.1-.128.8.8,0,0,1-.076.142l-.245.4-.961,1.537-3.576,5.633-11.893,18.567-.058.091-.1-.048-.242-.12-19.895-9.909-6.018-3.028-1.631-.834-.422-.222a.889.889,0,0,1-.14-.083" transform="translate(-146.75 482.782)" fill="#17282f"/>
      <path id="path50" d="M21.157-392.232l44.407,4.441-2,30.3-45.9-5.358,3.494-29.383" transform="translate(156.13 435.508)" fill="#232f4d"/>
      <path id="path52" d="M17.662-335.039c-.043-.051,3.753-3.388,8.478-7.455s8.592-7.324,8.635-7.274-3.752,3.388-8.479,7.455-8.591,7.323-8.634,7.273" transform="translate(156.13 407.699)" fill="#17282f"/>
      <path id="path54" d="M125.153-327.332c-.054.038-3.107-4.15-6.819-9.354s-6.679-9.456-6.625-9.494,3.107,4.149,6.82,9.355,6.678,9.455,6.624,9.493" transform="translate(94.539 405.349)" fill="#17282f"/>
      <path id="path56" d="M27.789-392.233a.743.743,0,0,1,.114.1l.318.324,1.2,1.263,4.4,4.675L48.26-370.38l.175.189-.159-.015,16.893-12.481,5.128-3.755,1.4-1.01.368-.258a.712.712,0,0,1,.13-.081.75.75,0,0,1-.116.1l-.353.277-1.374,1.046-5.083,3.816L48.419-370.014l-.086.064-.073-.079-.175-.189L33.7-385.75l-4.341-4.727-1.171-1.293-.3-.341a.766.766,0,0,1-.1-.121" transform="translate(149.498 435.509)" fill="#17282f"/>
      <path id="path58" d="M671.7-260.576s-3.985-2.588-8.737,6.932a123.112,123.112,0,0,0-6.537,15s-1.26,2-2.636.71-3.275-4.954-5.588-4.272c-2.4.708-3.169,3.4-2.677,7.339s1.251,12.613,1.317,13.4c.065.77-.368,1.909-1.445,1.182s-7.3-7.538-10.352-4.393.117,13.9.442,15.079.1,1.69-.463,1.988-2.435-2.188-4.283-4.053-4.318-3.7-5.929-1.741-2.064,10.054,5.742,23.126l4.013,5.82,7.087-.452c15.107-1.893,21.206-7.23,21.761-9.707s-2.414-3.292-5.021-3.6-5.721-.257-5.831-.882.15-1.117,1.281-1.589S665.4-205.278,666-209.621s-8.6-5.054-9.834-5.456-.6-1.443.043-1.866,7.963-5.17,11.371-7.207,5.056-4.3,4.137-6.628c-.886-2.244-4.945-1.483-6.806-1.775s-1.062-2.514-1.062-2.514a123.194,123.194,0,0,0,7.8-14.386c4.579-9.6-.034-11.17-.034-11.17" transform="translate(-240.863 349.497)" fill="#232f4d"/>
      <path id="path60" d="M678.17-235.283s-.025.071-.085.206l-.271.6c-.248.532-.606,1.3-1.064,2.28-.926,1.979-2.287,4.834-3.983,8.354-3.389,7.041-8.153,16.728-13.45,27.409s-10.087,20.36-13.515,27.382l-4.05,8.32-1.1,2.26-.292.585c-.068.132-.108.2-.108.2s.025-.071.085-.206l.272-.6,1.063-2.28c.926-1.979,2.287-4.833,3.983-8.353,3.389-7.041,8.154-16.73,13.453-27.414s10.085-20.356,13.512-27.378l4.051-8.32,1.1-2.261.293-.585c.067-.131.107-.2.107-.2" transform="translate(-251.603 332.722)" fill="#17282f"/>
      <path id="path62" d="M701.511-191.55a2.085,2.085,0,0,1,.186.477c.106.312.246.766.413,1.329.331,1.127.748,2.7,1.175,4.436.413,1.713.786,3.261,1.075,4.458l.331,1.349a2.12,2.12,0,0,1,.1.5,2.083,2.083,0,0,1-.19-.475c-.1-.312-.245-.767-.406-1.332-.32-1.131-.716-2.7-1.143-4.444-.425-1.708-.809-3.254-1.106-4.449q-.2-.794-.339-1.347a2.118,2.118,0,0,1-.1-.5" transform="translate(-291.722 304.081)" fill="#17282f"/>
      <path id="path64" d="M712.909-162.91c-.019-.063,3.177-1.067,7.138-2.241s7.187-2.075,7.206-2.011-3.176,1.067-7.138,2.241-7.186,2.075-7.205,2.012" transform="translate(-299.189 288.112)" fill="#17282f"/>
      <path id="path66" d="M687.19-109.53a2.151,2.151,0,0,1,.522-.033l1.419-.01c1.2-.01,2.851-.029,4.675-.114s3.474-.213,4.667-.316l1.413-.12a2.192,2.192,0,0,1,.522-.016,2.222,2.222,0,0,1-.512.109c-.33.054-.811.124-1.407.2-1.191.147-2.843.3-4.673.386s-3.489.078-4.688.044c-.6-.02-1.084-.041-1.42-.067a2.208,2.208,0,0,1-.519-.06" transform="translate(-282.346 250.77)" fill="#17282f"/>
      <path id="path68" d="M669.575-139.3a1.922,1.922,0,0,1,.283.392c.169.26.407.64.7,1.112.579.945,1.364,2.257,2.218,3.715s1.617,2.785,2.158,3.751c.27.483.486.876.63,1.151a1.907,1.907,0,0,1,.2.438,1.858,1.858,0,0,1-.283-.391c-.169-.26-.407-.64-.7-1.112-.578-.945-1.364-2.257-2.219-3.716s-1.616-2.784-2.158-3.75c-.271-.483-.486-.877-.63-1.15a1.868,1.868,0,0,1-.2-.439" transform="translate(-270.808 269.864)" fill="#17282f"/>
      <path id="path70" d="M641.658-101.159a3.131,3.131,0,0,1,.357.505l.9,1.422c.748,1.206,1.767,2.881,2.88,4.739s2.11,3.547,2.821,4.776l.831,1.461a3.012,3.012,0,0,1,.276.553,3.075,3.075,0,0,1-.357-.5l-.9-1.422c-.748-1.207-1.767-2.882-2.881-4.74s-2.109-3.547-2.82-4.775l-.831-1.462a3,3,0,0,1-.277-.553" transform="translate(-252.526 244.884)" fill="#17282f"/>
      <path id="path72" d="M664.728-65.6a3.519,3.519,0,0,1,.659-.056l1.8-.077c1.518-.066,3.615-.163,5.926-.335s4.4-.374,5.913-.533l1.79-.185a3.538,3.538,0,0,1,.661-.041,3.537,3.537,0,0,1-.648.133c-.42.07-1.029.161-1.783.261-1.508.2-3.6.435-5.915.6s-4.417.242-5.938.265c-.76.009-1.376.01-1.8,0a3.5,3.5,0,0,1-.661-.037" transform="translate(-267.635 222.402)" fill="#17282f"/>
      <path id="path74" d="M77.737-77.651A10.414,10.414,0,0,0,72-74.583a5.371,5.371,0,0,0-1.794,3,2.3,2.3,0,0,0,1.8,2.626,3.06,3.06,0,0,0,1.94-.738c1.386-1,2.764-2.331,4.471-2.274.974.033,1.957.533,2.884.235a2.2,2.2,0,0,0,1.363-2.272A3.758,3.758,0,0,0,81.3-76.435a4.236,4.236,0,0,0-3.56-1.216" transform="translate(121.731 229.514)" fill="#f03d5f"/>
      <path id="path76" d="M72.146-68.952c-.046,0-.092,0-.138-.006a2.248,2.248,0,0,1-1.821-2.334,2.363,2.363,0,0,1,.018-.293,5.371,5.371,0,0,1,1.794-3,10.414,10.414,0,0,1,5.738-3.067,4.256,4.256,0,0,1,.576-.039A4.252,4.252,0,0,1,81.3-76.434a3.758,3.758,0,0,1,1.369,2.428c.005.061.008.123.007.184a2.174,2.174,0,0,1-1.37,2.087,2.073,2.073,0,0,1-.642.094c-.733,0-1.49-.3-2.242-.329l-.107,0c-1.658,0-3.007,1.3-4.364,2.276a3.237,3.237,0,0,1-1.8.743" transform="translate(121.731 229.513)" fill="#232f4d"/>
      <path id="path78" d="M59.8-129.5c0,2.094-2.235,2.97-3.723,2.735a8.727,8.727,0,0,1-3.906-2.161c-2.678-2.161-5.456-4.449-6.812-7.613a5.636,5.636,0,0,1-.523-3,2.945,2.945,0,0,1,1.751-2.363,4.307,4.307,0,0,1,3.466.7,24.188,24.188,0,0,1,7.916,7.122A8.387,8.387,0,0,1,59.8-129.5" transform="translate(138.36 271.668)" fill="#f03d5f"/>
      <path id="path80" d="M56.571-126.731a3.159,3.159,0,0,1-.492-.037,8.727,8.727,0,0,1-3.906-2.161c-2.678-2.161-5.456-4.449-6.812-7.613a6.224,6.224,0,0,1-.566-2.416,4,4,0,0,1,.042-.586,2.945,2.945,0,0,1,1.751-2.363,2.533,2.533,0,0,1,.883-.153,5.565,5.565,0,0,1,2.583.849,24.187,24.187,0,0,1,7.916,7.122A8.387,8.387,0,0,1,59.8-129.5c0,1.874-1.789,2.772-3.231,2.772" transform="translate(138.36 271.669)" fill="#393e4d"/>
      <path id="path82" d="M91.6-141.332a6.243,6.243,0,0,1-4.095-4.145,11.074,11.074,0,0,1-.05-5.995,18.322,18.322,0,0,1,2.923-6.443,6.5,6.5,0,0,1,1.976-1.955,2.876,2.876,0,0,1,2.682-.182c1.227.633,1.576,2.2,1.727,3.573a46.426,46.426,0,0,1,.224,7.288,10.834,10.834,0,0,1-1.437,5.614c-1.1,1.622-2.7,2.646-4.218,2.164" transform="translate(110.678 283.618)" fill="#232f4d"/>
      <path id="path84" d="M100.443-61.636a3.719,3.719,0,0,1-.537-.576l-1.391-1.623a30.845,30.845,0,0,0-2.184-2.28,24.14,24.14,0,0,0-3.044-2.364,13.593,13.593,0,0,0-3.454-1.648,7.024,7.024,0,0,0-3.082-.252,6.648,6.648,0,0,0-2,.64,3.75,3.75,0,0,1-.7.354,3.675,3.675,0,0,1,.64-.464,6.069,6.069,0,0,1,2.021-.755,7.016,7.016,0,0,1,3.2.192,13.255,13.255,0,0,1,3.548,1.663,22.542,22.542,0,0,1,3.072,2.417,26.34,26.34,0,0,1,2.155,2.349c.574.7,1.016,1.285,1.316,1.692a3.628,3.628,0,0,1,.439.654" transform="translate(112.651 224.941)" fill="#17282f"/>
      <path id="path86" d="M83.954-98.353a1.528,1.528,0,0,1-.225-.284l-.592-.848c-.514-.736-1.26-1.8-2.221-3.085-1.908-2.58-4.678-6.047-7.911-9.727s-6.336-6.854-8.673-9.054c-.578-.557-1.112-1.049-1.587-1.473s-.876-.8-1.219-1.09l-.776-.684a1.556,1.556,0,0,1-.257-.256,1.545,1.545,0,0,1,.3.206l.815.639c.356.276.774.634,1.257,1.051s1.034.893,1.623,1.441a117.637,117.637,0,0,1,8.759,9.008c3.24,3.686,5.988,7.184,7.853,9.8.939,1.305,1.659,2.391,2.141,3.15l.542.883a1.5,1.5,0,0,1,.17.319" transform="translate(128.08 260.402)" fill="#17282f"/>
      <path id="path88" d="M103.156-118.089a6.878,6.878,0,0,1-.615-.889c-.366-.592-.865-1.468-1.411-2.586a38.583,38.583,0,0,1-1.67-4.039,37.783,37.783,0,0,1-1.439-5.156,26.882,26.882,0,0,1-.4-9.686,13.346,13.346,0,0,1,.351-1.645c.063-.239.108-.466.175-.667l.2-.544a6.859,6.859,0,0,1,.41-1,32.161,32.161,0,0,0-.913,3.89,28.331,28.331,0,0,0,.487,9.587,40.316,40.316,0,0,0,1.4,5.123c.517,1.552,1.091,2.91,1.6,4.039s.982,2.012,1.313,2.62a7.025,7.025,0,0,1,.507.952" transform="translate(103.939 273.138)" fill="#17282f"/>
      <path id="path90" d="M303.49-236.77H132.049a6.7,6.7,0,0,1-6.7-6.7V-352.3a6.7,6.7,0,0,1,6.7-6.7H303.49a6.7,6.7,0,0,1,6.7,6.7v108.831a6.7,6.7,0,0,1-6.7,6.7" transform="translate(85.608 413.749)" fill="#1e1c32"/>
      <path id="path92" d="M295.025-20.3H111.136a8.189,8.189,0,0,1-8.189-8.189v-2.506H303.214v2.506a8.189,8.189,0,0,1-8.189,8.189" transform="translate(100.277 198.932)" fill="#1e1c32"/>
      <path id="path94" d="M314.131-241.706H139.725V-344.934H314.131v103.228" transform="translate(76.191 404.532)" fill="#232f4d"/>
      <path id="path96" d="M340.362-30.993l2.485,3.953h34.969l2.308-3.953H340.362" transform="translate(-55.207 198.932)" fill="#232f4d"/>
      <path id="path98" d="M316.208-235.4H151.639a1.507,1.507,0,0,1-1.506-1.506V-333.3a1.506,1.506,0,0,1,1.506-1.506H316.208a1.505,1.505,0,0,1,1.506,1.506v96.391a1.506,1.506,0,0,1-1.506,1.506" transform="translate(69.375 397.9)" fill="#e7e8e5"/>
      <path id="path100" d="M317.714-221.582H150.133V-313.7H317.714v92.12" transform="translate(69.375 384.079)" fill="#fafaf9"/>
      <path id="path102" d="M184.881-326.222a1.338,1.338,0,0,1-1.339,1.339,1.338,1.338,0,0,1-1.338-1.339,1.338,1.338,0,0,1,1.338-1.338,1.338,1.338,0,0,1,1.339,1.338" transform="translate(48.371 393.155)" fill="#33535f"/>
      <path id="path104" d="M161.376-326.222a1.338,1.338,0,0,1-1.339,1.339,1.338,1.338,0,0,1-1.338-1.339,1.338,1.338,0,0,1,1.338-1.338,1.338,1.338,0,0,1,1.339,1.338" transform="translate(63.764 393.155)" fill="#33535f"/>
      <path id="path106" d="M172.658-326.222a1.338,1.338,0,0,1-1.339,1.339,1.339,1.339,0,0,1-1.338-1.339,1.338,1.338,0,0,1,1.338-1.338,1.338,1.338,0,0,1,1.339,1.338" transform="translate(56.376 393.155)" fill="#33535f"/>
      <path id="path108" d="M308.605-31.22c0,.066-41.027.12-91.625.12-50.616,0-91.634-.054-91.634-.12s41.018-.12,91.634-.12c50.6,0,91.625.053,91.625.12" transform="translate(85.607 199.159)" fill="#33535f"/>
      <path id="path110" d="M245.785-154.254a23.538,23.538,0,0,1,.112-3.356,23.511,23.511,0,0,1,.352-3.34,23.659,23.659,0,0,1-.112,3.356,23.666,23.666,0,0,1-.351,3.34" transform="translate(6.751 284.041)" fill="#fafaf9"/>
      <path id="path112" d="M314.7-238.919l1.652-16.115,10.408,16.148Zm-59.954-18.22-.377,16.964-10.576.029Zm91.2,3.247c-9.411-14.557-19.188-30.885-19.188-30.885-8.5-10.374-15.372-14-28.773-14.56h0l-26.077-.109c-5.125.286-17.033-2.355-28.067,13.485l-.05-.077s-9.777,16.328-19.188,30.885c-10.552,16.321-4.238,33.271,7.034,34.26,11.4,1,18.465,1.3,22.253,1.389l-.18,7.308,60.459-.1-.618-8.184c6.065-.01,22.855-.067,25.336-.374,11.23-1.39,17.611-16.718,7.059-33.039" transform="translate(24.137 374.747)" fill="url(#linear-gradient)"/>
      <path id="path114" d="M399.684-301.365a2.312,2.312,0,0,1,.005.379,9.419,9.419,0,0,1-.076,1.085,13.782,13.782,0,0,1-.328,1.692,14.237,14.237,0,0,1-.784,2.146,13.2,13.2,0,0,1-3.623,4.672,11.833,11.833,0,0,1-6.72,2.592,11.154,11.154,0,0,1-6.957-1.83,11.869,11.869,0,0,1-3.877-4.455,12.192,12.192,0,0,1-1.186-3.815,9.263,9.263,0,0,1-.087-1.085,2.188,2.188,0,0,1,0-.379,2.278,2.278,0,0,1,.046.376c.014.247.059.609.131,1.073a12.7,12.7,0,0,0,1.245,3.752,11.84,11.84,0,0,0,3.849,4.349,11.012,11.012,0,0,0,6.819,1.775,11.7,11.7,0,0,0,6.6-2.525,13.226,13.226,0,0,0,3.608-4.572,14.654,14.654,0,0,0,.808-2.109,15,15,0,0,0,.365-1.669c.067-.465.108-.827.12-1.075a2.182,2.182,0,0,1,.043-.377" transform="translate(-78.577 375.999)" fill="#17282f"/>
      <path id="Intersection_7" data-name="Intersection 7" d="M.658,6.826C.355,3.733.1,1.026,0,.018.681.027,1.3.03,1.836,0L27.913.109h0q.428.018.848.04l.275,5.444c.1,6.565-5.6,12.076-13.048,12.615-.4.029-.791.043-1.182.043C7.5,18.251,1.3,13.333.658,6.826Z" transform="translate(294.208 75.302)" fill="#3a4853" opacity="0.36"/>
      <path id="path190" d="M433.048-403.092c.2-.076,6.756-.985,6.2,6.774s-8.207,4.631-8.2,4.408,2-11.182,2-11.182" transform="translate(-114.595 442.666)" fill="#f8a58d"/>
      <path id="path192" d="M438.479-389.41c.036-.023.128.1.349.225a1.359,1.359,0,0,0,1.009.093c.841-.242,1.624-1.494,1.762-2.89a4.475,4.475,0,0,0-.24-1.962,1.565,1.565,0,0,0-.942-1.11.689.689,0,0,0-.824.313c-.12.209-.082.368-.124.378-.023.018-.157-.142-.072-.457a.866.866,0,0,1,.34-.464,1.022,1.022,0,0,1,.762-.144,1.905,1.905,0,0,1,1.326,1.3,4.6,4.6,0,0,1,.314,2.2c-.161,1.559-1.067,2.965-2.211,3.209a1.45,1.45,0,0,1-1.221-.294c-.226-.208-.255-.385-.227-.4" transform="translate(-119.458 437.613)" fill="#f68260"/>
      <path id="path208" d="M353.276-155.765l38.689.665.435,26.325-40.045-1.352.921-25.639" transform="translate(-63.061 280.645)" fill="url(#linear-gradient-2)"/>
      <path id="path210" d="M355.024-185.009l20.027-15.41,18.661,16.076" transform="translate(-64.809 309.89)" fill="#17282f"/>
      <path id="path212" d="M352.354-109.17c-.047-.047,3.132-3.352,7.1-7.381s7.225-7.261,7.272-7.215-3.132,3.351-7.1,7.383-7.224,7.26-7.271,7.213" transform="translate(-63.06 259.689)" fill="#17282f"/>
      <path id="path214" d="M443.863-106.556c-.051.043-2.986-3.344-6.555-7.563s-6.422-7.676-6.371-7.719,2.984,3.344,6.555,7.565,6.422,7.675,6.371,7.718" transform="translate(-114.525 258.427)" fill="#17282f"/>
      <path id="path216" d="M393.713-155.1l-19.8,15.042-18.885-15.707" transform="translate(-64.809 280.645)" fill="#17282f"/>
      <path id="path218" d="M360.567-172.82l.219-11.254h33.9l.068,12.32L377.542-158.8l-16.975-14.02" transform="translate(-68.439 299.185)" fill="#e7e8e5"/>
      <path id="path220" d="M384.274-156.659c-.032.164-.114.247-.246.248a.222.222,0,0,1-.13-.041.284.284,0,0,1-.116-.257l.606-4.193.013-.089a.225.225,0,0,1,.224-.147l.116.03a.226.226,0,0,1,.126.2q-.565,4.1-.594,4.252" transform="translate(-83.643 284.165)" fill="#17282f"/>
      <path id="path222" d="M391.516-156.564c-.023.157-.1.236-.244.237a.31.31,0,0,1-.257-.182l-1.507-3.541q-.032.251-.076.56-.329,2.535-.394,2.891-.045.246-.253.247a.236.236,0,0,1-.13-.04.285.285,0,0,1-.117-.258q.594-4.182.6-4.194l.034-.1a.249.249,0,0,1,.227-.123q.2,0,.255.121l1.5,3.465.481-3.329.03-.107a.211.211,0,0,1,.205-.132l.121.035a.235.235,0,0,1,.113.21c-.01.069-.019.143-.03.222q-.483,3.61-.557,4.015" transform="translate(-86.756 284.116)" fill="#17282f"/>
      <path id="path224" d="M402.52-160.1a.542.542,0,0,0,.064.271q.186.339.829.346a2.488,2.488,0,0,0,.054-.46.841.841,0,0,0-.037-.261.42.42,0,0,0-.421-.326.536.536,0,0,0-.278.07.4.4,0,0,0-.211.36ZM401-161.008l.118.035a.24.24,0,0,1,.122.205q-.133.993-.208,1.554-.193,1.412-.2,1.6-.008.772.389.779a1.681,1.681,0,0,0,1.312-.681,4.115,4.115,0,0,0,.76-1.493,1.489,1.489,0,0,1-.888-.3,1.053,1.053,0,0,1-.381-.873.838.838,0,0,1,.311-.644.886.886,0,0,1,.592-.219.97.97,0,0,1,.7.283,1.131,1.131,0,0,1,.311.844c0,.08-.01.209-.025.387a1.09,1.09,0,0,0,.135-.038,2.036,2.036,0,0,0,.411-.2.58.58,0,0,1,.287-.108l.095.029a.213.213,0,0,1,.11.2c0,.126-.1.247-.305.362a2.275,2.275,0,0,1-.849.266l0,.006a4.893,4.893,0,0,1-.862,1.776,2.232,2.232,0,0,1-1.817.968.767.767,0,0,1-.267-.048q-.522-.207-.511-1.238a9.9,9.9,0,0,1,.152-1.447q.149-.9.179-1.246-.3.189-.482.294a1.326,1.326,0,0,1-.355.19.249.249,0,0,1-.133-.042.241.241,0,0,1-.114-.212.285.285,0,0,1,.149-.231l.024-.015a8.307,8.307,0,0,1,1.237-.735" transform="translate(-93.994 284.104)" fill="#17282f"/>
      <path id="path226" d="M413.749-156.359c-.032.163-.114.247-.245.248a.227.227,0,0,1-.13-.041.285.285,0,0,1-.116-.258l.606-4.192.014-.089a.224.224,0,0,1,.224-.148l.116.03a.225.225,0,0,1,.126.2q-.565,4.1-.594,4.252" transform="translate(-102.946 283.969)" fill="#17282f"/>
      <path id="path228" d="M421.945-160.517a.2.2,0,0,1-.038.116.258.258,0,0,1-.23.108l-1.394-.014q-.527,3.853-.556,4l-.006.036a.239.239,0,0,1-.252.21.218.218,0,0,1-.129-.041.288.288,0,0,1-.114-.258q0-.037.4-2.778c.09-.62.145-1.01.168-1.173l-1.3-.013a.435.435,0,0,1-.134-.023.2.2,0,0,1-.16-.2.266.266,0,0,1,.038-.134.249.249,0,0,1,.23-.118l3.225.033.091.019a.229.229,0,0,1,.166.229" transform="translate(-106.18 283.942)" fill="#17282f"/>
      <path id="path230" d="M429.46-160.684l1.958.02.113.017a.227.227,0,0,1,.165.237l-.022.092a.3.3,0,0,1-.246.158l-1.757-.018-.239,1.66,1.266.013a.352.352,0,0,1,.138.029.232.232,0,0,1,.146.23l-.016.082a.291.291,0,0,1-.251.162l-1.346-.014-.218,1.554,1.735.017a.4.4,0,0,1,.132.023.232.232,0,0,1,.156.233l-.013.076a.279.279,0,0,1-.252.171l-2.03-.021a.25.25,0,0,1-.138-.041.285.285,0,0,1-.117-.256q0-.043.586-4.2l.025-.085a.226.226,0,0,1,.224-.144" transform="translate(-113.01 283.867)" fill="#17282f"/>
      <path id="path232" d="M338.8-128.3s-.58,5.846.836,5.821c2.476-.043,11.965-2.48,12.631-.655s-2.425,3.54-2.425,3.54,3.031.572,1.539,2.15-6.578,9.352-9.848,9.512a43.271,43.271,0,0,1-10.762-1.354l2.475-17.137L338.8-128.3" transform="translate(-48.926 262.658)" fill="#f8a58d"/>
      <path id="path234" d="M367.145-105.58a1.959,1.959,0,0,1-.4.286c-.266.173-.662.4-1.16.675a28.962,28.962,0,0,1-4.05,1.8,29.049,29.049,0,0,1-4.277,1.157c-.558.1-1.011.173-1.326.207a1.974,1.974,0,0,1-.493.032c-.006-.038.684-.157,1.785-.4a37.73,37.73,0,0,0,4.231-1.218,37.66,37.66,0,0,0,4.052-1.72c1.011-.5,1.621-.843,1.641-.81" transform="translate(-65.079 247.78)" fill="#f68260"/>
      <path id="path236" d="M367.26-93.626a1.945,1.945,0,0,1-.336.361,12.179,12.179,0,0,1-1.016.877,17.223,17.223,0,0,1-3.812,2.25,17.224,17.224,0,0,1-4.261,1.2,12.391,12.391,0,0,1-1.337.128,1.98,1.98,0,0,1-.492-.007c0-.042.695-.09,1.8-.289A19.8,19.8,0,0,0,362-90.358a19.851,19.851,0,0,0,3.8-2.165c.909-.663,1.425-1.134,1.454-1.1" transform="translate(-65.452 239.952)" fill="#f68260"/>
      <path id="path238" d="M440.879-128.686s.528,4.879-1.329,5.534c-2.336.824-11.965-2.48-12.631-.655s2.425,3.54,2.425,3.54-3.031.571-1.539,2.149,6.578,9.352,9.847,9.513a48.9,48.9,0,0,0,9.634-.663L445.94-127.1l-5.061-1.59" transform="translate(-111.832 262.911)" fill="#f8a58d"/>
      <path id="path240" d="M430.792-106.8c.019-.033.63.309,1.641.81a37.683,37.683,0,0,0,4.051,1.72,37.721,37.721,0,0,0,4.232,1.218c1.1.248,1.79.367,1.785.4a1.948,1.948,0,0,1-.493-.032c-.315-.034-.769-.1-1.327-.207a28.912,28.912,0,0,1-4.277-1.157,28.918,28.918,0,0,1-4.05-1.8c-.5-.271-.895-.5-1.161-.675a1.949,1.949,0,0,1-.4-.286" transform="translate(-114.429 248.577)" fill="#f68260"/>
      <path id="path242" d="M432.327-94.844c.028-.03.536.431,1.419,1.09a19.745,19.745,0,0,0,3.7,2.177,18.451,18.451,0,0,0,4.1,1.261c1.084.2,1.769.243,1.766.285a1.871,1.871,0,0,1-.483.008,11.934,11.934,0,0,1-1.31-.126,16.144,16.144,0,0,1-4.169-1.209,17.057,17.057,0,0,1-3.7-2.262,12.965,12.965,0,0,1-.989-.868,1.849,1.849,0,0,1-.327-.356" transform="translate(-115.434 240.749)" fill="#f68260"/>
      <path id="Path_1053" data-name="Path 1053" d="M195.195,202.172s3.308-16.73,3.648-20.587S197.871,198,197.871,198Z" transform="translate(81.011 -80.425)" fill="#4f4a4b"/>
      <path id="Path_1054" data-name="Path 1054" d="M172.208,239.483H162.036s6.209-.8,8.22-1.565,3.986-1.588,3.986-1.588Z" transform="translate(95.737 -104.954)" fill="#4f4a4b"/>
      <path id="Path_1055" data-name="Path 1055" d="M329.527,243.992l11.435.286s-8.74-.677-9.676-.8A2.694,2.694,0,0,0,329.527,243.992Z" transform="translate(21.355 -108.124)" fill="#4f4a4b"/>
      <path id="Path_1056" data-name="Path 1056" d="M328.92,241.721s4.2-2.652,7.192-3.021a30.016,30.016,0,0,1,3.156-.33s-2.576-.055-5.414.09a13.084,13.084,0,0,0-3.6.8c-2.571.889-2.225,1.132-2.225,1.132Z" transform="translate(22.027 -105.856)" fill="#4f4a4b"/>
      <g id="Group_1257" data-name="Group 1257" transform="translate(283.59 30.623)">
        <path id="Path_1014" data-name="Path 1014" d="M665.861,875.453v13.926s1.906,8.611,11.775,7.913,10.385-7.913,10.385-7.913l-.37-14.534Z" transform="translate(-651.687 -839.284)" fill="#ffb3a5"/>
        <path id="Path_1015" data-name="Path 1015" d="M665.861,875.453v15.035s5.538,6.188,11.4,6.1,10.5-7.178,10.5-7.178l-.112-14.562Z" transform="translate(-651.687 -848.782)" fill="#f5836b"/>
        <path id="Path_1011" data-name="Path 1011" d="M653.727,851.823s5.448,21.661,10.514,26.448,16.212,7.32,22.456.938,9.178-30.318,9.178-30.318l-19.548-11.569Z" transform="translate(-651.053 -837.322)" fill="#ffb3a5"/>
        <path id="Path_1012" data-name="Path 1012" d="M654.5,852.494s-5.2.481-3.087,7.018,7.381,4.294,7.381,4.294Z" transform="translate(-650.905 -838.115)" fill="#ffb3a5"/>
        <path id="Path_1013" data-name="Path 1013" d="M655.2,852.494s5.2.481,3.087,7.018-7.381,4.294-7.381,4.294Z" transform="translate(-611.101 -839.063)" fill="#ffb3a5"/>
        <circle id="Ellipse_381" data-name="Ellipse 381" cx="4.224" cy="4.224" r="4.224" transform="translate(11.067 3.625)" fill="#17282f"/>
        <circle id="Ellipse_382" data-name="Ellipse 382" cx="4.224" cy="4.224" r="4.224" transform="translate(19.516 3.625)" fill="#17282f"/>
        <circle id="Ellipse_383" data-name="Ellipse 383" cx="4.224" cy="4.224" r="4.224" transform="translate(27.965 3.625)" fill="#17282f"/>
      </g>
      <path id="path172" d="M363.73-443.942c-.188.772-.931,4.81-.294,5.286s2.615-2.64,3.3-3.038c1.305-.757,1.37-2.621,1.022-4.09s-.942-3.023-.4-4.43a10.1,10.1,0,0,1,2.167-2.672,6.513,6.513,0,0,0,1.493-5.619,5.475,5.475,0,0,0-4-4.087c-2.006-.44-4.4.3-5.955-1.041-1.125-.975-1.286-2.669-2.181-3.859-1.388-1.847-4.111-2-6.379-1.556s-4.553,1.308-6.823.877c-1.9-.359-3.5-1.578-5.3-2.28a10.389,10.389,0,0,0-11.4,2.888,10.388,10.388,0,0,0-.962,11.72,6.463,6.463,0,0,0,3.309,2.922" transform="translate(-38.83 488.216)" fill="#17282f"/>
      <path id="path198" d="M337.015-439.367s5.6,2.46,12.635-1.383c4.614-2.521,10.051-3.871,11.294-2.971s1.679,5.735,6.388,6.975c0,0,.024,9.254,3.7,8.788s.837-14.7.837-14.7l-8.661-5.764-9.907-1.492L342.492-448.3l-6.03,3.969.554,4.963" transform="translate(-45.26 474.337)" fill="#17282f"/>
      <path id="path172-2" data-name="path172" d="M334.082-443.787c.188.772-.125,4.81-.762,5.286s-1.559-2.64-2.246-3.038c-1.305-.757-1.37-2.621-1.022-4.09s.942-3.023.4-4.43a10.1,10.1,0,0,0-2.167-2.672,6.513,6.513,0,0,1-1.493-5.619,5.475,5.475,0,0,1,4-4.087c2.006-.44,4.4.3,5.955-1.041,1.125-.975,1.286-2.669,2.181-3.859,1.388-1.847,7.518-7.784,12.455-6.282s4.252,4.026,6.049,3.324a10.389,10.389,0,0,1,11.4,2.888,10.388,10.388,0,0,1,.962,11.72,6.463,6.463,0,0,1-3.309,2.922" transform="translate(-44.111 488.062)" fill="#17282f"/>
      <path id="path198-2" data-name="path198" d="M372.358-439.367s-5.6,2.46-12.635-1.383c-4.614-2.521-10.051-3.871-11.294-2.971s-1.679,5.735-6.388,6.975c0,0-.024,9.254-3.7,8.788s-.837-14.7-.837-14.7l8.661-5.764,9.907-1.492,10.807,1.611,6.03,3.969-.554,4.963" transform="translate(-49.243 474.337)" fill="#17282f"/>
    </g>
    <path id="path346" d="M409.932-97.982a2.58,2.58,0,0,1-2.58-2.58,2.58,2.58,0,0,1,2.58-2.579,2.58,2.58,0,0,1,2.579,2.579A2.58,2.58,0,0,1,409.932-97.982ZM395.6-109.639h-4.484a3.259,3.259,0,0,0-3.25,3.249h0a3.26,3.26,0,0,0,3.25,3.25h11.846a2.587,2.587,0,0,1,2.579,2.578h0a2.588,2.588,0,0,1-2.579,2.58H90a2.588,2.588,0,0,1-2.579-2.58h0A2.588,2.588,0,0,1,90-103.14h16.246a3.259,3.259,0,0,0,3.25-3.25h0a3.258,3.258,0,0,0-3.25-3.249h-3.807a5.173,5.173,0,0,1-5.158-5.158h0a5.174,5.174,0,0,1,5.158-5.158H395.6a5.175,5.175,0,0,1,5.158,5.158h0a5.174,5.174,0,0,1-5.158,5.158h0" transform="translate(-129.757 -187.274)" fill="#141b2c" fill-rule="evenodd"/>
    <path id="path248" d="M581.7-552.469h35.666a5.574,5.574,0,0,1,5.558,5.558v31.067a.61.61,0,0,1-.383.573.608.608,0,0,1-.676-.135l-9.472-9.471H581.7a5.574,5.574,0,0,1-5.558-5.558v-16.477a5.574,5.574,0,0,1,5.558-5.558" transform="translate(-606.495 42.867)" fill="#adbee3" fill-rule="evenodd"/>
    <path id="path250" d="M610.2-556.768H574.538a4.807,4.807,0,0,0-3.405,1.417,4.81,4.81,0,0,0-1.418,3.406v16.476a4.81,4.81,0,0,0,1.418,3.406,4.808,4.808,0,0,0,3.405,1.417h31l9.491,9.492v-30.792a4.809,4.809,0,0,0-1.417-3.406A4.81,4.81,0,0,0,610.2-556.768Zm-35.666-1.469H610.2a6.271,6.271,0,0,1,4.444,1.848,6.277,6.277,0,0,1,1.848,4.444v31.066a1.349,1.349,0,0,1-.229.753,1.34,1.34,0,0,1-.607.5h0a1.341,1.341,0,0,1-.778.08,1.345,1.345,0,0,1-.7-.372l-9.255-9.256h-30.39a6.281,6.281,0,0,1-4.445-1.848,6.276,6.276,0,0,1-1.846-4.445v-16.476a6.273,6.273,0,0,1,1.846-4.444,6.274,6.274,0,0,1,4.445-1.848h0" transform="translate(-603.544 45.022)" fill="#415484" fill-rule="evenodd"/>
    <path id="path348" d="M455.617-445.892h35.665a4.81,4.81,0,0,1,3.407,1.418,4.812,4.812,0,0,1,1.417,3.406v16.476a4.811,4.811,0,0,1-1.417,3.406,4.81,4.81,0,0,1-3.407,1.417h-31l-9.491,9.492v-30.791a4.809,4.809,0,0,1,1.417-3.406,4.809,4.809,0,0,1,3.406-1.418Zm35.665-1.468H455.617a6.272,6.272,0,0,0-4.444,1.848,6.273,6.273,0,0,0-1.848,4.445V-410a1.352,1.352,0,0,0,.229.753,1.345,1.345,0,0,0,.607.5h0a1.348,1.348,0,0,0,.778.08,1.355,1.355,0,0,0,.7-.373l9.255-9.255h30.389a6.273,6.273,0,0,0,4.445-1.848,6.277,6.277,0,0,0,1.848-4.445v-16.476a6.275,6.275,0,0,0-1.848-4.445,6.273,6.273,0,0,0-4.445-1.848h0" transform="translate(-564.118 3.602)" fill="#22273e" fill-rule="evenodd"/>
    <path id="path56-2" data-name="path56" d="M441.035-557.38a9.377,9.377,0,0,0-2.092.89,9.51,9.51,0,0,0-1.836,1.383.325.325,0,0,1-.39.048l-2.481-1.432-.013-.008a.614.614,0,0,0-.453-.052.61.61,0,0,0-.372.286l-.011.017-1.745,3.022a.615.615,0,0,0-.06.468.617.617,0,0,0,.286.373l.017.011,2.46,1.42a.326.326,0,0,1,.155.362h0a9.463,9.463,0,0,0-.207,1.128,9.443,9.443,0,0,0-.069,1.149,9.48,9.48,0,0,0,.069,1.15,9.525,9.525,0,0,0,.207,1.128.326.326,0,0,1-.174.372l-2.458,1.42h0a.609.609,0,0,0-.286.373.613.613,0,0,0,.06.467l1.755,3.039h0a.61.61,0,0,0,.372.286.615.615,0,0,0,.466-.059l.018-.01,2.463-1.422a.328.328,0,0,1,.389.048,9.472,9.472,0,0,0,1.836,1.383,9.34,9.34,0,0,0,2.106.895.328.328,0,0,1,.238.316v2.861a.609.609,0,0,0,.18.433.613.613,0,0,0,.434.181h3.51a.61.61,0,0,0,.434-.181.609.609,0,0,0,.18-.433v-2.861a.33.33,0,0,1,.252-.32,9.325,9.325,0,0,0,2.091-.89,9.473,9.473,0,0,0,1.836-1.383.325.325,0,0,1,.407-.037l2.464,1.422a.614.614,0,0,0,.466.059.611.611,0,0,0,.373-.286l.011-.017,1.745-3.023h0a.615.615,0,0,0,.059-.466.61.61,0,0,0-.284-.373l-2.478-1.431a.328.328,0,0,1-.155-.362h0a9.317,9.317,0,0,0,.206-1.128,9.469,9.469,0,0,0,.069-1.15,9.467,9.467,0,0,0-.069-1.15,9.3,9.3,0,0,0-.206-1.127.328.328,0,0,1,.173-.372l2.46-1.42a.61.61,0,0,0,.284-.373.614.614,0,0,0-.059-.466l-.01-.018-1.745-3.022h0a.614.614,0,0,0-.373-.286.614.614,0,0,0-.466.059h0l-2.48,1.432a.328.328,0,0,1-.4-.054,9.515,9.515,0,0,0-1.828-1.376,9.375,9.375,0,0,0-2.106-.895.328.328,0,0,1-.238-.315v-2.861a.613.613,0,0,0-.18-.433.613.613,0,0,0-.434-.18H441.9a.616.616,0,0,0-.434.18.612.612,0,0,0-.18.433v2.861a.329.329,0,0,1-.251.319Zm-1.153,5.29a5.322,5.322,0,0,1,3.774-1.564,5.322,5.322,0,0,1,3.774,1.564,5.318,5.318,0,0,1,1.564,3.774,5.32,5.32,0,0,1-1.564,3.774,5.321,5.321,0,0,1-3.774,1.564,5.322,5.322,0,0,1-3.774-1.564,5.323,5.323,0,0,1-1.563-3.774A5.321,5.321,0,0,1,439.882-552.089Zm-2.775,10.565h0" transform="translate(-205.796 39.724)" fill="#adbee3" fill-rule="evenodd"/>
    <path id="path62-2" data-name="path62" d="M534.313-480.086a9.4,9.4,0,0,0-2.092.891,9.5,9.5,0,0,0-1.836,1.383.324.324,0,0,1-.39.048l-2.481-1.432-.013-.008a.618.618,0,0,0-.453-.052.618.618,0,0,0-.373.285l-.01.018-1.745,3.022a.616.616,0,0,0-.06.468.614.614,0,0,0,.286.373l.017.011,2.461,1.419a.328.328,0,0,1,.153.362h0a9.488,9.488,0,0,0-.208,1.128,9.656,9.656,0,0,0-.068,1.15,9.654,9.654,0,0,0,.068,1.15,9.488,9.488,0,0,0,.208,1.128.327.327,0,0,1-.174.372l-2.459,1.42h0a.615.615,0,0,0-.286.374.611.611,0,0,0,.06.466l1.755,3.04h0a.616.616,0,0,0,.373.286.611.611,0,0,0,.466-.06l.018-.01L530-464.278a.327.327,0,0,1,.389.048,9.5,9.5,0,0,0,1.836,1.383,9.339,9.339,0,0,0,2.106.895.329.329,0,0,1,.238.316v2.861a.615.615,0,0,0,.18.434.615.615,0,0,0,.434.18h3.51a.614.614,0,0,0,.433-.18.615.615,0,0,0,.18-.434v-2.861a.329.329,0,0,1,.252-.32,9.318,9.318,0,0,0,2.092-.89,9.44,9.44,0,0,0,1.834-1.383.327.327,0,0,1,.408-.038l2.464,1.422a.611.611,0,0,0,.466.06.614.614,0,0,0,.373-.286l.01-.017,1.746-3.024h0a.609.609,0,0,0,.059-.465.616.616,0,0,0-.284-.374l-2.478-1.43a.328.328,0,0,1-.155-.362h0a9.156,9.156,0,0,0,.206-1.128,9.456,9.456,0,0,0,.069-1.15,9.466,9.466,0,0,0-.069-1.15,9.154,9.154,0,0,0-.206-1.128.327.327,0,0,1,.173-.372l2.46-1.42a.612.612,0,0,0,.284-.373.61.61,0,0,0-.059-.466l-.011-.018-1.744-3.023h0a.62.62,0,0,0-.374-.285.615.615,0,0,0-.466.059h0l-2.481,1.432a.325.325,0,0,1-.4-.054,9.509,9.509,0,0,0-1.828-1.376,9.4,9.4,0,0,0-2.106-.895.328.328,0,0,1-.238-.315v-2.862a.612.612,0,0,0-.18-.433.611.611,0,0,0-.433-.18h-3.51a.612.612,0,0,0-.434.18.612.612,0,0,0-.18.433v2.862a.327.327,0,0,1-.251.318Zm-1.153,5.291a5.325,5.325,0,0,1,3.774-1.564,5.325,5.325,0,0,1,3.774,1.564,5.324,5.324,0,0,1,1.563,3.774,5.327,5.327,0,0,1-1.563,3.775,5.325,5.325,0,0,1-3.774,1.564,5.325,5.325,0,0,1-3.774-1.564,5.323,5.323,0,0,1-1.563-3.775A5.321,5.321,0,0,1,533.159-474.795Zm-2.775,10.564h0" transform="translate(-240.641 10.849)" fill="#adbee3" fill-rule="evenodd"/>
  </g>
</svg>
