<!--
~    Copyright (c) 2021, WSO2 Inc. (http://www.wso2.com). All Rights Reserved.
~
~    This software is the property of WSO2 Inc. and its suppliers, if any.
~    Dissemination of any information or reproduction of any material contained
~    herein in any form is strictly forbidden, unless permitted by WSO2 expressly.
~    You may not alter or remove any copyright or other notice from copies of this content."
-->

<svg id="help" xmlns="http://www.w3.org/2000/svg" width="14.41" height="14.41" viewBox="0 0 14.41 14.41">
  <path id="Path_2364" data-name="Path 2364" d="M14.41,9.752A4.669,4.669,0,0,0,11,5.264,5.5,5.5,0,1,0,.763,8.3L.02,10.984l2.685-.743A5.482,5.482,0,0,0,5.264,11a4.659,4.659,0,0,0,6.859,2.764l2.268.627-.627-2.268a4.641,4.641,0,0,0,.648-2.37ZM2.839,9.329l-1.608.445.445-1.608-.1-.159A4.656,4.656,0,1,1,3,9.43Zm10.34,3.85-1.193-.33-.159.1a3.815,3.815,0,0,1-5.69-1.985,5.513,5.513,0,0,0,4.831-4.831,3.815,3.815,0,0,1,1.985,5.69l-.1.159Zm0,0" fill="#3b3b3b"/>
  <path id="Path_2365" data-name="Path 2365" d="M180.5,271h.844v.844H180.5Zm0,0" transform="translate(-175.42 -263.373)" fill="#3b3b3b"/>
  <path id="Path_2366" data-name="Path 2366" d="M138.033,91.689a.836.836,0,0,1-.275.623l-.992.908v1.03h.844v-.658l.717-.657a1.689,1.689,0,1,0-2.828-1.246h.844a.844.844,0,1,1,1.689,0Zm0,0" transform="translate(-131.686 -87.467)" fill="#3b3b3b"/>
</svg>
