<!--
 * Copyright (c) 2021, WSO2 Inc. (http://www.wso2.com). All Rights Reserved.
 *
 * This software is the property of WSO2 Inc. and its suppliers, if any.
 * Dissemination of any information or reproduction of any material contained
 * herein in any form is strictly forbidden, unless permitted by WSO2 expressly.
 * You may not alter or remove any copyright or other notice from copies of this content."
-->

<svg id="asgardeo-logo-dark" class="icon" xmlns="http://www.w3.org/2000/svg" viewBox="0 0 325.49 47.11">
    <polygon fill="#ff7300" points="319.48 0 321.42 3.35 319.27 7.06 323.56 7.06 325.49 10.41 313.47 10.41 319.48 0"/>
    <polygon fill="#ff7300"
             points="304.45 10.41 306.38 7.06 310.67 7.06 308.53 3.35 310.46 0 316.48 10.41 304.45 10.41"/>
    <polygon points="317.11 18.23 314.97 14.51 312.83 18.23 308.96 18.23 314.97 7.81 320.98 18.23 317.11 18.23"/>
    <path d="M44.6,47.2V39.41H64.26a3.16,3.16,0,0,0,2.3-.95,3.27,3.27,0,0,0-2.3-5.59h-8.6a10.6,10.6,0,0,1-7.82-3.24,10.58,10.58,0,0,1-3.24-7.82A10.56,10.56,0,0,1,47.84,14a10.57,10.57,0,0,1,7.82-3.25H75.32v7.79H55.66a3.26,3.26,0,0,0-3.27,3.27,3.24,3.24,0,0,0,3.27,3.27h8.6A11.1,11.1,0,0,1,75.32,36.14,11.08,11.08,0,0,1,64.26,47.2Z"
          transform="translate(-0.49 -0.1)"/>
    <path d="M96.41,47.2a17.41,17.41,0,0,1-12.89-5.33A17.44,17.44,0,0,1,78.18,29a17.44,17.44,0,0,1,5.34-12.89,17.42,17.42,0,0,1,12.89-5.34h15.36v7.79H96.41A10.45,10.45,0,0,0,86,29,10.43,10.43,0,0,0,96.41,39.41H104V32.87H98.24V25.08h13.53V47.2Z"
          transform="translate(-0.49 -0.1)"/>
    <path d="M186.09,47.2,168.52,29.78V47.2h-7.8V10.75h19.66A10.56,10.56,0,0,1,188.2,14a10.57,10.57,0,0,1,3.25,7.81,10.59,10.59,0,0,1-3.25,7.82,11.75,11.75,0,0,1-3.12,2.26L182.77,33,197,47.2Zm-5.71-22.12a3.26,3.26,0,0,0,3.27-3.27,3.26,3.26,0,0,0-3.27-3.27H168.52v6.54Z"
          transform="translate(-0.49 -0.1)"/>
    <path d="M199.87,47.2V10.75h15.36a17.42,17.42,0,0,1,12.89,5.34A17.44,17.44,0,0,1,233.46,29a17.44,17.44,0,0,1-5.34,12.89,17.41,17.41,0,0,1-12.89,5.33Zm15.36-7.79A10.43,10.43,0,0,0,225.67,29a10.45,10.45,0,0,0-10.44-10.44h-7.56V39.41Z"
          transform="translate(-0.49 -0.1)"/>
    <path d="M287.52,47.2a17.39,17.39,0,0,1-12.88-5.33A17.4,17.4,0,0,1,269.3,29a17.4,17.4,0,0,1,5.34-12.89,18.22,18.22,0,0,1,25.77,0A17.44,17.44,0,0,1,305.75,29a17.44,17.44,0,0,1-5.34,12.89A17.41,17.41,0,0,1,287.52,47.2Zm0-28.66A10.45,10.45,0,0,0,277.09,29,10.44,10.44,0,1,0,294.9,21.6,10.11,10.11,0,0,0,287.52,18.54Z"
          transform="translate(-0.49 -0.1)"/>
    <polygon points="0 47.1 8.71 47.1 21.04 25.73 33.37 47.1 42.08 47.1 21.04 10.65 0 47.1"/>
    <polygon points="114.66 47.1 123.36 47.1 135.7 25.73 148.03 47.1 156.74 47.1 135.7 10.65 114.66 47.1"/>
    <polygon
            points="236.34 46.99 236.34 10.67 266.79 10.67 266.79 18.4 244.11 18.4 244.11 25.08 261.12 25.08 261.12 32.61 244.11 32.61 244.11 39.27 266.79 39.27 266.79 46.99 236.34 46.99"/>
</svg>
