<!--
 * Copyright (c) 2021, WSO2 Inc. (http://www.wso2.com). All Rights Reserved.
 *
 * This software is the property of WSO2 Inc. and its suppliers, if any.
 * Dissemination of any information or reproduction of any material contained
 * herein in any form is strictly forbidden, unless permitted by WSO2 expressly.
 * You may not alter or remove any copyright or other notice from copies of this content."
-->

<svg id="asgardeo-logo-full-light" class="icon" xmlns="http://www.w3.org/2000/svg" width="232.465" height="56.864" viewBox="0 0 232.465 56.864">
    <g id="Group_1053" data-name="Group 1053" transform="translate(-401.5 -388.98)">
        <path id="Path_2285" data-name="Path 2285" d="M719.269,388.98l1.378,2.392-1.528,2.65h3.057l1.385,2.392H714.97Z"
              transform="translate(-89.597 0)" fill="#ff7300"/>
        <path id="Path_2286" data-name="Path 2286"
              d="M705.95,396.415l1.386-2.392h3.057l-1.528-2.65,1.378-2.392,4.3,7.435Z" transform="translate(-87.019 0)"
              fill="#ff7300"/>
        <path id="Path_2287" data-name="Path 2287"
              d="M716.288,404.225l-1.528-2.65-1.535,2.65H710.46l4.3-7.435,4.292,7.435Z"
              transform="translate(-88.308 -2.232)" fill="#fff"/>
        <path id="Path_2288" data-name="Path 2288"
              d="M445.61,425.662V420.1h14.041a2.335,2.335,0,1,0,0-4.671h-6.142a7.9,7.9,0,0,1,0-15.8H467.55v5.563H453.509a2.3,2.3,0,0,0-1.65.678,2.335,2.335,0,0,0,1.65,3.992h6.142a7.9,7.9,0,1,1,0,15.8Z"
              transform="translate(-12.608 -3.044)" fill="#fff"/>
        <path id="Path_2289" data-name="Path 2289"
              d="M492.088,425.66a13.019,13.019,0,1,1,0-26.032h10.97v5.563h-10.97a7.456,7.456,0,0,0,0,14.9H497.5v-4.671h-4.092v-5.535h9.656v15.8Z"
              transform="translate(-22.084 -3.043)" fill="#fff"/>
        <path id="Path_2290" data-name="Path 2290"
              d="M579.859,425.662,567.3,413.221v12.441H561.74V399.63h14.041a7.9,7.9,0,0,1,5.585,13.484,8.435,8.435,0,0,1-2.228,1.607l-1.657.807,10.156,10.134Zm-4.078-15.769a2.335,2.335,0,0,0,0-4.671H567.3v4.671Z"
              transform="translate(-45.8 -3.044)" fill="#fff"/>
        <path id="Path_2291" data-name="Path 2291"
              d="M600.89,425.66V399.629h10.97a13.019,13.019,0,1,1,0,26.032Zm10.97-5.563a7.456,7.456,0,0,0,0-14.9h-5.406v14.9Z"
              transform="translate(-56.99 -3.043)" fill="#fff"/>
        <path id="Path_2292" data-name="Path 2292"
              d="M683.337,425.67a13.005,13.005,0,1,1,9.206-3.814,12.419,12.419,0,0,1-9.206,3.814Zm0-20.468a7.463,7.463,0,1,0,5.264,2.185A7.235,7.235,0,0,0,683.337,405.2Z"
              transform="translate(-76.839 -3.052)" fill="#fff"/>
        <path id="Path_2293" data-name="Path 2293"
              d="M401.5,425.662h6.221l8.813-15.262,8.806,15.262h6.213L416.533,399.63Z" transform="translate(0 -3.044)"
              fill="#fff"/>
        <path id="Path_2294" data-name="Path 2294"
              d="M516.16,425.662h6.221l8.806-15.262,8.806,15.262h6.22L531.186,399.63Z"
              transform="translate(-32.772 -3.044)" fill="#fff"/>
        <path id="Path_2295" data-name="Path 2295"
              d="M637.84,425.589V399.65h21.747v5.513h-16.2v4.771h12.148v5.385H643.389v4.757h16.2v5.513Z"
              transform="translate(-67.551 -3.05)" fill="#fff"/>
        <path id="Path_2301" data-name="Path 2301"
              d="M637.8,452.842v-5.535h1.807a2.092,2.092,0,0,1,1.357.371,1.351,1.351,0,0,1,.457,1.1,1.129,1.129,0,0,1-.221.714,1.43,1.43,0,0,1-.6.464,1.3,1.3,0,0,1,.714.479,1.386,1.386,0,0,1,.257.836,1.471,1.471,0,0,1-.478,1.171,1.992,1.992,0,0,1-1.364.428Zm.714-3.178h1.1a1.185,1.185,0,0,0,.771-.236.921.921,0,0,0,0-1.314,1.292,1.292,0,0,0-.814-.214h-1.078Zm0,.586v1.992h1.207a1.136,1.136,0,0,0,.8-.264.907.907,0,0,0,.3-.714c0-.664-.364-1-1.093-1Z"
              transform="translate(-67.54 -16.67)" fill="#fff"/>
        <path id="Path_2302" data-name="Path 2302"
              d="M645.6,452.385l.957-3.085h.75l-1.657,4.785c-.25.714-.657,1.021-1.214,1.021H644.3l-.264-.05v-.571h.193a.921.921,0,0,0,.557-.143,1.008,1.008,0,0,0,.329-.529l.157-.414-1.471-4.071h.771Z"
              transform="translate(-69.255 -17.241)" fill="#fff"/>
        <g id="logo-full" transform="translate(-237.189 2641.982)">
            <g id="wso2-logo" transform="translate(818.154 -2212)">
                <circle id="Ellipse_1" data-name="Ellipse 1" cx="4.988" cy="4.988" r="4.988"
                        transform="translate(25.472 1.227)" fill="#f47b20"/>
                <path id="Path_326" data-name="Path 326"
                      d="M83.372,1,83.363.933H81.429l-.02.036q-.344.612-.688,1.228l-.2.359Q80,1.3,79.49.052q-.537-1.321-1.08-2.642l-.069-.153-.069.151q-.389.865-.777,1.736C77.14-.062,76.772.758,76.4,1.561c-.515,0-1.032,0-1.546,0H73.362v.074a3.631,3.631,0,0,0,.047.471l.012.085h3.393l.019-.042q.379-.836.757-1.676.363-.813.728-1.619l1.1,2.675.963,2.339L80.438,4l.073-.129q.5-.883.986-1.769l.3-.546h1.573l.006-.069A3.063,3.063,0,0,0,83.372,1Z"
                      transform="translate(-47.904 4.978)" fill="#0f0f0f"/>
                <path id="Path_327" data-name="Path 327"
                      d="M29-6.623h1.46q1.778,4.375,3.557,8.75C35.2-.8,36.383-3.72,37.583-6.641q1.78,4.386,3.561,8.771,1.78-4.375,3.557-8.753h1.477Q43.7-.491,41.209,5.637c0,.059-.09.157-.11.043q-1.758-4.35-3.517-8.7c-1.2,2.933-2.377,5.873-3.567,8.805Q31.5-.414,29-6.623Z"
                      transform="translate(-29 6.639)" fill="#f47b20"/>
                <path id="Path_328" data-name="Path 328"
                      d="M59.332-5.992a3.921,3.921,0,0,1,2.727-.6,3.517,3.517,0,0,1,2.5,1.844c-.355.234-.717.455-1.07.691-.188-.206-.316-.46-.512-.66A1.837,1.837,0,0,0,62-5.3a2.3,2.3,0,0,0-2.143.619,1.575,1.575,0,0,0-.42,1.149,1.575,1.575,0,0,0,.529,1.1A12.084,12.084,0,0,0,61.5-1.52,12.463,12.463,0,0,1,63.473-.5,3.7,3.7,0,0,1,64.621.563,3.336,3.336,0,0,1,64.929,2.8a3.658,3.658,0,0,1-1.651,2.408,3.89,3.89,0,0,1-2.526.556A3.492,3.492,0,0,1,58.6,4.83,4.184,4.184,0,0,1,57.462,2.7c.438-.138.876-.266,1.313-.4A3.122,3.122,0,0,0,59.8,4.085a2.4,2.4,0,0,0,1.926.39,2.349,2.349,0,0,0,1.728-1.42,2.421,2.421,0,0,0,.086-1.524A1.526,1.526,0,0,0,62.9.706,13.42,13.42,0,0,0,60.961-.367a9.631,9.631,0,0,1-1.494-.825,3.406,3.406,0,0,1-1.016-.922,2.905,2.905,0,0,1-.306-2.122,2.846,2.846,0,0,1,1.187-1.756Z"
                      transform="translate(-41.127 6.634)" fill="#f47b20"/>
                <path id="Path_329" data-name="Path 329"
                      d="M77-6.608a6.254,6.254,0,0,1,2.939.5,6.2,6.2,0,0,1,3.386,3.629,6.2,6.2,0,0,1-.36,4.951,6.226,6.226,0,0,1-4.213,3.183,6.269,6.269,0,0,1-3.542-.289,6.212,6.212,0,0,1-2.732-2.076A6.151,6.151,0,0,1,71.26-.1a6.16,6.16,0,0,1,1.259-4.077A6.211,6.211,0,0,1,77-6.608ZM76.258-5.2a4.958,4.958,0,0,0-3.15,2.459,5.171,5.171,0,0,0-.585,2.715h.014a3.741,3.741,0,0,0,.05.486,4.971,4.971,0,0,0,2.737,3.617,4.935,4.935,0,0,0,3.7.235,4.963,4.963,0,0,0,2.5-1.868,4.924,4.924,0,0,0,.883-2.609A2.882,2.882,0,0,0,82.4-.649a4.953,4.953,0,0,0-3.536-4.5A4.917,4.917,0,0,0,76.258-5.2Z"
                      transform="translate(-47.003 6.632)" fill="#fff"/>
                <path id="Path_330" data-name="Path 330"
                      d="M91.762,3.348a3.686,3.686,0,0,1,1.995.009,2.968,2.968,0,0,1,1.905,1.85,3.263,3.263,0,0,1-.331,2.724,12.548,12.548,0,0,1-1.438,1.8q-1.257,1.359-2.518,2.716,2.291,0,4.581,0v.978H89.169c1.445-1.567,2.9-3.122,4.345-4.694A4.678,4.678,0,0,0,94.8,6.639a2,2,0,0,0-.565-1.83,2.27,2.27,0,0,0-2.5-.439A5.685,5.685,0,0,0,91.762,3.348Z"
                      transform="translate(-54.639 2.44)" fill="#fff"/>
            </g>
        </g>
    </g>
</svg>
