<svg xmlns="http://www.w3.org/2000/svg" viewBox="0 0 32 32">
  <path d="M32 24.795c-1.164.296-1.884.013-2.53-.957l-4.594-6.356-.664-.88-5.365 7.257c-.613.873-1.256 1.057-2.398.725l6.987-9.222-6.467-8.283c1.04-.247 1.808-.143 2.45.756l4.828 6.6 4.893-6.596c.612-.858 1.294-1.02 2.385-.707l-2.633 3.435-3.468 4.485c-.233.3-.193.573.03.862l6.546 8.88zM.008 15.427l.562-2.764C2.1 7.193 8.37 4.92 12.694 8.3c2.527 1.988 3.155 4.8 3.03 7.95H1.48c-.214 5.67 3.867 9.092 9.07 7.346 1.825-.613 2.9-2.042 3.438-3.83.273-.896.725-1.036 1.567-.78-.43 2.236-1.4 4.104-3.45 5.273-3.063 1.75-7.435 1.26-9.79-1.09-1.857-1.855-2.368-4.19-2.308-6.74zM1.463 14.27h12.752c-.087-4.108-2.595-6.99-6.037-7.005-3.86-.016-6.36 2.695-6.715 7.005z" fill="#000"/>
</svg>
