<?xml version="1.0" encoding="utf-8"?>

<!--
 * Copyright (c) 2024, WSO2 LLC. (https://www.wso2.com).
 *
 * WSO2 LLC. licenses this file to you under the Apache License,
 * Version 2.0 (the "License"); you may not use this file except
 * in compliance with the License.
 * You may obtain a copy of the License at
 *
 *     http://www.apache.org/licenses/LICENSE-2.0
 *
 * Unless required by applicable law or agreed to in writing,
 * software distributed under the License is distributed on an
 * "AS IS" BASIS, WITHOUT WARRANTIES OR CONDITIONS OF ANY
 * KIND, either express or implied. See the License for the
 * specific language governing permissions and limitations
 * under the License.
-->

<svg id="LOGO" xmlns="http://www.w3.org/2000/svg" height="32" width="35" viewBox="0 0 188.95 188.95">
    <defs>
        <style>.cls-1{fill:#316cff;}</style>
    </defs>
    <path class="cls-1" d="M100.06,100.06c-3.08,3.08-8.09,3.08-11.17,0-3.08-3.08-3.08-8.09,0-11.17,3.08-3.08,8.09-3.08,11.17,0,3.08,3.08,3.08,8.09,0,11.17Zm-30.61-30.61c-3.08,3.08-3.08,8.09,0,11.17,3.08,3.08,8.09,3.08,11.17,0s3.08-8.09,0-11.17c-3.08-3.08-8.09-3.08-11.17,0Zm-19.44-8.27c3.08,3.08,8.09,3.08,11.17,0,3.08-3.08,3.08-8.09,0-11.17-3.08-3.08-8.09-3.08-11.17,0-3.08,3.08-3.08,8.09,0,11.17Zm88.92,66.58c-3.08-3.08-8.09-3.08-11.17,0-3.08,3.08-3.08,8.09,0,11.17,3.08,3.08,8.09,3.08,11.17,0,3.08-3.08,3.08-8.09,0-11.17Zm-19.44-8.27c3.08-3.08,3.08-8.09,0-11.17-3.08-3.08-8.09-3.08-11.17,0s-3.08,8.09,0,11.17,8.09,3.08,11.17,0Zm-11.17-50.05c-3.08,3.08-3.08,8.09,0,11.17,3.08,3.08,8.09,3.08,11.17,0,3.08-3.08,3.08-8.09,0-11.17-3.08-3.08-8.09-3.08-11.17,0Zm-8.27-19.44c-3.08-3.08-8.09-3.08-11.17,0s-3.08,8.09,0,11.17c3.08,3.08,8.09,3.08,11.17,0,3.08-3.08,3.08-8.09,0-11.17Zm-30.61-8.27c3.08,3.08,8.09,3.08,11.17,0,2.42-2.42,2.93-6.01,1.56-8.94-5.22,1.03-10.21,2.71-14.88,4.95,.3,1.46,1.01,2.85,2.15,3.99Zm77.75,66.58c-3.08,3.08-3.08,8.09,0,11.17,1.13,1.13,2.53,1.85,3.99,2.15,2.24-4.67,3.92-9.66,4.95-14.88-2.93-1.37-6.52-.86-8.94,1.56Zm-19.44-19.44c-3.08,3.08-3.08,8.09,0,11.17,3.08,3.08,8.09,3.08,11.17,0s3.08-8.09,0-11.17c-3.08-3.08-8.09-3.08-11.17,0Zm0-38.88c-3.08,3.08-3.08,8.09,0,11.17,3.08,3.08,8.09,3.08,11.17,0,3.08-3.08,3.08-8.09,0-11.17-3.08-3.08-8.09-3.08-11.17,0Zm-19.44-8.27c3.08,3.08,8.09,3.08,11.17,0,1.13-1.13,1.85-2.53,2.15-3.99-4.67-2.24-9.66-3.92-14.88-4.95-1.37,2.93-.86,6.52,1.56,8.94Zm38.88,38.88c2.42,2.42,6.01,2.93,8.94,1.56-1.03-5.22-2.71-10.21-4.95-14.88-1.46,.3-2.85,1.01-3.99,2.15-3.08,3.08-3.08,8.09,0,11.17Zm-86.02,58.31c3.08-3.08,3.08-8.09,0-11.17-3.08-3.08-8.09-3.08-11.17,0-3.08,3.08-3.08,8.09,0,11.17,3.08,3.08,8.09,3.08,11.17,0Zm-19.44-30.61c-2.42-2.42-6.01-2.93-8.94-1.56,1.03,5.22,2.71,10.21,4.95,14.88,1.46-.3,2.86-1.01,3.99-2.15,3.08-3.08,3.08-8.09,0-11.17Zm38.88,38.88c-3.08-3.08-8.09-3.08-11.17,0-1.13,1.13-1.85,2.53-2.15,3.99,4.67,2.24,9.66,3.92,14.88,4.95,1.37-2.93,.86-6.52-1.56-8.94Zm0-27.71c3.08-3.08,3.08-8.09,0-11.17-3.08-3.08-8.09-3.08-11.17,0-3.08,3.08-3.08,8.09,0,11.17,3.08,3.08,8.09,3.08,11.17,0Zm-30.61-30.61c-3.08,3.08-3.08,8.09,0,11.17,3.08,3.08,8.09,3.08,11.17,0s3.08-8.09,0-11.17c-3.08-3.08-8.09-3.08-11.17,0Zm-8.27-8.27c3.08-3.08,3.08-8.09,0-11.17-1.13-1.13-2.53-1.85-3.99-2.15-2.24,4.67-3.92,9.66-4.95,14.88,2.93,1.37,6.52,.86,8.94-1.56Zm77.75,66.58c-3.08-3.08-8.09-3.08-11.17,0-2.42,2.42-2.93,6.01-1.56,8.94,5.22-1.03,10.21-2.71,14.88-4.95-.3-1.46-1.01-2.85-2.15-3.99Zm-30.61-19.44c-3.08,3.08-3.08,8.09,0,11.17,3.08,3.08,8.09,3.08,11.17,0,3.08-3.08,3.08-8.09,0-11.17-3.08-3.08-8.09-3.08-11.17,0Z"/>
</svg>
