<?xml version="1.0" encoding="utf-8"?>

<!--
 * Copyright (c) 2020, WSO2 Inc. (http://www.wso2.org) All Rights Reserved.
 *
 * WSO2 Inc. licenses this file to you under the Apache License,
 * Version 2.0 (the "License"); you may not use this file except
 * in compliance with the License.
 * You may obtain a copy of the License at
 *
 *     http://www.apache.org/licenses/LICENSE-2.0
 *
 * Unless required by applicable law or agreed to in writing,
 * software distributed under the License is distributed on an
 * "AS IS" BASIS, WITHOUT WARRANTIES OR CONDITIONS OF ANY
 * KIND, either express or implied. See the License for the
 * specific language governing permissions and limitations
 * under the License.
-->

<svg class="icon" width="16" height="16" viewBox="0 0 16 16" fill="none" xmlns="http://www.w3.org/2000/svg">
    <path fill-rule="evenodd" clip-rule="evenodd" d="M7.45376 2.5C7.45376 3.32843 6.78219 4 5.95376 4C5.12534 4 4.45376 3.32843 4.45376 2.5C4.45376 1.67157 5.12534 1 5.95376 1C6.78219 1 7.45376 1.67157 7.45376 2.5ZM8.45376 2.5C8.45376 3.88071 7.33447 5 5.95376 5C4.57305 5 3.45376 3.88071 3.45376 2.5C3.45376 1.11929 4.57305 0 5.95376 0C7.33447 0 8.45376 1.11929 8.45376 2.5ZM5.95326 6C2.91053 6 0.422402 8.25514 0.0124103 11.5381C-0.0918729 12.3731 0.600248 13 1.35509 13H3.49973C3.77588 13 3.99973 12.7761 3.99973 12.5C3.99973 12.2239 3.77588 12 3.49973 12H1.35509C1.11337 12 0.98549 11.8159 1.0047 11.662C1.35721 8.83933 3.4544 7 5.95326 7H6.40429C6.874 7 7.34028 7.07995 7.78316 7.23644C8.04353 7.32843 8.32917 7.19194 8.42117 6.93157C8.51317 6.67121 8.37667 6.38556 8.11631 6.29356C7.56643 6.09927 6.98749 6 6.40429 6H5.95326ZM14.1272 11.3369C14.0821 10.8877 13.4179 10.8877 13.3728 11.3369L13.2426 12.6336L12.0386 12.0964C11.6215 11.9103 11.2895 12.4774 11.6615 12.7405L12.7353 13.5L11.6615 14.2595C11.2895 14.5226 11.6215 15.0897 12.0386 14.9036L13.2426 14.3664L13.3728 15.6631C13.4179 16.1123 14.0821 16.1123 14.1272 15.6631L14.2574 14.3664L15.4614 14.9036C15.8785 15.0897 16.2105 14.5226 15.8385 14.2595L14.7647 13.5L15.8385 12.7405C16.2105 12.4774 15.8785 11.9103 15.4614 12.0964L14.2574 12.6336L14.1272 11.3369ZM7.87282 11.3369C7.91792 10.8877 8.58208 10.8877 8.62718 11.3369L8.75736 12.6336L9.96137 12.0964C10.3785 11.9103 10.7105 12.4774 10.3385 12.7405L9.26472 13.5L10.3385 14.2595C10.7105 14.5226 10.3785 15.0897 9.96137 14.9036L8.75736 14.3664L8.62718 15.6631C8.58208 16.1123 7.91792 16.1123 7.87282 15.6631L7.74264 14.3664L6.53863 14.9036C6.12154 15.0897 5.78945 14.5226 6.16145 14.2595L7.23528 13.5L6.16145 12.7405C5.78945 12.4774 6.12154 11.9103 6.53863 12.0964L7.74264 12.6336L7.87282 11.3369Z" fill="black"/>
</svg>
