<?xml version="1.0" encoding="utf-8"?>

<!--
 * Copyright (c) 2020, WSO2 Inc. (http://www.wso2.org) All Rights Reserved.
 *
 * WSO2 Inc. licenses this file to you under the Apache License,
 * Version 2.0 (the "License"); you may not use this file except
 * in compliance with the License.
 * You may obtain a copy of the License at
 *
 *     http://www.apache.org/licenses/LICENSE-2.0
 *
 * Unless required by applicable law or agreed to in writing,
 * software distributed under the License is distributed on an
 * "AS IS" BASIS, WITHOUT WARRANTIES OR CONDITIONS OF ANY
 * KIND, either express or implied. See the License for the
 * specific language governing permissions and limitations
 * under the License.
-->

<!-- TODO: Rename this to github.svg whenever a major refactroring takes place since the static link is used in already added IdPs. -->
<svg id="github-idp-illustration" class="icon" xmlns="http://www.w3.org/2000/svg" width="67.91" height="66.233" viewBox="0 0 67.91 66.233">
    <g id="github-idp-illustration" transform="translate(-386.96 658.072)">
        <path id="path18" d="M420.915-658.072a33.956,33.956,0,0,0-33.955,33.955,33.963,33.963,0,0,0,23.221,32.22c1.7.314,2.32-.737,2.32-1.633,0-.81-.031-3.484-.046-6.322-9.446,2.054-11.44-4.006-11.44-4.006-1.545-3.925-3.77-4.968-3.77-4.968-3.081-2.107.232-2.064.232-2.064,3.41.239,5.205,3.5,5.205,3.5,3.028,5.19,7.943,3.69,9.881,2.822a7.23,7.23,0,0,1,2.156-4.54c-7.542-.859-15.47-3.77-15.47-16.781a13.141,13.141,0,0,1,3.5-9.114,12.2,12.2,0,0,1,.329-8.986s2.851-.913,9.34,3.48a32.545,32.545,0,0,1,8.5-1.143,32.629,32.629,0,0,1,8.506,1.143c6.481-4.393,9.328-3.48,9.328-3.48a12.185,12.185,0,0,1,.333,8.986,13.115,13.115,0,0,1,3.495,9.114c0,13.042-7.943,15.913-15.5,16.754,1.218,1.054,2.3,3.12,2.3,6.288,0,4.543-.039,8.2-.039,9.318,0,.9.611,1.962,2.332,1.629a33.959,33.959,0,0,0,23.2-32.215,33.955,33.955,0,0,0-33.955-33.955" transform="translate(0)" fill="#1b1817" fill-rule="evenodd" />
        <path id="path20" d="M416.209-543.256c-.075.169-.34.219-.582.1s-.385-.341-.3-.51.339-.222.585-.106.387.344.3.513h0" transform="translate(-16.388 -66.064)" fill="#1b1817" />
        <path id="path22" d="M419.493-540.12c-.162.15-.478.08-.693-.157a.519.519,0,0,1-.1-.706c.167-.149.474-.079.7.157s.265.554.1.706h0" transform="translate(-18.297 -67.666)" fill="#1b1817" />
        <path id="path24" d="M422.639-535.785c-.208.145-.548.009-.759-.293s-.208-.664,0-.809.546-.014.759.285.208.669-.005.817h0" transform="translate(-20.104 -70.045)" fill="#1b1817" />
        <path id="path26" d="M426.644-531.249c-.186.205-.583.15-.873-.13a.653.653,0,0,1-.193-.868c.188-.206.587-.148.879.13s.385.665.186.868h0" transform="translate(-22.275 -72.692)" fill="#1b1817" />
        <path id="path28" d="M432.294-528.128c-.082.266-.464.387-.848.274s-.635-.428-.558-.7.463-.394.851-.273.635.425.556.7h0" transform="translate(-25.394 -74.716)" fill="#1b1817" />
        <path id="path30" d="M438.83-527.308c.01.28-.317.512-.72.517s-.734-.218-.739-.493.319-.513.725-.52.734.217.734.5h0" transform="translate(-29.152 -75.333)" fill="#1b1817" />
        <path id="path32" d="M444.978-528.2c.048.273-.232.554-.633.629s-.759-.1-.809-.368.237-.561.63-.633.761.094.812.372h0" transform="translate(-32.713 -74.876)" fill="#1b1817" />
    </g>
</svg>
