<svg xmlns="http://www.w3.org/2000/svg" width="18" height="20.1" viewBox="0 0 18 20.1">
  <path id="organizatio-sso" d="M6.508,18.759A9,9,0,0,1,8,1.166v.6A8.4,8.4,0,0,0,6.568,18.151a1.5,1.5,0,1,1-.06.607ZM7.1,18.6a.9.9,0,1,0,.9-.9A.9.9,0,0,0,7.1,18.6Zm2.9.455h0v-.6A8.4,8.4,0,0,0,11.742,2.17,1.5,1.5,0,1,1,11.9,1.5q0,.044,0,.088A9,9,0,0,1,10,19.055ZM9.5,1.5a.9.9,0,1,0,.9-.9A.9.9,0,0,0,9.5,1.5ZM5.92,15.41V5.009a.4.4,0,0,1,.4-.4h5.3a.4.4,0,0,1,.4.4v10.4Zm4.039-3.281a.4.4,0,0,1,.4.4V14.81h.86a.2.2,0,0,0,.2-.2v-9.2a.2.2,0,0,0-.2-.2h-4.7v9.6H7.61V12.529a.4.4,0,0,1,.4-.4Zm-1.75,2.68h1.55V12.73H8.209Zm1.681-4.3v-.6h.6v.6Zm-1.2,0v-.6h.6v.6Zm-1.2,0v-.6h.6v.6Zm2.4-1.2v-.6h.6v.6Zm-1.2,0v-.6h.6v.6Zm-1.2,0v-.6h.6v.6Zm2.4-1.2v-.6h.6v.6Zm-1.2,0v-.6h.6v.6Zm-1.2,0v-.6h.6v.6Zm2.4-1.2v-.6h.6v.6Zm-1.2,0v-.6h.6v.6Zm-1.2,0v-.6h.6v.6Z"/>
</svg>
