<?xml version="1.0" encoding="utf-8"?>

<!--
 * Copyright (c) 2020, WSO2 Inc. (http://www.wso2.org) All Rights Reserved.
 *
 * WSO2 Inc. licenses this file to you under the Apache License,
 * Version 2.0 (the "License"); you may not use this file except
 * in compliance with the License.
 * You may obtain a copy of the License at
 *
 *     http://www.apache.org/licenses/LICENSE-2.0
 *
 * Unless required by applicable law or agreed to in writing,
 * software distributed under the License is distributed on an
 * "AS IS" BASIS, WITHOUT WARRANTIES OR CONDITIONS OF ANY
 * KIND, either express or implied. See the License for the
 * specific language governing permissions and limitations
 * under the License.
-->

<svg id="app-icon" class="icon" xmlns="http://www.w3.org/2000/svg" width="14" height="14" viewBox="0 0 13.999 14">
    <path class="path fill primary"
          d="M10.45,15.7V13.05H7.8a.3.3,0,1,1,0-.6H10.45V9.8a.3.3,0,0,1,.6,0v2.651H13.7a.3.3,0,0,1,0,.6H11.05V15.7a.3.3,0,0,1-.6,0ZM.5,16a.5.5,0,0,1-.5-.5V10a.5.5,0,0,1,.5-.5H6a.5.5,0,0,1,.5.5v5.5A.5.5,0,0,1,6,16Zm.1-.6H5.9V10.1H.6ZM8,8.5A.5.5,0,0,1,7.5,8V2.5A.5.5,0,0,1,8,2h5.5a.5.5,0,0,1,.5.5V8a.5.5,0,0,1-.5.5Zm.1-.6h5.3V2.6H8.1ZM.5,8.5A.5.5,0,0,1,0,8V2.5A.5.5,0,0,1,.5,2H6a.5.5,0,0,1,.5.5V8a.5.5,0,0,1-.5.5Zm.1-.6H5.9V2.6H.6Z"
          transform="translate(0 -2)"/>
</svg>
