<?xml version="1.0" encoding="iso-8859-1"?>

<!--
 * Copyright (c) 2019, WSO2 Inc. (http://www.wso2.org) All Rights Reserved.
 *
 * WSO2 Inc. licenses this file to you under the Apache License,
 * Version 2.0 (the "License"); you may not use this file except
 * in compliance with the License.
 * You may obtain a copy of the License at
 *
 *     http://www.apache.org/licenses/LICENSE-2.0
 *
 * Unless required by applicable law or agreed to in writing,
 * software distributed under the License is distributed on an
 * "AS IS" BASIS, WITHOUT WARRANTIES OR CONDITIONS OF ANY
 * KIND, either express or implied. See the License for the
 * specific language governing permissions and limitations
 * under the License.
-->

<svg version="1.1" class="icon" id="info-icon"
	 xmlns="http://www.w3.org/2000/svg"
	 xmlns:xlink="http://www.w3.org/1999/xlink" x="0px" y="0px"
	 viewBox="0 0 506.4 506.4" width="14px" height="14px" xml:space="preserve">
	<circle class="path fill info" cx="253.2" cy="253.2" r="249.2"/>
	<g>
		<path class="path fill white" d="M253.2,332.4c-10.8,0-20-8.8-20-19.6v-174c0-10.8,9.2-19.6,20-19.6s20,8.8,20,19.6v174
			C273.2,323.6,264,332.4,253.2,332.4z"/>
		<path class="path fill white" d="M253.2,395.6c-5.2,0-10.4-2-14-5.6s-5.6-8.8-5.6-14s2-10.4,5.6-14s8.8-6,14-6s10.4,2,14,6
			c3.6,3.6,6,8.8,6,14s-2,10.4-6,14C263.6,393.6,258.4,395.6,253.2,395.6z"/>
	</g>
	<path class="path fill white" d="M253.2,506.4C113.6,506.4,0,392.8,0,253.2S113.6,0,253.2,0s253.2,113.6,253.2,253.2S392.8,506.4,253.2,506.4z M253.2,8
		C118,8,8,118,8,253.2s110,245.2,245.2,245.2s245.2-110,245.2-245.2S388.4,8,253.2,8z"/>
	<path class="path fill white" d="M249.2,336.4c-13.2,0-24-10.8-24-23.6v-174c0-13.2,10.8-23.6,24-23.6s24,10.8,24,23.6v174
		C273.2,325.6,262.4,336.4,249.2,336.4z M249.2,122.8c-8.8,0-16,7.2-16,15.6v174c0,8.8,7.2,15.6,16,15.6s16-7.2,16-15.6v-174
		C265.2,130,258,122.8,249.2,122.8z"/>
	<path class="path fill white" d="M249.2,399.6c-6.4,0-12.4-2.4-16.8-6.8c-4.4-4.4-6.8-10.4-6.8-16.8s2.4-12.4,6.8-16.8c4.4-4.4,10.8-6.8,16.8-6.8
		c6.4,0,12.4,2.4,16.8,6.8c4.4,4.4,6.8,10.4,6.8,16.8s-2.4,12.4-7.2,16.8C261.6,397.2,255.6,399.6,249.2,399.6z M249.2,360
		c-4,0-8.4,1.6-11.2,4.8c-2.8,2.8-4.4,6.8-4.4,11.2c0,4,1.6,8.4,4.8,11.2c2.8,2.8,7.2,4.8,11.2,4.8s8.4-1.6,11.2-4.8
		c2.8-2.8,4.8-7.2,4.8-11.2s-1.6-8.4-4.8-11.2C257.2,361.6,253.2,360,249.2,360z"/>
</svg>
