<?xml version="1.0" encoding="iso-8859-1"?>

<!--
 * Copyright (c) 2020, WSO2 Inc. (http://www.wso2.org) All Rights Reserved.
 *
 * WSO2 Inc. licenses this file to you under the Apache License,
 * Version 2.0 (the "License"); you may not use this file except
 * in compliance with the License.
 * You may obtain a copy of the License at
 *
 *     http://www.apache.org/licenses/LICENSE-2.0
 *
 * Unless required by applicable law or agreed to in writing,
 * software distributed under the License is distributed on an
 * "AS IS" BASIS, WITHOUT WARRANTIES OR CONDITIONS OF ANY
 * KIND, either express or implied. See the License for the
 * specific language governing permissions and limitations
 * under the License.
-->

<svg class="icon" id="pin-icon" xmlns="http://www.w3.org/2000/svg" width="14" height="14" viewBox="0 0 512.001 512">
    <g id="tack" transform="translate(0)">
        <path class="path fill primary" d="M505.41,144.476,367.524,6.59A22.5,22.5,0,0,0,335.7,38.41l15.58,15.58L231.327,160.271A157.391,157.391,0,0,0,86.45,202.813a7.5,7.5,0,0,0,0,10.606l90.156,90.156L17.2,462.983A58.329,58.329,0,0,0,0,504.5,7.5,7.5,0,0,0,7.5,512a58.329,58.329,0,0,0,41.517-17.2L208.426,335.394l90.156,90.156a7.5,7.5,0,0,0,10.608,0,157.394,157.394,0,0,0,42.541-144.877L458.012,160.715l15.579,15.579a22.5,22.5,0,1,0,31.819-31.818Z" />
    </g>
</svg>
