<?xml version="1.0" encoding="iso-8859-1"?>

<!--
 * Copyright (c) 2020, WSO2 Inc. (http://www.wso2.org) All Rights Reserved.
 *
 * WSO2 Inc. licenses this file to you under the Apache License,
 * Version 2.0 (the "License"); you may not use this file except
 * in compliance with the License.
 * You may obtain a copy of the License at
 *
 *     http://www.apache.org/licenses/LICENSE-2.0
 *
 * Unless required by applicable law or agreed to in writing,
 * software distributed under the License is distributed on an
 * "AS IS" BASIS, WITHOUT WARRANTIES OR CONDITIONS OF ANY
 * KIND, either express or implied. See the License for the
 * specific language governing permissions and limitations
 * under the License.
-->

<svg id="spin-wheel-icon" class="icon" height="14" viewBox="0 0 512 512" width="14" xmlns="http://www.w3.org/2000/svg">
    <path class="path primary" d="m90.050781 395.949219c-7.167969 0-14.058593 1.789062-20.171875 5.148437-32.203125-41.28125-49.878906-92.5625-49.878906-145.097656 0-130.132812 105.867188-236 236-236 15.820312 0 31.632812 1.574219 47 4.679688 5.40625 1.09375 10.6875-2.40625 11.78125-7.820313s-2.40625-10.6875-7.820312-11.785156c-16.667969-3.367188-33.8125-5.074219-50.960938-5.074219-68.378906 0-132.667969 26.628906-181.019531 74.980469-48.351563 48.351562-74.980469 112.640625-74.980469 181.019531 0 57.519531 19.53125 113.652344 55.089844 158.652344-4.578125 6.839844-7.039063 14.878906-7.039063 23.296875 0 11.21875 4.371094 21.765625 12.304688 29.695312 7.929687 7.933594 18.476562 12.304688 29.695312 12.304688s21.765625-4.371094 29.699219-12.304688c7.933594-7.929687 12.300781-18.480469 12.300781-29.699219 0-11.214843-4.367187-21.765624-12.300781-29.695312-7.933594-7.933594-18.480469-12.300781-29.699219-12.300781zm15.554688 57.554687c-4.152344 4.15625-9.679688 6.445313-15.554688 6.445313s-11.398437-2.289063-15.554687-6.445313-6.445313-9.679687-6.445313-15.554687c0-5.878907 2.289063-11.402344 6.445313-15.558594 4.152344-4.15625 9.679687-6.441406 15.554687-6.441406s11.398438 2.289062 15.554688 6.441406c4.15625 4.15625 6.445312 9.679687 6.445312 15.558594 0 5.875-2.289062 11.398437-6.445312 15.554687zm0 0" />
    <path class="path primary" d="m456.902344 97.335938c10.871094-16.308594 9.125-38.605469-5.253906-52.984376-7.933594-7.929687-18.480469-12.300781-29.699219-12.300781s-21.765625 4.371094-29.699219 12.300781c-7.933594 7.933594-12.300781 18.480469-12.300781 29.699219s4.367187 21.765625 12.300781 29.699219 18.480469 12.300781 29.699219 12.300781c7.167969 0 14.058593-1.789062 20.171875-5.148437 32.203125 41.285156 49.878906 92.5625 49.878906 145.097656 0 130.132812-105.867188 236-236 236-15.664062 0-31.328125-1.542969-46.550781-4.589844-5.414063-1.082031-10.683594 2.429688-11.769531 7.84375-1.082032 5.417969 2.429687 10.683594 7.84375 11.769532 16.511718 3.300781 33.496093 4.976562 50.476562 4.976562 68.378906 0 132.667969-26.628906 181.019531-74.980469 48.351563-48.351562 74.980469-112.640625 74.980469-181.019531 0-57.523438-19.535156-113.660156-55.097656-158.664062zm-50.507813-7.726563c-4.15625-4.15625-6.445312-9.679687-6.445312-15.558594 0-5.875 2.289062-11.398437 6.445312-15.554687 4.152344-4.15625 9.679688-6.445313 15.554688-6.445313s11.402343 2.289063 15.558593 6.445313c8.574219 8.578125 8.574219 22.535156 0 31.113281-4.15625 4.152344-9.683593 6.441406-15.558593 6.441406-5.878907 0-11.402344-2.289062-15.554688-6.441406zm0 0" />
    <path class="path primary" d="m214.734375 428c0 5.523438 4.480469 10 10 10h62.527344c5.523437 0 10-4.476562 10-10v-19.386719c13.148437-3.539062 25.71875-8.75 37.53125-15.554687l13.6875 13.6875c1.875 1.875 4.417969 2.929687 7.074219 2.929687 2.648437 0 5.195312-1.054687 7.070312-2.933593l44.195312-44.226563c3.902344-3.90625 3.902344-10.238281 0-14.140625l-13.671874-13.671875c6.804687-11.8125 12.015624-24.382813 15.554687-37.53125h19.3125c5.523437 0 10-4.476563 10-10v-62.527344c0-5.523437-4.476563-10-10-10h-19.316406c-3.539063-13.144531-8.746094-25.714843-15.550781-37.527343l13.597656-13.597657c1.875-1.875 2.929687-4.421875 2.929687-7.074219-.003906-2.652343-1.058593-5.199218-2.933593-7.074218l-44.230469-44.195313c-3.902344-3.902343-10.234375-3.902343-14.140625.003907l-13.578125 13.582031c-11.8125-6.804688-24.382813-12.015625-37.53125-15.554688v-19.207031c0-5.523438-4.476563-10-10-10h-62.527344c-5.519531 0-10 4.476562-10 10v19.210938c-13.144531 3.535156-25.714844 8.746093-37.527344 15.550781l-13.582031-13.582031c-3.902344-3.902344-10.234375-3.90625-14.140625-.003907l-44.226563 44.199219c-1.878906 1.875-2.933593 4.417969-2.933593 7.070312 0 2.652344 1.054687 5.199219 2.929687 7.074219l13.597656 13.597657c-6.804687 11.8125-12.015624 24.378906-15.554687 37.527343h-19.277344c-5.523437 0-10 4.476563-10 9.996094l-.035156 62.527344c-.003906 2.652343 1.050781 5.199219 2.925781 7.074219s4.417969 2.929687 7.074219 2.929687h19.3125c3.539063 13.148437 8.75 25.71875 15.554687 37.53125l-13.671874 13.671875c-3.902344 3.902344-3.90625 10.234375 0 14.140625l44.195312 44.226563c1.875 1.875 4.417969 2.933593 7.070312 2.933593h.003907c2.652343 0 5.195312-1.054687 7.070312-2.929687l13.683594-13.6875c11.816406 6.804687 24.386719 12.015625 37.53125 15.554687zm-33.609375-55.972656c-3.957031-2.558594-9.164062-2.003906-12.5 1.328125l-12.175781 12.175781-30.058594-30.082031 12.164063-12.167969c3.332031-3.332031 3.886718-8.539062 1.328124-12.496094-9.066406-14.03125-15.441406-29.410156-18.941406-45.714844-.992187-4.605468-5.0625-7.898437-9.777344-7.898437h-17.175781l.023438-42.527344h17.152343c4.714844 0 8.785157-3.289062 9.777344-7.898437 3.5-16.300782 9.875-31.679688 18.941406-45.710938 2.558594-3.957031 2.003907-9.164062-1.328124-12.496094l-12.085938-12.089843 30.082031-30.058594 12.074219 12.078125c3.335938 3.332031 8.539062 3.882812 12.5 1.328125 14.027344-9.066406 29.40625-15.441406 45.710938-18.941406 4.605468-.992188 7.898437-5.066407 7.898437-9.777344v-17.078125h42.527344v17.074219c0 4.714843 3.289062 8.789062 7.898437 9.777343 16.300782 3.503907 31.683594 9.875 45.710938 18.941407 3.957031 2.558593 9.164062 2.007812 12.496094-1.328125l12.078124-12.074219 30.082032 30.058594-12.085938 12.085937c-3.335937 3.335938-3.886718 8.542969-1.328125 12.5 9.066407 14.03125 15.4375 29.410156 18.941407 45.710938.988281 4.609375 5.0625 7.898437 9.777343 7.898437h17.183594v42.527344h-17.183594c-4.714843 0-8.785156 3.292969-9.777343 7.898437-3.5 16.300782-9.875 31.683594-18.941407 45.710938-2.558593 3.960938-2.003906 9.167969 1.328125 12.5l12.164063 12.164062-30.058594 30.082032-12.175781-12.171875c-3.335938-3.335938-8.542969-3.886719-12.5-1.328125-14.03125 9.066406-29.410156 15.4375-45.710938 18.941406-4.609375.992188-7.898437 5.0625-7.898437 9.777344v17.253906h-42.527344v-17.253906c0-4.710938-3.292969-8.785156-7.898437-9.777344-16.300782-3.5-31.679688-9.875-45.710938-18.941406zm0 0" />
    <path class="path secondary" d="m338.628906 256c0-45.5625-37.066406-82.628906-82.628906-82.628906s-82.628906 37.066406-82.628906 82.628906 37.066406 82.628906 82.628906 82.628906 82.628906-37.066406 82.628906-82.628906zm-145.257812 0c0-34.535156 28.09375-62.628906 62.628906-62.628906s62.628906 28.097656 62.628906 62.628906-28.09375 62.628906-62.628906 62.628906-62.628906-28.09375-62.628906-62.628906zm0 0" />
    <path class="path secondary" d="m348.078125 37.820312c2.632813 0 5.210937-1.070312 7.070313-2.929687 1.859374-1.871094 2.929687-4.449219 2.929687-7.082031 0-2.617188-1.066406-5.199219-2.929687-7.070313-1.859376-1.859375-4.4375-2.929687-7.070313-2.929687-2.640625 0-5.207031 1.070312-7.066406 2.929687-1.863281 1.871094-2.933594 4.441407-2.933594 7.070313 0 2.640625 1.070313 5.210937 2.933594 7.082031 1.859375 1.859375 4.425781 2.929687 7.066406 2.929687zm0 0" />
    <path class="path secondary" d="m164.359375 474.359375c-2.628906 0-5.210937 1.070313-7.070313 2.929687-1.859374 1.859376-2.929687 4.441407-2.929687 7.070313 0 2.640625 1.070313 5.210937 2.929687 7.070313 1.859376 1.859374 4.441407 2.929687 7.070313 2.929687s5.210937-1.070313 7.070313-2.929687c1.859374-1.859376 2.929687-4.441407 2.929687-7.070313s-1.070313-5.210937-2.929687-7.070313c-1.859376-1.859374-4.441407-2.929687-7.070313-2.929687zm0 0" />
</svg>
