<!--
 * Copyright (c) 2023, WSO2 LLC. (https://www.wso2.com). All Rights Reserved.
 *
 * WSO2 LLC. licenses this file to you under the Apache License,
 * Version 2.0 (the "License"); you may not use this file except
 * in compliance with the License.
 * You may obtain a copy of the License at
 *
 *     http://www.apache.org/licenses/LICENSE-2.0
 *
 * Unless required by applicable law or agreed to in writing,
 * software distributed under the License is distributed on an
 * "AS IS" BASIS, WITHOUT WARRANTIES OR CONDITIONS OF ANY
 * KIND, either express or implied. See the License for the
 * specific language governing permissions and limitations
 * under the License.
-->

<svg width="132" height="35" viewBox="0 0 132 35" fill="none" xmlns="http://www.w3.org/2000/svg">
    <path d="M0 0H132V35H20L0 0Z" fill="#EFEFEF" />
    <g clip-path="url(#clip0_440_172)">
        <path d="M120.67 10L121.098 10.7501L120.624 11.5809H121.571L122 12.331H119.339L120.67 10Z" fill="#FF7300" />
        <path d="M117.344 12.331L117.773 11.5809H118.72L118.246 10.7502L118.674 10L120.007 12.3314L117.344 12.331Z"
            fill="#FF7300" />
        <path d="M120.147 14.0814L119.673 13.2507L119.198 14.0814H118.342L119.675 11.75L121.004 14.0814H120.147Z"
            fill="black" />
        <path
            d="M59.7568 20.5482V18.8036H64.1057C64.2976 18.8036 64.4815 18.7264 64.6172 18.5891C64.7529 18.4517 64.8291 18.2654 64.8291 18.0712C64.8291 17.877 64.7529 17.6907 64.6172 17.5533C64.4815 17.416 64.2976 17.3388 64.1057 17.3388H62.2035C61.5547 17.3388 60.9324 17.0778 60.4736 16.6133C60.0148 16.1488 59.7571 15.5187 59.7571 14.8618C59.7571 14.2048 60.0148 13.5748 60.4736 13.1103C60.9324 12.6457 61.5547 12.3848 62.2035 12.3848H66.5524V14.1294H62.2035C62.1086 14.1286 62.0145 14.1469 61.9267 14.1835C61.8389 14.2201 61.7592 14.274 61.6924 14.3423C61.5906 14.4445 61.5211 14.5752 61.4928 14.7175C61.4645 14.8599 61.4786 15.0075 61.5334 15.1417C61.5882 15.2759 61.6812 15.3906 61.8005 15.4711C61.9198 15.5517 62.0601 15.5945 62.2035 15.5942H64.1057C64.7546 15.5942 65.3768 15.8551 65.8356 16.3197C66.2944 16.7842 66.5522 17.4142 66.5522 18.0712C66.5522 18.7281 66.2944 19.3582 65.8356 19.8227C65.3768 20.2872 64.7546 20.5482 64.1057 20.5482H59.7568Z"
            fill="black" />
        <path
            d="M71.2169 20.5493C70.6796 20.5621 70.1451 20.466 69.645 20.2666C69.1448 20.0672 68.6891 19.7686 68.3046 19.3883C67.9201 19.008 67.6145 18.5537 67.4059 18.0522C67.1973 17.5506 67.0898 17.0118 67.0898 16.4676C67.0898 15.9234 67.1973 15.3846 67.4059 14.8831C67.6145 14.3815 67.9201 13.9272 68.3046 13.5469C68.6891 13.1666 69.1448 12.868 69.645 12.6686C70.1451 12.4692 70.6796 12.3731 71.2169 12.3859H74.6147V14.1287H71.2169C70.6247 14.1587 70.0666 14.4181 69.6579 14.8531C69.2493 15.2881 69.0213 15.8655 69.0213 16.4658C69.0213 17.0662 69.2493 17.6436 69.6579 18.0786C70.0666 18.5136 70.6247 18.7729 71.2169 18.8029H72.8934V17.3381H71.6258V15.6025H74.6174V20.5565L71.2169 20.5493Z"
            fill="black" />
        <path
            d="M91.0573 20.5482L87.1684 16.6467V20.5482H85.4453V12.3848H89.7942C90.2788 12.3835 90.7528 12.5282 91.156 12.8002C91.5592 13.0723 91.8735 13.4596 92.0589 13.913C92.2443 14.3663 92.2924 14.8651 92.1971 15.3462C92.1019 15.8273 91.8676 16.2688 91.524 16.6148C91.3227 16.8198 91.0895 16.9901 90.8338 17.1188L90.3204 17.3717L93.4658 20.5496L91.0573 20.5482ZM89.7942 15.6032C89.9861 15.6032 90.17 15.526 90.3057 15.3887C90.4413 15.2513 90.5176 15.065 90.5176 14.8708C90.5176 14.6766 90.4413 14.4903 90.3057 14.3529C90.17 14.2156 89.9861 14.1384 89.7942 14.1384H87.1684V15.6032H89.7942Z"
            fill="black" />
        <path
            d="M94.1045 20.5489V12.3859H97.5023C98.0396 12.3731 98.5741 12.4693 99.0742 12.6686C99.5744 12.868 100.03 13.1666 100.415 13.5469C100.799 13.9272 101.105 14.3815 101.313 14.8831C101.522 15.3846 101.629 15.9234 101.629 16.4676C101.629 17.0118 101.522 17.5506 101.313 18.0522C101.105 18.5537 100.799 19.008 100.415 19.3883C100.03 19.7686 99.5744 20.0672 99.0742 20.2666C98.5741 20.466 98.0396 20.5621 97.5023 20.5494L94.1045 20.5489ZM97.5023 18.8042C98.0945 18.7742 98.6526 18.5149 99.0613 18.0799C99.4699 17.6449 99.6979 17.0675 99.6979 16.4672C99.6979 15.8668 99.4699 15.2894 99.0613 14.8544C98.6526 14.4194 98.0945 14.1601 97.5023 14.1301H95.8276V18.8042H97.5023Z"
            fill="black" />
        <path
            d="M113.494 20.5493C112.563 20.549 111.66 20.2216 110.94 19.623C110.22 19.0243 109.727 18.1914 109.545 17.2661C109.363 16.3409 109.504 15.3804 109.943 14.5484C110.383 13.7164 111.093 13.0643 111.954 12.7032C112.815 12.3421 113.773 12.2943 114.664 12.5679C115.556 12.8416 116.326 13.4198 116.844 14.204C117.362 14.9882 117.595 15.93 117.505 16.8689C117.414 17.8078 117.004 18.6857 116.346 19.3532C115.978 19.7411 115.534 20.0476 115.044 20.2534C114.553 20.4593 114.026 20.56 113.494 20.5493ZM113.494 14.1305C112.96 14.1295 112.441 14.3165 112.027 14.6594C111.613 15.0023 111.329 15.48 111.224 16.011C111.119 16.542 111.199 17.0935 111.451 17.5713C111.703 18.0492 112.11 18.4239 112.604 18.6316C113.098 18.8393 113.648 18.867 114.16 18.7101C114.672 18.5533 115.114 18.2215 115.412 17.7713C115.709 17.3212 115.843 16.7805 115.791 16.2416C115.738 15.7026 115.503 15.1988 115.125 14.8158C114.913 14.5958 114.659 14.4216 114.379 14.3038C114.099 14.186 113.798 14.127 113.494 14.1305Z"
            fill="black" />
        <path d="M50 20.5482H51.9267L54.6564 15.762L57.384 20.5482H59.3084L54.6564 12.3848L50 20.5482Z" fill="black" />
        <path d="M75.3623 20.5482H77.289L80.0165 15.762L82.7441 20.5482H84.669L80.0161 12.3848L75.3623 20.5482Z"
            fill="black" />
        <path
            d="M102.277 20.5229V12.3887H109.013V14.1176H103.996V15.6138H107.759V17.3027H103.996V18.7944H109.013V20.5233L102.277 20.5229Z"
            fill="black" />
    </g>
    <path
        d="M35.1289 21.084C34.4942 21.084 33.9202 20.944 33.4069 20.664C32.9029 20.3747 32.5016 19.95 32.2029 19.39C31.9136 18.83 31.7689 18.13 31.7689 17.29C31.7689 16.45 31.9182 15.75 32.2169 15.19C32.5249 14.63 32.9309 14.21 33.4349 13.93C33.9482 13.65 34.5129 13.51 35.1289 13.51C35.8569 13.51 36.5009 13.6687 37.0609 13.986C37.6209 14.3033 38.0642 14.7467 38.3909 15.316C38.7176 15.876 38.8809 16.534 38.8809 17.29C38.8809 18.046 38.7176 18.7087 38.3909 19.278C38.0642 19.8473 37.6209 20.2907 37.0609 20.608C36.5009 20.9253 35.8569 21.084 35.1289 21.084ZM31.1949 21V10.612H32.5389V15.554L32.3989 17.276L32.4829 18.998V21H31.1949ZM35.0169 19.908C35.4929 19.908 35.9176 19.8007 36.2909 19.586C36.6736 19.3713 36.9722 19.068 37.1869 18.676C37.4109 18.2747 37.5229 17.8127 37.5229 17.29C37.5229 16.758 37.4109 16.3007 37.1869 15.918C36.9722 15.526 36.6736 15.2227 36.2909 15.008C35.9176 14.7933 35.4929 14.686 35.0169 14.686C34.5502 14.686 34.1256 14.7933 33.7429 15.008C33.3696 15.2227 33.0709 15.526 32.8469 15.918C32.6322 16.3007 32.5249 16.758 32.5249 17.29C32.5249 17.8127 32.6322 18.2747 32.8469 18.676C33.0709 19.068 33.3696 19.3713 33.7429 19.586C34.1256 19.8007 34.5502 19.908 35.0169 19.908ZM40.8548 23.8C40.5001 23.8 40.1548 23.7393 39.8188 23.618C39.4828 23.506 39.1935 23.338 38.9508 23.114L39.5248 22.106C39.7115 22.2833 39.9168 22.4187 40.1408 22.512C40.3648 22.6053 40.6028 22.652 40.8548 22.652C41.1815 22.652 41.4521 22.568 41.6668 22.4C41.8815 22.232 42.0821 21.9333 42.2688 21.504L42.7308 20.482L42.8708 20.314L45.7828 13.58H47.0988L43.5008 21.742C43.2861 22.2647 43.0435 22.6753 42.7728 22.974C42.5115 23.2727 42.2221 23.4827 41.9048 23.604C41.5875 23.7347 41.2375 23.8 40.8548 23.8ZM42.6188 21.238L39.2308 13.58H40.6308L43.5148 20.188L42.6188 21.238Z"
        fill="#A0A0A0" />
    <defs>
        <clipPath id="clip0_440_172">
            <rect width="72" height="18" fill="white" transform="translate(50 10)" />
        </clipPath>
    </defs>
</svg>
