<!--
 * Copyright (c) 2020, WSO2 Inc. (http://www.wso2.org) All Rights Reserved.
 *
 * WSO2 Inc. licenses this file to you under the Apache License,
 * Version 2.0 (the "License"); you may not use this file except
 * in compliance with the License.
 * You may obtain a copy of the License at
 *
 *     http://www.apache.org/licenses/LICENSE-2.0
 *
 * Unless required by applicable law or agreed to in writing,
 * software distributed under the License is distributed on an
 * "AS IS" BASIS, WITHOUT WARRANTIES OR CONDITIONS OF ANY
 * KIND, either express or implied. See the License for the
 * specific language governing permissions and limitations
 * under the License.
-->

<svg version="1.1" id="caret-right-icon" class="icon" height="14" width="14" xmlns="http://www.w3.org/2000/svg" x="0px" y="0px" viewBox="0 -1 6 14" xml:space="preserve">
    <g id="caret-icon" transform="translate(-10.115 0.156)">
        <path id="Path_7" class="path" d="M12.378,12.523l-.671-.671L16.59,6.969,11.707,2.085l.671-.671,5.555,5.555Z" transform="translate(-1.1 -1.096)"/>
        <path id="Path_8" class="path" d="M11.278,11.763a.721.721,0,0,1-1.006-1.006c.544-.753,4.883-4.884,4.883-4.884S10.7,1.481,10.271.989s.411-1.516,1.006-1.006,5.89,5.89,5.89,5.89S11.819,11.313,11.278,11.763Zm-.335-1.006.335.335L16.5,5.873,11.278.654l-.335.335,4.883,4.884Z" transform="translate(0 0)"/>
    </g>
</svg>
