<!--
 * Copyright (c) 2023, WSO2 LLC. (https://www.wso2.com). All Rights Reserved.
 *
 * WSO2 LLC. licenses this file to you under the Apache License,
 * Version 2.0 (the "License"); you may not use this file except
 * in compliance with the License.
 * You may obtain a copy of the License at
 *
 *     http://www.apache.org/licenses/LICENSE-2.0
 *
 * Unless required by applicable law or agreed to in writing,
 * software distributed under the License is distributed on an
 * "AS IS" BASIS, WITHOUT WARRANTIES OR CONDITIONS OF ANY
 * KIND, either express or implied. See the License for the
 * specific language governing permissions and limitations
 * under the License.
-->

<svg width="170" height="35" viewBox="0 0 170 35" fill="none" xmlns="http://www.w3.org/2000/svg">
    <path d="M0 0H170V35H14.5L0 0Z" fill="#EFEFEF" />
    <path
        d="M27.7981 20V10.2H28.9461L33.3421 17.606H32.7261L37.0661 10.2H38.2141L38.2281 20H36.8841L36.8701 12.314H37.1921L33.3281 18.81H32.6841L28.7921 12.314H29.1421V20H27.7981ZM45.5792 20V18.432L45.5092 18.138V15.464C45.5092 14.8947 45.3412 14.456 45.0052 14.148C44.6786 13.8307 44.1839 13.672 43.5212 13.672C43.0826 13.672 42.6532 13.7467 42.2332 13.896C41.8132 14.036 41.4586 14.2273 41.1692 14.47L40.6092 13.462C40.9919 13.154 41.4492 12.9207 41.9812 12.762C42.5226 12.594 43.0872 12.51 43.6752 12.51C44.6926 12.51 45.4766 12.7573 46.0272 13.252C46.5779 13.7467 46.8532 14.5027 46.8532 15.52V20H45.5792ZM43.1432 20.084C42.5926 20.084 42.1072 19.9907 41.6872 19.804C41.2766 19.6173 40.9592 19.3607 40.7352 19.034C40.5112 18.698 40.3992 18.32 40.3992 17.9C40.3992 17.4987 40.4926 17.1347 40.6792 16.808C40.8752 16.4813 41.1879 16.22 41.6172 16.024C42.0559 15.828 42.6439 15.73 43.3812 15.73H45.7332V16.696H43.4372C42.7652 16.696 42.3126 16.808 42.0792 17.032C41.8459 17.256 41.7292 17.5267 41.7292 17.844C41.7292 18.208 41.8739 18.502 42.1632 18.726C42.4526 18.9407 42.8539 19.048 43.3672 19.048C43.8712 19.048 44.3099 18.936 44.6832 18.712C45.0659 18.488 45.3412 18.1613 45.5092 17.732L45.7752 18.656C45.5979 19.0947 45.2852 19.4447 44.8372 19.706C44.3892 19.958 43.8246 20.084 43.1432 20.084ZM52.4064 20.084C51.6877 20.084 51.0437 19.9253 50.4744 19.608C49.9144 19.2907 49.4711 18.8473 49.1444 18.278C48.8177 17.7087 48.6544 17.046 48.6544 16.29C48.6544 15.534 48.8177 14.876 49.1444 14.316C49.4711 13.7467 49.9144 13.3033 50.4744 12.986C51.0437 12.6687 51.6877 12.51 52.4064 12.51C53.0317 12.51 53.5964 12.65 54.1004 12.93C54.6044 13.21 55.0057 13.63 55.3044 14.19C55.6124 14.75 55.7664 15.45 55.7664 16.29C55.7664 17.13 55.6171 17.83 55.3184 18.39C55.0291 18.95 54.6324 19.3747 54.1284 19.664C53.6244 19.944 53.0504 20.084 52.4064 20.084ZM52.5184 18.908C52.9851 18.908 53.4051 18.8007 53.7784 18.586C54.1611 18.3713 54.4597 18.068 54.6744 17.676C54.8984 17.2747 55.0104 16.8127 55.0104 16.29C55.0104 15.758 54.8984 15.3007 54.6744 14.918C54.4597 14.526 54.1611 14.2227 53.7784 14.008C53.4051 13.7933 52.9851 13.686 52.5184 13.686C52.0424 13.686 51.6177 13.7933 51.2444 14.008C50.8711 14.2227 50.5724 14.526 50.3484 14.918C50.1244 15.3007 50.0124 15.758 50.0124 16.29C50.0124 16.8127 50.1244 17.2747 50.3484 17.676C50.5724 18.068 50.8711 18.3713 51.2444 18.586C51.6177 18.8007 52.0424 18.908 52.5184 18.908ZM55.0524 20V17.998L55.1364 16.276L54.9964 14.554V9.612H56.3404V20H55.0524ZM62.1874 20.084C61.394 20.084 60.694 19.9207 60.0874 19.594C59.49 19.2673 59.0234 18.8193 58.6874 18.25C58.3607 17.6807 58.1974 17.0273 58.1974 16.29C58.1974 15.5527 58.356 14.8993 58.6734 14.33C59 13.7607 59.4434 13.3173 60.0034 13C60.5727 12.6733 61.212 12.51 61.9214 12.51C62.64 12.51 63.2747 12.6687 63.8254 12.986C64.376 13.3033 64.8054 13.7513 65.1134 14.33C65.4307 14.8993 65.5894 15.5667 65.5894 16.332C65.5894 16.388 65.5847 16.4533 65.5754 16.528C65.5754 16.6027 65.5707 16.6727 65.5614 16.738H59.2474V15.772H64.8614L64.3154 16.108C64.3247 15.632 64.2267 15.2073 64.0214 14.834C63.816 14.4607 63.5314 14.1713 63.1674 13.966C62.8127 13.7513 62.3974 13.644 61.9214 13.644C61.4547 13.644 61.0394 13.7513 60.6754 13.966C60.3114 14.1713 60.0267 14.4653 59.8214 14.848C59.616 15.2213 59.5134 15.6507 59.5134 16.136V16.36C59.5134 16.8547 59.6254 17.298 59.8494 17.69C60.0827 18.0727 60.4047 18.3713 60.8154 18.586C61.226 18.8007 61.6974 18.908 62.2294 18.908C62.668 18.908 63.0647 18.8333 63.4194 18.684C63.7834 18.5347 64.1007 18.3107 64.3714 18.012L65.1134 18.88C64.7774 19.272 64.3574 19.5707 63.8534 19.776C63.3587 19.9813 62.8034 20.084 62.1874 20.084ZM75.1494 20.084C74.5147 20.084 73.9407 19.944 73.4274 19.664C72.9234 19.3747 72.5221 18.95 72.2234 18.39C71.9341 17.83 71.7894 17.13 71.7894 16.29C71.7894 15.45 71.9387 14.75 72.2374 14.19C72.5454 13.63 72.9514 13.21 73.4554 12.93C73.9687 12.65 74.5334 12.51 75.1494 12.51C75.8774 12.51 76.5214 12.6687 77.0814 12.986C77.6414 13.3033 78.0847 13.7467 78.4114 14.316C78.7381 14.876 78.9014 15.534 78.9014 16.29C78.9014 17.046 78.7381 17.7087 78.4114 18.278C78.0847 18.8473 77.6414 19.2907 77.0814 19.608C76.5214 19.9253 75.8774 20.084 75.1494 20.084ZM71.2154 20V9.612H72.5594V14.554L72.4194 16.276L72.5034 17.998V20H71.2154ZM75.0374 18.908C75.5134 18.908 75.9381 18.8007 76.3114 18.586C76.6941 18.3713 76.9927 18.068 77.2074 17.676C77.4314 17.2747 77.5434 16.8127 77.5434 16.29C77.5434 15.758 77.4314 15.3007 77.2074 14.918C76.9927 14.526 76.6941 14.2227 76.3114 14.008C75.9381 13.7933 75.5134 13.686 75.0374 13.686C74.5707 13.686 74.1461 13.7933 73.7634 14.008C73.3901 14.2227 73.0914 14.526 72.8674 14.918C72.6527 15.3007 72.5454 15.758 72.5454 16.29C72.5454 16.8127 72.6527 17.2747 72.8674 17.676C73.0914 18.068 73.3901 18.3713 73.7634 18.586C74.1461 18.8007 74.5707 18.908 75.0374 18.908ZM80.8753 22.8C80.5206 22.8 80.1753 22.7393 79.8393 22.618C79.5033 22.506 79.214 22.338 78.9713 22.114L79.5453 21.106C79.732 21.2833 79.9373 21.4187 80.1613 21.512C80.3853 21.6053 80.6233 21.652 80.8753 21.652C81.202 21.652 81.4726 21.568 81.6873 21.4C81.902 21.232 82.1026 20.9333 82.2893 20.504L82.7513 19.482L82.8913 19.314L85.8033 12.58H87.1193L83.5213 20.742C83.3066 21.2647 83.064 21.6753 82.7933 21.974C82.532 22.2727 82.2426 22.4827 81.9253 22.604C81.608 22.7347 81.258 22.8 80.8753 22.8ZM82.6393 20.238L79.2513 12.58H80.6513L83.5353 19.188L82.6393 20.238Z"
        fill="#A0A0A0" />
    <path
        d="M90.8454 20L95.2834 10.2H96.6694L101.121 20H99.6514L95.6894 10.984H96.2494L92.2874 20H90.8454ZM92.7354 17.55L93.1134 16.43H98.6294L99.0354 17.55H92.7354ZM104.447 20.084C103.831 20.084 103.243 20 102.683 19.832C102.132 19.664 101.698 19.4587 101.381 19.216L101.941 18.152C102.258 18.3667 102.65 18.5487 103.117 18.698C103.584 18.8473 104.06 18.922 104.545 18.922C105.17 18.922 105.618 18.8333 105.889 18.656C106.169 18.4787 106.309 18.2313 106.309 17.914C106.309 17.6807 106.225 17.4987 106.057 17.368C105.889 17.2373 105.665 17.1393 105.385 17.074C105.114 17.0087 104.811 16.9527 104.475 16.906C104.139 16.85 103.803 16.7847 103.467 16.71C103.131 16.626 102.823 16.514 102.543 16.374C102.263 16.2247 102.039 16.024 101.871 15.772C101.703 15.5107 101.619 15.1653 101.619 14.736C101.619 14.288 101.745 13.896 101.997 13.56C102.249 13.224 102.604 12.9673 103.061 12.79C103.528 12.6033 104.078 12.51 104.713 12.51C105.198 12.51 105.688 12.5707 106.183 12.692C106.687 12.804 107.098 12.9673 107.415 13.182L106.841 14.246C106.505 14.022 106.155 13.868 105.791 13.784C105.427 13.7 105.063 13.658 104.699 13.658C104.111 13.658 103.672 13.756 103.383 13.952C103.094 14.1387 102.949 14.3813 102.949 14.68C102.949 14.932 103.033 15.128 103.201 15.268C103.378 15.3987 103.602 15.5013 103.873 15.576C104.153 15.6507 104.461 15.716 104.797 15.772C105.133 15.8187 105.469 15.884 105.805 15.968C106.141 16.0427 106.444 16.15 106.715 16.29C106.995 16.43 107.219 16.626 107.387 16.878C107.564 17.13 107.653 17.466 107.653 17.886C107.653 18.334 107.522 18.7213 107.261 19.048C107 19.3747 106.631 19.6313 106.155 19.818C105.679 19.9953 105.11 20.084 104.447 20.084ZM112.581 22.8C111.899 22.8 111.237 22.702 110.593 22.506C109.958 22.3193 109.44 22.0487 109.039 21.694L109.683 20.658C110.028 20.9567 110.453 21.19 110.957 21.358C111.461 21.5353 111.988 21.624 112.539 21.624C113.416 21.624 114.06 21.4187 114.471 21.008C114.881 20.5973 115.087 19.972 115.087 19.132V17.564L115.227 16.094L115.157 14.61V12.58H116.431V18.992C116.431 20.2987 116.104 21.26 115.451 21.876C114.797 22.492 113.841 22.8 112.581 22.8ZM112.413 19.692C111.694 19.692 111.05 19.5427 110.481 19.244C109.921 18.936 109.473 18.5113 109.137 17.97C108.81 17.4287 108.647 16.8033 108.647 16.094C108.647 15.3753 108.81 14.75 109.137 14.218C109.473 13.6767 109.921 13.2567 110.481 12.958C111.05 12.6593 111.694 12.51 112.413 12.51C113.047 12.51 113.626 12.6407 114.149 12.902C114.671 13.154 115.087 13.546 115.395 14.078C115.712 14.61 115.871 15.282 115.871 16.094C115.871 16.8967 115.712 17.564 115.395 18.096C115.087 18.628 114.671 19.0293 114.149 19.3C113.626 19.5613 113.047 19.692 112.413 19.692ZM112.567 18.516C113.061 18.516 113.5 18.4133 113.883 18.208C114.265 18.0027 114.564 17.718 114.779 17.354C115.003 16.99 115.115 16.57 115.115 16.094C115.115 15.618 115.003 15.198 114.779 14.834C114.564 14.47 114.265 14.19 113.883 13.994C113.5 13.7887 113.061 13.686 112.567 13.686C112.072 13.686 111.629 13.7887 111.237 13.994C110.854 14.19 110.551 14.47 110.327 14.834C110.112 15.198 110.005 15.618 110.005 16.094C110.005 16.57 110.112 16.99 110.327 17.354C110.551 17.718 110.854 18.0027 111.237 18.208C111.629 18.4133 112.072 18.516 112.567 18.516ZM123.605 20V18.432L123.535 18.138V15.464C123.535 14.8947 123.367 14.456 123.031 14.148C122.704 13.8307 122.209 13.672 121.547 13.672C121.108 13.672 120.679 13.7467 120.259 13.896C119.839 14.036 119.484 14.2273 119.195 14.47L118.635 13.462C119.017 13.154 119.475 12.9207 120.007 12.762C120.548 12.594 121.113 12.51 121.701 12.51C122.718 12.51 123.502 12.7573 124.053 13.252C124.603 13.7467 124.879 14.5027 124.879 15.52V20H123.605ZM121.169 20.084C120.618 20.084 120.133 19.9907 119.713 19.804C119.302 19.6173 118.985 19.3607 118.761 19.034C118.537 18.698 118.425 18.32 118.425 17.9C118.425 17.4987 118.518 17.1347 118.705 16.808C118.901 16.4813 119.213 16.22 119.643 16.024C120.081 15.828 120.669 15.73 121.407 15.73H123.759V16.696H121.463C120.791 16.696 120.338 16.808 120.105 17.032C119.871 17.256 119.755 17.5267 119.755 17.844C119.755 18.208 119.899 18.502 120.189 18.726C120.478 18.9407 120.879 19.048 121.393 19.048C121.897 19.048 122.335 18.936 122.709 18.712C123.091 18.488 123.367 18.1613 123.535 17.732L123.801 18.656C123.623 19.0947 123.311 19.4447 122.863 19.706C122.415 19.958 121.85 20.084 121.169 20.084ZM127.366 20V12.58H128.654V14.596L128.528 14.092C128.733 13.5787 129.078 13.1867 129.564 12.916C130.049 12.6453 130.646 12.51 131.356 12.51V13.812C131.3 13.8027 131.244 13.798 131.188 13.798C131.141 13.798 131.094 13.798 131.048 13.798C130.329 13.798 129.76 14.0127 129.34 14.442C128.92 14.8713 128.71 15.492 128.71 16.304V20H127.366ZM136.01 20.084C135.291 20.084 134.647 19.9253 134.078 19.608C133.518 19.2907 133.075 18.8473 132.748 18.278C132.421 17.7087 132.258 17.046 132.258 16.29C132.258 15.534 132.421 14.876 132.748 14.316C133.075 13.7467 133.518 13.3033 134.078 12.986C134.647 12.6687 135.291 12.51 136.01 12.51C136.635 12.51 137.2 12.65 137.704 12.93C138.208 13.21 138.609 13.63 138.908 14.19C139.216 14.75 139.37 15.45 139.37 16.29C139.37 17.13 139.221 17.83 138.922 18.39C138.633 18.95 138.236 19.3747 137.732 19.664C137.228 19.944 136.654 20.084 136.01 20.084ZM136.122 18.908C136.589 18.908 137.009 18.8007 137.382 18.586C137.765 18.3713 138.063 18.068 138.278 17.676C138.502 17.2747 138.614 16.8127 138.614 16.29C138.614 15.758 138.502 15.3007 138.278 14.918C138.063 14.526 137.765 14.2227 137.382 14.008C137.009 13.7933 136.589 13.686 136.122 13.686C135.646 13.686 135.221 13.7933 134.848 14.008C134.475 14.2227 134.176 14.526 133.952 14.918C133.728 15.3007 133.616 15.758 133.616 16.29C133.616 16.8127 133.728 17.2747 133.952 17.676C134.176 18.068 134.475 18.3713 134.848 18.586C135.221 18.8007 135.646 18.908 136.122 18.908ZM138.656 20V17.998L138.74 16.276L138.6 14.554V9.612H139.944V20H138.656ZM145.791 20.084C144.998 20.084 144.298 19.9207 143.691 19.594C143.094 19.2673 142.627 18.8193 142.291 18.25C141.964 17.6807 141.801 17.0273 141.801 16.29C141.801 15.5527 141.96 14.8993 142.277 14.33C142.604 13.7607 143.047 13.3173 143.607 13C144.176 12.6733 144.816 12.51 145.525 12.51C146.244 12.51 146.878 12.6687 147.429 12.986C147.98 13.3033 148.409 13.7513 148.717 14.33C149.034 14.8993 149.193 15.5667 149.193 16.332C149.193 16.388 149.188 16.4533 149.179 16.528C149.179 16.6027 149.174 16.6727 149.165 16.738H142.851V15.772H148.465L147.919 16.108C147.928 15.632 147.83 15.2073 147.625 14.834C147.42 14.4607 147.135 14.1713 146.771 13.966C146.416 13.7513 146.001 13.644 145.525 13.644C145.058 13.644 144.643 13.7513 144.279 13.966C143.915 14.1713 143.63 14.4653 143.425 14.848C143.22 15.2213 143.117 15.6507 143.117 16.136V16.36C143.117 16.8547 143.229 17.298 143.453 17.69C143.686 18.0727 144.008 18.3713 144.419 18.586C144.83 18.8007 145.301 18.908 145.833 18.908C146.272 18.908 146.668 18.8333 147.023 18.684C147.387 18.5347 147.704 18.3107 147.975 18.012L148.717 18.88C148.381 19.272 147.961 19.5707 147.457 19.776C146.962 19.9813 146.407 20.084 145.791 20.084ZM154.237 20.084C153.49 20.084 152.828 19.9207 152.249 19.594C151.67 19.2673 151.213 18.8193 150.877 18.25C150.541 17.6713 150.373 17.018 150.373 16.29C150.373 15.5527 150.541 14.8993 150.877 14.33C151.213 13.7607 151.67 13.3173 152.249 13C152.828 12.6733 153.49 12.51 154.237 12.51C154.974 12.51 155.632 12.6733 156.211 13C156.799 13.3173 157.256 13.7607 157.583 14.33C157.919 14.89 158.087 15.5433 158.087 16.29C158.087 17.0273 157.919 17.6807 157.583 18.25C157.256 18.8193 156.799 19.2673 156.211 19.594C155.632 19.9207 154.974 20.084 154.237 20.084ZM154.237 18.908C154.713 18.908 155.138 18.8007 155.511 18.586C155.894 18.3713 156.192 18.068 156.407 17.676C156.622 17.2747 156.729 16.8127 156.729 16.29C156.729 15.758 156.622 15.3007 156.407 14.918C156.192 14.526 155.894 14.2227 155.511 14.008C155.138 13.7933 154.713 13.686 154.237 13.686C153.761 13.686 153.336 13.7933 152.963 14.008C152.59 14.2227 152.291 14.526 152.067 14.918C151.843 15.3007 151.731 15.758 151.731 16.29C151.731 16.8127 151.843 17.2747 152.067 17.676C152.291 18.068 152.59 18.3713 152.963 18.586C153.336 18.8007 153.761 18.908 154.237 18.908Z"
        fill="#EFEFEF" />
    <g clip-path="url(#clip0_440_172)">
        <path d="M160.67 9L161.098 9.75015L160.624 10.5809H161.571L162 11.331H159.339L160.67 9Z" fill="#FF7300" />
        <path d="M157.344 11.331L157.773 10.5809H158.72L158.246 9.75016L158.674 9L160.007 11.3314L157.344 11.331Z"
            fill="#FF7300" />
        <path d="M160.147 13.0814L159.673 12.2507L159.198 13.0814H158.342L159.675 10.75L161.004 13.0814H160.147Z"
            fill="black" />
        <path
            d="M99.7568 19.5482V17.8036H104.106C104.298 17.8036 104.482 17.7264 104.617 17.5891C104.753 17.4517 104.829 17.2654 104.829 17.0712C104.829 16.877 104.753 16.6907 104.617 16.5533C104.482 16.416 104.298 16.3388 104.106 16.3388H102.204C101.555 16.3388 100.932 16.0778 100.474 15.6133C100.015 15.1488 99.7571 14.5187 99.7571 13.8618C99.7571 13.2048 100.015 12.5748 100.474 12.1103C100.932 11.6457 101.555 11.3848 102.204 11.3848H106.552V13.1294H102.204C102.109 13.1286 102.014 13.1469 101.927 13.1835C101.839 13.2201 101.759 13.274 101.692 13.3423C101.591 13.4445 101.521 13.5752 101.493 13.7175C101.464 13.8599 101.479 14.0075 101.533 14.1417C101.588 14.2759 101.681 14.3906 101.8 14.4711C101.92 14.5517 102.06 14.5945 102.204 14.5942H104.106C104.755 14.5942 105.377 14.8551 105.836 15.3197C106.294 15.7842 106.552 16.4142 106.552 17.0712C106.552 17.7281 106.294 18.3582 105.836 18.8227C105.377 19.2872 104.755 19.5482 104.106 19.5482H99.7568Z"
            fill="black" />
        <path
            d="M111.217 19.5493C110.68 19.5621 110.145 19.466 109.645 19.2666C109.145 19.0672 108.689 18.7686 108.305 18.3883C107.92 18.008 107.615 17.5537 107.406 17.0522C107.197 16.5506 107.09 16.0118 107.09 15.4676C107.09 14.9234 107.197 14.3846 107.406 13.8831C107.615 13.3815 107.92 12.9272 108.305 12.5469C108.689 12.1666 109.145 11.868 109.645 11.6686C110.145 11.4692 110.68 11.3731 111.217 11.3859H114.615V13.1287H111.217C110.625 13.1587 110.067 13.4181 109.658 13.8531C109.249 14.2881 109.021 14.8655 109.021 15.4658C109.021 16.0662 109.249 16.6436 109.658 17.0786C110.067 17.5136 110.625 17.7729 111.217 17.8029H112.893V16.3381H111.626V14.6025H114.617V19.5565L111.217 19.5493Z"
            fill="black" />
        <path
            d="M131.057 19.5482L127.168 15.6467V19.5482H125.445V11.3848H129.794C130.279 11.3835 130.753 11.5282 131.156 11.8002C131.559 12.0723 131.874 12.4596 132.059 12.913C132.244 13.3663 132.292 13.8651 132.197 14.3462C132.102 14.8273 131.868 15.2688 131.524 15.6148C131.323 15.8198 131.089 15.9901 130.834 16.1188L130.32 16.3717L133.466 19.5496L131.057 19.5482ZM129.794 14.6032C129.986 14.6032 130.17 14.526 130.306 14.3887C130.441 14.2513 130.518 14.065 130.518 13.8708C130.518 13.6766 130.441 13.4903 130.306 13.3529C130.17 13.2156 129.986 13.1384 129.794 13.1384H127.168V14.6032H129.794Z"
            fill="black" />
        <path
            d="M134.104 19.5489V11.3859H137.502C138.04 11.3731 138.574 11.4693 139.074 11.6686C139.574 11.868 140.03 12.1666 140.415 12.5469C140.799 12.9272 141.105 13.3815 141.313 13.8831C141.522 14.3846 141.629 14.9234 141.629 15.4676C141.629 16.0118 141.522 16.5506 141.313 17.0522C141.105 17.5537 140.799 18.008 140.415 18.3883C140.03 18.7686 139.574 19.0672 139.074 19.2666C138.574 19.466 138.04 19.5621 137.502 19.5494L134.104 19.5489ZM137.502 17.8042C138.094 17.7742 138.653 17.5149 139.061 17.0799C139.47 16.6449 139.698 16.0675 139.698 15.4672C139.698 14.8668 139.47 14.2894 139.061 13.8544C138.653 13.4194 138.094 13.1601 137.502 13.1301H135.828V17.8042H137.502Z"
            fill="black" />
        <path
            d="M153.494 19.5493C152.563 19.549 151.66 19.2216 150.94 18.623C150.22 18.0243 149.727 17.1914 149.545 16.2661C149.363 15.3409 149.504 14.3804 149.943 13.5484C150.383 12.7164 151.093 12.0643 151.954 11.7032C152.815 11.3421 153.773 11.2943 154.664 11.5679C155.556 11.8416 156.326 12.4198 156.844 13.204C157.362 13.9882 157.595 14.93 157.505 15.8689C157.414 16.8078 157.004 17.6857 156.346 18.3532C155.978 18.7411 155.534 19.0476 155.044 19.2534C154.553 19.4593 154.026 19.56 153.494 19.5493V19.5493ZM153.494 13.1305C152.96 13.1295 152.441 13.3165 152.027 13.6594C151.613 14.0023 151.329 14.48 151.224 15.011C151.119 15.542 151.199 16.0935 151.451 16.5713C151.703 17.0492 152.11 17.4239 152.604 17.6316C153.098 17.8393 153.648 17.867 154.16 17.7101C154.672 17.5533 155.114 17.2215 155.412 16.7713C155.709 16.3212 155.843 15.7805 155.791 15.2416C155.738 14.7026 155.503 14.1988 155.125 13.8158C154.913 13.5958 154.659 13.4216 154.379 13.3038C154.099 13.186 153.798 13.127 153.494 13.1305V13.1305Z"
            fill="black" />
        <path d="M90 19.5482H91.9267L94.6564 14.762L97.384 19.5482H99.3084L94.6564 11.3848L90 19.5482Z" fill="black" />
        <path d="M115.362 19.5482H117.289L120.017 14.762L122.744 19.5482H124.669L120.016 11.3848L115.362 19.5482Z"
            fill="black" />
        <path
            d="M142.277 19.5229V11.3887H149.013V13.1176H143.996V14.6138H147.759V16.3027H143.996V17.7944H149.013V19.5233L142.277 19.5229Z"
            fill="black" />
    </g>
    <defs>
        <clipPath id="clip0_440_172">
            <rect width="72" height="18" fill="white" transform="translate(90 9)" />
        </clipPath>
    </defs>
</svg>
