<!--
 * Copyright (c) 2020, WSO2 Inc. (http://www.wso2.com). All Rights Reserved.
 * 
 * This software is the property of WSO2 Inc. and its suppliers, if any.
 * Dissemination of any information or reproduction of any material contained
 * herein in any form is strictly forbidden, unless permitted by WSO2 expressly.
 * You may not alter or remove any copyright or other notice from copies of this content."
-->

<svg class="icon" width="14" height="14" xmlns="http://www.w3.org/2000/svg" viewBox="0 0 23 23">
	<g id="Group_627" data-name="Group 627" transform="translate(-809 -858)">
        <rect id="Rectangle_640" data-name="Rectangle 640" width="23" height="23" rx="1" transform="translate(809 858)"
              fill="#fff"/>
		<g id="download_1_" data-name="download (1)" transform="translate(782.195 862.585)">
			<g id="Group_626" data-name="Group 626" transform="translate(32.304)">
				<path id="Path_1971" data-name="Path 1971" d="M44.782,7.93a.3.3,0,0,0-.275-.184H41.242V.3a.3.3,0,0,0-.3-.3H36.177a.3.3,0,0,0-.3.3V7.746H32.6a.3.3,0,0,0-.211.508l5.944,5.963a.3.3,0,0,0,.422,0l5.961-5.963A.3.3,0,0,0,44.782,7.93Z" transform="translate(-32.304)" fill="#7b7b7b"/>
			</g>
		</g>
	</g>
</svg>
