<?xml version="1.0" encoding="UTF-8" standalone="no"?>
<svg
   xmlns:dc="http://purl.org/dc/elements/1.1/"
   xmlns:cc="http://creativecommons.org/ns#"
   xmlns:rdf="http://www.w3.org/1999/02/22-rdf-syntax-ns#"
   xmlns:svg="http://www.w3.org/2000/svg"
   xmlns="http://www.w3.org/2000/svg"
   xmlns:xlink="http://www.w3.org/1999/xlink"
   id="svg3055"
   height="86"
   width="340"
   version="1.1">
  <metadata
     id="metadata3061">
    <rdf:RDF>
      <cc:Work
         rdf:about="">
        <dc:format>image/svg+xml</dc:format>
        <dc:type
           rdf:resource="http://purl.org/dc/dcmitype/StillImage" />
        <dc:title />
      </cc:Work>
    </rdf:RDF>
  </metadata>
  <defs
     id="defs3059">
    <linearGradient
       gradientTransform="translate(-44.21456,-9.8500092)"
       gradientUnits="userSpaceOnUse"
       xlink:href="#linearGradient11392"
       id="linearGradient12648"
       y2="0"
       x2="1"
       y1="0"
       x1="0" />
    <linearGradient
       gradientTransform="matrix(0.4226,-0.9063,0.9063,0.4226,4226.9761,-6584.5938)"
       gradientUnits="userSpaceOnUse"
       xlink:href="#SVGID_1_"
       id="linearGradient5344"
       y2="-714.90741"
       x2="-7633.1528"
       y1="-803.36011"
       x1="-7708.7969" />
    <linearGradient
       gradientTransform="matrix(0.4226,-0.9063,0.9063,0.4226,4226.9761,-6584.5938)"
       gradientUnits="userSpaceOnUse"
       xlink:href="#SVGID_2_"
       id="linearGradient5346"
       y2="-813.12323"
       x2="-7728.9585"
       y1="-813.12323"
       x1="-8268.6387" />
    <linearGradient
       gradientTransform="matrix(0.4226,-0.9063,0.9063,0.4226,4226.9761,-6584.5938)"
       gradientUnits="userSpaceOnUse"
       xlink:href="#SVGID_3_"
       id="linearGradient5348"
       y2="-758.99402"
       x2="-7881.895"
       y1="-758.99402"
       x1="-8203.4922" />
    <linearGradient
       gradientTransform="matrix(0.4226,-0.9063,0.9063,0.4226,4226.9761,-6584.5938)"
       gradientUnits="userSpaceOnUse"
       xlink:href="#SVGID_4_"
       id="linearGradient5350"
       y2="-818.15222"
       x2="-7698.647"
       y1="-818.15222"
       x1="-8238.3281" />
    <linearGradient
       gradientTransform="matrix(0.4226,-0.9063,0.9063,0.4226,4226.9761,-6584.5938)"
       gradientUnits="userSpaceOnUse"
       xlink:href="#SVGID_5_"
       id="linearGradient5352"
       y2="-810.85059"
       x2="-7915.3501"
       y1="-810.85059"
       x1="-8198.9678" />
    <linearGradient
       gradientTransform="matrix(0.4226,-0.9063,0.9063,0.4226,4226.9761,-6584.5938)"
       gradientUnits="userSpaceOnUse"
       xlink:href="#SVGID_6_"
       id="linearGradient5354"
       y2="-762.29712"
       x2="-7698.647"
       y1="-762.29712"
       x1="-8238.3281" />
    <linearGradient
       gradientTransform="matrix(0.4226,-0.9063,0.9063,0.4226,4226.9761,-6584.5938)"
       gradientUnits="userSpaceOnUse"
       xlink:href="#SVGID_7_"
       id="linearGradient5356"
       y2="-765.07068"
       x2="-7732.125"
       y1="-765.07068"
       x1="-8271.8057" />
    <linearGradient
       gradientTransform="matrix(0.4226,-0.9063,0.9063,0.4226,4226.9761,-6584.5938)"
       gradientUnits="userSpaceOnUse"
       xlink:href="#SVGID_8_"
       id="linearGradient5358"
       y2="-745.68481"
       x2="-7698.647"
       y1="-745.68481"
       x1="-8238.3281" />
    <linearGradient
       gradientTransform="matrix(0.4226,-0.9063,0.9063,0.4226,4226.9761,-6584.5938)"
       gradientUnits="userSpaceOnUse"
       xlink:href="#SVGID_9_"
       id="linearGradient5360"
       y2="-747.58557"
       x2="-7698.647"
       y1="-747.58557"
       x1="-8238.3281" />
    <linearGradient
       gradientTransform="matrix(0.4226,-0.9063,0.9063,0.4226,4226.9761,-6584.5938)"
       gradientUnits="userSpaceOnUse"
       xlink:href="#SVGID_10_"
       id="linearGradient5362"
       y2="-747.9668"
       x2="-7815.856"
       y1="-747.9668"
       x1="-7935.1431" />
    <linearGradient
       gradientTransform="matrix(0.4226,-0.9063,0.9063,0.4226,4226.9761,-6584.5938)"
       gradientUnits="userSpaceOnUse"
       xlink:href="#SVGID_1_"
       id="linearGradient7396"
       y2="-714.90741"
       x2="-7633.1528"
       y1="-803.36011"
       x1="-7708.7969" />
    <linearGradient
       gradientTransform="matrix(0.4226,-0.9063,0.9063,0.4226,4226.9761,-6584.5938)"
       gradientUnits="userSpaceOnUse"
       xlink:href="#SVGID_2_"
       id="linearGradient7398"
       y2="-813.12323"
       x2="-7728.9585"
       y1="-813.12323"
       x1="-8268.6387" />
    <linearGradient
       gradientTransform="matrix(0.4226,-0.9063,0.9063,0.4226,4226.9761,-6584.5938)"
       gradientUnits="userSpaceOnUse"
       xlink:href="#SVGID_3_"
       id="linearGradient7400"
       y2="-758.99402"
       x2="-7881.895"
       y1="-758.99402"
       x1="-8203.4922" />
    <linearGradient
       gradientTransform="matrix(0.4226,-0.9063,0.9063,0.4226,4226.9761,-6584.5938)"
       gradientUnits="userSpaceOnUse"
       xlink:href="#SVGID_4_"
       id="linearGradient7402"
       y2="-818.15222"
       x2="-7698.647"
       y1="-818.15222"
       x1="-8238.3281" />
    <linearGradient
       gradientTransform="matrix(0.4226,-0.9063,0.9063,0.4226,4226.9761,-6584.5938)"
       gradientUnits="userSpaceOnUse"
       xlink:href="#SVGID_5_"
       id="linearGradient7404"
       y2="-810.85059"
       x2="-7915.3501"
       y1="-810.85059"
       x1="-8198.9678" />
    <linearGradient
       gradientTransform="matrix(0.4226,-0.9063,0.9063,0.4226,4226.9761,-6584.5938)"
       gradientUnits="userSpaceOnUse"
       xlink:href="#SVGID_6_"
       id="linearGradient7406"
       y2="-762.29712"
       x2="-7698.647"
       y1="-762.29712"
       x1="-8238.3281" />
    <linearGradient
       gradientTransform="matrix(0.4226,-0.9063,0.9063,0.4226,4226.9761,-6584.5938)"
       gradientUnits="userSpaceOnUse"
       xlink:href="#SVGID_7_"
       id="linearGradient7408"
       y2="-765.07068"
       x2="-7732.125"
       y1="-765.07068"
       x1="-8271.8057" />
    <linearGradient
       gradientTransform="matrix(0.4226,-0.9063,0.9063,0.4226,4226.9761,-6584.5938)"
       gradientUnits="userSpaceOnUse"
       xlink:href="#SVGID_8_"
       id="linearGradient7410"
       y2="-745.68481"
       x2="-7698.647"
       y1="-745.68481"
       x1="-8238.3281" />
    <linearGradient
       gradientTransform="matrix(0.4226,-0.9063,0.9063,0.4226,4226.9761,-6584.5938)"
       gradientUnits="userSpaceOnUse"
       xlink:href="#SVGID_9_"
       id="linearGradient7412"
       y2="-747.58557"
       x2="-7698.647"
       y1="-747.58557"
       x1="-8238.3281" />
    <linearGradient
       gradientTransform="matrix(0.4226,-0.9063,0.9063,0.4226,4226.9761,-6584.5938)"
       gradientUnits="userSpaceOnUse"
       xlink:href="#SVGID_10_"
       id="linearGradient7414"
       y2="-747.9668"
       x2="-7815.856"
       y1="-747.9668"
       x1="-7935.1431" />
  </defs>
  <text
     style="font-style:italic;font-variant:normal;font-weight:bold;font-stretch:normal;font-size:14px;line-height:0%;font-family:'Alte Haas Grotesk';-inkscape-font-specification:'Sans Italic';letter-spacing:0px;word-spacing:0px;fill:url(#linearGradient12648);fill-opacity:1;stroke:none"
     xml:space="preserve"
     id="text11870"
     y="196.18768"
     x="199.61313"><tspan
       style="fill:url(#linearGradient12648);fill-opacity:1"
       id="tspan11872"
       y="196.18768"
       x="199.61313" /></text>
  <g
     id="g8927">
    <g
       id="g7248"
       transform="matrix(0.09561334,-0.07017507,0.07017507,0.09561334,132.73733,36.368381)">
      <linearGradient
         gradientTransform="matrix(0.4226,-0.9063,0.9063,0.4226,4226.9761,-6584.5938)"
         gradientUnits="userSpaceOnUse"
         id="linearGradient7250"
         y2="-714.90741"
         x2="-7633.1528"
         y1="-803.36011"
         x1="-7708.7969">
        <stop
           offset="0"
           style="stop-color:#f69923;stop-opacity:1"
           id="stop7252" />
        <stop
           offset="0.3123"
           style="stop-color:#f79a23;stop-opacity:1"
           id="stop7254" />
        <stop
           offset="0.83829999"
           style="stop-color:#e97826;stop-opacity:1"
           id="stop7256" />
      </linearGradient>
      <path
         style="fill:url(#linearGradient7396)"
         id="path7258"
         d="m 267.1,19.6 c -8.4,5 -22.4,19 -39,39.3 l 15.3,28.9 c 10.7,-15.4 21.7,-29.2 32.7,-41 0.8,-0.9 1.3,-1.4 1.3,-1.4 -0.4,0.5 -0.9,0.9 -1.3,1.4 -3.6,3.9 -14.4,16.5 -30.7,41.6 15.7,-0.8 39.8,-4 59.5,-7.4 5.9,-32.8 -5.7,-47.8 -5.7,-47.8 0,0 -14.8,-23.9 -32.1,-13.6 z" />
      <path
         style="fill:none"
         id="path7260"
         d="m 241.1,184.4 c 0.1,0 0.2,0 0.3,-0.1 l -2.2,0.2 c -0.1,0.1 -0.3,0.1 -0.4,0.2 0.8,-0.1 1.6,-0.2 2.3,-0.3 z" />
      <path
         style="fill:none"
         id="path7262"
         d="m 225.5,236.1 c -1.2,0.3 -2.5,0.5 -3.8,0.7 1.3,-0.2 2.6,-0.4 3.8,-0.7 z" />
      <path
         style="fill:none"
         id="path7264"
         d="m 119.3,352.2 c 0.2,-0.4 0.3,-0.9 0.5,-1.3 3.4,-8.9 6.7,-17.5 10,-26 3.7,-9.4 7.4,-18.6 11,-27.5 3.8,-9.3 7.6,-18.4 11.3,-27.1 3.9,-9.2 7.7,-18 11.5,-26.5 3.1,-6.9 6.1,-13.6 9.1,-20.1 1,-2.2 2,-4.3 3,-6.4 2,-4.2 3.9,-8.3 5.8,-12.3 1.8,-3.7 3.5,-7.3 5.2,-10.9 0.6,-1.2 1.2,-2.4 1.7,-3.5 0.1,-0.2 0.2,-0.4 0.3,-0.6 l -1.9,0.2 -1.5,-2.9 c -0.1,0.3 -0.3,0.6 -0.4,0.9 -2.7,5.3 -5.4,10.7 -8,16.2 -1.5,3.1 -3,6.3 -4.6,9.5 -4.2,8.8 -8.3,17.6 -12.3,26.6 -4.1,9 -8.1,18.1 -12,27.1 -3.9,8.9 -7.6,17.8 -11.3,26.7 -3.7,8.9 -7.3,17.7 -10.8,26.5 -3.7,9.2 -7.3,18.3 -10.7,27.3 -0.8,2 -1.6,4.1 -2.3,6.1 -2.8,7.3 -5.5,14.4 -8.1,21.5 l 2.4,4.7 2.1,-0.2 c 0.1,-0.2 0.2,-0.4 0.2,-0.6 3.1,-9.5 6.5,-18.6 9.8,-27.4 z" />
      <path
         style="fill:none"
         id="path7266"
         d="m 220.7,236.9 0,0 c 0,0 0,0 0,0 0,0 0,0 0,0 z" />
      <path
         style="fill:#be202e"
         id="path7268"
         d="m 215.6,262.2 c -2,0.4 -4,0.7 -6,1 0,0 0,0 0,0 1,-0.1 2.1,-0.3 3.1,-0.5 1,-0.1 2,-0.3 2.9,-0.5 z" />
      <path
         style="opacity:0.35;fill:#be202e"
         id="path7270"
         d="m 215.6,262.2 c -2,0.4 -4,0.7 -6,1 0,0 0,0 0,0 1,-0.1 2.1,-0.3 3.1,-0.5 1,-0.1 2,-0.3 2.9,-0.5 z" />
      <path
         style="fill:#be202e"
         id="path7272"
         d="m 220.8,236.9 c 0,0 0,0 0,0 -0.1,0 -0.1,0 0,0 0.3,0 0.6,-0.1 0.9,-0.1 1.3,-0.2 2.6,-0.4 3.8,-0.7 -1.5,0.3 -3.1,0.5 -4.7,0.8 l 0,0 0,0 z" />
      <path
         style="opacity:0.35;fill:#be202e"
         id="path7274"
         d="m 220.8,236.9 c 0,0 0,0 0,0 -0.1,0 -0.1,0 0,0 0.3,0 0.6,-0.1 0.9,-0.1 1.3,-0.2 2.6,-0.4 3.8,-0.7 -1.5,0.3 -3.1,0.5 -4.7,0.8 l 0,0 0,0 z" />
      <linearGradient
         gradientTransform="matrix(0.4226,-0.9063,0.9063,0.4226,4226.9761,-6584.5938)"
         gradientUnits="userSpaceOnUse"
         id="linearGradient7276"
         y2="-813.12323"
         x2="-7728.9585"
         y1="-813.12323"
         x1="-8268.6387">
        <stop
           offset="0.3233"
           style="stop-color:#9e2064;stop-opacity:1"
           id="stop7278" />
        <stop
           offset="0.63020003"
           style="stop-color:#c92037;stop-opacity:1"
           id="stop7280" />
        <stop
           offset="0.75139999"
           style="stop-color:#cd2335;stop-opacity:1"
           id="stop7282" />
        <stop
           offset="1"
           style="stop-color:#e97826;stop-opacity:1"
           id="stop7284" />
      </linearGradient>
      <path
         style="fill:url(#linearGradient7398)"
         id="path7286"
         d="m 198.2,162.4 c 4.7,-8.7 9.4,-17.2 14.1,-25.5 4.9,-8.6 9.9,-16.9 15,-25 0.3,-0.5 0.6,-1 0.9,-1.4 5,-7.9 10,-15.5 15.1,-22.8 L 228,58.9 c -1.1,1.4 -2.3,2.8 -3.5,4.3 -4.4,5.5 -9,11.4 -13.7,17.7 -5.3,7.1 -10.7,14.6 -16.3,22.5 -5.1,7.3 -10.3,15 -15.5,22.9 -4.4,6.8 -8.8,13.7 -13.2,20.8 -0.2,0.3 -0.3,0.5 -0.5,0.8 l 19.9,39.3 c 4.4,-8.3 8.7,-16.6 13,-24.8 z" />
      <linearGradient
         gradientTransform="matrix(0.4226,-0.9063,0.9063,0.4226,4226.9761,-6584.5938)"
         gradientUnits="userSpaceOnUse"
         id="linearGradient7288"
         y2="-758.99402"
         x2="-7881.895"
         y1="-758.99402"
         x1="-8203.4922">
        <stop
           offset="0"
           style="stop-color:#282662;stop-opacity:1"
           id="stop7290" />
        <stop
           offset="0.0954839"
           style="stop-color:#662e8d;stop-opacity:1"
           id="stop7292" />
        <stop
           offset="0.78820002"
           style="stop-color:#9f2064;stop-opacity:1"
           id="stop7294" />
        <stop
           offset="0.94870001"
           style="stop-color:#cd2032;stop-opacity:1"
           id="stop7296" />
      </linearGradient>
      <path
         style="fill:url(#linearGradient7400)"
         id="path7298"
         d="m 107.5,384.1 c -2.6,7.2 -5.3,14.6 -7.9,22.2 0,0.1 -0.1,0.2 -0.1,0.3 -0.4,1.1 -0.8,2.1 -1.1,3.2 -1.8,5.1 -3.3,9.7 -6.9,20.1 5.9,2.7 10.6,9.7 15,17.7 -0.5,-8.3 -3.9,-16.1 -10.4,-22.1 28.9,1.3 53.9,-6 66.7,-27.2 1.1,-1.9 2.2,-3.9 3.2,-6 -5.9,7.4 -13.1,10.6 -26.8,9.8 0,0 -0.1,0 -0.1,0 0,0 0.1,0 0.1,0 20.1,-9 30.2,-17.7 39.1,-32 2.1,-3.4 4.2,-7.1 6.3,-11.2 -17.6,18.1 -38,23.2 -59.5,19.3 L 109,380 c -0.5,1.4 -1,2.7 -1.5,4.1 z" />
      <linearGradient
         gradientTransform="matrix(0.4226,-0.9063,0.9063,0.4226,4226.9761,-6584.5938)"
         gradientUnits="userSpaceOnUse"
         id="linearGradient7300"
         y2="-818.15222"
         x2="-7698.647"
         y1="-818.15222"
         x1="-8238.3281">
        <stop
           offset="0.3233"
           style="stop-color:#9e2064;stop-opacity:1"
           id="stop7302" />
        <stop
           offset="0.63020003"
           style="stop-color:#c92037;stop-opacity:1"
           id="stop7304" />
        <stop
           offset="0.75139999"
           style="stop-color:#cd2335;stop-opacity:1"
           id="stop7306" />
        <stop
           offset="1"
           style="stop-color:#e97826;stop-opacity:1"
           id="stop7308" />
      </linearGradient>
      <path
         style="fill:url(#linearGradient7402)"
         id="path7310"
         d="m 115,348 c 3.5,-9 7.1,-18.1 10.7,-27.3 3.5,-8.8 7.1,-17.6 10.8,-26.5 3.7,-8.9 7.5,-17.8 11.3,-26.7 3.9,-9.1 7.9,-18.1 12,-27.1 4,-8.9 8.2,-17.8 12.3,-26.6 1.5,-3.2 3,-6.3 4.6,-9.5 2.6,-5.4 5.3,-10.8 8,-16.2 0.1,-0.3 0.3,-0.6 0.4,-0.9 L 165.4,148 c -0.3,0.5 -0.6,1.1 -1,1.6 -4.6,7.6 -9.3,15.3 -13.8,23.2 -4.6,8 -9.1,16.1 -13.5,24.4 -3.7,7 -7.3,14 -10.9,21.1 -0.7,1.4 -1.4,2.9 -2.1,4.3 -4.3,8.9 -8.3,17.6 -11.8,25.9 -4,9.4 -7.5,18.4 -10.6,26.9 -2,5.6 -3.9,11 -5.6,16.2 -1.4,4.4 -2.7,8.9 -4,13.3 -3,10.4 -5.5,20.8 -7.6,31.2 l 20,39.5 c 2.6,-7.1 5.4,-14.2 8.1,-21.5 0.8,-2 1.6,-4 2.4,-6.1 z" />
      <linearGradient
         gradientTransform="matrix(0.4226,-0.9063,0.9063,0.4226,4226.9761,-6584.5938)"
         gradientUnits="userSpaceOnUse"
         id="linearGradient7312"
         y2="-810.85059"
         x2="-7915.3501"
         y1="-810.85059"
         x1="-8198.9678">
        <stop
           offset="0"
           style="stop-color:#282662;stop-opacity:1"
           id="stop7314" />
        <stop
           offset="0.0954839"
           style="stop-color:#662e8d;stop-opacity:1"
           id="stop7316" />
        <stop
           offset="0.78820002"
           style="stop-color:#9f2064;stop-opacity:1"
           id="stop7318" />
        <stop
           offset="0.94870001"
           style="stop-color:#cd2032;stop-opacity:1"
           id="stop7320" />
      </linearGradient>
      <path
         style="fill:url(#linearGradient7404)"
         id="path7322"
         d="m 84.2,337.5 c -2.5,12.6 -4.3,25.2 -5.2,37.8 0,0.4 -0.1,0.9 -0.1,1.3 -6.2,-10 -23,-19.8 -22.9,-19.7 12,17.4 21.1,34.6 22.4,51.5 -6.4,1.3 -15.2,-0.6 -25.3,-4.3 10.6,9.7 18.5,12.4 21.6,13.1 -9.7,0.6 -19.8,7.3 -30,15 14.9,-6.1 27,-8.5 35.6,-6.5 -13.7,38.7 -27.4,81.5 -41.1,126.9 4.2,-1.2 6.7,-4.1 8.1,-7.9 2.4,-8.2 18.7,-62.2 44.1,-133.1 0.7,-2 1.5,-4 2.2,-6.1 0.2,-0.6 0.4,-1.1 0.6,-1.7 2.7,-7.4 5.5,-15 8.4,-22.8 0.7,-1.8 1.3,-3.5 2,-5.3 0,0 0,-0.1 0,-0.1 l -20,-39.5 c -0.2,0.5 -0.3,0.9 -0.4,1.4 z" />
      <linearGradient
         gradientTransform="matrix(0.4226,-0.9063,0.9063,0.4226,4226.9761,-6584.5938)"
         gradientUnits="userSpaceOnUse"
         id="linearGradient7324"
         y2="-762.29712"
         x2="-7698.647"
         y1="-762.29712"
         x1="-8238.3281">
        <stop
           offset="0.3233"
           style="stop-color:#9e2064;stop-opacity:1"
           id="stop7326" />
        <stop
           offset="0.63020003"
           style="stop-color:#c92037;stop-opacity:1"
           id="stop7328" />
        <stop
           offset="0.75139999"
           style="stop-color:#cd2335;stop-opacity:1"
           id="stop7330" />
        <stop
           offset="1"
           style="stop-color:#e97826;stop-opacity:1"
           id="stop7332" />
      </linearGradient>
      <path
         style="fill:url(#linearGradient7406)"
         id="path7334"
         d="m 188.4,190.6 c -0.6,1.2 -1.1,2.3 -1.7,3.5 -1.7,3.6 -3.5,7.2 -5.2,10.9 -1.9,4 -3.8,8.1 -5.8,12.3 -1,2.1 -2,4.2 -3,6.4 -3,6.5 -6,13.2 -9.1,20.1 -3.8,8.5 -7.6,17.3 -11.5,26.5 -3.7,8.7 -7.5,17.8 -11.3,27.1 -3.6,8.9 -7.3,18 -11,27.5 -3.3,8.4 -6.6,17.1 -10,26 -0.2,0.4 -0.3,0.9 -0.5,1.3 -3.3,8.8 -6.7,17.9 -10.1,27.2 -0.1,0.2 -0.2,0.4 -0.2,0.6 l 16.1,-1.8 c -0.3,-0.1 -0.6,-0.1 -1,-0.2 19.3,-2.4 44.9,-16.8 61.4,-34.6 7.6,-8.2 14.5,-17.8 20.9,-29.1 4.8,-8.4 9.2,-17.7 13.5,-28.1 3.7,-9 7.3,-18.8 10.7,-29.4 -4.4,2.3 -9.5,4 -15.1,5.2 -1,0.2 -2,0.4 -3,0.6 -1,0.2 -2,0.3 -3.1,0.5 l 0,0 0,0 c 0,0 0,0 0,0 18,-6.9 29.3,-20.2 37.5,-36.6 -4.7,3.2 -12.4,7.4 -21.6,9.5 -1.2,0.3 -2.5,0.5 -3.8,0.7 -0.3,0 -0.6,0.1 -1,0.1 l 0,0 0,0 c 0,0 0,0 0,0 0,0 0,0 0,0 l 0,0 c 6.2,-2.6 11.5,-5.5 16.1,-9 1,-0.7 1.9,-1.5 2.8,-2.3 1.4,-1.2 2.7,-2.5 4,-3.8 0.8,-0.9 1.6,-1.7 2.4,-2.6 1.8,-2.1 3.5,-4.4 5,-6.9 0.5,-0.8 1,-1.5 1.4,-2.3 0.6,-1.2 1.2,-2.3 1.7,-3.4 2.5,-5 4.5,-9.5 6.1,-13.5 0.8,-2 1.5,-3.8 2.1,-5.5 0.2,-0.7 0.5,-1.3 0.7,-2 0.6,-1.9 1.2,-3.6 1.6,-5.1 0.6,-2.2 1,-4 1.2,-5.3 l 0,0 0,0 c -0.6,0.5 -1.3,1 -2.1,1.4 -5.4,3.2 -14.7,6.2 -22.2,7.6 l 14.8,-1.6 -14.8,1.6 c -0.1,0 -0.2,0 -0.3,0.1 -0.7,0.1 -1.5,0.2 -2.3,0.4 0.1,-0.1 0.3,-0.1 0.4,-0.2 l -50.6,5.5 c 0.1,0.4 0,0.6 -0.1,0.7 z" />
      <linearGradient
         gradientTransform="matrix(0.4226,-0.9063,0.9063,0.4226,4226.9761,-6584.5938)"
         gradientUnits="userSpaceOnUse"
         id="linearGradient7336"
         y2="-765.07068"
         x2="-7732.125"
         y1="-765.07068"
         x1="-8271.8057">
        <stop
           offset="0.3233"
           style="stop-color:#9e2064;stop-opacity:1"
           id="stop7338" />
        <stop
           offset="0.63020003"
           style="stop-color:#c92037;stop-opacity:1"
           id="stop7340" />
        <stop
           offset="0.75139999"
           style="stop-color:#cd2335;stop-opacity:1"
           id="stop7342" />
        <stop
           offset="1"
           style="stop-color:#e97826;stop-opacity:1"
           id="stop7344" />
      </linearGradient>
      <path
         style="fill:url(#linearGradient7408)"
         id="path7346"
         d="m 245.4,88.4 c -4.5,6.9 -9.4,14.8 -14.7,23.6 -0.3,0.5 -0.6,0.9 -0.8,1.4 -4.6,7.7 -9.4,16.1 -14.5,25.4 -4.4,8 -9,16.5 -13.8,25.8 -4.2,8 -8.4,16.5 -12.9,25.5 l 50.6,-5.5 c 14.7,-6.8 21.3,-12.9 27.7,-21.8 1.7,-2.4 3.4,-5 5.1,-7.7 5.2,-8.1 10.3,-17 14.8,-25.9 4.4,-8.6 8.3,-17.1 11.2,-24.7 1.9,-4.9 3.4,-9.4 4.5,-13.4 0.9,-3.5 1.6,-6.8 2.2,-10 -19.6,3.3 -43.7,6.5 -59.4,7.3 z" />
      <path
         style="fill:#be202e"
         id="path7348"
         d="m 212.7,262.8 c -1,0.2 -2,0.3 -3.1,0.5 l 0,0 c 1,-0.2 2,-0.4 3.1,-0.5 z" />
      <path
         style="opacity:0.35;fill:#be202e"
         id="path7350"
         d="m 212.7,262.8 c -1,0.2 -2,0.3 -3.1,0.5 l 0,0 c 1,-0.2 2,-0.4 3.1,-0.5 z" />
      <linearGradient
         gradientTransform="matrix(0.4226,-0.9063,0.9063,0.4226,4226.9761,-6584.5938)"
         gradientUnits="userSpaceOnUse"
         id="linearGradient7352"
         y2="-745.68481"
         x2="-7698.647"
         y1="-745.68481"
         x1="-8238.3281">
        <stop
           offset="0.3233"
           style="stop-color:#9e2064;stop-opacity:1"
           id="stop7354" />
        <stop
           offset="0.63020003"
           style="stop-color:#c92037;stop-opacity:1"
           id="stop7356" />
        <stop
           offset="0.75139999"
           style="stop-color:#cd2335;stop-opacity:1"
           id="stop7358" />
        <stop
           offset="1"
           style="stop-color:#e97826;stop-opacity:1"
           id="stop7360" />
      </linearGradient>
      <path
         style="fill:url(#linearGradient7410)"
         id="path7362"
         d="m 212.7,262.8 c -1,0.2 -2,0.3 -3.1,0.5 l 0,0 c 1,-0.2 2,-0.4 3.1,-0.5 z" />
      <path
         style="fill:#be202e"
         id="path7364"
         d="m 220.7,236.9 c 0.3,0 0.6,-0.1 1,-0.1 -0.3,0 -0.6,0.1 -1,0.1 l 0,0 z" />
      <path
         style="opacity:0.35;fill:#be202e"
         id="path7366"
         d="m 220.7,236.9 c 0.3,0 0.6,-0.1 1,-0.1 -0.3,0 -0.6,0.1 -1,0.1 l 0,0 z" />
      <linearGradient
         gradientTransform="matrix(0.4226,-0.9063,0.9063,0.4226,4226.9761,-6584.5938)"
         gradientUnits="userSpaceOnUse"
         id="linearGradient7368"
         y2="-747.58557"
         x2="-7698.647"
         y1="-747.58557"
         x1="-8238.3281">
        <stop
           offset="0.3233"
           style="stop-color:#9e2064;stop-opacity:1"
           id="stop7370" />
        <stop
           offset="0.63020003"
           style="stop-color:#c92037;stop-opacity:1"
           id="stop7372" />
        <stop
           offset="0.75139999"
           style="stop-color:#cd2335;stop-opacity:1"
           id="stop7374" />
        <stop
           offset="1"
           style="stop-color:#e97826;stop-opacity:1"
           id="stop7376" />
      </linearGradient>
      <path
         style="fill:url(#linearGradient7412)"
         id="path7378"
         d="m 220.7,236.9 c 0.3,0 0.6,-0.1 1,-0.1 -0.3,0 -0.6,0.1 -1,0.1 l 0,0 z" />
      <path
         style="fill:#be202e"
         id="path7380"
         d="m 220.8,236.9 c 0,0 0,0 0,0 l 0,0 0,0 0,0 c 0,0 0,0 0,0 z" />
      <path
         style="opacity:0.35;fill:#be202e"
         id="path7382"
         d="m 220.8,236.9 c 0,0 0,0 0,0 l 0,0 0,0 0,0 c 0,0 0,0 0,0 z" />
      <linearGradient
         gradientTransform="matrix(0.4226,-0.9063,0.9063,0.4226,4226.9761,-6584.5938)"
         gradientUnits="userSpaceOnUse"
         id="linearGradient7384"
         y2="-747.9668"
         x2="-7815.856"
         y1="-747.9668"
         x1="-7935.1431">
        <stop
           offset="0.3233"
           style="stop-color:#9e2064;stop-opacity:1"
           id="stop7386" />
        <stop
           offset="0.63020003"
           style="stop-color:#c92037;stop-opacity:1"
           id="stop7388" />
        <stop
           offset="0.75139999"
           style="stop-color:#cd2335;stop-opacity:1"
           id="stop7390" />
        <stop
           offset="1"
           style="stop-color:#e97826;stop-opacity:1"
           id="stop7392" />
      </linearGradient>
      <path
         style="fill:url(#linearGradient7414)"
         id="path7394"
         d="m 220.8,236.9 c 0,0 0,0 0,0 l 0,0 0,0 0,0 c 0,0 0,0 0,0 z" />
    </g>
    <g
       id="text5492"
       style="font-style:italic;font-variant:normal;font-weight:bold;font-stretch:normal;font-size:100px;line-height:125%;font-family:'Alte Haas Grotesk';-inkscape-font-specification:'Sans Italic';letter-spacing:0px;word-spacing:0px;fill:#000000;fill-opacity:1;stroke:none">
      <path
         id="path4317"
         style=""
         d="m 23.541406,2.7166473 13.1,0 q 1.6,0 3.2,0 1.7,0 2.4,0.7 0.6,0.5 0.7,1.5 0.1,0.9 0.3,1.8 0.2,1.6 0.4,3.2999997 0.3,1.6 0.5,3.3 1.1,6.3 1.8,12.8 0.8,6.5 1.9,12.9 0.4,2 0.6,4.1 0.2,2.1 0.6,4.1 0.1,0.5 0.2,1 0.1,0.5 0.5,0.8 0.2,0.1 0.3,0.2 0.2,0.1 0.5,-0.1 0.8,-0.2 1.3,-1.2 0.5,-1 1,-1.8 1.2,-2.3 2.3,-4.5 1.1,-2.3 2.4,-4.6 3.2,-6.1 6.4,-12.2 3.3,-6.2 6.5,-12.4 0.8,-1.6 1.6,-3.0999997 0.9,-1.6 1.7,-3.2 0.4,-0.8 0.9,-1.6 0.5,-0.8 1.4,-1.3 0.7,-0.5 1.6,-0.5 1,0 2,0 l 6.5,0 6.9,0 q 0.9,0 1.8,0 1,0 1.4,0.4 1,0.6 0.6,2.3 -0.3,1.6 -0.6,3.3 l -3,14.9999997 -7.5,37.2 -1.7,8.7 q -0.2,1.1 -0.5,2.2 -0.3,1 -1,1.5 -0.7,0.5 -1.6,0.6 -0.9,0 -2,0 l -4.8,0 -2.7,0 q -0.7,-0.2 -1.3,-0.3 -0.5,-0.1 -0.8,-0.7 -0.3,-0.5 -0.2,-1.3 0.2,-0.8 0.4,-1.7 l 1,-5.1 5.2,-25.7 q 0.2,-1.4 0.4,-2.6 0.3,-1.3 0.5,-2.6 0.2,-0.8 0.4,-1.6 0.2,-0.9 0.2,-1.7 -0.1,-0.7 0,-1.5 0.2,-0.8 -0.3,-1 -0.3,-0.1 -0.5,0.1 -0.2,0.2 -0.3,0.3 -0.5,0.4 -0.9,1 -0.3,0.5 -0.6,1 -0.9,1.5 -1.8,3.1 -0.8,1.6 -1.8,3.2 -0.3,0.6 -0.6,1.2 -0.2,0.6 -0.6,1.2 -0.8,1.3 -1.5,2.6 -0.6,1.3 -1.4,2.6 -0.2,0.3 -0.3,0.7 -0.1,0.3 -0.3,0.6 -0.6,0.9 -1.1,1.9 -0.4,1 -1.1,2 -0.6,0.9 -1.1,1.9 -0.4,1 -1,2 -1.8,2.9 -3.3,5.9 -1.5,2.9 -3.1,5.8 -0.3,0.3 -0.4,0.6 0,0.3 -0.3,0.6 -0.7,1.1 -1.3,2.3 -0.5,1.1 -1.2,2.2 -0.4,0.7 -0.8,1.3 -0.4,0.6 -0.9,1 -0.6,0.4 -1.1,0.5 -0.5,0 -1.3,0.2 l -2.3,0 q -0.7,0 -1.7,0.1 -0.9,0 -1.9,0 -0.9,0 -1.7,-0.1 -0.8,-0.1 -1.1,-0.4 -0.7,-0.5 -0.9,-1.1 -0.1,-0.7 -0.4,-1.6 -0.2,-1.2 -0.3,-2.4 -0.1,-1.3 -0.4,-2.5 l -0.1,-0.9 q -0.3,-1.2 -0.4,-2.5 -0.1,-1.4 -0.4,-2.6 0,-0.3 0,-0.5 0,-0.3 -0.1,-0.6 -0.3,-0.9 -0.4,-1.9 -0.1,-1 -0.3,-2 0,-0.2 0,-0.5 0,-0.3 -0.1,-0.5 -0.2,-1 -0.3,-2 0,-1 -0.3,-2 -0.4,-2 -0.7,-4.2 -0.2,-2.2 -0.6,-4.3 -0.4,-2.5 -0.7,-5.1 -0.2,-2.6 -0.9,-5 -0.2,-1.4 -0.6,-2.3 -0.2,-0.2 -0.4,-0.3 -0.1,-0.2 -0.4,0 -0.6,0.3 -0.8,1 -0.1,0.7 -0.4,1.4 -0.4,0.7 -0.5,1.5 -0.1,0.7 -0.2,1.5 -0.2,1.1 -0.5,2.2 -0.2,1.1 -0.5,2.2 l -5.3,26.6 -1,4.9 q -0.2,0.8 -0.4,1.6 -0.1,0.8 -0.6,1.3 -0.5,0.7 -1.7,0.9 -0.7,0.2 -1.5,0.2 -0.8,-0.1 -1.6,-0.1 l -5.2,0 q -1.1000002,0 -2.0000002,0 -0.9,-0.1 -1.4,-0.6 -0.5,-0.5 -0.4,-1.5 0.2,-1.1 0.4,-2.2 l 1.7,-8.8 7.5000002,-37.2 2.8,-13.9999997 q 0.1,-0.6 0.2,-1.4 0.2,-0.9 0.4,-1.7 0.2,-0.8 0.4,-1.5 0.3,-0.8 0.5,-1.2 0.6,-0.7 1.8,-1 0.3,-0.1 0.4,0 0.2,0 0.5,-0.1 z" />
      <path
         id="path4319"
         style=""
         d="m 143.06641,70.016647 q 0,1.1 -0.2,2.2 -0.2,1.1 -1.3,1.5 -0.7,0.3 -1.5,0.3 -0.8,0 -1.6,0 l -5.4,0 q -0.9,0 -1.8,0 -0.8,-0.1 -1.2,-0.5 -0.6,-0.4 -0.8,-1.1 -0.2,-0.8 -0.7,-1.3 -0.2,-0.2 -0.5,-0.3 -0.2,-0.2 -0.7,-0.1 -0.6,0.2 -1.1,0.5 -0.5,0.3 -1,0.5 -0.6,0.4 -1.3,0.7 -0.6,0.3 -1.3,0.6 -1.4,0.6 -2.9,1 -1.5,0.3 -3,0.7 -0.8,0.2 -1.5,0.2 -0.6,0.1 -1.3,0.2 -0.3,0 -0.6,0 -0.3,0.1 -0.6,0.1 l -1.1,0 q -1.1,0.2 -2,0 l -0.9,0 q -0.7,-0.2 -1.4,-0.2 -0.6,0.1 -1.2,-0.1 -0.9,-0.2 -1.8,-0.4 -0.9,-0.1 -1.6,-0.5 -2.7,-1.1 -4.400004,-2.8 -1.7,-1.8 -2.3,-4.7 -0.2,-0.7 -0.3,-1.5 0,-0.8 -0.1,-1.7 -0.1,-0.5 0,-1 0.2,-0.5 0.2,-1 0,-0.3 0.1,-1.2 0.2,-1 0.4,-1.4 0.4,-1 0.5,-1.7 0.5,-1.1 1,-2.2 0.6,-1.2 1.3,-2.1 2.200004,-2.9 4.700004,-4.4 2.5,-1.5 6.2,-2.6 1.4,-0.5 2.8,-0.7 1.4,-0.2 2.9,-0.5 0.8,-0.2 1.7,-0.2 1,-0.1 1.9,-0.3 0.7,-0.2 1.4,-0.1 0.7,0 1.6,-0.2 0.7,-0.2 1.4,-0.2 0.7,0 1.5,-0.2 2.2,-0.5 4,-0.8 1.9,-0.4 3.6,-1.8 1,-0.9 1.6,-2 0.1,-0.3 0.1,-0.5 0,-0.2 0.1,-0.4 0.2,-0.2 0.2,-0.6 0.1,-0.4 0.2,-0.6 0,-0.4 0,-0.8 0,-0.4 0,-0.7 -0.4,-3 -3.4,-4.1 -0.8,-0.3 -2.1,-0.4 -1.2,-0.2 -2.5,-0.1 -1.3,0 -2.6,0.2 -1.2,0.2 -2.1,0.5 -0.7,0.2 -1.3,0.6 -0.6,0.3 -1.2,0.7 -0.6,0.4 -1.3,1.1 -0.7,0.7 -1,1.3 -0.7,1 -1.2,1.9 -0.5,0.9 -1.7,1.2 -0.8,0.2 -1.7,0.2 -0.9,0 -1.8,0 l -3.8,0 q -0.5,0 -1.1,0.1 -0.5,0 -0.8,-0.1 l -0.9,0 q -0.2,-0.1 -0.5,-0.1 -0.3,0 -0.5,-0.2 -0.7,-0.2 -0.8,-1.3 0,-0.5 0.2,-1 0.2,-0.5 0.4,-0.9 0.5,-1.1 1,-2 0.6,-1 1.2,-1.8 0.4,-0.5 0.8,-1 0.4,-0.5 0.8,-1 1,-1.1 2.4,-2.1 0.3,-0.1 0.7,-0.5 0.6,-0.4 1,-0.7 0.5,-0.3 1.1,-0.6 1.9,-1.1 3.9,-1.7 2.1,-0.7 4.2,-1.3 1.3,-0.3 2.6,-0.4 1.3,-0.1 2.7,-0.4 0.4,-0.1 1.2,0 0.8,0.1 1.1,-0.1 4.1,-0.1 7.7,0.3 3.7,0.4 6.5,1.5 2.9,1.1 4.7,3 1.9,1.8 2.5,4.7 0.3,1.7 0,3.9 -0.3,2.2 -0.8,4.5 l -4.5,22.3 q -0.3,1.9 -0.7,3.9 -0.4,1.9 -0.3,3.5 0,0.3 -0.1,0.7 0,0.3 0,0.6 z m -11.6,-15.4 q 0.2,-0.5 0.3,-1.1 0.1,-0.7 0.1,-1.2 0,-0.6 0.1,-1.1 0.1,-0.5 -0.3,-0.8 -0.4,-0.4 -1.4,-0.4 -0.4,0.1 -0.7,0.2 -0.3,0 -0.8,0.1 -0.7,0.2 -1.5,0.3 -0.8,0.1 -1.7,0.3 -0.3,0.1 -0.9,0.1 -1.4,0.3 -2.7,0.4 -1.3,0.1 -2.6,0.5 -0.8,0.2 -1.6,0.4 -0.7,0.1 -1.4,0.4 -2.3,0.9 -4.1,2.7 -1.8,1.8 -2.1,5 -0.1,1.7 0.6,2.8 0.4,1.1 1.7,1.8 1.3,0.6 2.9,0.9 1.6,0.3 3.4,0.2 1.9,-0.2 3.6,-0.7 2.8,-0.8 4.6,-2.5 1.9,-1.8 3.2,-4.4 0.3,-0.7 0.5,-1.4 0.2,-0.8 0.6,-1.6 l 0.2,-0.9 z" />
      <path
         id="path4321"
         style="fill:none;stroke:none"
         d="m 161.28828,22.416647 7.3,0 q 1.1,0 2.1,0.1 1,0 1.6,0.4 1,0.7 1,2.6 0.1,1.8 0.4,3.2 0.4,3.3 0.7,6.8 0.3,3.4 0.7,6.8 0.4,2.4 0.6,4.9 0.2,2.5 0.6,4.8 0.1,0.9 0.2,1.9 0.2,1 1.3,1 0.3,-0.2 0.4,-0.2 0.1,-0.1 0.3,-0.3 0.4,-0.5 0.7,-1 0.3,-0.5 0.6,-1.1 0.8,-1.1 1.2,-2.3 0.5,-1.2 1.2,-2.3 2.2,-4.2 4.3,-8.4 2.1,-4.3 4.3,-8.5 0.8,-1.2 1.3,-2.4 0.6,-1.3 1.2,-2.4 0.4,-0.8 0.8,-1.6 0.5,-0.8 1.2,-1.3 0.3,-0.2 1.4,-0.6 0.6,-0.2 1.3,-0.1 0.7,0 1.3,0 l 4.9,0 q 1.1,0 2,0.1 1,0 1.4,0.5 0.5,0.5 0.1,1.5 -0.3,0.9 -0.6,1.5 -0.8,1.4 -1.6,3 -0.8,1.5 -1.6,2.9 -0.4,0.7 -0.7,1.4 -0.3,0.6 -0.6,1.2 -0.7,1.1 -1.3,2.2 -0.6,1.1 -1.2,2.2 -0.1,0.3 -0.3,0.7 -0.1,0.3 -0.3,0.6 -0.9,1.5 -1.7,3.1 -0.8,1.5 -1.6,3 -1.7,3 -3.3,6.2 -1.6,3.1 -3.4,6.1 -0.8,1.4 -1.5,2.8 -0.6,1.3 -1.4,2.7 -0.3,0.5 -0.5,0.9 -0.2,0.3 -0.5,0.8 -0.6,1.1 -1.2,2.3 -0.5,1.1 -1.2,2.2 -0.7,1.1 -1.3,2.1 -0.6,0.9 -1.7,1.3 -0.9,0.3 -1.8,0.3 -0.9,-0.1 -1.8,-0.1 l -6.5,0 q -1.1,0 -2.2,0 -1,0 -1.7,-0.4 -0.6,-0.5 -0.8,-1.2 -0.1,-0.8 -0.2,-1.7 -0.3,-1.2 -0.5,-2.5 -0.1,-1.3 -0.3,-2.5 -0.1,-0.4 -0.1,-0.7 0,-0.4 -0.1,-0.9 -0.3,-1.2 -0.4,-2.5 -0.1,-1.3 -0.4,-2.6 -0.1,-0.5 -0.1,-0.9 0,-0.5 -0.1,-1 -0.2,-0.9 -0.3,-1.8 -0.1,-1 -0.3,-1.9 -0.1,-0.3 -0.1,-0.6 0.1,-0.4 0,-0.7 -0.2,-0.9 -0.3,-1.8 -0.1,-0.9 -0.3,-1.9 -0.4,-2.3 -0.7,-4.7 -0.3,-2.5 -0.6,-4.9 -0.6,-2.7 -0.9,-5.4 -0.2,-2.8 -0.7,-5.5 l -0.3,-2.7 q -0.1,-0.3 -0.1,-0.7 0.1,-0.5 0.4,-0.9 0.4,-0.7 1.6,-1 0.5,0 0.7,-0.1 z" />
      <path
         id="path4323"
         style=""
         d="m 259.04141,47.716647 q 0,0.8 -0.4,1.8 -0.4,1 -1,1.3 -0.5,0.4 -1.5,0.6 -1,0.1 -2.2,0.2 -1.1,0 -2.3,0 -1.1,-0.1 -2,-0.1 l -24.4,0 q -0.7,0 -1.4,0 -0.6,0 -1.1,0.2 -0.9,0.4 -1.2,0.8 -0.2,0.2 -0.6,0.8 -0.3,0.5 -0.3,1 0.1,0.6 0,1.2 0,0.5 0.1,1.1 0.3,2.4 1.1,4 0.9,1.5 2.6,2.7 0.7,0.5 1.5,0.7 0.9,0.1 1.7,0.4 0.8,0.2 2.1,0.3 1.4,0.1 2.5,-0.1 l 0.9,0 q 1,-0.2 1.9,-0.4 0.9,-0.3 1.8,-0.6 1.1,-0.5 2.5,-1.3 1.4,-0.8 2.2,-1.6 0.6,-0.7 1.3,-1.3 0.7,-0.7 1.5,-1 1.1,-0.5 2.6,-0.4 1.6,0 2.9,0 0.6,0 1.2,0 0.7,-0.1 1.2,0.1 l 1,0 q 0.9,0.2 1.3,0.5 0.3,0.2 0.2,0.9 0,0.7 -0.3,1.2 -0.8,1.4 -1.7,2.5 -0.8,1.1 -1.8,2.2 -2.8,3.3 -6,5.3 -3.2,2 -7.7,3.4 -1.2,0.4 -2.3,0.5 -1.1,0.1 -2.4,0.4 -0.4,0.1 -0.9,0 -0.4,0 -0.8,0.1 l -1.1,0 q -0.6,0.2 -1.2,0.1 -0.6,0 -1.1,-0.1 -0.8,-0.1 -1.4,0 -0.6,0.1 -1.3,-0.1 -0.5,-0.2 -1.1,-0.2 -0.6,0 -1,-0.2 -1.1,-0.2 -2.2,-0.5 -1,-0.2 -1.8,-0.7 -1,-0.4 -1.9,-0.7 -0.9,-0.4 -1.6,-0.9 -2.8,-2 -4.8,-4.6 -1.9,-2.7 -2.8,-6.2 -0.3,-1.1 -0.4,-2.2 0,-1.2 -0.3,-2.4 0,-0.4 0,-0.7 0.1,-0.4 0.1,-0.8 -0.1,-1.2 0,-2.6 0.2,-1.4 0.4,-2.8 0.1,-0.5 0.1,-1.1 0.1,-0.6 0.3,-1.1 l 0.3,-1.2 0.8,-2.4 q 0.7,-1.7 1.3,-3.3 0.6,-1.6 1.5,-3 6.4,-10.4 17.6,-14.7 1.5,-0.6 3,-0.8 1.5,-0.3 3.2,-0.7 0.8,-0.1 1.5,-0.1 0.7,0 1.5,-0.1 5.1,-0.1 8.5,1.2 3.4,1.2 5.9,3.2 0.8,0.6 1.5,1.4 0.8,0.7 1.3,1.5 0.2,0.5 0.7,0.8 0.6,1.1 1,2.3 0.5,1.1 1.1,2.3 0.3,0.9 0.4,1.9 0.2,0.9 0.4,2 0.2,1.3 0.2,2.7 0.1,1.4 0.2,2.8 0,0.8 -0.3,1.8 -0.2,0.9 -0.1,1.7 l -0.2,1.1 z m -13.9,-5.9 q 0.9,-1 0.6,-2.4 -0.2,-1.5 -0.3,-2.2 -0.9,-2.7 -2.9,-4.1 -2,-1.5 -6.1,-1.6 -0.3,0.2 -0.7,0.1 -0.4,-0.1 -0.7,0 -0.6,0.2 -1.2,0.3 -0.6,0 -1.1,0.2 -4.7,1.4 -7.6,5.5 -0.3,0.4 -0.7,1.1 -0.4,0.6 -0.6,1.3 -0.2,0.6 -0.2,1.2 0,0.6 0.5,1 0.7,0.5 2.1,0.5 1.4,0 2.7,0 l 11.1,0 q 1.4,0 2.9,0 1.6,-0.1 2.2,-0.9 z" />
      <path
         id="path4325"
         style=""
         d="m 302.16328,21.116647 q 6,-0.2 9.6,1.7 3.7,1.9 5.2,5.6 0.5,1.1 0.6,2.4 0.2,1.2 0.3,2.5 0.1,0.8 0,1.5 -0.1,0.7 0,1.4 -0.2,0.6 -0.1,0.8 -0.1,1.4 -0.4,2.9 -0.3,1.5 -0.6,2.9 l -1.7,8.9 -3.3,16.2 q -0.4,1.9 -0.8,3.7 -0.4,1.7 -1.9,2.2 -0.6,0.2 -1.4,0.2 -0.8,0 -1.6,0 l -5.4,0 q -1.2,0 -2.1,-0.1 -0.9,-0.2 -1.3,-0.9 -0.3,-0.6 -0.2,-1.5 0.2,-1 0.4,-2.1 l 1.4,-7 3,-14.9 q 0.7,-3.7 1,-6.8 0.4,-3.2 -0.7,-5.4 -1,-2 -3.5,-2.8 -0.5,-0.2 -1.1,-0.2 -0.5,0 -1,-0.2 -0.5,-0.1 -1.3,0 -0.7,0 -1.1,0.1 -0.5,0.1 -0.8,0.1 -0.3,0 -0.6,0.1 -2.4,0.6 -4,1.6 -3.7,2.3 -5.2,6.7 -1.4,4.4 -2.5,9.9 l -2.5,12.5 -1.2,6.1 q -0.2,0.9 -0.4,1.8 -0.2,0.9 -0.6,1.5 -0.7,1.1 -1.9,1.3 -1.1,0.2 -2.7,0.2 l -5,0 q -1.1,0 -2.2,-0.1 -1.1,-0.1 -1.4,-0.7 -0.6,-0.9 -0.2,-2.6 0.4,-1.7 0.7,-3.2 l 2.7,-13.6 4.4,-22 1.1,-5.1 q 0.2,-1.1 0.4,-2 0.2,-0.9 0.9,-1.5 0.2,-0.3 0.7,-0.4 0.5,-0.2 1,-0.3 l 0.5,0 q 0.5,-0.1 1,-0.1 0.6,0 1.1,0 l 4.2,0 q 0.8,0 1.5,0.1 0.8,0 1.4,0.2 0.6,0.3 0.7,0.9 0.2,0.6 0.2,1.4 0,0.4 -0.1,0.7 -0.1,0.3 0,0.6 0.1,0.5 0.2,0.6 0.2,0.1 0.5,0.3 1,0.1 1.9,-0.7 0.9,-0.9 1.8,-1.4 3.1,-2 6.6,-3.2 1,-0.3 1.9,-0.4 1,-0.1 2.2,-0.3 0.3,-0.1 0.9,0 0.6,0 0.8,-0.1 z" />
    </g>
    <g
       id="text9112"
       style="font-style:italic;font-variant:normal;font-weight:bold;font-stretch:normal;font-size:20px;line-height:125%;font-family:'Alte Haas Grotesk';-inkscape-font-specification:'Sans Italic';letter-spacing:0px;word-spacing:0px;fill:#000000;fill-opacity:1;stroke:none">
      <path
         id="path4328"
         style=""
         d="m 326.92482,21.038048 q 0.1,0.08 0.1,0.34 0,0.26 -0.1,0.48 l -0.02,0.16 q -0.08,0.18 -0.18,0.3 -0.08,0.1 -0.26,0.16 -0.18,0.04 -0.5,0.04 -0.32,-0.02 -0.54,-0.02 l -0.3,0 q -0.1,0.04 -0.18,0.02 -0.08,-0.02 -0.16,0.02 -0.22,0.08 -0.38,0.38 -0.06,0.1 -0.08,0.24 -0.02,0.14 -0.04,0.28 l -0.96,4.72 q -0.02,0.1 -0.02,0.18 0,0.08 -0.04,0.16 l -0.04,0.16 q -0.02,0.06 -0.04,0.12 0,0.06 -0.06,0.1 -0.08,0.16 -0.26,0.22 -0.1,0.04 -0.24,0.04 -0.12,0 -0.28,0 -0.28,0 -0.62,0 -0.34,0 -0.46,-0.16 -0.06,-0.12 -0.04,-0.28 0.04,-0.16 0.08,-0.36 l 0.94,-4.72 q 0.02,-0.1 0.04,-0.2 0.04,-0.1 0.02,-0.18 l 0.04,-0.28 q 0.02,-0.32 -0.2,-0.4 -0.18,-0.1 -0.54,-0.08 -0.34,0.02 -0.6,0.02 -0.1,0 -0.2,0.02 -0.08,0 -0.14,-0.02 -0.08,-0.04 -0.14,-0.02 -0.06,0 -0.12,-0.02 -0.2,-0.1 -0.18,-0.32 0.02,-0.22 0.08,-0.52 0.02,-0.12 0.04,-0.22 0.04,-0.1 0.1,-0.2 0.06,-0.1 0.16,-0.14 0.1,-0.06 0.2,-0.1 0.06,-0.02 0.08,0 0.04,0 0.1,-0.02 l 5.34,0 q 0.18,0 0.34,0.02 0.16,0 0.26,0.08 z m 10.64,0.04 q 0.08,0.14 0.04,0.32 -0.02,0.18 -0.06,0.4 l -1.3,6.5 q -0.04,0.22 -0.1,0.4 -0.04,0.16 -0.14,0.28 -0.14,0.16 -0.44,0.16 -0.28,0 -0.56,0 -0.12,0 -0.26,0.02 -0.12,0 -0.2,-0.04 -0.18,-0.06 -0.22,-0.18 -0.02,-0.12 -0.02,-0.3 l 0.06,-0.34 q 0,-0.06 0.02,-0.14 0.02,-0.1 0.04,-0.18 l 0.52,-2.54 q 0.04,-0.24 0.08,-0.48 0.06,-0.24 0.06,-0.44 -0.02,-0.1 -0.02,-0.16 0,-0.08 -0.06,-0.12 -0.02,-0.02 -0.06,-0.02 -0.06,0.04 -0.14,0.08 -0.2,0.24 -0.36,0.54 -0.16,0.3 -0.34,0.58 -0.36,0.62 -0.7,1.26 -0.34,0.62 -0.7,1.22 -0.16,0.28 -0.34,0.64 -0.18,0.34 -0.42,0.5 -0.12,0.08 -0.28,0.1 -0.16,0 -0.34,0 l -0.3,0 q -0.1,-0.04 -0.18,-0.06 -0.08,-0.04 -0.14,-0.1 -0.06,-0.06 -0.08,-0.16 -0.02,-0.1 -0.04,-0.2 -0.06,-0.18 -0.08,-0.36 -0.02,-0.2 -0.06,-0.4 -0.12,-0.58 -0.2,-1.18 -0.08,-0.62 -0.2,-1.2 -0.06,-0.34 -0.12,-0.68 -0.04,-0.34 -0.22,-0.58 -0.04,0 -0.06,0.02 -0.02,0 -0.04,0 -0.1,0.08 -0.14,0.18 -0.06,0.1 -0.08,0.2 0,0.08 -0.04,0.18 l -0.06,0.34 q -0.04,0.08 -0.06,0.16 -0.02,0.08 -0.02,0.14 l -0.48,2.32 q -0.04,0.26 -0.12,0.64 -0.06,0.36 -0.18,0.52 -0.06,0.04 -0.12,0.1 -0.04,0.04 -0.1,0.06 -0.1,0.04 -0.24,0.06 -0.12,0 -0.28,0 -0.26,0 -0.52,0 -0.26,0 -0.4,-0.12 -0.1,-0.08 -0.1,-0.26 0.02,-0.18 0.06,-0.4 l 1.32,-6.6 q 0.04,-0.18 0.08,-0.34 0.06,-0.18 0.14,-0.28 0.1,-0.14 0.32,-0.18 0.06,-0.02 0.08,0 0.04,0 0.1,-0.02 l 1.32,0 q 0.22,0 0.42,0 0.2,0 0.3,0.1 0.16,0.12 0.18,0.38 0.04,0.26 0.1,0.48 0.1,0.56 0.2,1.14 0.1,0.56 0.2,1.14 0.08,0.3 0.12,0.62 0.06,0.32 0.12,0.62 0.04,0.12 0.06,0.26 0.04,0.12 0.16,0.16 0.1,0.04 0.18,-0.04 0.1,-0.08 0.14,-0.14 0.2,-0.22 0.32,-0.46 0.14,-0.26 0.28,-0.5 0.42,-0.66 0.78,-1.34 0.38,-0.7 0.8,-1.36 0.16,-0.28 0.32,-0.58 0.18,-0.32 0.48,-0.44 0.14,-0.04 0.28,-0.04 0.16,0 0.32,0 l 0.88,0 q 0.12,0 0.24,0 0.12,-0.02 0.22,0 l 0.1,0 q 0.08,0.04 0.16,0.06 0.1,0.02 0.12,0.08 z" />
    </g>
    <g
       id="g4701"
       transform="matrix(0.13272567,0.01947468,-0.01947468,0.13272567,170.19741,12.570146)">
      <linearGradient
         gradientTransform="matrix(0.4226,-0.9063,0.9063,0.4226,4226.9761,-6584.5938)"
         gradientUnits="userSpaceOnUse"
         id="SVGID_1_"
         y2="-714.90741"
         x2="-7633.1528"
         y1="-803.36011"
         x1="-7708.7969">
        <stop
           offset="0"
           style="stop-color:#f69923;stop-opacity:1"
           id="stop4704" />
        <stop
           offset="0.3123"
           style="stop-color:#f79a23;stop-opacity:1"
           id="stop4706" />
        <stop
           offset="0.83829999"
           style="stop-color:#e97826;stop-opacity:1"
           id="stop4708" />
      </linearGradient>
      <path
         style="fill:url(#linearGradient5344)"
         id="path4710"
         d="m 267.1,19.6 c -8.4,5 -22.4,19 -39,39.3 l 15.3,28.9 c 10.7,-15.4 21.7,-29.2 32.7,-41 0.8,-0.9 1.3,-1.4 1.3,-1.4 -0.4,0.5 -0.9,0.9 -1.3,1.4 -3.6,3.9 -14.4,16.5 -30.7,41.6 15.7,-0.8 39.8,-4 59.5,-7.4 5.9,-32.8 -5.7,-47.8 -5.7,-47.8 0,0 -14.8,-23.9 -32.1,-13.6 z" />
      <path
         style="fill:none"
         id="path4712"
         d="m 241.1,184.4 c 0.1,0 0.2,0 0.3,-0.1 l -2.2,0.2 c -0.1,0.1 -0.3,0.1 -0.4,0.2 0.8,-0.1 1.6,-0.2 2.3,-0.3 z" />
      <path
         style="fill:none"
         id="path4714"
         d="m 225.5,236.1 c -1.2,0.3 -2.5,0.5 -3.8,0.7 1.3,-0.2 2.6,-0.4 3.8,-0.7 z" />
      <path
         style="fill:none"
         id="path4716"
         d="m 119.3,352.2 c 0.2,-0.4 0.3,-0.9 0.5,-1.3 3.4,-8.9 6.7,-17.5 10,-26 3.7,-9.4 7.4,-18.6 11,-27.5 3.8,-9.3 7.6,-18.4 11.3,-27.1 3.9,-9.2 7.7,-18 11.5,-26.5 3.1,-6.9 6.1,-13.6 9.1,-20.1 1,-2.2 2,-4.3 3,-6.4 2,-4.2 3.9,-8.3 5.8,-12.3 1.8,-3.7 3.5,-7.3 5.2,-10.9 0.6,-1.2 1.2,-2.4 1.7,-3.5 0.1,-0.2 0.2,-0.4 0.3,-0.6 l -1.9,0.2 -1.5,-2.9 c -0.1,0.3 -0.3,0.6 -0.4,0.9 -2.7,5.3 -5.4,10.7 -8,16.2 -1.5,3.1 -3,6.3 -4.6,9.5 -4.2,8.8 -8.3,17.6 -12.3,26.6 -4.1,9 -8.1,18.1 -12,27.1 -3.9,8.9 -7.6,17.8 -11.3,26.7 -3.7,8.9 -7.3,17.7 -10.8,26.5 -3.7,9.2 -7.3,18.3 -10.7,27.3 -0.8,2 -1.6,4.1 -2.3,6.1 -2.8,7.3 -5.5,14.4 -8.1,21.5 l 2.4,4.7 2.1,-0.2 c 0.1,-0.2 0.2,-0.4 0.2,-0.6 3.1,-9.5 6.5,-18.6 9.8,-27.4 z" />
      <path
         style="fill:none"
         id="path4718"
         d="m 220.7,236.9 0,0 c 0,0 0,0 0,0 0,0 0,0 0,0 z" />
      <path
         style="fill:#be202e"
         id="path4720"
         d="m 215.6,262.2 c -2,0.4 -4,0.7 -6,1 0,0 0,0 0,0 1,-0.1 2.1,-0.3 3.1,-0.5 1,-0.1 2,-0.3 2.9,-0.5 z" />
      <path
         style="opacity:0.35;fill:#be202e"
         id="path4722"
         d="m 215.6,262.2 c -2,0.4 -4,0.7 -6,1 0,0 0,0 0,0 1,-0.1 2.1,-0.3 3.1,-0.5 1,-0.1 2,-0.3 2.9,-0.5 z" />
      <path
         style="fill:#be202e"
         id="path4724"
         d="m 220.8,236.9 c 0,0 0,0 0,0 -0.1,0 -0.1,0 0,0 0.3,0 0.6,-0.1 0.9,-0.1 1.3,-0.2 2.6,-0.4 3.8,-0.7 -1.5,0.3 -3.1,0.5 -4.7,0.8 l 0,0 0,0 z" />
      <path
         style="opacity:0.35;fill:#be202e"
         id="path4726"
         d="m 220.8,236.9 c 0,0 0,0 0,0 -0.1,0 -0.1,0 0,0 0.3,0 0.6,-0.1 0.9,-0.1 1.3,-0.2 2.6,-0.4 3.8,-0.7 -1.5,0.3 -3.1,0.5 -4.7,0.8 l 0,0 0,0 z" />
      <linearGradient
         gradientTransform="matrix(0.4226,-0.9063,0.9063,0.4226,4226.9761,-6584.5938)"
         gradientUnits="userSpaceOnUse"
         id="SVGID_2_"
         y2="-813.12323"
         x2="-7728.9585"
         y1="-813.12323"
         x1="-8268.6387">
        <stop
           offset="0.3233"
           style="stop-color:#9e2064;stop-opacity:1"
           id="stop4729" />
        <stop
           offset="0.63020003"
           style="stop-color:#c92037;stop-opacity:1"
           id="stop4731" />
        <stop
           offset="0.75139999"
           style="stop-color:#cd2335;stop-opacity:1"
           id="stop4733" />
        <stop
           offset="1"
           style="stop-color:#e97826;stop-opacity:1"
           id="stop4735" />
      </linearGradient>
      <path
         style="fill:url(#linearGradient5346)"
         id="path4737"
         d="m 198.2,162.4 c 4.7,-8.7 9.4,-17.2 14.1,-25.5 4.9,-8.6 9.9,-16.9 15,-25 0.3,-0.5 0.6,-1 0.9,-1.4 5,-7.9 10,-15.5 15.1,-22.8 L 228,58.9 c -1.1,1.4 -2.3,2.8 -3.5,4.3 -4.4,5.5 -9,11.4 -13.7,17.7 -5.3,7.1 -10.7,14.6 -16.3,22.5 -5.1,7.3 -10.3,15 -15.5,22.9 -4.4,6.8 -8.8,13.7 -13.2,20.8 -0.2,0.3 -0.3,0.5 -0.5,0.8 l 19.9,39.3 c 4.4,-8.3 8.7,-16.6 13,-24.8 z" />
      <linearGradient
         gradientTransform="matrix(0.4226,-0.9063,0.9063,0.4226,4226.9761,-6584.5938)"
         gradientUnits="userSpaceOnUse"
         id="SVGID_3_"
         y2="-758.99402"
         x2="-7881.895"
         y1="-758.99402"
         x1="-8203.4922">
        <stop
           offset="0"
           style="stop-color:#282662;stop-opacity:1"
           id="stop4740" />
        <stop
           offset="0.0954839"
           style="stop-color:#662e8d;stop-opacity:1"
           id="stop4742" />
        <stop
           offset="0.78820002"
           style="stop-color:#9f2064;stop-opacity:1"
           id="stop4744" />
        <stop
           offset="0.94870001"
           style="stop-color:#cd2032;stop-opacity:1"
           id="stop4746" />
      </linearGradient>
      <path
         style="fill:url(#linearGradient5348)"
         id="path4748"
         d="m 107.5,384.1 c -2.6,7.2 -5.3,14.6 -7.9,22.2 0,0.1 -0.1,0.2 -0.1,0.3 -0.4,1.1 -0.8,2.1 -1.1,3.2 -1.8,5.1 -3.3,9.7 -6.9,20.1 5.9,2.7 10.6,9.7 15,17.7 -0.5,-8.3 -3.9,-16.1 -10.4,-22.1 28.9,1.3 53.9,-6 66.7,-27.2 1.1,-1.9 2.2,-3.9 3.2,-6 -5.9,7.4 -13.1,10.6 -26.8,9.8 0,0 -0.1,0 -0.1,0 0,0 0.1,0 0.1,0 20.1,-9 30.2,-17.7 39.1,-32 2.1,-3.4 4.2,-7.1 6.3,-11.2 -17.6,18.1 -38,23.2 -59.5,19.3 L 109,380 c -0.5,1.4 -1,2.7 -1.5,4.1 z" />
      <linearGradient
         gradientTransform="matrix(0.4226,-0.9063,0.9063,0.4226,4226.9761,-6584.5938)"
         gradientUnits="userSpaceOnUse"
         id="SVGID_4_"
         y2="-818.15222"
         x2="-7698.647"
         y1="-818.15222"
         x1="-8238.3281">
        <stop
           offset="0.3233"
           style="stop-color:#9e2064;stop-opacity:1"
           id="stop4751" />
        <stop
           offset="0.63020003"
           style="stop-color:#c92037;stop-opacity:1"
           id="stop4753" />
        <stop
           offset="0.75139999"
           style="stop-color:#cd2335;stop-opacity:1"
           id="stop4755" />
        <stop
           offset="1"
           style="stop-color:#e97826;stop-opacity:1"
           id="stop4757" />
      </linearGradient>
      <path
         style="fill:url(#linearGradient5350)"
         id="path4759"
         d="m 115,348 c 3.5,-9 7.1,-18.1 10.7,-27.3 3.5,-8.8 7.1,-17.6 10.8,-26.5 3.7,-8.9 7.5,-17.8 11.3,-26.7 3.9,-9.1 7.9,-18.1 12,-27.1 4,-8.9 8.2,-17.8 12.3,-26.6 1.5,-3.2 3,-6.3 4.6,-9.5 2.6,-5.4 5.3,-10.8 8,-16.2 0.1,-0.3 0.3,-0.6 0.4,-0.9 L 165.4,148 c -0.3,0.5 -0.6,1.1 -1,1.6 -4.6,7.6 -9.3,15.3 -13.8,23.2 -4.6,8 -9.1,16.1 -13.5,24.4 -3.7,7 -7.3,14 -10.9,21.1 -0.7,1.4 -1.4,2.9 -2.1,4.3 -4.3,8.9 -8.3,17.6 -11.8,25.9 -4,9.4 -7.5,18.4 -10.6,26.9 -2,5.6 -3.9,11 -5.6,16.2 -1.4,4.4 -2.7,8.9 -4,13.3 -3,10.4 -5.5,20.8 -7.6,31.2 l 20,39.5 c 2.6,-7.1 5.4,-14.2 8.1,-21.5 0.8,-2 1.6,-4 2.4,-6.1 z" />
      <linearGradient
         gradientTransform="matrix(0.4226,-0.9063,0.9063,0.4226,4226.9761,-6584.5938)"
         gradientUnits="userSpaceOnUse"
         id="SVGID_5_"
         y2="-810.85059"
         x2="-7915.3501"
         y1="-810.85059"
         x1="-8198.9678">
        <stop
           offset="0"
           style="stop-color:#282662;stop-opacity:1"
           id="stop4762" />
        <stop
           offset="0.0954839"
           style="stop-color:#662e8d;stop-opacity:1"
           id="stop4764" />
        <stop
           offset="0.78820002"
           style="stop-color:#9f2064;stop-opacity:1"
           id="stop4766" />
        <stop
           offset="0.94870001"
           style="stop-color:#cd2032;stop-opacity:1"
           id="stop4768" />
      </linearGradient>
      <path
         style="fill:url(#linearGradient5352)"
         id="path4770"
         d="m 84.2,337.5 c -2.5,12.6 -4.3,25.2 -5.2,37.8 0,0.4 -0.1,0.9 -0.1,1.3 -6.2,-10 -23,-19.8 -22.9,-19.7 12,17.4 21.1,34.6 22.4,51.5 -6.4,1.3 -15.2,-0.6 -25.3,-4.3 10.6,9.7 18.5,12.4 21.6,13.1 -9.7,0.6 -19.8,7.3 -30,15 14.9,-6.1 27,-8.5 35.6,-6.5 -13.7,38.7 -27.4,81.5 -41.1,126.9 4.2,-1.2 6.7,-4.1 8.1,-7.9 2.4,-8.2 18.7,-62.2 44.1,-133.1 0.7,-2 1.5,-4 2.2,-6.1 0.2,-0.6 0.4,-1.1 0.6,-1.7 2.7,-7.4 5.5,-15 8.4,-22.8 0.7,-1.8 1.3,-3.5 2,-5.3 0,0 0,-0.1 0,-0.1 l -20,-39.5 c -0.2,0.5 -0.3,0.9 -0.4,1.4 z" />
      <linearGradient
         gradientTransform="matrix(0.4226,-0.9063,0.9063,0.4226,4226.9761,-6584.5938)"
         gradientUnits="userSpaceOnUse"
         id="SVGID_6_"
         y2="-762.29712"
         x2="-7698.647"
         y1="-762.29712"
         x1="-8238.3281">
        <stop
           offset="0.3233"
           style="stop-color:#9e2064;stop-opacity:1"
           id="stop4773" />
        <stop
           offset="0.63020003"
           style="stop-color:#c92037;stop-opacity:1"
           id="stop4775" />
        <stop
           offset="0.75139999"
           style="stop-color:#cd2335;stop-opacity:1"
           id="stop4777" />
        <stop
           offset="1"
           style="stop-color:#e97826;stop-opacity:1"
           id="stop4779" />
      </linearGradient>
      <path
         style="fill:url(#linearGradient5354)"
         id="path4781"
         d="m 188.4,190.6 c -0.6,1.2 -1.1,2.3 -1.7,3.5 -1.7,3.6 -3.5,7.2 -5.2,10.9 -1.9,4 -3.8,8.1 -5.8,12.3 -1,2.1 -2,4.2 -3,6.4 -3,6.5 -6,13.2 -9.1,20.1 -3.8,8.5 -7.6,17.3 -11.5,26.5 -3.7,8.7 -7.5,17.8 -11.3,27.1 -3.6,8.9 -7.3,18 -11,27.5 -3.3,8.4 -6.6,17.1 -10,26 -0.2,0.4 -0.3,0.9 -0.5,1.3 -3.3,8.8 -6.7,17.9 -10.1,27.2 -0.1,0.2 -0.2,0.4 -0.2,0.6 l 16.1,-1.8 c -0.3,-0.1 -0.6,-0.1 -1,-0.2 19.3,-2.4 44.9,-16.8 61.4,-34.6 7.6,-8.2 14.5,-17.8 20.9,-29.1 4.8,-8.4 9.2,-17.7 13.5,-28.1 3.7,-9 7.3,-18.8 10.7,-29.4 -4.4,2.3 -9.5,4 -15.1,5.2 -1,0.2 -2,0.4 -3,0.6 -1,0.2 -2,0.3 -3.1,0.5 l 0,0 0,0 c 0,0 0,0 0,0 18,-6.9 29.3,-20.2 37.5,-36.6 -4.7,3.2 -12.4,7.4 -21.6,9.5 -1.2,0.3 -2.5,0.5 -3.8,0.7 -0.3,0 -0.6,0.1 -1,0.1 l 0,0 0,0 c 0,0 0,0 0,0 0,0 0,0 0,0 l 0,0 c 6.2,-2.6 11.5,-5.5 16.1,-9 1,-0.7 1.9,-1.5 2.8,-2.3 1.4,-1.2 2.7,-2.5 4,-3.8 0.8,-0.9 1.6,-1.7 2.4,-2.6 1.8,-2.1 3.5,-4.4 5,-6.9 0.5,-0.8 1,-1.5 1.4,-2.3 0.6,-1.2 1.2,-2.3 1.7,-3.4 2.5,-5 4.5,-9.5 6.1,-13.5 0.8,-2 1.5,-3.8 2.1,-5.5 0.2,-0.7 0.5,-1.3 0.7,-2 0.6,-1.9 1.2,-3.6 1.6,-5.1 0.6,-2.2 1,-4 1.2,-5.3 l 0,0 0,0 c -0.6,0.5 -1.3,1 -2.1,1.4 -5.4,3.2 -14.7,6.2 -22.2,7.6 l 14.8,-1.6 -14.8,1.6 c -0.1,0 -0.2,0 -0.3,0.1 -0.7,0.1 -1.5,0.2 -2.3,0.4 0.1,-0.1 0.3,-0.1 0.4,-0.2 l -50.6,5.5 c 0.1,0.4 0,0.6 -0.1,0.7 z" />
      <linearGradient
         gradientTransform="matrix(0.4226,-0.9063,0.9063,0.4226,4226.9761,-6584.5938)"
         gradientUnits="userSpaceOnUse"
         id="SVGID_7_"
         y2="-765.07068"
         x2="-7732.125"
         y1="-765.07068"
         x1="-8271.8057">
        <stop
           offset="0.3233"
           style="stop-color:#9e2064;stop-opacity:1"
           id="stop4784" />
        <stop
           offset="0.63020003"
           style="stop-color:#c92037;stop-opacity:1"
           id="stop4786" />
        <stop
           offset="0.75139999"
           style="stop-color:#cd2335;stop-opacity:1"
           id="stop4788" />
        <stop
           offset="1"
           style="stop-color:#e97826;stop-opacity:1"
           id="stop4790" />
      </linearGradient>
      <path
         style="fill:url(#linearGradient5356)"
         id="path4792"
         d="m 245.4,88.4 c -4.5,6.9 -9.4,14.8 -14.7,23.6 -0.3,0.5 -0.6,0.9 -0.8,1.4 -4.6,7.7 -9.4,16.1 -14.5,25.4 -4.4,8 -9,16.5 -13.8,25.8 -4.2,8 -8.4,16.5 -12.9,25.5 l 50.6,-5.5 c 14.7,-6.8 21.3,-12.9 27.7,-21.8 1.7,-2.4 3.4,-5 5.1,-7.7 5.2,-8.1 10.3,-17 14.8,-25.9 4.4,-8.6 8.3,-17.1 11.2,-24.7 1.9,-4.9 3.4,-9.4 4.5,-13.4 0.9,-3.5 1.6,-6.8 2.2,-10 -19.6,3.3 -43.7,6.5 -59.4,7.3 z" />
      <path
         style="fill:#be202e"
         id="path4794"
         d="m 212.7,262.8 c -1,0.2 -2,0.3 -3.1,0.5 l 0,0 c 1,-0.2 2,-0.4 3.1,-0.5 z" />
      <path
         style="opacity:0.35;fill:#be202e"
         id="path4796"
         d="m 212.7,262.8 c -1,0.2 -2,0.3 -3.1,0.5 l 0,0 c 1,-0.2 2,-0.4 3.1,-0.5 z" />
      <linearGradient
         gradientTransform="matrix(0.4226,-0.9063,0.9063,0.4226,4226.9761,-6584.5938)"
         gradientUnits="userSpaceOnUse"
         id="SVGID_8_"
         y2="-745.68481"
         x2="-7698.647"
         y1="-745.68481"
         x1="-8238.3281">
        <stop
           offset="0.3233"
           style="stop-color:#9e2064;stop-opacity:1"
           id="stop4799" />
        <stop
           offset="0.63020003"
           style="stop-color:#c92037;stop-opacity:1"
           id="stop4801" />
        <stop
           offset="0.75139999"
           style="stop-color:#cd2335;stop-opacity:1"
           id="stop4803" />
        <stop
           offset="1"
           style="stop-color:#e97826;stop-opacity:1"
           id="stop4805" />
      </linearGradient>
      <path
         style="fill:url(#linearGradient5358)"
         id="path4807"
         d="m 212.7,262.8 c -1,0.2 -2,0.3 -3.1,0.5 l 0,0 c 1,-0.2 2,-0.4 3.1,-0.5 z" />
      <path
         style="fill:#be202e"
         id="path4809"
         d="m 220.7,236.9 c 0.3,0 0.6,-0.1 1,-0.1 -0.3,0 -0.6,0.1 -1,0.1 l 0,0 z" />
      <path
         style="opacity:0.35;fill:#be202e"
         id="path4811"
         d="m 220.7,236.9 c 0.3,0 0.6,-0.1 1,-0.1 -0.3,0 -0.6,0.1 -1,0.1 l 0,0 z" />
      <linearGradient
         gradientTransform="matrix(0.4226,-0.9063,0.9063,0.4226,4226.9761,-6584.5938)"
         gradientUnits="userSpaceOnUse"
         id="SVGID_9_"
         y2="-747.58557"
         x2="-7698.647"
         y1="-747.58557"
         x1="-8238.3281">
        <stop
           offset="0.3233"
           style="stop-color:#9e2064;stop-opacity:1"
           id="stop4814" />
        <stop
           offset="0.63020003"
           style="stop-color:#c92037;stop-opacity:1"
           id="stop4816" />
        <stop
           offset="0.75139999"
           style="stop-color:#cd2335;stop-opacity:1"
           id="stop4818" />
        <stop
           offset="1"
           style="stop-color:#e97826;stop-opacity:1"
           id="stop4820" />
      </linearGradient>
      <path
         style="fill:url(#linearGradient5360)"
         id="path4822"
         d="m 220.7,236.9 c 0.3,0 0.6,-0.1 1,-0.1 -0.3,0 -0.6,0.1 -1,0.1 l 0,0 z" />
      <path
         style="fill:#be202e"
         id="path4824"
         d="m 220.8,236.9 c 0,0 0,0 0,0 l 0,0 0,0 0,0 c 0,0 0,0 0,0 z" />
      <path
         style="opacity:0.35;fill:#be202e"
         id="path4826"
         d="m 220.8,236.9 c 0,0 0,0 0,0 l 0,0 0,0 0,0 c 0,0 0,0 0,0 z" />
      <linearGradient
         gradientTransform="matrix(0.4226,-0.9063,0.9063,0.4226,4226.9761,-6584.5938)"
         gradientUnits="userSpaceOnUse"
         id="SVGID_10_"
         y2="-747.9668"
         x2="-7815.856"
         y1="-747.9668"
         x1="-7935.1431">
        <stop
           offset="0.3233"
           style="stop-color:#9e2064;stop-opacity:1"
           id="stop4829" />
        <stop
           offset="0.63020003"
           style="stop-color:#c92037;stop-opacity:1"
           id="stop4831" />
        <stop
           offset="0.75139999"
           style="stop-color:#cd2335;stop-opacity:1"
           id="stop4833" />
        <stop
           offset="1"
           style="stop-color:#e97826;stop-opacity:1"
           id="stop4835" />
      </linearGradient>
      <path
         style="fill:url(#linearGradient5362)"
         id="path4837"
         d="m 220.8,236.9 c 0,0 0,0 0,0 l 0,0 0,0 0,0 c 0,0 0,0 0,0 z" />
    </g>
  </g>
  <g
     id="g4845"
     transform="translate(385.61463,-191.53704)" />
  <g
     id="g4847"
     transform="translate(385.61463,-191.53704)" />
  <g
     id="g4849"
     transform="translate(385.61463,-191.53704)" />
  <g
     id="g4851"
     transform="translate(385.61463,-191.53704)" />
  <g
     id="g4853"
     transform="translate(385.61463,-191.53704)" />
  <g
     id="g4855"
     transform="translate(385.61463,-191.53704)" />
</svg>
