<!--
 * Copyright (c) 2021, WSO2 Inc. (http://www.wso2.com). All Rights Reserved.
 * 
 * This software is the property of WSO2 Inc. and its suppliers, if any.
 * Dissemination of any information or reproduction of any material contained
 * herein in any form is strictly forbidden, unless permitted by WSO2 expressly.
 * You may not alter or remove any copyright or other notice from copies of this content."
-->

<svg version="1.1" id="www-icon" class="icon" width="14" height="14" xmlns="http://www.w3.org/2000/svg" xmlns:xlink="http://www.w3.org/1999/xlink" x="0px"
     y="0px"
     viewBox="0 0 511.992 511.992" style="enable-background:new 0 0 511.992 511.992;" xml:space="preserve">
	<rect x="447.297" y="328.036" transform="matrix(-0.7071 0.7071 -0.7071 -0.7071 1060.2356 306.9558)" width="38.496"
      height="90.047"/>
    <polygon points="392.512,383.421 375.04,282.909 475.552,300.381 "/>
    <path style="fill:#FF6600;" d="M439.168,272.717H31.36c-17.28,0-31.36-14.064-31.36-31.36V124.845c0-17.28,14.064-31.36,31.36-31.36
	h407.808c17.28,0,31.36,14.064,31.36,31.36v116.528C470.528,258.653,456.448,272.717,439.168,272.717z M31.36,112.509
	c-6.816,0-12.336,5.52-12.336,12.336v116.528c0,6.816,5.52,12.336,12.336,12.336h407.808c6.816,0,12.336-5.52,12.336-12.336V124.845
	c0-6.816-5.52-12.336-12.336-12.336H31.36z"/>
    <g>
		<path style="fill:#22ACDD;" d="M69.408,143.949l10.352,39.792c2.272,8.72,4.384,16.816,5.84,24.896h0.48
		c1.776-7.92,4.352-16.32,6.96-24.736l12.784-39.952h11.968l12.128,39.136c2.928,9.392,5.184,17.632,6.96,25.552h0.496
		c1.28-7.92,3.392-16.176,5.968-25.392l11.168-39.296h14.064l-25.232,78.288h-12.928l-11.984-37.376
		c-2.752-8.704-5.008-16.48-6.96-25.696h-0.32c-1.936,9.392-4.352,17.456-7.104,25.888L91.44,222.237H78.48l-23.6-78.288H69.408z"/>
        <path style="fill:#22ACDD;" d="M190.512,143.949l10.352,39.792c2.272,8.72,4.384,16.816,5.84,24.896h0.464
		c1.776-7.92,4.352-16.32,6.96-24.736l12.784-39.952h11.968l12.128,39.136c2.928,9.392,5.184,17.632,6.96,25.552h0.496
		c1.28-7.92,3.392-16.176,5.968-25.392l11.168-39.296h14.064l-25.232,78.288H251.52l-11.984-37.376
		c-2.752-8.72-5.008-16.496-6.96-25.712h-0.32c-1.936,9.392-4.352,17.456-7.104,25.888l-12.608,37.2h-12.96l-23.6-78.288
		L190.512,143.949L190.512,143.949z"/>
        <path style="fill:#22ACDD;" d="M311.6,143.949l10.352,39.792c2.272,8.72,4.384,16.816,5.824,24.896h0.496
		c1.776-7.92,4.352-16.32,6.96-24.736l12.784-39.952h11.968l12.128,39.136c2.928,9.392,5.184,17.632,6.96,25.552h0.464
		c1.312-7.92,3.424-16.176,6-25.392l11.168-39.296h14.064l-25.232,78.288h-12.928l-11.984-37.376
		c-2.752-8.72-5.008-16.496-6.928-25.712h-0.352c-1.936,9.392-4.352,17.456-7.104,25.888l-12.608,37.2h-12.96l-23.6-78.288
		L311.6,143.949L311.6,143.949z"/>
	</g>
</svg>
