<svg width="256" height="29" viewBox="0 0 256 29" fill="none" xmlns="http://www.w3.org/2000/svg">
<g clip-path="url(#clip0_11_12)">
<path d="M44.28 21.289C48.2846 21.289 51.531 18.0426 51.531 14.038C51.531 10.0334 48.2846 6.78699 44.28 6.78699C40.2754 6.78699 37.029 10.0334 37.029 14.038C37.029 18.0426 40.2754 21.289 44.28 21.289Z" fill="#F47B20"/>
<path d="M51.56 13.695L51.547 13.595H48.736L48.707 13.648C48.3737 14.2413 48.0403 14.8363 47.707 15.433L47.417 15.955C46.9157 14.7417 46.4157 13.5283 45.917 12.315C45.3963 11.035 44.873 9.75499 44.347 8.47499L44.247 8.25299L44.147 8.47199C43.7697 9.30999 43.3933 10.151 43.018 10.995C42.501 12.149 41.966 13.341 41.429 14.509C40.681 14.502 39.929 14.503 39.181 14.504C38.494 14.504 37.806 14.504 37.116 14.504H37.009V14.611C37.0171 14.8406 37.0401 15.0694 37.078 15.296L37.096 15.419H37.186C38.3807 15.419 39.5743 15.419 40.767 15.419H42.028L42.056 15.358C42.4233 14.5473 42.79 13.735 43.156 12.921C43.5073 12.133 43.86 11.3487 44.214 10.568C44.7473 11.8627 45.2807 13.1587 45.814 14.456C46.2807 15.5893 46.7473 16.7227 47.214 17.856L47.296 18.056L47.402 17.869C47.8827 17.0137 48.3607 16.1567 48.836 15.298L49.276 14.505H51.562L51.57 14.405C51.5856 14.1684 51.5822 13.931 51.56 13.695Z" fill="white"/>
<path d="M0 5.026C0.708 5.026 1.415 5.026 2.123 5.026C3.84567 9.266 5.56933 13.506 7.294 17.746C9.02 13.497 10.733 9.246 12.477 5C14.2017 9.25067 15.9273 13.5007 17.654 17.75C19.3793 13.51 21.103 9.26833 22.825 5.025C23.54 5.025 24.257 5.025 24.972 5.025C22.566 10.969 20.158 16.9103 17.748 22.849C17.741 22.935 17.617 23.077 17.588 22.911C15.8847 18.6957 14.1807 14.4807 12.476 10.266C10.737 14.53 9.02 18.803 7.29 23.066C4.85533 17.0567 2.42533 11.0433 0 5.026Z" fill="#F47B20"/>
<path d="M26.464 5.937C27.6335 5.16946 29.0443 4.85874 30.428 5.064C31.1996 5.20178 31.9291 5.51512 32.5603 5.97982C33.1915 6.44453 33.7073 7.04814 34.068 7.744C33.552 8.084 33.025 8.406 32.512 8.749C32.238 8.449 32.053 8.08 31.767 7.79C31.3945 7.36129 30.8949 7.06249 30.341 6.937C29.7881 6.81052 29.212 6.82676 28.6671 6.98421C28.1222 7.14165 27.6263 7.43511 27.226 7.837C27.0179 8.06061 26.8567 8.32358 26.7518 8.61043C26.6469 8.89728 26.6005 9.20222 26.6152 9.50729C26.6299 9.81237 26.7055 10.1114 26.8376 10.3868C26.9696 10.6622 27.1554 10.9085 27.384 11.111C28.0956 11.6076 28.8429 12.0508 29.62 12.437C30.617 12.8468 31.5755 13.3448 32.484 13.925C33.1438 14.3138 33.7129 14.8392 34.153 15.466C34.6751 16.4641 34.8335 17.6128 34.601 18.715C34.4627 19.4319 34.1782 20.1126 33.7653 20.7148C33.3523 21.3169 32.8199 21.8276 32.201 22.215C31.105 22.8953 29.8093 23.1804 28.529 23.023C27.3617 22.9451 26.2571 22.4665 25.402 21.668C24.557 20.8201 23.981 19.7418 23.746 18.568C24.383 18.368 25.019 18.182 25.655 17.986C25.8435 18.9966 26.3696 19.9133 27.147 20.586C27.5472 20.873 28.0036 21.0719 28.4862 21.1696C28.9689 21.2673 29.4667 21.2617 29.947 21.153C30.5043 21.0449 31.0258 20.7995 31.4644 20.4391C31.903 20.0787 32.2448 19.6147 32.459 19.089C32.7386 18.3831 32.7824 17.6058 32.584 16.873C32.4256 16.3765 32.0974 15.9517 31.657 15.673C30.7603 15.0763 29.8158 14.5548 28.833 14.114C28.0749 13.7791 27.3481 13.3775 26.661 12.914C26.0829 12.5721 25.5803 12.1162 25.184 11.574C24.6477 10.64 24.4885 9.53646 24.739 8.489C24.9641 7.448 25.5819 6.53391 26.464 5.937Z" fill="#F47B20"/>
<path d="M43.61 5.038C45.0713 4.93055 46.5369 5.17791 47.882 5.759C49.0216 6.25195 50.0471 6.97498 50.8942 7.88275C51.7413 8.79053 52.3918 9.86349 52.8049 11.0344C53.2179 12.2053 53.3847 13.4489 53.2948 14.6873C53.2048 15.9257 52.86 17.1321 52.282 18.231C51.6625 19.404 50.7928 20.4264 49.7343 21.226C48.6759 22.0256 47.4546 22.5827 46.157 22.858C44.4361 23.2176 42.6479 23.0717 41.008 22.438C39.4272 21.8248 38.0511 20.7789 37.037 19.42C35.9665 17.991 35.3483 16.2744 35.262 14.491C35.1464 12.3604 35.7954 10.2586 37.092 8.564C37.8672 7.54862 38.849 6.7093 39.9726 6.10148C41.0962 5.49366 42.3359 5.13118 43.61 5.038ZM42.528 7.081C41.5585 7.32661 40.6507 7.7713 39.8624 8.38677C39.0741 9.00224 38.4225 9.77503 37.949 10.656C37.3107 11.8694 37.0164 13.2343 37.098 14.603H37.118C37.1269 14.8397 37.1513 15.0755 37.191 15.309C37.3895 16.4382 37.8539 17.504 38.5458 18.4183C39.2377 19.3326 40.1372 20.0691 41.17 20.567C42.8517 21.3766 44.7826 21.4989 46.553 20.908C48.0229 20.4163 49.2954 19.4643 50.182 18.193C50.9618 17.0765 51.4069 15.7606 51.465 14.4C51.4819 14.1668 51.4792 13.9327 51.457 13.7C51.3821 12.2119 50.8474 10.7838 49.9266 9.61241C49.0058 8.44105 47.7443 7.5842 46.316 7.16C45.0834 6.79341 43.7748 6.76612 42.528 7.081Z" fill="#060709"/>
<path d="M53.967 13.416C54.9165 13.1537 55.9199 13.1582 56.867 13.429C57.5058 13.6313 58.0888 13.9796 58.5696 14.4464C59.0504 14.9131 59.4158 15.4855 59.637 16.118C59.8492 16.7734 59.9161 17.4672 59.8331 18.151C59.75 18.8349 59.5189 19.4925 59.156 20.078C58.5405 21.0113 57.8406 21.8859 57.065 22.691C55.8463 24.0077 54.6263 25.3237 53.405 26.639C55.625 26.6357 57.845 26.6357 60.065 26.639C60.065 27.113 60.065 27.587 60.065 28.061C56.776 28.061 53.486 28.061 50.197 28.061C52.297 25.783 54.42 23.523 56.513 21.237C57.3976 20.4098 58.0453 19.3613 58.389 18.2C58.4861 17.7233 58.4617 17.2298 58.3181 16.7649C58.1744 16.3001 57.9161 15.8788 57.567 15.54C57.0933 15.0828 56.4936 14.7777 55.8451 14.664C55.1967 14.5503 54.529 14.6332 53.928 14.902C53.9856 14.4089 53.9987 13.9115 53.967 13.416Z" fill="#060709"/>
<path d="M70.907 7.47793H72.968V22.5409H70.907V7.47793ZM82.063 20.7979C82.6373 20.8133 83.2106 20.7408 83.763 20.5829C84.57 20.3062 85.2583 19.7622 85.714 19.0409C86.1576 18.3275 86.4541 17.5326 86.586 16.7029C86.6841 16.1822 86.7357 15.6538 86.74 15.1239C86.8311 13.594 86.442 12.0739 85.627 10.7759C85.2047 10.242 84.6565 9.82129 84.0314 9.55162C83.4064 9.28196 82.7241 9.17176 82.046 9.23093H78.423V20.7979H82.063ZM76.372 7.47793H82.472C83.3928 7.43152 84.3112 7.60715 85.1499 7.99003C85.9886 8.37291 86.7229 8.95181 87.291 9.67793C88.3584 11.1582 88.8966 12.9546 88.819 14.7779C88.8418 16.2722 88.5345 17.7531 87.919 19.1149C87.4764 20.1828 86.7123 21.0864 85.7328 21.7003C84.7533 22.3143 83.607 22.6081 82.453 22.5409H76.372V7.47793ZM91.64 7.47793H102.622V9.32393H93.63V13.8969H101.946V15.6409H93.63V20.7469H102.776V22.5409H91.64V7.47793ZM105.452 7.47793H107.862L115.47 19.6779V7.47793H117.408V22.5409H115.122L107.401 10.3489V22.5409H105.452V7.47793ZM131.579 7.47793V9.27193H126.504V22.5409H124.432V9.27193H119.357V7.47793H131.579ZM133.907 7.47793H135.968V22.5409H133.907V7.47793ZM150.241 7.47793V9.27193H145.166V22.5409H143.095V9.27193H138.019V7.47793H150.241ZM150.941 7.47793H153.32L157.646 14.7169L161.973 7.47793H164.362L158.67 16.4709V22.5409H156.63V16.4709L150.941 7.47793ZM172.915 17.6779C172.925 18.4131 173.133 19.132 173.515 19.7599C173.936 20.2924 174.485 20.7094 175.111 20.9717C175.737 21.2341 176.419 21.3332 177.094 21.2599C177.805 21.2688 178.512 21.1579 179.186 20.9319C179.704 20.818 180.168 20.53 180.5 20.116C180.832 19.7019 181.012 19.1867 181.011 18.6559C181.044 18.3224 180.991 17.9861 180.857 17.679C180.723 17.3718 180.513 17.104 180.246 16.9009C179.489 16.4687 178.664 16.1671 177.806 16.0089L175.765 15.5479C174.774 15.3726 173.818 15.0365 172.935 14.5529C172.468 14.2513 172.089 13.8315 171.837 13.3363C171.585 12.841 171.468 12.2879 171.499 11.7329C171.479 11.1094 171.594 10.489 171.836 9.9138C172.077 9.33865 172.44 8.82231 172.899 8.39993C174.009 7.47186 175.434 7.00638 176.878 7.09993C178.306 7.0546 179.714 7.45323 180.906 8.24093C181.47 8.659 181.919 9.21422 182.208 9.85401C182.498 10.4938 182.62 11.197 182.562 11.8969H180.646C180.595 11.2311 180.369 10.5907 179.99 10.0409C179.588 9.61409 179.093 9.28567 178.544 9.08119C177.994 8.87671 177.405 8.80168 176.822 8.86193C175.892 8.77523 174.964 9.0467 174.228 9.62093C173.98 9.84315 173.782 10.115 173.645 10.4189C173.509 10.7228 173.439 11.052 173.438 11.3849C173.42 11.7151 173.498 12.0434 173.661 12.3307C173.825 12.6179 174.068 12.852 174.361 13.0049C175.242 13.3741 176.16 13.6489 177.099 13.8249L179.211 14.3069C180.052 14.4658 180.854 14.7901 181.569 15.2609C182.043 15.6133 182.423 16.0778 182.673 16.6129C182.924 17.148 183.038 17.737 183.005 18.3269C183.063 19.0335 182.923 19.7423 182.602 20.3743C182.281 21.0062 181.79 21.5365 181.185 21.9059C179.899 22.6428 178.437 23.0152 176.955 22.9829C175.36 23.0774 173.788 22.5643 172.555 21.5469C172.024 21.0592 171.608 20.459 171.338 19.7902C171.069 19.1214 170.952 18.4007 170.996 17.6809L172.915 17.6779ZM185.784 7.47793H196.766V9.32393H187.773V13.8969H196.089V15.6409H187.773V20.7469H196.919V22.5409H185.782L185.784 7.47793ZM206.599 14.3779C207.397 14.4204 208.188 14.2203 208.87 13.8039C209.171 13.5559 209.405 13.2364 209.551 12.8747C209.697 12.513 209.75 12.1205 209.706 11.7329C209.751 11.2925 209.664 10.8485 209.456 10.4579C209.247 10.0674 208.926 9.74804 208.535 9.54093C208.008 9.31412 207.437 9.20885 206.864 9.23293H201.881V14.3799L206.599 14.3779ZM199.842 7.47793H206.815C207.786 7.44433 208.754 7.61466 209.655 7.97793C210.336 8.27566 210.907 8.77951 211.288 9.41862C211.668 10.0577 211.838 10.8 211.775 11.5409C211.808 12.3179 211.614 13.0876 211.216 13.7559C210.825 14.3467 210.286 14.8243 209.653 15.1409C210.172 15.3305 210.631 15.6562 210.981 16.0839C211.332 16.654 211.506 17.3151 211.481 17.9839L211.553 20.0039C211.556 20.4351 211.605 20.8648 211.697 21.2859C211.727 21.4803 211.802 21.665 211.915 21.8253C212.029 21.9856 212.179 22.1169 212.353 22.2089V22.5409H209.846C209.768 22.3828 209.713 22.2145 209.682 22.0409C209.624 21.647 209.591 21.2499 209.582 20.8519L209.458 18.3409C209.482 17.9407 209.391 17.542 209.196 17.1915C209.001 16.841 208.71 16.5533 208.358 16.3619C207.772 16.1442 207.147 16.0499 206.523 16.0849H201.878V22.5409H199.837L199.842 7.47793ZM215.582 7.47793L219.909 20.3059L224.185 7.47793H226.472L220.973 22.5409H218.809L213.323 7.47793H215.582ZM228.594 7.47793H239.576V9.32393H230.583V13.8969H238.899V15.6409H230.583V20.7469H239.729V22.5409H228.592L228.594 7.47793ZM249.409 14.3779C250.207 14.4204 250.998 14.2203 251.68 13.8039C251.981 13.5559 252.215 13.2364 252.361 12.8747C252.507 12.513 252.56 12.1205 252.516 11.7329C252.562 11.2926 252.474 10.8487 252.266 10.4581C252.058 10.0676 251.737 9.74818 251.346 9.54093C250.819 9.31412 250.248 9.20885 249.675 9.23293H244.692V14.3799L249.409 14.3779ZM242.652 7.47793H249.625C250.596 7.44433 251.564 7.61466 252.465 7.97793C253.146 8.27566 253.717 8.77951 254.098 9.41862C254.478 10.0577 254.648 10.8 254.585 11.5409C254.618 12.3179 254.424 13.0876 254.026 13.7559C253.635 14.3467 253.096 14.8243 252.463 15.1409C252.982 15.3305 253.441 15.6562 253.791 16.0839C254.142 16.654 254.316 17.3151 254.291 17.9839L254.363 20.0039C254.366 20.4351 254.415 20.8648 254.507 21.2859C254.537 21.4803 254.612 21.665 254.725 21.8253C254.839 21.9856 254.989 22.1169 255.163 22.2089V22.5409H252.663C252.585 22.3828 252.53 22.2145 252.499 22.0409C252.441 21.647 252.408 21.2499 252.399 20.8519L252.268 18.3409C252.292 17.9407 252.201 17.542 252.006 17.1915C251.811 16.841 251.52 16.5533 251.168 16.3619C250.582 16.1442 249.957 16.0499 249.333 16.0849H244.688V22.5409H242.646L242.652 7.47793Z" fill="black"/>
</g>
<defs>
<clipPath id="clip0_11_12">
<rect width="255.163" height="28.061" fill="white"/>
</clipPath>
</defs>
</svg>
