<svg width="18" height="18" viewBox="0 0 24 24" fill="none" xmlns="http://www.w3.org/2000/svg">
<path fill-rule="evenodd" clip-rule="evenodd" d="M2 3.4H17C17.1209 3.4 17.2373 3.41951 17.3461 3.45555L12.3925 7.53501C10.7124 8.91864 8.28765 8.91864 6.60753 7.53501L1.6539 3.45555C1.76273 3.41951 1.87908 3.4 2 3.4ZM18.1 4.5C18.1 4.34811 18.0692 4.20341 18.0135 4.0718L12.9646 8.22975C10.9522 9.88706 8.04784 9.88706 6.03539 8.22975L0.986456 4.0718C0.930785 4.20341 0.9 4.34811 0.9 4.5V14.5C0.9 15.1075 1.39249 15.6 2 15.6H12.0033C12.0011 15.6331 12 15.6664 12 15.7C12 15.9941 12.0846 16.2685 12.2309 16.5H2C0.895431 16.5 0 15.6046 0 14.5V4.5C0 3.39543 0.895431 2.5 2 2.5H17C18.1046 2.5 19 3.39543 19 4.5V9.67301C18.791 9.56255 18.5528 9.5 18.3 9.5C18.2322 9.5 18.1654 9.5045 18.1 9.51322V4.5ZM18 10.95C18 10.7015 18.2015 10.5 18.45 10.5C18.6985 10.5 18.9 10.7015 18.9 10.95V11.5175C19.8121 11.5979 20.6461 11.9503 21.3203 12.4932L21.7027 12.1109C21.8784 11.9351 22.1633 11.9351 22.3391 12.1109C22.5148 12.2866 22.5148 12.5715 22.3391 12.7473L21.9617 13.1246C22.52 13.7961 22.8867 14.6325 22.9778 15.55H23.5001C23.7486 15.55 23.9501 15.7515 23.9501 16C23.9501 16.2485 23.7486 16.45 23.5001 16.45H22.9778C22.8867 17.3675 22.52 18.2039 21.9618 18.8753L22.3391 19.2527C22.5149 19.4284 22.5149 19.7133 22.3391 19.8891C22.1634 20.0648 21.8785 20.0648 21.7028 19.8891L21.3204 19.5067C20.6462 20.0496 19.8121 20.4021 18.9 20.4825V21.05C18.9 21.2985 18.6985 21.5 18.45 21.5C18.2015 21.5 18 21.2985 18 21.05V20.4725C17.1021 20.3733 16.2838 20.0098 15.6246 19.4617L15.6216 19.4648L15.1973 19.889C15.0216 20.0648 14.7366 20.0648 14.5609 19.889C14.3852 19.7133 14.3852 19.4284 14.5609 19.2526L14.9852 18.8284L14.9933 18.8204C14.4602 18.1584 14.1107 17.3423 14.0222 16.4495C14.0148 16.4498 14.0075 16.45 14.0001 16.45H13.4001C13.1515 16.45 12.9501 16.2485 12.9501 16C12.9501 15.7515 13.1515 15.55 13.4001 15.55H14.0001C14.0075 15.55 14.0148 15.5502 14.0222 15.5505C14.1107 14.6576 14.4602 13.8415 14.9934 13.1795L14.9852 13.1716L14.561 12.7473C14.3852 12.5716 14.3852 12.2866 14.561 12.1109C14.7367 11.9352 15.0216 11.9352 15.1974 12.1109L15.6216 12.5352L15.6247 12.5383C16.2839 11.9901 17.1021 11.6267 18 11.5275V10.95ZM22.1 16C22.1 17.9882 20.4882 19.6 18.5 19.6C16.5118 19.6 14.9 17.9882 14.9 16C14.9 14.0118 16.5118 12.4 18.5 12.4C20.4882 12.4 22.1 14.0118 22.1 16ZM18.5 16.5C18.7761 16.5 19 16.2761 19 16C19 15.7239 18.7761 15.5 18.5 15.5C18.2239 15.5 18 15.7239 18 16C18 16.2761 18.2239 16.5 18.5 16.5Z" fill="black"/>
</svg>
