<!--
 * Copyright (c) 2021, WSO2 Inc. (http://www.wso2.com). All Rights Reserved.
 * 
 * This software is the property of WSO2 Inc. and its suppliers, if any.
 * Dissemination of any information or reproduction of any material contained
 * herein in any form is strictly forbidden, unless permitted by WSO2 expressly.
 * You may not alter or remove any copyright or other notice from copies of this content."
-->

<svg version="1.1" id="link-icon" class="icon" width="14" height="14" xmlns="http://www.w3.org/2000/svg"
     xmlns:xlink="http://www.w3.org/1999/xlink" x="0px" y="0px"
     viewBox="0 0 501.8 501.8" style="enable-background:new 0 0 501.8 501.8;" xml:space="preserve">
	<path style="fill:#FFC52F;" d="M315.8,220.5c-4.8-4.8-10.8-8.8-17.2-11.2c4.4,18.4-0.8,38-14.4,51.6L261,284.1
		c-10.4,10.4-24,16-38.8,16c-4.8,0-9.6-0.8-14-2c-0.8-0.4-2-0.4-2.8-0.8l0,0c-8-2.8-15.6-7.2-22-13.2l-13.6-13.6l-116.4-116
		c-21.2-21.2-21.2-56,0-77.6l23.2-23.2c10.4-10.4,24-16,38.8-16s28.4,5.6,38.8,16l114,114c4-0.4,7.6-0.8,11.6-0.8
		c15.2,0,29.6,3.6,42.4,10.4L176.6,31.7c-16.4-16.4-38-25.2-60.8-25.2S71,15.3,55,31.7L31.8,54.9c-16.4,16.4-25.2,38-25.2,60.8
		c0,23.2,8.8,44.8,25.2,60.8l130,130c4,4,8,7.2,12.8,10.4c14,9.6,30.8,14.8,48.4,14.8c3.6,0,7.6-0.4,11.2-0.8
		c18.8-2.4,36.4-10.8,50-24.4l23.2-23.2c12.8-12.8,21.2-29.6,24-47.6c0,0,0,0,0-0.4L315.8,220.5z"/>
    <path style="fill:#4BB19B;" d="M470.6,325.7l-130-130c-3.6-3.6-7.6-6.8-11.6-9.6c-14.4-10-31.2-15.6-49.2-15.6
		c-3.6,0-7.2,0.4-10.8,0.8c-18.8,2.4-36.4,10.8-50,24.4l-23.2,23.2c-13.2,13.2-21.6,29.6-24,48l14.8,14.8c4.8,4.8,10.8,8.8,17.2,11.2
		c-0.8-4-1.6-8.4-1.6-12.8c0-14.8,5.6-28.4,16-38.8l23.2-23.2c10.4-10.4,24-16,38.8-16c4.8,0,9.6,0.8,14,2c0.8,0.4,2,0.4,2.8,0.8l0,0
		c8,2.8,15.6,7.2,22,13.2l13.6,13.6L449,348.1c10.4,10.4,16,24,16,38.8s-5.6,28.4-16,38.8l-23.2,23.2c-10.4,10.4-24,16-38.8,16
		s-28-5.6-38.4-16L235,334.9l0,0c-4,0.4-8.4,0.8-12,0.8c-15.2,0-29.6-3.6-42.4-10.4l145.6,145.6c16.4,16.4,37.6,25.2,60.8,25.2
		s44.8-8.8,60.8-25.2l22.8-23.2c16.4-16.4,25.2-38,25.2-60.8C495.8,363.3,486.6,341.7,470.6,325.7z"/>
    <path d="M222.2,337.3c-24.8,0-47.6-9.6-65.2-26.8l-130-130c-36-36-36-94.4,0-130.4l23.2-23.2C67.4,9.7,90.6,0.1,115.4,0.1
		s47.6,9.6,65.2,26.8l120.8,120.8c1.6,1.6,1.6,4,0,5.6s-4,1.6-5.6,0L175,32.5c-16-16-36.8-24.4-59.6-24.4c-22.4,0-43.6,8.8-59.6,24.4
		L32.6,55.7c-32.8,32.8-32.8,86,0,118.8l130,130c16,16,36.8,24.4,59.6,24.4c22.4,0,43.6-8.8,59.6-24.4l23.2-23.2
		c12.8-12.8,20.8-28.8,23.6-46.4c0.4-2,2.4-3.6,4.4-3.2s3.6,2.4,3.2,4.4c-3.2,19.2-12,36.8-26,50.8L287,310.1
		C270.2,327.7,247,337.3,222.2,337.3z M222.2,302.1c-15.2,0-29.6-6-40.4-16.4l-130-130c-22-22-22-58.4,0-80.4L75,52.1
		c10.8-10.8,24.8-16.4,40.4-16.4c15.2,0,29.6,6,40.4,16.4l94.8,94.8c1.6,1.6,1.6,4,0,5.6s-4,1.6-5.6,0l-94.8-94.8
		c-9.2-9.2-21.6-14.4-34.4-14.4s-25.2,5.2-34.4,14.4L58.2,80.9c-19.2,19.2-19.2,50,0,69.2l130,130c9.2,9.2,21.6,14.4,34.4,14.4
		c13.2,0,25.2-5.2,34.4-14.4l23.2-23.2c12.8-12.8,17.6-32,12-49.2c-0.8-2,0.4-4.4,2.8-5.2c2-0.8,4.4,0.4,5.2,2.8
		c6.4,20.4,1.2,42.4-14,57.2L263,285.7C251.8,296.1,237.4,302.1,222.2,302.1z"/>
    <path d="M386.6,501.7c-24.8,0-47.6-9.6-65.2-26.8L205,358.5c-1.6-1.6-1.6-4,0-5.6s4-1.6,5.6,0L327,469.3c16,16,36.8,24.4,59.6,24.4
		c22.4,0,43.6-8.8,59.6-24.4l23.2-23.2c16-16,24.4-36.8,24.4-59.6c0-22.4-8.8-43.6-24.4-59.6l-130-130c-16-16-36.8-24.4-59.6-24.4
		c-22.4,0-43.6,8.8-59.6,24.4L197,220.1c-13.2,13.2-21.2,29.6-23.6,47.6c-0.4,2-2.4,3.6-4.4,3.6c-2-0.4-3.6-2.4-3.6-4.4
		c2.8-20,11.6-38,26-52l23.2-23.2c17.2-17.2,40.4-26.8,65.2-26.8s47.6,9.6,65.2,26.8l130,130c17.2,17.2,26.8,40.4,26.8,65.2
		c0,24.8-9.6,47.6-26.8,65.2l-23.2,23.2C434.6,492.1,411.4,501.7,386.6,501.7z M386.6,466.5c-15.2,0-29.6-6-40.4-16.4l-90.4-90.4
		c-1.6-1.6-1.6-4,0-5.6s4-1.6,5.6,0l90.4,90.4c9.2,9.2,21.6,14.4,34.4,14.4c13.2,0,25.2-5.2,34.4-14.4l23.2-23.2
		c9.2-9.2,14.4-21.6,14.4-34.4c0-13.2-5.2-25.2-14.4-34.4l-130-130c-9.2-9.2-21.6-14.4-34.4-14.4c-13.2,0-25.2,5.2-34.4,14.4
		l-23.2,23.2c-9.2,9.2-14.4,21.6-14.4,34.4c0,5.2,0.8,10,2.4,14.8c0.8,2-0.4,4.4-2.8,5.2c-2,0.8-4.4-0.4-5.2-2.8
		c-1.6-5.6-2.8-11.2-2.8-17.2c0-15.2,6-29.6,16.4-40.4l23.2-23.2c10.8-10.8,24.8-16.4,40.4-16.4c15.2,0,29.6,6,40.4,16.4l130,130
		c10.8,10.8,16.4,24.8,16.4,40s-6,29.6-16.4,40.4l-23.2,23.2C416.2,460.5,401.8,466.5,386.6,466.5z"/>
</svg>
