<!--
 * Copyright (c) 2021, WSO2 Inc. (http://www.wso2.com). All Rights Reserved.
 * 
 * This software is the property of WSO2 Inc. and its suppliers, if any.
 * Dissemination of any information or reproduction of any material contained
 * herein in any form is strictly forbidden, unless permitted by WSO2 expressly.
 * You may not alter or remove any copyright or other notice from copies of this content."
-->

<svg id="monitor-icon-outline" class="icon" width="16" height="16" viewBox="0 0 16 16" fill="none" xmlns="http://www.w3.org/2000/svg">
<path fill-rule="evenodd" clip-rule="evenodd" d="M0.598456 6.68562C0.323946 6.65564 0.0771041 6.85386 0.0471187 7.12837C0.0471074 7.12848 0.0470962 7.12858 0.047085 7.12868C-0.170823 9.12428 0.373087 11.1407 1.56519 12.756C1.56551 12.7564 1.56583 12.7568 1.56615 12.7573C1.73017 12.9794 2.04322 13.0266 2.26538 12.8625C2.48753 12.6985 2.53465 12.3855 2.37063 12.1633C1.32702 10.7498 0.850419 8.98355 1.04121 7.23696C1.07119 6.96245 0.872966 6.71561 0.598456 6.68562ZM8.80352 1.04546C7.04465 0.843549 5.26262 1.31939 3.83848 2.37116C3.61635 2.53521 3.30329 2.48813 3.13924 2.266C2.97519 2.04386 3.02227 1.7308 3.2444 1.56675C4.87213 0.364628 6.90721 -0.178796 8.91757 0.0519826C9.19191 0.0834756 9.38877 0.331403 9.35728 0.605743C9.32579 0.880084 9.07786 1.07695 8.80352 1.04546ZM14.9582 8.79337C14.9706 8.6843 14.9803 8.57515 14.9875 8.466C15.0954 6.82406 14.6192 5.18307 13.6416 3.85239C13.4781 3.62986 13.526 3.31691 13.7485 3.15342C13.971 2.98992 14.284 3.03778 14.4475 3.26031C14.4476 3.26046 14.4477 3.26061 14.4478 3.26076C14.448 3.26105 14.4482 3.26133 14.4484 3.26162C15.6397 4.88368 16.1786 6.90726 15.9517 8.90703C15.9206 9.18142 15.6729 9.37861 15.3986 9.34749C15.1242 9.31636 14.927 9.06869 14.9581 8.79431C14.9581 8.794 14.9582 8.79368 14.9582 8.79337ZM12.7185 14.4648C12.5177 14.6112 12.3108 14.7476 12.0986 14.8739C10.6103 15.7595 8.86141 16.1446 7.12864 15.9554C7.12835 15.9554 7.12805 15.9554 7.12775 15.9553C6.85324 15.9253 6.65504 15.6785 6.68504 15.4039C6.71505 15.1294 6.96191 14.9312 7.23642 14.9612C7.23669 14.9613 7.23697 14.9613 7.23725 14.9613C7.34528 14.9731 7.45338 14.9824 7.56148 14.9891C9.18707 15.09 10.8102 14.6189 12.1305 13.6559C12.3537 13.4932 12.6664 13.5421 12.8291 13.7653C12.9919 13.9884 12.9429 14.3011 12.7198 14.4639C12.7194 14.4642 12.7189 14.4645 12.7185 14.4648Z" fill="black"/>
</svg>
