<!--
 * Copyright (c) 2021, WSO2 Inc. (http://www.wso2.com). All Rights Reserved.
 * 
 * This software is the property of WSO2 Inc. and its suppliers, if any.
 * Dissemination of any information or reproduction of any material contained
 * herein in any form is strictly forbidden, unless permitted by WSO2 expressly.
 * You may not alter or remove any copyright or other notice from copies of this content."
-->

<svg id="paint-pallette-and-brush-icon" class="icon" width="16" height="16" viewBox="0 0 16 16" fill="none" xmlns="http://www.w3.org/2000/svg">
<path fill-rule="evenodd" clip-rule="evenodd" d="M9.89732 9.65168C9.87768 9.67132 9.85723 9.68996 9.83604 9.70758C9.81536 9.72477 9.79399 9.74097 9.77199 9.75617C9.64464 9.84414 9.49637 9.89821 9.34136 9.91248C9.31393 9.915 9.28628 9.91628 9.2585 9.91628H6.78639C6.76154 9.91628 6.737 9.91499 6.71282 9.91248C6.38351 9.87821 6.1218 9.61651 6.08753 9.2872C6.08502 9.26301 6.08373 9.23847 6.08373 9.21362V6.74151C6.08373 6.71373 6.085 6.68608 6.08753 6.65864C6.1018 6.50364 6.15587 6.35537 6.24384 6.22802C6.25903 6.20603 6.27524 6.18466 6.29242 6.16398C6.31004 6.14279 6.32869 6.12234 6.34833 6.10269L11.716 0.735018C12.696 -0.245006 14.285 -0.245006 15.265 0.735018C16.245 1.71504 16.245 3.30398 15.265 4.28401L9.89732 9.65168ZM7.08753 7.07709L8.92292 8.91248H7.08753L7.08753 7.07709ZM9.77972 8.34968L14.5552 3.57421C15.1432 2.98619 15.1432 2.03283 14.5552 1.44482C13.9672 0.856801 13.0138 0.856801 12.4258 1.44482L7.65033 6.22029L9.77972 8.34968ZM4.11082 10.981C4.11082 10.7038 3.88611 10.4791 3.60892 10.4791H1.75666C0.786483 10.4791 0 11.2655 0 12.2357C0 13.2059 0.786483 13.9924 1.75666 13.9924H11.5438C11.821 13.9924 12.0457 14.2171 12.0457 14.4943C12.0457 14.7715 11.821 14.9962 11.5438 14.9962H7.02664C6.74945 14.9962 6.52474 15.2209 6.52474 15.4981C6.52474 15.7753 6.74945 16 7.02664 16H11.5438C12.3753 16 13.0495 15.3259 13.0495 14.4943C13.0495 13.6627 12.3753 12.9886 11.5438 12.9886H1.75666C1.34087 12.9886 1.00381 12.6515 1.00381 12.2357C1.00381 11.8199 1.34087 11.4829 1.75666 11.4829H3.60892C3.88611 11.4829 4.11082 11.2582 4.11082 10.981Z" fill="black"/>
</svg>
