<!--
 * Copyright (c) 2020, WSO2 Inc. (http://www.wso2.com). All Rights Reserved.
 * 
 * This software is the property of WSO2 Inc. and its suppliers, if any.
 * Dissemination of any information or reproduction of any material contained
 * herein in any form is strictly forbidden, unless permitted by WSO2 expressly.
 * You may not alter or remove any copyright or other notice from copies of this content."
-->

<svg id="paper-icon" class="icon" height="14" viewBox="0 0 24 24" width="14" xmlns="http://www.w3.org/2000/svg">
    <path class="path" d="m20.5 24h-12c-1.378 0-2.5-1.121-2.5-2.5v-15c0-1.379 1.122-2.5 2.5-2.5h12c1.378 0 2.5 1.121 2.5 2.5v15c0 1.379-1.122 2.5-2.5 2.5zm-12-19c-.827 0-1.5.673-1.5 1.5v15c0 .827.673 1.5 1.5 1.5h12c.827 0 1.5-.673 1.5-1.5v-15c0-.827-.673-1.5-1.5-1.5z"/>
    <path class="path" d="m4.5 21h-1c-1.378 0-2.5-1.121-2.5-2.5v-16c0-1.379 1.122-2.5 2.5-2.5h12c1.378 0 2.5 1.121 2.5 2.5 0 .276-.224.5-.5.5s-.5-.224-.5-.5c0-.827-.673-1.5-1.5-1.5h-12c-.827 0-1.5.673-1.5 1.5v16c0 .827.673 1.5 1.5 1.5h1c.276 0 .5.224.5.5s-.224.5-.5.5z"/>
    <path class="path" d="m18.5 17h-8c-.276 0-.5-.224-.5-.5s.224-.5.5-.5h8c.276 0 .5.224.5.5s-.224.5-.5.5z"/>
    <path class="path" d="m18.5 21h-8c-.276 0-.5-.224-.5-.5s.224-.5.5-.5h8c.276 0 .5.224.5.5s-.224.5-.5.5z"/>
    <path class="path" d="m18.5 13h-8c-.276 0-.5-.224-.5-.5s.224-.5.5-.5h8c.276 0 .5.224.5.5s-.224.5-.5.5z"/>
    <path class="path" d="m18.5 9h-8c-.276 0-.5-.224-.5-.5s.224-.5.5-.5h8c.276 0 .5.224.5.5s-.224.5-.5.5z"/>
</svg>
