<!--
 * Copyright (c) 2020, WSO2 Inc. (http://www.wso2.org) All Rights Reserved.
 *
 * WSO2 Inc. licenses this file to you under the Apache License,
 * Version 2.0 (the "License"); you may not use this file except
 * in compliance with the License.
 * You may obtain a copy of the License at
 *
 *     http://www.apache.org/licenses/LICENSE-2.0
 *
 * Unless required by applicable law or agreed to in writing,
 * software distributed under the License is distributed on an
 * "AS IS" BASIS, WITHOUT WARRANTIES OR CONDITIONS OF ANY
 * KIND, either express or implied. See the License for the
 * specific language governing permissions and limitations
 * under the License.
-->

<svg xmlns="http://www.w3.org/2000/svg" width="167.579" height="154.559" viewBox="0 0 167.579 154.559">
    <g id="broken-page-illustration" transform="translate(-591 -209.5)">
        <path id="Path_36"
              d="M95.826,20.037a32.147,32.147,0,1,0-53.77,33.5,24.4,24.4,0,0,1,6.059,17.1q-.042,1.249-.011,2.515a43.294,43.294,0,0,0,42.719,41.65,42.711,42.711,0,0,0,17.651-81.594A24.666,24.666,0,0,1,95.826,20.037Z"
              transform="translate(595.179 249.25)" fill="#f4f4f4"/>
        <path id="Path_56"
              d="M432.755,180.351a1.8,1.8,0,0,1-1.279-.53l-3.977-3.977a1.809,1.809,0,0,1,0-2.559l3.977-3.977a1.809,1.809,0,0,1,2.559,0l3.977,3.977a1.809,1.809,0,0,1,0,2.559l-3.977,3.977a1.8,1.8,0,0,1-1.279.53Zm-1.418-5.784,1.418,1.418,1.418-1.418-1.418-1.418Z"
              transform="translate(311.076 99.677)" fill="#e6e6e6"/>
        <path id="Path_57"
              d="M347.083,72.674a1.809,1.809,0,0,1-1.809-1.809,2.182,2.182,0,0,0-2.179-2.179,1.809,1.809,0,1,1,0-3.618,2.182,2.182,0,0,0,2.179-2.179,1.809,1.809,0,0,1,3.618,0,2.181,2.181,0,0,0,2.179,2.179,1.809,1.809,0,1,1,0,3.618,2.182,2.182,0,0,0-2.179,2.179A1.809,1.809,0,0,1,347.083,72.674Z"
              transform="translate(361.763 148.421)" fill="#cecece"/>
        <path id="Path_8" data-name="Path 8"
              d="M637.508,331.457s-4.2-11.311,8.964-26.731,34.328-.338,44.964,0,21.891-2.532,29.6-17"
              transform="translate(34 -54.209)" fill="none" stroke="#707070" stroke-width="1" stroke-dasharray="4"/>
        <path id="Path_9" data-name="Path 9"
              d="M146.554,70.176a1.617,1.617,0,0,1-1.147-.475l-4.587-4.587a1.622,1.622,0,0,1,2.294-2.294l4.587,4.587a1.622,1.622,0,0,1-1.147,2.769Z"
              transform="translate(610.403 166.879)" fill="#707070"/>
        <path id="Path_10" data-name="Path 10"
              d="M141.966,70.176a1.617,1.617,0,0,0,1.147-.475l4.587-4.587a1.622,1.622,0,1,0-2.294-2.294l-4.587,4.587a1.622,1.622,0,0,0,1.147,2.769Z"
              transform="translate(610.403 166.879)" fill="#707070"/>
        <path id="Path_58"
              d="M53.06,332.889a1.809,1.809,0,0,1-1.809-1.809,2.182,2.182,0,0,0-2.179-2.179,1.809,1.809,0,1,1,0-3.618,2.182,2.182,0,0,0,2.179-2.179,1.809,1.809,0,1,1,3.618,0,2.182,2.182,0,0,0,2.179,2.179,1.809,1.809,0,0,1,0,3.618,2.181,2.181,0,0,0-2.179,2.179,1.809,1.809,0,0,1-1.809,1.809Z"
              transform="translate(551.43 -26.669)" fill="#e6e6e6"/>
        <path id="Path_59"
              d="M45.617,386.6a1.809,1.809,0,0,1-1.809-1.809,2.182,2.182,0,0,0-2.179-2.179,1.809,1.809,0,1,1,0-3.618,2.182,2.182,0,0,0,2.179-2.179,1.809,1.809,0,0,1,3.618,0,2.182,2.182,0,0,0,2.179,2.179,1.809,1.809,0,0,1,0,3.618,2.181,2.181,0,0,0-2.179,2.179,1.809,1.809,0,0,1-1.809,1.809Z"
              transform="translate(551.18 -46.95)" fill="#cecece"/>
        <g id="empty-folder" transform="translate(599 212.54)">
            <g id="Group_1" data-name="Group 1" transform="translate(74.748 37.622)">
                <g id="Group_17" data-name="Group 17">
                    <path id="Path_1" data-name="Path 1"
                          d="M146.554,70.176a1.617,1.617,0,0,1-1.147-.475l-4.587-4.587a1.622,1.622,0,0,1,2.294-2.294l4.587,4.587a1.622,1.622,0,0,1-1.147,2.769Z"
                          transform="translate(-140.344 -53.283)" fill="#afafaf"/>
                    <path id="Path_2" data-name="Path 2"
                          d="M141.966,70.176a1.622,1.622,0,0,1-1.147-2.769l4.587-4.587a1.622,1.622,0,0,1,2.294,2.294L143.113,69.7a1.616,1.616,0,0,1-1.147.475Z"
                          transform="translate(-140.344 -53.283)" fill="#afafaf"/>
                </g>
                <circle id="Ellipse_3" data-name="Ellipse 3" cx="1.5" cy="1.5" r="1.5"
                        transform="translate(20.252 17.838)" fill="#707070"/>
                <circle id="Ellipse_4" data-name="Ellipse 4" cx="1.5" cy="1.5" r="1.5"
                        transform="translate(15.252 -0.162)" fill="#707070"/>
            </g>
            <g id="Group_2" data-name="Group 2" transform="translate(44.599 117.105)">
                <path id="Path_3" data-name="Path 3"
                      d="M139.75,248.111H74.866A4.867,4.867,0,0,1,70,243.244V240h74.617v3.244A4.867,4.867,0,0,1,139.75,248.111Z"
                      transform="translate(-68.378 -238.378)" fill="#e2e2e2"/>
                <path id="Path_4" data-name="Path 4"
                      d="M137.373,247.355H72.488A6.5,6.5,0,0,1,66,240.866v-3.244A1.622,1.622,0,0,1,67.622,236h74.617a1.622,1.622,0,0,1,1.622,1.622v3.244A6.5,6.5,0,0,1,137.373,247.355Zm-68.128-8.111v1.622a3.247,3.247,0,0,0,3.244,3.244h64.884a3.247,3.247,0,0,0,3.244-3.244v-1.622Z"
                      transform="translate(-66 -236)" fill="#afafaf"/>
            </g>
            <g id="Group_3" data-name="Group 3" transform="translate(38.111 53.742)">
                <path id="Path_5" data-name="Path 5"
                      d="M77.018,150.358h56.89a6,6,0,0,0,6.065-5.929V100.072a6.488,6.488,0,0,0-6.488-6.488H86.095l-3.6-7.465a5.828,5.828,0,0,0-4.709-2.369H59.713A5.651,5.651,0,0,0,54,89.336v55.093a6,6,0,0,0,6.065,5.929H68.64"
                      transform="translate(-52.378 -82.128)" fill="#e2e2e2"/>
                <path id="Path_6" data-name="Path 6"
                      d="M131.529,149.6H74.64a1.622,1.622,0,1,1,0-3.244h56.889a4.381,4.381,0,0,0,4.443-4.307V97.695a4.872,4.872,0,0,0-4.866-4.866H83.717a1.623,1.623,0,0,1-1.462-.918l-3.529-7.32a4.216,4.216,0,0,0-3.317-1.6H57.335a4.034,4.034,0,0,0-4.091,3.964V142.05a4.381,4.381,0,0,0,4.443,4.307h8.575a1.622,1.622,0,0,1,0,3.244H57.687A7.629,7.629,0,0,1,50,142.051V86.957a7.28,7.28,0,0,1,7.335-7.207H75.409a7.467,7.467,0,0,1,6.019,3.034,1.59,1.59,0,0,1,.151.253l3.156,6.547h46.37a8.12,8.12,0,0,1,8.111,8.111v44.356A7.629,7.629,0,0,1,131.529,149.6Z"
                      transform="translate(-50 -79.75)" fill="#afafaf"/>
                <g id="Group_18" data-name="Group 18" transform="translate(20.637 16.88)">
                    <path id="Path_1-2" data-name="Path 1"
                          d="M146.554,70.176a1.617,1.617,0,0,1-1.147-.475l-4.587-4.587a1.622,1.622,0,0,1,2.294-2.294l4.587,4.587a1.622,1.622,0,0,1-1.147,2.769Z"
                          transform="translate(-140.344 -53.283)" fill="#afafaf"/>
                    <path id="Path_2-2" data-name="Path 2"
                          d="M141.966,70.176a1.622,1.622,0,0,1-1.147-2.769l4.587-4.587a1.622,1.622,0,0,1,2.294,2.294L143.113,69.7a1.616,1.616,0,0,1-1.147.475Z"
                          transform="translate(-140.344 -53.283)" fill="#afafaf"/>
                </g>
                <g id="Group_19" data-name="Group 19" transform="translate(61.637 16.88)">
                    <path id="Path_1-3" data-name="Path 1"
                          d="M146.554,70.176a1.617,1.617,0,0,1-1.147-.475l-4.587-4.587a1.622,1.622,0,0,1,2.294-2.294l4.587,4.587a1.622,1.622,0,0,1-1.147,2.769Z"
                          transform="translate(-140.344 -53.283)" fill="#afafaf"/>
                    <path id="Path_2-3" data-name="Path 2"
                          d="M141.966,70.176a1.622,1.622,0,0,1-1.147-2.769l4.587-4.587a1.622,1.622,0,0,1,2.294,2.294L143.113,69.7a1.616,1.616,0,0,1-1.147.475Z"
                          transform="translate(-140.344 -53.283)" fill="#afafaf"/>
                </g>
            </g>
            <path id="Path_7" data-name="Path 7"
                  d="M114.977,107.244H103.622a1.622,1.622,0,0,1,0-3.244h11.355a1.622,1.622,0,0,1,0,3.244Z"
                  transform="translate(-42.802 -40.424)" fill="#afafaf"/>
            <path id="Path_34" data-name="Path 34" d="M6247.87,387.188s9.682-12.055,21.536,0"
                  transform="translate(-6175 -278.54)" fill="none" stroke="#afafaf" stroke-linecap="round"
                  stroke-width="3"/>
        </g>
    </g>
</svg>
