<svg id="broken-page-illustration" width="221" height="116" viewBox="0 0 221 116" fill="none" xmlns="http://www.w3.org/2000/svg">
<path d="M61.7041 49.0179C62.1289 48.5416 62.6434 48.1536 63.2181 47.8762C63.7928 47.5987 64.4166 47.4372 65.0538 47.4007C65.691 47.3643 66.3291 47.4538 66.9317 47.664C67.5343 47.8742 68.0896 48.201 68.5659 48.6258L84.0756 62.459L77.6057 69.713L62.0959 55.8799C61.6196 55.455 61.2316 54.9405 60.9541 54.3658C60.6767 53.791 60.5151 53.1672 60.4787 52.53C60.4424 51.8928 60.5319 51.2547 60.7421 50.6521C60.9523 50.0495 61.2792 49.4942 61.7041 49.0179Z" fill="url(#paint0_linear_1375_13144)"/>
<path d="M147.473 69.7124L141.003 62.4586L156.513 48.6255C157.475 47.7675 158.738 47.3269 160.025 47.4004C161.312 47.4739 162.517 48.0556 163.375 49.0175C164.233 49.9794 164.673 51.2427 164.6 52.5296C164.526 53.8164 163.945 55.0213 162.983 55.8792L147.473 69.7124Z" fill="url(#paint1_linear_1375_13144)"/>
<path d="M153.932 78.7104C157.392 94.0309 162.128 103.887 159.77 109.548C158.53 112.524 155.985 115.019 151.773 115.019C145.207 115.019 145.207 107.275 138.641 107.275C132.074 107.275 132.076 115.019 125.51 115.019C118.944 115.019 118.945 107.275 112.38 107.275C105.815 107.275 105.815 115.019 99.2494 115.019C92.6841 115.019 92.6844 107.275 86.1195 107.275C79.5545 107.275 79.5553 115.019 72.991 115.019C69.0935 115.019 66.8903 112.723 65.493 110.071C62.1352 103.698 69.961 89.6749 72.991 77.3089C76.3388 63.6444 76.0568 46.6242 76.5059 36.359C77.3724 16.563 92.5678 0.480957 112.384 0.480957C132.201 0.480957 146.819 16.5967 148.263 36.359C149.041 47.0129 150.765 64.6858 153.932 78.7104Z" fill="url(#paint2_linear_1375_13144)"/>
<path d="M220.883 28.3016L160.581 28.0439C160.581 17.9727 166.253 15.9899 172.284 14.3543C178.314 12.7187 181.027 1.64898 191.507 1.01908C197.695 0.646869 200.941 2.23951 203.629 4.29026C203.632 4.29384 203.632 4.29742 203.636 4.29742C210.37 11.543 216.165 19.6079 220.883 28.3016Z" fill="white"/>
<path d="M48.8695 103.134L1.58384 103.338C0.776154 98.401 0.286018 93.4172 0.116455 88.4174C10.4741 86.95 9.41468 78.7184 21.7837 79.4664C30.9602 80.0176 33.3438 89.713 38.6229 91.1446C43.9019 92.5762 48.8695 94.3173 48.8695 103.134Z" fill="white"/>
<path d="M105.04 31.9929L103.047 30L90.1165 42.9303L92.1094 44.9232L105.04 31.9929Z" fill="#212A32"/>
<path d="M103.047 44.9231L105.04 42.9302L92.1094 29.9999L90.1165 31.9928L103.047 44.9231Z" fill="#212A32"/>
<path d="M135.212 31.9929L133.219 30L120.288 42.9303L122.281 44.9232L135.212 31.9929Z" fill="#212A32"/>
<path d="M133.219 44.9236L135.212 42.9307L122.281 30.0004L120.288 31.9933L133.219 44.9236Z" fill="#212A32"/>
<path d="M99.7007 66.8635L97.6323 64.9822C97.8589 64.7376 103.298 58.9897 113.509 58.9897C123.779 58.9897 128.571 64.8087 128.77 65.0563L126.57 66.7856C126.406 66.5858 122.359 61.7693 113.509 61.7693C104.587 61.7695 99.7484 66.8121 99.7007 66.8635Z" fill="#212A32"/>
<defs>
<linearGradient id="paint0_linear_1375_13144" x1="61.704" y1="49.018" x2="80.8405" y2="66.0862" gradientUnits="userSpaceOnUse">
<stop stop-color="#FF9D44"/>
<stop offset="1" stop-color="#F5C58D"/>
</linearGradient>
<linearGradient id="paint1_linear_1375_13144" x1="144.238" y1="66.0855" x2="163.375" y2="49.0174" gradientUnits="userSpaceOnUse">
<stop stop-color="#FF9D44"/>
<stop offset="1" stop-color="#F5C58D"/>
</linearGradient>
<linearGradient id="paint2_linear_1375_13144" x1="112.538" y1="0.480957" x2="112.538" y2="115.019" gradientUnits="userSpaceOnUse">
<stop stop-color="#FF9D44"/>
<stop offset="1" stop-color="#F5C58D"/>
</linearGradient>
</defs>
</svg>
