<svg xmlns="http://www.w3.org/2000/svg" width="167.579" height="154.551" viewBox="0 0 167.579 154.551">
  <g id="broken-page-illustration" transform="translate(-591 -209.501)">
    <path id="Path_36" d="M95.826,20.037a32.147,32.147,0,1,0-53.77,33.5,24.4,24.4,0,0,1,6.059,17.1q-.042,1.249-.011,2.515A43.294,43.294,0,0,0,90.823,114.8a42.711,42.711,0,0,0,17.651-81.594A24.666,24.666,0,0,1,95.826,20.037Z" transform="translate(595.179 249.25)" fill="#f4f4f4"/>
    <path id="Path_56" d="M432.755,180.351a1.8,1.8,0,0,1-1.279-.53l-3.977-3.977a1.809,1.809,0,0,1,0-2.559l3.977-3.977a1.809,1.809,0,0,1,2.559,0l3.977,3.977a1.809,1.809,0,0,1,0,2.559l-3.977,3.977a1.8,1.8,0,0,1-1.279.53Zm-1.418-5.784,1.418,1.418,1.418-1.418-1.418-1.418Z" transform="translate(311.076 99.677)" fill="#e6e6e6"/>
    <path id="Path_57" d="M347.083,72.674a1.809,1.809,0,0,1-1.809-1.809,2.182,2.182,0,0,0-2.179-2.179,1.809,1.809,0,0,1,0-3.618,2.182,2.182,0,0,0,2.179-2.179,1.809,1.809,0,1,1,3.618,0,2.181,2.181,0,0,0,2.179,2.179,1.809,1.809,0,0,1,0,3.618,2.182,2.182,0,0,0-2.179,2.179A1.809,1.809,0,0,1,347.083,72.674Z" transform="translate(361.763 148.421)" fill="#cecece"/>
    <path id="Path_8" data-name="Path 8" d="M637.508,331.457s-4.2-11.311,8.964-26.731,34.328-.338,44.964,0,21.891-2.532,29.6-17" transform="translate(34 -54.209)" fill="none" stroke="#707070" stroke-width="1" stroke-dasharray="4"/>
    <path id="Path_9" data-name="Path 9" d="M146.554,70.176a1.617,1.617,0,0,1-1.147-.475l-4.587-4.587a1.622,1.622,0,1,1,2.294-2.294l4.587,4.587a1.622,1.622,0,0,1-1.147,2.769Z" transform="translate(610.403 166.879)" fill="#707070"/>
    <path id="Path_10" data-name="Path 10" d="M141.966,70.176a1.617,1.617,0,0,0,1.147-.475l4.587-4.587a1.622,1.622,0,1,0-2.294-2.294l-4.587,4.587a1.622,1.622,0,0,0,1.147,2.769Z" transform="translate(610.403 166.879)" fill="#707070"/>
    <path id="Path_58" d="M53.06,332.889a1.809,1.809,0,0,1-1.809-1.809,2.182,2.182,0,0,0-2.179-2.179,1.809,1.809,0,1,1,0-3.618,2.182,2.182,0,0,0,2.179-2.179,1.809,1.809,0,0,1,3.618,0,2.182,2.182,0,0,0,2.179,2.179,1.809,1.809,0,1,1,0,3.618,2.181,2.181,0,0,0-2.179,2.179,1.809,1.809,0,0,1-1.809,1.809Z" transform="translate(551.43 -26.669)" fill="#e6e6e6"/>
    <path id="Path_59" d="M45.617,386.6a1.809,1.809,0,0,1-1.809-1.809,2.182,2.182,0,0,0-2.179-2.179,1.809,1.809,0,1,1,0-3.618,2.182,2.182,0,0,0,2.179-2.179,1.809,1.809,0,0,1,3.618,0,2.182,2.182,0,0,0,2.179,2.179,1.809,1.809,0,0,1,0,3.618,2.181,2.181,0,0,0-2.179,2.179,1.809,1.809,0,0,1-1.809,1.809Z" transform="translate(551.18 -46.95)" fill="#cecece"/>
    <g id="_404-illustration" data-name="404-illustration" transform="translate(82.269 67.178)">
      <path id="Path_96" d="M67.7,417.655a.57.57,0,0,1-.4-.166l-1.246-1.246a.569.569,0,0,1,0-.8l1.246-1.246a.569.569,0,0,1,.8,0l1.246,1.246a.569.569,0,0,1,0,.8L68.1,417.494A.57.57,0,0,1,67.7,417.655Zm-.443-1.817.443.443.443-.443L67.7,415.4Z" transform="translate(475.116 -217.542)" fill="rgba(96,210,250,0.7)"/>
      <g id="Group_4" data-name="Group 4" transform="translate(535.572 196.484)">
        <g id="Group_4-2" data-name="Group 4" transform="translate(0 0)">
          <g id="Group_4-3" data-name="Group 4" transform="translate(4.053 0)">
            <path id="XMLID_15_" d="M481.677,419.658H396.5a3.614,3.614,0,0,1-3.6-3.6V349.3a3.614,3.614,0,0,1,3.6-3.6h85.173a3.614,3.614,0,0,1,3.6,3.6v66.8a3.576,3.576,0,0,1-3.6,3.558Z" transform="translate(-392.9 -345.655)" fill="#e2e2e2" stroke="#afafaf" stroke-width="3"/>
            <path id="XMLID_23_" d="M485.281,356.1H392.9V349.2a3.614,3.614,0,0,1,3.6-3.6h85.173a3.614,3.614,0,0,1,3.6,3.6Z" transform="translate(-392.9 -345.6)" fill="#e2e2e2" stroke="#afafaf" stroke-width="3"/>
            <circle id="XMLID_24_" cx="1.801" cy="1.801" r="1.801" transform="translate(7.252 3.469)" fill="#afafaf"/>
            <circle id="XMLID_28_" cx="1.801" cy="1.801" r="1.801" transform="translate(13.513 3.469)" fill="#afafaf"/>
            <circle id="XMLID_38_" cx="1.801" cy="1.801" r="1.801" transform="translate(19.774 3.469)" fill="#afafaf"/>
            <g id="XMLID_61_" transform="translate(11.777 19.693)" opacity="0.68">
              <line id="XMLID_54_" x2="6.035" transform="translate(43.498)" fill="none" stroke="#fff" stroke-linecap="round" stroke-linejoin="round" stroke-miterlimit="10" stroke-width="4"/>
              <line id="XMLID_66_" x2="26.136" transform="translate(12.906)" fill="none" stroke="#aaa" stroke-linecap="round" stroke-linejoin="round" stroke-miterlimit="10" stroke-width="4"/>
              <line id="XMLID_29_" x2="9.192" fill="none" stroke="#c6c6c6" stroke-linecap="round" stroke-linejoin="round" stroke-miterlimit="10" stroke-width="4"/>
            </g>
            <g id="XMLID_42_" transform="translate(11.777 65.418)" opacity="0.68">
              <line id="XMLID_62_" x2="19.961" transform="translate(11.977)" fill="none" stroke="#adadad" stroke-linecap="round" stroke-linejoin="round" stroke-miterlimit="10" stroke-width="4"/>
              <line id="XMLID_30_" x2="6.453" fill="none" stroke="#c6c6c6" stroke-linecap="round" stroke-linejoin="round" stroke-miterlimit="10" stroke-width="4"/>
            </g>
            <g id="XMLID_27_" transform="translate(16.372 25.402)" opacity="0.68">
              <line id="XMLID_60_" x2="3.76" transform="translate(34.445)" fill="none" stroke="#fff" stroke-linecap="round" stroke-linejoin="round" stroke-miterlimit="10" stroke-width="4"/>
              <line id="XMLID_45_" x2="12.627" transform="translate(17.362)" fill="none" stroke="#b8b8b8" stroke-linecap="round" stroke-linejoin="round" stroke-miterlimit="10" stroke-width="4"/>
              <line id="XMLID_47_" x2="12.859" fill="none" stroke="#8f8f8f" stroke-linecap="round" stroke-linejoin="round" stroke-miterlimit="10" stroke-width="4"/>
            </g>
            <g id="XMLID_49_" transform="translate(22.361 31.112)" opacity="0.68">
              <line id="XMLID_59_" x2="11.095" transform="translate(13.927)" fill="none" stroke="#fff" stroke-linecap="round" stroke-linejoin="round" stroke-miterlimit="10" stroke-width="4"/>
              <line id="XMLID_50_" x2="10.446" fill="none" stroke="#ccc" stroke-linecap="round" stroke-linejoin="round" stroke-miterlimit="10" stroke-width="4"/>
            </g>
            <g id="XMLID_65_" transform="translate(16.372 36.822)" opacity="0.68">
              <line id="XMLID_58_" x2="2.275" transform="translate(21.401)" fill="none" stroke="#fff" stroke-linecap="round" stroke-linejoin="round" stroke-miterlimit="10" stroke-width="4"/>
              <line id="XMLID_70_" x2="5.153" transform="translate(12.21)" fill="none" stroke="#adadad" stroke-linecap="round" stroke-linejoin="round" stroke-miterlimit="10" stroke-width="4"/>
              <line id="XMLID_67_" x2="8.309" fill="none" stroke="#c6c6c6" stroke-linecap="round" stroke-linejoin="round" stroke-miterlimit="10" stroke-width="4"/>
            </g>
            <g id="XMLID_73_" transform="translate(16.372 42.579)" opacity="0.68">
              <line id="XMLID_77_" x2="14.808" transform="translate(17.826)" fill="none" stroke="#ebebeb" stroke-linecap="round" stroke-linejoin="round" stroke-miterlimit="10" stroke-width="4"/>
              <line id="XMLID_74_" x2="13.277" fill="none" stroke="#aaa" stroke-linecap="round" stroke-linejoin="round" stroke-miterlimit="10" stroke-width="4"/>
            </g>
            <g id="XMLID_80_" transform="translate(22.361 48.288)" opacity="0.68">
              <line id="XMLID_64_" x2="8.031" transform="translate(28.968)" fill="none" stroke="#adadad" stroke-linecap="round" stroke-linejoin="round" stroke-miterlimit="10" stroke-width="4"/>
              <line id="XMLID_84_" x2="12.859" transform="translate(11.837)" fill="none" stroke="#aaa" stroke-linecap="round" stroke-linejoin="round" stroke-miterlimit="10" stroke-width="4"/>
              <line id="XMLID_81_" x2="7.288" fill="none" stroke="#c6c6c6" stroke-linecap="round" stroke-linejoin="round" stroke-miterlimit="10" stroke-width="4"/>
            </g>
            <g id="XMLID_87_" transform="translate(22.361 53.999)" opacity="0.68">
              <line id="XMLID_95_" x2="7.01" transform="translate(17.687)" fill="none" stroke="#fff" stroke-linecap="round" stroke-linejoin="round" stroke-miterlimit="10" stroke-width="4"/>
              <line id="XMLID_90_" x2="12.859" fill="none" stroke="#adadad" stroke-linecap="round" stroke-linejoin="round" stroke-miterlimit="10" stroke-width="4"/>
            </g>
            <g id="XMLID_98_" transform="translate(16.372 59.708)" opacity="0.68">
              <line id="XMLID_71_" x2="8.031" transform="translate(41.92)" fill="none" stroke="#fff" stroke-linecap="round" stroke-linejoin="round" stroke-miterlimit="10" stroke-width="4"/>
              <path id="XMLID_102_" d="M0,0H20.194" transform="translate(17.362)" fill="none" stroke="#ebebeb" stroke-linecap="round" stroke-width="4"/>
              <line id="XMLID_99_" x2="12.859" fill="none" stroke="#fff" stroke-linecap="round" stroke-linejoin="round" stroke-miterlimit="10" stroke-width="4"/>
            </g>
          </g>
        </g>
        <g id="XMLID_72_" transform="translate(60.644 23.4)">
          <path id="XMLID_16_" d="M628.552,461.963H576.3a3.614,3.614,0,0,1-3.6-3.6V403a3.614,3.614,0,0,1,3.6-3.6h52.248a3.614,3.614,0,0,1,3.6,3.6v55.356a3.585,3.585,0,0,1-3.6,3.6Z" transform="translate(-569.096 -399.399)" fill="#e2e2e2"/>
          <path id="XMLID_14_" d="M628.552,461.963H576.3a3.614,3.614,0,0,1-3.6-3.6V403a3.614,3.614,0,0,1,3.6-3.6h52.248a3.614,3.614,0,0,1,3.6,3.6v55.356a3.585,3.585,0,0,1-3.6,3.6Z" transform="translate(-569.096 -399.399)" fill="none" stroke="#afafaf" stroke-linecap="round" stroke-linejoin="round" stroke-miterlimit="10" stroke-width="3"/>
          <g id="Group_1283" data-name="Group 1283" transform="translate(-0.678 -0.995)">
            <rect id="Rectangle_1" data-name="Rectangle 1" width="44.411" height="5.793" rx="2" transform="translate(20.407 14.375) rotate(45)" fill="#fff"/>
            <rect id="Rectangle_2" data-name="Rectangle 2" width="44.411" height="5.793" rx="2" transform="translate(51.81 18.471) rotate(135)" fill="#fff"/>
          </g>
        </g>
      </g>
    </g>
  </g>
</svg>
