<!--
 * Copyright (c) 2020, WSO2 Inc. (http://www.wso2.org) All Rights Reserved.
 *
 * WSO2 Inc. licenses this file to you under the Apache License,
 * Version 2.0 (the "License"); you may not use this file except
 * in compliance with the License.
 * You may obtain a copy of the License at
 *
 *     http://www.apache.org/licenses/LICENSE-2.0
 *
 * Unless required by applicable law or agreed to in writing,
 * software distributed under the License is distributed on an
 * "AS IS" BASIS, WITHOUT WARRANTIES OR CONDITIONS OF ANY
 * KIND, either express or implied. See the License for the
 * specific language governing permissions and limitations
 * under the License.
-->

<svg id="empty-search-illustration" width="269" height="229" viewBox="0 0 269 229" fill="none" xmlns="http://www.w3.org/2000/svg">
<path opacity="0.1" d="M267.271 157.889C259.951 120.894 217.067 91.3257 208.703 52.7738C193.501 3.72539 143.395 -4.02927 110.834 17.2724C59.2425 51.0253 114.28 59.4013 13.1255 139.259C-11.8519 158.977 -3.89295 246.018 74.6844 226.043C116.971 215.292 129.826 213.784 148.847 212.014C196.79 207.553 279.558 219.991 267.271 157.889Z" fill="url(#paint0_linear_1318_13811)"/>
<path d="M209.998 167.161L135.897 206.386L61.9087 167.161V107.928H209.998V167.161Z" fill="url(#paint1_linear_1318_13811)"/>
<path fill-rule="evenodd" clip-rule="evenodd" d="M136 206.452L210.089 167.233V108H136V206.452Z" fill="url(#paint2_linear_1318_13811)"/>
<path d="M209.998 95.2173L135.897 55.9921L169.195 39.9058L243.296 79.1314L209.998 95.2173Z" fill="url(#paint3_linear_1318_13811)"/>
<path d="M61.9087 95.2173L136.009 55.9921L102.711 39.9058L28.6108 79.1314L61.9087 95.2173Z" fill="url(#paint4_linear_1318_13811)"/>
<path d="M61.9085 95.2173L136.009 134.443L97.909 155.342L23.8086 116.117L61.9085 95.2173Z" fill="url(#paint5_linear_1318_13811)"/>
<path d="M209.997 95.2173L135.897 134.443L173.997 155.342L248.097 116.117L209.997 95.2173Z" fill="url(#paint6_linear_1318_13811)"/>
<path d="M136.009 55.9919L61.9087 95.2171L135.897 134.443L209.998 95.2171L136.009 55.9919Z" fill="#303030"/>
<path d="M94.38 91.6562C94.2806 91.6563 94.1837 91.6252 94.1029 91.5672C93.999 91.4934 93.9286 91.3813 93.9071 91.2554C93.8857 91.1296 93.915 91.0004 93.9886 90.8962C94.0775 90.7706 102.756 78.1953 93.0676 66.7308C91.3528 64.6911 89.2137 63.052 86.8002 61.9283C84.3867 60.8046 81.7572 60.2234 79.096 60.2256H78.9654C79.8855 63.4291 79.7212 66.2774 78.4184 68.4625C77.8633 69.4499 77.0442 70.2623 76.0532 70.8083C75.0622 71.3542 73.9389 71.6119 72.8097 71.5525C71.8749 71.4757 70.9828 71.1274 70.2425 70.5502C69.5023 69.973 68.946 69.192 68.642 68.3027C67.5764 65.517 68.69 62.816 71.625 61.0751C73.4843 60.0474 75.5503 59.4518 77.6703 59.3323C76.9806 57.4997 76.0839 55.7523 74.9975 54.1242C71.4992 48.7693 65.1235 45.0624 57.5046 43.9539C51.0477 43.0149 44.8598 44.121 41.738 46.771C41.6408 46.8534 41.5148 46.8938 41.3879 46.8832C41.2609 46.8726 41.1434 46.8119 41.0611 46.7144C40.9789 46.617 40.9386 46.4907 40.9492 46.3635C40.9598 46.2363 41.0203 46.1185 41.1176 46.036C44.4396 43.2161 50.9258 42.0239 57.6424 43.0039C65.5336 44.1522 72.1518 48.0137 75.8013 53.5991C76.9845 55.3705 77.947 57.2804 78.6672 59.2861C81.538 59.217 84.3876 59.7943 87.0063 60.9754C89.6249 62.1566 91.9458 63.9115 93.798 66.1109C103.975 78.1525 94.8626 91.3236 94.7694 91.4555C94.725 91.5175 94.6666 91.5681 94.5989 91.603C94.5311 91.6379 94.4561 91.6561 94.38 91.6562ZM77.9819 60.2608C75.9266 60.3486 73.9192 60.9109 72.1162 61.9039C69.5827 63.4065 68.6444 65.6137 69.5409 67.9586C69.7838 68.6771 70.2304 69.3091 70.8261 69.7771C71.4217 70.2452 72.1405 70.5292 72.8946 70.5942C73.8442 70.6368 74.7868 70.4139 75.6171 69.9503C76.4474 69.4867 77.1327 68.8008 77.5963 67.9692C78.792 65.9622 78.9015 63.2944 77.9805 60.2608H77.9819Z" fill="#292A2E"/>
<path d="M33.4502 54.531C32.6342 54.7767 31.7547 54.6934 30.999 54.2989C30.2433 53.9044 29.6711 53.2298 29.4042 52.4187C29.1374 51.6077 29.197 50.7243 29.5703 49.9566C29.9436 49.1889 30.6011 48.5976 31.4029 48.3086C32.2047 48.0196 33.0874 48.0557 33.863 48.4092C34.6386 48.7627 35.2459 49.4058 35.5556 50.2014C35.8653 50.997 35.8528 51.8823 35.5209 52.6689C35.1891 53.4554 34.5639 54.0811 33.7787 54.4126C33.6714 54.458 33.5618 54.4975 33.4502 54.531ZM31.8535 49.1828C31.7757 49.2062 31.6993 49.2339 31.6245 49.2656C31.072 49.4991 30.6322 49.9395 30.3989 50.4932C30.1656 51.0468 30.1572 51.6699 30.3755 52.2296C30.5937 52.7894 31.0214 53.2416 31.5674 53.49C32.1134 53.7384 32.7346 53.7634 33.2987 53.5595C33.8628 53.3556 34.3252 52.9391 34.5874 52.3986C34.8496 51.8581 34.8909 51.2364 34.7025 50.6658C34.5141 50.0953 34.1109 49.621 33.5787 49.344C33.0466 49.067 32.4276 49.0091 31.8535 49.1828Z" fill="#292A2E"/>
<path d="M33.4443 46.989C32.6724 47.22 31.8425 47.1569 31.1142 46.8117C30.3859 46.4666 29.8106 45.8637 29.4989 45.1192C29.2491 44.5223 29.1814 43.8645 29.3045 43.229C29.4276 42.5936 29.736 42.009 30.1906 41.5492C30.6452 41.0894 31.2257 40.775 31.8586 40.6459C32.4915 40.5167 33.1483 40.5786 33.7461 40.8236C34.3439 41.0687 34.8558 41.4859 35.217 42.0226C35.5782 42.5592 35.7725 43.1911 35.7754 43.8385C35.7782 44.4858 35.5895 45.1194 35.233 45.6592C34.8766 46.199 34.3684 46.6208 33.7728 46.8711C33.6654 46.9161 33.5558 46.9555 33.4443 46.989ZM31.8495 41.6404C31.7708 41.664 31.6934 41.6918 31.6176 41.7236C31.0543 41.9608 30.6079 42.4124 30.3767 42.9793C30.1455 43.5462 30.1482 44.1819 30.3844 44.7467C30.5567 45.1584 30.8443 45.5112 31.2125 45.7626C31.5806 46.0139 32.0135 46.153 32.4589 46.1629C32.9042 46.1728 33.3428 46.0532 33.7218 45.8185C34.1007 45.5838 34.4037 45.2441 34.594 44.8404C34.7844 44.4368 34.8539 43.9865 34.7943 43.5441C34.7347 43.1017 34.5485 42.686 34.2582 42.3474C33.9678 42.0088 33.5858 41.7618 33.1584 41.6363C32.7309 41.5107 32.2763 41.5124 31.8495 41.6404Z" fill="#292A2E"/>
<path d="M32.5124 50.3929C34.8707 50.3929 36.7824 49.1131 36.7824 47.5344C36.7824 45.9558 34.8707 44.676 32.5124 44.676C30.1542 44.676 28.2424 45.9558 28.2424 47.5344C28.2424 49.1131 30.1542 50.3929 32.5124 50.3929Z" fill="white"/>
<path d="M34.4025 50.6032C33.7903 50.7845 33.1551 50.876 32.5167 50.8746C29.8525 50.8746 27.7627 49.4115 27.7627 47.5388C27.7627 45.666 29.8463 44.1976 32.5095 44.1947C33.6706 44.1724 34.813 44.4902 35.7965 45.1092C36.2382 45.3398 36.6085 45.6874 36.867 46.1141C37.1255 46.5408 37.2624 47.0303 37.2628 47.5295C37.2633 48.0287 37.1273 48.5185 36.8695 48.9456C36.6118 49.3728 36.2422 49.721 35.8008 49.9525C35.3694 50.2375 34.8982 50.4568 34.4025 50.6032ZM30.9152 45.3864C29.6321 45.7714 28.7226 46.6026 28.7231 47.5363C28.7231 48.8248 30.46 49.912 32.5167 49.9101C33.4883 49.9306 34.4447 49.667 35.2693 49.1516C35.5785 49.0088 35.8404 48.7802 36.0239 48.4927C36.2073 48.2053 36.3047 47.8711 36.3044 47.5299C36.3041 47.1887 36.2061 46.8547 36.0222 46.5676C35.8382 46.2804 35.5759 46.0522 35.2664 45.91C34.4413 45.3957 33.4843 45.1337 32.5129 45.1563C31.972 45.1549 31.4338 45.2324 30.9152 45.3864Z" fill="#292A2E"/>
<path d="M33.5597 50.3057L33.4588 44.7467L32.0797 44.6909L31.9832 50.3707L33.5597 50.3057Z" fill="#292A2E"/>
<path d="M26.8473 48.7438C27.0908 48.7438 27.2881 48.546 27.2881 48.3019C27.2881 48.0579 27.0908 47.8601 26.8473 47.8601C26.6039 47.8601 26.4065 48.0579 26.4065 48.3019C26.4065 48.546 26.6039 48.7438 26.8473 48.7438Z" fill="#292A2E"/>
<path d="M27.1916 46.3798C27.435 46.3798 27.6324 46.1819 27.6324 45.9379C27.6324 45.6939 27.435 45.4961 27.1916 45.4961C26.9481 45.4961 26.7507 45.6939 26.7507 45.9379C26.7507 46.1819 26.9481 46.3798 27.1916 46.3798Z" fill="#292A2E"/>
<path d="M169.832 63.8998C169.729 63.8998 169.629 63.8668 169.547 63.8055C169.464 63.7443 169.403 63.6581 169.373 63.5596C167.78 57.5981 167.355 51.3837 168.122 45.2602C169.363 36.3081 174.289 24.5591 190.706 19.4145C193.016 18.6702 195.385 18.1258 197.788 17.7873C198.561 12.945 201.504 7.69208 208.085 4.06792C223.722 -4.54344 234.284 3.18281 234.389 3.26174C234.49 3.33833 234.558 3.45235 234.576 3.57872C234.594 3.70508 234.561 3.83344 234.485 3.93556C234.408 4.03768 234.294 4.10519 234.168 4.12324C234.042 4.14129 233.914 4.10841 233.812 4.03182C233.712 3.95674 223.619 -3.38833 208.548 4.91211C202.399 8.299 199.584 13.1601 198.783 17.6727C206.024 16.958 209.492 19.3789 211.048 21.2074C212.011 22.3069 212.63 23.6661 212.828 25.1157C213.025 26.5652 212.793 28.041 212.159 29.3591C211.659 30.4245 210.848 31.3127 209.833 31.9064C208.818 32.5001 207.648 32.7713 206.476 32.6844C202.432 32.4466 199.086 29.0371 197.952 23.9979C197.577 22.2921 197.478 20.5373 197.657 18.7999C195.397 19.1253 193.168 19.6391 190.993 20.3357C178.198 24.3454 170.824 32.7773 169.073 45.3954C168.322 51.38 168.736 57.4537 170.291 63.2804C170.313 63.3524 170.318 63.4285 170.306 63.5027C170.293 63.5769 170.263 63.647 170.218 63.7076C170.174 63.7681 170.115 63.8173 170.048 63.8512C169.981 63.8851 169.907 63.9027 169.832 63.9027V63.8998ZM198.636 18.6796C198.436 20.3839 198.521 22.1096 198.888 23.7857C199.926 28.3955 202.927 31.511 206.532 31.7232C207.515 31.7938 208.496 31.565 209.347 31.0668C210.198 30.5687 210.879 29.8244 211.3 28.9317C211.849 27.7823 212.048 26.4964 211.873 25.2341C211.699 23.9719 211.157 22.7891 210.316 21.8331C208.071 19.1922 203.973 18.1256 198.636 18.6796Z" fill="#292A2E"/>
<path d="M245.575 8.1263C244.928 8.12494 244.295 7.9403 243.748 7.5937C243.201 7.24709 242.764 6.75264 242.486 6.16742C242.207 5.5822 242.1 4.93006 242.176 4.28628C242.251 3.64249 242.507 3.03329 242.914 2.52899C243.32 2.02469 243.861 1.64586 244.473 1.4362C245.085 1.22655 245.743 1.19462 246.373 1.34411C247.002 1.4936 247.576 1.8184 248.029 2.28104C248.482 2.74368 248.796 3.32529 248.933 3.95875C249.041 4.4609 249.035 4.98082 248.916 5.48043C248.797 5.98005 248.569 6.44672 248.247 6.84627C247.925 7.24582 247.518 7.56813 247.055 7.78961C246.593 8.01109 246.087 8.12613 245.575 8.1263ZM245.582 2.21405C245.071 2.21404 244.573 2.3728 244.156 2.66846C243.739 2.96413 243.424 3.38213 243.254 3.86485C243.084 4.34758 243.067 4.87128 243.207 5.36375C243.346 5.85623 243.634 6.29325 244.032 6.61458C244.43 6.9359 244.917 7.12572 245.427 7.15786C245.936 7.19 246.444 7.06289 246.878 6.79405C247.313 6.5252 247.654 6.12785 247.853 5.65677C248.053 5.18569 248.103 4.66406 247.994 4.16378C247.877 3.61028 247.573 3.11415 247.134 2.75899C246.694 2.40384 246.146 2.21138 245.582 2.21405Z" fill="#292A2E"/>
<path d="M244.129 15.9815C243.249 15.9814 242.402 15.6432 241.763 15.0364C241.124 14.4296 240.742 13.6004 240.695 12.7195C240.647 11.8387 240.939 10.9732 241.509 10.3012C242.079 9.62924 242.885 9.20195 243.76 9.10731C244.635 9.01266 245.513 9.25786 246.213 9.79243C246.913 10.327 247.382 11.1102 247.524 11.9809C247.665 12.8516 247.468 13.7435 246.973 14.4729C246.478 15.2023 245.723 15.7138 244.863 15.9021C244.622 15.9549 244.376 15.9815 244.129 15.9815ZM244.141 10.0688C243.963 10.0689 243.786 10.0881 243.612 10.1261C242.999 10.2611 242.461 10.6266 242.108 11.1474C241.755 11.6682 241.615 12.3047 241.716 12.926C241.818 13.5472 242.153 14.1059 242.652 14.4871C243.152 14.8683 243.779 15.043 244.403 14.9753C245.027 14.9076 245.602 14.6026 246.009 14.1231C246.416 13.6436 246.624 13.026 246.59 12.3975C246.557 11.7689 246.284 11.1772 245.828 10.744C245.373 10.3109 244.769 10.0692 244.141 10.0688Z" fill="#292A2E"/>
<path d="M249.286 9.53238C249.588 7.88844 247.843 6.18755 245.387 5.73337C242.932 5.27919 240.695 6.24369 240.393 7.88764C240.09 9.53158 241.836 11.2324 244.291 11.6866C246.747 12.1408 248.983 11.1763 249.286 9.53238Z" fill="white"/>
<path d="M245.501 12.2808C245.066 12.2801 244.632 12.2398 244.204 12.1605C242.996 11.9597 241.873 11.41 240.973 10.5789C240.578 10.2418 240.275 9.81058 240.092 9.32502C239.908 8.83945 239.849 8.31526 239.921 7.80089C240.037 7.29476 240.278 6.82617 240.623 6.43837C240.968 6.05058 241.405 5.75609 241.893 5.58211C243.035 5.1497 244.274 5.03853 245.474 5.26062C246.675 5.4827 247.792 6.0296 248.705 6.84215C249.1 7.17924 249.403 7.6105 249.587 8.09606C249.77 8.58163 249.829 9.10582 249.758 9.62019C249.641 10.1263 249.4 10.5949 249.055 10.9827C248.71 11.3705 248.274 11.665 247.785 11.839C247.061 12.1393 246.284 12.2896 245.501 12.2808ZM244.174 6.10191C243.522 6.0936 242.875 6.21753 242.272 6.46625C241.931 6.58073 241.623 6.77871 241.378 7.04225C241.132 7.3058 240.956 7.62659 240.865 7.9756C240.826 8.3341 240.876 8.69679 241.012 9.03084C241.147 9.3649 241.364 9.65977 241.642 9.88875C242.419 10.5682 243.364 11.0258 244.378 11.2133C245.391 11.4009 246.437 11.3116 247.405 10.9548C247.746 10.8403 248.053 10.6424 248.299 10.3788C248.545 10.1153 248.721 9.79449 248.812 9.44548C248.851 9.08696 248.801 8.72419 248.665 8.39009C248.53 8.05599 248.313 7.76114 248.035 7.53233C247.27 6.83337 246.319 6.37292 245.297 6.20732C244.928 6.13828 244.552 6.103 244.176 6.10191H244.174Z" fill="#292A2E"/>
<path d="M244.285 5.62256L243.319 11.4299L244.744 11.7552L245.939 5.85984L244.285 5.62256Z" fill="#292A2E"/>
<path d="M250.073 11.8702C250.331 11.8702 250.54 11.6608 250.54 11.4024C250.54 11.144 250.331 10.9346 250.073 10.9346C249.816 10.9346 249.607 11.144 249.607 11.4024C249.607 11.6608 249.816 11.8702 250.073 11.8702Z" fill="#292A2E"/>
<path d="M250.887 9.47544C251.145 9.47544 251.354 9.26599 251.354 9.00762C251.354 8.74925 251.145 8.53979 250.887 8.53979C250.629 8.53979 250.42 8.74925 250.42 9.00762C250.42 9.26599 250.629 9.47544 250.887 9.47544Z" fill="#292A2E"/>
<defs>
<linearGradient id="paint0_linear_1318_13811" x1="134.5" y1="6.10205" x2="134.5" y2="229" gradientUnits="userSpaceOnUse">
<stop stop-color="#EE575C"/>
<stop offset="1" stop-color="#F67147"/>
</linearGradient>
<linearGradient id="paint1_linear_1318_13811" x1="135.953" y1="107.928" x2="135.953" y2="206.386" gradientUnits="userSpaceOnUse">
<stop stop-color="#465867"/>
<stop offset="1" stop-color="#728594"/>
</linearGradient>
<linearGradient id="paint2_linear_1318_13811" x1="119" y1="124" x2="173.044" y2="206.452" gradientUnits="userSpaceOnUse">
<stop stop-color="#3C4B58"/>
<stop offset="1" stop-color="#728594"/>
</linearGradient>
<linearGradient id="paint3_linear_1318_13811" x1="189.596" y1="39.9058" x2="189.596" y2="95.2173" gradientUnits="userSpaceOnUse">
<stop stop-color="#FF9D44"/>
<stop offset="1" stop-color="#F5C58D"/>
</linearGradient>
<linearGradient id="paint4_linear_1318_13811" x1="82.31" y1="39.9058" x2="82.31" y2="95.2173" gradientUnits="userSpaceOnUse">
<stop stop-color="#FF9D44"/>
<stop offset="1" stop-color="#F5C58D"/>
</linearGradient>
<linearGradient id="paint5_linear_1318_13811" x1="79.9088" y1="95.2173" x2="79.9088" y2="155.342" gradientUnits="userSpaceOnUse">
<stop stop-color="#FF9D44"/>
<stop offset="1" stop-color="#F5C58D"/>
</linearGradient>
<linearGradient id="paint6_linear_1318_13811" x1="191.997" y1="95.2173" x2="191.997" y2="155.342" gradientUnits="userSpaceOnUse">
<stop stop-color="#FF9D44"/>
<stop offset="1" stop-color="#F5C58D"/>
</linearGradient>
</defs>
</svg>
