<?xml version="1.0" encoding="iso-8859-1"?>

<!--
 * Copyright (c) 2019, WSO2 Inc. (http://www.wso2.org) All Rights Reserved.
 *
 * WSO2 Inc. licenses this file to you under the Apache License,
 * Version 2.0 (the "License"); you may not use this file except
 * in compliance with the License.
 * You may obtain a copy of the License at
 *
 * http://www.apache.org/licenses/LICENSE-2.0
 *
 * Unless required by applicable law or agreed to in writing,
 * software distributed under the License is distributed on an
 * "AS IS" BASIS, WITHOUT WARRANTIES OR CONDITIONS OF ANY
 * KIND, either express or implied. See the License for the
 * specific language governing permissions and limitations
 * under the License.
-->

<svg id="error-status-shield" class="icon" xmlns="http://www.w3.org/2000/svg" width="120" height="130" viewBox="0 0 565.446 623.199">
    <g id="error-shield" transform="translate(26.276 56.066)">
        <path id="Path_5" class="path" d="M306.447,623.2h0A435.207,435.207,0,0,0,589.17,215.579V105.55A105.549,105.549,0,0,1,483.621,0H129.273A105.549,105.549,0,0,1,23.724,105.55V215.578A435.208,435.208,0,0,0,306.447,623.2Z" transform="translate(-50 -56.066)" fill="#b9b9b9"/>
        <path id="Path_6" class="path" d="M256,623.2h0a435.207,435.207,0,0,0,282.723-407.62V105.55A105.549,105.549,0,0,1,433.174,0H256V623.2Z" transform="translate(0.447 -56.066)" fill="#adadad"/>
        <path id="Path_1" class="path" d="M256,512h0A357.552,357.552,0,0,0,488.276,177.113v-90.4A86.716,86.716,0,0,1,401.56,0H110.44A86.716,86.716,0,0,1,23.724,86.716v90.4A357.552,357.552,0,0,0,256,512Z" fill="#d90101"/>
        <path id="Path_2" class="path" d="M256,512h0A357.552,357.552,0,0,0,488.276,177.113v-90.4A86.716,86.716,0,0,1,401.56,0H256V512Z" fill="#b92400"/>
        <g id="cross" transform="translate(141.724 115.999)">
            <path id="Path_11" class="path" d="M135.277,114.944l90.4-90.4A14.375,14.375,0,0,0,205.349,4.213l-90.4,90.4L24.541,4.213A14.375,14.375,0,1,0,4.212,24.542l90.406,90.4-90.406,90.4A14.373,14.373,0,1,0,24.541,225.67l90.406-90.4,90.4,90.4a14.375,14.375,0,0,0,20.329-20.329Z" transform="translate(0)" fill="#fff"/>
        </g>
    </g>
</svg>
