<?xml version="1.0" encoding="iso-8859-1"?>

<!--
 * Copyright (c) 2019, WSO2 Inc. (http://www.wso2.org) All Rights Reserved.
 *
 * WSO2 Inc. licenses this file to you under the Apache License,
 * Version 2.0 (the "License"); you may not use this file except
 * in compliance with the License.
 * You may obtain a copy of the License at
 *
 * http://www.apache.org/licenses/LICENSE-2.0
 *
 * Unless required by applicable law or agreed to in writing,
 * software distributed under the License is distributed on an
 * "AS IS" BASIS, WITHOUT WARRANTIES OR CONDITIONS OF ANY
 * KIND, either express or implied. See the License for the
 * specific language governing permissions and limitations
 * under the License.
-->

<svg id="okay-status-shield" class="icon" xmlns="http://www.w3.org/2000/svg" width="120" height="130" viewBox="0 0 121.081 130">
    <g id="shield" transform="translate(0 0)">
        <path id="Path_5" d="M84.264,130h0c36.41-13.269,60.54-47.16,60.54-85.03V22.018c-12.483,0-22.6-9.858-22.6-22.018H46.326c0,12.16-10.119,22.018-22.6,22.018V44.97c0,37.87,24.13,71.762,60.54,85.03Z" transform="translate(-23.724)" fill="#b9b9b9"/>
        <path id="Path_6" d="M256,130h0c37.513-13.269,62.374-47.16,62.374-85.03V22.018c-12.861,0-23.286-9.858-23.286-22.018H256V130Z" transform="translate(-197.293)" fill="#adadad"/>
        <path id="Path_1" d="M73.135,105.467h0c29.717-10.765,49.411-38.261,49.411-68.984V17.863c-10.188,0-18.447-8-18.447-17.863H42.171c0,9.865-8.259,17.863-18.447,17.863V36.483c0,30.723,19.694,58.219,49.411,68.984Z" transform="translate(-12.693 12.369)" fill="#3a9800"/>
        <path id="Path_2" d="M256,105.467h0c30.819-10.765,51.245-38.261,51.245-68.984V17.863c-10.566,0-19.131-8-19.131-17.863H256V105.467Z" transform="translate(-197.392 12.369)" fill="#348800"/>
    </g>
    <g id="tick" transform="translate(34.567 39.585)">
        <g id="Group_7" transform="translate(0)">
            <path id="Path_10" d="M51.251,68.759a2.6,2.6,0,0,0-3.678,0L16.416,99.917,4.439,87.941A2.6,2.6,0,1,0,.761,91.618l13.815,13.815a2.6,2.6,0,0,0,3.678,0l33-33A2.6,2.6,0,0,0,51.251,68.759Z" transform="translate(0 -67.998)" fill="#fff"/>
        </g>
    </g>
</svg>
