<svg width="14" height="12" viewBox="0 0 14 12" fill="none" xmlns="http://www.w3.org/2000/svg">
<path d="M4.88034 0.767705C3.88484 0.879348 3.1121 1.40093 2.69615 2.23999C2.46468 2.70575 2.3794 3.08952 2.36199 3.73147C2.32719 5.02757 2.69789 6.16667 3.3836 6.87839C3.59593 7.09819 3.62726 7.14878 3.62726 7.2674C3.62726 7.52732 3.41841 7.69827 2.77447 7.9704C2.27671 8.17973 1.94604 8.32452 1.77026 8.40999C0.776496 8.88796 0.212609 9.53863 0.0768586 10.3602C0.0263872 10.6585 -0.0153822 11.2987 0.0055025 11.4156C0.0559739 11.6843 0.287446 11.9163 0.56939 11.9826C0.61638 11.993 2.24887 12 5.03176 12H9.41929L9.4715 11.9564C9.56026 11.8814 9.54982 11.7209 9.45409 11.6651C9.42103 11.6459 8.62393 11.6407 5.01957 11.6337C0.774756 11.625 0.623342 11.6232 0.564169 11.5918C0.411014 11.5116 0.355321 11.4209 0.355321 11.2551C0.355321 11.0615 0.421456 10.4579 0.459745 10.2974C0.583313 9.77064 0.913987 9.345 1.46917 8.99263C1.72327 8.83214 2.29064 8.5635 2.96939 8.28265C3.21479 8.18147 3.43408 8.07332 3.54024 8.00005C3.93357 7.72967 4.08846 7.31799 3.92835 6.97259C3.89006 6.89061 3.82566 6.80687 3.69513 6.66732C3.46018 6.41961 3.30703 6.20156 3.16606 5.92071C2.88411 5.35203 2.72226 4.5967 2.72226 3.84137C2.72226 2.96567 2.95373 2.315 3.44452 1.81959C3.78041 1.47943 4.14938 1.28754 4.67498 1.18113C4.84205 1.14799 4.92559 1.14101 5.22842 1.14101C5.59042 1.14101 5.71051 1.15322 5.98549 1.223C6.44844 1.33813 6.82784 1.54571 7.13415 1.85448C7.44742 2.16847 7.67019 2.5976 7.76939 3.07382C7.95562 3.96696 7.75547 5.26132 7.30819 6.05154C7.1707 6.29576 7.06105 6.44403 6.85569 6.66209C6.63118 6.90456 6.58593 6.98829 6.57374 7.19239C6.55286 7.52383 6.73038 7.82038 7.07324 8.02448C7.13763 8.06111 7.40391 8.1902 7.66671 8.30882C8.81189 8.82691 9.19652 9.01182 9.19652 9.04496C9.19652 9.07287 9.09731 9.1566 9.0277 9.18451C8.99637 9.19847 8.89195 9.21591 8.79274 9.22463C8.59086 9.24382 8.50036 9.26999 8.38897 9.34674C8.29499 9.41129 8.23408 9.48281 8.17317 9.59968L8.12617 9.68865L8.12095 10.423C8.11573 11.1295 8.11747 11.1609 8.15228 11.2551C8.20275 11.3895 8.30369 11.4994 8.44293 11.5674L8.55953 11.6232L11.0918 11.625H13.6258L13.7146 11.5779C13.8312 11.5168 13.9078 11.4366 13.9582 11.3284L14 11.2412V8.70305C14 6.18761 13.9983 6.16493 13.9635 6.08643C13.9182 5.98525 13.8381 5.90327 13.7302 5.8457L13.6432 5.7986L12.8461 5.79337C12.1239 5.78813 12.049 5.78639 12.0577 5.76022C12.0647 5.74452 12.0908 5.66079 12.1152 5.57357C12.1726 5.38343 12.1778 5.1584 12.1326 5.00489C12.0525 4.73625 11.8001 4.48854 11.5078 4.3926C11.3964 4.35597 11.3494 4.35074 11.1196 4.35074C10.8812 4.35248 10.8464 4.35597 10.7228 4.39958C10.2686 4.55832 10.0023 4.95779 10.065 5.38692C10.0772 5.46193 10.1033 5.58229 10.1259 5.65556C10.1485 5.72882 10.1624 5.79337 10.1572 5.7986C10.152 5.80383 9.84568 5.80732 9.47498 5.80732H8.80145L8.69354 5.8614C8.57868 5.91897 8.50384 6.0027 8.46207 6.11783C8.44467 6.16667 8.43945 6.37077 8.43945 6.9848C8.43945 7.74362 8.44119 7.79072 8.47251 7.84306C8.51602 7.91458 8.61871 7.9704 8.70398 7.9704C8.74227 7.9704 8.82929 7.95121 8.89717 7.92853C9.07991 7.86573 9.15649 7.85876 9.28354 7.89016C9.44017 7.93028 9.5533 7.99831 9.68383 8.1274C10.0249 8.46581 10.0737 8.97169 9.80391 9.37465C9.61595 9.65725 9.36185 9.80204 9.05728 9.80204C8.95982 9.80204 8.91283 9.81076 8.8728 9.83518C8.7562 9.9067 8.76316 10.0794 8.88499 10.1439C8.96504 10.1841 9.26439 10.1701 9.42277 10.116C9.94314 9.94159 10.3278 9.38686 10.3313 8.80772C10.3313 8.60711 10.3156 8.51291 10.246 8.32975C10.0598 7.83433 9.48194 7.4401 9.05554 7.51685C8.99463 7.52906 8.91805 7.54825 8.88499 7.56221C8.85366 7.57616 8.82059 7.58663 8.81189 7.58663C8.80319 7.58663 8.79623 7.29182 8.79623 6.922V6.25738L8.8467 6.20679L8.89717 6.15621H9.55678C9.97795 6.15621 10.239 6.14923 10.2843 6.13702C10.3835 6.10911 10.4653 6.04107 10.5053 5.95211C10.5436 5.86663 10.5436 5.8771 10.4635 5.53694C10.4026 5.27702 10.4043 5.19154 10.4757 5.04676C10.6028 4.78684 10.9404 4.65775 11.3111 4.72753C11.5112 4.76416 11.6853 4.8915 11.7619 5.05722C11.8175 5.17933 11.8106 5.36599 11.7392 5.61544C11.6731 5.8457 11.6748 5.91897 11.7497 6.01491C11.8558 6.14574 11.8367 6.144 12.7365 6.14574C13.4727 6.14748 13.544 6.14923 13.5875 6.17888C13.6136 6.19458 13.6397 6.23122 13.6467 6.25738C13.6554 6.28355 13.6606 7.39125 13.6606 8.7205C13.6606 11.3232 13.6658 11.1819 13.5701 11.2464C13.5249 11.2743 13.3822 11.2761 11.0692 11.2708C9.00855 11.2656 8.60826 11.2621 8.56997 11.2412C8.47251 11.1906 8.46555 11.1348 8.46555 10.4771C8.46555 10.1021 8.47251 9.85437 8.4847 9.81076C8.52646 9.6555 8.64133 9.59271 8.91283 9.57526C9.07643 9.5648 9.12342 9.55433 9.2087 9.51421C9.46628 9.38686 9.65946 9.05019 9.57244 8.87924C9.55678 8.84958 9.50979 8.80074 9.46976 8.77109C9.36359 8.69084 8.50558 8.2809 7.69108 7.91807C7.49093 7.8291 7.28556 7.72967 7.23683 7.69827C6.99144 7.54302 6.88005 7.31275 6.96011 7.12261C6.97403 7.08947 7.05409 6.98829 7.13937 6.90107C7.32559 6.70744 7.42306 6.57835 7.57795 6.3132C7.7224 6.06724 7.82857 5.83174 7.92429 5.54566C8.10529 5.00315 8.18187 4.55832 8.19753 3.94952C8.21842 3.22384 8.11573 2.69703 7.86163 2.21383C7.59013 1.69573 7.19332 1.31371 6.66599 1.06077C6.15779 0.818293 5.45641 0.703161 4.88034 0.767705Z" fill="black"/>
</svg>
