<!--
 * Copyright (c) 2025, WSO2 LLC. (http://www.wso2.org).
 *
 * WSO2 LLC. licenses this file to you under the Apache License,
 * Version 2.0 (the "License"); you may not use this file except
 * in compliance with the License.
 * You may obtain a copy of the License at
 *
 *     http://www.apache.org/licenses/LICENSE-2.0
 *
 * Unless required by applicable law or agreed to in writing,
 * software distributed under the License is distributed on an
 * "AS IS" BASIS, WITHOUT WARRANTIES OR CONDITIONS OF ANY
 * KIND, either express or implied. See the License for the
 * specific language governing permissions and limitations
 * under the License.
-->
 
<svg width="22" height="25" viewBox="0 0 22 25" fill="none" xmlns="http://www.w3.org/2000/svg">
<path d="M17.293 0.391602C18.6735 0.391843 19.7929 1.51107 19.793 2.8916V12.5068C19.7928 12.7827 19.5688 13.0066 19.293 13.0068C19.017 13.0068 18.7931 12.7828 18.793 12.5068V2.8916C18.7929 2.06335 18.1212 1.39184 17.293 1.3916H2.90527C2.07694 1.39168 1.40531 2.06325 1.40527 2.8916V20.6699C1.40545 21.4981 2.07703 22.1698 2.90527 22.1699H10.9346C11.2107 22.1699 11.4345 22.3938 11.4346 22.6699C11.4344 22.9459 11.2106 23.1699 10.9346 23.1699H2.90527C1.52474 23.1698 0.405452 22.0504 0.405273 20.6699V2.8916C0.405309 1.51097 1.52465 0.391682 2.90527 0.391602H17.293ZM20.3271 16.1191C20.5017 15.9058 20.8165 15.8738 21.0303 16.0479C21.2441 16.2224 21.276 16.5381 21.1016 16.752L16.3496 22.5713L16.0527 22.9355L15.6709 22.6602L12.6377 20.4785C12.4138 20.3172 12.3623 20.0043 12.5234 19.7803C12.6847 19.5564 12.9976 19.506 13.2217 19.667L15.8721 21.5732L20.3271 16.1191ZM10.3398 18.4092C10.6155 18.4096 10.8396 18.6335 10.8398 18.9092C10.8396 19.1849 10.6155 19.4088 10.3398 19.4092H5.85352C5.57752 19.4092 5.35375 19.1851 5.35352 18.9092C5.35374 18.6332 5.57751 18.4092 5.85352 18.4092H10.3398ZM14.3457 15.5C14.6216 15.5003 14.8457 15.724 14.8457 16C14.8455 16.2758 14.6215 16.4997 14.3457 16.5H5.85352C5.57752 16.5 5.35375 16.2759 5.35352 16C5.35352 15.7239 5.57737 15.5 5.85352 15.5H14.3457ZM10.0596 8.2002C12.5499 8.20041 14.7296 9.6771 15.0957 12.0068C15.2027 12.6898 14.631 13.1811 14.0498 13.1816H6.06934C5.48775 13.1816 4.91541 12.6903 5.02246 12.0068L5.06152 11.791C5.52462 9.58612 7.64693 8.20024 10.0596 8.2002ZM10.0596 9.2002C7.92743 9.20024 6.28159 10.4396 6.00977 12.1592L6.01172 12.1611C6.02011 12.1695 6.04004 12.1816 6.06934 12.1816H14.0488C14.0783 12.1815 14.0993 12.1685 14.1074 12.1602V12.1592C13.8356 10.4396 12.1914 9.2004 10.0596 9.2002ZM10.0586 3.08887C11.2516 3.08887 12.2188 4.10777 12.2188 5.36426L12.208 5.59668C12.0971 6.74362 11.1769 7.63867 10.0586 7.63867C8.94045 7.63848 8.02002 6.74352 7.90918 5.59668L7.89844 5.36426C7.89844 4.1079 8.86572 3.08907 10.0586 3.08887ZM10.0586 4.08887C9.46615 4.08908 8.89844 4.61076 8.89844 5.36426C8.89882 6.11734 9.46635 6.63846 10.0586 6.63867C10.651 6.63867 11.2184 6.1175 11.2188 5.36426C11.2188 4.61061 10.6512 4.08887 10.0586 4.08887Z" fill="#F47B20"/>
</svg>
