<svg class="icon" xmlns="http://www.w3.org/2000/svg" width="512" height="512" viewBox="0 0 512 512" version="1.1"><path d="M 0.913 38.241 C 1.391 39.483, 17.982 76.950, 37.780 121.500 C 57.579 166.050, 79.851 216.234, 87.275 233.019 C 94.699 249.805, 101.702 265.555, 102.837 268.019 C 103.973 270.484, 113.869 292.750, 124.830 317.500 C 142.889 358.281, 144.977 362.500, 147.091 362.500 C 149.222 362.500, 151.528 357.591, 173.706 305.848 L 197.987 249.197 149.624 142.848 L 101.260 36.500 50.651 36.241 L 0.043 35.982 0.913 38.241 M 386.997 86.250 C 316.986 244.066, 268.629 350.433, 245.951 396.500 C 228.221 432.517, 209.850 456.644, 191.798 467.620 C 185.738 471.304, 175.045 475.310, 168.165 476.472 C 165.874 476.859, 164 477.594, 164 478.105 C 164 478.669, 184.125 478.904, 215.250 478.704 C 264.036 478.391, 266.873 478.272, 274.249 476.229 C 297.910 469.675, 320.049 451.075, 337.038 423.479 C 343.831 412.444, 359.141 379.758, 396.513 296.500 C 422.906 237.702, 504.614 53.551, 510.654 39.250 L 512.027 36 460.658 36 L 409.289 36 386.997 86.250" stroke="none" fill="#040404" fill-rule="evenodd"/><path d="M 0 17.991 L 0 35.982 50.630 36.241 L 101.260 36.500 149.624 142.848 L 197.987 249.197 173.706 305.848 C 151.528 357.591, 149.222 362.500, 147.091 362.500 C 144.977 362.500, 142.890 358.282, 124.833 317.500 C 113.874 292.750, 103.869 270.250, 102.600 267.500 C 101.331 264.750, 94.524 249.450, 87.474 233.500 C 80.424 217.550, 57.862 166.700, 37.336 120.500 L 0.016 36.500 0.008 274.252 L 0 512.004 256.250 511.752 L 512.500 511.500 512.745 255.750 L 512.990 0 256.495 0 L 0 0 0 17.991 M 0.413 18.500 C 0.414 28.400, 0.564 32.315, 0.746 27.199 C 0.928 22.084, 0.927 13.984, 0.744 9.199 C 0.561 4.415, 0.412 8.600, 0.413 18.500 M 386.997 86.250 C 316.986 244.066, 268.629 350.433, 245.951 396.500 C 228.221 432.517, 209.850 456.644, 191.798 467.620 C 185.738 471.304, 175.045 475.310, 168.165 476.472 C 165.874 476.859, 164 477.594, 164 478.105 C 164 478.669, 184.125 478.904, 215.250 478.704 C 264.036 478.391, 266.873 478.272, 274.249 476.229 C 297.910 469.675, 320.049 451.075, 337.038 423.479 C 346.339 408.370, 373.597 348.664, 455.501 164 C 477.090 115.325, 498.621 66.725, 503.348 56 L 511.941 36.500 512.223 274 L 512.504 511.500 512.752 273.750 L 513 36 461.145 36 L 409.289 36 386.997 86.250" stroke="none" fill="#fbfbfb" fill-rule="evenodd"/></svg>