<?xml version="1.0" encoding="iso-8859-1"?>

<!--
 * Copyright (c) 2019, WSO2 Inc. (http://www.wso2.org) All Rights Reserved.
 *
 * WSO2 Inc. licenses this file to you under the Apache License,
 * Version 2.0 (the "License"); you may not use this file except
 * in compliance with the License.
 * You may obtain a copy of the License at
 *
 * http://www.apache.org/licenses/LICENSE-2.0
 *
 * Unless required by applicable law or agreed to in writing,
 * software distributed under the License is distributed on an
 * "AS IS" BASIS, WITHOUT WARRANTIES OR CONDITIONS OF ANY
 * KIND, either express or implied. See the License for the
 * specific language governing permissions and limitations
 * under the License.
-->

<svg id="warning-status-shield" class="icon" xmlns="http://www.w3.org/2000/svg"  width="120" height="130" viewBox="0 0 565.446 623.199">
    <g id="warning-shield" transform="translate(26.276 56.066)">
        <path id="Path_5" d="M306.447,623.2h0A435.207,435.207,0,0,0,589.17,215.579V105.55A105.549,105.549,0,0,1,483.621,0H129.273A105.549,105.549,0,0,1,23.724,105.55V215.578A435.208,435.208,0,0,0,306.447,623.2Z" transform="translate(-50 -56.066)" fill="#b9b9b9"/>
        <path id="Path_6" d="M256,623.2h0a435.207,435.207,0,0,0,282.723-407.62V105.55A105.549,105.549,0,0,1,433.174,0H256V623.2Z" transform="translate(0.447 -56.066)" fill="#adadad"/>
        <path id="Path_1" d="M256,512h0A357.552,357.552,0,0,0,488.276,177.113v-90.4A86.716,86.716,0,0,1,401.56,0H110.44A86.716,86.716,0,0,1,23.724,86.716v90.4A357.552,357.552,0,0,0,256,512Z" fill="#ffdb0c"/>
        <path id="Path_2" d="M256,512h0A357.552,357.552,0,0,0,488.276,177.113v-90.4A86.716,86.716,0,0,1,401.56,0H256V512Z" fill="#fbbf00"/>
        <g id="warning" transform="translate(116.724 49.143)">
            <g id="Group_2" transform="translate(0 35.857)">
                <g id="Group_1">
                    <path id="Path_7" d="M276.072,238.26,161.354,48.008a25.126,25.126,0,0,0-43.033,0L3.6,238.26a25.125,25.125,0,0,0,21.516,38.1H254.556a25.125,25.125,0,0,0,21.516-38.1Zm-15.494,16.375a6.928,6.928,0,0,1-6.023,3.516H25.119A6.917,6.917,0,0,1,19.2,247.663L133.914,57.411a6.917,6.917,0,0,1,11.846,0L260.479,247.663A6.925,6.925,0,0,1,260.578,254.635Z" transform="translate(0 -35.857)" fill="#fff"/>
                </g>
            </g>
            <g id="Group_4" transform="translate(127.59 110.773)">
                <g id="Group_3">
                    <path id="Path_8" d="M245.91,173.005c-6.926,0-12.332,3.717-12.332,10.305,0,20.1,2.365,48.99,2.365,69.094,0,5.237,4.562,7.433,9.968,7.433,4.054,0,9.8-2.2,9.8-7.433,0-20.1,2.365-48.99,2.365-69.094C258.073,176.722,252.5,173.005,245.91,173.005Z" transform="translate(-233.578 -173.005)" fill="#fff"/>
                </g>
            </g>
            <g id="Group_6" transform="translate(127.084 209.261)">
                <g id="Group_5">
                    <path id="Path_9" d="M245.659,353.306a13.008,13.008,0,1,0,0,26.016,13.009,13.009,0,0,0,0-26.016Z" transform="translate(-232.651 -353.306)" fill="#fff"/>
                </g>
            </g>
        </g>
    </g>
</svg>
