<?xml version="1.0" encoding="utf-8"?>

<!--
 * Copyright (c) 2024, WSO2 LLC. (https://www.wso2.com).
 *
 * WSO2 LLC. licenses this file to you under the Apache License,
 * Version 2.0 (the "License"); you may not use this file except
 * in compliance with the License.
 * You may obtain a copy of the License at
 *
 *     http://www.apache.org/licenses/LICENSE-2.0
 *
 * Unless required by applicable law or agreed to in writing,
 * software distributed under the License is distributed on an
 * "AS IS" BASIS, WITHOUT WARRANTIES OR CONDITIONS OF ANY
 * KIND, either express or implied. See the License for the
 * specific language governing permissions and limitations
 * under the License.
-->
<svg id="custom-protocol-app-illustration" class="icon" width="61" height="58" viewBox="0 0 61 58" fill="none" xmlns="http://www.w3.org/2000/svg">
    <path
        d="M59.7461 35.6614L55.9463 34.579C55.5791 33.0823 54.9857 31.6504 54.1864 30.3328L56.1091 26.8793C56.1881 26.7364 56.2186 26.5717 56.1959 26.41C56.1733 26.2482 56.0987 26.0982 55.9835 25.9825L53.3862 23.3852C53.2704 23.2699 53.1204 23.1954 52.9587 23.1728C52.797 23.1501 52.6322 23.1806 52.4893 23.2596L49.0359 25.1823C47.7183 24.383 46.2864 23.7896 44.7897 23.4224L43.7073 19.6226C43.6626 19.465 43.5676 19.3263 43.4369 19.2276C43.3061 19.1289 43.1468 19.0755 42.9829 19.0755H39.3101C39.1463 19.0756 38.987 19.129 38.8563 19.2277C38.7255 19.3264 38.6306 19.4651 38.5857 19.6226L37.5033 23.4224C36.0066 23.7896 34.5748 24.383 33.2572 25.1823L29.8037 23.2596C29.6608 23.1806 29.4961 23.1501 29.3343 23.1728C29.1726 23.1954 29.0226 23.2699 28.9069 23.3852L26.3095 25.9825C26.1943 26.0982 26.1197 26.2482 26.0971 26.41C26.0745 26.5717 26.1049 26.7364 26.184 26.8793L28.1066 30.3328C27.3073 31.6504 26.7139 33.0823 26.3468 34.579L22.547 35.6614C22.3894 35.7061 22.2507 35.8011 22.152 35.9318C22.0532 36.0625 21.9998 36.2219 21.9999 36.3857V40.0586C21.9998 40.2224 22.0532 40.3818 22.152 40.5125C22.2507 40.6433 22.3894 40.7382 22.547 40.7829L26.3468 41.8654C26.7139 43.362 27.3074 44.7939 28.1066 46.1115L26.184 49.565C26.1049 49.7079 26.0745 49.8726 26.0971 50.0343C26.1197 50.1961 26.1943 50.3461 26.3095 50.4618L28.9069 53.0592C29.0226 53.1744 29.1726 53.2489 29.3343 53.2716C29.4961 53.2942 29.6608 53.2637 29.8037 53.1847L33.2572 51.2621C34.5748 52.0613 36.0066 52.6548 37.5033 53.0219L38.5857 56.8217C38.6305 56.9793 38.7254 57.118 38.8561 57.2167C38.9869 57.3155 39.1463 57.3688 39.3101 57.3688H42.9829C43.1468 57.3688 43.3061 57.3155 43.4369 57.2167C43.5676 57.118 43.6626 56.9793 43.7073 56.8217L44.7897 53.0219C46.2864 52.6548 47.7183 52.0613 49.0359 51.2621L52.4893 53.1847C52.6322 53.2637 52.797 53.2942 52.9587 53.2716C53.1204 53.2489 53.2704 53.1744 53.3862 53.0592L55.9835 50.4618C56.0987 50.3461 56.1733 50.1961 56.1959 50.0343C56.2186 49.8726 56.1881 49.7079 56.1091 49.565L54.1864 46.1115C54.9857 44.7939 55.5791 43.362 55.9463 41.8654L59.7461 40.7829C59.9036 40.7382 60.0423 40.6433 60.1411 40.5125C60.2398 40.3818 60.2932 40.2224 60.2931 40.0586V36.3857C60.2932 36.2219 60.2398 36.0625 60.1411 35.9318C60.0423 35.8011 59.9036 35.7061 59.7461 35.6614ZM41.1451 47.6478C39.2809 47.6478 37.4586 47.095 35.9085 46.0593C34.3585 45.0236 33.1504 43.5515 32.4369 41.8292C31.7235 40.1069 31.5369 38.2117 31.9006 36.3833C32.2643 34.5549 33.162 32.8754 34.4802 31.5572C35.7984 30.239 37.4779 29.3413 39.3063 28.9776C41.1347 28.6139 43.0299 28.8006 44.7522 29.514C46.4745 30.2274 47.9466 31.4355 48.9823 32.9855C50.018 34.5356 50.5708 36.3579 50.5708 38.2222C50.5706 40.722 49.5775 43.1193 47.8099 44.8869C46.0423 46.6545 43.6449 47.6476 41.1451 47.6478Z"
        fill="#5C6C72" />
    <path
        d="M21.0141 29.8527L18.9624 29.2684C18.7642 28.4603 18.4439 27.6873 18.0125 26.9759L19.0473 25.1133C19.0895 25.0361 19.1056 24.9474 19.0931 24.8603C19.0807 24.7733 19.0404 24.6926 18.9783 24.6304L17.5799 23.2244C17.5177 23.1623 17.437 23.122 17.3499 23.1096C17.2629 23.0971 17.1741 23.1132 17.097 23.1554L15.2344 24.1902C14.523 23.7588 13.7499 23.4385 12.9419 23.2403L12.3576 21.1886C12.3334 21.1035 12.2822 21.0287 12.2116 20.9754C12.141 20.9221 12.0549 20.8933 11.9665 20.8933H9.97825C9.88983 20.8934 9.80383 20.9222 9.73326 20.9755C9.66268 21.0288 9.61137 21.1036 9.5871 21.1886L9.00278 23.2403C8.19476 23.4385 7.42172 23.7588 6.71035 24.1902L4.8477 23.1554C4.77056 23.1132 4.68182 23.0971 4.59477 23.1096C4.50771 23.122 4.42703 23.1623 4.36479 23.2244L2.96229 24.6269C2.90017 24.6892 2.85988 24.7698 2.84744 24.8569C2.835 24.9439 2.8511 25.0327 2.8933 25.1098L3.92811 26.9725C3.49669 27.6839 3.17635 28.4569 2.97816 29.2649L0.926489 29.8492C0.841407 29.8734 0.766538 29.9247 0.713249 29.9953C0.659959 30.0659 0.631161 30.1519 0.631226 30.2404V32.2238C0.631161 32.3122 0.659959 32.3983 0.713249 32.4689C0.766538 32.5395 0.841407 32.5907 0.926489 32.6149L2.97816 33.1992C3.17635 34.0072 3.49669 34.7803 3.92811 35.4917L2.8933 37.3543C2.85121 37.4315 2.83518 37.5202 2.84761 37.6072C2.86004 37.6942 2.90027 37.7749 2.96229 37.8372L4.36479 39.2397C4.42703 39.3018 4.50771 39.3421 4.59477 39.3546C4.68182 39.367 4.77056 39.3509 4.8477 39.3087L6.71035 38.2739C7.42171 38.7053 8.19476 39.0257 9.00278 39.2239L9.5871 41.2755C9.61127 41.3606 9.66255 41.4355 9.73315 41.4888C9.80375 41.542 9.8898 41.5708 9.97825 41.5708H11.9616C12.05 41.5707 12.136 41.5419 12.2066 41.4886C12.2772 41.4353 12.3285 41.3605 12.3528 41.2755L12.9371 39.2239C13.7451 39.0257 14.5182 38.7053 15.2295 38.2739L17.0922 39.3087C17.1693 39.3509 17.2581 39.367 17.3451 39.3546C17.4322 39.3421 17.5128 39.3018 17.5751 39.2397L18.9776 37.8372C19.0397 37.775 19.08 37.6943 19.0924 37.6072C19.1049 37.5202 19.0888 37.4314 19.0466 37.3543L18.0118 35.4917C18.4432 34.7803 18.7635 34.0073 18.9617 33.1992L21.0134 32.6149C21.0985 32.5907 21.1733 32.5395 21.2266 32.4689C21.2799 32.3983 21.3087 32.3122 21.3087 32.2238V30.2404C21.3087 30.1519 21.2799 30.0659 21.2266 29.9953C21.1733 29.9247 21.0985 29.8734 21.0134 29.8492L21.0141 29.8527ZM10.9696 34.4879C10.3264 34.4879 9.69765 34.2972 9.16286 33.9398C8.62806 33.5825 8.21124 33.0746 7.9651 32.4804C7.71896 31.8861 7.65456 31.2323 7.78004 30.6014C7.90552 29.9706 8.21525 29.3911 8.67005 28.9363C9.12486 28.4815 9.70432 28.1718 10.3352 28.0463C10.966 27.9208 11.6199 27.9852 12.2141 28.2314C12.8083 28.4775 13.3162 28.8943 13.6736 29.4291C14.0309 29.9639 14.2216 30.5927 14.2216 31.2359C14.2216 32.0982 13.8791 32.9253 13.2694 33.5352C12.6596 34.145 11.832 34.4877 10.9696 34.4879Z"
        fill="#F4604B" />
    <path
        d="M34.8115 10.2756L32.6039 9.64643C32.3904 8.77616 32.0454 7.94356 31.5808 7.17739L32.6991 5.16919C32.7451 5.08597 32.7629 4.99005 32.7497 4.89586C32.7365 4.80167 32.6931 4.71432 32.6259 4.64696L31.1158 3.13683C31.0485 3.06969 30.9611 3.02625 30.8669 3.01306C30.7727 2.99987 30.6768 3.01765 30.5936 3.06371L28.5854 4.18198C27.8192 3.71732 26.9866 3.37232 26.1164 3.15891L25.4872 0.951332C25.4611 0.859692 25.4058 0.779062 25.3297 0.721671C25.2537 0.66428 25.161 0.633255 25.0657 0.633301H22.9298C22.8346 0.633255 22.7419 0.66428 22.6658 0.721671C22.5897 0.779062 22.5345 0.859692 22.5083 0.951332L21.8792 3.15891C21.0089 3.37232 20.1763 3.71732 19.4101 4.18198L17.4019 3.06371C17.3187 3.01765 17.2228 2.99987 17.1286 3.01306C17.0344 3.02625 16.9471 3.06969 16.8797 3.13683L15.3696 4.64696C15.3024 4.71432 15.259 4.80167 15.2458 4.89586C15.2326 4.99005 15.2504 5.08597 15.2965 5.16919L16.4147 7.17739C15.9501 7.94356 15.6051 8.77616 15.3917 9.64643L13.1841 10.2756C13.0924 10.3017 13.0118 10.357 12.9544 10.433C12.897 10.5091 12.866 10.6018 12.8661 10.6971V12.8357C12.866 12.931 12.897 13.0237 12.9544 13.0998C13.0118 13.1758 13.0924 13.2311 13.1841 13.2572L15.3917 13.8864C15.6051 14.7566 15.9501 15.5892 16.4147 16.3554L15.2937 18.3608C15.2476 18.4441 15.2299 18.54 15.2431 18.6342C15.2562 18.7284 15.2997 18.8157 15.3668 18.8831L16.8769 20.3932C16.9443 20.4603 17.0317 20.5038 17.1258 20.517C17.22 20.5302 17.316 20.5124 17.3992 20.4663L19.4074 19.348C20.1735 19.8128 21.0061 20.1578 21.8764 20.3711L22.5056 22.5787C22.5317 22.6703 22.587 22.751 22.663 22.8084C22.7391 22.8658 22.8318 22.8968 22.9271 22.8967H25.0657C25.161 22.8968 25.2537 22.8658 25.3297 22.8084C25.4058 22.751 25.4611 22.6703 25.4872 22.5787L26.1164 20.3711C26.9866 20.1577 27.8192 19.8127 28.5854 19.348L30.5936 20.4663C30.6768 20.5124 30.7727 20.5302 30.8669 20.517C30.9611 20.5038 31.0485 20.4603 31.1158 20.3932L32.6259 18.8831C32.6931 18.8157 32.7365 18.7284 32.7497 18.6342C32.7629 18.54 32.7451 18.4441 32.6991 18.3608L31.5808 16.3526C32.0455 15.5865 32.3905 14.7539 32.6039 13.8836L34.8115 13.2544C34.9031 13.2283 34.9837 13.1731 35.0411 13.097C35.0985 13.0209 35.1295 12.9282 35.1295 12.8329V10.6943C35.1295 10.5991 35.0985 10.5063 35.0411 10.4303C34.9837 10.3542 34.9031 10.2989 34.8115 10.2728V10.2756ZM23.995 16.096C23.1384 16.096 22.3011 15.842 21.5888 15.3661C20.8766 14.8902 20.3215 14.2138 19.9937 13.4224C19.6659 12.631 19.5801 11.7602 19.7472 10.9201C19.9143 10.08 20.3268 9.30824 20.9325 8.70254C21.5382 8.09684 22.3099 7.68435 23.1501 7.51724C23.9902 7.35013 24.861 7.4359 25.6524 7.7637C26.4438 8.0915 27.1202 8.64662 27.5961 9.35885C28.072 10.0711 28.326 10.9084 28.326 11.765C28.3258 12.9136 27.8695 14.0151 27.0573 14.8273C26.2451 15.6395 25.1436 16.0958 23.995 16.096Z"
        fill="#E9E9E9" />
    <path
        d="M42.9823 58H39.3101C39.0095 57.9991 38.7172 57.9007 38.4773 57.7196C38.2373 57.5385 38.0626 57.2844 37.9793 56.9955L36.9963 53.5462C35.6852 53.1923 34.4254 52.6703 33.2482 51.9933L30.1107 53.7401C29.8476 53.8853 29.5445 53.9413 29.2469 53.8997C28.9493 53.8582 28.6731 53.7213 28.4598 53.5096L25.8625 50.9123C25.6508 50.6991 25.5139 50.4232 25.4723 50.1257C25.4306 49.8282 25.4864 49.5252 25.6314 49.2621L27.3788 46.1239C26.7017 44.9467 26.1798 43.6869 25.8259 42.3759L22.3766 41.3928C22.0877 41.3095 21.8337 41.1348 21.6526 40.8948C21.4714 40.6549 21.373 40.3627 21.3721 40.062V36.3892C21.373 36.0886 21.4714 35.7963 21.6526 35.5564C21.8337 35.3164 22.0877 35.1417 22.3766 35.0584L25.8259 34.0754C26.1798 32.7643 26.7018 31.5045 27.3788 30.3273L25.6321 27.1898C25.4869 26.9267 25.4308 26.6236 25.4724 26.326C25.5139 26.0284 25.6508 25.7522 25.8625 25.5389L28.4598 22.9416C28.673 22.7299 28.949 22.593 29.2465 22.5514C29.5439 22.5097 29.8469 22.5655 30.11 22.7105L33.2482 24.4572C34.4254 23.7802 35.6852 23.2582 36.9963 22.9043L37.9793 19.455C38.0626 19.166 38.2375 18.9119 38.4776 18.7308C38.7177 18.5496 39.01 18.4513 39.3108 18.4505H42.9823C43.2829 18.4515 43.5751 18.5498 43.815 18.731C44.055 18.9121 44.2297 19.1661 44.313 19.455L45.2961 22.9043C46.6071 23.2583 47.8669 23.7802 49.0441 24.4572L52.1817 22.7105C52.4448 22.5653 52.7478 22.5093 53.0454 22.5508C53.3431 22.5923 53.6192 22.7292 53.8325 22.9409L56.4299 25.5382C56.6415 25.7514 56.7784 26.0274 56.8201 26.3249C56.8617 26.6223 56.8059 26.9253 56.661 27.1884L54.9142 30.3266C55.5913 31.5038 56.1132 32.7636 56.4671 34.0747L59.9165 35.0577C60.2052 35.1411 60.4592 35.3159 60.6403 35.5558C60.8214 35.7957 60.9199 36.0879 60.9209 36.3885V40.0545C60.92 40.3551 60.8216 40.6473 60.6405 40.8872C60.4594 41.1272 60.2053 41.3019 59.9165 41.3852L56.4671 42.3683C56.1131 43.6793 55.5912 44.9391 54.9142 46.1163L56.661 49.2538C56.8061 49.517 56.862 49.8201 56.8203 50.1178C56.7787 50.4154 56.6416 50.6915 56.4299 50.9047L53.8325 53.5021C53.6193 53.7137 53.3434 53.8506 53.0459 53.8923C52.7484 53.9339 52.4454 53.8781 52.1823 53.7332L49.0441 51.9857C47.8669 52.6627 46.6071 53.1847 45.2961 53.5386L44.313 56.988C44.2296 57.2768 44.0549 57.5307 43.8149 57.7118C43.575 57.8929 43.2828 57.9914 42.9823 57.9924V58ZM33.2551 50.6322C33.3705 50.6322 33.4836 50.664 33.5821 50.724C34.845 51.4903 36.2176 52.0591 37.6523 52.4107C37.7603 52.4372 37.8594 52.4918 37.9395 52.569C38.0196 52.6462 38.0778 52.7432 38.1083 52.8501L39.1907 56.6499C39.198 56.6756 39.2134 56.6982 39.2347 56.7143C39.256 56.7304 39.282 56.739 39.3087 56.7389H42.9823C43.0091 56.7392 43.0352 56.7306 43.0566 56.7145C43.0781 56.6984 43.0936 56.6757 43.1009 56.6499L44.1833 52.8501C44.2138 52.7432 44.2721 52.6462 44.3521 52.569C44.4322 52.4918 44.5313 52.4372 44.6393 52.4107C46.0741 52.0591 47.4467 51.4903 48.7095 50.724C48.8047 50.6663 48.9134 50.6349 49.0246 50.6328C49.1358 50.6307 49.2456 50.6581 49.3428 50.7122L52.7963 52.6349C52.8196 52.6478 52.8465 52.6527 52.8729 52.649C52.8993 52.6453 52.9237 52.633 52.9426 52.6142L55.5399 50.0168C55.5587 49.9978 55.5708 49.9732 55.5744 49.9467C55.5781 49.9202 55.573 49.8933 55.5599 49.8699L53.638 46.4171C53.5839 46.3199 53.5565 46.2101 53.5585 46.0989C53.5606 45.9877 53.592 45.8789 53.6497 45.7838C54.416 44.5209 54.9848 43.1483 55.3364 41.7136C55.3629 41.6056 55.4176 41.5065 55.4947 41.4264C55.5719 41.3463 55.6689 41.2881 55.7759 41.2576L59.5763 40.1752C59.602 40.1679 59.6246 40.1525 59.6407 40.1312C59.6568 40.1099 59.6654 40.0839 59.6653 40.0572V36.3844C59.6656 36.3575 59.657 36.3314 59.6409 36.31C59.6248 36.2885 59.6021 36.273 59.5763 36.2657L55.7766 35.1833C55.6696 35.1528 55.5726 35.0945 55.4954 35.0145C55.4183 34.9344 55.3636 34.8353 55.3371 34.7273C54.9855 33.2926 54.4167 31.92 53.6504 30.6571C53.5927 30.5619 53.5613 30.4532 53.5592 30.342C53.5572 30.2308 53.5846 30.121 53.6387 30.0238L55.5613 26.5703C55.5742 26.547 55.5791 26.5201 55.5754 26.4937C55.5717 26.4673 55.5595 26.4429 55.5406 26.424L52.9433 23.8267C52.9242 23.8079 52.8996 23.7958 52.8731 23.7922C52.8466 23.7886 52.8197 23.7936 52.7963 23.8067L49.3435 25.7286C49.2463 25.7828 49.1365 25.8102 49.0253 25.8082C48.9141 25.8061 48.8054 25.7746 48.7102 25.7169C47.4473 24.9507 46.0747 24.3819 44.64 24.0302C44.532 24.0037 44.4329 23.949 44.3528 23.8719C44.2727 23.7947 44.2145 23.6977 44.184 23.5907L43.1016 19.791C43.0943 19.7652 43.0788 19.7425 43.0573 19.7264C43.0359 19.7103 43.0098 19.7017 42.9829 19.702H39.3108C39.2841 19.7017 39.258 19.7103 39.2367 19.7264C39.2154 19.7425 39.1999 19.7652 39.1928 19.791L38.1104 23.5907C38.0799 23.6977 38.0217 23.7947 37.9416 23.8719C37.8615 23.949 37.7624 24.0037 37.6544 24.0302C36.2196 24.3818 34.847 24.9506 33.5842 25.7169C33.4891 25.7746 33.3803 25.8061 33.2691 25.8082C33.1579 25.8102 33.0481 25.7828 32.9509 25.7286L29.4974 23.806C29.4741 23.7931 29.4472 23.7882 29.4208 23.7919C29.3944 23.7956 29.37 23.8078 29.3511 23.8267L26.7538 26.424C26.735 26.4431 26.7229 26.4677 26.7193 26.4942C26.7157 26.5207 26.7208 26.5476 26.7338 26.571L28.6558 30.0203C28.7098 30.1175 28.7372 30.2273 28.7352 30.3385C28.7331 30.4498 28.7017 30.5585 28.644 30.6536C27.8777 31.9165 27.3088 33.2891 26.9573 34.7238C26.9308 34.8319 26.8762 34.9309 26.799 35.011C26.7218 35.0911 26.6248 35.1493 26.5179 35.1798L22.7181 36.2622C22.6923 36.2695 22.6696 36.2851 22.6535 36.3065C22.6374 36.328 22.6288 36.3541 22.6291 36.3809V40.0545C22.6289 40.0812 22.6375 40.1072 22.6536 40.1285C22.6696 40.1499 22.6923 40.1653 22.7181 40.1724L26.5179 41.2548C26.6248 41.2853 26.7218 41.3436 26.799 41.4237C26.8762 41.5037 26.9308 41.6028 26.9573 41.7108C27.3089 43.1456 27.8777 44.5182 28.644 45.781C28.7017 45.8762 28.7331 45.9849 28.7352 46.0961C28.7372 46.2073 28.7098 46.3171 28.6558 46.4143L26.7331 49.8678C26.7202 49.8911 26.7153 49.918 26.719 49.9444C26.7227 49.9708 26.7349 49.9953 26.7538 50.0141L29.3511 52.6114C29.3701 52.6303 29.3947 52.6425 29.4213 52.6461C29.4478 52.6497 29.4748 52.6446 29.4981 52.6314L32.9509 50.7088C33.0445 50.6567 33.15 50.6294 33.2572 50.6294L33.2551 50.6322ZM41.1438 48.2777C39.3262 48.2779 37.5425 47.7854 35.9825 46.8527C34.4225 45.9199 33.1446 44.5818 32.2845 42.9805C31.4245 41.3793 31.0146 39.5749 31.0984 37.7592C31.1822 35.9436 31.7566 34.1846 32.7605 32.6694C32.8063 32.6004 32.8652 32.5411 32.9339 32.4949C33.0026 32.4487 33.0798 32.4165 33.1609 32.4001C33.2421 32.3837 33.3257 32.3834 33.407 32.3993C33.4882 32.4153 33.5655 32.447 33.6345 32.4928C33.7035 32.5386 33.7628 32.5975 33.809 32.6662C33.8552 32.735 33.8875 32.8121 33.9039 32.8933C33.9203 32.9744 33.9205 33.058 33.9046 33.1393C33.8887 33.2205 33.8569 33.2979 33.8111 33.3669C32.5979 35.1964 32.1117 37.4131 32.4477 39.5824C32.7837 41.7518 33.9177 43.7175 35.6275 45.0943C37.3373 46.4711 39.4996 47.1598 41.6908 47.0254C43.8819 46.891 45.9438 45.9432 47.4725 44.3677C49.0012 42.7922 49.8864 40.7026 49.9548 38.5084C50.0231 36.3143 49.2695 34.1737 47.8418 32.5061C46.4141 30.8386 44.4151 29.7644 42.2366 29.4939C40.0581 29.2235 37.8571 29.7763 36.0649 31.0441C35.9975 31.0939 35.9208 31.1297 35.8394 31.1495C35.7579 31.1693 35.6733 31.1727 35.5905 31.1594C35.5078 31.1462 35.4285 31.1165 35.3573 31.0722C35.2861 31.0279 35.2245 30.9699 35.176 30.9015C35.1275 30.8331 35.0931 30.7558 35.0749 30.6739C35.0567 30.5921 35.055 30.5075 35.0698 30.425C35.0847 30.3425 35.1159 30.2637 35.1616 30.1934C35.2072 30.1231 35.2664 30.0626 35.3357 30.0155C36.6267 29.1016 38.1151 28.5052 39.6799 28.2747C41.2447 28.0442 42.8418 28.186 44.3415 28.6888C45.8412 29.1915 47.2011 30.0409 48.3108 31.168C49.4205 32.2951 50.2487 33.6681 50.7281 35.1754C51.2074 36.6827 51.3244 38.2818 51.0696 39.8429C50.8148 41.4039 50.1953 42.8828 49.2615 44.1594C48.3277 45.4361 47.1059 46.4744 45.6954 47.1901C44.2849 47.9058 42.7255 48.278 41.1438 48.2777Z"
        fill="#5C6C72" />
    <path
        d="M11.9616 42.2055H9.97826C9.75286 42.2047 9.53379 42.1309 9.35392 41.995C9.17406 41.8592 9.0431 41.6687 8.98071 41.4521L8.49435 39.744C7.87214 39.5634 7.27177 39.3147 6.70414 39.0024L5.15194 39.8668C4.95464 39.9756 4.72741 40.0175 4.5043 39.9863C4.28118 39.955 4.07419 39.8524 3.91431 39.6936L2.51181 38.2911C2.35314 38.1314 2.25051 37.9245 2.21929 37.7015C2.18808 37.4785 2.22995 37.2514 2.33865 37.0542L3.20306 35.5013C2.89066 34.9337 2.64195 34.3333 2.46145 33.7111L0.753336 33.2248C0.536749 33.1624 0.346242 33.0314 0.210409 32.8515C0.0745757 32.6717 0.000745409 32.4526 0 32.2272V30.2438C0.000745409 30.0184 0.0745757 29.7994 0.210409 29.6195C0.346242 29.4396 0.536749 29.3087 0.753336 29.2463L2.46145 28.7599C2.64196 28.1377 2.89067 27.5373 3.20306 26.9697L2.33865 25.4175C2.22979 25.2202 2.18782 24.993 2.21904 24.7698C2.25026 24.5467 2.35298 24.3397 2.51181 24.1799L3.91431 22.7774C4.07414 22.6188 4.28101 22.5162 4.50397 22.485C4.72694 22.4538 4.95402 22.4956 5.15125 22.6042L6.70414 23.4686C7.27173 23.1562 7.87212 22.9075 8.49435 22.727L8.98071 21.0189C9.0431 20.8023 9.17406 20.6118 9.35392 20.476C9.53379 20.3401 9.75286 20.2663 9.97826 20.2656H11.9616C12.187 20.2663 12.4061 20.3401 12.586 20.476C12.7658 20.6118 12.8968 20.8023 12.9592 21.0189L13.4455 22.727C14.0677 22.9076 14.6681 23.1563 15.2357 23.4686L16.7879 22.6042C16.9852 22.4954 17.2124 22.4534 17.4355 22.4845C17.6586 22.5155 17.8656 22.6181 18.0256 22.7767L19.4281 24.1792C19.5867 24.339 19.6894 24.5458 19.7206 24.7688C19.7518 24.9918 19.7099 25.2189 19.6012 25.4161L18.7368 26.969C19.0492 27.5366 19.2979 28.137 19.4784 28.7592L21.1865 29.2456C21.4031 29.308 21.5936 29.4389 21.7295 29.6188C21.8653 29.7987 21.9391 30.0177 21.9399 30.2431V32.2265C21.9391 32.4519 21.8653 32.671 21.7295 32.8508C21.5936 33.0307 21.4031 33.1617 21.1865 33.2241L19.4784 33.7104C19.2979 34.3326 19.0491 34.933 18.7368 35.5006L19.6012 37.0528C19.7101 37.2501 19.7521 37.4773 19.7208 37.7005C19.6896 37.9236 19.5869 38.1306 19.4281 38.2905L18.0256 39.693C17.8658 39.8516 17.6589 39.9543 17.4359 39.9855C17.2129 40.0167 16.9858 39.9748 16.7886 39.8661L15.2357 39.0017C14.6681 39.3141 14.0678 39.5628 13.4455 39.7433L12.9592 41.4514C12.8968 41.668 12.7658 41.8585 12.586 41.9944C12.4061 42.1302 12.187 42.2047 11.9616 42.2055ZM10.1473 40.9444H11.7933L12.3314 39.0548C12.3619 38.9479 12.4201 38.8509 12.5002 38.7737C12.5803 38.6965 12.6794 38.6419 12.7874 38.6154C13.5332 38.4325 14.2467 38.1368 14.9032 37.7386C14.9984 37.6809 15.1071 37.6495 15.2183 37.6474C15.3295 37.6453 15.4393 37.6727 15.5365 37.7268L17.2536 38.683L18.4174 37.5192L17.4613 35.8021C17.4072 35.7049 17.3798 35.5951 17.3818 35.4839C17.3839 35.3726 17.4153 35.2639 17.473 35.1688C17.8704 34.5119 18.1651 33.7982 18.347 33.0523C18.3736 32.9443 18.4282 32.8452 18.5054 32.7651C18.5825 32.685 18.6795 32.6268 18.7865 32.5963L20.676 32.0582V30.4122L18.7865 29.8741C18.6795 29.8436 18.5825 29.7853 18.5054 29.7052C18.4282 29.6251 18.3736 29.5261 18.347 29.4181C18.1642 28.6722 17.8686 27.9587 17.4702 27.3022C17.4126 27.2071 17.3811 27.0984 17.3791 26.9872C17.377 26.8759 17.4044 26.7661 17.4585 26.6689L18.4147 24.9518L17.2508 23.788L15.5338 24.7442C15.4366 24.7983 15.3268 24.8257 15.2155 24.8236C15.1043 24.8216 14.9956 24.7901 14.9005 24.7325C14.244 24.3341 13.5305 24.0384 12.7846 23.8556C12.6766 23.8291 12.5776 23.7745 12.4975 23.6973C12.4174 23.6201 12.3591 23.5232 12.3286 23.4162L11.7905 21.5267H10.1473L9.60918 23.4162C9.57868 23.5232 9.52043 23.6201 9.44035 23.6973C9.36026 23.7745 9.26119 23.8291 9.15317 23.8556C8.40735 24.0384 7.69384 24.3341 7.03735 24.7325C6.9422 24.7901 6.8335 24.8216 6.72228 24.8236C6.61105 24.8257 6.50126 24.7983 6.40405 24.7442L4.68766 23.788L3.52385 24.9518L4.48069 26.6662C4.53478 26.7634 4.56218 26.8732 4.56012 26.9844C4.55806 27.0956 4.52661 27.2043 4.46897 27.2995C4.07068 27.956 3.775 28.6695 3.59214 29.4153C3.56562 29.5233 3.511 29.6224 3.43382 29.7025C3.35664 29.7826 3.25966 29.8408 3.1527 29.8713L1.26315 30.4094V32.0547L3.1527 32.5928C3.25966 32.6233 3.35664 32.6816 3.43382 32.7617C3.511 32.8417 3.56562 32.9408 3.59214 33.0488C3.77495 33.7947 4.07063 34.5082 4.46897 35.1647C4.52661 35.2598 4.55806 35.3685 4.56012 35.4797C4.56218 35.591 4.53478 35.7007 4.48069 35.798L3.52454 37.515L4.68835 38.6788L6.40543 37.7227C6.50264 37.6686 6.61243 37.6412 6.72366 37.6433C6.83488 37.6453 6.94358 37.6768 7.03873 37.7344C7.69525 38.1327 8.40875 38.4284 9.15455 38.6112C9.26256 38.6378 9.36164 38.6924 9.44173 38.7696C9.52181 38.8467 9.58006 38.9437 9.61056 39.0507L10.1473 40.9444Z"
        fill="#F4604B" />
    <path
        d="M10.9703 35.1178C10.2024 35.1178 9.45173 34.89 8.81324 34.4634C8.17475 34.0368 7.67711 33.4304 7.38325 32.721C7.08939 32.0115 7.0125 31.2309 7.16231 30.4777C7.31212 29.7246 7.6819 29.0328 8.22489 28.4898C8.76788 27.9468 9.45969 27.577 10.2128 27.4272C10.966 27.2774 11.7466 27.3543 12.4561 27.6481C13.1655 27.942 13.7719 28.4396 14.1985 29.0781C14.6252 29.7166 14.8529 30.4673 14.8529 31.2352C14.8518 32.2646 14.4424 33.2515 13.7145 33.9794C12.9866 34.7073 11.9997 35.1167 10.9703 35.1178ZM10.9703 28.6137C10.4518 28.6137 9.94497 28.7674 9.51386 29.0555C9.08276 29.3435 8.74675 29.7529 8.54834 30.232C8.34992 30.711 8.29801 31.2381 8.39916 31.7466C8.50031 32.2551 8.74998 32.7222 9.11661 33.0888C9.48323 33.4555 9.95034 33.7051 10.4589 33.8063C10.9674 33.9074 11.4945 33.8555 11.9735 33.6571C12.4525 33.4587 12.8619 33.1227 13.15 32.6916C13.438 32.2605 13.5918 31.7537 13.5918 31.2352C13.5918 30.5399 13.3156 29.8731 12.824 29.3815C12.3323 28.8899 11.6656 28.6137 10.9703 28.6137Z"
        fill="#F4604B" />
    <path
        d="M25.0629 23.53H22.9243C22.6921 23.5294 22.4663 23.4534 22.2809 23.3134C22.0956 23.1735 21.9606 22.9771 21.8964 22.7539L21.3652 20.8913C20.6821 20.6942 20.0234 20.4204 19.4019 20.0752L17.7069 21.0189C17.5037 21.131 17.2696 21.1743 17.0398 21.1422C16.8099 21.1101 16.5967 21.0044 16.432 20.8409L14.9177 19.3287C14.7542 19.1642 14.6484 18.9511 14.6161 18.7214C14.5839 18.4917 14.627 18.2577 14.739 18.0545L15.6835 16.3589C15.3382 15.7362 15.0646 15.0764 14.868 14.392L13.0054 13.8608C12.7816 13.7969 12.5846 13.6619 12.4443 13.4763C12.3039 13.2906 12.2277 13.0643 12.2272 12.8316V10.693C12.2279 10.4607 12.3039 10.2349 12.4438 10.0496C12.5838 9.86421 12.7801 9.72928 13.0033 9.66506L14.866 9.13386C15.0626 8.44954 15.3361 7.78973 15.6814 7.16704L14.7377 5.47204C14.6255 5.26885 14.5823 5.0348 14.6143 4.80496C14.6464 4.57512 14.7521 4.36186 14.9156 4.19716L16.4258 2.68704C16.5903 2.52359 16.8034 2.41785 17.0331 2.38564C17.2628 2.35343 17.4968 2.39649 17.7 2.50836L19.4019 3.45624C20.0245 3.11097 20.6844 2.83742 21.3687 2.64082L21.8999 0.77817C21.9637 0.554695 22.0984 0.357992 22.2836 0.217652C22.4689 0.0773131 22.6947 0.000930824 22.9271 0H25.0657C25.2979 0.000652144 25.5237 0.0766662 25.7091 0.216618C25.8944 0.35657 26.0294 0.552899 26.0936 0.776102L26.6248 2.63875C27.3091 2.83535 27.9689 3.1089 28.5916 3.45417L30.2866 2.51043C30.4898 2.3983 30.7238 2.35504 30.9537 2.38713C31.1835 2.41921 31.3968 2.52493 31.5615 2.68842L33.0716 4.19854C33.2351 4.36305 33.341 4.57615 33.3732 4.80587C33.4054 5.0356 33.3623 5.26957 33.2503 5.47272L32.3024 7.17463C32.6477 7.79731 32.9212 8.45713 33.1178 9.14145L34.9805 9.67264C35.2037 9.73687 35.4 9.8718 35.54 10.0572C35.6799 10.2425 35.7559 10.4683 35.7566 10.7006V12.8391C35.7559 13.0714 35.6799 13.2972 35.54 13.4825C35.4 13.6679 35.2037 13.8028 34.9805 13.867L33.1178 14.3982C32.9212 15.0826 32.6477 15.7424 32.3024 16.3651L33.2461 18.0601C33.3583 18.2633 33.4015 18.4973 33.3694 18.7271C33.3374 18.957 33.2316 19.1702 33.0681 19.3349L31.558 20.8451C31.3935 21.0085 31.1804 21.1143 30.9507 21.1465C30.721 21.1787 30.487 21.1356 30.2838 21.0237L28.5881 20.0752C27.9655 20.4204 27.3056 20.694 26.6213 20.8906L26.0901 22.7532C26.0259 22.9764 25.891 23.1728 25.7056 23.3127C25.5203 23.4527 25.2952 23.5294 25.0629 23.53ZM23.0726 22.269H24.9208L25.51 20.1993C25.5405 20.0924 25.5987 19.9954 25.6788 19.9182C25.7589 19.841 25.8579 19.7864 25.966 19.7599C26.774 19.5618 27.5471 19.2415 28.2584 18.81C28.3535 18.7522 28.4622 18.7207 28.5735 18.7187C28.6847 18.7166 28.7945 18.7441 28.8917 18.7982L30.773 19.8454L32.0775 18.5409L31.0303 16.6596C30.9762 16.5624 30.9488 16.4526 30.9508 16.3414C30.9529 16.2302 30.9844 16.1215 31.042 16.0263C31.4736 15.315 31.7939 14.542 31.992 13.7339C32.0185 13.6259 32.0731 13.5268 32.1503 13.4467C32.2275 13.3666 32.3244 13.3084 32.4314 13.2779L34.501 12.6888V10.8427L32.4314 10.2535C32.3244 10.223 32.2275 10.1648 32.1503 10.0847C32.0731 10.0046 32.0185 9.90552 31.992 9.79751C31.7939 8.98945 31.4735 8.21639 31.042 7.50508C30.9844 7.40994 30.9529 7.30123 30.9508 7.19001C30.9488 7.07878 30.9762 6.96899 31.0303 6.87178L32.0775 4.99051L30.773 3.68597L28.8917 4.73319C28.7945 4.78727 28.6847 4.81468 28.5735 4.81262C28.4622 4.81056 28.3535 4.77911 28.2584 4.72146C27.5471 4.28991 26.774 3.96956 25.966 3.77151C25.8579 3.74499 25.7589 3.69037 25.6788 3.61319C25.5987 3.53601 25.5405 3.43902 25.51 3.33207L24.9208 1.26246H23.0754L22.4863 3.33207C22.4558 3.43902 22.3975 3.53601 22.3174 3.61319C22.2373 3.69037 22.1383 3.74499 22.0303 3.77151C21.2222 3.96959 20.4491 4.28994 19.7378 4.72146C19.6427 4.77911 19.534 4.81056 19.4228 4.81262C19.3115 4.81468 19.2017 4.78727 19.1045 4.73319L17.2233 3.68597L15.9187 4.99051L16.9659 6.87178C17.02 6.96899 17.0474 7.07878 17.0454 7.19001C17.0433 7.30123 17.0118 7.40994 16.9542 7.50508C16.5216 8.21575 16.2001 8.98835 16.0008 9.79613C15.9743 9.90414 15.9197 10.0032 15.8425 10.0833C15.7653 10.1634 15.6683 10.2216 15.5614 10.2521L13.4918 10.8413V12.6867L15.5614 13.2758C15.6683 13.3063 15.7653 13.3646 15.8425 13.4447C15.9197 13.5247 15.9743 13.6238 16.0008 13.7318C16.1989 14.5399 16.5192 15.3129 16.9508 16.0243C17.0084 16.1194 17.0398 16.2281 17.0419 16.3393C17.044 16.4506 17.0166 16.5604 16.9625 16.6576L15.9153 18.5388L17.2198 19.8434L19.1011 18.7962C19.1983 18.742 19.3081 18.7146 19.4193 18.7166C19.5305 18.7187 19.6393 18.7502 19.7344 18.8079C20.4457 19.2394 21.2187 19.5598 22.0268 19.7578C22.1348 19.7844 22.2339 19.839 22.314 19.9162C22.3941 19.9933 22.4523 20.0903 22.4828 20.1973L23.0726 22.269ZM23.995 16.7265C23.3357 16.7277 22.6828 16.5965 22.0751 16.3409C21.9987 16.3089 21.9293 16.2621 21.871 16.2033C21.8126 16.1445 21.7664 16.0747 21.7351 15.998C21.6717 15.8432 21.6724 15.6695 21.7371 15.5151C21.8017 15.3608 21.9251 15.2385 22.0799 15.1751C22.2348 15.1117 22.4085 15.1124 22.5628 15.1771C23.3459 15.5049 24.2179 15.5533 25.0324 15.314C25.8468 15.0746 26.5541 14.5623 27.0353 13.863C27.5166 13.1636 27.7424 12.32 27.675 11.4738C27.6075 10.6276 27.2508 9.83035 26.6648 9.21612C26.0789 8.60189 25.2993 8.20808 24.4572 8.10085C23.6151 7.99362 22.7618 8.17952 22.0406 8.6273C21.3194 9.07508 20.7743 9.75746 20.4969 10.5598C20.2195 11.3621 20.2268 12.2354 20.5174 13.033C20.5468 13.111 20.5604 13.194 20.5575 13.2774C20.5546 13.3607 20.5353 13.4426 20.5005 13.5183C20.4658 13.5941 20.4163 13.6622 20.3551 13.7188C20.2938 13.7753 20.222 13.8192 20.1437 13.8478C20.0654 13.8763 19.9822 13.8891 19.8989 13.8854C19.8156 13.8816 19.7339 13.8614 19.6585 13.8258C19.5831 13.7903 19.5155 13.7401 19.4596 13.6783C19.4037 13.6164 19.3606 13.5441 19.3329 13.4655C18.9707 12.4741 18.9341 11.393 19.2284 10.3794C19.5227 9.36569 20.1326 8.47229 20.9694 7.82896C21.8062 7.18562 22.8263 6.82588 23.8816 6.80199C24.9368 6.77811 25.9722 7.09133 26.8372 7.69615C27.7023 8.30097 28.352 9.16587 28.6918 10.1652C29.0317 11.1645 29.044 12.2461 28.7271 13.2529C28.4102 14.2597 27.7805 15.1393 26.9295 15.7637C26.0785 16.3881 25.0505 16.7249 23.995 16.7252V16.7265Z"
        fill="#E9E9E9" />
</svg>
