<?xml version="1.0" encoding="utf-8"?>
<!--
 * Copyright (c) 2024, WSO2 LLC. (https://www.wso2.com).
 *
 * WSO2 LLC. licenses this file to you under the Apache License,
 * Version 2.0 (the "License"); you may not use thixs file except
 * in compliance with the License.
 * You may obtain a copy of the License at
 *
 *     http://www.apache.org/licenses/LICENSE-2.0
 *
 * Unless required by applicable law or agreed to in writing,
 * software distributed under the License is distributed on an
 * "AS IS" BASIS, WITHOUT WARRANTIES OR CONDITIONS OF ANY
 * KIND, either express or implied. See the License for the
 * specific language governing permissions and limitations
 * under the License.
-->

<svg width="70" height="66" viewBox="0 0 70 66" fill="none" xmlns="http://www.w3.org/2000/svg">
<path d="M66 0H4C1.79086 0 0 1.79086 0 4V52C0 54.2091 1.79086 56 4 56H66C68.2091 56 70 54.2091 70 52V4C70 1.79086 68.2091 0 66 0Z" fill="#ECECEC"/>
<path d="M3 14H17C18.1046 14 19 14.8954 19 16V50C19 51.1046 18.1046 52 17 52H3V14Z" fill="white"/>
<path d="M3 5.5C3 4.67157 3.67157 4 4.5 4C5.32843 4 6 4.67157 6 5.5C6 6.32843 5.32843 7 4.5 7C3.67157 7 3 6.32843 3 5.5Z" fill="black"/>
<path d="M8 5.5C8 4.67157 8.67157 4 9.5 4C10.3284 4 11 4.67157 11 5.5C11 6.32843 10.3284 7 9.5 7C8.67157 7 8 6.32843 8 5.5Z" fill="black"/>
<path d="M13 5.5C13 4.67157 13.6716 4 14.5 4C15.3284 4 16 4.67157 16 5.5C16 6.32843 15.3284 7 14.5 7C13.6716 7 13 6.32843 13 5.5Z" fill="black"/>
<path d="M67 52H53C51.8954 52 51 51.1046 51 50V16C51 14.8954 51.8954 14 53 14H67V52Z" fill="white"/>
<g clip-path="url(#clip0_3275_16)">
<path d="M48.2857 14H21.7143C20.7675 14 20 15.2152 20 16.7143V49.2857C20 50.7848 20.7675 52 21.7143 52H48.2857C49.2325 52 50 50.7848 50 49.2857V16.7143C50 15.2152 49.2325 14 48.2857 14Z" fill="url(#paint0_linear_3275_16)"/>
<path d="M35 39C37.2091 39 39 37.2091 39 35C39 32.7909 37.2091 31 35 31C32.7909 31 31 32.7909 31 35C31 37.2091 32.7909 39 35 39Z" fill="url(#paint1_linear_3275_16)" stroke="#42423E" stroke-width="3"/>
<path d="M26.5 29C27.8807 29 29 27.8807 29 26.5C29 25.1193 27.8807 24 26.5 24C25.1193 24 24 25.1193 24 26.5C24 27.8807 25.1193 29 26.5 29Z" fill="url(#paint2_linear_3275_16)" stroke="#42423E" stroke-width="3"/>
<path d="M43.5 25C44.8807 25 46 23.8807 46 22.5C46 21.1193 44.8807 20 43.5 20C42.1193 20 41 21.1193 41 22.5C41 23.8807 42.1193 25 43.5 25Z" fill="url(#paint3_linear_3275_16)" stroke="#42423E" stroke-width="3"/>
<path d="M26.5 45C27.8807 45 29 43.8807 29 42.5C29 41.1193 27.8807 40 26.5 40C25.1193 40 24 41.1193 24 42.5C24 43.8807 25.1193 45 26.5 45Z" fill="url(#paint4_linear_3275_16)" stroke="#42423E" stroke-width="3"/>
<path d="M43.5 45C44.8807 45 46 43.8807 46 42.5C46 41.1193 44.8807 40 43.5 40C42.1193 40 41 41.1193 41 42.5C41 43.8807 42.1193 45 43.5 45Z" fill="url(#paint5_linear_3275_16)" stroke="#42423E" stroke-width="3"/>
<path d="M29 28.6948L32.6125 32.6885" stroke="#42423E" stroke-width="3"/>
<path d="M29.219 40.0969L31.2536 38.1321" stroke="#42423E" stroke-width="3"/>
<path d="M41.7494 40.8838L39 38.5513" stroke="#42423E" stroke-width="3"/>
<path d="M37.4991 31.304L42.7422 23.8081" stroke="#42423E" stroke-width="3"/>
</g>
<defs>
<linearGradient id="paint0_linear_3275_16" x1="20" y1="14" x2="20" y2="52" gradientUnits="userSpaceOnUse">
<stop stop-color="#EE575C"/>
<stop offset="1" stop-color="#F67147"/>
</linearGradient>
<linearGradient id="paint1_linear_3275_16" x1="35" y1="31" x2="35" y2="39" gradientUnits="userSpaceOnUse">
<stop stop-color="#EE575C"/>
<stop offset="1" stop-color="#F67147"/>
</linearGradient>
<linearGradient id="paint2_linear_3275_16" x1="26.5" y1="24" x2="26.5" y2="29" gradientUnits="userSpaceOnUse">
<stop stop-color="#EE575C"/>
<stop offset="1" stop-color="#F67147"/>
</linearGradient>
<linearGradient id="paint3_linear_3275_16" x1="43.5" y1="20" x2="43.5" y2="25" gradientUnits="userSpaceOnUse">
<stop stop-color="#EE575C"/>
<stop offset="1" stop-color="#F67147"/>
</linearGradient>
<linearGradient id="paint4_linear_3275_16" x1="26.5" y1="40" x2="26.5" y2="45" gradientUnits="userSpaceOnUse">
<stop stop-color="#EE575C"/>
<stop offset="1" stop-color="#F67147"/>
</linearGradient>
<linearGradient id="paint5_linear_3275_16" x1="43.5" y1="40" x2="43.5" y2="45" gradientUnits="userSpaceOnUse">
<stop stop-color="#EE575C"/>
<stop offset="1" stop-color="#F67147"/>
</linearGradient>
<clipPath id="clip0_3275_16">
<rect width="30" height="38" fill="white" transform="translate(20 14)"/>
</clipPath>
</defs>
</svg>
