<svg width="70" height="66" viewBox="0 0 70 66" fill="none" xmlns="http://www.w3.org/2000/svg">
<rect width="70" height="56" rx="4" fill="#ECECEC"/>
<path d="M67 50C67 51.1046 66.1046 52 65 52L22 52C20.8954 52 20 51.1046 20 50L20 16C20 14.8954 20.8954 14 22 14L65 14C66.1046 14 67 14.8954 67 16L67 50Z" fill="white"/>
<path d="M4 16C4 14.8954 4.89543 14 6 14H15C16.1046 14 17 14.8954 17 16V50C17 51.1046 16.1046 52 15 52H6C4.89543 52 4 51.1046 4 50V16Z" fill="url(#paint0_linear_3283_17)"/>
<path d="M3 5.5C3 4.67157 3.67157 4 4.5 4C5.32843 4 6 4.67157 6 5.5C6 6.32843 5.32843 7 4.5 7C3.67157 7 3 6.32843 3 5.5Z" fill="black"/>
<path d="M8 5.5C8 4.67157 8.67157 4 9.5 4C10.3284 4 11 4.67157 11 5.5C11 6.32843 10.3284 7 9.5 7C8.67157 7 8 6.32843 8 5.5Z" fill="black"/>
<path d="M13 5.5C13 4.67157 13.6716 4 14.5 4C15.3284 4 16 4.67157 16 5.5C16 6.32843 15.3284 7 14.5 7C13.6716 7 13 6.32843 13 5.5Z" fill="black"/>
<path d="M44.5151 20.1539C43.4443 20.463 42.6006 21.1737 37.4898 26.0102C31.7463 31.4802 31.6003 31.6502 32.2817 32.2837C32.8658 32.84 33.1092 32.6546 38.6742 27.3545C44.5151 21.7918 44.8233 21.56 46.0889 21.7918C47.3706 22.0082 48.409 23.1361 48.409 24.3105C48.409 25.3767 47.9709 25.9021 43.785 29.9041C39.5666 33.9371 39.3394 34.2152 39.9073 34.756C40.4752 35.3123 40.7834 35.096 44.7584 31.2793C46.9001 29.2242 48.9768 27.3545 49.3662 27.1073C51.5403 25.763 54.3309 27.8645 53.4224 30.1668C53.3412 30.3986 51.0049 32.7473 48.2467 35.3896C44.8396 38.6345 43.1522 40.3651 42.9737 40.7669C42.5519 41.7558 42.7628 42.2966 44.1419 43.6718C44.8071 44.3363 45.5048 44.9234 45.667 44.9698C46.1538 45.1243 46.7865 44.6608 46.7865 44.1508C46.7865 43.8264 46.5269 43.471 45.7319 42.7293C45.1478 42.1884 44.6773 41.6322 44.6773 41.4931C44.6773 41.3695 46.9163 39.1444 49.642 36.5485C55.1909 31.2793 55.3855 31.0321 55.3855 29.286C55.3855 28.6062 55.272 28.0499 55.0448 27.5863C54.3309 26.072 52.6436 24.9595 51.0536 24.9595H50.1937V24.1405C50.1937 21.5446 47.1272 19.3968 44.5151 20.1539Z" fill="#7E7979"/>
<path d="M41.2539 27.3701C36.4677 31.913 36.1594 32.3147 36.1918 34.0608C36.2243 37.1976 39.6801 39.2527 42.6006 37.8929C43.2495 37.5839 44.4502 36.5331 47.5815 33.5663C50.9887 30.306 51.7025 29.5643 51.7025 29.1934C51.7025 28.7299 51.2969 28.359 50.7777 28.359C50.5668 28.359 48.9768 29.7652 46.2998 32.2838C44.0283 34.4471 42.0002 36.2859 41.8056 36.3786C41.6109 36.4713 41.0917 36.5486 40.6536 36.5486C39.1934 36.5486 38.0252 35.436 38.0252 34.0454C38.0252 33.6281 38.1063 33.1337 38.2037 32.9483C38.301 32.7628 40.2318 30.8313 42.5032 28.6681C45.1478 26.1185 46.6243 24.6042 46.6243 24.4033C46.6243 23.9861 46.316 23.6307 45.8292 23.4916C45.5048 23.3989 44.9693 23.847 41.2539 27.3701Z" fill="#7E7979"/>
<defs>
<linearGradient id="paint0_linear_3283_17" x1="10.5" y1="14" x2="10.5" y2="52" gradientUnits="userSpaceOnUse">
<stop stop-color="#EE575C"/>
<stop offset="1" stop-color="#F67147"/>
</linearGradient>
</defs>
</svg>
