<?xml version="1.0" encoding="utf-8"?>

<!--
 * Copyright (c) 2020, WSO2 Inc. (http://www.wso2.org) All Rights Reserved.
 *
 * WSO2 Inc. licenses this file to you under the Apache License,
 * Version 2.0 (the "License"); you may not use this file except
 * in compliance with the License.
 * You may obtain a copy of the License at
 *
 *     http://www.apache.org/licenses/LICENSE-2.0
 *
 * Unless required by applicable law or agreed to in writing,
 * software distributed under the License is distributed on an
 * "AS IS" BASIS, WITHOUT WARRANTIES OR CONDITIONS OF ANY
 * KIND, either express or implied. See the License for the
 * specific language governing permissions and limitations
 * under the License.
-->

<svg id="oidc-web-app-template-illustration" class="icon" width="86" height="56" viewBox="0 0 86 56" fill="none" xmlns="http://www.w3.org/2000/svg">
<rect width="70" height="56" rx="4" fill="#ECECEC"/>
<path d="M4 16C4 14.8954 4.89543 14 6 14H46C47.1046 14 48 14.8954 48 16V27C48 28.1046 47.1046 29 46 29H6C4.89543 29 4 28.1046 4 27V16Z" fill="url(#paint0_linear_927_10474)"/>
<path d="M3 5.5C3 4.67157 3.67157 4 4.5 4V4C5.32843 4 6 4.67157 6 5.5V5.5C6 6.32843 5.32843 7 4.5 7V7C3.67157 7 3 6.32843 3 5.5V5.5Z" fill="black"/>
<path d="M8 5.5C8 4.67157 8.67157 4 9.5 4V4C10.3284 4 11 4.67157 11 5.5V5.5C11 6.32843 10.3284 7 9.5 7V7C8.67157 7 8 6.32843 8 5.5V5.5Z" fill="black"/>
<path d="M13 5.5C13 4.67157 13.6716 4 14.5 4V4C15.3284 4 16 4.67157 16 5.5V5.5C16 6.32843 15.3284 7 14.5 7V7C13.6716 7 13 6.32843 13 5.5V5.5Z" fill="black"/>
<path d="M48 41C48 42.1046 47.1046 43 46 43L6 43C4.89543 43 4 42.1046 4 41L4 35C4 33.8954 4.89543 33 6 33L46 33C47.1046 33 48 33.8954 48 35L48 41Z" fill="white"/>
<path d="M29 50C29 51.1046 28.1046 52 27 52L6 52C4.89543 52 4 51.1046 4 50L4 49C4 47.8954 4.89543 47 6 47L27 47C28.1046 47 29 47.8954 29 49L29 50Z" fill="white"/>
<path d="M82.3786 20.4878H84.0487C85.1259 20.4878 86 21.3619 86 22.4389V25.5609C86 26.6381 85.1259 27.5122 84.0487 27.5122L82.3789 27.5124C82.1055 28.4726 81.7232 29.4013 81.2393 30.2676L82.4178 31.4461C82.7844 31.8206 82.9875 32.3046 82.9875 32.8275C82.9875 33.3503 82.7847 33.8419 82.4178 34.2088L80.2091 36.4175C79.4442 37.1745 78.211 37.1824 77.4461 36.4175L76.2676 35.239C75.4012 35.7229 74.4726 36.1055 73.5124 36.3786V38.0487C73.5124 39.1259 72.6383 40 71.5611 40H68.4391C67.3619 40 66.4878 39.1259 66.4878 38.0487V36.3786C65.5277 36.1052 64.599 35.7229 63.7327 35.239L62.5542 36.4175C61.7892 37.1824 60.5482 37.1745 59.7912 36.4175L57.5825 34.2088C57.2158 33.8422 57.0128 33.3503 57.0128 32.8275C57.0128 32.3046 57.2156 31.813 57.5825 31.4461L58.761 30.2676C58.2771 29.4013 57.8945 28.4726 57.6214 27.5124H55.9513C54.8741 27.5124 54 26.6383 54 25.5611V22.4391C54 21.3619 54.8741 20.4878 55.9513 20.4878L57.6211 20.4876C57.8945 19.5274 58.2768 18.5987 58.7608 17.7324L57.5822 16.5539C57.2156 16.1794 57.0125 15.6954 57.0125 15.1725C57.0125 14.6497 57.2153 14.1581 57.5822 13.7912L59.7909 11.5825C60.5558 10.8255 61.789 10.8255 62.5539 11.5825L63.7324 12.761C64.5988 12.2771 65.5274 11.8945 66.4876 11.6214V9.9513C66.4876 8.8741 67.3617 8 68.4389 8H71.5609C72.6381 8 73.5122 8.8741 73.5122 9.9513V11.6214C74.4723 11.8948 75.401 12.2771 76.2673 12.761L77.4458 11.5828C78.2108 10.8257 79.4518 10.8257 80.2088 11.5828L82.4175 13.7915C82.7842 14.1581 82.9872 14.6499 82.9872 15.1728C82.9872 15.6957 82.7844 16.1872 82.4175 16.5541L81.239 17.7327C81.7229 18.599 82.1055 19.5277 82.3786 20.4878Z" fill="#67777E"/>
<circle cx="70" cy="24" r="6" fill="white"/>
<defs>
<linearGradient id="paint0_linear_927_10474" x1="26" y1="14" x2="26" y2="29" gradientUnits="userSpaceOnUse">
<stop stop-color="#EE575C"/>
<stop offset="1" stop-color="#F67147"/>
</linearGradient>
</defs>
</svg>
