<!--
 * Copyright (c) 2026, WSO2 LLC. (https://www.wso2.com/).
 *
 * WSO2 LLC. licenses this file to you under the Apache License,
 * Version 2.0 (the "License"); you may not use this file except
 * in compliance with the License.
 * You may obtain a copy of the License at
 *
 *     http://www.apache.org/licenses/LICENSE-2.0
 *
 * Unless required by applicable law or agreed to in writing,
 * software distributed under the License is distributed on an
 * "AS IS" BASIS, WITHOUT WARRANTIES OR CONDITIONS OF ANY
 * KIND, either express or implied. See the License for the
 * specific language governing permissions and limitations
 * under the License.
-->

<svg width="46" height="66" viewBox="0 0 46 66" fill="none" xmlns="http://www.w3.org/2000/svg">
<rect width="46" height="66" fill="white"/>
<path d="M41.8571 1H4.14286C3.7744 1 3.3802 1 2.99986 1C1.89529 1 1 1.89543 1 3V63C1 64.1046 1.89529 65 2.99986 65C3.3802 65 3.7744 65 4.14286 65H41.8571C42.2256 65 42.6198 65 43.0002 65C44.1047 65 45 64.1046 45 63V3C45 1.89543 44.1047 1 43.0001 1C42.6198 1 42.2256 1 41.8571 1Z" fill="#ECECEC"/>
<path d="M4 5C4 4.44771 4.44772 4 5 4H41C41.5523 4 42 4.44771 42 5C42 5.29764 42 5.67511 42 6.14928V61C42 61.5523 41.5533 62 41.001 62C40.1319 62 38.7749 62 37.25 62H5C4.44772 62 4 61.5523 4 61V5Z" fill="white"/>
<rect x="19" y="6" width="8" height="2" rx="1" fill="#5E5959"/>
<path d="M6 30C6 29.4477 6.44756 29 6.99985 29C7.27659 29 7.5948 29 7.93333 29H34C34.5523 29 35 29.4477 35 30V47C35 47.5523 34.5524 48 34.0002 48C33.7234 48 33.4052 48 33.0667 48H7.93333C7.5948 48 7.27659 48 6.99985 48C6.44756 48 6 47.5523 6 47V30Z" fill="url(#paint0_linear_23_37)" fill-opacity="0.5"/>
<path d="M8 25C8 24.4477 8.4474 24 8.99969 24C9.29393 24 9.63558 24 10 24H37C37.5523 24 38 24.4477 38 25V42C38 42.5523 37.5526 43 37.0003 43C36.7061 43 36.3644 43 36 43H10C9.63558 43 9.29393 43 8.99969 43C8.4474 43 8 42.5523 8 42V25Z" fill="url(#paint1_linear_23_37)" fill-opacity="0.7"/>
<path d="M11 20C11 19.4477 11.4476 19 11.9998 19C12.2766 19 12.5948 19 12.9333 19H39C39.5523 19 40 19.4477 40 20V37C40 37.5523 39.5524 38 39.0002 38C38.7234 38 38.4052 38 38.0667 38H12.9333C12.5948 38 12.2766 38 11.9998 38C11.4476 38 11 37.5523 11 37V20Z" fill="url(#paint2_linear_23_37)"/>
<path d="M17.8904 29.0566C20.8019 29.0569 23.3391 30.7574 23.7654 33.4316C23.8828 34.1708 23.2634 34.7077 22.6267 34.708H13.1531C12.5163 34.7077 11.897 34.171 12.0144 33.4316C12.4409 30.7572 14.9788 29.0567 17.8904 29.0566ZM37.7664 30.2021C37.9454 29.9926 38.2604 29.967 38.4705 30.1455C38.6805 30.3244 38.7057 30.6403 38.5271 30.8506L35.6814 34.1943L35.3885 34.5391L35.0164 34.2822L33.2 33.0283C32.9729 32.8715 32.9165 32.5592 33.073 32.332C33.2301 32.1055 33.5414 32.0484 33.7683 32.2051L35.2127 33.2021L37.7664 30.2021ZM17.8904 30.0566C15.3247 30.0567 13.33 31.5309 13.0017 33.5889C12.9979 33.6137 13.0036 33.6355 13.0252 33.6582C13.0505 33.6845 13.0957 33.7079 13.1531 33.708H22.6267C22.6841 33.7078 22.7295 33.6835 22.7547 33.6572C22.7757 33.6348 22.7819 33.6135 22.7781 33.5889C22.4499 31.5309 20.4558 30.0569 17.8904 30.0566ZM30.3035 28.7725C30.5796 28.7725 30.8035 28.9963 30.8035 29.2725C30.8033 29.5485 30.5795 29.7725 30.3035 29.7725H25.8523C25.5765 29.7722 25.3525 29.5483 25.3523 29.2725C25.3523 28.9965 25.5764 28.7727 25.8523 28.7725H30.3035ZM18.1521 23.0137C19.4419 23.1502 20.4486 24.2827 20.449 25.6582L20.4363 25.9297C20.3051 27.2696 19.215 28.316 17.8904 28.3164L17.6287 28.3027C16.4242 28.1758 15.467 27.1806 15.3445 25.9297L15.3308 25.6582C15.3313 24.1907 16.4774 23.0001 17.8904 23L18.1521 23.0137ZM17.8904 24C17.065 24.0001 16.3313 24.7069 16.3308 25.6582C16.3312 26.6096 17.0649 27.3163 17.8904 27.3164C18.7156 27.3159 19.4487 26.6093 19.449 25.6582C19.4485 24.7072 18.7155 24.0005 17.8904 24ZM32.8474 26.2646C33.1235 26.2647 33.3474 26.4886 33.3474 26.7646C33.3469 27.0403 33.1232 27.2646 32.8474 27.2646H25.8533C25.5775 27.2646 25.3538 27.0403 25.3533 26.7646C25.3533 26.4885 25.5772 26.2647 25.8533 26.2646H32.8474ZM35.3914 23.7559C35.6674 23.7561 35.8914 23.9798 35.8914 24.2559C35.891 24.5316 35.6671 24.7557 35.3914 24.7559H25.8533C25.5774 24.7558 25.3536 24.5317 25.3533 24.2559C25.3533 23.9798 25.5772 23.7559 25.8533 23.7559H35.3914Z" fill="white"/>
<defs>
<linearGradient id="paint0_linear_23_37" x1="20.5" y1="29" x2="20.5" y2="48" gradientUnits="userSpaceOnUse">
<stop stop-color="#EE575C"/>
<stop offset="1" stop-color="#F67147"/>
</linearGradient>
<linearGradient id="paint1_linear_23_37" x1="23" y1="24" x2="23" y2="43" gradientUnits="userSpaceOnUse">
<stop stop-color="#EE575C"/>
<stop offset="1" stop-color="#F67147"/>
</linearGradient>
<linearGradient id="paint2_linear_23_37" x1="25.5" y1="19" x2="25.5" y2="38" gradientUnits="userSpaceOnUse">
<stop stop-color="#EE575C"/>
<stop offset="1" stop-color="#F67147"/>
</linearGradient>
</defs>
</svg>
