<!--
 * Copyright (c) 2020, WSO2 Inc. (http://www.wso2.org) All Rights Reserved.
 *
 * WSO2 Inc. licenses this file to you under the Apache License,
 * Version 2.0 (the "License"); you may not use this file except
 * in compliance with the License.
 * You may obtain a copy of the License at
 *
 *     http://www.apache.org/licenses/LICENSE-2.0
 *
 * Unless required by applicable law or agreed to in writing,
 * software distributed under the License is distributed on an
 * "AS IS" BASIS, WITHOUT WARRANTIES OR CONDITIONS OF ANY
 * KIND, either express or implied. See the License for the
 * specific language governing permissions and limitations
 * under the License.
-->

<svg class="icon" id="exper-mode-idp-icon" xmlns="http://www.w3.org/2000/svg" width="14" height="14" viewBox="0 0 64.001 64">
    <path id="Expert" d="M22.71,64V59.376a28.509,28.509,0,0,1-3.495-1.453L15.941,61.2,2.8,48.06l3.274-3.274a28.881,28.881,0,0,1-1.453-3.5H0V22.708H4.624a29.05,29.05,0,0,1,1.453-3.492L2.8,15.942,15.941,2.8l3.274,3.274A29.12,29.12,0,0,1,22.71,4.623V0H41.291V4.623a29.014,29.014,0,0,1,3.494,1.455L48.059,2.8,61.2,15.942l-3.274,3.274a28.5,28.5,0,0,1,1.453,3.492H64V41.289H59.376a28.339,28.339,0,0,1-1.453,3.5L61.2,48.06,48.059,61.2l-3.274-3.274a29.055,29.055,0,0,1-3.494,1.453V64ZM19.5,55.75a26.664,26.664,0,0,0,4.548,1.892l.725.224v4.07H39.227v-4.07l.727-.224A26.734,26.734,0,0,0,44.5,55.75l.673-.357,2.884,2.886L58.278,48.06l-2.885-2.885.356-.673a26.746,26.746,0,0,0,1.892-4.548l.225-.726h4.071V24.774H57.865l-.227-.728a26.579,26.579,0,0,0-1.89-4.548l-.356-.673,2.885-2.883L48.059,5.723,45.173,8.606,44.5,8.252a26.8,26.8,0,0,0-4.551-1.894l-.725-.225V2.064H24.773V6.134l-.727.225A26.781,26.781,0,0,0,19.5,8.252l-.673.354L15.941,5.723,5.722,15.942l2.885,2.883-.356.673a26.812,26.812,0,0,0-1.892,4.548l-.224.728H2.063V39.227H6.135l.224.726A26.746,26.746,0,0,0,8.251,44.5l.356.675L5.724,48.06,15.943,58.279l2.883-2.886Zm1.533-7.5a1,1,0,0,1-.386-.269A19.612,19.612,0,1,1,43.34,48a1.1,1.1,0,0,1-.356.248,19.578,19.578,0,0,1-21.95.01ZM32,49.548A17.443,17.443,0,0,0,40.583,47.3l-8.582-5-8.583,5A17.444,17.444,0,0,0,32,49.548ZM14.451,32a17.518,17.518,0,0,0,6.316,13.472l2.116-9.786-8.075-7.22A17.593,17.593,0,0,0,14.451,32Zm26.667,3.681,2.117,9.791a17.547,17.547,0,0,0,5.957-17.009Zm-8.612,4.595,8.63,5.021-2.112-9.756a1.007,1.007,0,0,1,.315-.964L46.78,27.92l-9.934-1.008a1.009,1.009,0,0,1-.818-.6L32,17.18,27.97,26.317a1.014,1.014,0,0,1-.82.6L17.216,27.92l7.444,6.656a1.007,1.007,0,0,1,.314.964L22.862,45.3l8.632-5.021a.992.992,0,0,1,1.012,0Zm5.127-15.309,10.885,1.1A17.587,17.587,0,0,0,33.009,14.48Zm-22.152,1.1,10.883-1.1L30.992,14.48A17.59,17.59,0,0,0,15.481,26.07Z" transform="translate(0 0)" />
</svg>
