<?xml version="1.0" encoding="utf-8"?>

<!--
 * Copyright (c) 2020, WSO2 Inc. (http://www.wso2.org) All Rights Reserved.
 *
 * WSO2 Inc. licenses this file to you under the Apache License,
 * Version 2.0 (the "License"); you may not use this file except
 * in compliance with the License.
 * You may obtain a copy of the License at
 *
 *     http://www.apache.org/licenses/LICENSE-2.0
 *
 * Unless required by applicable law or agreed to in writing,
 * software distributed under the License is distributed on an
 * "AS IS" BASIS, WITHOUT WARRANTIES OR CONDITIONS OF ANY
 * KIND, either express or implied. See the License for the
 * specific language governing permissions and limitations
 * under the License.
-->

<svg version="1.1" id="jwks-icon" xmlns="http://www.w3.org/2000/svg" class="icon" width="14" height="14" viewBox="0 0 442.433 461.505" xml:space="preserve">
  <g id="jwks" transform="translate(-45.219 -0.002)">
    <path id="Path_257" data-name="Path 257" d="M428.992,26.767C397.611,9.507,356.062,0,312,0S226.389,9.5,195.008,26.767C162.115,44.858,144,69.446,144,96v40h14.855c8.58,10.86,20.745,20.761,36.153,29.235C226.389,182.5,267.938,192,312,192s85.611-9.5,116.992-26.765c14.741-8.107,26.5-17.523,35.008-27.832V160c0,20.472-15.166,40.086-42.7,55.23C392.249,231.2,353.434,240,312,240c-7.763,0-15.615-.325-23.339-.965l-1.322,15.945C295.5,255.659,303.8,256,312,256c44.083,0,85.637-9.5,117.005-26.75,14.735-8.1,26.493-17.516,35-27.825V224c0,20.472-15.166,40.086-42.7,55.23C392.249,295.2,353.434,304,312,304c-7.78,0-15.632-.324-23.338-.964l-1.324,15.945C295.482,319.659,303.78,320,312,320c44.083,0,85.637-9.5,117.005-26.75,14.735-8.1,26.493-17.516,35-27.825V288c0,20.472-15.166,40.086-42.7,55.23C392.249,359.2,353.434,368,312,368a280.41,280.41,0,0,1-31.108-1.721l-1.784,15.9A296.529,296.529,0,0,0,312,384c44.083,0,85.637-9.5,117.005-26.75,32.885-18.083,51-42.677,51-69.25V96c-.005-26.556-18.12-51.144-51.013-69.235Zm-7.711,124.451C392.223,167.2,353.412,176,312,176s-80.223-8.8-109.281-24.784C175.171,136.066,160,116.458,160,96s15.171-40.064,42.719-55.216C231.777,24.8,270.588,16,312,16s80.223,8.8,109.281,24.784C448.829,55.938,464,75.546,464,96S448.829,136.066,421.281,151.218Z" transform="translate(7.647)"/>
    <path id="Path_258" data-name="Path 258" d="M381.5,133.665l5,15.2C423.858,136.565,448,115.814,448,96H432C432,106.2,414.3,122.863,381.5,133.665Z" transform="translate(7.647 -0.551)"/>
    <path id="Path_260" data-name="Path 260" d="M176,96h16c0-9.168,14.727-24.115,42.873-34.944l-5.746-14.933C196.357,58.732,176,77.844,176,96Z" transform="translate(3.196)"/>
    <g id="password" transform="translate(-84.092 419.208) rotate(-84)">
      <g id="Group_55" data-name="Group 55">
        <g id="Group_54" data-name="Group 54">
          <path id="Path_269" data-name="Path 269" d="M182.825,0A91.585,91.585,0,0,0,91.412,91.546a90.406,90.406,0,0,0,1.942,18.377l-10.211,5.112A5.724,5.724,0,0,0,81.66,124.2l7.387,7.4-5.713,5.722H74.272a5.714,5.714,0,0,0-5.713,5.722v9.074l-8.079,8.091H51.42a5.714,5.714,0,0,0-5.713,5.722V175l-8.079,8.09H28.566a5.714,5.714,0,0,0-5.713,5.722v9.074L1.674,219.1A5.722,5.722,0,0,0,0,223.144v45.773a5.714,5.714,0,0,0,5.713,5.722H51.42a5.706,5.706,0,0,0,4.04-1.676l87.373-87.5,7.387,7.4a5.664,5.664,0,0,0,4.954,1.6,5.723,5.723,0,0,0,4.2-3.09l5.1-10.225c58.131,12.136,109.763-33.112,109.763-89.6A91.584,91.584,0,0,0,182.825,0ZM162.8,169.012A5.735,5.735,0,0,0,156.267,172l-3.576,7.158-5.82-5.828a5.7,5.7,0,0,0-8.079,0L49.054,263.2H11.426V225.513L32.606,204.3a5.722,5.722,0,0,0,1.674-4.046v-5.722h5.713a5.706,5.706,0,0,0,4.04-1.676l11.426-11.443a5.722,5.722,0,0,0,1.674-4.046v-5.721h5.713a5.706,5.706,0,0,0,4.04-1.676L78.313,158.53a5.722,5.722,0,0,0,1.674-4.046v-5.722H85.7a5.706,5.706,0,0,0,4.04-1.676l11.426-11.443a5.725,5.725,0,0,0,0-8.091l-5.82-5.828,7.147-3.582a5.726,5.726,0,0,0,2.98-6.543A79.965,79.965,0,1,1,262.811,91.546C262.811,142.231,215.582,182.623,162.8,169.012Z" transform="translate(0 130.023)"/>
          <path id="Path_270" data-name="Path 270" d="M368.984,64a27.653,27.653,0,1,0,27.65,27.653A27.684,27.684,0,0,0,368.984,64Zm0,44.245a16.592,16.592,0,1,1,16.59-16.592A16.609,16.609,0,0,1,368.984,108.245Z" transform="translate(-177.245 117)"/>
          <path id="Path_271" data-name="Path 271" d="M152.646,279.187l-86.829,88.6a6.417,6.417,0,0,0,0,8.949,6.113,6.113,0,0,0,8.771,0l86.829-88.6a6.417,6.417,0,0,0,0-8.949A6.113,6.113,0,0,0,152.646,279.187Z" transform="translate(-11.92 -22.353)"/>
        </g>
      </g>
    </g>
  </g>
</svg>
