<?xml version="1.0" encoding="utf-8"?>

<!--
 * Copyright (c) 2020, WSO2 Inc. (http://www.wso2.org) All Rights Reserved.
 *
 * WSO2 Inc. licenses this file to you under the Apache License,
 * Version 2.0 (the "License"); you may not use this file except
 * in compliance with the License.
 * You may obtain a copy of the License at
 *
 *     http://www.apache.org/licenses/LICENSE-2.0
 *
 * Unless required by applicable law or agreed to in writing,
 * software distributed under the License is distributed on an
 * "AS IS" BASIS, WITHOUT WARRANTIES OR CONDITIONS OF ANY
 * KIND, either express or implied. See the License for the
 * specific language governing permissions and limitations
 * under the License.
-->

<svg xmlns="http://www.w3.org/2000/svg" xmlns:xlink="http://www.w3.org/1999/xlink" width="304.445" height="133.802"
     viewBox="0 0 304.445 133.802">
    <defs>
        <linearGradient id="linear-gradient" x1="0.274" y1="0.5" x2="1" y2="0.5" gradientUnits="objectBoundingBox">
            <stop offset="0" stop-color="#fff"/>
            <stop offset="1" stop-color="#dbdddf"/>
        </linearGradient>
        <linearGradient id="linear-gradient-2" x1="0.274" y1="0.5" x2="1" y2="0.5" gradientUnits="objectBoundingBox">
            <stop offset="0" stop-color="#fff" stop-opacity="0"/>
            <stop offset="1" stop-color="#dbdddf"/>
        </linearGradient>
        <linearGradient id="linear-gradient-4" x1="0.097" x2="1.189" y2="1.098" gradientUnits="objectBoundingBox">
            <stop offset="0" stop-color="#ff8313"/>
            <stop offset="1" stop-color="#fe5602"/>
        </linearGradient>
        <linearGradient id="linear-gradient-5" y1="0.028" x2="0.89" y2="0.791" gradientUnits="objectBoundingBox">
            <stop offset="0" stop-color="#ff5402"/>
            <stop offset="1" stop-color="#ff8212"/>
        </linearGradient>
        <linearGradient id="linear-gradient-6" x1="0.931" y1="0.856" x2="-0.099" y2="0.181"
                        gradientUnits="objectBoundingBox">
            <stop offset="0" stop-color="#ccc"/>
            <stop offset="1" stop-color="#fff"/>
        </linearGradient>
        <linearGradient id="linear-gradient-7" x1="0" y1="0.346" x2="0.789" y2="0.772" xlink:href="#linear-gradient-6"/>
        <linearGradient id="linear-gradient-19" x1="0.757" y1="0.959" x2="0.149" y2="0.196"
                        gradientUnits="objectBoundingBox">
            <stop offset="0" stop-color="#22b9b3"/>
            <stop offset="1" stop-color="#29e0d8"/>
        </linearGradient>
        <linearGradient id="linear-gradient-20" x1="0.821" y1="0.821" x2="0.126" y2="0.126"
                        gradientUnits="objectBoundingBox">
            <stop offset="0" stop-color="#29e0d8"/>
            <stop offset="1" stop-color="#23bab4"/>
        </linearGradient>
        <linearGradient id="linear-gradient-21" x1="0.084" y1="0.36" x2="0.818" y2="0.733"
                        gradientUnits="objectBoundingBox">
            <stop offset="0" stop-color="#0f8d87"/>
            <stop offset="0.472" stop-color="#2ac8c2" stop-opacity="0.49"/>
            <stop offset="1" stop-color="#29e0d8" stop-opacity="0"/>
        </linearGradient>
        <radialGradient id="radial-gradient" cx="0.208" cy="0.202" r="0.5" gradientUnits="objectBoundingBox">
            <stop offset="0" stop-color="#fff"/>
            <stop offset="1" stop-color="#f0f0f0"/>
        </radialGradient>
        <radialGradient id="radial-gradient-2" cx="0" cy="0.233" r="0.764"
                        gradientTransform="translate(0.106 0.025) rotate(27.054)" xlink:href="#radial-gradient"/>
        <linearGradient id="linear-gradient-22" x1="0.433" x2="0.678" y2="0.398" gradientUnits="objectBoundingBox">
            <stop offset="0" stop-color="#ccc"/>
            <stop offset="1" stop-color="#ccc" stop-opacity="0.169"/>
        </linearGradient>
        <linearGradient id="linear-gradient-23" x1="0.719" y1="0.4" x2="1.177" y2="0.537"
                        gradientUnits="objectBoundingBox">
            <stop offset="0" stop-color="#ccc" stop-opacity="0.188"/>
            <stop offset="1" stop-color="#ccc"/>
        </linearGradient>
    </defs>
    <g id="ask-password-illustration" transform="translate(-141.222 -98.21)">
        <g id="account-recovery-illustration">
            <path id="Path_95"
                  d="M424.493,166.965a.914.914,0,0,1-.914-.914,1.1,1.1,0,0,0-1.1-1.1.915.915,0,0,1,0-1.829,1.1,1.1,0,0,0,1.1-1.1.915.915,0,1,1,1.829,0,1.1,1.1,0,0,0,1.1,1.1.915.915,0,0,1,0,1.829,1.1,1.1,0,0,0-1.1,1.1.914.914,0,0,1-.914.914Z"
                  transform="translate(-243.207 65.047)" fill="#ffe783"/>
            <path id="Path_96"
                  d="M68.794,419.851a.915.915,0,0,1-.645-.267l-2-2a.914.914,0,0,1,0-1.291l2-2a.914.914,0,0,1,1.291,0l2,2a.914.914,0,0,1,0,1.291l-2,2.008A.915.915,0,0,1,68.794,419.851Zm-.711-2.917.711.711.711-.711-.711-.708Z"
                  transform="translate(75.344 -301.841)" fill="#ffe783"/>
            <path id="Path_98"
                  d="M141.064,46.254a.914.914,0,0,1-.645-.267l-2-2.005a.914.914,0,0,1,0-1.291l2-2a.914.914,0,0,1,1.291,0l2,2a.914.914,0,0,1,0,1.291l-2,2a.909.909,0,0,1-.645.267Zm-.711-2.917.711.711.711-.711-.711-.711Z"
                  transform="translate(301.688 97.79)" fill="#ffe783"/>
            <path id="Path_98-2" data-name="Path_98"
                  d="M141.064,46.254a.914.914,0,0,1-.645-.267l-2-2.005a.914.914,0,0,1,0-1.291l2-2a.914.914,0,0,1,1.291,0l2,2a.914.914,0,0,1,0,1.291l-2,2a.909.909,0,0,1-.645.267Zm-.711-2.917.711.711.711-.711-.711-.711Z"
                  transform="translate(145.688 57.79)" fill="#ffe783"/>
            <path id="padlock"
                  d="M70.9,3.681V2.932a2.932,2.932,0,1,0-5.864,0v.749a1.169,1.169,0,0,0-.586,1.01V8.209a1.174,1.174,0,0,0,1.173,1.173h4.691a1.174,1.174,0,0,0,1.173-1.173V4.691a1.169,1.169,0,0,0-.586-1.01ZM67.963,1.173a1.761,1.761,0,0,1,1.759,1.759v.586H66.2V2.932a1.761,1.761,0,0,1,1.759-1.759Zm.586,5.635v.815H67.377V6.808a.88.88,0,1,1,1.173,0Z"
                  transform="translate(259.555 217)" fill="#ffb18d"/>
            <path id="padlock-2" data-name="padlock"
                  d="M70.9,3.681V2.932a2.932,2.932,0,1,0-5.864,0v.749a1.169,1.169,0,0,0-.586,1.01V8.209a1.174,1.174,0,0,0,1.173,1.173h4.691a1.174,1.174,0,0,0,1.173-1.173V4.691a1.169,1.169,0,0,0-.586-1.01ZM67.963,1.173a1.761,1.761,0,0,1,1.759,1.759v.586H66.2V2.932a1.761,1.761,0,0,1,1.759-1.759Zm.586,5.635v.815H67.377V6.808a.88.88,0,1,1,1.173,0Z"
                  transform="translate(134.555 157)" fill="#ffb18d"/>
            <rect id="Rectangle_446" data-name="Rectangle 446" width="66" height="5" transform="translate(233 197)"
                  fill="url(#linear-gradient)"/>
            <rect id="Rectangle_454" data-name="Rectangle 454" width="20" height="5" transform="translate(383 179)"
                  fill="url(#linear-gradient-2)"/>
            <g id="Group_1135" data-name="Group 1135" transform="translate(-56 -7)">
                <rect id="Rectangle_448" data-name="Rectangle 448" width="66" height="5" transform="translate(234 186)"
                      fill="url(#linear-gradient)"/>
                <g id="Path_2110" data-name="Path 2110" transform="translate(280 122)" fill="#f4f2f1">
                    <path d="M 92 68 L 3 68 C 1.897199988365173 68 1 67.10279846191406 1 66 L 1 3 C 1 1.897199988365173 1.897199988365173 1 3 1 L 92 1 C 93.10279846191406 1 94 1.897199988365173 94 3 L 94 66 C 94 67.10279846191406 93.10279846191406 68 92 68 Z"
                          stroke="none"/>
                    <path d="M 3 2 C 2.448600769042969 2 2 2.448600769042969 2 3 L 2 66 C 2 66.55139923095703 2.448600769042969 67 3 67 L 92 67 C 92.55139923095703 67 93 66.55139923095703 93 66 L 93 3 C 93 2.448600769042969 92.55139923095703 2 92 2 L 3 2 M 3 0 L 92 0 C 93.6568603515625 0 95 1.3431396484375 95 3 L 95 66 C 95 67.6568603515625 93.6568603515625 69 92 69 L 3 69 C 1.3431396484375 69 0 67.6568603515625 0 66 L 0 3 C 0 1.3431396484375 1.3431396484375 0 3 0 Z"
                          stroke="none" fill="#e6e3df"/>
                </g>
                <g id="Rectangle_376" data-name="Rectangle 376" transform="translate(280 122)" fill="#fff"
                   stroke="#e6e3df" stroke-width="2">
                    <path d="M3,0H92a3,3,0,0,1,3,3v8a0,0,0,0,1,0,0H0a0,0,0,0,1,0,0V3A3,3,0,0,1,3,0Z" stroke="none"/>
                    <path d="M3,1H92a2,2,0,0,1,2,2V9a1,1,0,0,1-1,1H2A1,1,0,0,1,1,9V3A2,2,0,0,1,3,1Z" fill="none"/>
                </g>
                <circle id="Ellipse_110" data-name="Ellipse 110" cx="1.5" cy="1.5" r="1.5"
                        transform="translate(367 126)" fill="#eaecee"/>
                <circle id="Ellipse_111" data-name="Ellipse 111" cx="1.5" cy="1.5" r="1.5"
                        transform="translate(363 126)" fill="#eaecee"/>
                <circle id="Ellipse_112" data-name="Ellipse 112" cx="1.5" cy="1.5" r="1.5"
                        transform="translate(359 126)" fill="#eaecee"/>
                <g id="Rectangle_452" data-name="Rectangle 452" transform="translate(406 153)" fill="#f4f2f1"
                   stroke="#e6e3df" stroke-width="2">
                    <rect width="38" height="38" rx="3" stroke="none"/>
                    <rect x="1" y="1" width="36" height="36" rx="2" fill="none"/>
                </g>
                <g id="Rectangle_453" data-name="Rectangle 453" transform="translate(443.237 175.264) rotate(-45)"
                   fill="#f4f2f1" stroke="#e6e3df" stroke-width="2">
                    <rect width="23" height="23" rx="1" stroke="none"/>
                    <rect x="1" y="1" width="21" height="21" fill="none"/>
                </g>
                <g id="Ellipse_191" data-name="Ellipse 191" transform="translate(443.7 144)" fill="#f4f2f1"
                   stroke="#e6e3df" stroke-width="2">
                    <circle cx="9" cy="9" r="9" stroke="none"/>
                    <circle cx="9" cy="9" r="8" fill="none"/>
                </g>
                <g id="question_2_" data-name="question (2)" transform="translate(219 148.989)">
                    <circle id="Ellipse_210" data-name="Ellipse 210" cx="3.5" cy="3.5" r="3.5"
                            transform="translate(105 21.011)" fill="#e6e3df"/>
                    <path id="Path_2184" data-name="Path 2184"
                          d="M108.536,0A8.546,8.546,0,0,0,100,8.536v.821h6.566V8.536a1.97,1.97,0,1,1,3.243,1.5l-4.556,3.873v5.9h6.566V16.949l2.242-1.906A8.536,8.536,0,0,0,108.536,0Z"
                          fill="#e6e3df"/>
                </g>
            </g>
            <g id="Group_1129" data-name="Group 1129" transform="translate(-1153 -1658.051)">
                <path id="Path_2066" data-name="Path 2066"
                      d="M246.535,0H206.066A13.258,13.258,0,0,0,192.8,13.265v60.7a3.151,3.151,0,0,0,5.038,2.519L210.488,67h36.047A13.258,13.258,0,0,0,259.8,53.734V13.265A13.258,13.258,0,0,0,246.535,0Z"
                      transform="translate(1256 1783)" fill="url(#linear-gradient-4)"/>
                <path id="Path_2127" data-name="Path 2127"
                      d="M240.483-.16l-35.937.152A11.738,11.738,0,0,0,192.8,11.737l.107,53.593c0,2.28,1.664,2.662,3.509,1.279l10.142-7.3h33.818a11.738,11.738,0,0,0,11.745-11.745V11.737A11.779,11.779,0,0,0,240.483-.16Z"
                      transform="translate(1259.839 1787.428)" fill="url(#linear-gradient-5)"/>
                <g id="Group_1124" data-name="Group 1124" transform="translate(1463.258 1812.854)">
                    <path id="Path_2128" data-name="Path 2128"
                          d="M11.8,7.95,9.331,6.526,11.8,5.1a.5.5,0,0,0,.184-.686L11.228,3.11a.5.5,0,0,0-.686-.184L8.075,4.351V1.5a.5.5,0,0,0-.5-.5H6.066a.5.5,0,0,0-.5.5V4.351L3.1,2.927a.5.5,0,0,0-.686.184L1.657,4.415a.5.5,0,0,0,.184.686L4.307,6.526,1.841,7.95a.5.5,0,0,0-.184.686l.754,1.305a.5.5,0,0,0,.686.184L5.563,8.7v2.848a.5.5,0,0,0,.5.5H7.573a.5.5,0,0,0,.5-.5V8.7l2.467,1.424a.5.5,0,0,0,.686-.184l.754-1.305A.5.5,0,0,0,11.8,7.95Z"
                          transform="translate(-1.587 -1)" fill="url(#linear-gradient-6)"/>
                    <path id="Subtraction_24" data-name="Subtraction 24"
                          d="M0,5.524V0H.753a.5.5,0,0,1,.5.5V3.35L3.722,1.926a.5.5,0,0,1,.687.184l.352.609L0,5.523Z"
                          transform="translate(5.233 0)" fill="url(#linear-gradient-7)"/>
                    <path id="Subtraction_26" data-name="Subtraction 26"
                          d="M.752,5.525H.05L0,0,4.784,2.764l-.376.651a.5.5,0,0,1-.687.183L1.256,2.173V5.022a.5.5,0,0,1-.067.25A.506.506,0,0,1,.752,5.525Z"
                          transform="translate(5.235 5.534)" fill="url(#linear-gradient-7)"/>
                    <path id="Subtraction_28" data-name="Subtraction 28"
                          d="M.443,5.48h0l-.376-.65a.5.5,0,0,1,.185-.687L2.717,2.719.251,1.3A.5.5,0,0,1,.067.608L.418,0,5.226,2.718.444,5.48Z"
                          transform="translate(0 2.791)" fill="url(#linear-gradient-7)"/>
                </g>
                <g id="Group_1125" data-name="Group 1125" transform="translate(1478.478 1812.854)">
                    <path id="Path_2128-2" data-name="Path 2128"
                          d="M11.8,7.95,9.331,6.526,11.8,5.1a.5.5,0,0,0,.184-.686L11.228,3.11a.5.5,0,0,0-.686-.184L8.075,4.351V1.5a.5.5,0,0,0-.5-.5H6.066a.5.5,0,0,0-.5.5V4.351L3.1,2.927a.5.5,0,0,0-.686.184L1.657,4.415a.5.5,0,0,0,.184.686L4.307,6.526,1.841,7.95a.5.5,0,0,0-.184.686l.754,1.305a.5.5,0,0,0,.686.184L5.563,8.7v2.848a.5.5,0,0,0,.5.5H7.573a.5.5,0,0,0,.5-.5V8.7l2.467,1.424a.5.5,0,0,0,.686-.184l.754-1.305A.5.5,0,0,0,11.8,7.95Z"
                          transform="translate(-1.587 -1)" fill="url(#linear-gradient-6)"/>
                    <path id="Subtraction_24-2" data-name="Subtraction 24"
                          d="M0,5.524V0H.753a.5.5,0,0,1,.5.5V3.35L3.722,1.926a.5.5,0,0,1,.687.184l.352.609L0,5.523Z"
                          transform="translate(5.233 0)" fill="url(#linear-gradient-7)"/>
                    <path id="Subtraction_26-2" data-name="Subtraction 26"
                          d="M.752,5.525H.05L0,0,4.784,2.764l-.376.651a.5.5,0,0,1-.687.183L1.256,2.173V5.022a.5.5,0,0,1-.067.25A.506.506,0,0,1,.752,5.525Z"
                          transform="translate(5.235 5.534)" fill="url(#linear-gradient-7)"/>
                    <path id="Subtraction_28-2" data-name="Subtraction 28"
                          d="M.443,5.48h0l-.376-.65a.5.5,0,0,1,.185-.687L2.717,2.719.251,1.3A.5.5,0,0,1,.067.608L.418,0,5.226,2.718.444,5.48Z"
                          transform="translate(0 2.791)" fill="url(#linear-gradient-7)"/>
                </g>
                <g id="Group_1126" data-name="Group 1126" transform="translate(1493.699 1812.854)">
                    <path id="Path_2128-3" data-name="Path 2128"
                          d="M11.8,7.95,9.331,6.526,11.8,5.1a.5.5,0,0,0,.184-.686L11.228,3.11a.5.5,0,0,0-.686-.184L8.075,4.351V1.5a.5.5,0,0,0-.5-.5H6.066a.5.5,0,0,0-.5.5V4.351L3.1,2.927a.5.5,0,0,0-.686.184L1.657,4.415a.5.5,0,0,0,.184.686L4.307,6.526,1.841,7.95a.5.5,0,0,0-.184.686l.754,1.305a.5.5,0,0,0,.686.184L5.563,8.7v2.848a.5.5,0,0,0,.5.5H7.573a.5.5,0,0,0,.5-.5V8.7l2.467,1.424a.5.5,0,0,0,.686-.184l.754-1.305A.5.5,0,0,0,11.8,7.95Z"
                          transform="translate(-1.587 -1)" fill="url(#linear-gradient-6)"/>
                    <path id="Subtraction_24-3" data-name="Subtraction 24"
                          d="M0,5.524V0H.753a.5.5,0,0,1,.5.5V3.35L3.722,1.926a.5.5,0,0,1,.687.184l.352.609L0,5.523Z"
                          transform="translate(5.233 0)" fill="url(#linear-gradient-7)"/>
                    <path id="Subtraction_26-3" data-name="Subtraction 26"
                          d="M.752,5.525H.05L0,0,4.784,2.764l-.376.651a.5.5,0,0,1-.687.183L1.256,2.173V5.022a.5.5,0,0,1-.067.25A.506.506,0,0,1,.752,5.525Z"
                          transform="translate(5.235 5.534)" fill="url(#linear-gradient-7)"/>
                    <path id="Subtraction_28-3" data-name="Subtraction 28"
                          d="M.443,5.48h0l-.376-.65a.5.5,0,0,1,.185-.687L2.717,2.719.251,1.3A.5.5,0,0,1,.067.608L.418,0,5.226,2.718.444,5.48Z"
                          transform="translate(0 2.791)" fill="url(#linear-gradient-7)"/>
                </g>
            </g>
            <rect id="Rectangle_482" data-name="Rectangle 482" width="66" height="5" transform="translate(218 197)"
                  fill="url(#linear-gradient)"/>
            <g id="Group_1246" data-name="Group 1246" transform="translate(-1321 -1532.824)">
                <circle id="Ellipse_177" data-name="Ellipse 177" cx="19" cy="19" r="19"
                        transform="translate(1584 1696.824)" fill="url(#linear-gradient-19)"/>
                <circle id="Ellipse_181" data-name="Ellipse 181" cx="14.616" cy="14.616" r="14.616"
                        transform="translate(1588.292 1701.472)" fill="url(#linear-gradient-20)"/>
                <path id="Intersection_8" data-name="Intersection 8"
                      d="M0,10.46,10.575,0C16.98,6.155,21.305,10.184,23.411,12.127a18.949,18.949,0,0,1-8.993,10.838Z"
                      transform="translate(1597.475 1709.582)" fill="url(#linear-gradient-21)"/>
                <path id="Intersection_5" data-name="Intersection 5"
                      d="M0,7.358Q.239,6.924.51,6.5a14.221,14.221,0,0,1,23.923.045q.274.428.516.872a18.823,18.823,0,0,1-12.438,4.672A18.822,18.822,0,0,1,0,7.358Z"
                      transform="translate(1590.382 1722.731)" fill="url(#radial-gradient)"/>
                <ellipse id="Ellipse_180" data-name="Ellipse 180" cx="7.477" cy="7.464" rx="7.477" ry="7.464"
                         transform="translate(1595.362 1707.431)" fill="url(#radial-gradient-2)"/>
                <path id="Subtraction_21" data-name="Subtraction 21"
                      d="M8.534,11.244h0A16.607,16.607,0,0,0,0,.288,14.318,14.318,0,0,1,7.644.823,14.151,14.151,0,0,1,11.731,3.1,14.232,14.232,0,0,1,14.84,6.549c.182.284.356.577.516.872a18.753,18.753,0,0,1-6.821,3.823Z"
                      transform="translate(1599.975 1722.731)" fill="url(#linear-gradient-22)"/>
                <path id="Subtraction_22" data-name="Subtraction 22"
                      d="M3.056,14.742A7.431,7.431,0,0,1,0,14.092a7.485,7.485,0,0,0,9.133-7.28A7.477,7.477,0,0,0,4.716,0,7.463,7.463,0,0,1,3.056,14.742Z"
                      transform="translate(1599.783 1707.616)" fill="url(#linear-gradient-23)"/>
            </g>
        </g>
    </g>
</svg>
