<!--
 * Copyright (c) 2024, WSO2 LLC. (https://www.wso2.com).
 *
 * WSO2 LLC. licenses this file to you under the Apache License,
 * Version 2.0 (the "License"); you may not use this file except
 * in compliance with the License.
 * You may obtain a copy of the License at
 *
 *     http://www.apache.org/licenses/LICENSE-2.0
 *
 * Unless required by applicable law or agreed to in writing,
 * software distributed under the License is distributed on an
 * "AS IS" BASIS, WITHOUT WARRANTIES OR CONDITIONS OF ANY
 * KIND, either express or implied. See the License for the
 * specific language governing permissions and limitations
 * under the License.
-->

<svg version="1.1" id="Logo_00000158727625646119494500000015711314265259652764_"
	 xmlns="http://www.w3.org/2000/svg" xmlns:xlink="http://www.w3.org/1999/xlink" x="0px" y="0px" viewBox="0 0 502.89 504.44"
	 style="enable-background:new 0 0 502.89 504.44;" xml:space="preserve">
<style type="text/css">
	.st0{fill:#0866FF;}
	.st1{fill:#FFFFFF;}
</style>
<g id="Logo">
	<path id="Initiator" class="st0" d="M501.01,252.73c0-138.07-111.93-250-250-250s-250,111.93-250,250
		c0,117.24,80.72,215.62,189.61,242.64V329.13h-51.55v-76.4h51.55v-32.92c0-85.09,38.51-124.53,122.05-124.53
		c15.84,0,43.17,3.11,54.35,6.21v69.25c-5.9-0.62-16.15-0.93-28.88-0.93c-40.99,0-56.83,15.53-56.83,55.9v27.02h81.66l-14.03,76.4
		H281.3V500.9C405.08,485.95,501.01,380.55,501.01,252.73z"/>
	<path id="F" class="st1" d="M348.93,329.13l14.03-76.4H281.3v-27.02c0-40.37,15.84-55.9,56.83-55.9c12.73,0,22.98,0.31,28.88,0.93
		v-69.25c-11.18-3.11-38.51-6.21-54.35-6.21c-83.54,0-122.05,39.44-122.05,124.53v32.92h-51.55v76.4h51.55v166.24
		c19.34,4.8,39.57,7.36,60.39,7.36c10.25,0,20.36-0.63,30.29-1.83V329.13H348.93z"/>
</g>
</svg>
