<!--
 * Copyright (c) 2021, WSO2 Inc. (http://www.wso2.com). All Rights Reserved.
 *
 * This software is the property of WSO2 Inc. and its suppliers, if any.
 * Dissemination of any information or reproduction of any material contained
 * herein in any form is strictly forbidden, unless permitted by WSO2 expressly.
 * You may not alter or remove any copyright or other notice from copies of this content."
-->

<svg xmlns="http://www.w3.org/2000/svg" xmlns:xlink="http://www.w3.org/1999/xlink" width="249.402" height="281.747" viewBox="0 0 249.402 281.747">
    <defs>
        <filter id="Path_329" x="0" y="0" width="249.402" height="281.747" filterUnits="userSpaceOnUse">
            <feOffset dy="3" input="SourceAlpha"/>
            <feGaussianBlur stdDeviation="3" result="blur"/>
            <feFlood flood-opacity="0.051"/>
            <feComposite operator="in" in2="blur"/>
            <feComposite in="SourceGraphic"/>
        </filter>
        <linearGradient id="linear-gradient" x1="0.167" y1="0.066" x2="1.829" y2="2.006" gradientUnits="objectBoundingBox">
            <stop offset="0" stop-color="#d7d7d7"/>
            <stop offset="1" stop-color="#6c6c6c"/>
        </linearGradient>
        <filter id="Path_335" x="81.932" y="44.177" width="85.555" height="85.555" filterUnits="userSpaceOnUse">
            <feOffset dy="3" input="SourceAlpha"/>
            <feGaussianBlur stdDeviation="3" result="blur-2"/>
            <feFlood flood-opacity="0.051"/>
            <feComposite operator="in" in2="blur-2"/>
            <feComposite in="SourceGraphic"/>
        </filter>
        <filter id="Path_336" x="57.476" y="114.148" width="134.451" height="78.124" filterUnits="userSpaceOnUse">
            <feOffset dy="3" input="SourceAlpha"/>
            <feGaussianBlur stdDeviation="3" result="blur-3"/>
            <feFlood flood-opacity="0.051"/>
            <feComposite operator="in" in2="blur-3"/>
            <feComposite in="SourceGraphic"/>
        </filter>
        <linearGradient id="linear-gradient-3" x1="0.711" y1="1.263" x2="-0.518" y2="-3.121" gradientUnits="objectBoundingBox">
            <stop offset="0" stop-color="#fff"/>
            <stop offset="1" stop-color="gray"/>
        </linearGradient>
        <radialGradient id="radial-gradient" cx="0.544" cy="0.38" r="3.433" gradientTransform="matrix(0.336, -0.942, 0.942, 0.336, 0.12, 0.748)" xlink:href="#linear-gradient-3"/>
    </defs>
    <g id="account-created-successfully-illustration" transform="translate(-921 -256.98)">
        <g id="Group_23" data-name="Group 23" transform="translate(930 262.98)">
            <g transform="matrix(1, 0, 0, 1, -9, -6)" filter="url(#Path_329)">
                <path id="Path_329-2" data-name="Path 329" d="M265.84,41.916,158.181,20.339a8.039,8.039,0,0,0-4.622,0L45.9,41.916a8.041,8.041,0,0,0-5.73,7.7V168.044c0,15.4,6.236,31.171,18.534,46.866,9.392,11.987,22.387,24.023,38.622,35.775a346.478,346.478,0,0,0,55.26,32.359,8.037,8.037,0,0,0,6.571,0,346.52,346.52,0,0,0,55.259-32.359c16.235-11.752,29.229-23.789,38.622-35.775,12.3-15.694,18.533-31.462,18.533-46.866V49.618A8.039,8.039,0,0,0,265.84,41.916Z" transform="translate(-31.17 -14)" fill="#f5f5f5"/>
            </g>
            <path id="Path_330" data-name="Path 330" d="M265.84,41.916,158.181,20.339a8.039,8.039,0,0,0-4.622,0L45.9,41.916a8.041,8.041,0,0,0-5.73,7.7V168.044c0,15.4,6.236,31.171,18.534,46.866,9.392,11.987,22.387,24.023,38.622,35.775a346.478,346.478,0,0,0,55.26,32.359,8.037,8.037,0,0,0,6.571,0,346.52,346.52,0,0,0,55.259-32.359c16.235-11.752,29.229-23.789,38.622-35.775,12.3-15.694,18.533-31.462,18.533-46.866V49.618A8.039,8.039,0,0,0,265.84,41.916Z" transform="translate(-40.168 -19.978)" opacity="0.35" fill="url(#linear-gradient)"/>
            <path id="Subtraction_5" data-name="Subtraction 5" d="M115.505,263.742h0a7.979,7.979,0,0,1-3.087-.7,346.784,346.784,0,0,1-55.26-32.359c-16.238-11.755-29.232-23.792-38.622-35.775C6.236,179.214,0,163.446,0,148.043V29.616a8.04,8.04,0,0,1,5.729-7.7L113.391.337A8.025,8.025,0,0,1,115.505,0Z" transform="translate(0 0.002)" opacity="0.18" fill="url(#linear-gradient)"/>
        </g>
        <g id="user_17_" data-name="user (17)" transform="translate(963.311 307.157)">
            <g id="Group_32" data-name="Group 32" transform="translate(48.622)">
                <g id="Group_31" data-name="Group 31" transform="translate(0)">
                    <g transform="matrix(1, 0, 0, 1, -90.93, -50.18)" filter="url(#Path_335)">
                        <g id="Path_335-2" data-name="Path 335" transform="translate(-19.86 50.18)" fill="#fff">
                          <path d="M 144.5686492919922 65.05528259277344 C 140.3645782470703 65.05528259277344 136.2796936035156 64.225830078125 132.4274597167969 62.58995056152344 C 128.7051696777344 61.00926208496094 125.3577346801758 58.74771881103516 122.478157043457 55.86812973022461 C 119.5985641479492 52.98855209350586 117.3370208740234 49.64112091064453 115.7563323974609 45.91883087158203 C 114.1204528808594 42.06659698486328 113.2910003662109 37.98170852661133 113.2910003662109 33.77764129638672 C 113.2910003662109 29.57357406616211 114.1204528808594 25.48868560791016 115.7563247680664 21.63644218444824 C 117.3370132446289 17.91416358947754 119.5985565185547 14.56673049926758 122.478141784668 11.68715286254883 C 125.3577194213867 8.807563781738281 128.7051544189453 6.546019077301025 132.4274444580078 4.965330123901367 C 136.2796783447266 3.329452514648438 140.3645629882812 2.499996900558472 144.5686492919922 2.499996900558472 C 148.772705078125 2.499996900558472 152.8576049804688 3.329452514648438 156.7098388671875 4.965330123901367 C 160.43212890625 6.546019077301025 163.7795562744141 8.807563781738281 166.6591491699219 11.68715286254883 C 169.5387268066406 14.56673049926758 171.8002624511719 17.91416358947754 173.3809509277344 21.63644218444824 C 175.0168304443359 25.48868560791016 175.8462829589844 29.57357406616211 175.8462829589844 33.77764129638672 C 175.8462829589844 37.98170852661133 175.0168304443359 42.06659698486328 173.3809509277344 45.91884231567383 C 171.8002624511719 49.64112091064453 169.5387268066406 52.98855209350586 166.6591491699219 55.86812973022461 C 163.7795562744141 58.74771881103516 160.43212890625 61.00926208496094 156.7098388671875 62.58995056152344 C 152.8576049804688 64.225830078125 148.772705078125 65.05528259277344 144.5686492919922 65.05528259277344 Z" stroke="none"/>
                          <path d="M 144.5686492919922 5 C 140.7022094726562 5 136.9460906982422 5.762546539306641 133.4046173095703 7.266441345214844 C 129.97900390625 8.721149444580078 126.8975830078125 10.80324172973633 124.2459106445312 13.45492172241211 C 121.5942535400391 16.10658645629883 119.5121459960938 19.18801498413086 118.0574340820312 22.61362838745117 C 116.5535430908203 26.15508270263672 115.7910003662109 29.91120147705078 115.7910003662109 33.77764129638672 C 115.7910003662109 37.64408111572266 116.5535430908203 41.40018844604492 118.0574340820312 44.94165420532227 C 119.5121459960938 48.36726760864258 121.5942535400391 51.44869232177734 124.2459106445312 54.10036087036133 C 126.8975830078125 56.75202941894531 129.9790191650391 58.83413696289062 133.4046325683594 60.28884124755859 C 136.9460906982422 61.7927360534668 140.7022094726562 62.55528259277344 144.5686492919922 62.55528259277344 C 148.4350891113281 62.55528259277344 152.1912078857422 61.7927360534668 155.732666015625 60.28884124755859 C 159.1582794189453 58.83413696289062 162.2397003173828 56.75204086303711 164.891357421875 54.10036087036133 C 167.5430450439453 51.44869232177734 169.6251373291016 48.36726760864258 171.0798492431641 44.94165420532227 C 172.583740234375 41.40019989013672 173.3462829589844 37.64408111572266 173.3462829589844 33.77764129638672 C 173.3462829589844 29.91120147705078 172.583740234375 26.15508270263672 171.0798492431641 22.61362838745117 C 169.6251373291016 19.18801498413086 167.5430450439453 16.10658645629883 164.891357421875 13.45492172241211 C 162.2397003173828 10.80324172973633 159.1582794189453 8.721149444580078 155.732666015625 7.266441345214844 C 152.1912078857422 5.762546539306641 148.4350891113281 5 144.5686492919922 5 M 144.5686492919922 0 C 163.1538238525391 0 178.3462829589844 15.19246673583984 178.3462829589844 33.77764129638672 C 178.3462829589844 52.36281585693359 163.1538238525391 67.55528259277344 144.5686492919922 67.55528259277344 C 125.9834747314453 67.55528259277344 110.7910003662109 52.36281585693359 110.7910003662109 33.77764129638672 C 110.7910003662109 15.19246673583984 125.9834594726562 0 144.5686492919922 0 Z" stroke="none" fill="#00a79d"/>
                        </g>
                    </g>
                </g>
            </g>
            <g id="Group_34" data-name="Group 34" transform="translate(24.165 69.972)">
                <g id="Group_33" data-name="Group 33" transform="translate(0)">
                    <g transform="matrix(1, 0, 0, 1, -66.48, -120.15)" filter="url(#Path_336)">
                        <path id="Path_336-2" data-name="Path 336" d="M140.367,272.417a31.49,31.49,0,0,0-3.392-6.2,41.985,41.985,0,0,0-29.057-18.29,6.217,6.217,0,0,0-4.278,1.032,36,36,0,0,1-42.48,0,5.534,5.534,0,0,0-4.278-1.032,41.681,41.681,0,0,0-29.057,18.29,36.308,36.308,0,0,0-3.392,6.2,3.137,3.137,0,0,0,.147,2.8,58.84,58.84,0,0,0,3.982,5.9,56.056,56.056,0,0,0,6.785,7.67,88.41,88.41,0,0,0,6.785,5.9,67.264,67.264,0,0,0,80.24,0,64.85,64.85,0,0,0,6.785-5.9,68.1,68.1,0,0,0,6.785-7.67,51.712,51.712,0,0,0,3.982-5.9A2.517,2.517,0,0,0,140.367,272.417Z" transform="translate(42.31 -127.69)" fill="#fff"/>
                    </g>
                </g>
            </g>
            <g id="Group_36" data-name="Group 36" transform="translate(24.165 69.972)" opacity="0.08">
                <g id="Group_33-2" data-name="Group 33" transform="translate(0)">
                    <path id="Path_336-3" data-name="Path 336" d="M140.367,272.417a31.49,31.49,0,0,0-3.392-6.2,41.985,41.985,0,0,0-29.057-18.29,6.217,6.217,0,0,0-4.278,1.032,36,36,0,0,1-42.48,0,5.534,5.534,0,0,0-4.278-1.032,41.681,41.681,0,0,0-29.057,18.29,36.308,36.308,0,0,0-3.392,6.2,3.137,3.137,0,0,0,.147,2.8,58.84,58.84,0,0,0,3.982,5.9,56.056,56.056,0,0,0,6.785,7.67,88.41,88.41,0,0,0,6.785,5.9,67.264,67.264,0,0,0,80.24,0,64.85,64.85,0,0,0,6.785-5.9,68.1,68.1,0,0,0,6.785-7.67,51.712,51.712,0,0,0,3.982-5.9A2.517,2.517,0,0,0,140.367,272.417Z" transform="translate(-24.165 -247.841)" fill="url(#linear-gradient-3)"/>
                </g>
            </g>
            <g id="Group_37" data-name="Group 37" transform="translate(48.613)" opacity="0.16">
                <g id="Group_31-2" data-name="Group 31" transform="translate(0)">
                  <path id="Path_335-3" data-name="Path 335" d="M144.569,0a33.778,33.778,0,1,0,33.778,33.778A33.867,33.867,0,0,0,144.569,0Z" transform="translate(-110.791)" fill="url(#radial-gradient)"/>
              </g>
            </g>
        </g>
        <g id="Group_35" data-name="Group 35" transform="translate(51.558 119.854)">
            <rect id="Rectangle_14" data-name="Rectangle 14" width="55" height="55" rx="15" transform="translate(1006.965 274)" fill="#eef9f8"/>
            <path id="Union_2" data-name="Union 2" d="M17,34A17,17,0,0,1,4.979,4.979,17,17,0,1,1,29.021,29.021,16.889,16.889,0,0,1,17,34ZM17,1.5A15.5,15.5,0,1,0,32.5,17,15.517,15.517,0,0,0,17,1.5Z" transform="translate(1017.478 284.5)" fill="#00a79d"/>
            <path id="Path_310" data-name="Path 310" d="M1024.9,304.284l5.029,5.029,11.756-11.756" transform="translate(1.176 -1.935)" fill="none" stroke="#00a79d" stroke-width="2"/>
        </g>
    </g>
</svg>
