<?xml version="1.0" encoding="utf-8"?>

<!--
 * Copyright (c) 2020, WSO2 Inc. (http://www.wso2.org) All Rights Reserved.
 *
 * WSO2 Inc. licenses this file to you under the Apache License,
 * Version 2.0 (the "License"); you may not use this file except
 * in compliance with the License.
 * You may obtain a copy of the License at
 *
 *     http://www.apache.org/licenses/LICENSE-2.0
 *
 * Unless required by applicable law or agreed to in writing,
 * software distributed under the License is distributed on an
 * "AS IS" BASIS, WITHOUT WARRANTIES OR CONDITIONS OF ANY
 * KIND, either express or implied. See the License for the
 * specific language governing permissions and limitations
 * under the License.
-->

<svg xmlns:xlink="http://www.w3.org/1999/xlink" xmlns="http://www.w3.org/2000/svg" id="custom-app-illustration"
     class="icon" width="100" height="100" viewBox="0 0 92.778 80">
    <g id="custom-app-illustration" transform="translate(0 -17.999)">
        <path id="Path_239" class="path fill primary"
              d="M69.929,92.749h-.105a20.248,20.248,0,0,1-15.25-6.943,31.042,31.042,0,0,0-23.6-10.672,31.115,31.115,0,0,0,.141,62.229,30.979,30.979,0,0,0,13.442-3.047,10.377,10.377,0,0,1,10.778,1.126A23.792,23.792,0,1,0,69.929,92.749Z"
              transform="translate(0 -46.692)" fill="#ffbd9f" opacity="0.1"/>
        <path id="Path_240" class="path fill primary"
              d="M243.586,188.317l-5.508-1.569a21.95,21.95,0,0,0-2.551-6.155l2.787-5.006a1.093,1.093,0,0,0-.182-1.3l-3.765-3.765a1.093,1.093,0,0,0-1.3-.182l-5.006,2.787a21.951,21.951,0,0,0-6.155-2.551l-1.569-5.508a1.091,1.091,0,0,0-1.05-.793h-5.324a1.091,1.091,0,0,0-1.05.793l-1.569,5.508a21.951,21.951,0,0,0-6.155,2.551l-5.006-2.787a1.093,1.093,0,0,0-1.3.182l-3.765,3.765a1.093,1.093,0,0,0-.182,1.3l2.787,5.006a21.95,21.95,0,0,0-2.551,6.155l-5.508,1.569a1.091,1.091,0,0,0-.793,1.05v5.324a1.091,1.091,0,0,0,.793,1.05l5.508,1.569a21.95,21.95,0,0,0,2.551,6.155l-2.787,5.006a1.093,1.093,0,0,0,.182,1.3l3.765,3.765a1.093,1.093,0,0,0,1.3.182l5.006-2.787a21.949,21.949,0,0,0,6.155,2.551l1.569,5.508a1.091,1.091,0,0,0,1.05.793h5.324a1.091,1.091,0,0,0,1.05-.793l1.569-5.508a21.951,21.951,0,0,0,6.155-2.551l5.006,2.787a1.093,1.093,0,0,0,1.3-.182l3.765-3.765a1.093,1.093,0,0,0,.182-1.3l-2.787-5.006a21.95,21.95,0,0,0,2.551-6.155l5.508-1.569a1.091,1.091,0,0,0,.793-1.05v-5.324A1.091,1.091,0,0,0,243.586,188.317Zm-26.963,17.375a13.663,13.663,0,1,1,13.663-13.663A13.664,13.664,0,0,1,216.623,205.692Z"
              transform="translate(-154.348 -119.54)" fill="#ec5d2a" opacity="0.1"/>
        <path id="Path_241" class="path fill primary"
              d="M48.953,191.708l-2.974-.847a11.854,11.854,0,0,0-1.377-3.323l1.5-2.7a.59.59,0,0,0-.1-.7L43.975,182.1a.59.59,0,0,0-.7-.1l-2.7,1.5a11.854,11.854,0,0,0-3.323-1.377l-.847-2.974a.589.589,0,0,0-.567-.428H32.956a.59.59,0,0,0-.567.428l-.847,2.974a11.854,11.854,0,0,0-3.323,1.377l-2.7-1.5a.59.59,0,0,0-.7.1l-2.033,2.033a.59.59,0,0,0-.1.7l1.5,2.7a11.854,11.854,0,0,0-1.377,3.323l-2.974.847a.589.589,0,0,0-.428.567v2.875a.589.589,0,0,0,.428.567l2.974.847a11.854,11.854,0,0,0,1.377,3.323l-1.5,2.7a.591.591,0,0,0,.1.7l2.033,2.033a.59.59,0,0,0,.7.1l2.7-1.5a11.853,11.853,0,0,0,3.323,1.377l.847,2.974a.589.589,0,0,0,.567.428h2.875a.59.59,0,0,0,.567-.428l.847-2.974a11.853,11.853,0,0,0,3.323-1.377l2.7,1.5a.59.59,0,0,0,.7-.1l2.033-2.033a.59.59,0,0,0,.1-.7l-1.5-2.7a11.852,11.852,0,0,0,1.377-3.323l2.974-.847a.589.589,0,0,0,.428-.567v-2.875a.589.589,0,0,0-.428-.567Zm-14.56,6.719a4.714,4.714,0,1,1,4.714-4.714A4.714,4.714,0,0,1,34.394,198.427Z"
              transform="translate(-15.859 -131.35)" fill="#ec5d2a" opacity="0.1"/>
        <path id="Path_242" class="path fill primary"
              d="M148.223,31.98l-3.2-.912a12.765,12.765,0,0,0-1.483-3.579l1.621-2.911a.636.636,0,0,0-.106-.757l-2.189-2.189a.636.636,0,0,0-.757-.106l-2.911,1.621a12.764,12.764,0,0,0-3.579-1.483l-.912-3.2a.635.635,0,0,0-.611-.461H131a.635.635,0,0,0-.611.461l-.912,3.2a12.764,12.764,0,0,0-3.579,1.483l-2.911-1.621a.636.636,0,0,0-.757.106l-2.189,2.189a.636.636,0,0,0-.106.757l1.621,2.911a12.764,12.764,0,0,0-1.483,3.579l-3.2.912a.635.635,0,0,0-.461.611v3.1a.635.635,0,0,0,.461.611l3.2.912a12.764,12.764,0,0,0,1.483,3.579L119.931,43.7a.636.636,0,0,0,.106.757l2.189,2.189a.636.636,0,0,0,.757.106l2.911-1.621a12.758,12.758,0,0,0,3.579,1.483l.912,3.2a.635.635,0,0,0,.611.461h3.1a.635.635,0,0,0,.611-.461l.912-3.2a12.764,12.764,0,0,0,3.579-1.483l2.911,1.621a.636.636,0,0,0,.757-.106l2.189-2.189a.636.636,0,0,0,.106-.757l-1.621-2.911a12.763,12.763,0,0,0,1.483-3.579l3.2-.912a.635.635,0,0,0,.461-.611v-3.1A.635.635,0,0,0,148.223,31.98Zm-15.679,8.437a6.278,6.278,0,1,1,6.278-6.278A6.279,6.279,0,0,1,132.544,40.417Z"
              transform="translate(-95.129)" fill="#ec5d2a" opacity="0.101"/>
        <path id="Path_243" class="path fill primary"
              d="M243.586,209.317l-5.508-1.569a21.95,21.95,0,0,0-2.551-6.155l2.787-5.006a1.093,1.093,0,0,0-.182-1.3l-3.765-3.765a1.093,1.093,0,0,0-1.3-.182l-5.006,2.787a21.951,21.951,0,0,0-6.155-2.551l-1.569-5.508a1.091,1.091,0,0,0-1.05-.793h-5.324a1.092,1.092,0,0,0-1.05.793l-1.569,5.508a21.951,21.951,0,0,0-6.155,2.551l-5.006-2.787a1.093,1.093,0,0,0-1.3.182l-3.765,3.765a1.093,1.093,0,0,0-.182,1.3l2.787,5.006a21.948,21.948,0,0,0-2.551,6.155l-5.508,1.569a1.091,1.091,0,0,0-.793,1.05v5.324a1.091,1.091,0,0,0,.793,1.05l5.508,1.569a21.95,21.95,0,0,0,2.551,6.155l-2.787,5.006a1.093,1.093,0,0,0,.182,1.3l3.765,3.765a1.093,1.093,0,0,0,1.3.182l5.006-2.787a21.949,21.949,0,0,0,6.155,2.551l1.569,5.508a1.091,1.091,0,0,0,1.05.793h5.324a1.091,1.091,0,0,0,1.05-.793l1.569-5.508a21.951,21.951,0,0,0,6.155-2.551l5.006,2.787a1.093,1.093,0,0,0,1.3-.182l3.765-3.765a1.093,1.093,0,0,0,.182-1.3l-2.787-5.006a21.95,21.95,0,0,0,2.551-6.155l5.508-1.569a1.091,1.091,0,0,0,.793-1.05v-5.324A1.091,1.091,0,0,0,243.586,209.317Zm-26.963,17.375a13.663,13.663,0,1,1,13.663-13.663A13.664,13.664,0,0,1,216.623,226.692Z"
              transform="translate(-154.348 -136.701)" fill="#f2a461"  opacity="0.8"/>
        <path id="Path_244" class="path fill primary"
              d="M48.953,212.708l-2.974-.847a11.854,11.854,0,0,0-1.377-3.323l1.5-2.7a.59.59,0,0,0-.1-.7L43.975,203.1a.59.59,0,0,0-.7-.1l-2.7,1.5a11.854,11.854,0,0,0-3.323-1.377l-.847-2.974a.589.589,0,0,0-.567-.428H32.956a.59.59,0,0,0-.567.428l-.847,2.974a11.854,11.854,0,0,0-3.323,1.377l-2.7-1.5a.59.59,0,0,0-.7.1l-2.033,2.033a.59.59,0,0,0-.1.7l1.5,2.7a11.854,11.854,0,0,0-1.377,3.323l-2.974.847a.589.589,0,0,0-.428.567v2.875a.589.589,0,0,0,.428.567l2.974.847a11.854,11.854,0,0,0,1.377,3.323l-1.5,2.7a.591.591,0,0,0,.1.7l2.033,2.033a.59.59,0,0,0,.7.1l2.7-1.5a11.853,11.853,0,0,0,3.323,1.377l.847,2.974a.589.589,0,0,0,.567.428h2.875a.59.59,0,0,0,.567-.428l.847-2.974a11.853,11.853,0,0,0,3.323-1.377l2.7,1.5a.59.59,0,0,0,.7-.1l2.033-2.033a.59.59,0,0,0,.1-.7l-1.5-2.7a11.852,11.852,0,0,0,1.377-3.323l2.974-.847a.589.589,0,0,0,.428-.567v-2.875a.589.589,0,0,0-.428-.567Zm-14.56,6.719a4.714,4.714,0,1,1,4.714-4.714A4.714,4.714,0,0,1,34.394,219.427Z"
              transform="translate(-15.859 -148.512)" fill="#ffa052" opacity="0.7"/>
        <path id="Path_245" class="path fill primary"
              d="M148.223,52.98l-3.2-.912a12.765,12.765,0,0,0-1.483-3.579l1.621-2.911a.636.636,0,0,0-.106-.757l-2.189-2.189a.636.636,0,0,0-.757-.106l-2.911,1.621a12.764,12.764,0,0,0-3.579-1.483l-.912-3.2a.635.635,0,0,0-.611-.461H131a.635.635,0,0,0-.611.461l-.912,3.2a12.764,12.764,0,0,0-3.579,1.483l-2.911-1.621a.636.636,0,0,0-.757.106l-2.189,2.189a.636.636,0,0,0-.106.757l1.621,2.911a12.764,12.764,0,0,0-1.483,3.579l-3.2.912a.635.635,0,0,0-.461.611v3.1a.635.635,0,0,0,.461.611l3.2.912a12.764,12.764,0,0,0,1.483,3.579L119.931,64.7a.636.636,0,0,0,.106.757l2.189,2.189a.636.636,0,0,0,.757.106l2.911-1.621a12.759,12.759,0,0,0,3.579,1.483l.912,3.2a.635.635,0,0,0,.611.461h3.1a.635.635,0,0,0,.611-.461l.912-3.2a12.764,12.764,0,0,0,3.579-1.483l2.911,1.621a.636.636,0,0,0,.757-.106l2.189-2.189a.636.636,0,0,0,.106-.757l-1.621-2.911a12.763,12.763,0,0,0,1.483-3.579l3.2-.912a.635.635,0,0,0,.461-.611v-3.1a.635.635,0,0,0-.461-.611Zm-15.679,8.437a6.278,6.278,0,1,1,6.278-6.278A6.279,6.279,0,0,1,132.544,61.417Z"
              transform="translate(-95.129 -17.162)" fill="#ffe783" opacity="0.5"/>
        <g id="Group_53" transform="translate(2.633 20.923)">
            <path id="Path_246" class="path fill primary"
                  d="M215.2,237.613h-5.323a2.014,2.014,0,0,1-1.929-1.456l-1.425-5a22.835,22.835,0,0,1-5.433-2.251l-4.548,2.532a2.015,2.015,0,0,1-2.393-.334l-3.765-3.765a2.015,2.015,0,0,1-.335-2.392l2.533-4.549a22.828,22.828,0,0,1-2.251-5.433l-5-1.425a2.014,2.014,0,0,1-1.456-1.929v-5.324a2.014,2.014,0,0,1,1.456-1.929l5-1.425a22.836,22.836,0,0,1,2.251-5.433l-2.532-4.548a2.015,2.015,0,0,1,.334-2.393l3.765-3.765a2.015,2.015,0,0,1,2.392-.335l4.549,2.532a22.834,22.834,0,0,1,5.433-2.251l1.425-5a2.014,2.014,0,0,1,1.93-1.456H215.2a2.014,2.014,0,0,1,1.929,1.456l1.425,5a22.836,22.836,0,0,1,5.433,2.251l4.548-2.532a2.015,2.015,0,0,1,2.393.334l3.765,3.765a2.015,2.015,0,0,1,.335,2.392l-2.532,4.549a22.828,22.828,0,0,1,2.251,5.433l5,1.425h0a2.015,2.015,0,0,1,1.456,1.929V211.6a2.014,2.014,0,0,1-1.456,1.929l-5,1.425a22.843,22.843,0,0,1-2.251,5.433l2.532,4.548a2.015,2.015,0,0,1-.335,2.393l-3.765,3.765a2.015,2.015,0,0,1-2.392.335l-4.549-2.533a22.835,22.835,0,0,1-5.433,2.251l-1.425,5a2.015,2.015,0,0,1-1.929,1.456Zm-14.1-10.68a.912.912,0,0,1,.474.133,21.012,21.012,0,0,0,5.9,2.445.914.914,0,0,1,.661.637l1.569,5.508a.177.177,0,0,0,.171.129H215.2a.177.177,0,0,0,.172-.129l1.569-5.508a.914.914,0,0,1,.661-.637,21.011,21.011,0,0,0,5.9-2.445.914.914,0,0,1,.918-.017l5.006,2.787a.178.178,0,0,0,.212-.03l3.765-3.765a.179.179,0,0,0,.029-.213l-2.786-5.005a.914.914,0,0,1,.017-.918,21.014,21.014,0,0,0,2.445-5.9.914.914,0,0,1,.637-.661l5.509-1.569a.177.177,0,0,0,.129-.171v-5.324a.177.177,0,0,0-.129-.172l-5.508-1.569a.914.914,0,0,1-.637-.661,21.019,21.019,0,0,0-2.445-5.9.914.914,0,0,1-.017-.918l2.787-5.006a.178.178,0,0,0-.03-.212l-3.765-3.765a.179.179,0,0,0-.213-.029l-5.005,2.786a.913.913,0,0,1-.918-.017,21.023,21.023,0,0,0-5.9-2.445.914.914,0,0,1-.661-.637l-1.569-5.508a.177.177,0,0,0-.172-.129h-5.323a.176.176,0,0,0-.171.129l-1.569,5.508a.914.914,0,0,1-.661.637,21.013,21.013,0,0,0-5.9,2.445.913.913,0,0,1-.918.017l-5.006-2.787a.178.178,0,0,0-.212.03l-3.765,3.765a.179.179,0,0,0-.029.213l2.786,5a.914.914,0,0,1-.017.918,21.01,21.01,0,0,0-2.445,5.9.914.914,0,0,1-.637.661l-5.508,1.569a.177.177,0,0,0-.129.172V211.6a.176.176,0,0,0,.129.171l5.508,1.569a.914.914,0,0,1,.637.661,21.014,21.014,0,0,0,2.445,5.9.914.914,0,0,1,.017.918l-2.787,5.006a.178.178,0,0,0,.03.212l3.765,3.765a.178.178,0,0,0,.213.029l5.005-2.787a.912.912,0,0,1,.444-.115Zm11.435-3.413a14.575,14.575,0,0,1-12.152-22.625.914.914,0,1,1,1.523,1.011,12.767,12.767,0,1,0,3.267-3.367.914.914,0,1,1-1.057-1.491,14.576,14.576,0,1,1,8.419,26.473Z"
                  transform="translate(-152.895 -153.539)" fill="#ec5d2a"/>
            <path id="Path_247" class="path fill primary"
                  d="M31.744,226.525H28.869a1.51,1.51,0,0,1-1.446-1.092l-.705-2.476a12.76,12.76,0,0,1-2.595-1.075l-2.25,1.253a1.511,1.511,0,0,1-1.794-.251l-2.033-2.033a1.51,1.51,0,0,1-.251-1.793l1.253-2.251a12.747,12.747,0,0,1-1.075-2.595l-2.476-.705a1.51,1.51,0,0,1-1.092-1.446v-2.875a1.51,1.51,0,0,1,1.092-1.446l2.476-.705a12.749,12.749,0,0,1,1.075-2.595l-1.253-2.25a1.51,1.51,0,0,1,.251-1.794l2.033-2.033a1.511,1.511,0,0,1,1.793-.251l2.251,1.253a12.747,12.747,0,0,1,2.595-1.075l.705-2.476a1.51,1.51,0,0,1,1.446-1.092h2.875a1.51,1.51,0,0,1,1.446,1.092l.705,2.476a12.758,12.758,0,0,1,2.595,1.075l2.25-1.253a1.511,1.511,0,0,1,1.794.25l2.033,2.033a1.51,1.51,0,0,1,.251,1.793l-1.253,2.251a12.747,12.747,0,0,1,1.075,2.595l2.476.705a1.51,1.51,0,0,1,1.092,1.446v2.875a1.51,1.51,0,0,1-1.092,1.446l-2.476.705a12.761,12.761,0,0,1-1.075,2.595l1.253,2.25a1.51,1.51,0,0,1-.251,1.794l-2.033,2.033a1.51,1.51,0,0,1-1.793.251l-2.251-1.253a12.754,12.754,0,0,1-2.595,1.075l-.705,2.476a1.51,1.51,0,0,1-1.446,1.092Zm-2.63-1.828H31.5l.78-2.739a.914.914,0,0,1,.661-.637,10.932,10.932,0,0,0,3.067-1.271.914.914,0,0,1,.918-.017l2.489,1.386,1.687-1.687-1.386-2.489a.914.914,0,0,1,.017-.918A10.931,10.931,0,0,0,41,213.257a.914.914,0,0,1,.637-.661l2.739-.78V209.43l-2.739-.78a.914.914,0,0,1-.637-.661,10.928,10.928,0,0,0-1.271-3.067.914.914,0,0,1-.017-.918l1.386-2.489-1.687-1.687-2.489,1.386a.914.914,0,0,1-.918-.017,10.926,10.926,0,0,0-3.067-1.271.914.914,0,0,1-.661-.637l-.78-2.739H29.114l-.78,2.739a.914.914,0,0,1-.661.637,10.926,10.926,0,0,0-3.067,1.271.914.914,0,0,1-.918.017L21.2,199.828l-1.687,1.687L20.9,204a.914.914,0,0,1-.017.918,10.932,10.932,0,0,0-1.271,3.067.914.914,0,0,1-.637.661l-2.739.78v2.385l2.739.78a.914.914,0,0,1,.637.661,10.927,10.927,0,0,0,1.271,3.067.914.914,0,0,1,.017.918l-1.386,2.489,1.687,1.687,2.489-1.386a.914.914,0,0,1,.918.017,10.931,10.931,0,0,0,3.067,1.271.914.914,0,0,1,.661.637Zm15.5-15.2h0Zm0,0h0Z"
                  transform="translate(-14.405 -165.346)" fill="#ec5d2a"/>
            <path id="Path_248" class="path fill primary"
                  d="M76.244,262.19a5.628,5.628,0,1,1,5.628-5.628A5.634,5.634,0,0,1,76.244,262.19Zm0-9.428a3.8,3.8,0,1,0,3.8,3.8A3.8,3.8,0,0,0,76.244,252.762Z"
                  transform="translate(-60.342 -211.285)" fill="#ec5d2a"/>
            <path id="Path_249" class="path fill primary"
                  d="M130.006,68.108h-3.1a1.555,1.555,0,0,1-1.49-1.125l-.77-2.7A13.654,13.654,0,0,1,121.8,63.1l-2.457,1.368a1.556,1.556,0,0,1-1.848-.258L115.3,62.018a1.555,1.555,0,0,1-.259-1.847l1.369-2.458a13.654,13.654,0,0,1-1.182-2.851l-2.7-.77A1.555,1.555,0,0,1,111.4,52.6v-3.1a1.555,1.555,0,0,1,1.125-1.49l2.7-.77a13.655,13.655,0,0,1,1.182-2.851l-1.368-2.457a1.556,1.556,0,0,1,.258-1.848l2.189-2.189a1.556,1.556,0,0,1,1.847-.259L121.8,39.01a13.654,13.654,0,0,1,2.851-1.182l.77-2.7A1.555,1.555,0,0,1,126.91,34h3.1a1.555,1.555,0,0,1,1.49,1.125l.77,2.7a13.654,13.654,0,0,1,2.851,1.182l2.457-1.368a1.556,1.556,0,0,1,1.848.258l2.189,2.189a1.555,1.555,0,0,1,.259,1.847L140.5,44.4a13.653,13.653,0,0,1,1.182,2.851l2.7.77a1.555,1.555,0,0,1,1.125,1.49v3.1a1.555,1.555,0,0,1-1.125,1.49l-2.7.77a13.655,13.655,0,0,1-1.182,2.851l1.368,2.457a1.556,1.556,0,0,1-.258,1.848l-2.189,2.189a1.556,1.556,0,0,1-1.847.259L135.116,63.1a13.654,13.654,0,0,1-2.851,1.182l-.77,2.7a1.555,1.555,0,0,1-1.49,1.125Zm-2.885-1.828H129.8l.854-3a.914.914,0,0,1,.661-.637,11.842,11.842,0,0,0,3.323-1.377.913.913,0,0,1,.918-.017l2.727,1.518,1.891-1.891-1.518-2.727a.914.914,0,0,1,.017-.918,11.84,11.84,0,0,0,1.377-3.323.914.914,0,0,1,.637-.661l3-.854V49.717l-3-.854a.914.914,0,0,1-.637-.661,11.842,11.842,0,0,0-1.377-3.323.914.914,0,0,1-.017-.918l1.518-2.727-1.891-1.891-2.727,1.518a.914.914,0,0,1-.918-.017,11.84,11.84,0,0,0-3.323-1.377.914.914,0,0,1-.661-.637l-.854-3h-2.675l-.854,3a.914.914,0,0,1-.661.637,11.843,11.843,0,0,0-3.323,1.377.914.914,0,0,1-.918.017l-2.727-1.518-1.891,1.891,1.518,2.727a.914.914,0,0,1-.017.918A11.839,11.839,0,0,0,116.87,48.2a.914.914,0,0,1-.637.661l-3,.854v2.675l3,.854a.914.914,0,0,1,.637.661,11.842,11.842,0,0,0,1.377,3.323.914.914,0,0,1,.017.918l-1.518,2.727,1.891,1.891,2.727-1.518a.913.913,0,0,1,.918.017,11.84,11.84,0,0,0,3.323,1.377.914.914,0,0,1,.661.637Zm1.337-8.034a7.147,7.147,0,0,1-2.783-.559A.914.914,0,0,1,126.382,56a5.358,5.358,0,1,0-2.965-3.108.914.914,0,1,1-1.717.627,7.193,7.193,0,1,1,6.758,4.725Z"
                  transform="translate(-93.676 -34)" fill="#ec5d2a"/>
        </g>
        <path id="Path_253" class="path fill primary"
              d="M139.895,385.908a.911.911,0,0,1-.646-.268l-2.01-2.01a.914.914,0,0,1,0-1.292l2.01-2.01a.914.914,0,0,1,1.293,0l2.01,2.01a.914.914,0,0,1,0,1.293l-2.01,2.01A.912.912,0,0,1,139.895,385.908Zm-.718-2.924.718.718.718-.718-.718-.718Z"
              transform="translate(-111.936 -295.887)" fill="#ffa052" opacity="0.3"/>
        <path id="Path_254" class="path fill primary"
              d="M339.433,122.162a.914.914,0,0,1-.914-.914,1.1,1.1,0,0,0-1.1-1.1.914.914,0,1,1,0-1.828,1.1,1.1,0,0,0,1.1-1.1.914.914,0,1,1,1.828,0,1.1,1.1,0,0,0,1.1,1.1.914.914,0,0,1,0,1.828,1.1,1.1,0,0,0-1.1,1.1A.914.914,0,0,1,339.433,122.162Z"
              transform="translate(-275.005 -80.345)" fill="#ffe783" opacity="0.2"/>
        <path id="Path_255" class="path fill primary"
              d="M170.336,435.495a.914.914,0,0,1-.914-.914,1.1,1.1,0,0,0-1.1-1.1.914.914,0,1,1,0-1.828,1.1,1.1,0,0,0,1.1-1.1.914.914,0,1,1,1.828,0,1.1,1.1,0,0,0,1.1,1.1.914.914,0,1,1,0,1.828,1.1,1.1,0,0,0-1.1,1.1A.914.914,0,0,1,170.336,435.495Z"
              transform="translate(-136.814 -336.411)" fill="#ffa052" opacity="0.3"/>
        <path id="Path_256" class="path fill primary"
              d="M62.54,146.8a.914.914,0,0,1-.914-.914,1.1,1.1,0,0,0-1.1-1.1.914.914,0,0,1,0-1.828,1.1,1.1,0,0,0,1.1-1.1.914.914,0,1,1,1.828,0,1.1,1.1,0,0,0,1.1,1.1.914.914,0,1,1,0,1.828,1.1,1.1,0,0,0-1.1,1.1A.914.914,0,0,1,62.54,146.8Z"
              transform="translate(-48.72 -100.483)" fill="#ffa052" opacity="0.3"/>
    </g>
</svg>
