<?xml version="1.0" encoding="UTF-8" standalone="no"?>

<!--
 * Copyright (c) 2020, WSO2 Inc. (http://www.wso2.org) All Rights Reserved.
 *
 * WSO2 Inc. licenses this file to you under the Apache License,
 * Version 2.0 (the "License"); you may not use this file except
 * in compliance with the License.
 * You may obtain a copy of the License at
 *
 *     http://www.apache.org/licenses/LICENSE-2.0
 *
 * Unless required by applicable law or agreed to in writing,
 * software distributed under the License is distributed on an
 * "AS IS" BASIS, WITHOUT WARRANTIES OR CONDITIONS OF ANY
 * KIND, either express or implied. See the License for the
 * specific language governing permissions and limitations
 * under the License.
-->

<svg class="icon" style="fill-rule:evenodd;clip-rule:evenodd;stroke-linecap:round;stroke-linejoin:round;"
     xmlns:xlink="http://www.w3.org/1999/xlink" xmlns="http://www.w3.org/2000/svg" xml:space="preserve" version="1.1"
     viewBox="0 0 1000 1080">
    <defs/>
    <g>
        <g opacity="1">
            <path d="M809.848+457.572L91.4482+457.572C78.4482+457.572+67.8482+446.872+67.8482+433.672L47.7482+48.372C47.7482+32.672+60.2482+20.072+75.7482+20.072L826.748+20.072C842.248+20.072+854.748+32.772+854.748+48.372L834.648+432.472C834.648+446.272+823.548+457.572+809.848+457.572Z"
                  opacity="1" fill="#ffffff"/>
            <path d="M809.848+469.772L91.4482+469.772C78.4482+469.772+67.8482+459.072+67.8482+445.872L47.7482+60.572C47.7482+44.872+60.2482+32.272+75.7482+32.272L826.748+32.272C842.248+32.272+854.748+44.972+854.748+60.572L834.648+444.672C834.648+458.472+823.548+469.772+809.848+469.772Z"
                  opacity="1" fill="#e6e6e6"/>
            <path d="M799.848+459.572L101.448+459.572C88.3482+459.572+77.7482+448.872+77.7482+435.672L57.6482+67.772C57.6482+52.072+70.2482+39.472+85.7482+39.472L816.848+39.472C832.348+39.472+844.948+52.172+844.948+67.772L824.848+434.472C824.748+448.372+813.648+459.572+799.848+459.572Z"
                  opacity="1" fill="#4d4d4d"/>
            <path d="M760.448+402.372L142.048+402.372L122.448+104.972L780.048+104.972L760.448+402.372Z" opacity="1"
                  fill="#666666"/>
            <path d="M797.548+945.372L105.248+945.372C85.7482+945.372+70.0482+929.572+70.0482+910.172L70.0482+539.872C70.0482+520.372+85.8482+504.672+105.248+504.672L797.548+504.672C817.048+504.672+832.748+520.472+832.748+539.872L832.748+910.072C832.748+929.572+816.948+945.372+797.548+945.372Z"
                  opacity="0.1" fill="#000000"/>
            <path d="M797.548+927.172L105.248+927.172C85.7482+927.172+70.0482+911.372+70.0482+891.972L70.0482+521.672C70.0482+502.172+85.8482+486.472+105.248+486.472L797.548+486.472C817.048+486.472+832.748+502.272+832.748+521.672L832.748+891.872C832.748+911.372+816.948+927.172+797.548+927.172Z"
                  opacity="1" fill="#e6e6e6"/>
            <path d="M797.548+910.372L105.248+910.372C85.7482+910.372+70.0482+894.572+70.0482+875.172L70.0482+504.972C70.0482+485.472+85.8482+469.772+105.248+469.772L797.548+469.772C817.048+469.772+832.748+485.572+832.748+504.972L832.748+875.172C832.748+894.672+816.948+910.372+797.548+910.372Z"
                  opacity="1" fill="#f2f2f2"/>
            <path d="M229.848+459.572L672.948+459.572L672.948+459.572L672.948+486.172L672.948+486.172L229.848+486.172L229.848+486.172L229.848+459.572L229.848+459.572Z"
                  opacity="1" fill="#4d4d4d"/>
            <path d="M547.548+872.972L355.248+872.972C350.348+872.972+346.448+869.072+346.448+864.172L346.448+745.672C346.448+740.772+350.348+736.872+355.248+736.872L547.448+736.872C552.348+736.872+556.248+740.772+556.248+745.672L556.248+864.172C556.248+868.972+552.348+872.972+547.548+872.972Z"
                  opacity="1" fill="#e6e6e6"/>
            <path d="M351.448+869.072L351.448+750.572C351.448+745.672+355.548+742.372+360.348+742.372L552.548+742.372C553.648+742.372+554.648+742.572+555.548+742.872C554.248+739.672+551.048+737.372+547.448+737.372L355.248+737.372C350.348+737.372+346.448+740.772+346.448+745.672L346.448+864.172C346.448+867.972+348.748+871.172+352.148+872.372C351.748+871.372+351.448+870.272+351.448+869.072Z"
                  opacity="1" fill="#cccccc"/>
            <g opacity="1">
                <path d="M189.948+539.872L131.048+539.872C128.748+539.872+126.848+537.972+126.848+535.672L126.848+520.072C126.848+517.772+128.748+515.872+131.048+515.872L189.948+515.872C192.248+515.872+194.148+517.772+194.148+520.072L194.148+535.672C194.148+537.972+192.248+539.872+189.948+539.872Z"
                      opacity="1" fill="#4d4d4d"/>
                <path d="M273.648+539.872L214.748+539.872C212.448+539.872+210.548+537.972+210.548+535.672L210.548+520.072C210.548+517.772+212.448+515.872+214.748+515.872L273.648+515.872C275.948+515.872+277.848+517.772+277.848+520.072L277.848+535.672C277.848+537.972+275.948+539.872+273.648+539.872Z"
                      opacity="1" fill="#4d4d4d"/>
                <path d="M357.348+539.872L298.448+539.872C296.148+539.872+294.248+537.972+294.248+535.672L294.248+520.072C294.248+517.772+296.148+515.872+298.448+515.872L357.348+515.872C359.648+515.872+361.548+517.772+361.548+520.072L361.548+535.672C361.548+537.972+359.648+539.872+357.348+539.872Z"
                      opacity="1" fill="#4d4d4d"/>
                <path d="M441.048+539.872L382.148+539.872C379.848+539.872+377.948+537.972+377.948+535.672L377.948+520.072C377.948+517.772+379.848+515.872+382.148+515.872L441.048+515.872C443.348+515.872+445.248+517.772+445.248+520.072L445.248+535.672C445.248+537.972+443.348+539.872+441.048+539.872Z"
                      opacity="1" fill="#4d4d4d"/>
                <path d="M524.748+539.872L465.848+539.872C463.548+539.872+461.648+537.972+461.648+535.672L461.648+520.072C461.648+517.772+463.548+515.872+465.848+515.872L524.748+515.872C527.048+515.872+528.948+517.772+528.948+520.072L528.948+535.672C528.948+537.972+527.048+539.872+524.748+539.872Z"
                      opacity="1" fill="#4d4d4d"/>
                <path d="M608.448+539.872L549.548+539.872C547.248+539.872+545.348+537.972+545.348+535.672L545.348+520.072C545.348+517.772+547.248+515.872+549.548+515.872L608.448+515.872C610.748+515.872+612.648+517.772+612.648+520.072L612.648+535.672C612.648+537.972+610.748+539.872+608.448+539.872Z"
                      opacity="1" fill="#4d4d4d"/>
                <path d="M692.148+539.872L633.248+539.872C630.948+539.872+629.048+537.972+629.048+535.672L629.048+520.072C629.048+517.772+630.948+515.872+633.248+515.872L692.148+515.872C694.448+515.872+696.348+517.772+696.348+520.072L696.348+535.672C696.348+537.972+694.448+539.872+692.148+539.872Z"
                      opacity="1" fill="#4d4d4d"/>
                <path d="M775.848+539.872L716.948+539.872C714.648+539.872+712.748+537.972+712.748+535.672L712.748+520.072C712.748+517.772+714.648+515.872+716.948+515.872L775.848+515.872C778.148+515.872+780.048+517.772+780.048+520.072L780.048+535.672C780.048+537.972+778.148+539.872+775.848+539.872Z"
                      opacity="1" fill="#4d4d4d"/>
                <path d="M217.748+596.672L132.948+596.672C129.548+596.672+126.848+593.972+126.848+590.572L126.848+561.472C126.848+558.072+129.548+555.372+132.948+555.372L217.748+555.372C221.148+555.372+223.848+558.072+223.848+561.472L223.848+590.572C223.948+593.872+221.148+596.672+217.748+596.672Z"
                      opacity="1" fill="#4d4d4d"/>
                <path d="M289.848+596.672L249.948+596.672C247.548+596.672+245.648+594.772+245.648+592.372L245.648+559.672C245.648+557.272+247.548+555.372+249.948+555.372L289.848+555.372C292.248+555.372+294.148+557.272+294.148+559.672L294.148+592.372C294.248+594.672+292.248+596.672+289.848+596.672Z"
                      opacity="1" fill="#4d4d4d"/>
                <path d="M353.348+596.672L313.448+596.672C311.048+596.672+309.148+594.772+309.148+592.372L309.148+559.672C309.148+557.272+311.048+555.372+313.448+555.372L353.348+555.372C355.748+555.372+357.648+557.272+357.648+559.672L357.648+592.372C357.648+594.672+355.748+596.672+353.348+596.672Z"
                      opacity="1" fill="#4d4d4d"/>
                <path d="M416.748+596.672L376.848+596.672C374.448+596.672+372.548+594.772+372.548+592.372L372.548+559.672C372.548+557.272+374.448+555.372+376.848+555.372L416.748+555.372C419.148+555.372+421.048+557.272+421.048+559.672L421.048+592.372C421.048+594.672+419.148+596.672+416.748+596.672Z"
                      opacity="1" fill="#4d4d4d"/>
                <path d="M480.148+596.672L440.248+596.672C437.848+596.672+435.948+594.772+435.948+592.372L435.948+559.672C435.948+557.272+437.848+555.372+440.248+555.372L480.148+555.372C482.548+555.372+484.448+557.272+484.448+559.672L484.448+592.372C484.548+594.672+482.548+596.672+480.148+596.672Z"
                      opacity="1" fill="#4d4d4d"/>
                <path d="M543.648+596.672L503.748+596.672C501.348+596.672+499.448+594.772+499.448+592.372L499.448+559.672C499.448+557.272+501.348+555.372+503.748+555.372L543.648+555.372C546.048+555.372+547.948+557.272+547.948+559.672L547.948+592.372C547.948+594.672+546.048+596.672+543.648+596.672Z"
                      opacity="1" fill="#4d4d4d"/>
                <path d="M607.048+596.672L567.148+596.672C564.748+596.672+562.848+594.772+562.848+592.372L562.848+559.672C562.848+557.272+564.748+555.372+567.148+555.372L607.048+555.372C609.448+555.372+611.348+557.272+611.348+559.672L611.348+592.372C611.448+594.672+609.448+596.672+607.048+596.672Z"
                      opacity="1" fill="#4d4d4d"/>
                <path d="M670.548+596.672L630.648+596.672C628.248+596.672+626.348+594.772+626.348+592.372L626.348+559.672C626.348+557.272+628.248+555.372+630.648+555.372L670.548+555.372C672.948+555.372+674.848+557.272+674.848+559.672L674.848+592.372C674.848+594.672+672.948+596.672+670.548+596.672Z"
                      opacity="1" fill="#4d4d4d"/>
                <path d="M774.148+596.672L695.648+596.672C692.348+596.672+689.748+593.972+689.748+590.772L689.748+561.272C689.748+557.972+692.448+555.372+695.648+555.372L774.148+555.372C777.448+555.372+780.048+558.072+780.048+561.272L780.048+590.772C780.048+593.972+777.348+596.672+774.148+596.672Z"
                      opacity="1" fill="#4d4d4d"/>
                <path d="M237.948+653.072L133.548+653.072C129.848+653.072+126.748+650.072+126.748+646.272L126.748+618.472C126.748+614.772+129.748+611.672+133.548+611.672L237.948+611.672C241.648+611.672+244.748+614.672+244.748+618.472L244.748+646.272C244.748+650.072+241.648+653.072+237.948+653.072Z"
                      opacity="1" fill="#4d4d4d"/>
                <path d="M311.148+653.072L271.248+653.072C268.848+653.072+266.948+651.172+266.948+648.772L266.948+616.072C266.948+613.672+268.848+611.772+271.248+611.772L311.148+611.772C313.548+611.772+315.448+613.672+315.448+616.072L315.448+648.772C315.448+651.072+313.548+653.072+311.148+653.072Z"
                      opacity="1" fill="#4d4d4d"/>
                <path d="M171.048+710.672L131.148+710.672C128.748+710.672+126.848+708.772+126.848+706.372L126.848+673.672C126.848+671.272+128.748+669.372+131.148+669.372L171.048+669.372C173.448+669.372+175.348+671.272+175.348+673.672L175.348+706.372C175.348+708.672+173.448+710.672+171.048+710.672Z"
                      opacity="1" fill="#4d4d4d"/>
                <path d="M238.348+710.672L198.448+710.672C196.048+710.672+194.148+708.772+194.148+706.372L194.148+673.672C194.148+671.272+196.048+669.372+198.448+669.372L238.348+669.372C240.748+669.372+242.648+671.272+242.648+673.672L242.648+706.372C242.648+708.672+240.748+710.672+238.348+710.672Z"
                      opacity="1" fill="#4d4d4d"/>
                <path d="M301.848+710.672L261.948+710.672C259.548+710.672+257.648+708.772+257.648+706.372L257.648+673.672C257.648+671.272+259.548+669.372+261.948+669.372L301.848+669.372C304.248+669.372+306.148+671.272+306.148+673.672L306.148+706.372C306.148+708.672+304.248+710.672+301.848+710.672Z"
                      opacity="1" fill="#4d4d4d"/>
                <path d="M598.948+710.672L559.048+710.672C556.648+710.672+554.748+708.772+554.748+706.372L554.748+673.672C554.748+671.272+556.648+669.372+559.048+669.372L598.948+669.372C601.348+669.372+603.248+671.272+603.248+673.672L603.248+706.372C603.248+708.672+601.348+710.672+598.948+710.672Z"
                      opacity="1" fill="#4d4d4d"/>
                <path d="M664.848+710.672L624.948+710.672C622.548+710.672+620.648+708.772+620.648+706.372L620.648+673.672C620.648+671.272+622.548+669.372+624.948+669.372L664.848+669.372C667.248+669.372+669.148+671.272+669.148+673.672L669.148+706.372C669.248+708.672+667.248+710.672+664.848+710.672Z"
                      opacity="1" fill="#4d4d4d"/>
                <path d="M774.048+710.672L692.648+710.672C689.348+710.672+686.648+707.972+686.648+704.672L686.648+675.372C686.648+672.072+689.348+669.372+692.648+669.372L774.048+669.372C777.348+669.372+780.048+672.072+780.048+675.372L780.048+704.672C780.048+707.972+777.348+710.672+774.048+710.672Z"
                      opacity="1" fill="#4d4d4d"/>
                <path d="M526.848+710.672L330.248+710.672C325.248+710.672+321.148+706.572+321.148+701.572L321.148+678.472C321.148+673.472+325.248+669.372+330.248+669.372L526.848+669.372C531.848+669.372+535.948+673.472+535.948+678.472L535.948+701.572C536.048+706.572+531.948+710.672+526.848+710.672Z"
                      opacity="1" fill="#4d4d4d"/>
                <path d="M373.548+653.072L333.648+653.072C331.248+653.072+329.348+651.172+329.348+648.772L329.348+616.072C329.348+613.672+331.248+611.772+333.648+611.772L373.548+611.772C375.948+611.772+377.848+613.672+377.848+616.072L377.848+648.772C377.948+651.072+375.948+653.072+373.548+653.072Z"
                      opacity="1" fill="#4d4d4d"/>
                <path d="M435.948+653.072L396.048+653.072C393.648+653.072+391.748+651.172+391.748+648.772L391.748+616.072C391.748+613.672+393.648+611.772+396.048+611.772L435.948+611.772C438.348+611.772+440.248+613.672+440.248+616.072L440.248+648.772C440.348+651.072+438.348+653.072+435.948+653.072Z"
                      opacity="1" fill="#4d4d4d"/>
                <path d="M498.348+653.072L458.448+653.072C456.048+653.072+454.148+651.172+454.148+648.772L454.148+616.072C454.148+613.672+456.048+611.772+458.448+611.772L498.348+611.772C500.748+611.772+502.648+613.672+502.648+616.072L502.648+648.772C502.748+651.072+500.748+653.072+498.348+653.072Z"
                      opacity="1" fill="#4d4d4d"/>
                <path d="M560.748+653.072L520.848+653.072C518.448+653.072+516.548+651.172+516.548+648.772L516.548+616.072C516.548+613.672+518.448+611.772+520.848+611.772L560.748+611.772C563.148+611.772+565.048+613.672+565.048+616.072L565.048+648.772C565.148+651.072+563.148+653.072+560.748+653.072Z"
                      opacity="1" fill="#4d4d4d"/>
                <path d="M623.148+653.072L583.248+653.072C580.848+653.072+578.948+651.172+578.948+648.772L578.948+616.072C578.948+613.672+580.848+611.772+583.248+611.772L623.148+611.772C625.548+611.772+627.448+613.672+627.448+616.072L627.448+648.772C627.548+651.072+625.548+653.072+623.148+653.072Z"
                      opacity="1" fill="#4d4d4d"/>
                <path d="M685.648+653.072L645.748+653.072C643.348+653.072+641.448+651.172+641.448+648.772L641.448+616.072C641.448+613.672+643.348+611.772+645.748+611.772L685.648+611.772C688.048+611.772+689.948+613.672+689.948+616.072L689.948+648.772C689.948+651.072+688.048+653.072+685.648+653.072Z"
                      opacity="1" fill="#4d4d4d"/>
                <path d="M774.648+653.072L709.248+653.072C706.248+653.072+703.848+650.672+703.848+647.672L703.848+617.172C703.848+614.172+706.248+611.772+709.248+611.772L774.648+611.772C777.648+611.772+780.048+614.172+780.048+617.172L780.048+647.672C780.048+650.672+777.648+653.072+774.648+653.072Z"
                      opacity="1" fill="#4d4d4d"/>
            </g>
            <path d="M515.748+910.372L388.848+910.372L388.848+910.372C388.848+904.972+393.248+900.572+398.648+900.572L505.848+900.572C511.348+900.572+515.748+904.972+515.748+910.372L515.748+910.372Z"
                  opacity="1" fill="#cccccc"/>
            <path d="M435.948+73.472C435.948+68.3357+440.112+64.172+445.248+64.172C450.384+64.172+454.548+68.3357+454.548+73.472C454.548+78.6082+450.384+82.772+445.248+82.772C440.112+82.772+435.948+78.6082+435.948+73.472Z"
                  opacity="1" fill="#666666"/>
        </g>
        <g opacity="1">
            <path d="M850.648+1273.87L870.448+1268.57L774.848+913.972L778.348+912.972C781.448+912.172+783.248+908.972+782.348+905.972L767.148+849.472C766.348+846.372+763.148+844.572+760.148+845.472L736.848+851.772L726.148+812.072L725.948+812.172L719.048+782.172C719.048+782.172+744.448+758.772+739.548+716.172C734.748+673.972+734.348+668.472+734.348+668.372L731.648+623.172L717.948+573.072C716.448+563.172+708.748+556.072+700.648+557.272L700.648+557.272C692.548+558.472+687.248+567.472+688.748+577.372L702.248+625.572L704.148+655.572C702.948+655.172+701.748+654.772+700.548+654.372L690.348+601.972L667.848+554.972C664.848+545.372+654.748+539.972+645.148+542.972L645.148+542.972C635.548+545.972+630.148+556.072+633.148+565.672L655.048+610.872L662.148+647.172C659.948+647.072+657.648+647.072+655.448+647.172L645.248+603.472L624.948+554.072C621.948+544.472+611.848+539.072+602.248+542.072L602.248+542.072C592.648+545.072+587.248+555.172+590.248+564.772L610.948+615.672L619.448+652.372C617.348+652.872+615.248+653.372+613.348+653.872L577.448+537.272C574.448+527.672+564.348+522.272+554.748+525.272C545.148+528.272+539.748+538.372+542.748+547.972L578.748+664.672L603.648+743.572L585.448+728.872L554.748+691.172C546.748+683.672+534.148+683.972+526.648+691.972L526.648+691.972C519.148+699.972+519.448+712.572+527.448+720.072L558.848+757.972L624.948+811.972L625.048+811.872L633.148+837.372L633.348+837.272L643.948+876.672L620.148+883.072C617.048+883.872+615.248+887.072+616.148+890.072L631.348+946.572C632.148+949.672+635.348+951.472+638.348+950.572L642.748+949.372L738.348+1303.97L757.748+1298.77L757.748+1298.77L811.948+1284.17L811.948+1284.17L813.148+1283.87L832.548+1278.67L832.548+1278.67L837.648+1277.27L837.648+1277.27L850.648+1273.87L850.648+1273.87Z"
                  opacity="0.1" fill="#000000"/>
            <path d="M674.348+782.972L647.048+811.872L580.948+757.872L549.548+719.972C541.548+712.472+541.148+699.872+548.748+691.872L548.748+691.872C556.248+683.872+568.848+683.472+576.848+691.072L607.548+728.772L674.348+782.972Z"
                  opacity="1" fill="#ffd6b8"/>
            <path d="M635.448+653.972L600.748+664.672L564.748+547.972C561.748+538.372+567.148+528.172+576.748+525.272L576.748+525.272C586.348+522.272+596.548+527.672+599.448+537.272L635.448+653.972Z"
                  opacity="1" fill="#ffd6b8"/>
            <path d="M682.948+670.672L648.248+681.372L633.048+615.472L612.348+564.572C609.348+554.972+614.748+544.772+624.348+541.872L624.348+541.872C633.948+538.872+644.148+544.272+647.048+553.872L667.348+603.272L682.948+670.672Z"
                  opacity="1" fill="#ffd6b8"/>
            <path d="M725.848+671.472L691.148+682.172L677.048+610.672L655.148+565.472C652.148+555.872+657.548+545.672+667.148+542.772L667.148+542.772C676.748+539.772+686.948+545.172+689.848+554.772L712.348+601.772L725.848+671.472Z"
                  opacity="1" fill="#ffd6b8"/>
            <path d="M758.048+693.672L728.848+698.072L724.248+625.472L710.748+577.272C709.248+567.372+714.648+558.372+722.648+557.172L722.648+557.172C730.748+555.972+738.448+563.072+739.948+572.972L753.648+623.072L758.048+693.672Z"
                  opacity="1" fill="#ffd6b8"/>
            <path d="M600.748+664.672L655.248+837.372L748.148+812.672L741.148+781.972C741.148+781.972+766.548+758.572+761.648+715.972C756.748+673.372+756.448+668.172+756.448+668.172C756.448+668.172+713.048+644.972+675.748+647.272C638.448+649.572+600.748+664.672+600.748+664.672Z"
                  opacity="1" fill="#ffd6b8"/>
            <g opacity="1">
                <path d="M872.631+1273.89L779.837+1298.9L779.837+1298.9L655.357+836.953L655.357+836.953L748.152+811.948L748.152+811.948L872.631+1273.89L872.631+1273.89Z"
                      opacity="1" fill="#ffd6b8"/>
                <path d="M892.317+1268.51L760.32+1304.08L760.32+1304.08L664.748+949.411L664.748+949.411L796.746+913.842L796.746+913.842L892.317+1268.51L892.317+1268.51Z"
                      opacity="1" fill="#3e639e"/>
                <path d="M660.448+950.672L800.348+912.972C803.448+912.172+805.248+908.972+804.348+905.972L789.148+849.472C788.348+846.372+785.148+844.572+782.148+845.472L642.248+883.172C639.148+883.972+637.348+887.172+638.248+890.172L653.448+946.672C654.248+949.672+657.448+951.472+660.448+950.672Z"
                      opacity="1" fill="#3e639e"/>
                <path d="M664.098+913.411C662.474+907.385+666.043+901.184+672.069+899.56C678.095+897.936+684.297+901.505+685.92+907.531C687.544+913.557+683.976+919.758+677.949+921.382C671.923+923.006+665.722+919.437+664.098+913.411Z"
                      opacity="1" fill="#25497c"/>
                <path d="M801.195+930.177L669.198+965.746L669.198+965.746L664.8+949.427L664.8+949.427L796.798+913.858L796.798+913.858L801.195+930.177L801.195+930.177Z"
                      opacity="1" fill="#335587"/>
                <path d="M880.349+1271.8L875.328+1273.15L875.328+1273.15L779.861+918.875L779.861+918.875L784.882+917.522L784.882+917.522L880.349+1271.8L880.349+1271.8Z"
                      opacity="1" fill="#25497c"/>
                <path d="M859.729+1277.32L854.708+1278.67L854.708+1278.67L759.241+924.395L759.241+924.395L764.262+923.042L764.262+923.042L859.729+1277.32L859.729+1277.32Z"
                      opacity="1" fill="#25497c"/>
                <path d="M839.013+1282.87L833.992+1284.22L833.992+1284.22L738.525+929.94L738.525+929.94L743.546+928.587L743.546+928.587L839.013+1282.87L839.013+1282.87Z"
                      opacity="1" fill="#25497c"/>
                <path d="M818.42+1288.48L813.399+1289.84L813.399+1289.84L717.931+935.556L717.931+935.556L722.952+934.203L722.952+934.203L818.42+1288.48L818.42+1288.48Z"
                      opacity="1" fill="#25497c"/>
                <path d="M797.704+1294.03L792.683+1295.38L792.683+1295.38L697.215+941.102L697.215+941.102L702.236+939.749L702.236+939.749L797.704+1294.03L797.704+1294.03Z"
                      opacity="1" fill="#25497c"/>
                <path d="M777.084+1299.55L772.063+1300.9L772.063+1300.9L676.596+946.621L676.596+946.621L681.617+945.268L681.617+945.268L777.084+1299.55L777.084+1299.55Z"
                      opacity="1" fill="#25497c"/>
            </g>
        </g>
        <g opacity="1">
            <path d="M428.848+727.472L428.848+727.472C421.348+719.472+408.748+719.072+400.748+726.672L370.048+764.372L351.848+779.072L376.748+700.172L412.748+583.472C415.748+573.872+410.348+563.672+400.748+560.772L400.748+560.772C391.148+557.772+380.948+563.172+378.048+572.772L342.148+689.372C340.148+688.872+338.048+688.372+336.048+687.872L344.548+651.172L365.248+600.272C368.248+590.672+362.848+580.472+353.248+577.572C343.648+574.672+333.448+579.972+330.548+589.572L310.248+638.972L300.048+682.672C297.848+682.572+295.548+682.572+293.348+682.672L300.448+646.372L322.348+601.172C325.348+591.572+319.948+581.372+310.348+578.472C300.748+575.572+290.548+580.872+287.648+590.472L265.148+637.472L254.948+689.872C253.748+690.272+252.548+690.672+251.348+691.072L253.248+661.072L266.748+612.872C268.248+602.972+262.848+593.972+254.848+592.772C246.748+591.572+239.048+598.672+237.548+608.572L223.848+658.672L221.148+703.872L221.148+703.872C221.148+703.872+220.848+709.072+215.948+751.672C211.048+794.272+236.448+817.672+236.448+817.672L229.448+848.372L229.448+848.372L218.848+887.872L195.548+881.572C192.448+880.772+189.348+882.572+188.548+885.572L173.348+942.072C172.548+945.172+174.348+948.272+177.348+949.072L180.848+950.072L176.448+966.372L176.448+966.372L85.2482+1304.67L97.2482+1307.87L97.2482+1307.87L102.348+1309.27L102.348+1309.27L105.048+1309.97L105.048+1309.97L117.948+1313.47L117.948+1313.47L123.048+1314.87L123.048+1314.87L138.648+1319.07L138.648+1319.07L143.748+1320.47L143.748+1320.47L158.548+1324.47L159.348+1324.67L159.348+1324.67L164.448+1326.07L164.448+1326.07L217.448+1340.37L313.048+985.772L317.448+986.972C320.548+987.772+323.648+985.972+324.448+982.972L339.648+926.472C340.448+923.372+338.648+920.272+335.648+919.472L311.848+913.072L322.548+873.372L284.648+863.172L322.548+873.272L330.648+847.772L330.748+847.872L396.848+793.872L428.248+755.972C436.048+748.072+436.348+735.472+428.848+727.472Z"
                  opacity="0.1" fill="#000000"/>
            <path d="M281.148+818.572L308.448+847.472L374.548+793.472L405.948+755.572C413.948+748.072+414.348+735.472+406.748+727.472L406.748+727.472C399.248+719.472+386.648+719.072+378.648+726.672L348.048+764.372L281.148+818.572Z"
                  opacity="1" fill="#ffd6b8"/>
            <path d="M320.048+689.572L354.748+700.272L390.748+583.572C393.748+573.972+388.348+563.772+378.748+560.872L378.748+560.872C369.148+557.872+358.948+563.272+356.048+572.872L320.048+689.572Z"
                  opacity="1" fill="#ffd6b8"/>
            <path d="M272.548+706.272L307.248+716.972L322.448+651.072L343.148+600.172C346.148+590.572+340.748+580.372+331.148+577.472L331.148+577.472C321.548+574.472+311.348+579.872+308.448+589.472L288.148+638.872L272.548+706.272Z"
                  opacity="1" fill="#ffd6b8"/>
            <path d="M229.648+707.072L264.348+717.772L278.448+646.372L300.348+601.172C303.348+591.572+297.948+581.372+288.348+578.472L288.348+578.472C278.748+575.472+268.548+580.872+265.648+590.472L243.148+637.472L229.648+707.072Z"
                  opacity="1" fill="#ffd6b8"/>
            <path d="M197.448+729.272L226.648+733.672L231.248+661.072L244.748+612.872C246.248+602.972+240.848+593.972+232.848+592.772L232.848+592.772C224.748+591.572+217.048+598.672+215.548+608.572L201.848+658.672L197.448+729.272Z"
                  opacity="1" fill="#ffd6b8"/>
            <path d="M354.748+700.272L300.248+872.972L207.348+848.272L214.348+817.572C214.348+817.572+188.948+794.172+193.848+751.572C198.748+708.972+199.048+703.772+199.048+703.772C199.048+703.772+242.448+680.572+279.748+682.872C317.048+685.072+354.748+700.272+354.748+700.272Z"
                  opacity="1" fill="#ffd6b8"/>
            <g opacity="1">
                <path d="M207.426+848.157L300.22+873.162L300.22+873.162L175.74+1335.11L175.74+1335.11L82.9462+1310.1L82.9462+1310.1L207.426+848.157L207.426+848.157Z"
                      opacity="1" fill="#ffd6b8"/>
                <path d="M158.776+950.074L290.773+985.643L290.773+985.643L195.202+1340.31L195.202+1340.31L63.2044+1304.74L63.2044+1304.74L158.776+950.074L158.776+950.074Z"
                      opacity="1" fill="#3e639e"/>
                <path d="M295.148+986.772L155.248+949.072C152.148+948.272+150.348+945.072+151.248+942.072L166.448+885.572C167.248+882.472+170.448+880.672+173.448+881.572L313.348+919.272C316.448+920.072+318.248+923.272+317.348+926.272L302.148+982.772C301.348+985.772+298.248+987.572+295.148+986.772Z"
                      opacity="1" fill="#3e639e"/>
                <path d="M277.862+957.533C271.836+955.909+268.267+949.708+269.891+943.682C271.515+937.656+277.717+934.087+283.743+935.711C289.769+937.335+293.338+943.536+291.714+949.562C290.09+955.588+283.888+959.157+277.862+957.533Z"
                      opacity="1" fill="#25497c"/>
                <path d="M158.8+950.05L290.798+985.619L290.798+985.619L286.401+1001.94L286.401+1001.94L154.403+966.368L154.403+966.368L158.8+950.05L158.8+950.05Z"
                      opacity="1" fill="#335587"/>
                <path d="M170.648+953.76L175.669+955.113L175.669+955.113L80.2019+1309.39L80.2019+1309.39L75.1807+1308.04L75.1807+1308.04L170.648+953.76L170.648+953.76Z"
                      opacity="1" fill="#25497c"/>
                <path d="M191.364+959.275L196.385+960.628L196.385+960.628L100.918+1314.91L100.918+1314.91L95.8967+1313.55L95.8967+1313.55L191.364+959.275L191.364+959.275Z"
                      opacity="1" fill="#25497c"/>
                <path d="M211.958+964.86L216.979+966.213L216.979+966.213L121.511+1320.49L121.511+1320.49L116.49+1319.14L116.49+1319.14L211.958+964.86L211.958+964.86Z"
                      opacity="1" fill="#25497c"/>
                <path d="M232.648+970.472L237.669+971.825L237.669+971.825L142.202+1326.1L142.202+1326.1L137.18+1324.75L137.18+1324.75L232.648+970.472L232.648+970.472Z"
                      opacity="1" fill="#25497c"/>
                <path d="M253.267+975.96L258.288+977.313L258.288+977.313L162.821+1331.59L162.821+1331.59L157.8+1330.24L157.8+1330.24L253.267+975.96L253.267+975.96Z"
                      opacity="1" fill="#25497c"/>
                <path d="M273.957+981.572L278.978+982.925L278.978+982.925L183.511+1337.2L183.511+1337.2L178.49+1335.85L178.49+1335.85L273.957+981.572L273.957+981.572Z"
                      opacity="1" fill="#25497c"/>
            </g>
        </g>
    </g>
</svg>
