<!--
 * Copyright (c) 2021-2024, WSO2 LLC. (https://www.wso2.com).
 *
 * WSO2 LLC. licenses this file to you under the Apache License,
 * Version 2.0 (the "License"); you may not use this file except
 * in compliance with the License.
 * You may obtain a copy of the License at
 *
 *     http://www.apache.org/licenses/LICENSE-2.0
 *
 * Unless required by applicable law or agreed to in writing,
 * software distributed under the License is distributed on an
 * "AS IS" BASIS, WITHOUT WARRANTIES OR CONDITIONS OF ANY
 * KIND, either express or implied. See the License for the
 * specific language governing permissions and limitations
 * under the License.
-->

<svg id="onboard-users-illustration" class="icon" width="209" height="186" viewBox="0 0 209 186"
    fill="none" xmlns="http://www.w3.org/2000/svg">
    <path
        d="M83.5877 167.667C127.752 167.667 163.553 131.849 163.553 87.665C163.553 43.481 127.752 7.66271 83.5877 7.66271C39.4239 7.66271 3.62198 43.481 3.62198 87.665C3.62198 131.849 39.4239 167.667 83.5877 167.667Z"
        fill="#F5F5F5" />
    <path
        d="M23.0429 112.814H30.8773C34.5199 112.816 38.0128 114.264 40.5881 116.842C43.1633 119.419 44.61 122.914 44.61 126.558V136.09"
        stroke="#D8BAA3" stroke-miterlimit="10" stroke-linecap="round" />
    <path
        d="M25.3251 69.4589C25.3251 69.4589 33.1476 68.293 37.8449 78.5746C41.9619 87.5785 45.03 95.9732 45.03 95.9732C50.5066 98.8501 56.1938 101.306 62.0425 103.321V108.415C62.0425 108.415 45.7696 109.367 40.3398 108.415C36.3465 107.721 25.3299 92.937 24.5664 82.9076C23.803 72.8782 25.3251 69.4589 25.3251 69.4589Z"
        fill="url(#paint0_linear_927_10348)" />
    <path
        d="M59.9044 108.368C59.3027 108.247 59.7403 106.372 60.0947 105.218C60.1997 104.927 60.3704 104.664 60.5936 104.45C60.8168 104.236 61.0864 104.076 61.3814 103.983C62.8358 103.387 64.4199 103.179 65.9788 103.379C67.5704 103.699 68.9961 104.575 70.0006 105.851C70.3193 106.22 71.8796 107.992 71.8796 108.468L59.9044 108.368Z"
        fill="#FAB6AD" />
    <path
        d="M17.8393 65.3235C11.0966 66.0183 -1.92263 74.2108 0.239309 104.29C1.61639 123.523 14.2384 133.162 15.763 132.508C17.2875 131.853 43.1737 119.09 37.2444 112.223C31.572 105.655 33.4177 100.632 34.3095 91.7379C35.2014 82.8435 36.5428 73.1781 29.334 69.8183C17.6538 64.3955 19.6421 65.1379 17.8393 65.3235Z"
        fill="url(#paint1_linear_927_10348)" />
    <path
        d="M71.8796 185.465H53.4401C53.4211 185.17 53.4163 184.892 53.4211 184.618H71.9034C71.9233 184.9 71.9153 185.184 71.8796 185.465V185.465Z"
        fill="#383C4D" />
    <path
        d="M55.319 176.857C55.3856 178.955 53.4401 180.285 53.4401 184.623H71.8796C71.9419 183.59 71.6306 182.57 71.0027 181.747C70.3747 180.925 69.4721 180.356 68.4595 180.145C64.7731 179.305 61.4195 178.187 61.0865 176.861L55.319 176.857Z"
        fill="#FF7300" />
    <path
        d="M35.4889 110.951C35.4889 110.951 63.6323 109.114 70.4725 117.508C77.3127 125.903 64.0365 158.933 62.6951 177.121C59.5497 177.488 56.3723 177.488 53.2268 177.121C50.4917 176.422 48.1133 141.177 55.0011 132.642C55.0011 132.642 29.8664 138.928 19.6561 131C9.44571 123.072 31.2388 111.098 35.4889 110.951Z"
        fill="#383C4D" />
    <path
        d="M113.548 156.331L98.9208 168.045C98.7091 167.781 98.5259 167.524 98.3594 167.271L112.929 155.612C113.162 155.828 113.369 156.069 113.548 156.331V156.331Z"
        fill="#41465A" />
    <path
        d="M95.275 159.95C96.5522 161.573 95.7864 163.862 98.3146 167.303L112.942 155.591C112.391 154.731 111.537 154.112 110.549 153.856C109.562 153.601 108.514 153.728 107.616 154.213C104.196 155.893 100.888 157.133 99.8462 156.29L95.275 159.95Z"
        fill="#FF7300" />
    <path
        d="M14.9715 131.84C15.3949 134.22 38.2796 141.011 63.7663 124.226C63.7663 124.226 67.7191 146.371 93.4674 161.062C93.4674 161.062 99.1375 158.543 100.679 155.147C100.679 155.147 82.515 131.921 76.0482 113.099C73.3321 105.204 39.1644 109.335 34.1698 110.958C29.1752 112.581 13.0974 121.282 14.9715 131.84Z"
        fill="#41465A" />
    <path
        d="M15.874 73.0204C21.7699 74.9787 30.0681 92.4344 30.0681 92.4344C38.121 93.6192 45.9742 95.9001 53.4095 99.2135C53.544 101.189 53.0057 103.151 51.8826 104.781C44.0973 105.832 36.238 106.23 28.3866 105.971C25.6681 105.69 15.365 97.9809 9.70206 87.3114C4.63612 77.7579 8.67223 70.6267 15.874 73.0204Z"
        fill="url(#paint2_linear_927_10348)" />
    <path
        d="M53.3017 99.307C55.0603 98.3053 57.0312 97.7345 59.0527 97.6413C60.6813 98.0835 62.1603 98.9575 63.3337 100.171C64.0418 101.187 64.6571 102.264 65.1723 103.39C65.1723 103.895 59.973 103.707 59.2429 103.707C58.5127 103.707 53.7037 103.785 52.7737 103.592C51.8438 103.4 53.3017 99.307 53.3017 99.307Z"
        fill="#FFCFC9" />
    <path
        d="M59.2381 103.724C59.9706 103.724 65.1673 103.908 65.1673 103.405C64.6503 102.28 64.0351 101.203 63.3288 100.186C62.1584 98.9688 60.6783 98.0943 59.0478 97.6566C59.6736 98.5375 60.0248 99.584 60.057 100.664C60.0891 101.744 59.8008 102.81 59.2285 103.727"
        fill="#FAB6AD" />
    <path
        d="M23.6108 55.7906C22.6411 59.2827 20.7142 62.4337 18.0478 64.8873C14.8537 68.0258 28.5912 70.4553 28.9527 70.3744C29.9056 68.4365 30.6732 66.4129 31.2454 64.3305C31.5736 63.1979 23.6108 55.7906 23.6108 55.7906Z"
        fill="#FFDEBB" />
    <path opacity="0.5"
        d="M31.2437 64.3295C31.101 64.8173 30.5301 66.4139 29.907 68.0748C27.8445 67.0038 26.1976 65.2757 25.2264 63.1636C24.3016 61.0196 23.7938 58.7188 23.7303 56.3845C23.7179 56.24 23.7408 56.0947 23.797 55.961C24.9861 57.0912 31.5434 63.2992 31.2437 64.3295Z"
        fill="#FF9D44" />
    <path
        d="M35.4651 51.0588C36.2309 53.6473 36.3331 56.3869 35.7624 59.0253C35.1155 60.9558 34.2099 62.7897 33.0701 64.4766C32.5302 64.6551 26.6033 63.8794 25.2215 61.3C24.3552 59.5763 23.8073 57.7102 23.6041 55.7916C23.4258 55.0159 26.658 48.7222 30.7893 48.8435C34.9205 48.9649 35.2986 50.3973 35.4651 51.0588Z"
        fill="#FFDEBB" />
    <path
        d="M37.9669 49.9247C36.8681 50.3744 37.7005 51.6498 35.6385 51.8283C33.5764 52.0067 33.0984 49.4892 33.0984 49.4892C33.0112 49.8008 32.8503 50.0867 32.6292 50.3228C32.4081 50.5589 32.1334 50.7382 31.8284 50.8455C31.8284 50.8455 32.3801 49.7748 31.5905 49.3013C31.3964 49.163 31.1574 49.1026 30.9209 49.1321C30.6844 49.1616 30.4675 49.2789 30.3133 49.4607C30.2136 49.4136 30.1049 49.3887 29.9946 49.3877C29.8843 49.3867 29.7752 49.4096 29.6746 49.4548C29.574 49.5 29.4844 49.5665 29.412 49.6497C29.3395 49.7328 29.286 49.8307 29.255 49.9366C28.8863 50.7599 29.5522 51.2548 30.4203 51.3476C30.4203 51.3476 30.4988 52.573 28.5581 52.7586C26.6173 52.9442 26.2154 51.7474 26.2154 51.7474C26.2154 51.7474 25.8967 51.4547 25.7611 52.3065C25.6255 53.1584 26.2915 54.5432 24.9358 55.6378C24.6372 55.9096 24.2967 56.1314 23.9274 56.2945C24.61 56.8846 24.2794 58.674 22.7382 59.4116C20.6357 60.4062 19.0945 59.671 18.9043 58.2219C18.7306 56.9084 19.5678 57.4248 19.3538 56.4135C19.182 56.5495 18.9827 56.6464 18.7697 56.6974C18.5567 56.7484 18.3351 56.7523 18.1204 56.7088C17.9057 56.6653 17.7031 56.5755 17.5267 56.4456C17.3503 56.3157 17.2044 56.1488 17.0991 55.9566C17.0037 55.7946 16.942 55.615 16.9177 55.4285C16.8934 55.242 16.9069 55.0526 16.9576 54.8715C17.0082 54.6904 17.0949 54.5214 17.2124 54.3746C17.3299 54.2279 17.4757 54.1064 17.6413 54.0174C17.6413 54.0174 16.7399 52.78 17.4891 51.9163C18.3358 50.9312 19.6606 51.5689 19.4655 50.9645C19.2705 50.3601 18.7663 48.9134 19.5892 48.1092C20.4121 47.3049 21.7298 47.6333 21.9034 47.2026C22.077 46.7719 21.8249 46.1437 20.9734 46.5125C21.0071 46.2377 21.1004 45.9736 21.2466 45.7385C21.3928 45.5034 21.5886 45.3031 21.8201 45.1515C22.2266 44.9441 22.6713 44.8226 23.1267 44.7943C23.582 44.7661 24.0383 44.8318 24.4673 44.9873C24.5132 44.5862 24.654 44.2019 24.8782 43.8663C25.1025 43.5306 25.4035 43.2534 25.7563 43.0576C26.2589 42.8166 26.8319 42.7668 27.3684 42.9174C27.9049 43.068 28.3684 43.4088 28.6722 43.8761C28.7522 43.6399 28.8987 43.4318 29.094 43.2769C29.2894 43.122 29.5253 43.0268 29.7734 43.0028C31.4216 42.7649 32.7797 43.1932 33.1032 44.5233C33.4385 45.9248 35.8882 42.6935 37.0417 45.4561C37.2796 46.02 36.6612 46.4673 37.3604 46.9218C37.7552 47.1788 38.2618 46.3388 37.867 46.0438C38.3593 46.2478 38.7695 46.6104 39.0324 47.0741C39.1678 47.3281 39.2476 47.6079 39.2666 47.8951C39.2855 48.1823 39.2432 48.4703 39.1424 48.7399C39.0417 49.0094 38.8848 49.2545 38.6821 49.4588C38.4794 49.6631 38.2356 49.8219 37.9669 49.9247V49.9247Z"
        fill="black" />
    <path
        d="M100.395 106.903H45.7944C45.3875 106.903 44.9973 107.065 44.7096 107.352C44.422 107.64 44.2604 108.031 44.2604 108.438C44.26 108.64 44.2995 108.839 44.3764 109.026C44.4534 109.212 44.5663 109.382 44.7088 109.525C44.8513 109.667 45.0205 109.781 45.2068 109.858C45.393 109.935 45.5927 109.975 45.7944 109.975H100.392L100.395 106.903Z"
        fill="white" />
    <path
        d="M100.395 106.903H45.7944C45.3875 106.903 44.9973 107.065 44.7096 107.352C44.422 107.64 44.2604 108.031 44.2604 108.438C44.26 108.64 44.2995 108.839 44.3764 109.026C44.4534 109.212 44.5663 109.382 44.7088 109.525C44.8513 109.667 45.0205 109.781 45.2068 109.858C45.393 109.935 45.5927 109.975 45.7944 109.975H100.392L100.395 106.903Z"
        stroke="black" />
    <path
        d="M100.395 106.903H45.7944C45.3875 106.903 44.9973 107.065 44.7096 107.352C44.422 107.64 44.2604 108.031 44.2604 108.438V108.438C44.26 108.64 44.2995 108.839 44.3764 109.026C44.4534 109.212 44.5663 109.382 44.7088 109.525C44.8513 109.667 45.0205 109.781 45.2068 109.858C45.393 109.935 45.5927 109.975 45.7944 109.975H100.392"
        fill="#D9D9D9" />
    <path
        d="M94.2239 104.058H52.8592C52.1118 104.058 51.5059 104.664 51.5059 105.412C51.5059 106.16 52.1118 106.766 52.8592 106.766H94.2239C94.9713 106.766 95.5772 106.16 95.5772 105.412C95.5772 104.664 94.9713 104.058 94.2239 104.058Z"
        fill="#263238" />
    <path
        d="M92.8329 104.014H62.0473C61.871 104.023 61.6953 103.988 61.5366 103.91C61.3779 103.833 61.2416 103.716 61.1405 103.571C61.0393 103.427 60.9768 103.259 60.9586 103.083C60.9404 102.907 60.9672 102.73 61.0365 102.567L69.7319 84.0623C69.991 83.5364 70.3941 83.0951 70.8943 82.7897C71.3946 82.4843 71.9714 82.3274 72.5573 82.3373H103.343C103.519 82.3284 103.695 82.3644 103.853 82.442C104.011 82.5196 104.147 82.6363 104.248 82.781C104.349 82.9257 104.411 83.0936 104.429 83.2691C104.447 83.4446 104.421 83.6218 104.351 83.784L95.6561 102.289C95.3971 102.815 94.9944 103.256 94.4946 103.561C93.9948 103.867 93.4185 104.024 92.8329 104.014V104.014Z"
        fill="#263238" />
    <path
        d="M181.746 0C187.049 0 192.233 1.57332 196.643 4.52101C201.052 7.46869 204.489 11.6584 206.519 16.5602C208.548 21.462 209.079 26.8558 208.044 32.0596C207.01 37.2633 204.456 42.0433 200.706 45.795C196.956 49.5466 192.178 52.1016 186.977 53.1367C181.776 54.1718 176.384 53.6405 171.485 51.6101C166.585 49.5797 162.397 46.1413 159.451 41.7298C156.505 37.3183 154.932 32.1318 154.932 26.8261C154.932 19.7113 157.757 12.888 162.786 7.85717C167.814 2.82631 174.634 0 181.746 0V0Z"
        fill="#F0F0F0" />
    <path
        d="M183.687 8.88878C182.974 5.75979 186.363 3.35653 189.857 5.0055C198.079 8.88878 193.308 14.7018 190.359 14.076C188.863 13.9524 187.436 13.3961 186.252 12.475C185.067 11.554 184.176 10.3079 183.687 8.88878V8.88878Z"
        fill="url(#paint3_linear_927_10348)" />
    <path
        d="M185.682 28.6146C181.841 30.4611 181.282 30.3612 172.81 23.4274C160.028 12.9578 172.096 3.3971 185.056 8.4939C199.089 14.6639 194.386 24.4315 185.682 28.6146Z"
        fill="url(#paint4_linear_927_10348)" />
    <path
        d="M186.04 35.9486C184.73 38.804 183.06 40.2317 181.759 40.2317C180.458 40.2317 178.779 38.804 177.478 35.9486V32.3794C177.478 32.3794 176.895 32.3961 176.496 32.3794C172.296 32.1915 170.897 25.4623 171.554 18.7308C172.034 13.803 176.208 20.5678 183.001 15.8279C182.732 21.0151 184.968 20.4774 185.95 19.8516C190.426 17.7957 190.509 26.2 186.093 25.5504C186.094 25.6392 186.077 29.1053 186.04 35.9486Z"
        fill="#FFDEBB" />
    <path
        d="M177.456 32.3695C179.658 31.9984 181.728 31.0686 183.468 29.6688C183.057 30.9497 182.257 32.0706 181.18 32.8753C180.102 33.6801 178.8 34.1288 177.456 34.1588V32.3695Z"
        fill="url(#paint5_linear_927_10348)" />
    <path
        d="M175.979 36.9882C175.979 36.9882 176.25 35.1251 176.892 34.9656C177.534 34.8062 181.221 34.7872 181.226 35.501C181.226 35.6319 181.352 37.0405 181.775 37.0405C182.198 37.0405 182.305 35.6343 182.305 35.501C182.305 34.7872 185.985 34.8134 186.639 34.9656C187.293 35.1179 187.538 36.9906 187.538 36.9906C187.538 36.9906 197.177 41.5377 198.195 43.4794C199.466 47.2233 200.13 51.1468 200.16 55.1007H163.336C163.367 51.1466 164.031 47.2231 165.302 43.4794C166.318 41.5377 175.979 36.9882 175.979 36.9882Z"
        fill="#CCCCCC" />
    <path
        d="M183.643 14.2048C182.476 16.5448 181.953 19.1527 182.125 21.7617C182.298 24.3707 183.161 26.8869 184.625 29.0527C185.25 30.3386 185.53 31.7655 185.436 33.1925C185.342 34.6196 184.878 35.9975 184.09 37.1904C185.117 36.4254 185.946 35.4245 186.505 34.272C187.065 33.1195 187.339 31.8492 187.305 30.5684C187.305 26.0069 184.087 23.1468 186.77 19.3849C189.453 15.623 186.501 7.04976 183.643 14.2048Z"
        fill="url(#paint6_linear_927_10348)" />
    <path
        d="M109.443 50.7805C107.264 50.7805 105.135 51.4269 103.323 52.6378C101.512 53.8487 100.1 55.5698 99.2666 57.5835C98.4331 59.5971 98.2151 61.8129 98.6403 63.9505C99.0654 66.0881 100.115 68.0515 101.655 69.5925C103.196 71.1335 105.159 72.1828 107.295 72.6077C109.432 73.0326 111.647 72.814 113.659 71.9796C115.672 71.1453 117.392 69.7325 118.602 67.9201C119.812 66.1077 120.457 63.977 120.457 61.7974C120.456 58.8754 119.296 56.0732 117.23 54.0072C115.165 51.9412 112.363 50.7805 109.443 50.7805V50.7805Z"
        fill="white" />
    <path
        d="M103.971 62.4429C103.483 61.154 103.368 59.7537 103.638 58.4021C103.908 57.0505 104.553 55.8022 105.498 54.8001C106.183 54.2815 106.971 53.9168 107.809 53.7309C108.647 53.545 109.516 53.5424 110.355 53.7231C111.194 53.9038 111.985 54.2637 112.672 54.7781C113.36 55.2925 113.928 55.9493 114.339 56.7036C114.638 57.3437 114.229 58.3478 113.425 58.3122C113.109 58.2979 112.914 59.2996 112.731 59.9207C112.993 62.4429 115.271 62.4834 116.439 64.4107C117.852 66.7878 116.099 70.2951 111.899 70.2951C107.698 70.2951 105.289 66.8164 103.971 62.4429Z"
        fill="url(#paint7_linear_927_10348)" />
    <path
        d="M102.116 67.8566C101.66 69.4748 101.388 71.1389 101.302 72.8178H116.624C116.537 71.1387 116.263 69.4746 115.806 67.8566C114.988 66.2552 108.963 64.1946 108.963 64.1946C108.963 64.1946 102.939 66.2552 102.116 67.8566Z"
        fill="url(#paint8_linear_927_10348)" />
    <path
        d="M107.512 65.5452C108.066 65.841 108.677 66.0154 109.303 66.0567C109.908 66.0217 110.496 65.8466 111.021 65.5452V63.9366C111.205 63.9658 111.391 63.9769 111.577 63.97C113.33 63.97 113.991 61.4168 113.649 58.3092C113.43 58.3092 112.918 58.3092 112.188 57.286C112.371 58.7137 110.252 58.4924 109.448 57.3598C109.85 58.7113 108.792 59.6251 107.879 59.0778C106.088 58.0023 105.686 61.2788 107.512 61.3073V65.5452Z"
        fill="url(#paint9_linear_927_10348)" />
    <g style="mix-blend-mode:multiply" opacity="0.782">
        <path
            d="M111.021 63.9353C110.114 63.7689 109.247 63.4348 108.464 62.9502C108.733 63.3974 109.106 63.7733 109.551 64.0466C109.996 64.3198 110.5 64.4824 111.021 64.5207V63.9353Z"
            fill="#FFD7B8" />
    </g>
    <path
        d="M109.266 65.982C108.738 65.9582 107.515 65.6988 107.515 65.1396V64.6637C107.228 64.7884 106.98 64.9911 106.802 65.2491C106.644 65.4129 106.537 65.6186 106.492 65.8417C106.448 66.0648 106.468 66.296 106.551 66.5079C106.634 66.7197 106.776 66.9034 106.96 67.0371C107.144 67.1708 107.362 67.2489 107.589 67.2621C107.939 67.236 108.277 67.1212 108.57 66.9284C108.863 66.7357 109.103 66.4714 109.266 66.1604C109.429 66.4717 109.669 66.7362 109.963 66.929C110.257 67.1217 110.595 67.2364 110.945 67.2621C111.172 67.2493 111.391 67.1717 111.575 67.0385C111.759 66.9053 111.901 66.722 111.984 66.5105C112.068 66.2989 112.089 66.0679 112.045 65.8447C112.001 65.6216 111.894 65.4157 111.737 65.2515C111.559 64.9935 111.311 64.7907 111.024 64.6661V65.142C111.024 65.7012 109.768 65.9605 109.268 65.9843L109.266 65.982Z"
        fill="white" />
    <path
        d="M156.367 67.0621C152.864 67.0621 149.438 68.1015 146.525 70.0489C143.612 71.9963 141.341 74.7642 140 78.0027C138.659 81.2412 138.308 84.8048 138.991 88.2429C139.674 91.681 141.361 94.8392 143.838 97.3182C146.315 99.7973 149.472 101.486 152.908 102.17C156.344 102.855 159.907 102.504 163.144 101.164C166.381 99.8227 169.148 97.5516 171.096 94.6375C173.043 91.7233 174.083 88.2969 174.084 84.7915C174.084 82.4635 173.627 80.1581 172.737 78.0071C171.847 75.8561 170.542 73.9016 168.896 72.2552C167.251 70.6088 165.298 69.3028 163.148 68.4118C160.998 67.5207 158.694 67.0621 156.367 67.0621V67.0621Z"
        fill="url(#paint10_linear_927_10348)" />
    <path
        d="M152.755 87.6972V90.9999H160.3C160.3 90.9999 160.285 86.1172 160.3 82.8859C161.988 80.6944 161.988 79.3167 160.654 77.9104C159.32 76.5042 149.809 75.788 149.809 75.788C149.809 75.788 149.095 82.6527 148.983 84.5158C148.938 85.2654 148.453 87.6995 150.339 87.6995L152.755 87.6972Z"
        fill="url(#paint11_linear_927_10348)" />
    <path
        d="M153.973 87.6078C155.337 87.4375 156.645 86.9661 157.805 86.2278C157.458 86.9896 156.925 87.6521 156.256 88.1544C155.586 88.6566 154.801 88.9825 153.973 89.1021V87.6078Z"
        fill="#F08956" />
    <path
        d="M158.763 79.3503C158.949 79.1534 159.197 79.0258 159.465 78.9886C159.733 78.9514 160.006 79.0068 160.238 79.1457C161.765 79.9381 160.752 82.998 159.049 82.9386C158.459 82.9171 158.73 84.0926 160.304 84.8683C160.304 83.631 162.191 80.5639 162.355 77.7727C164.257 77.0589 163.782 74.2369 162.478 74.2369C162.68 71.6313 158.53 70.3036 156.922 71.7908C155.288 69.8301 151.162 70.839 150.912 72.5332C148.075 71.0174 146.21 75.3742 148.867 77.0541C151.214 77.9108 153.721 78.2359 156.209 78.0059C157.981 78.0059 156.96 82.1533 156.409 83.493C155.695 85.2038 151.752 85.4394 150.515 85.2609C149.549 85.1229 149.04 84.7303 148.983 84.4947C148.099 86.8718 149.219 88.2876 150.986 88.2876C153.992 88.2876 156.999 87.4024 157.469 85.2205C157.586 83.2074 158.023 81.2259 158.763 79.3503V79.3503Z"
        fill="white" />
    <path
        d="M144.149 95.636C143.179 98.0472 142.582 100.592 142.38 103.184H170.67C170.468 100.593 169.872 98.0474 168.903 95.636C168.159 94.1203 161.243 91.2007 161.243 91.2007C161.243 91.2007 161.105 89.8658 160.767 89.6755C157.941 89.4843 155.106 89.4843 152.281 89.6755C151.884 89.8658 151.805 91.2007 151.805 91.2007C151.805 91.2007 144.891 94.1227 144.149 95.636Z"
        fill="url(#paint12_linear_927_10348)" />
    <path
        d="M156.367 67.0621C152.864 67.0621 149.438 68.1015 146.525 70.0489C143.612 71.9963 141.341 74.7642 140 78.0027C138.659 81.2412 138.308 84.8048 138.991 88.2429C139.674 91.681 141.361 94.8392 143.838 97.3182C146.315 99.7973 149.472 101.486 152.908 102.17C156.344 102.855 159.907 102.504 163.144 101.164C166.381 99.8227 169.148 97.5516 171.096 94.6375C173.043 91.7233 174.083 88.2969 174.084 84.7915C174.084 82.4635 173.627 80.1581 172.737 78.0071C171.847 75.8561 170.542 73.9016 168.896 72.2552C167.251 70.6088 165.298 69.3028 163.148 68.4118C160.998 67.5207 158.694 67.0621 156.367 67.0621V67.0621Z"
        fill="url(#paint13_linear_927_10348)" />
    <path
        d="M152.754 87.6972V90.9999H160.298C160.298 90.9999 160.284 86.1172 160.298 82.8859C161.987 80.6944 161.987 79.3167 160.653 77.9104C159.319 76.5042 149.807 75.788 149.807 75.788C149.807 75.788 149.094 82.6527 148.982 84.5158C148.937 85.2654 148.452 87.6995 150.338 87.6995L152.754 87.6972Z"
        fill="#FFDEBB" />
    <path
        d="M153.972 87.6078C155.336 87.4375 156.644 86.9661 157.803 86.2278C157.457 86.9896 156.924 87.6521 156.254 88.1544C155.585 88.6566 154.8 88.9825 153.972 89.1021V87.6078Z"
        fill="#F08956" />
    <path
        d="M158.762 79.3503C158.948 79.1534 159.195 79.0258 159.463 78.9886C159.731 78.9514 160.004 79.0068 160.237 79.1457C161.764 79.9381 160.75 82.998 159.047 82.9386C158.458 82.9171 158.729 84.0926 160.303 84.8683C160.303 83.631 162.189 80.5639 162.353 77.7727C164.256 77.0589 163.78 74.2369 162.477 74.2369C162.679 71.6313 158.529 70.3036 156.921 71.7908C155.287 69.8301 151.161 70.839 150.911 72.5332C148.074 71.0174 146.209 75.3742 148.866 77.0541C151.212 77.9108 153.72 78.2359 156.208 78.0059C157.98 78.0059 156.959 82.1533 156.407 83.493C155.694 85.2038 151.751 85.4394 150.514 85.2609C149.548 85.1229 149.039 84.7303 148.982 84.4947C148.097 86.8718 149.218 88.2876 150.985 88.2876C153.991 88.2876 156.997 87.4024 157.468 85.2205C157.585 83.2074 158.022 81.2259 158.762 79.3503V79.3503Z"
        fill="white" />
    <path
        d="M144.15 95.636C143.18 98.0472 142.583 100.592 142.38 103.184H170.671C170.469 100.593 169.873 98.0474 168.904 95.636C168.16 94.1203 161.243 91.2007 161.243 91.2007C161.243 91.2007 161.105 89.8658 160.768 89.6755C157.942 89.4843 155.107 89.4843 152.282 89.6755C151.884 89.8658 151.806 91.2007 151.806 91.2007C151.806 91.2007 144.892 94.1227 144.15 95.636Z"
        fill="#848889" />
    <defs>
        <linearGradient id="paint0_linear_927_10348" x1="43.1973" y1="69.4191" x2="43.1973"
            y2="108.838" gradientUnits="userSpaceOnUse">
            <stop stop-color="#E35759" />
            <stop offset="1" stop-color="#D8623F" />
        </linearGradient>
        <linearGradient id="paint1_linear_927_10348" x1="19.0627" y1="65.1837" x2="19.0627"
            y2="132.539" gradientUnits="userSpaceOnUse">
            <stop stop-color="#EE575C" />
            <stop offset="1" stop-color="#F67147" />
        </linearGradient>
        <linearGradient id="paint2_linear_927_10348" x1="30.4339" y1="72.554" x2="30.4339"
            y2="106.048" gradientUnits="userSpaceOnUse">
            <stop stop-color="#EE575C" />
            <stop offset="1" stop-color="#F67147" />
        </linearGradient>
        <linearGradient id="paint3_linear_927_10348" x1="189.015" y1="4.46998" x2="189.015"
            y2="14.1226" gradientUnits="userSpaceOnUse">
            <stop stop-color="#1D0024" />
            <stop offset="1" stop-color="#100014" />
        </linearGradient>
        <linearGradient id="paint4_linear_927_10348" x1="180.666" y1="7.08179" x2="180.666"
            y2="29.6313" gradientUnits="userSpaceOnUse">
            <stop stop-color="#1D0024" />
            <stop offset="1" stop-color="#100014" />
        </linearGradient>
        <linearGradient id="paint5_linear_927_10348" x1="180.462" y1="29.6688" x2="180.462"
            y2="34.1588" gradientUnits="userSpaceOnUse">
            <stop stop-color="#FF9D44" />
            <stop offset="1" stop-color="#F5C58D" />
        </linearGradient>
        <linearGradient id="paint6_linear_927_10348" x1="184.959" y1="11.4428" x2="184.959"
            y2="37.1904" gradientUnits="userSpaceOnUse">
            <stop stop-color="#1D0024" />
            <stop offset="1" stop-color="#100014" />
        </linearGradient>
        <linearGradient id="paint7_linear_927_10348" x1="110.208" y1="53.5895" x2="110.208"
            y2="70.2951" gradientUnits="userSpaceOnUse">
            <stop stop-color="#130027" />
            <stop offset="1" stop-color="#130017" />
        </linearGradient>
        <linearGradient id="paint8_linear_927_10348" x1="108.963" y1="72.8178" x2="108.963"
            y2="64.1946" gradientUnits="userSpaceOnUse">
            <stop stop-color="#FF9D44" />
            <stop offset="1" stop-color="#F5C58D" />
        </linearGradient>
        <linearGradient id="paint9_linear_927_10348" x1="110.03" y1="57.286" x2="110.03"
            y2="66.0567" gradientUnits="userSpaceOnUse">
            <stop stop-color="#C36F0B" />
            <stop offset="1" stop-color="#C57515" />
        </linearGradient>
        <linearGradient id="paint10_linear_927_10348" x1="174.084" y1="67.0621" x2="138.635"
            y2="102.495" gradientUnits="userSpaceOnUse">
            <stop stop-color="#806A6A" />
            <stop offset="1" stop-color="#665654" />
        </linearGradient>
        <linearGradient id="paint11_linear_927_10348" x1="161.614" y1="75.788" x2="146.643"
            y2="88.3068" gradientUnits="userSpaceOnUse">
            <stop stop-color="#F7B186" />
            <stop offset="1" stop-color="#FFC299" />
        </linearGradient>
        <linearGradient id="paint12_linear_927_10348" x1="156.525" y1="103.184" x2="156.525"
            y2="89.5321" gradientUnits="userSpaceOnUse">
            <stop stop-color="#FFC9B3" />
            <stop offset="1" stop-color="#FFD2C2" />
        </linearGradient>
        <linearGradient id="paint13_linear_927_10348" x1="156.367" y1="102.511" x2="156.367"
            y2="67.0621" gradientUnits="userSpaceOnUse">
            <stop stop-color="#FF9D44" />
            <stop offset="1" stop-color="#F5C58D" />
        </linearGradient>
    </defs>
</svg>
