<?xml version="1.0" encoding="utf-8"?>

<!--
 * Copyright (c) 2020, WSO2 Inc. (http://www.wso2.org) All Rights Reserved.
 *
 * WSO2 Inc. licenses this file to you under the Apache License,
 * Version 2.0 (the "License"); you may not use this file except
 * in compliance with the License.
 * You may obtain a copy of the License at
 *
 *     http://www.apache.org/licenses/LICENSE-2.0
 *
 * Unless required by applicable law or agreed to in writing,
 * software distributed under the License is distributed on an
 * "AS IS" BASIS, WITHOUT WARRANTIES OR CONDITIONS OF ANY
 * KIND, either express or implied. See the License for the
 * specific language governing permissions and limitations
 * under the License.
-->

<svg version="1.1" id="passive-sts-template-illustration" class="icon" xmlns="http://www.w3.org/2000/svg" xmlns:xlink="http://www.w3.org/1999/xlink" width="100" height="100" viewBox="-4 -8 100 100">
    <g id="passive-sts-template-illustration" transform="translate(0 -33.293)">
        <path id="Path_102" class="path fill primary"
              d="M90.75,104.822A21.14,21.14,0,0,0,78.213,91.863a7.675,7.675,0,0,1-4.951-7.077q0-.1,0-.207A21.187,21.187,0,0,0,35.032,72.5,17.288,17.288,0,0,1,21.2,79.67q-.242,0-.485.005A21.578,21.578,0,0,0,0,100.568a21.189,21.189,0,0,0,41.086,7.566,4.336,4.336,0,0,1,5.256-2.651l.082.023a4.325,4.325,0,0,1,3.15,4.508,21.189,21.189,0,1,0,41.174-5.192Z"
              transform="translate(0 -25.111)" fill="#ff5000" opacity="0.1" />
        <path id="Path_103" class="path fill primary"
              d="M127.792,67.986V51.3a2.693,2.693,0,0,0-2.692-2.692H99.052L93.439,39.17a1.8,1.8,0,0,0-3.085,0l-5.613,9.436H58.692A2.693,2.693,0,0,0,56,51.3V67.986Z"
              transform="translate(-45.949 -4.102)" fill="#ff5000" opacity="0.1"/>
        <path id="Path_104" class="path fill primary" d="M219.646,399.944H199.289l4.071-16.136h12.215Z"
              transform="translate(-163.52 -287.604)" fill="#f5e6e0" opacity="0.4"/>
        <path id="Path_105" class="path fill primary" d="M229.122,389.426H214.071l1.418-5.618H227.7Z"
              transform="translate(-175.649 -287.604)" fill="#ff5000" opacity="0.6"/>
        <path id="Path_106"
              d="M127.792,119.45v45.633a2.693,2.693,0,0,1-2.692,2.692H58.692A2.693,2.693,0,0,1,56,165.083V119.45a2.693,2.693,0,0,1,2.692-2.692H125.1A2.693,2.693,0,0,1,127.792,119.45Z"
              transform="translate(-45.949 -68.485)" fill="#f5f4f9"/>
        <path id="Path_107"
              d="M130.367,111.809h42.148a1.8,1.8,0,0,0,1.542-2.712L152.983,73.671a1.8,1.8,0,0,0-3.085,0L128.824,109.1a1.8,1.8,0,0,0,1.542,2.712Z"
              transform="translate(-105.493 -32.411)" fill="#e8e6ed"/>
        <path id="Path_108" class="path fill primary"
              d="M127.792,132.907V119.45a2.693,2.693,0,0,0-2.692-2.692H58.692A2.693,2.693,0,0,0,56,119.45v13.457Z"
              transform="translate(-45.949 -68.485)" fill="#ffd5b8" opacity="0.7"/>
        <path id="Path_109" class="path fill primary"
              d="M127.792,125.4V119.45a2.692,2.692,0,0,0-2.692-2.692H58.692A2.692,2.692,0,0,0,56,119.45V125.4Z"
              transform="translate(-45.949 -68.485)" fill="#ffa052" opacity="0.9"/>
        <path id="Path_110" class="path fill primary"
              d="M56,350.616v6.352a2.692,2.692,0,0,0,2.692,2.692H125.1a2.692,2.692,0,0,0,2.692-2.692v-6.352Z"
              transform="translate(-45.949 -260.37)" fill="#f5e7e1" opacity="0.6"/>
        <g id="Group_15" transform="translate(15.989 51.686)">
            <path id="Path_111" class="path fill primary"
                  d="M89.979,137.592a.9.9,0,0,1-.9-.9v-.026a.9.9,0,0,1,1.795,0v.026A.9.9,0,0,1,89.979,137.592Z"
                  transform="translate(-89.082 -135.771)" fill="#ff5000"/>
            <path id="Path_112" class="path fill primary"
                  d="M109.3,137.592a.9.9,0,0,1-.9-.9v-.026a.9.9,0,0,1,1.795,0v.026A.9.9,0,0,1,109.3,137.592Z"
                  transform="translate(-104.938 -135.771)" fill="#ff5000"/>
            <path id="Path_113" class="path fill primary"
                  d="M128.628,137.592a.9.9,0,0,1-.9-.9v-.026a.9.9,0,0,1,1.795,0v.026A.9.9,0,0,1,128.628,137.592Z"
                  transform="translate(-120.794 -135.771)" fill="#ff5000"/>
        </g>
        <path id="Path_114"
              d="M130.367,98.309h42.148a1.8,1.8,0,0,0,1.542-2.712L152.983,60.171a1.8,1.8,0,0,0-3.085,0L128.824,95.6a1.8,1.8,0,0,0,1.542,2.712Z"
              transform="translate(-105.493 -21.334)" fill="#fff"/>
        <path id="Path_115" class="path fill primary"
              d="M121,64.607H99.882a.9.9,0,0,0,0,1.795H121a1.8,1.8,0,0,1,1.795,1.795v5.056H100.6l-10.5-17.644a2.692,2.692,0,0,0-4.628,0l-5.353,9H54.59A3.594,3.594,0,0,0,51,68.2v45.632a3.594,3.594,0,0,0,3.59,3.59H79.756l-1.743,6.908a.9.9,0,1,0,1.74.439l1.853-7.347H93.981l2.839,11.254H74.165a.9.9,0,1,0,0,1.795h27.257a.9.9,0,0,0,0-1.795H98.671l-2.839-11.254H121a3.594,3.594,0,0,0,3.59-3.59V68.2a3.594,3.594,0,0,0-3.59-3.59Zm1.795,10.441V106.58h-70V75.047H73.917L64.406,91.035A2.692,2.692,0,0,0,66.72,95.1h42.148a2.692,2.692,0,0,0,2.314-4.068l-9.511-15.988h21.121ZM87.022,56.526a.9.9,0,0,1,1.543,0l21.074,35.426a.9.9,0,0,1-.771,1.356H66.72a.9.9,0,0,1-.771-1.356ZM54.59,66.4H79.06l-4.075,6.851H52.795V68.2A1.8,1.8,0,0,1,54.59,66.4ZM121,115.624H54.59a1.8,1.8,0,0,1-1.795-1.795v-5.454h70v5.454A1.8,1.8,0,0,1,121,115.624Z"
              transform="translate(-41.846 -17.231)" fill="#ff5000"/>
        <path id="Path_118" class="path fill primary"
              d="M106.238,301.951a.894.894,0,0,1-.634-.263,1.078,1.078,0,0,0-1.523,0,.9.9,0,1,1-1.269-1.269,1.077,1.077,0,0,0,0-1.523.9.9,0,1,1,1.269-1.269,1.077,1.077,0,0,0,1.523,0,.9.9,0,0,1,1.269,1.269,1.078,1.078,0,0,0,0,1.523.9.9,0,0,1-.634,1.532Z"
              transform="translate(-84.143 -216.675)" fill="#ffa052" opacity="0.8"/>
        <path id="Path_119" class="path fill primary"
              d="M146.9,301.951a.894.894,0,0,1-.634-.263,1.078,1.078,0,0,0-1.523,0,.9.9,0,1,1-1.269-1.269,1.077,1.077,0,0,0,0-1.523.9.9,0,1,1,1.269-1.269,1.078,1.078,0,0,0,1.523,0,.9.9,0,1,1,1.269,1.269,1.077,1.077,0,0,0,0,1.523.9.9,0,0,1-.634,1.532Z"
              transform="translate(-117.51 -216.675)" fill="#ffa052" opacity="0.8"/>
        <path id="Path_120" class="path fill primary"
              d="M187.571,301.951a.894.894,0,0,1-.634-.263,1.078,1.078,0,0,0-1.523,0,.9.9,0,0,1-1.269-1.269,1.077,1.077,0,0,0,0-1.523.9.9,0,1,1,1.269-1.269,1.078,1.078,0,0,0,1.523,0,.9.9,0,1,1,1.269,1.269,1.077,1.077,0,0,0,0,1.523.9.9,0,0,1-.634,1.532Z"
              transform="translate(-150.878 -216.675)" fill="#ffa052" opacity="0.8"/>
        <path id="Path_121" d="M266.386,297.476H238.18a.9.9,0,0,1,0-1.8h28.206a.9.9,0,1,1,0,1.8Z"
              transform="translate(-194.693 -215.292)" fill="#ddd9e4"/>
        <path id="Path_122" d="M266.386,316.39H238.18a.9.9,0,1,1,0-1.8h28.206a.9.9,0,1,1,0,1.8Z"
              transform="translate(-194.693 -230.811)" fill="#ddd9e4"/>
        <path id="Path_123" class="path fill primary"
              d="M130.606,429.511a.9.9,0,0,1-.634-.263l-1.978-1.978a.9.9,0,0,1,0-1.269l1.978-1.978a.9.9,0,0,1,1.269,0L133.218,426a.9.9,0,0,1,0,1.269l-1.978,1.978A.9.9,0,0,1,130.606,429.511Zm-.708-2.875.708.708.708-.708-.708-.708Z"
              transform="translate(-104.806 -320.386)" fill="#ffa052" opacity="0.3"/>
        <path id="Path_124" class="path fill primary"
              d="M307.722,57.735a.9.9,0,0,1-.634-.263l-1.978-1.978a.9.9,0,0,1,0-1.269l1.978-1.978a.9.9,0,0,1,1.269,0l1.978,1.978a.9.9,0,0,1,0,1.269l-1.978,1.978a.9.9,0,0,1-.634.263Zm-.708-2.875.708.708.708-.708-.708-.708Z"
              transform="translate(-250.133 -15.337)" fill="#ffa052" opacity="0.3"/>
        <path id="Path_125" class="path fill primary"
              d="M351.838,39.043a.9.9,0,0,1-.9-.9,1.081,1.081,0,0,0-1.08-1.08.9.9,0,1,1,0-1.795,1.082,1.082,0,0,0,1.08-1.08.9.9,0,1,1,1.795,0,1.081,1.081,0,0,0,1.08,1.08.9.9,0,0,1,0,1.795,1.081,1.081,0,0,0-1.08,1.08A.9.9,0,0,1,351.838,39.043Z"
              transform="translate(-286.331)" fill="#ffe783" opacity="0.3"/>
        <path id="Path_126" class="path fill primary"
              d="M150.628,57.735a.9.9,0,0,1-.9-.9,1.081,1.081,0,0,0-1.08-1.08.9.9,0,0,1,0-1.795,1.081,1.081,0,0,0,1.08-1.08.9.9,0,0,1,1.795,0,1.081,1.081,0,0,0,1.08,1.08.9.9,0,0,1,0,1.795,1.082,1.082,0,0,0-1.08,1.08A.9.9,0,0,1,150.628,57.735Z"
              transform="translate(-121.234 -15.337)" fill="#ffe783" opacity="0.3"/>
        <g id="key" transform="translate(58.754 61.843) rotate(134)">
            <g id="Group_16" transform="translate(0.001 0)">
                <path id="Path_127" class="path fill primary"
                      d="M16.886,1.756a6,6,0,0,0-9.959,6.1L.161,14.619a.546.546,0,0,0-.16.386v3.09a.546.546,0,0,0,.546.546h3.09a.546.546,0,0,0,.386-.16l.772-.773a.546.546,0,0,0,.156-.449l-.1-.83,1.15-.108a.545.545,0,0,0,.492-.492l.108-1.15.83.1a.537.537,0,0,0,.426-.134.548.548,0,0,0,.183-.408V13.216h1a.546.546,0,0,0,.386-.16l1.4-1.382a5.914,5.914,0,0,0,6.056-1.422A6.014,6.014,0,0,0,16.886,1.756ZM15.341,5.618a1.638,1.638,0,1,1,0-2.317A1.64,1.64,0,0,1,15.341,5.618Z"
                      transform="translate(-0.001 0)" fill="#ff7c41"/>
            </g>
        </g>
    </g>
</svg>
