<!--
 * Copyright (c) 2023-2024, WSO2 LLC. (https://www.wso2.com).
 *
 * WSO2 LLC. licenses this file to you under the Apache License,
 * Version 2.0 (the "License"); you may not use this file except
 * in compliance with the License.
 * You may obtain a copy of the License at
 *
 *     http://www.apache.org/licenses/LICENSE-2.0
 *
 * Unless required by applicable law or agreed to in writing,
 * software distributed under the License is distributed on an
 * "AS IS" BASIS, WITHOUT WARRANTIES OR CONDITIONS OF ANY
 * KIND, either express or implied. See the License for the
 * specific language governing permissions and limitations
 * under the License.
-->

<svg id="rafiki-the-cat" class="icon" width="126" height="94" viewBox="0 0 126 94" fill="none"
    xmlns="http://www.w3.org/2000/svg">
    <path d="M125.031 81.8703H0V81.9328H125.031V81.8703Z" fill="#EBEBEB" />
    <path d="M112.503 85.8941H104.221V85.9566H112.503V85.8941Z" fill="#EBEBEB" />
    <path d="M68.3224 85.1109H65.0984V85.1734H68.3224V85.1109Z" fill="#EBEBEB" />
    <path d="M87.4389 85.3763H80.6522V85.4388H87.4389V85.3763Z" fill="#EBEBEB" />
    <path d="M103.971 83.5733H89.9396V83.6358H103.971V83.5733Z" fill="#EBEBEB" />
    <path d="M19.7524 86.4661H13.1182V86.5286H19.7524V86.4661Z" fill="#EBEBEB" />
    <path d="M27.7293 86.4661H21.9778V86.5286H27.7293V86.4661Z" fill="#EBEBEB" />
    <path d="M47.9644 85.0809H32.7582V85.1434H47.9644V85.0809Z" fill="#EBEBEB" />
    <path
        d="M59.2643 70.7175H10.9799C10.6017 70.7168 10.2391 70.5661 9.97189 70.2984C9.70466 70.0307 9.55456 69.6679 9.55457 69.2896V1.41535C9.55786 1.03926 9.7094 0.679662 9.97628 0.414657C10.2432 0.149651 10.6038 0.000644256 10.9799 0H59.2643C59.643 0 60.0062 0.150434 60.274 0.418208C60.5418 0.685983 60.6922 1.04916 60.6922 1.42785V69.2896C60.6922 69.6683 60.5418 70.0315 60.274 70.2992C60.0062 70.567 59.643 70.7175 59.2643 70.7175ZM10.9799 0.0500125C10.6182 0.0506749 10.2716 0.194814 10.0161 0.450793C9.76058 0.706772 9.61708 1.05367 9.61708 1.41535V69.2896C9.61708 69.6513 9.76058 69.9982 10.0161 70.2542C10.2716 70.5101 10.6182 70.6543 10.9799 70.6549H59.2643C59.6262 70.6543 59.9731 70.5102 60.229 70.2543C60.485 69.9984 60.629 69.6515 60.6297 69.2896V1.41535C60.629 1.05344 60.485 0.706547 60.229 0.45064C59.9731 0.194733 59.6262 0.0506736 59.2643 0.0500125H10.9799Z"
        fill="#EBEBEB" />
    <path
        d="M113.356 70.7175H65.0687C64.6902 70.7168 64.3274 70.5661 64.0598 70.2985C63.7922 70.0309 63.6415 69.6681 63.6409 69.2896V1.41535C63.6448 1.03903 63.7969 0.679437 64.0642 0.414501C64.3315 0.149564 64.6924 0.00063723 65.0687 0H113.356C113.731 0.00130145 114.091 0.150599 114.358 0.415535C114.624 0.68047 114.775 1.03969 114.778 1.41535V69.2896C114.778 69.6674 114.629 70.0298 114.362 70.2975C114.095 70.5651 113.733 70.7161 113.356 70.7175ZM65.0687 0.0500125C64.7068 0.0506736 64.3599 0.194733 64.104 0.45064C63.8481 0.706547 63.704 1.05344 63.7034 1.41535V69.2896C63.704 69.6515 63.8481 69.9984 64.104 70.2543C64.3599 70.5102 64.7068 70.6543 65.0687 70.6549H113.356C113.718 70.6543 114.064 70.5102 114.32 70.2543C114.576 69.9984 114.72 69.6515 114.721 69.2896V1.41535C114.72 1.05344 114.576 0.706547 114.32 0.45064C114.064 0.194733 113.718 0.0506736 113.356 0.0500125H65.0687Z"
        fill="#EBEBEB" />
    <path
        d="M28.5834 31.1123L56.9254 31.1123C64.6365 31.1123 70.8876 24.8612 70.8876 17.1501C70.8876 9.43897 64.6365 3.18788 56.9254 3.18788L28.5834 3.18788C20.8723 3.18788 14.6212 9.43897 14.6212 17.1501C14.6212 24.8612 20.8723 31.1123 28.5834 31.1123Z"
        fill="#F0F0F0" />
    <path
        d="M101.025 36.6791C101.233 36.6791 101.432 36.5967 101.579 36.45C101.726 36.3033 101.809 36.1042 101.81 35.8964V11.6404C101.81 11.5371 101.79 11.4347 101.751 11.3391C101.712 11.2436 101.654 11.1567 101.581 11.0836C101.508 11.0104 101.421 10.9523 101.326 10.9127C101.23 10.8731 101.128 10.8527 101.025 10.8527C100.817 10.8534 100.619 10.936 100.472 11.0827C100.325 11.2293 100.243 11.428 100.242 11.6354V35.8914C100.242 35.9945 100.262 36.0967 100.301 36.192C100.34 36.2874 100.398 36.3742 100.47 36.4473C100.543 36.5205 100.629 36.5786 100.725 36.6183C100.82 36.6581 100.922 36.6787 101.025 36.6791Z"
        fill="#F5F5F5" />
    <path
        d="M95.3887 37.6044H106.664C106.663 37.1138 106.468 36.6435 106.121 36.2966C105.774 35.9497 105.304 35.7546 104.813 35.7539H97.2391C96.7484 35.7539 96.2777 35.9489 95.9307 36.2959C95.5836 36.6429 95.3887 37.1136 95.3887 37.6044Z"
        fill="#F0F0F0" />
    <path
        d="M96.9564 22.0058C97.0601 22.0051 97.1593 21.9634 97.2324 21.8899C97.3055 21.8163 97.3465 21.7168 97.3465 21.6132V9.68521C97.3465 9.58175 97.3054 9.48253 97.2322 9.40937C97.1591 9.33621 97.0598 9.29511 96.9564 9.29511C96.9049 9.29478 96.8539 9.30463 96.8063 9.32409C96.7587 9.34354 96.7154 9.37222 96.6789 9.40848C96.6424 9.44474 96.6135 9.48785 96.5937 9.53535C96.574 9.58284 96.5638 9.63377 96.5638 9.68521V21.6157C96.5644 21.7193 96.6061 21.8186 96.6796 21.8916C96.7532 21.9647 96.8527 22.0058 96.9564 22.0058Z"
        fill="#F0F0F0" />
    <path
        d="M110.042 13.8136C110.356 13.8122 110.665 13.7396 110.947 13.6012C111.228 13.4628 111.475 13.2623 111.668 13.0147C111.86 12.7671 111.994 12.4789 112.059 12.172C112.124 11.8651 112.118 11.5474 112.043 11.2429C111.217 7.9296 108.697 2.58328 101.017 2.58328C93.3381 2.58328 90.825 7.9296 90.0023 11.2529C89.926 11.5574 89.92 11.8753 89.9848 12.1824C90.0496 12.4895 90.1834 12.7779 90.3762 13.0256C90.569 13.2734 90.8156 13.4739 91.0974 13.6122C91.3793 13.7504 91.6889 13.8227 92.0028 13.8236L110.042 13.8136Z"
        fill="#E0E0E0" />
    <path d="M112.11 37.6322H90.8823V81.8681H112.11V37.6322Z" fill="#E6E6E6" />
    <path d="M107.559 81.87H112.11V74.2382H102.783L107.559 81.87Z" fill="#F5F5F5" />
    <path d="M68.2716 37.6322H47.0438V81.8681H68.2716V37.6322Z" fill="#E6E6E6" />
    <path d="M112.113 37.6322H64.3011V79.2425H112.113V37.6322Z" fill="#F5F5F5" />
    <path d="M108.579 41.4954H67.8318V50.215H108.579V41.4954Z" fill="#F0F0F0" />
    <path d="M68.8548 81.87H64.3011V74.2382H73.6284L68.8548 81.87Z" fill="#F5F5F5" />
    <path d="M108.579 54.0781H67.8318V62.7977H108.579V54.0781Z" fill="#F0F0F0" />
    <path d="M108.579 66.6614H67.8318V75.381H108.579V66.6614Z" fill="#F0F0F0" />
    <path d="M20.4778 46.6919H49.3475L48.9174 81.8706H20.0477L20.4778 46.6919Z" fill="#E0E0E0" />
    <path d="M21.8004 42.6881H50.0924L47.0116 81.8703H18.7196L21.8004 42.6881Z" fill="#F0F0F0" />
    <path d="M20.34 42.6881H48.632L45.5487 81.8703H17.2567L20.34 42.6881Z" fill="#F5F5F5" />
    <path
        d="M62.5157 93.163C89.2929 93.163 111 91.8956 111 90.3323C111 88.7689 89.2929 87.5016 62.5157 87.5016C35.7385 87.5016 14.0312 88.7689 14.0312 90.3323C14.0312 91.8956 35.7385 93.163 62.5157 93.163Z"
        fill="#F5F5F5" />
    <path
        d="M35.0412 26.1264C38.7721 17.1242 53.1182 7.85187 69.1671 11.3027C63.1481 13.0757 52.9131 25.5812 55.4937 37.6117C44.8161 34.2384 35.0412 26.1264 35.0412 26.1264Z"
        fill="#FF8C00" />
    <path opacity="0.3"
        d="M35.0412 26.1264C38.7721 17.1242 53.1182 7.85187 69.1671 11.3027C63.1481 13.0757 52.9131 25.5812 55.4937 37.6117C44.8161 34.2384 35.0412 26.1264 35.0412 26.1264Z"
        fill="black" />
    <path
        d="M54.6133 17.2615L55.7261 18.7494L57.5816 18.6769L56.5113 20.1947L57.154 21.9377L55.3785 21.3875L53.9207 22.5378L53.8957 20.6798L52.3503 19.6471L54.1082 19.0494L54.6133 17.2615Z"
        fill="#FF8C00" />
    <path
        d="M42.163 19.4223L43.2758 20.9101L45.1313 20.8376L44.061 22.3555L44.7037 24.0984L42.9307 23.5483L41.4704 24.6986L41.4453 22.8406L39.9 21.8104L41.6604 21.2102L42.163 19.4223Z"
        fill="#FF8C00" />
    <path
        d="M50.4349 14.9138L50.1649 16.4367L51.2701 17.5219L49.7373 17.7395L49.0471 19.1248L48.3669 17.7345L46.8365 17.5044L47.9493 16.4292L47.6943 14.9013L49.0596 15.629L50.4349 14.9138Z"
        fill="#FF8C00" />
    <path
        d="M52.2531 22.8907L51.9855 24.4136L53.0908 25.4989L51.5579 25.7164L50.8678 27.1018L50.1876 25.7089L48.6572 25.4814L49.77 24.4061L49.5124 22.8782L50.8803 23.6059L52.2531 22.8907Z"
        fill="#FF8C00" />
    <path
        d="M55.779 12.398L56.0716 13.9184L57.4894 14.5386L56.1366 15.2863L55.9841 16.8266L54.8538 15.7689L53.3409 16.1015L53.9986 14.6986L53.2159 13.3633L54.7513 13.5558L55.779 12.398Z"
        fill="#FF8C00" />
    <path
        d="M62.8887 12.936L62.0609 13.7238L62.2384 14.8543L61.233 14.3091L60.2125 14.8293L60.4201 13.7038L59.6122 12.8959L60.7453 12.7459L61.2655 11.7254L61.7582 12.7584L62.8887 12.936Z"
        fill="#FF8C00" />
    <path
        d="M67.0717 40.2071C65.1537 42.1201 55.1138 39.892 42.9883 34.0531C30.8628 28.2141 21.9831 21.5025 23.1634 19.0494C24.3437 16.5963 34.6887 20.3622 47.2443 25.2009C60.7302 30.4122 70.6551 36.6287 67.0717 40.2071Z"
        fill="#263238" />
    <path
        d="M42.7603 16.6718C41.1349 16.5318 40.0372 17.9921 39.332 19.235C39.2709 19.3417 39.2362 19.4615 39.2305 19.5844C39.2249 19.7072 39.2486 19.8297 39.2997 19.9416C39.3508 20.0535 39.4277 20.1516 39.5242 20.2279C39.6207 20.3042 39.734 20.3564 39.8546 20.3802C43.403 21.0929 50.9098 23.441 55.4035 27.1669C55.4934 27.2433 55.5997 27.2981 55.7141 27.3272C55.8284 27.3563 55.948 27.3588 56.0635 27.3347C56.179 27.3106 56.2875 27.2604 56.3807 27.188C56.4739 27.1156 56.5493 27.0228 56.6013 26.9169C57.1435 25.7022 57.6152 24.4574 58.0141 23.1884C58.0657 23.0323 58.0667 22.8638 58.0168 22.7071C57.967 22.5503 57.8689 22.4134 57.7365 22.3157C54.0981 19.6101 48.5818 17.1769 42.7603 16.6718Z"
        fill="#263238" />
    <path
        d="M47.5415 23.4783C46.9344 23.5082 46.3269 23.4321 45.746 23.2533C43.5705 22.5731 42.5877 20.6126 43.5555 18.8697C44.5232 17.1268 47.0713 16.2616 49.2469 16.9417C49.7888 17.1026 50.2919 17.3733 50.7247 17.7369C48.7793 17.2043 46.5537 17.987 45.696 19.5374C44.8383 21.0878 45.666 22.8207 47.5415 23.4783Z"
        fill="white" />
    <path
        d="M38.8448 27.3015C35.561 27.4597 32.4056 28.6253 29.8076 30.6399C31.8597 31.3752 34.0691 31.558 36.2141 31.17L38.8448 27.3015Z"
        fill="#263238" />
    <path
        d="M83.1006 77.9238L73.6357 71.7997C76.759 82.1098 76.4464 88.2888 76.4464 88.2888C76.4464 88.2888 73.5907 86.0082 73.1306 89.3566L78.672 90.3318C78.672 90.3318 83.6257 82.5024 83.1006 77.9238Z"
        fill="#E66700" />
    <path
        d="M38.7597 77.5367L29.2573 68.8446C34.8887 81.2451 35.8064 88.707 35.8064 88.707C35.8064 88.707 32.5556 86.9565 32.7632 90.3324H38.3896C38.3896 90.3324 40.1775 81.9553 38.7597 77.5367Z"
        fill="#E66700" />
    <path
        d="M106.644 42.6457C96.4838 37.5294 93.253 52.3981 84.6859 53.8985L85.7012 55.2663C91.125 54.6762 93.243 50.9053 97.094 47.3844C100.945 43.8635 107.199 43.8035 109.755 50.6177C113.913 61.6979 108.944 70.6851 102.935 72.8282C97.9067 74.6211 99.1845 77.9144 102.398 77.6844C115.596 76.7416 118.529 48.6347 106.644 42.6457Z"
        fill="url(#paint0_linear_927_10525)" />
    <path
        d="M29.9476 38.3346C24.7964 60.2475 26.9919 76.6616 42.9308 82.2304C58.8698 87.7993 81.3428 89.6623 89.5223 80.4925C97.7019 71.3228 97.2467 48.0745 71.4179 50.8852C45.589 53.6959 55.9466 37.9595 50.0751 30.6702C44.6688 23.9436 33.2335 24.3487 29.9476 38.3346Z"
        fill="url(#paint1_linear_927_10525)" />
    <path opacity="0.1"
        d="M37.0948 37.557C37.0647 37.9096 36.5195 38.1497 35.8767 38.0947C35.2339 38.0397 34.7412 37.7095 34.7712 37.3444C34.8012 36.9792 35.3465 36.7516 35.9868 36.8066C36.627 36.8617 37.1248 37.2043 37.0948 37.557Z"
        fill="white" />
    <path opacity="0.1"
        d="M90.7249 56.6761C87.3016 52.4775 81.1701 49.8294 71.4277 50.8897C56.8866 52.4725 53.8133 48.1765 52.8606 42.8177C46.1514 45.1357 50.2649 60.1019 66.2889 65.6883C76.5189 69.2492 93.7432 63.4127 90.7249 56.6761Z"
        fill="black" />
    <path
        d="M46.7617 80.4947L38.8472 77.5365C43.8485 85.5385 43.7459 88.7068 43.7459 88.7068C43.7459 88.7068 40.2751 86.9563 40.9077 90.3322H46.5341C46.5341 90.3322 48.3821 84.4957 46.7617 80.4947Z"
        fill="#FF7300" />
    <path
        d="M94.1504 69.107L82.5025 77.5366C85.9309 84.2882 85.1357 88.7068 85.1357 88.7068C85.1357 88.7068 82.1174 86.9564 81.8849 90.3322H87.5113C87.5113 90.3322 93.0226 80.7699 94.1504 69.107Z"
        fill="#FF7300" />
    <path
        d="M35.2586 31.6756C37.0941 31.2205 39.0246 31.8407 39.2746 32.5083C39.5247 33.176 37.6092 33.9662 36.524 33.9662C35.4387 33.9662 33.9133 32.0082 35.2586 31.6756Z"
        fill="#263238" />
    <path
        d="M39.4375 36.9443C38.2222 36.9443 37.122 36.6642 36.5268 36.0216C36.1042 35.569 35.7766 34.7238 36.5393 33.2709C36.5467 33.2563 36.5569 33.2433 36.5694 33.2327C36.5819 33.2222 36.5964 33.2142 36.612 33.2093C36.6276 33.2044 36.6441 33.2027 36.6603 33.2042C36.6766 33.2058 36.6925 33.2106 36.7069 33.2184C36.7215 33.226 36.7346 33.2365 36.7452 33.2492C36.7558 33.2619 36.7638 33.2766 36.7686 33.2924C36.7735 33.3082 36.7752 33.3249 36.7736 33.3414C36.772 33.3578 36.7672 33.3738 36.7594 33.3884C36.1942 34.4412 36.1767 35.2664 36.7094 35.839C37.7896 37.0043 40.8629 36.8668 42.8909 35.9666C42.9058 35.9595 42.9219 35.9555 42.9384 35.9549C42.9549 35.9542 42.9713 35.9569 42.9867 35.9627C43.0021 35.9686 43.0162 35.9775 43.0281 35.9888C43.04 36.0002 43.0494 36.0139 43.0559 36.0291C43.0694 36.0593 43.0705 36.0936 43.0588 36.1245C43.047 36.1554 43.0235 36.1805 42.9934 36.1941C41.8703 36.6797 40.6611 36.9349 39.4375 36.9443Z"
        fill="#263238" />
    <path
        d="M34.1633 36.3866C33.7455 36.4097 33.331 36.3013 32.9781 36.0765C32.8426 35.985 32.7298 35.8638 32.6483 35.7221C32.5668 35.5804 32.5188 35.4219 32.5079 35.2588C32.5079 35.2257 32.5211 35.1939 32.5446 35.1704C32.568 35.147 32.5998 35.1338 32.633 35.1338C32.6493 35.1335 32.6655 35.1364 32.6806 35.1424C32.6958 35.1484 32.7096 35.1574 32.7212 35.1688C32.7329 35.1802 32.7421 35.1938 32.7484 35.2088C32.7547 35.2239 32.758 35.24 32.758 35.2563C32.7684 35.3814 32.8072 35.5024 32.8713 35.6103C32.9354 35.7181 33.0232 35.81 33.1281 35.879C33.5357 36.164 34.4384 36.3566 36.4464 35.6589C36.4776 35.6485 36.5116 35.6509 36.5411 35.6654C36.5706 35.6799 36.5931 35.7054 36.6039 35.7364C36.6152 35.7676 36.6136 35.802 36.5996 35.832C36.5855 35.862 36.5601 35.8852 36.5289 35.8965C35.7718 36.1856 34.973 36.351 34.1633 36.3866Z"
        fill="#263238" />
    <path
        d="M41.5357 30.6568C41.5969 30.1897 41.3678 29.7746 41.024 29.7296C40.6802 29.6846 40.3519 30.0267 40.2908 30.4938C40.2296 30.9608 40.4587 31.3759 40.8025 31.421C41.1463 31.466 41.4746 31.1238 41.5357 30.6568Z"
        fill="white" />
    <path
        d="M36.302 30.3427C36.2745 30.8129 35.9693 31.1931 35.6217 31.1906C35.274 31.1881 35.0139 30.8104 35.0414 30.3402C35.0689 29.87 35.3766 29.4923 35.7242 29.4923C36.0719 29.4923 36.3295 29.875 36.302 30.3427Z"
        fill="white" />
    <path opacity="0.1"
        d="M62.4077 80.2349C63.1254 73.1957 82.08 69.5823 81.88 76.584C81.6799 83.5858 61.72 86.9591 62.4077 80.2349Z"
        fill="black" />
    <path opacity="0.2"
        d="M106.849 71.1249C106.622 71.0766 106.389 71.0777 106.163 71.1282C105.937 71.1787 105.725 71.2774 105.541 71.4175C104.747 72.0143 103.869 72.4897 102.935 72.8278C97.9065 74.6208 99.1843 77.9141 102.398 77.684C105.128 77.489 107.421 76.1311 109.232 74.0456C109.354 72.3927 108.349 71.47 106.849 71.1249Z"
        fill="black" />
    <path opacity="0.1"
        d="M57.0642 71.695C56.8791 69.3365 60.8159 69.7066 60.6633 71.2723C60.4807 73.2507 57.1817 73.2082 57.0642 71.695Z"
        fill="black" />
    <path opacity="0.1"
        d="M30.8354 61.1925C30.6503 58.8339 34.5871 59.2041 34.4346 60.7698C34.2595 62.7482 30.953 62.7057 30.8354 61.1925Z"
        fill="black" />
    <path
        d="M23.0332 35.7165C23.0107 35.7169 22.9885 35.711 22.969 35.6995C22.9496 35.688 22.9338 35.6714 22.9232 35.6515C22.9078 35.6222 22.9045 35.5881 22.9138 35.5564C22.9231 35.5247 22.9444 35.4978 22.9732 35.4815C27.2242 33.1584 33.6208 33.5735 33.6833 33.5785C33.7163 33.5811 33.7469 33.5963 33.7689 33.621C33.7908 33.6458 33.8023 33.678 33.8009 33.711C33.7999 33.7277 33.7956 33.744 33.7883 33.759C33.781 33.774 33.7707 33.7873 33.7581 33.7983C33.7455 33.8092 33.7309 33.8175 33.715 33.8228C33.6992 33.828 33.6825 33.8299 33.6658 33.8286C33.6033 33.8286 27.2893 33.4135 23.0932 35.7015C23.0747 35.7112 23.0541 35.7163 23.0332 35.7165Z"
        fill="#263238" />
    <path
        d="M25.6737 37.3016C25.6544 37.3014 25.6353 37.2968 25.618 37.2881C25.6006 37.2795 25.5855 37.267 25.5737 37.2516C25.5535 37.2254 25.5446 37.1922 25.5488 37.1594C25.553 37.1266 25.5701 37.0968 25.5962 37.0765C28.5645 34.776 32.9955 34.3084 33.0406 34.3059C33.0737 34.3025 33.1068 34.3125 33.1326 34.3336C33.1584 34.3547 33.1748 34.3852 33.1781 34.4184C33.1814 34.4515 33.1714 34.4847 33.1503 34.5105C33.1292 34.5363 33.0987 34.5526 33.0656 34.5559C33.0206 34.5559 28.6595 35.021 25.7488 37.2766C25.7271 37.2928 25.7008 37.3016 25.6737 37.3016Z"
        fill="#263238" />
    <path
        d="M50.795 35.7161C50.7741 35.7159 50.7535 35.7108 50.735 35.7011C46.5364 33.4131 40.2324 33.8232 40.1623 33.8282C40.1459 33.8293 40.1294 33.8272 40.1138 33.822C40.0982 33.8168 40.0838 33.8085 40.0714 33.7977C40.0463 33.7759 40.0309 33.745 40.0286 33.7119C40.0262 33.6787 40.0372 33.646 40.059 33.6209C40.0808 33.5958 40.1117 33.5804 40.1448 33.5781C40.2099 33.5781 46.5939 33.158 50.855 35.4811C50.8837 35.4974 50.905 35.5243 50.9144 35.556C50.9237 35.5877 50.9203 35.6218 50.905 35.6511C50.8944 35.671 50.8785 35.6876 50.8591 35.6991C50.8397 35.7106 50.8175 35.7165 50.795 35.7161Z"
        fill="#263238" />
    <path
        d="M48.157 37.3017C48.1288 37.3013 48.1016 37.2917 48.0795 37.2742C45.1713 35.0236 40.8077 34.5585 40.7652 34.5535C40.7487 34.5519 40.7328 34.5471 40.7182 34.5394C40.7036 34.5316 40.6907 34.521 40.6802 34.5082C40.6698 34.4954 40.6619 34.4807 40.6572 34.4649C40.6525 34.449 40.6509 34.4324 40.6527 34.416C40.6564 34.3832 40.673 34.3532 40.6988 34.3326C40.7245 34.312 40.7574 34.3024 40.7902 34.3059C40.8327 34.3059 45.2663 34.7761 48.232 37.0766C48.2582 37.0969 48.2752 37.1267 48.2794 37.1595C48.2837 37.1923 48.2747 37.2255 48.2545 37.2517C48.2431 37.2669 48.2284 37.2793 48.2115 37.2879C48.1946 37.2966 48.176 37.3013 48.157 37.3017Z"
        fill="#263238" />
    <path
        d="M41.3502 28.0065C42.5108 27.8664 44.4642 28.7168 44.0089 29.4421C43.5537 30.1675 39.6695 28.2141 41.3502 28.0065Z"
        fill="#263238" />
    <path
        d="M37.14 27.6592C35.9919 27.4291 33.981 28.1269 34.3887 28.8848C34.7964 29.6426 38.7982 27.9919 37.14 27.6592Z"
        fill="#263238" />
    <path
        d="M46.1991 28.0865C49.4579 28.5253 52.5025 29.9572 54.9187 32.1876C52.811 32.7456 50.5934 32.7379 48.4896 32.1651C46.6592 30.8772 45.829 29.5194 46.1991 28.0865Z"
        fill="#FF8C00" />
    <path opacity="0.3"
        d="M46.1991 28.0865C49.4579 28.5253 52.5025 29.9572 54.9187 32.1876C52.811 32.7456 50.5934 32.7379 48.4896 32.1651C46.6592 30.8772 45.829 29.5194 46.1991 28.0865Z"
        fill="black" />
    <defs>
        <linearGradient id="paint0_linear_927_10525" x1="99.4021" y1="41.579" x2="99.4021"
            y2="77.6958" gradientUnits="userSpaceOnUse">
            <stop stop-color="#EE575C" />
            <stop offset="1" stop-color="#F67147" />
        </linearGradient>
        <linearGradient id="paint1_linear_927_10525" x1="60.8429" y1="26.4342" x2="60.8429"
            y2="86.8886" gradientUnits="userSpaceOnUse">
            <stop stop-color="#EE575C" />
            <stop offset="1" stop-color="#F67147" />
        </linearGradient>
    </defs>
</svg>
