<!--
 * Copyright (c) 2023, WSO2 LLC. (https://www.wso2.com). All Rights Reserved.
 *
 * WSO2 LLC. licenses this file to you under the Apache License,
 * Version 2.0 (the "License"); you may not use this file except
 * in compliance with the License.
 * You may obtain a copy of the License at
 *
 *     http://www.apache.org/licenses/LICENSE-2.0
 *
 * Unless required by applicable law or agreed to in writing,
 * software distributed under the License is distributed on an
 * "AS IS" BASIS, WITHOUT WARRANTIES OR CONDITIONS OF ANY
 * KIND, either express or implied. See the License for the
 * specific language governing permissions and limitations
 * under the License.
-->

<svg id="selfcare-account-security" class="icon" width="82" height="87" viewBox="0 0 82 87"
    fill="none" xmlns="http://www.w3.org/2000/svg">
    <g id="change-password-illustration">
        <g id="padlock">
            <path id="padlock-head"
                d="M15.3425 21.684C15.3274 19.6553 15.7124 17.6436 16.4755 15.7639C17.2386 13.8841 18.3649 12.1733 19.7898 10.7293C21.2148 9.28532 22.9105 8.13645 24.7799 7.34844C26.6494 6.56044 28.6558 6.14878 30.6845 6.137C32.6835 6.13831 34.6623 6.53679 36.5061 7.3093C38.3498 8.0818 40.0216 9.21294 41.4245 10.637C44.3442 13.5756 45.9957 17.5416 46.0245 21.684V32.219H52.1615V21.684C52.1478 15.9349 49.8692 10.4227 45.8195 6.342C43.8446 4.33239 41.489 2.73651 38.8904 1.64759C36.2917 0.558682 33.5021 -0.00142392 30.6845 2.71847e-06C24.9605 0.0275217 19.4817 2.32733 15.4531 6.39368C11.4244 10.46 9.17573 15.96 9.20151 21.684V32.219H15.3385L15.3425 21.684Z"
                fill="#19BECE" class="fill-accent2"></path>
            <path id="padlock-body"
                d="M58.3025 31.503H3.06849C2.66358 31.4957 2.26135 31.57 1.88582 31.7216C1.51028 31.8732 1.16915 32.0989 0.882786 32.3853C0.596424 32.6717 0.37071 33.0128 0.219121 33.3883C0.0675314 33.7639 -0.00682927 34.1661 0.000492647 34.571V75.489C0.0120157 76.1438 0.224158 76.7793 0.608273 77.3097C0.992388 77.84 1.52998 78.2398 2.1485 78.455L29.7645 86.638C30.3706 86.7742 30.9994 86.7742 31.6055 86.638L59.2215 78.455C59.8586 78.2702 60.4158 77.8781 60.8049 77.3409C61.1939 76.8036 61.3926 76.1519 61.3695 75.489V34.571C61.377 34.1661 61.3027 33.7639 61.1512 33.3884C60.9998 33.0129 60.7741 32.6717 60.4879 32.3854C60.2016 32.099 59.8605 31.8732 59.485 31.7216C59.1095 31.57 58.7074 31.4957 58.3025 31.503Z"
                fill="#FF7300" class="fill-primary"></path>
            <rect id="keyhole" x="28" y="50" width="6" height="16" rx="3" fill="white"
                class="fill-accent3"></rect>
        </g>
        <g id="cogwheel">
            <path id="cogwheel-outer"
                d="M81.7405 69.6152V62.1253C81.7406 61.8738 81.6912 61.6248 81.595 61.3925C81.4988 61.1601 81.3578 60.949 81.18 60.7712C81.0022 60.5933 80.7911 60.4523 80.5588 60.356C80.3265 60.2598 80.0775 60.2102 79.826 60.2102H79.2347C78.8537 60.209 78.4817 60.0946 78.1657 59.8816C77.8498 59.6686 77.6043 59.3665 77.4602 59.0138L77.4503 58.9901C77.3021 58.6386 77.2617 58.2509 77.3343 57.8763C77.4069 57.5018 77.5892 57.1573 77.8581 56.8866L78.2764 56.4683C78.4541 56.2905 78.5952 56.0795 78.6914 55.8472C78.7876 55.6149 78.8371 55.366 78.8371 55.1145C78.8371 54.8631 78.7876 54.6142 78.6914 54.3819C78.5952 54.1496 78.4541 53.9385 78.2764 53.7608L72.9792 48.4647C72.8015 48.287 72.5904 48.1459 72.3581 48.0497C72.1258 47.9535 71.8769 47.904 71.6255 47.904C71.374 47.904 71.1251 47.9535 70.8928 48.0497C70.6605 48.1459 70.4495 48.287 70.2717 48.4647L69.8534 48.883C69.5827 49.1519 69.2382 49.3342 68.8637 49.4068C68.4891 49.4794 68.1014 49.439 67.7499 49.2908L67.7262 49.2809C67.3735 49.1368 67.0714 48.8913 66.8584 48.5754C66.6454 48.2594 66.531 47.8874 66.5298 47.5064V46.9145C66.5298 46.4067 66.328 45.9198 65.969 45.5607C65.61 45.2017 65.123 45 64.6152 45H57.1248C56.617 45 56.13 45.2017 55.771 45.5607C55.412 45.9198 55.2102 46.4067 55.2102 46.9145V47.5058C55.2092 47.8865 55.0952 48.2584 54.8827 48.5742C54.6702 48.8901 54.3688 49.1359 54.0166 49.2804L53.9929 49.2903C53.6413 49.4385 53.2536 49.4788 52.8791 49.4062C52.5046 49.3336 52.1601 49.1513 51.8893 48.8825L51.4711 48.4642C51.2933 48.2864 51.0822 48.1454 50.8499 48.0492C50.6177 47.953 50.3687 47.9034 50.1173 47.9034C49.8659 47.9034 49.6169 47.953 49.3846 48.0492C49.1524 48.1454 48.9413 48.2864 48.7635 48.4642L43.4647 53.7624C43.287 53.9402 43.1459 54.1513 43.0497 54.3835C42.9535 54.6158 42.904 54.8648 42.904 55.1162C42.904 55.3676 42.9535 55.6166 43.0497 55.8488C43.1459 56.0811 43.287 56.2922 43.4647 56.47L43.883 56.8882C44.1519 57.1589 44.3342 57.5035 44.4068 57.878C44.4794 58.2525 44.439 58.6402 44.2908 58.9918L44.2809 59.0155C44.1368 59.3682 43.8913 59.6702 43.5754 59.8832C43.2594 60.0962 42.8874 60.2106 42.5064 60.2119H41.9145C41.4067 60.2119 40.9198 60.4136 40.5607 60.7726C40.2017 61.1317 40 61.6186 40 62.1264V69.6152C40 70.123 40.2017 70.61 40.5607 70.969C40.9198 71.328 41.4067 71.5298 41.9145 71.5298H42.5058C42.8868 71.531 43.2589 71.6454 43.5748 71.8584C43.8907 72.0714 44.1363 72.3735 44.2804 72.7262L44.2903 72.7499C44.4385 73.1014 44.4788 73.4891 44.4062 73.8637C44.3336 74.2382 44.1513 74.5827 43.8825 74.8534L43.4642 75.2717C43.2864 75.4495 43.1454 75.6605 43.0492 75.8928C42.953 76.1251 42.9034 76.374 42.9034 76.6255C42.9034 76.8769 42.953 77.1258 43.0492 77.3581C43.1454 77.5904 43.2864 77.8014 43.4642 77.9792L48.7608 83.2758C48.9385 83.4536 49.1496 83.5946 49.3819 83.6908C49.6142 83.787 49.8631 83.8366 50.1145 83.8366C50.366 83.8366 50.6149 83.787 50.8472 83.6908C51.0795 83.5946 51.2905 83.4536 51.4683 83.2758L51.8866 82.8575C52.1573 82.5887 52.5018 82.4064 52.8763 82.3338C53.2509 82.2612 53.6386 82.3015 53.9901 82.4497L54.0138 82.4596C54.3665 82.6037 54.6686 82.8493 54.8816 83.1652C55.0946 83.4811 55.209 83.8532 55.2102 84.2342V84.8255C55.2102 85.3333 55.412 85.8202 55.771 86.1793C56.13 86.5383 56.617 86.74 57.1248 86.74H64.6152C65.123 86.74 65.61 86.5383 65.969 86.1793C66.328 85.8202 66.5298 85.3333 66.5298 84.8255V84.2347C66.531 83.8537 66.6454 83.4817 66.8584 83.1657C67.0714 82.8498 67.3735 82.6043 67.7262 82.4602L67.7499 82.4503C68.1014 82.3021 68.4891 82.2617 68.8637 82.3343C69.2382 82.4069 69.5827 82.5892 69.8534 82.8581L70.2717 83.2764C70.4495 83.4541 70.6605 83.5952 70.8928 83.6914C71.1251 83.7876 71.374 83.8371 71.6255 83.8371C71.8769 83.8371 72.1258 83.7876 72.3581 83.6914C72.5904 83.5952 72.8015 83.4541 72.9792 83.2764L78.2758 77.9798C78.4536 77.802 78.5946 77.5909 78.6908 77.3587C78.787 77.1264 78.8366 76.8774 78.8366 76.626C78.8366 76.3746 78.787 76.1256 78.6908 75.8934C78.5946 75.6611 78.4536 75.45 78.2758 75.2722L77.8575 74.854C77.5887 74.5833 77.4064 74.2387 77.3338 73.8642C77.2612 73.4897 77.3015 73.102 77.4497 72.7504L77.4596 72.7267C77.6037 72.374 77.8493 72.072 78.1652 71.859C78.4811 71.646 78.8532 71.5316 79.2342 71.5303H79.8255C80.3333 71.5303 80.8202 71.3286 81.1793 70.9696C81.5383 70.6105 81.74 70.1236 81.74 69.6158L81.7405 69.6152Z"
                fill="#4CCBD7" class="fill-accent2 lighten-1"></path>
            <path id="cogwheel-middle"
                d="M60.8699 80.4007C68.8947 80.4007 75.4001 73.8954 75.4001 65.8706C75.4001 57.8458 68.8947 51.3404 60.8699 51.3404C52.8451 51.3404 46.3397 57.8458 46.3397 65.8706C46.3397 73.8954 52.8451 80.4007 60.8699 80.4007Z"
                fill="#19BECE" class="fill-accent2"></path>
            <g id="asterisk">
                <path id="1"
                    d="M66.7077 67.9704L63.8789 66.334L66.7077 64.6976C66.7733 64.6599 66.8307 64.6096 66.8768 64.5496C66.9229 64.4896 66.9567 64.4211 66.9762 64.348C66.9958 64.2749 67.0007 64.1987 66.9908 64.1237C66.9808 64.0488 66.9562 63.9765 66.9183 63.911L66.0542 62.4143C65.9769 62.283 65.8507 62.1877 65.7033 62.1493C65.5559 62.1109 65.3992 62.1324 65.2677 62.2092L62.4388 63.8456V60.576C62.4388 60.5004 62.4239 60.4255 62.395 60.3556C62.3661 60.2857 62.3236 60.2222 62.2701 60.1687C62.2166 60.1152 62.1531 60.0728 62.0833 60.0438C62.0134 60.0149 61.9385 60 61.8628 60H60.1348C59.982 60 59.8355 60.0607 59.7275 60.1687C59.6194 60.2767 59.5588 60.4232 59.5588 60.576V63.8423L56.7299 62.2059C56.5977 62.1296 56.4406 62.1089 56.2931 62.1484C56.1456 62.1878 56.0198 62.2843 55.9434 62.4164L55.0783 63.9165C55.0403 63.9819 55.0157 64.0542 55.0057 64.1292C54.9958 64.2042 55.0007 64.2804 55.0203 64.3535C55.0398 64.4265 55.0736 64.495 55.1197 64.555C55.1658 64.615 55.2232 64.6653 55.2888 64.7031L58.1176 66.3395L55.2888 67.9759C55.2232 68.0136 55.1658 68.0639 55.1197 68.1239C55.0736 68.1839 55.0398 68.2524 55.0203 68.3255C55.0007 68.3985 54.9958 68.4748 55.0057 68.5497C55.0157 68.6247 55.0403 68.697 55.0783 68.7625L55.9434 70.2549C56.0198 70.387 56.1456 70.4835 56.2931 70.523C56.4406 70.5624 56.5977 70.5417 56.7299 70.4654L59.5588 68.8366V72.0986C59.5588 72.1742 59.5737 72.2491 59.6026 72.319C59.6316 72.3889 59.674 72.4524 59.7275 72.5059C59.781 72.5594 59.8445 72.6018 59.9143 72.6307C59.9842 72.6597 60.0591 72.6746 60.1348 72.6746H61.8628C61.9385 72.6746 62.0134 72.6597 62.0833 72.6307C62.1531 72.6018 62.2166 72.5594 62.2701 72.5059C62.3236 72.4524 62.3661 72.3889 62.395 72.319C62.4239 72.2491 62.4388 72.1742 62.4388 72.0986V68.8366L65.2677 70.4654C65.3999 70.5417 65.557 70.5624 65.7045 70.523C65.852 70.4835 65.9778 70.387 66.0542 70.2549L66.9183 68.7581C66.9562 68.6927 66.9808 68.6204 66.9908 68.5454C67.0007 68.4704 66.9958 68.3942 66.9762 68.3211C66.9567 68.248 66.9229 68.1795 66.8768 68.1196C66.8307 68.0596 66.7733 68.0093 66.7077 67.9715V67.9704Z"
                    fill="#EFEFEF" class="fill-accent3"></path>
                <path id="2" fill-rule="evenodd" clip-rule="evenodd"
                    d="M61.001 66.3375V60.0012H61.865C62.0174 60.0015 62.1631 60.062 62.2709 60.1698C62.3787 60.2776 62.44 60.4238 62.4403 60.5762V63.8413L65.2678 62.2049C65.3566 62.1555 65.456 62.1291 65.5576 62.1285C65.6583 62.1287 65.7578 62.1553 65.8452 62.2055C65.9327 62.2556 66.005 62.3274 66.0562 62.4143L66.46 63.1137L61.0052 66.3309L61.001 66.3375ZM61.8662 72.6823H61.0597L61.0022 66.3471L66.4878 69.511L66.0574 70.2592C66.0057 70.3463 65.9323 70.4187 65.8443 70.469C65.7564 70.5193 65.6569 70.5459 65.5556 70.5463C65.4549 70.5465 65.3563 70.5201 65.269 70.4698L62.4426 68.8387V72.1007C62.4419 72.2018 62.4157 72.3013 62.3669 72.3899C62.3163 72.4781 62.2438 72.5514 62.156 72.6027C62.0681 72.654 61.9679 72.6816 61.8662 72.6823ZM55.0761 68.7417L55.5076 69.4858L55.5119 69.4717L60.9964 66.3078L55.481 63.19L55.0782 63.8881C55.0278 63.9755 55.0015 64.0748 55.0015 64.1757C55.0015 64.2767 55.0278 64.3757 55.0782 64.4631C55.1271 64.5538 55.2003 64.6292 55.2892 64.6813L58.1156 66.3177L55.286 67.9541C55.1544 68.0313 55.0589 68.1574 55.0197 68.3049C54.9804 68.4523 55.0002 68.6093 55.0761 68.7417Z"
                    fill="white" class="accent3 darken-1"></path>
            </g>
        </g>
    </g>
</svg>
