<!--
 * Copyright (c) 2023, WSO2 LLC. (https://www.wso2.com). All Rights Reserved.
 *
 * WSO2 LLC. licenses this file to you under the Apache License,
 * Version 2.0 (the "License"); you may not use this file except
 * in compliance with the License.
 * You may obtain a copy of the License at
 *
 *     http://www.apache.org/licenses/LICENSE-2.0
 *
 * Unless required by applicable law or agreed to in writing,
 * software distributed under the License is distributed on an
 * "AS IS" BASIS, WITHOUT WARRANTIES OR CONDITIONS OF ANY
 * KIND, either express or implied. See the License for the
 * specific language governing permissions and limitations
 * under the License.
-->

<svg id="selfcare-account-security" class="icon" width="62" height="87" viewBox="0 0 62 87"
    fill="none" xmlns="http://www.w3.org/2000/svg">
    <g id="security-illustration">
        <g id="padlock">
            <path id="padlock-head"
                d="M15.3425 21.684C15.3274 19.6553 15.7124 17.6436 16.4755 15.7639C17.2386 13.8841 18.3649 12.1733 19.7898 10.7293C21.2148 9.28532 22.9105 8.13645 24.7799 7.34844C26.6494 6.56044 28.6558 6.14878 30.6845 6.137C32.6835 6.13831 34.6623 6.53679 36.5061 7.3093C38.3498 8.0818 40.0216 9.21294 41.4245 10.637C44.3442 13.5756 45.9957 17.5416 46.0245 21.684V32.219H52.1615V21.684C52.1478 15.9349 49.8692 10.4227 45.8195 6.342C43.8446 4.33239 41.489 2.73651 38.8904 1.64759C36.2917 0.558682 33.5021 -0.00142392 30.6845 2.71847e-06C24.9605 0.0275217 19.4817 2.32733 15.4531 6.39368C11.4244 10.46 9.17573 15.96 9.20151 21.684V32.219H15.3385L15.3425 21.684Z"
                fill="#19BECE" class="fill-accent2"></path>
            <path id="padlock-body"
                d="M58.3025 31.503H3.06849C2.66358 31.4957 2.26135 31.57 1.88582 31.7216C1.51028 31.8732 1.16915 32.0989 0.882786 32.3853C0.596424 32.6717 0.37071 33.0128 0.219121 33.3883C0.0675314 33.7639 -0.00682927 34.1661 0.000492647 34.571V75.489C0.0120157 76.1438 0.224158 76.7793 0.608273 77.3097C0.992388 77.84 1.52998 78.2398 2.1485 78.455L29.7645 86.638C30.3706 86.7742 30.9994 86.7742 31.6055 86.638L59.2215 78.455C59.8586 78.2702 60.4158 77.8781 60.8049 77.3409C61.1939 76.8036 61.3926 76.1519 61.3695 75.489V34.571C61.377 34.1661 61.3027 33.7639 61.1512 33.3884C60.9998 33.0129 60.7741 32.6717 60.4879 32.3854C60.2016 32.099 59.8605 31.8732 59.485 31.7216C59.1095 31.57 58.7074 31.4957 58.3025 31.503Z"
                fill="#FF7300" class="fill-primary"></path>
        </g>
        <g id="user-section">
            <path id="circle-outer"
                d="M30.7995 77.844C41.8452 77.844 50.7995 68.8897 50.7995 57.844C50.7995 46.7983 41.8452 37.844 30.7995 37.844C19.7538 37.844 10.7995 46.7983 10.7995 57.844C10.7995 68.8897 19.7538 77.844 30.7995 77.844Z"
                fill="#FFA45A" class="fill-primary lighten-2"></path>
            <path id="circle-inner"
                d="M31.0024 75.3307C40.9435 75.3307 49.0024 67.4216 49.0024 57.6653C49.0024 47.909 40.9435 40 31.0024 40C21.0613 40 13.0024 47.909 13.0024 57.6653C13.0024 67.4216 21.0613 75.3307 31.0024 75.3307Z"
                fill="#FF8826" class="fill-primary lighten-1"></path>
            <g id="user">
                <path id="user-body"
                    d="M18.1375 70.4433C18.2462 70.2607 18.3595 70.0792 18.4775 69.8986C19.7888 67.9058 21.589 66.268 23.7129 65.1353C25.8367 64.0027 28.2164 63.4116 30.6336 63.4161C33.0507 63.4205 35.4281 64.0206 37.5476 65.1611C39.6671 66.3016 41.4609 67.9461 42.7645 69.9437C42.9645 70.2453 43.1492 70.5532 43.3185 70.8672C41.71 72.4939 39.7846 73.7866 37.6568 74.6683C35.529 75.5501 33.2422 76.003 30.9325 76C28.5225 76.0032 26.1385 75.5103 23.9346 74.5532C21.7307 73.5961 19.7558 72.196 18.1375 70.4433Z"
                    fill="white" class="fill-accent3"></path>
                <path id="user-head"
                    d="M30.6056 63.0493C34.798 63.0493 38.1966 59.7201 38.1966 55.6132C38.1966 51.5064 34.798 48.1771 30.6056 48.1771C26.4132 48.1771 23.0146 51.5064 23.0146 55.6132C23.0146 59.7201 26.4132 63.0493 30.6056 63.0493Z"
                    fill="white" class="fill-accent3"></path>
                <path id="user-body-shadow"
                    d="M36.3626 74.624C35.8069 72.2986 34.7448 70.1188 33.2492 68.2344C31.7536 66.35 29.86 64.8058 27.6986 63.7079C30.2866 63.1909 32.9692 63.3751 35.4586 64.2408C36.9607 64.7662 38.3632 65.5333 39.6086 66.5108C40.8452 67.4784 41.9114 68.6388 42.7646 69.9457C42.9486 70.2273 43.1246 70.5198 43.2886 70.8142C42.2904 71.6718 41.2047 72.426 40.0486 73.0646C38.8788 73.71 37.644 74.2327 36.3626 74.624Z"
                    fill="#E0E1E2" class="fill-accent3 darken-1"></path>
                <path id="user-head-shadow"
                    d="M30.6006 63.0493C29.5322 63.0513 28.4756 62.8305 27.5006 62.4016C28.611 62.6477 29.7634 62.6458 30.873 62.3962C31.9825 62.1466 33.0207 61.6555 33.9109 60.9593C34.8011 60.2631 35.5207 59.3796 36.0163 58.3739C36.512 57.3682 36.7711 56.2661 36.7746 55.149C36.7726 53.7137 36.3481 52.3094 35.5523 51.1052C34.7565 49.9009 33.6232 48.9478 32.2886 48.3606C33.9671 48.7304 35.4672 49.6502 36.5418 50.9685C37.6164 52.2868 38.2015 53.925 38.2006 55.6132C38.2014 56.6078 37.9973 57.5922 37.6006 58.5074C37.0185 59.8563 36.0438 61.0067 34.7987 61.8146C33.5536 62.6225 32.0933 63.052 30.6006 63.0493Z"
                    fill="#E0E1E2" class="fill-accent3 darken-1"></path>
            </g>
        </g>
    </g>
</svg>
