<!--
 * Copyright (c) 2021-2024, WSO2 LLC. (https://www.wso2.com).
 *
 * WSO2 LLC. licenses this file to you under the Apache License,
 * Version 2.0 (the "License"); you may not use this file except
 * in compliance with the License.
 * You may obtain a copy of the License at
 *
 *     http://www.apache.org/licenses/LICENSE-2.0
 *
 * Unless required by applicable law or agreed to in writing,
 * software distributed under the License is distributed on an
 * "AS IS" BASIS, WITHOUT WARRANTIES OR CONDITIONS OF ANY
 * KIND, either express or implied. See the License for the
 * specific language governing permissions and limitations
 * under the License.
-->

<svg id="setup-social-connections" class="icon" width="183" height="170" viewBox="0 0 183 170"
    fill="none" xmlns="http://www.w3.org/2000/svg">
    <path
        d="M99.3363 8.13765C54.7247 8.13765 18.56 44.292 18.56 88.8908C18.56 133.489 54.7247 169.644 99.3363 169.644C143.948 169.644 180.113 133.489 180.113 88.8908C180.113 44.292 143.948 8.13765 99.3363 8.13765Z"
        fill="#F0F0F0" />
    <path
        d="M135.208 77C123.994 77 114.903 86.1001 114.903 97.3256C114.903 108.551 123.994 117.651 135.208 117.651C146.422 117.651 155.513 108.551 155.513 97.3256C155.513 86.1001 146.422 77 135.208 77Z"
        fill="url(#paint0_linear_927_10425)" />
    <path
        d="M133.573 107H137.456C137.703 107 137.903 106.8 137.903 106.552V88.3181C137.903 88.0709 137.703 87.8706 137.456 87.8706H133.573C133.326 87.8706 133.125 88.0709 133.125 88.3181V106.552C133.125 106.8 133.326 107 133.573 107Z"
        fill="white" />
    <path
        d="M144.903 99.3348V95.4476C144.903 95.2004 144.703 95 144.456 95H126.24C125.993 95 125.793 95.2004 125.793 95.4476V99.3348C125.793 99.582 125.993 99.7824 126.24 99.7824H144.456C144.703 99.7824 144.903 99.582 144.903 99.3348Z"
        fill="white" />
    <path
        d="M160.274 148.342L159.352 151.789L155.981 151.86C154.961 149.959 154.419 147.838 154.402 145.68C154.385 143.522 154.893 141.393 155.882 139.476L158.885 140.023L160.199 143.013C159.608 144.744 159.634 146.628 160.273 148.342H160.274Z"
        fill="#FBBB00" />
    <path
        d="M180.669 143.098C181.119 145.463 180.917 147.905 180.085 150.164C179.253 152.422 177.822 154.411 175.946 155.918L172.166 155.724L171.631 152.381C173.191 151.465 174.391 150.04 175.028 148.345H167.943V143.098H180.669Z"
        fill="#518EF8" />
    <path
        d="M175.944 155.917C174.427 157.134 172.662 158.003 170.773 158.462C168.884 158.92 166.917 158.957 165.012 158.57C163.107 158.183 161.311 157.381 159.75 156.221C158.189 155.062 156.902 153.572 155.981 151.859L160.274 148.342C160.677 149.418 161.311 150.392 162.129 151.198C162.948 152.003 163.932 152.619 165.014 153.004C166.095 153.388 167.248 153.531 168.39 153.424C169.533 153.316 170.638 152.96 171.629 152.38L175.944 155.917Z"
        fill="#28B446" />
    <path
        d="M176.107 135.365L171.815 138.883C170.809 138.257 169.676 137.865 168.498 137.737C167.321 137.609 166.129 137.749 165.013 138.146C163.897 138.543 162.885 139.186 162.051 140.029C161.218 140.871 160.585 141.891 160.2 143.012L155.883 139.473C156.793 137.714 158.086 136.181 159.666 134.988C161.246 133.794 163.073 132.97 165.013 132.576C166.953 132.182 168.957 132.228 170.876 132.711C172.796 133.194 174.584 134.101 176.107 135.365Z"
        fill="#F14336" />
    <path
        d="M123.414 13.0153C121.144 9.06621 117.881 5.78629 113.952 3.50435C109.995 1.17498 105.485 -0.0355972 100.9 0.000797053C96.3161 -0.0343153 91.8084 1.17621 87.8532 3.50435C83.9242 5.78618 80.6611 9.06613 78.3911 13.0153C76.0739 16.9912 74.8691 21.5228 74.9043 26.1305C74.8501 31.6569 76.5912 37.0502 79.8633 41.4919C83.0242 45.9326 87.5153 49.2408 92.6804 50.933C92.9087 51.0034 93.1504 51.0186 93.3857 50.9773C93.6209 50.936 93.8432 50.8394 94.0343 50.6953C94.1764 50.5671 94.2893 50.4095 94.3652 50.2334C94.4411 50.0572 94.4781 49.8666 94.4738 49.6747C94.4738 49.6064 94.4681 48.994 94.4567 47.8377C94.4453 46.6813 94.4395 45.6722 94.4395 44.8104L93.6606 44.9456C93.0393 45.0449 92.4101 45.0847 91.7814 45.0644C90.9921 45.0502 90.2053 44.9704 89.4291 44.8258C88.6028 44.673 87.825 44.3233 87.1609 43.8061C86.4645 43.2771 85.945 42.5474 85.6716 41.7142L85.3331 40.9313C85.0483 40.3122 84.6904 39.7298 84.2671 39.1967C83.8877 38.6524 83.3825 38.2088 82.795 37.904L82.5576 37.7334C82.3952 37.6156 82.2476 37.4786 82.118 37.3252C81.9931 37.1829 81.8905 37.0223 81.8138 36.8489C81.7458 36.6899 81.8021 36.5592 81.9826 36.457C82.2941 36.3314 82.63 36.2793 82.9647 36.3046L83.6416 36.4062C84.2468 36.5691 84.8156 36.8462 85.3178 37.2227C85.9891 37.6823 86.55 38.2867 86.9596 38.9917C87.4073 39.8417 88.0518 40.571 88.8388 41.1181C89.4887 41.5786 90.2607 41.8333 91.0557 41.8493C91.703 41.8581 92.3495 41.8013 92.9854 41.6797C93.5118 41.5712 94.0233 41.3997 94.509 41.1689C94.6209 39.8374 95.2101 38.5921 96.1671 37.6645C94.9968 37.5491 93.8369 37.3444 92.6975 37.0521C91.586 36.7449 90.5171 36.299 89.5158 35.7249C88.4655 35.1511 87.5378 34.3752 86.7854 33.4415C85.9802 32.3702 85.3777 31.1593 85.0082 29.869C84.52 28.2131 84.2859 26.492 84.3141 24.7652C84.258 22.167 85.2183 19.6505 86.9885 17.7563C86.1565 15.5016 86.2415 13.0084 87.225 10.8163C88.2192 10.6548 89.2387 10.8156 90.1359 11.2753C91.1101 11.6388 92.0552 12.0767 92.9629 12.5853C93.561 12.9482 94.0406 13.2545 94.4016 13.5043C98.6548 12.3256 103.146 12.3256 107.399 13.5043L108.685 12.6878C109.674 12.0906 110.717 11.5891 111.799 11.19C112.651 10.7746 113.612 10.6436 114.542 10.8163C115.04 11.8983 115.319 13.0683 115.366 14.2592C115.412 15.45 115.225 16.6385 114.813 17.7563C116.583 19.6506 117.544 22.1671 117.488 24.7652C117.515 26.4973 117.281 28.2236 116.794 29.8854C116.428 31.1805 115.82 32.3932 115 33.4579C114.236 34.379 113.306 35.1467 112.258 35.7204C111.256 36.2943 110.187 36.7401 109.075 37.0476C107.936 37.3403 106.776 37.5453 105.606 37.6609C106.779 38.6811 107.366 40.2914 107.366 42.4916V49.6702C107.361 49.8607 107.396 50.05 107.469 50.2258C107.542 50.4017 107.651 50.5601 107.789 50.6908C107.977 50.8354 108.196 50.9326 108.429 50.974C108.661 51.0153 108.9 50.9997 109.126 50.9285C114.291 49.2364 118.782 45.9282 121.943 41.4874C125.214 37.0464 126.955 31.6547 126.902 26.1296C126.936 21.5223 125.731 16.9913 123.414 13.0153Z"
        fill="black" />
    <path
        d="M179.054 37H157.496C156.544 37.0009 155.63 37.3801 154.957 38.0544C154.283 38.7287 153.904 39.6431 153.903 40.5967V62.1767C153.903 63.1309 154.282 64.0461 154.955 64.7211C155.629 65.3962 156.543 65.7759 157.496 65.7768H179.054C179.527 65.7768 179.994 65.6837 180.431 65.5027C180.867 65.3218 181.264 65.0566 181.598 64.7223C181.932 64.388 182.196 63.9912 182.377 63.5544C182.558 63.1176 182.651 62.6495 182.651 62.1767V40.5967C182.65 39.6425 182.271 38.7276 181.596 38.0532C180.922 37.3788 180.008 37 179.054 37V37Z"
        fill="#1976D2" />
    <path
        d="M178.156 51.383H173.665V47.7906C173.665 46.7975 174.469 46.8915 175.461 46.8915H177.258V42.3956H173.665C172.235 42.3956 170.864 42.964 169.854 43.9758C168.843 44.9876 168.275 46.3598 168.275 47.7906V51.383H164.682V55.8831H168.275V65.774H173.665V55.8831H176.359L178.156 51.383Z"
        fill="#FAFAFA" />
    <path
        d="M8.91543 114.533C12.7048 130.031 17.9898 157.108 18.1385 160.781C18.2872 164.453 43.9889 166.799 55.4286 163.423C55.4286 163.423 55.5404 127.809 56.3352 117.951C66.856 123.158 77.1264 129.732 81.2869 129.732C87.0671 128.126 112.086 120.005 113.994 117.951V104.485C103.624 107.891 93.0724 110.719 82.3891 112.956C82.3891 112.956 67.3121 99.064 59.2705 92.5909L59.2359 92.5607C53.9553 87.6821 40.2477 86.1179 37.1748 85.3615C33.9969 84.5782 17.7886 82.3772 17.7886 82.3772C12.2901 85.9355 5.54299 100.731 8.91543 114.533Z"
        fill="url(#paint1_linear_927_10425)" />
    <path
        d="M40.1072 71.27C39.5215 73.6198 37.1751 83.8022 37.1751 85.3687C37.1751 86.9352 21.034 85.1225 17.9053 82.3822C22.0817 77.2737 24.8182 71.1406 25.8317 64.6179L40.1072 71.27Z"
        fill="#FFDEBB" />
    <path
        d="M27.8145 65.704C27.8145 65.704 32.7328 75.986 42.9686 75.1658C43.3106 75.1391 43.6406 75.0279 43.9291 74.8422C44.2176 74.6565 44.4557 74.402 44.6219 74.1017C46.0258 71.5494 49.7504 64.3669 49.6151 60.107C49.4463 54.8715 47.2207 45.1624 47.2207 45.1624C47.2207 45.1624 34.7638 42.5799 27.848 54.1419C26.713 55.8545 26.1049 57.8628 26.0989 59.9179C26.093 61.9731 26.6894 63.9849 27.8145 65.704Z"
        fill="#FFDEBB" />
    <path d="M36.8059 56.4198H54.8999" stroke="#D8BAA3" stroke-miterlimit="10" />
    <path
        d="M52.9842 63.2595C53.964 63.2595 54.7582 61.0557 54.7582 58.3373C54.7582 55.6188 53.964 53.415 52.9842 53.415C52.0045 53.415 51.2103 55.6188 51.2103 58.3373C51.2103 61.0557 52.0045 63.2595 52.9842 63.2595Z"
        stroke="#D8BAA3" stroke-miterlimit="10" />
    <path
        d="M4.20427 75.6594C15.2312 78.5577 26.514 80.373 37.8928 81.0796C37.8928 81.0796 44.6231 74.103 36.8689 65.4927C32.4357 60.5693 37.8694 54.3312 37.8694 54.3312C42.2996 53.0801 46.8614 52.3542 51.4608 52.1683C53.9256 48.5418 53.9926 43.3924 47.1405 38.3079C40.0413 33.0489 26.1257 27.7898 17.9198 36.1237C13.2161 40.8815 16.4074 50.4194 10.388 53.313C-8.55779 62.3977 4.20427 75.6594 4.20427 75.6594Z"
        fill="#263238" />
    <path
        d="M44.9968 38.2995C37.8909 33.0404 23.9819 27.7814 15.7761 36.1153C11.0723 40.873 13.7931 52.067 7.78259 54.9605"
        stroke="#263238" stroke-width="3" stroke-miterlimit="10" />
    <path d="M53.1139 52.1612C55.5787 48.5347 54.5458 42.3145 46.89 38.5358" stroke="#263238"
        stroke-width="3" stroke-miterlimit="10" />
    <path
        d="M41.1342 81.0488C41.1342 81.0488 46.92 73.6436 38.6147 65.5637C33.8617 60.9447 37.9339 53.4143 37.9339 53.4143"
        stroke="#263238" stroke-width="3" stroke-miterlimit="10" />
    <path
        d="M118.297 107C118.297 107 121.658 103.754 123.684 103.236C125.71 102.718 132.31 100.229 132.767 101.517C132.977 102.111 127.982 104.636 127.982 104.636C128.316 104.739 128.611 104.941 128.826 105.216C129.042 105.492 129.169 105.826 129.189 106.175C129.208 107.365 129.764 106.887 130.263 107.991C130.762 109.096 129.844 109.476 130.781 110.459C131.46 111.163 130.614 111.995 129.368 112.459C127.69 113.095 121.367 113.411 120.63 112.138L113.985 115.345L113.981 107.991L118.297 107Z"
        fill="#FFDEBB" />
    <defs>
        <linearGradient id="paint0_linear_927_10425" x1="135.208" y1="117.651" x2="135.208" y2="77"
            gradientUnits="userSpaceOnUse">
            <stop stop-color="#EE575C" />
            <stop offset="1" stop-color="#F67147" />
        </linearGradient>
        <linearGradient id="paint1_linear_927_10425" x1="61.0024" y1="82.3772" x2="61.0024"
            y2="165.055" gradientUnits="userSpaceOnUse">
            <stop stop-color="#EE575C" />
            <stop offset="1" stop-color="#F67147" />
        </linearGradient>
    </defs>
</svg>
