<svg xmlns="http://www.w3.org/2000/svg" width="14" height="14" viewBox="0 0 14 14">
  <path id="event-config-outline" d="M6.26,10.13A3.87,3.87,0,1,1,10.13,14,3.875,3.875,0,0,1,6.26,10.13Zm.6,0a3.27,3.27,0,1,0,3.271-3.27A3.273,3.273,0,0,0,6.861,10.13ZM10.1,13.163c-.14,0-.255,0-.255,0s-.014-.082-.031-.178-.045-.257-.062-.356-.032-.181-.033-.182l-.063-.013a2.321,2.321,0,0,1-.328-.089c-.052-.018-.054-.018-.062-.01s-.106.128-.227.272l-.228.272c-.008.008-.018,0-.226-.118-.12-.069-.218-.127-.219-.13s.054-.158.122-.345l.124-.339L8.6,11.927a2.965,2.965,0,0,1-.291-.292l-.017-.019-.334.122c-.184.068-.338.122-.344.123s-.028-.029-.137-.217c-.12-.207-.125-.218-.117-.225s.128-.109.274-.23l.272-.227s0-.016-.013-.06a2.236,2.236,0,0,1-.088-.326c-.006-.035-.013-.064-.014-.065l-.181-.032-.356-.062-.179-.031s0-.115,0-.257,0-.256,0-.256l.179-.031.356-.062.181-.033A.6.6,0,0,0,7.8,9.684a2.277,2.277,0,0,1,.088-.327C7.9,9.314,7.907,9.3,7.9,9.3L7.631,9.07l-.274-.229c-.008-.007,0-.018.117-.226.109-.187.128-.217.137-.216s.16.055.344.122l.334.122.017-.018A2.87,2.87,0,0,1,8.6,8.333l.019-.017-.124-.339c-.068-.188-.123-.343-.122-.345s.1-.061.219-.13c.208-.12.218-.125.226-.117l.228.271.227.272c.008.009.01.008.062-.01a2.317,2.317,0,0,1,.328-.088l.063-.013s.015-.083.033-.182.045-.259.062-.356.031-.177.031-.179.114,0,.255,0h.255l.025.139c.014.076.041.238.063.359s.039.22.04.222l.072.014a2.2,2.2,0,0,1,.319.086c.043.014.056.017.06.013l.227-.272.229-.274c.008-.008.018,0,.226.117.12.069.218.128.219.13s-.076.22-.22.611l-.027.073.031.027a2.637,2.637,0,0,1,.27.27l.026.03L12,8.611c.336-.123.593-.216.6-.216s.045.069.094.155.106.184.127.219c.03.051.036.066.031.069s-.126.107-.274.23-.271.226-.274.229,0,.016.013.059a2.417,2.417,0,0,1,.09.337l.01.055.184.032.356.062.176.031s0,.115,0,.256,0,.257,0,.257l-.124.021-.353.062-.235.04a.264.264,0,0,0-.014.055,2.362,2.362,0,0,1-.09.337c-.015.044-.018.056-.013.06l.274.23.274.229c.005,0,0,.018-.031.069l-.127.219c-.049.085-.091.156-.094.156s-.26-.094-.6-.217l-.087-.031-.026.031a2.637,2.637,0,0,1-.27.27l-.031.027.027.073c.143.391.22.608.22.611s-.1.06-.219.13c-.208.12-.218.126-.226.118s-.108-.128-.229-.274l-.227-.271c0-.005-.017,0-.06.013a2.089,2.089,0,0,1-.319.086l-.072.015s-.019.1-.04.221-.049.283-.063.36l-.025.138ZM9.9,8.347a1.793,1.793,0,0,0-1.586,1.7,1.761,1.761,0,0,0,.188.887,1.8,1.8,0,0,0,1.3.962,1.336,1.336,0,0,0,.3.022,1.332,1.332,0,0,0,.3-.022,1.795,1.795,0,0,0,1.484-1.611,2.6,2.6,0,0,0,0-.313A1.791,1.791,0,0,0,10.2,8.34l-.085,0H10.1C10.059,8.337,9.938,8.343,9.9,8.347ZM7.037,12.46H1a1,1,0,0,1-1-1v-9.5a1,1,0,0,1,1-1H2.86V.3a.3.3,0,1,1,.6,0v.66h4.6V.3a.3.3,0,0,1,.6,0v.66H10.5a1,1,0,0,1,1,1V6.51a3.8,3.8,0,0,0-.6-.173V1.959a.4.4,0,0,0-.4-.4H8.659V2.3a.3.3,0,0,1-.6,0V1.56H3.46V2.3a.3.3,0,1,1-.6,0V1.56H1a.4.4,0,0,0-.4.4v9.5a.4.4,0,0,0,.4.4H6.666a3.931,3.931,0,0,0,.372.6h0ZM9.12,10.1a.979.979,0,1,1,.979.979A.98.98,0,0,1,9.12,10.1Zm-2.96.364h-.6v-.6h.6v.6h0Zm-1.2,0h-.6v-.6h.6v.6h0Zm-1.2,0h-.6v-.6h.6v.6h0Zm-1.2,0h-.6v-.6h.6v.6h0Zm3.6-1.2h-.6v-.6h.6v.6h0Zm-1.2,0h-.6v-.6h.6v.6h0Zm-1.2,0h-.6v-.6h.6v.6h0Zm-1.2,0h-.6v-.6h.6v.6h0Zm4.2-1.2v-.6h.568a3.935,3.935,0,0,0-.469.6Zm-.6,0h-.6v-.6h.6v.6h0Zm-1.2,0h-.6v-.6h.6v.6h0Zm-1.2,0h-.6v-.6h.6v.6h0Zm-1.2,0h-.6v-.6h.6v.6h0Zm5.5-1.2h-.1v-.6h.6v.332a3.95,3.95,0,0,0-.5.268Zm-.7,0h-.6v-.6h.6v.6h0Zm-1.2,0h-.6v-.6h.6v.6h0Zm-1.2,0h-.6v-.6h.6v.6h0Zm-1.2,0h-.6v-.6h.6v.6h0Zm-1.2,0h-.6v-.6h.6v.6h0Zm6.6-.479V6.26h.6v.018a3.924,3.924,0,0,0-.6.1h0Zm-7.2-1.5v-.6h7.8v.6Z"/>
</svg>
