<?xml version="1.0" encoding="utf-8"?>

<!--
 * Copyright (c) 2020, WSO2 Inc. (http://www.wso2.org) All Rights Reserved.
 *
 * WSO2 Inc. licenses this file to you under the Apache License,
 * Version 2.0 (the "License"); you may not use this file except
 * in compliance with the License.
 * You may obtain a copy of the License at
 *
 *     http://www.apache.org/licenses/LICENSE-2.0
 *
 * Unless required by applicable law or agreed to in writing,
 * software distributed under the License is distributed on an
 * "AS IS" BASIS, WITHOUT WARRANTIES OR CONDITIONS OF ANY
 * KIND, either express or implied. See the License for the
 * specific language governing permissions and limitations
 * under the License.
-->

<svg xmlns="http://www.w3.org/2000/svg" xmlns:xlink="http://www.w3.org/1999/xlink" width="304.445" height="184.789"
     viewBox="0 0 304.445 184.789">
    <defs>
        <filter id="Rectangle_402" x="129.778" y="47.505" width="113" height="87" filterUnits="userSpaceOnUse">
            <feOffset dy="3" input="SourceAlpha"/>
            <feGaussianBlur stdDeviation="3" result="blur"/>
            <feFlood flood-opacity="0.161"/>
            <feComposite operator="in" in2="blur"/>
            <feComposite in="SourceGraphic"/>
        </filter>
        <filter id="Union_8" x="100.985" y="70.505" width="76.585" height="76.001" filterUnits="userSpaceOnUse">
            <feOffset dy="3" input="SourceAlpha"/>
            <feGaussianBlur stdDeviation="3" result="blur-2"/>
            <feFlood flood-opacity="0.161"/>
            <feComposite operator="in" in2="blur-2"/>
            <feComposite in="SourceGraphic"/>
        </filter>
    </defs>
    <g id="account-disable-illustration" transform="translate(-240.222 -755.495)">
        <path id="Path_81"
              d="M163.973,73.972A38.194,38.194,0,0,0,141.32,50.558a13.869,13.869,0,0,1-8.946-12.789V37.4A38.273,38.273,0,0,0,63.3,15.568a31.233,31.233,0,0,1-25,12.959q-.437,0-.875.009A39,39,0,0,0,0,66.285a38.284,38.284,0,0,0,74.235,13.67,7.834,7.834,0,0,1,9.5-4.79l.149.042a7.814,7.814,0,0,1,5.691,8.146,38.282,38.282,0,1,0,74.393-9.387Z"
              transform="translate(379.617 755.495) rotate(26)" fill="#dbdbdb" opacity="0.24"/>
        <g transform="matrix(1, 0, 0, 1, 240.22, 755.5)" filter="url(#Rectangle_402)">
            <rect id="Rectangle_402-2" data-name="Rectangle 402" width="95" height="69" rx="3"
                  transform="translate(138.78 53.5)" fill="#f3f3f3"/>
        </g>
        <path id="Rectangle_403" data-name="Rectangle 403"
              d="M3,0H92a3,3,0,0,1,3,3v8a0,0,0,0,1,0,0H0a0,0,0,0,1,0,0V3A3,3,0,0,1,3,0Z" transform="translate(379 809)"
              fill="#dfdfdf"/>
        <circle id="Ellipse_121" data-name="Ellipse 121" cx="1.5" cy="1.5" r="1.5" transform="translate(466 813)"
                fill="#fff"/>
        <circle id="Ellipse_122" data-name="Ellipse 122" cx="1.5" cy="1.5" r="1.5" transform="translate(462 813)"
                fill="#fff"/>
        <circle id="Ellipse_123" data-name="Ellipse 123" cx="1.5" cy="1.5" r="1.5" transform="translate(458 813)"
                fill="#fff"/>
        <path id="Path_95"
              d="M424.493,166.965a.914.914,0,0,1-.914-.914,1.1,1.1,0,0,0-1.1-1.1.915.915,0,0,1,0-1.829,1.1,1.1,0,0,0,1.1-1.1.915.915,0,1,1,1.829,0,1.1,1.1,0,0,0,1.1,1.1.915.915,0,0,1,0,1.829,1.1,1.1,0,0,0-1.1,1.1.914.914,0,0,1-.914.914Z"
              transform="translate(-144.207 752.047)" fill="#dfdfdf"/>
        <path id="Path_96"
              d="M68.794,419.851a.915.915,0,0,1-.645-.267l-2-2a.914.914,0,0,1,0-1.291l2-2a.914.914,0,0,1,1.291,0l2,2a.914.914,0,0,1,0,1.291l-2,2.008A.915.915,0,0,1,68.794,419.851Zm-.711-2.917.711.711.711-.711-.711-.708Z"
              transform="translate(174.344 385.159)" fill="rgba(157,157,157,0.7)"/>
        <path id="Path_98"
              d="M141.064,46.254a.914.914,0,0,1-.645-.267l-2-2.005a.914.914,0,0,1,0-1.291l2-2a.914.914,0,0,1,1.291,0l2,2a.914.914,0,0,1,0,1.291l-2,2a.909.909,0,0,1-.645.267Zm-.711-2.917.711.711.711-.711-.711-.711Z"
              transform="translate(400.688 784.79)" fill="rgba(157,157,157,0.7)"/>
        <path id="Path_98-2" data-name="Path_98"
              d="M141.064,46.254a.914.914,0,0,1-.645-.267l-2-2.005a.914.914,0,0,1,0-1.291l2-2a.914.914,0,0,1,1.291,0l2,2a.914.914,0,0,1,0,1.291l-2,2a.909.909,0,0,1-.645.267Zm-.711-2.917.711.711.711-.711-.711-.711Z"
              transform="translate(244.688 744.79)" fill="rgba(157,157,157,0.7)"/>
        <path id="padlock"
              d="M70.9,3.681V2.932a2.932,2.932,0,1,0-5.864,0v.749a1.169,1.169,0,0,0-.586,1.01V8.209a1.174,1.174,0,0,0,1.173,1.173h4.691a1.174,1.174,0,0,0,1.173-1.173V4.691a1.169,1.169,0,0,0-.586-1.01ZM67.963,1.173a1.761,1.761,0,0,1,1.759,1.759v.586H66.2V2.932a1.761,1.761,0,0,1,1.759-1.759Zm.586,5.635v.815H67.377V6.808a.88.88,0,1,1,1.173,0Z"
              transform="translate(358.555 904)" fill="#6b6b6b" opacity="0.55"/>
        <path id="padlock-2" data-name="padlock"
              d="M70.9,3.681V2.932a2.932,2.932,0,1,0-5.864,0v.749a1.169,1.169,0,0,0-.586,1.01V8.209a1.174,1.174,0,0,0,1.173,1.173h4.691a1.174,1.174,0,0,0,1.173-1.173V4.691a1.169,1.169,0,0,0-.586-1.01ZM67.963,1.173a1.761,1.761,0,0,1,1.759,1.759v.586H66.2V2.932a1.761,1.761,0,0,1,1.759-1.759Zm.586,5.635v.815H67.377V6.808a.88.88,0,1,1,1.173,0Z"
              transform="translate(233.555 844)" fill="#6b6b6b" opacity="0.55"/>
        <g id="Group_1103" data-name="Group 1103" transform="translate(9.524 -135.878)">
            <circle id="Ellipse_131" data-name="Ellipse 131" cx="23.5" cy="23.5" r="23.5"
                    transform="translate(393.476 960.878)" fill="#bdbdbd"/>
            <g id="forbidden" transform="translate(398.131 965.533)">
                <g id="Group_1102" data-name="Group 1102">
                    <path id="Path_2025" data-name="Path 2025"
                          d="M18.993,0A18.993,18.993,0,1,0,37.985,18.993,19.014,19.014,0,0,0,18.993,0Zm0,33.237A14.261,14.261,0,0,1,4.748,18.993a14.062,14.062,0,0,1,2.637-8.25L27.242,30.6A14.062,14.062,0,0,1,18.993,33.237ZM30.6,27.242,10.743,7.385a14.062,14.062,0,0,1,8.25-2.637A14.261,14.261,0,0,1,33.237,18.993,14.062,14.062,0,0,1,30.6,27.242Z"
                          fill="#fff"/>
                </g>
            </g>
        </g>
        <g transform="matrix(1, 0, 0, 1, 240.22, 755.5)" filter="url(#Union_8)">
            <path id="Union_8-2" data-name="Union 8"
                  d="M-1436,58a29.292,29.292,0,0,1,9.521-18.688,29.424,29.424,0,0,1,19.772-7.606,29.425,29.425,0,0,1,19.772,7.606A29.294,29.294,0,0,1-1377.416,58H-1436Zm13.791-42.534A15.484,15.484,0,0,1-1406.708,0a15.484,15.484,0,0,1,15.5,15.467,15.484,15.484,0,0,1-15.5,15.467A15.484,15.484,0,0,1-1422.209,15.467Z"
                  transform="translate(1545.99 76.5)" fill="#c3c3c3"/>
        </g>
    </g>
</svg>
