<?xml version="1.0" encoding="utf-8"?>

<!--
 * Copyright (c) 2020, WSO2 Inc. (http://www.wso2.org) All Rights Reserved.
 *
 * WSO2 Inc. licenses this file to you under the Apache License,
 * Version 2.0 (the "License"); you may not use this file except
 * in compliance with the License.
 * You may obtain a copy of the License at
 *
 *     http://www.apache.org/licenses/LICENSE-2.0
 *
 * Unless required by applicable law or agreed to in writing,
 * software distributed under the License is distributed on an
 * "AS IS" BASIS, WITHOUT WARRANTIES OR CONDITIONS OF ANY
 * KIND, either express or implied. See the License for the
 * specific language governing permissions and limitations
 * under the License.
-->

<svg xmlns="http://www.w3.org/2000/svg" width="304.445" height="184.789" viewBox="0 0 304.445 184.789">
    <g id="account-recovery-illustration" transform="translate(-141.222 -68.495)">
        <path id="Path_81"
              d="M163.973,73.972A38.194,38.194,0,0,0,141.32,50.558a13.869,13.869,0,0,1-8.946-12.789V37.4A38.273,38.273,0,0,0,63.3,15.568a31.233,31.233,0,0,1-25,12.959q-.437,0-.875.009A39,39,0,0,0,0,66.285a38.284,38.284,0,0,0,74.235,13.67,7.834,7.834,0,0,1,9.5-4.79l.149.042a7.814,7.814,0,0,1,5.691,8.146,38.282,38.282,0,1,0,74.393-9.387Z"
              transform="translate(280.616 68.495) rotate(26)" fill="#dbdbdb" opacity="0.24"/>
        <path id="Path_95"
              d="M424.493,166.965a.914.914,0,0,1-.914-.914,1.1,1.1,0,0,0-1.1-1.1.915.915,0,0,1,0-1.829,1.1,1.1,0,0,0,1.1-1.1.915.915,0,1,1,1.829,0,1.1,1.1,0,0,0,1.1,1.1.915.915,0,0,1,0,1.829,1.1,1.1,0,0,0-1.1,1.1.914.914,0,0,1-.914.914Z"
              transform="translate(-243.207 65.047)" fill="#e4e4e4"/>
        <path id="Path_96"
              d="M68.794,419.851a.915.915,0,0,1-.645-.267l-2-2a.914.914,0,0,1,0-1.291l2-2a.914.914,0,0,1,1.291,0l2,2a.914.914,0,0,1,0,1.291l-2,2.008A.915.915,0,0,1,68.794,419.851Zm-.711-2.917.711.711.711-.711-.711-.708Z"
              transform="translate(75.344 -301.841)" fill="rgba(157,157,157,0.7)"/>
        <path id="Path_98"
              d="M141.064,46.254a.914.914,0,0,1-.645-.267l-2-2.005a.914.914,0,0,1,0-1.291l2-2a.914.914,0,0,1,1.291,0l2,2a.914.914,0,0,1,0,1.291l-2,2a.909.909,0,0,1-.645.267Zm-.711-2.917.711.711.711-.711-.711-.711Z"
              transform="translate(301.688 97.79)" fill="rgba(157,157,157,0.7)"/>
        <path id="Path_98-2" data-name="Path_98"
              d="M141.064,46.254a.914.914,0,0,1-.645-.267l-2-2.005a.914.914,0,0,1,0-1.291l2-2a.914.914,0,0,1,1.291,0l2,2a.914.914,0,0,1,0,1.291l-2,2a.909.909,0,0,1-.645.267Zm-.711-2.917.711.711.711-.711-.711-.711Z"
              transform="translate(145.688 57.79)" fill="rgba(157,157,157,0.7)"/>
        <path id="padlock"
              d="M70.9,3.681V2.932a2.932,2.932,0,1,0-5.864,0v.749a1.169,1.169,0,0,0-.586,1.01V8.209a1.174,1.174,0,0,0,1.173,1.173h4.691a1.174,1.174,0,0,0,1.173-1.173V4.691a1.169,1.169,0,0,0-.586-1.01ZM67.963,1.173a1.761,1.761,0,0,1,1.759,1.759v.586H66.2V2.932a1.761,1.761,0,0,1,1.759-1.759Zm.586,5.635v.815H67.377V6.808a.88.88,0,1,1,1.173,0Z"
              transform="translate(259.555 217)" fill="#6b6b6b" opacity="0.55"/>
        <path id="padlock-2" data-name="padlock"
              d="M70.9,3.681V2.932a2.932,2.932,0,1,0-5.864,0v.749a1.169,1.169,0,0,0-.586,1.01V8.209a1.174,1.174,0,0,0,1.173,1.173h4.691a1.174,1.174,0,0,0,1.173-1.173V4.691a1.169,1.169,0,0,0-.586-1.01ZM67.963,1.173a1.761,1.761,0,0,1,1.759,1.759v.586H66.2V2.932a1.761,1.761,0,0,1,1.759-1.759Zm.586,5.635v.815H67.377V6.808a.88.88,0,1,1,1.173,0Z"
              transform="translate(134.555 157)" fill="#6b6b6b" opacity="0.55"/>
        <g id="Group_1088" data-name="Group 1088" transform="translate(1 -3)">
            <path id="Union_4" data-name="Union 4"
                  d="M-1436,75a37.908,37.908,0,0,1,12.283-24.165A37.914,37.914,0,0,1-1398.208,41a37.914,37.914,0,0,1,25.51,9.835A37.91,37.91,0,0,1-1360.416,75v0Zm17.793-55a20,20,0,0,1,20-20,20,20,0,0,1,20,20,20,20,0,0,1-20,20A20,20,0,0,1-1418.207,20Z"
                  transform="translate(1725.208 126)" fill="#a9a9a9"/>
        </g>
        <g id="Group_1089" data-name="Group 1089" transform="translate(-516 2)">
            <path id="Subtraction_4" data-name="Subtraction 4"
                  d="M-10535-4032a11.925,11.925,0,0,1-8.486-3.514A11.918,11.918,0,0,1-10547-4044a11.923,11.923,0,0,1,3.515-8.486A11.923,11.923,0,0,1-10535-4056a11.918,11.918,0,0,1,8.485,3.515A11.926,11.926,0,0,1-10523-4044a12.085,12.085,0,0,1-.221,2.3,15.585,15.585,0,0,0-9.972,9.564A12.117,12.117,0,0,1-10535-4032Z"
                  transform="translate(11413 4240)" fill="#fff"/>
            <g id="reset" transform="translate(847.664 169)">
                <g id="Group_1089-2" data-name="Group 1089" transform="translate(33.627 31.038)">
                    <path id="Path_1968" data-name="Path 1968"
                          d="M287.13,303.6a13.131,13.131,0,1,1,0-26.263,12.625,12.625,0,0,1,11.9,9.261,1.195,1.195,0,0,1-2.318.578h0a10.338,10.338,0,0,0-9.584-7.451,10.744,10.744,0,1,0,0,21.488,1.194,1.194,0,1,1,0,2.387Z"
                          transform="translate(-273.999 -277.335)" fill="#959595"/>
                    <path id="Path_1969" data-name="Path 1969"
                          d="M431.687,308.217h-7.163a1.194,1.194,0,0,1,0-2.388h5.969v-5.969a1.194,1.194,0,0,1,2.388,0v7.163A1.194,1.194,0,0,1,431.687,308.217Z"
                          transform="translate(-406.618 -296.28)" fill="#959595"/>
                </g>
                <path id="Path_1970" data-name="Path 1970"
                      d="M51.245,9.211a2.526,2.526,0,0,0-3.1-1.115l-5.919,2.387a20.371,20.371,0,0,0-3.529-2.048L37.8,2.148A2.481,2.481,0,0,0,35.329,0H24.824a2.476,2.476,0,0,0-2.469,2.127l-.9,6.3a21.148,21.148,0,0,0-3.524,2.051L12,8.089a2.476,2.476,0,0,0-3.068,1.1L3.676,18.262a2.5,2.5,0,0,0,.614,3.226L9.3,25.408a18.013,18.013,0,0,0,0,4.092L4.284,33.425a2.521,2.521,0,0,0-.609,3.216l5.238,9.073a2.524,2.524,0,0,0,3.1,1.11l5.919-2.387a20.448,20.448,0,0,0,3.531,2.046l.9,6.279a2.481,2.481,0,0,0,2.471,2.149h8.2a1.194,1.194,0,0,0,.979-1.877,15.419,15.419,0,0,1-2.793-8.867,15.614,15.614,0,0,1,.647-4.424,1.194,1.194,0,0,0-.208-1.077,1.136,1.136,0,0,0-1-.451c-.134,0-.26.024-.583.062A10.77,10.77,0,1,1,40.83,27.482q0,.11,0,.22c-.019.127-.036.256-.043.387A1.194,1.194,0,0,0,42.318,29.3a14.989,14.989,0,0,1,7.206-.387,1.246,1.246,0,0,0,.941-.289,1.349,1.349,0,0,0,.478-.9c0-.038.014-.239.014-.265a19.23,19.23,0,0,0-.115-2.046l5.028-3.918a2.516,2.516,0,0,0,.609-3.216Z"
                      transform="translate(0)" fill="#7f7f7f"/>
            </g>
        </g>
    </g>
</svg>
