<?xml version="1.0" encoding="utf-8"?>

<!--
 * Copyright (c) 2020, WSO2 Inc. (http://www.wso2.org) All Rights Reserved.
 *
 * WSO2 Inc. licenses this file to you under the Apache License,
 * Version 2.0 (the "License"); you may not use this file except
 * in compliance with the License.
 * You may obtain a copy of the License at
 *
 *     http://www.apache.org/licenses/LICENSE-2.0
 *
 * Unless required by applicable law or agreed to in writing,
 * software distributed under the License is distributed on an
 * "AS IS" BASIS, WITHOUT WARRANTIES OR CONDITIONS OF ANY
 * KIND, either express or implied. See the License for the
 * specific language governing permissions and limitations
 * under the License.
-->

<svg xmlns="http://www.w3.org/2000/svg" width="304.445" height="184.789" viewBox="0 0 304.445 184.789">
    <g id="ask-password-illustration" transform="translate(-141.222 -68.495)">
        <path id="Path_81"
              d="M163.973,73.972A38.194,38.194,0,0,0,141.32,50.558a13.869,13.869,0,0,1-8.946-12.789V37.4A38.273,38.273,0,0,0,63.3,15.568a31.233,31.233,0,0,1-25,12.959q-.437,0-.875.009A39,39,0,0,0,0,66.285a38.284,38.284,0,0,0,74.235,13.67,7.834,7.834,0,0,1,9.5-4.79l.149.042a7.814,7.814,0,0,1,5.691,8.146,38.282,38.282,0,1,0,74.393-9.387Z"
              transform="translate(280.616 68.495) rotate(26)" fill="#dbdbdb" opacity="0.24"/>
        <path id="Path_95"
              d="M424.493,166.965a.914.914,0,0,1-.914-.914,1.1,1.1,0,0,0-1.1-1.1.915.915,0,0,1,0-1.829,1.1,1.1,0,0,0,1.1-1.1.915.915,0,1,1,1.829,0,1.1,1.1,0,0,0,1.1,1.1.915.915,0,0,1,0,1.829,1.1,1.1,0,0,0-1.1,1.1.914.914,0,0,1-.914.914Z"
              transform="translate(-243.207 65.047)" fill="#e6e6e6"/>
        <path id="Path_96"
              d="M68.794,419.851a.915.915,0,0,1-.645-.267l-2-2a.914.914,0,0,1,0-1.291l2-2a.914.914,0,0,1,1.291,0l2,2a.914.914,0,0,1,0,1.291l-2,2.008A.915.915,0,0,1,68.794,419.851Zm-.711-2.917.711.711.711-.711-.711-.708Z"
              transform="translate(75.344 -301.841)" fill="rgba(157,157,157,0.7)"/>
        <path id="Path_98"
              d="M141.064,46.254a.914.914,0,0,1-.645-.267l-2-2.005a.914.914,0,0,1,0-1.291l2-2a.914.914,0,0,1,1.291,0l2,2a.914.914,0,0,1,0,1.291l-2,2a.909.909,0,0,1-.645.267Zm-.711-2.917.711.711.711-.711-.711-.711Z"
              transform="translate(301.688 97.79)" fill="rgba(157,157,157,0.7)"/>
        <path id="Path_98-2" data-name="Path_98"
              d="M141.064,46.254a.914.914,0,0,1-.645-.267l-2-2.005a.914.914,0,0,1,0-1.291l2-2a.914.914,0,0,1,1.291,0l2,2a.914.914,0,0,1,0,1.291l-2,2a.909.909,0,0,1-.645.267Zm-.711-2.917.711.711.711-.711-.711-.711Z"
              transform="translate(145.688 57.79)" fill="rgba(157,157,157,0.7)"/>
        <path id="padlock"
              d="M70.9,3.681V2.932a2.932,2.932,0,1,0-5.864,0v.749a1.169,1.169,0,0,0-.586,1.01V8.209a1.174,1.174,0,0,0,1.173,1.173h4.691a1.174,1.174,0,0,0,1.173-1.173V4.691a1.169,1.169,0,0,0-.586-1.01ZM67.963,1.173a1.761,1.761,0,0,1,1.759,1.759v.586H66.2V2.932a1.761,1.761,0,0,1,1.759-1.759Zm.586,5.635v.815H67.377V6.808a.88.88,0,1,1,1.173,0Z"
              transform="translate(259.555 217)" fill="#6b6b6b" opacity="0.55"/>
        <path id="padlock-2" data-name="padlock"
              d="M70.9,3.681V2.932a2.932,2.932,0,1,0-5.864,0v.749a1.169,1.169,0,0,0-.586,1.01V8.209a1.174,1.174,0,0,0,1.173,1.173h4.691a1.174,1.174,0,0,0,1.173-1.173V4.691a1.169,1.169,0,0,0-.586-1.01ZM67.963,1.173a1.761,1.761,0,0,1,1.759,1.759v.586H66.2V2.932a1.761,1.761,0,0,1,1.759-1.759Zm.586,5.635v.815H67.377V6.808a.88.88,0,1,1,1.173,0Z"
              transform="translate(134.555 157)" fill="#6b6b6b" opacity="0.55"/>
        <g id="Group_1065" data-name="Group 1065" transform="translate(0 7)">
            <path id="Union_6" data-name="Union 6"
                  d="M-1436,45a22.882,22.882,0,0,1,7.245-14.5,22.154,22.154,0,0,1,15.047-5.9,22.153,22.153,0,0,1,15.047,5.9,22.884,22.884,0,0,1,7.245,14.5H-1436Zm10.5-33a11.9,11.9,0,0,1,11.8-12,11.9,11.9,0,0,1,11.8,12,11.9,11.9,0,0,1-11.8,12A11.9,11.9,0,0,1-1425.505,12Z"
                  transform="translate(1702.208 161)" fill="gray"/>
        </g>
        <g id="Group_1116" data-name="Group 1116" transform="translate(-841 -1187)">
            <path id="Path_2066" data-name="Path 2066"
                  d="M241.152,0H204.737A11.93,11.93,0,0,0,192.8,11.936V66.557a2.835,2.835,0,0,0,4.533,2.266l11.382-8.537h32.435A11.93,11.93,0,0,0,253.088,48.35V11.936A11.93,11.93,0,0,0,241.151,0Z"
                  transform="translate(954 1306.676)" fill="#bcbcbc"/>
            <g id="password_7_" data-name="password (7)" transform="translate(1159.947 1285.688)">
                <path id="Path_347" data-name="Path 347"
                      d="M31.1,338.519H5.76A5.76,5.76,0,1,1,5.76,327H31.1a5.76,5.76,0,1,1,0,11.519Z"
                      transform="translate(0 -280.257)" fill="#d8d8d8"/>
                <g id="Group_1053" data-name="Group 1053" transform="translate(5.708 25)">
                    <circle id="Ellipse_113" data-name="Ellipse 113" cx="2" cy="2" r="2"
                            transform="translate(6.345 25.312)" fill="#6d737f"/>
                    <circle id="Ellipse_114" data-name="Ellipse 114" cx="2" cy="2" r="2"
                            transform="translate(-0.655 25.312)" fill="#6d737f"/>
                </g>
                <path id="Path_353" data-name="Path 353" d="M268.671,327H256v11.519h12.671a5.76,5.76,0,1,0,0-11.519Z"
                      transform="translate(-237.569 -280.257)" fill="#c9c9c9"/>
                <g id="Group_1055" data-name="Group 1055" transform="translate(20.595 50.5)">
                    <circle id="Ellipse_115" data-name="Ellipse 115" cx="2" cy="2" r="2"
                            transform="translate(0.458 -0.188)" fill="#5e5f69"/>
                    <circle id="Ellipse_116" data-name="Ellipse 116" cx="2" cy="2" r="2"
                            transform="translate(7.458 -0.188)" fill="#5e5f69"/>
                </g>
            </g>
        </g>
    </g>
</svg>
