<?xml version="1.0" encoding="utf-8"?>

<!--
 * Copyright (c) 2020, WSO2 Inc. (http://www.wso2.org) All Rights Reserved.
 *
 * WSO2 Inc. licenses this file to you under the Apache License,
 * Version 2.0 (the "License"); you may not use this file except
 * in compliance with the License.
 * You may obtain a copy of the License at
 *
 *     http://www.apache.org/licenses/LICENSE-2.0
 *
 * Unless required by applicable law or agreed to in writing,
 * software distributed under the License is distributed on an
 * "AS IS" BASIS, WITHOUT WARRANTIES OR CONDITIONS OF ANY
 * KIND, either express or implied. See the License for the
 * specific language governing permissions and limitations
 * under the License.
-->

<svg xmlns="http://www.w3.org/2000/svg" width="304.445" height="184.789" viewBox="0 0 304.445 184.789">
    <g id="captcha-for-sso-login-illustration" transform="translate(-141.222 -68.495)">
        <path id="Path_81"
              d="M163.973,73.972A38.194,38.194,0,0,0,141.32,50.558a13.869,13.869,0,0,1-8.946-12.789V37.4A38.273,38.273,0,0,0,63.3,15.568a31.233,31.233,0,0,1-25,12.959q-.437,0-.875.009A39,39,0,0,0,0,66.285a38.284,38.284,0,0,0,74.235,13.67,7.834,7.834,0,0,1,9.5-4.79l.149.042a7.814,7.814,0,0,1,5.691,8.146,38.282,38.282,0,1,0,74.393-9.387Z"
              transform="translate(280.616 68.495) rotate(26)" fill="#dbdbdb" opacity="0.24"/>
        <path id="Path_95"
              d="M424.493,166.965a.914.914,0,0,1-.914-.914,1.1,1.1,0,0,0-1.1-1.1.915.915,0,0,1,0-1.829,1.1,1.1,0,0,0,1.1-1.1.915.915,0,1,1,1.829,0,1.1,1.1,0,0,0,1.1,1.1.915.915,0,0,1,0,1.829,1.1,1.1,0,0,0-1.1,1.1.914.914,0,0,1-.914.914Z"
              transform="translate(-243.207 65.047)" fill="#e0e0e0"/>
        <path id="Path_96"
              d="M68.794,419.851a.915.915,0,0,1-.645-.267l-2-2a.914.914,0,0,1,0-1.291l2-2a.914.914,0,0,1,1.291,0l2,2a.914.914,0,0,1,0,1.291l-2,2.008A.915.915,0,0,1,68.794,419.851Zm-.711-2.917.711.711.711-.711-.711-.708Z"
              transform="translate(75.344 -301.841)" fill="rgba(157,157,157,0.7)"/>
        <path id="Path_98"
              d="M141.064,46.254a.914.914,0,0,1-.645-.267l-2-2.005a.914.914,0,0,1,0-1.291l2-2a.914.914,0,0,1,1.291,0l2,2a.914.914,0,0,1,0,1.291l-2,2a.909.909,0,0,1-.645.267Zm-.711-2.917.711.711.711-.711-.711-.711Z"
              transform="translate(301.688 97.79)" fill="rgba(157,157,157,0.7)"/>
        <path id="Path_98-2" data-name="Path_98"
              d="M141.064,46.254a.914.914,0,0,1-.645-.267l-2-2.005a.914.914,0,0,1,0-1.291l2-2a.914.914,0,0,1,1.291,0l2,2a.914.914,0,0,1,0,1.291l-2,2a.909.909,0,0,1-.645.267Zm-.711-2.917.711.711.711-.711-.711-.711Z"
              transform="translate(145.688 57.79)" fill="rgba(157,157,157,0.7)"/>
        <path id="padlock"
              d="M70.9,3.681V2.932a2.932,2.932,0,1,0-5.864,0v.749a1.169,1.169,0,0,0-.586,1.01V8.209a1.174,1.174,0,0,0,1.173,1.173h4.691a1.174,1.174,0,0,0,1.173-1.173V4.691a1.169,1.169,0,0,0-.586-1.01ZM67.963,1.173a1.761,1.761,0,0,1,1.759,1.759v.586H66.2V2.932a1.761,1.761,0,0,1,1.759-1.759Zm.586,5.635v.815H67.377V6.808a.88.88,0,1,1,1.173,0Z"
              transform="translate(259.555 217)" fill="#6b6b6b" opacity="0.55"/>
        <path id="padlock-2" data-name="padlock"
              d="M70.9,3.681V2.932a2.932,2.932,0,1,0-5.864,0v.749a1.169,1.169,0,0,0-.586,1.01V8.209a1.174,1.174,0,0,0,1.173,1.173h4.691a1.174,1.174,0,0,0,1.173-1.173V4.691a1.169,1.169,0,0,0-.586-1.01ZM67.963,1.173a1.761,1.761,0,0,1,1.759,1.759v.586H66.2V2.932a1.761,1.761,0,0,1,1.759-1.759Zm.586,5.635v.815H67.377V6.808a.88.88,0,1,1,1.173,0Z"
              transform="translate(134.555 157)" fill="#6b6b6b" opacity="0.55"/>
        <g id="Group_1065" data-name="Group 1065">
            <g id="Group_1090" data-name="Group 1090" transform="translate(-16.705 -24.317)">
                <rect id="Rectangle_408" data-name="Rectangle 408" width="70" height="45" rx="4"
                      transform="translate(310.705 157.317)" fill="#a9a9a9"/>
                <circle id="Ellipse_128" data-name="Ellipse 128" cx="4" cy="4" r="4"
                        transform="translate(323.705 169.317)" fill="#f9f9f9"/>
                <circle id="Ellipse_129" data-name="Ellipse 129" cx="4" cy="4" r="4"
                        transform="translate(359.705 169.317)" fill="#f9f9f9"/>
                <rect id="Rectangle_409" data-name="Rectangle 409" width="22" height="6" rx="2"
                      transform="translate(334.705 188.317)" fill="#f9f9f9"/>
                <circle id="Ellipse_130" data-name="Ellipse 130" cx="6.247" cy="6.247" r="6.247"
                        transform="translate(339.111 136)" fill="#a9a9a9"/>
                <rect id="Rectangle_410" data-name="Rectangle 410" width="2" height="12"
                      transform="translate(344.705 147.317)" fill="#a9a9a9"/>
            </g>
            <g id="Group_1095" data-name="Group 1095" transform="translate(-40 6)">
                <rect id="Rectangle_407" data-name="Rectangle 407" width="98" height="33" rx="2"
                      transform="translate(320 176)" fill="#ebebeb"/>
                <text id="I_m_not_a_robot" data-name="I&apos;m not a robot" transform="translate(378 197)"
                      fill="#181818" font-size="10" font-family="Roboto-Regular, Roboto" opacity="0.85">
                    <tspan x="-32.026" y="0">I&apos;m not a robot</tspan>
                </text>
                <g id="Rectangle_406" data-name="Rectangle 406" transform="translate(330 187)" fill="none"
                   stroke="#181818" stroke-width="1" opacity="0.8">
                    <rect width="13" height="13" rx="2" stroke="none"/>
                    <rect x="0.5" y="0.5" width="12" height="12" rx="1.5" fill="none"/>
                </g>
            </g>
        </g>
    </g>
</svg>
