<?xml version="1.0" encoding="utf-8"?>

<!--
 * Copyright (c) 2020, WSO2 Inc. (http://www.wso2.org) All Rights Reserved.
 *
 * WSO2 Inc. licenses this file to you under the Apache License,
 * Version 2.0 (the "License"); you may not use this file except
 * in compliance with the License.
 * You may obtain a copy of the License at
 *
 *     http://www.apache.org/licenses/LICENSE-2.0
 *
 * Unless required by applicable law or agreed to in writing,
 * software distributed under the License is distributed on an
 * "AS IS" BASIS, WITHOUT WARRANTIES OR CONDITIONS OF ANY
 * KIND, either express or implied. See the License for the
 * specific language governing permissions and limitations
 * under the License.
-->

<svg xmlns="http://www.w3.org/2000/svg" xmlns:xlink="http://www.w3.org/1999/xlink" width="304.445" height="133.802"
     viewBox="0 0 304.445 133.802">
    <defs>
        <linearGradient id="linear-gradient" x1="0.274" y1="0.5" x2="1" y2="0.5" gradientUnits="objectBoundingBox">
            <stop offset="0" stop-color="#fff"/>
            <stop offset="1" stop-color="#dbdddf"/>
        </linearGradient>
        <linearGradient id="linear-gradient-2" x1="0.274" y1="0.5" x2="1" y2="0.5" gradientUnits="objectBoundingBox">
            <stop offset="0" stop-color="#fff" stop-opacity="0"/>
            <stop offset="1" stop-color="#dbdddf"/>
        </linearGradient>
        <linearGradient id="linear-gradient-4" x1="0.308" y1="0.308" x2="0.828" y2="0.828"
                        gradientUnits="objectBoundingBox">
            <stop offset="0" stop-color="#ff8313"/>
            <stop offset="1" stop-color="#ff5201"/>
        </linearGradient>
        <linearGradient id="linear-gradient-5" x1="0.821" y1="0.821" x2="0.126" y2="0.126"
                        xlink:href="#linear-gradient-4"/>
        <linearGradient id="linear-gradient-6" x1="0.428" y1="0.45" x2="-0.035" y2="0.205"
                        gradientUnits="objectBoundingBox">
            <stop offset="0" stop-color="#ff5000" stop-opacity="0"/>
            <stop offset="0.563" stop-color="#e04a05" stop-opacity="0.565"/>
            <stop offset="1" stop-color="#e84902"/>
        </linearGradient>
        <linearGradient id="linear-gradient-7" x1="0.608" y1="0.634" x2="-0.093" y2="0.449"
                        gradientUnits="objectBoundingBox">
            <stop offset="0" stop-color="#ff5000" stop-opacity="0"/>
            <stop offset="0.563" stop-color="#c23f03" stop-opacity="0.565"/>
            <stop offset="1" stop-color="#d84400"/>
        </linearGradient>
        <linearGradient id="linear-gradient-8" x1="0.464" y1="0.418" x2="1.086" y2="0.86"
                        gradientUnits="objectBoundingBox">
            <stop offset="0" stop-color="#fff"/>
            <stop offset="1" stop-color="#ccc"/>
        </linearGradient>
        <linearGradient id="linear-gradient-9" x1="0.801" y1="0.671" x2="0.39" y2="-0.096"
                        gradientUnits="objectBoundingBox">
            <stop offset="0" stop-color="#f9a126" stop-opacity="0"/>
            <stop offset="1" stop-color="#ec4437"/>
        </linearGradient>
        <linearGradient id="linear-gradient-10" x1="0.317" y1="0.252" x2="0.97" y2="0.967"
                        xlink:href="#linear-gradient-8"/>
        <linearGradient id="linear-gradient-11" x1="0.875" y1="0.78" x2="-0.125" y2="-0.215"
                        xlink:href="#linear-gradient-8"/>
    </defs>
    <g id="default-connector-illustration" transform="translate(-141.224 -98.21)">
        <g id="account-recovery-illustration" transform="translate(0.002)">
            <path id="Path_95"
                  d="M424.493,166.965a.914.914,0,0,1-.914-.914,1.1,1.1,0,0,0-1.1-1.1.915.915,0,0,1,0-1.829,1.1,1.1,0,0,0,1.1-1.1.915.915,0,1,1,1.829,0,1.1,1.1,0,0,0,1.1,1.1.915.915,0,0,1,0,1.829,1.1,1.1,0,0,0-1.1,1.1.914.914,0,0,1-.914.914Z"
                  transform="translate(-243.207 65.047)" fill="#ffe783"/>
            <path id="Path_96"
                  d="M68.794,419.851a.915.915,0,0,1-.645-.267l-2-2a.914.914,0,0,1,0-1.291l2-2a.914.914,0,0,1,1.291,0l2,2a.914.914,0,0,1,0,1.291l-2,2.008A.915.915,0,0,1,68.794,419.851Zm-.711-2.917.711.711.711-.711-.711-.708Z"
                  transform="translate(75.344 -301.841)" fill="#ffe783"/>
            <path id="Path_98"
                  d="M141.064,46.254a.914.914,0,0,1-.645-.267l-2-2.005a.914.914,0,0,1,0-1.291l2-2a.914.914,0,0,1,1.291,0l2,2a.914.914,0,0,1,0,1.291l-2,2a.909.909,0,0,1-.645.267Zm-.711-2.917.711.711.711-.711-.711-.711Z"
                  transform="translate(301.688 97.79)" fill="#ffe783"/>
            <path id="Path_98-2" data-name="Path_98"
                  d="M141.064,46.254a.914.914,0,0,1-.645-.267l-2-2.005a.914.914,0,0,1,0-1.291l2-2a.914.914,0,0,1,1.291,0l2,2a.914.914,0,0,1,0,1.291l-2,2a.909.909,0,0,1-.645.267Zm-.711-2.917.711.711.711-.711-.711-.711Z"
                  transform="translate(145.688 57.79)" fill="#ffe783"/>
            <path id="padlock"
                  d="M70.9,3.681V2.932a2.932,2.932,0,1,0-5.864,0v.749a1.169,1.169,0,0,0-.586,1.01V8.209a1.174,1.174,0,0,0,1.173,1.173h4.691a1.174,1.174,0,0,0,1.173-1.173V4.691a1.169,1.169,0,0,0-.586-1.01ZM67.963,1.173a1.761,1.761,0,0,1,1.759,1.759v.586H66.2V2.932a1.761,1.761,0,0,1,1.759-1.759Zm.586,5.635v.815H67.377V6.808a.88.88,0,1,1,1.173,0Z"
                  transform="translate(259.555 217)" fill="#ffb18d"/>
            <path id="padlock-2" data-name="padlock"
                  d="M70.9,3.681V2.932a2.932,2.932,0,1,0-5.864,0v.749a1.169,1.169,0,0,0-.586,1.01V8.209a1.174,1.174,0,0,0,1.173,1.173h4.691a1.174,1.174,0,0,0,1.173-1.173V4.691a1.169,1.169,0,0,0-.586-1.01ZM67.963,1.173a1.761,1.761,0,0,1,1.759,1.759v.586H66.2V2.932a1.761,1.761,0,0,1,1.759-1.759Zm.586,5.635v.815H67.377V6.808a.88.88,0,1,1,1.173,0Z"
                  transform="translate(134.555 157)" fill="#ffb18d"/>
            <rect id="Rectangle_446" data-name="Rectangle 446" width="66" height="5" transform="translate(257 197)"
                  fill="url(#linear-gradient)"/>
            <rect id="Rectangle_454" data-name="Rectangle 454" width="20" height="5" transform="translate(383 179)"
                  fill="url(#linear-gradient-2)"/>
            <g id="Group_1135" data-name="Group 1135" transform="translate(-56 -7)">
                <rect id="Rectangle_448" data-name="Rectangle 448" width="66" height="5" transform="translate(234 186)"
                      fill="url(#linear-gradient)"/>
                <g id="Path_2110" data-name="Path 2110" transform="translate(280 122)" fill="#f4f2f1">
                    <path d="M 92 68 L 3 68 C 1.897199988365173 68 1 67.10279846191406 1 66 L 1 3 C 1 1.897199988365173 1.897199988365173 1 3 1 L 92 1 C 93.10279846191406 1 94 1.897199988365173 94 3 L 94 66 C 94 67.10279846191406 93.10279846191406 68 92 68 Z"
                          stroke="none"/>
                    <path d="M 3 2 C 2.448600769042969 2 2 2.448600769042969 2 3 L 2 66 C 2 66.55139923095703 2.448600769042969 67 3 67 L 92 67 C 92.55139923095703 67 93 66.55139923095703 93 66 L 93 3 C 93 2.448600769042969 92.55139923095703 2 92 2 L 3 2 M 3 0 L 92 0 C 93.6568603515625 0 95 1.3431396484375 95 3 L 95 66 C 95 67.6568603515625 93.6568603515625 69 92 69 L 3 69 C 1.3431396484375 69 0 67.6568603515625 0 66 L 0 3 C 0 1.3431396484375 1.3431396484375 0 3 0 Z"
                          stroke="none" fill="#e6e3df"/>
                </g>
                <g id="Rectangle_376" data-name="Rectangle 376" transform="translate(280 122)" fill="#fff"
                   stroke="#e6e3df" stroke-width="2">
                    <path d="M3,0H92a3,3,0,0,1,3,3v8a0,0,0,0,1,0,0H0a0,0,0,0,1,0,0V3A3,3,0,0,1,3,0Z" stroke="none"/>
                    <path d="M3,1H92a2,2,0,0,1,2,2V9a1,1,0,0,1-1,1H2A1,1,0,0,1,1,9V3A2,2,0,0,1,3,1Z" fill="none"/>
                </g>
                <circle id="Ellipse_110" data-name="Ellipse 110" cx="1.5" cy="1.5" r="1.5"
                        transform="translate(367 126)" fill="#eaecee"/>
                <circle id="Ellipse_111" data-name="Ellipse 111" cx="1.5" cy="1.5" r="1.5"
                        transform="translate(363 126)" fill="#eaecee"/>
                <circle id="Ellipse_112" data-name="Ellipse 112" cx="1.5" cy="1.5" r="1.5"
                        transform="translate(359 126)" fill="#eaecee"/>
                <g id="Rectangle_452" data-name="Rectangle 452" transform="translate(406 153)" fill="#f4f2f1"
                   stroke="#e6e3df" stroke-width="2">
                    <rect width="38" height="38" rx="3" stroke="none"/>
                    <rect x="1" y="1" width="36" height="36" rx="2" fill="none"/>
                </g>
                <g id="Rectangle_453" data-name="Rectangle 453" transform="translate(443.237 175.264) rotate(-45)"
                   fill="#f4f2f1" stroke="#e6e3df" stroke-width="2">
                    <rect width="23" height="23" rx="1" stroke="none"/>
                    <rect x="1" y="1" width="21" height="21" fill="none"/>
                </g>
                <g id="Ellipse_191" data-name="Ellipse 191" transform="translate(443.7 144)" fill="#f4f2f1"
                   stroke="#e6e3df" stroke-width="2">
                    <circle cx="9" cy="9" r="9" stroke="none"/>
                    <circle cx="9" cy="9" r="8" fill="none"/>
                </g>
                <g id="settings_8_" data-name="settings (8)" transform="translate(315 149.279)">
                    <g id="Group_1258" data-name="Group 1258" transform="translate(7.537 8.742)">
                        <g id="Group_1257" data-name="Group 1257" transform="translate(0 0)">
                            <path id="Path_2234" data-name="Path 2234"
                                  d="M154.573,150.569a5.391,5.391,0,1,0,5.391,5.391A5.4,5.4,0,0,0,154.573,150.569Zm0,8.626a3.235,3.235,0,1,1,3.235-3.235A3.239,3.239,0,0,1,154.573,159.195Z"
                                  transform="translate(-149.182 -150.569)" fill="#e6e3df"/>
                        </g>
                    </g>
                    <g id="Group_1260" data-name="Group 1260" transform="translate(0 1.196)">
                        <g id="Group_1259" data-name="Group 1259" transform="translate(0 0)">
                            <path id="Path_2235" data-name="Path 2235"
                                  d="M24.941,10.912l-3.065-.494,1.833-2.437a1.079,1.079,0,0,0-.094-1.406L20.552,3.469a1.075,1.075,0,0,0-1.414-.107l-2.5,1.76L16.148,2.1A1.077,1.077,0,0,0,15.084,1.2H10.771A1.078,1.078,0,0,0,9.7,2.121L9.2,5.177,6.708,3.355a1.076,1.076,0,0,0-1.4.107L2.258,6.5a1.078,1.078,0,0,0-.1,1.412l1.787,2.5-3.019.431A1.078,1.078,0,0,0,0,11.913v4.313a1.074,1.074,0,0,0,.925,1.065l3.065.494L2.158,20.222a1.078,1.078,0,0,0,.1,1.411l3.051,3.051a1.077,1.077,0,0,0,1.411.1L9.219,23l.431,3.019a1.078,1.078,0,0,0,1.067.925H15.03a1.077,1.077,0,0,0,1.067-.922l.494-3.065,2.437,1.833a1.076,1.076,0,0,0,1.411-.1l3.051-3.051a1.078,1.078,0,0,0,.1-1.411l-1.815-2.5,3.138-.367a1.077,1.077,0,0,0,.953-1.071V11.979A1.078,1.078,0,0,0,24.941,10.912Zm-1.23,4.42-2.2.257a2.116,2.116,0,0,0-1.72,1.334,2.165,2.165,0,0,0,.245,2.163l1.27,1.687L19.578,22.5l-1.695-1.276a2.121,2.121,0,0,0-2.088-.265,2.146,2.146,0,0,0-1.4,1.734l-.3,2.093H11.653l-.3-2.08a2.114,2.114,0,0,0-1.333-1.719,2.166,2.166,0,0,0-2.164.244L6.171,22.5,4.443,20.773l1.276-1.695a2.125,2.125,0,0,0,.265-2.088,2.145,2.145,0,0,0-1.735-1.4l-2.093-.3V12.848l2.081-.3a2.114,2.114,0,0,0,1.719-1.333,2.168,2.168,0,0,0-.243-2.164L4.444,7.367,6.177,5.639,7.92,6.914a2.222,2.222,0,0,0,3.487-1.469l.3-2.094h2.459L14.5,5.43a2.115,2.115,0,0,0,1.334,1.723,2.167,2.167,0,0,0,2.16-.243l1.684-1.259,1.752,1.775-1.28,1.7a2.223,2.223,0,0,0,1.469,3.488l2.093.3v2.418Z"
                                  transform="translate(0 -1.196)" fill="#e6e3df"/>
                        </g>
                    </g>
                </g>
            </g>
            <g id="google_2_" data-name="google (2)" transform="translate(267.334 121)">
                <path id="Path_2115" data-name="Path 2115"
                      d="M92.406,44.666V31.074A3.474,3.474,0,0,0,88.932,27.6H87.859a3.491,3.491,0,0,1-3.22-2.171l-.018-.043a3.492,3.492,0,0,1,.74-3.817l.759-.759a3.474,3.474,0,0,0,0-4.913L76.509,6.287a3.474,3.474,0,0,0-4.913,0l-.759.759a3.492,3.492,0,0,1-3.817.74l-.043-.018a3.491,3.491,0,0,1-2.171-3.22V3.474A3.474,3.474,0,0,0,61.331,0H47.74a3.474,3.474,0,0,0-3.474,3.474V4.547a3.491,3.491,0,0,1-2.171,3.22l-.043.018a3.492,3.492,0,0,1-3.817-.74l-.759-.759a3.474,3.474,0,0,0-4.913,0L22.952,15.9a3.474,3.474,0,0,0,0,4.913l.759.759a3.492,3.492,0,0,1,.74,3.817l-.018.043a3.491,3.491,0,0,1-3.22,2.171H20.14a3.474,3.474,0,0,0-3.474,3.474V44.665a3.474,3.474,0,0,0,3.474,3.474h1.073a3.491,3.491,0,0,1,3.22,2.171l.018.043a3.492,3.492,0,0,1-.74,3.817l-.759.759a3.474,3.474,0,0,0,0,4.913l9.611,9.611a3.474,3.474,0,0,0,4.913,0l.759-.759a3.492,3.492,0,0,1,3.817-.74l.043.018a3.491,3.491,0,0,1,2.171,3.22v1.073A3.474,3.474,0,0,0,47.74,75.74H61.331a3.474,3.474,0,0,0,3.474-3.474V71.193a3.491,3.491,0,0,1,2.171-3.22l.043-.018a3.492,3.492,0,0,1,3.817.74l.759.759a3.474,3.474,0,0,0,4.913,0l9.611-9.611a3.474,3.474,0,0,0,0-4.913l-.759-.759a3.492,3.492,0,0,1-.74-3.817l.018-.043a3.491,3.491,0,0,1,3.22-2.171h1.073a3.474,3.474,0,0,0,3.474-3.474Z"
                      transform="translate(0 0)" fill="url(#linear-gradient-4)"/>
                <circle id="Ellipse_168" data-name="Ellipse 168" cx="26.365" cy="26.365" r="26.365"
                        transform="translate(28.17 11.504)" fill="url(#linear-gradient-5)"/>
                <path id="Path_2116" data-name="Path 2116"
                      d="M179.64,150.382a3.473,3.473,0,0,1-3.455,3.118h-1.073a3.491,3.491,0,0,0-3.22,2.172l-.019.044a3.494,3.494,0,0,0,.74,3.817l.76.758a3.475,3.475,0,0,1,0,4.912l-9.612,9.61a3.472,3.472,0,0,1-4.913,0l-.758-.758a3.494,3.494,0,0,0-3.817-.74l-.044.019a3.49,3.49,0,0,0-2.17,3.22v1.073a3.473,3.473,0,0,1-3.137,3.457l-21.906-21.917a21.374,21.374,0,0,1-6.614-15.9,20.781,20.781,0,0,1,8.759-17.382c.684-.489,1.552-.64,2.021-.075.156.19,18.863,18.864,19.074,19.068a4.877,4.877,0,0,0,1.8-3.783V126.757a1.487,1.487,0,0,1,2.346-1.215,21.906,21.906,0,0,1,3.348,2.956Z"
                      transform="translate(-87.254 -105.361)" fill="url(#linear-gradient-6)"/>
                <path id="Path_2117" data-name="Path 2117"
                      d="M331.988,169.8l-.758-.759a3.493,3.493,0,0,1-.74-3.817l.018-.043a3.491,3.491,0,0,1,3.22-2.171H334.8a3.474,3.474,0,0,0,3.456-3.116L316.369,138.01q-.7-.754-1.459-1.435a21.729,21.729,0,0,1-5.928,33.626v19.918a3.468,3.468,0,0,0,1.692-2.978v-1.073a3.491,3.491,0,0,1,2.171-3.22l.043-.018a3.492,3.492,0,0,1,3.817.74l.759.759a3.474,3.474,0,0,0,4.913,0l9.611-9.611A3.474,3.474,0,0,0,331.988,169.8Z"
                      transform="translate(-245.869 -114.874)" fill="url(#linear-gradient-7)"/>
                <path id="Path_2118" data-name="Path 2118"
                      d="M209.244,349.689a44.543,44.543,0,0,0,.695-7.835V323.918H188.948v17.936a44.542,44.542,0,0,0,.695,7.835,4.659,4.659,0,0,0,4.616,3.8h10.368A4.659,4.659,0,0,0,209.244,349.689Z"
                      transform="translate(-144.907 -272.449)" fill="url(#linear-gradient-8)"/>
                <path id="Path_2119" data-name="Path 2119"
                      d="M188.948,329.475,209.3,349.384a44.536,44.536,0,0,0,.643-7.53V323.918H188.948Z"
                      transform="translate(-144.907 -272.449)" fill="url(#linear-gradient-9)"/>
                <path id="Path_2120" data-name="Path 2120"
                      d="M161.723,143.233a21.725,21.725,0,1,1-34.353-17.68,1.489,1.489,0,0,1,2.358,1.208V141.1a4.881,4.881,0,0,0,2.441,4.228l5.389,3.111a4.881,4.881,0,0,0,4.882,0l5.389-3.111a4.881,4.881,0,0,0,2.441-4.228V126.76a1.487,1.487,0,0,1,2.346-1.216A21.7,21.7,0,0,1,161.723,143.233Z"
                      transform="translate(-85.462 -105.363)" fill="url(#linear-gradient-10)"/>
                <path id="Path_2121" data-name="Path 2121"
                      d="M153.814,145.063a7.642,7.642,0,0,0,3.821,6.618l8.436,4.871a7.642,7.642,0,0,0,7.642,0l8.436-4.871a7.642,7.642,0,0,0,3.821-6.618V128.624a21.83,21.83,0,0,0-3.461-3.079,1.487,1.487,0,0,0-2.346,1.216V141.1a4.881,4.881,0,0,1-2.441,4.228l-5.389,3.111a4.881,4.881,0,0,1-4.882,0l-5.389-3.111a4.881,4.881,0,0,1-2.441-4.228v-14.34a1.489,1.489,0,0,0-2.358-1.208,21.847,21.847,0,0,0-3.45,3.071v16.439Z"
                      transform="translate(-115.356 -105.363)" fill="url(#linear-gradient-11)"/>
            </g>
        </g>
    </g>
</svg>
