<?xml version="1.0" encoding="utf-8"?>

<!--
 * Copyright (c) 2020, WSO2 Inc. (http://www.wso2.org) All Rights Reserved.
 *
 * WSO2 Inc. licenses this file to you under the Apache License,
 * Version 2.0 (the "License"); you may not use this file except
 * in compliance with the License.
 * You may obtain a copy of the License at
 *
 *     http://www.apache.org/licenses/LICENSE-2.0
 *
 * Unless required by applicable law or agreed to in writing,
 * software distributed under the License is distributed on an
 * "AS IS" BASIS, WITHOUT WARRANTIES OR CONDITIONS OF ANY
 * KIND, either express or implied. See the License for the
 * specific language governing permissions and limitations
 * under the License.
-->

<svg xmlns="http://www.w3.org/2000/svg" xmlns:xlink="http://www.w3.org/1999/xlink" width="304.445" height="133.802"
     viewBox="0 0 304.445 133.802">
    <defs>
        <linearGradient id="linear-gradient" x1="0.274" y1="0.5" x2="1" y2="0.5" gradientUnits="objectBoundingBox">
            <stop offset="0" stop-color="#fff"/>
            <stop offset="1" stop-color="#dbdddf"/>
        </linearGradient>
        <linearGradient id="linear-gradient-5" x1="0.097" x2="1.189" y2="1.098" gradientUnits="objectBoundingBox">
            <stop offset="0" stop-color="#ff881d"/>
            <stop offset="1" stop-color="#ff5703"/>
        </linearGradient>
        <linearGradient id="linear-gradient-6" y1="0.028" x2="0.89" y2="0.791" gradientUnits="objectBoundingBox">
            <stop offset="0" stop-color="#ff5703"/>
            <stop offset="1" stop-color="#ff8e29"/>
        </linearGradient>
        <linearGradient id="linear-gradient-7" x1="0.539" y1="0.322" x2="0.783" y2="2.125"
                        gradientUnits="objectBoundingBox">
            <stop offset="0" stop-color="#fff"/>
            <stop offset="1" stop-color="#ccc"/>
        </linearGradient>
        <linearGradient id="linear-gradient-8" x2="1" y2="1" gradientUnits="objectBoundingBox">
            <stop offset="0" stop-color="#34f1e9"/>
            <stop offset="1" stop-color="#22b7b1"/>
        </linearGradient>
        <linearGradient id="linear-gradient-9" x1="1.015" y1="1" x2="0.029" y2="0.06" gradientUnits="objectBoundingBox">
            <stop offset="0" stop-color="#34f0e8"/>
            <stop offset="1" stop-color="#22b8b2"/>
        </linearGradient>
        <linearGradient id="linear-gradient-10" x1="0.931" y1="0.856" x2="-0.099" y2="0.181"
                        gradientUnits="objectBoundingBox">
            <stop offset="0" stop-color="#ccc"/>
            <stop offset="1" stop-color="#fff"/>
        </linearGradient>
        <linearGradient id="linear-gradient-11" x1="0" y1="0.346" x2="0.789" y2="0.772"
                        xlink:href="#linear-gradient-10"/>
    </defs>
    <g id="password-pattern-illustration" transform="translate(-141.222 -98.21)">
        <g id="lock-idle-accounts-illustration">
            <path id="Path_95"
                  d="M424.493,166.965a.914.914,0,0,1-.914-.914,1.1,1.1,0,0,0-1.1-1.1.915.915,0,0,1,0-1.829,1.1,1.1,0,0,0,1.1-1.1.915.915,0,1,1,1.829,0,1.1,1.1,0,0,0,1.1,1.1.915.915,0,0,1,0,1.829,1.1,1.1,0,0,0-1.1,1.1.914.914,0,0,1-.914.914Z"
                  transform="translate(-243.207 65.047)" fill="#ffe783"/>
            <path id="Path_96"
                  d="M68.794,419.851a.915.915,0,0,1-.645-.267l-2-2a.914.914,0,0,1,0-1.291l2-2a.914.914,0,0,1,1.291,0l2,2a.914.914,0,0,1,0,1.291l-2,2.008A.915.915,0,0,1,68.794,419.851Zm-.711-2.917.711.711.711-.711-.711-.708Z"
                  transform="translate(75.344 -301.841)" fill="#ffe783"/>
            <rect id="Rectangle_455" data-name="Rectangle 455" width="66" height="5" transform="translate(328 180)"
                  opacity="0.6" fill="url(#linear-gradient)"/>
            <g id="keys" transform="translate(327.024 115)">
                <path id="Path_2167" data-name="Path 2167"
                      d="M63.678,108.719a4.16,4.16,0,1,1,1.218-2.942v-11.6a15.5,15.5,0,0,0-20.866,20.057l-4.841,4.841-.621,4.548-4.548.621-2.835,2.835-.621,4.548-4.548.621-3.929,3.929,4.58,4.58H34l18.278-18.278a15.542,15.542,0,0,0,12.621-.249V105.778A4.148,4.148,0,0,1,63.678,108.719Z"
                      transform="translate(0 -80.22)" fill="#f4f2f1" stroke="#e6e3df" stroke-width="2"/>
                <path id="Path_2168" data-name="Path 2168"
                      d="M90.145,192.591a4.16,4.16,0,0,1-5.883,0L52.678,224.175l.458.458h7.329l18.278-18.278a15.541,15.541,0,0,0,12.621-.249V189.649A4.147,4.147,0,0,1,90.145,192.591Z"
                      transform="translate(-26.467 -164.091)" fill="#ccc" opacity="0.09"/>
                <path id="Path_2169" data-name="Path 2169"
                      d="M275.461,60.224a15.5,15.5,0,0,0-5.83,29.853v6.846l2.776,3.655-2.776,3.655v4.009l2.776,3.655-2.776,3.655v5.557h6.478l5.182-5.182V90.077a15.5,15.5,0,0,0-5.83-29.853Zm0,16.217a4.16,4.16,0,1,1,4.16-4.16A4.16,4.16,0,0,1,275.461,76.441Z"
                      transform="translate(-205.82 -52.108)" fill="#f4f2f1" stroke="#e6e3df" stroke-width="2"/>
                <path id="Path_2170" data-name="Path 2170"
                      d="M374.938,60.224v6.632a5.02,5.02,0,1,1,0,10.04v42.165h.633l5.062-4.455V89.073a14.952,14.952,0,0,0-5.694-28.849Z"
                      transform="translate(-305.937 -51.105)" fill="#f1efee"/>
                <path id="Path_2171" data-name="Path 2171"
                      d="M249.627,0a10.149,10.149,0,0,0-10.138,10.138v3.983a15.433,15.433,0,0,1,4.043-1.356V10.138a6.095,6.095,0,0,1,12.19,0v6.4a4.159,4.159,0,0,1,4.043,0v-6.4A10.149,10.149,0,0,0,249.627,0Z"
                      transform="translate(-188.102)" fill="#ccc"/>
            </g>
            <path id="Path_98"
                  d="M141.064,46.254a.914.914,0,0,1-.645-.267l-2-2.005a.914.914,0,0,1,0-1.291l2-2a.914.914,0,0,1,1.291,0l2,2a.914.914,0,0,1,0,1.291l-2,2a.909.909,0,0,1-.645.267Zm-.711-2.917.711.711.711-.711-.711-.711Z"
                  transform="translate(301.688 97.79)" fill="#ffe783"/>
            <path id="Path_98-2" data-name="Path_98"
                  d="M141.064,46.254a.914.914,0,0,1-.645-.267l-2-2.005a.914.914,0,0,1,0-1.291l2-2a.914.914,0,0,1,1.291,0l2,2a.914.914,0,0,1,0,1.291l-2,2a.909.909,0,0,1-.645.267Zm-.711-2.917.711.711.711-.711-.711-.711Z"
                  transform="translate(145.688 57.79)" fill="#ffe783"/>
            <path id="padlock"
                  d="M70.9,3.681V2.932a2.932,2.932,0,1,0-5.864,0v.749a1.169,1.169,0,0,0-.586,1.01V8.209a1.174,1.174,0,0,0,1.173,1.173h4.691a1.174,1.174,0,0,0,1.173-1.173V4.691a1.169,1.169,0,0,0-.586-1.01ZM67.963,1.173a1.761,1.761,0,0,1,1.759,1.759v.586H66.2V2.932a1.761,1.761,0,0,1,1.759-1.759Zm.586,5.635v.815H67.377V6.808a.88.88,0,1,1,1.173,0Z"
                  transform="translate(259.555 217)" fill="#ffb18d"/>
            <path id="padlock-2" data-name="padlock"
                  d="M70.9,3.681V2.932a2.932,2.932,0,1,0-5.864,0v.749a1.169,1.169,0,0,0-.586,1.01V8.209a1.174,1.174,0,0,0,1.173,1.173h4.691a1.174,1.174,0,0,0,1.173-1.173V4.691a1.169,1.169,0,0,0-.586-1.01ZM67.963,1.173a1.761,1.761,0,0,1,1.759,1.759v.586H66.2V2.932a1.761,1.761,0,0,1,1.759-1.759Zm.586,5.635v.815H67.377V6.808a.88.88,0,1,1,1.173,0Z"
                  transform="translate(134.555 157)" fill="#ffb18d"/>
            <rect id="Rectangle_446" data-name="Rectangle 446" width="66" height="5" transform="translate(203 197)"
                  fill="url(#linear-gradient)"/>
            <rect id="Rectangle_867" data-name="Rectangle 867" width="66" height="5" transform="translate(266 199)"
                  fill="url(#linear-gradient)"/>
            <g id="Group_1135" data-name="Group 1135" transform="translate(-68 -7)">
                <rect id="Rectangle_448" data-name="Rectangle 448" width="66" height="5" transform="translate(234 186)"
                      fill="url(#linear-gradient)"/>
                <g id="Path_2110" data-name="Path 2110" transform="translate(280 122)" fill="#f4f2f1">
                    <path d="M 92 68 L 3 68 C 1.897199988365173 68 1 67.10279846191406 1 66 L 1 3 C 1 1.897199988365173 1.897199988365173 1 3 1 L 92 1 C 93.10279846191406 1 94 1.897199988365173 94 3 L 94 66 C 94 67.10279846191406 93.10279846191406 68 92 68 Z"
                          stroke="none"/>
                    <path d="M 3 2 C 2.448600769042969 2 2 2.448600769042969 2 3 L 2 66 C 2 66.55139923095703 2.448600769042969 67 3 67 L 92 67 C 92.55139923095703 67 93 66.55139923095703 93 66 L 93 3 C 93 2.448600769042969 92.55139923095703 2 92 2 L 3 2 M 3 0 L 92 0 C 93.6568603515625 0 95 1.3431396484375 95 3 L 95 66 C 95 67.6568603515625 93.6568603515625 69 92 69 L 3 69 C 1.3431396484375 69 0 67.6568603515625 0 66 L 0 3 C 0 1.3431396484375 1.3431396484375 0 3 0 Z"
                          stroke="none" fill="#e6e3df"/>
                </g>
                <g id="Rectangle_376" data-name="Rectangle 376" transform="translate(280 122)" fill="#fff"
                   stroke="#e6e3df" stroke-width="2">
                    <path d="M3,0H92a3,3,0,0,1,3,3v8a0,0,0,0,1,0,0H0a0,0,0,0,1,0,0V3A3,3,0,0,1,3,0Z" stroke="none"/>
                    <path d="M3,1H92a2,2,0,0,1,2,2V9a1,1,0,0,1-1,1H2A1,1,0,0,1,1,9V3A2,2,0,0,1,3,1Z" fill="none"/>
                </g>
                <circle id="Ellipse_110" data-name="Ellipse 110" cx="1.5" cy="1.5" r="1.5"
                        transform="translate(367 126)" fill="#eaecee"/>
                <circle id="Ellipse_111" data-name="Ellipse 111" cx="1.5" cy="1.5" r="1.5"
                        transform="translate(363 126)" fill="#eaecee"/>
                <circle id="Ellipse_112" data-name="Ellipse 112" cx="1.5" cy="1.5" r="1.5"
                        transform="translate(359 126)" fill="#eaecee"/>
                <path id="locked-outline"
                      d="M.971,27.17A.972.972,0,0,1,0,26.2V10.675A.971.971,0,0,1,.971,9.7h2.91V5.725h0a5.822,5.822,0,0,1,11.643,0V9.7h2.912a.971.971,0,0,1,.969.971V26.2a.972.972,0,0,1-.969.971Zm.192-16.107V25.811A.2.2,0,0,0,1.357,26h16.69a.2.2,0,0,0,.194-.194V11.063a.193.193,0,0,0-.194-.194H1.357A.193.193,0,0,0,1.163,11.063ZM5.046,5.725V9.7H14.36V5.821a4.658,4.658,0,0,0-9.315-.1Zm4.075,16.4V19.317a1.94,1.94,0,1,1,1.165,0v2.807Zm-.2-4.658A.776.776,0,1,0,9.7,16.69.779.779,0,0,0,8.925,17.466Z"
                      transform="translate(318 146.059)" fill="#dbdbdb"/>
            </g>
            <g id="Group_1179" data-name="Group 1179" transform="translate(-1183.801 -1662)">
                <g id="Group_1291" data-name="Group 1291" transform="translate(1448.801 1782.999)">
                    <path id="Path_2066" data-name="Path 2066"
                          d="M257.061,0h-50.32A13.932,13.932,0,0,0,192.8,13.94V77.73a3.311,3.311,0,0,0,5.294,2.647l13.293-9.97h45.673A13.932,13.932,0,0,0,271,56.467V13.94A13.932,13.932,0,0,0,257.061,0Z"
                          transform="translate(-192.801 0.001)" fill="url(#linear-gradient-5)"/>
                    <path id="Path_2127" data-name="Path 2127"
                          d="M250.7-.16,205.143,0A12.335,12.335,0,0,0,192.8,12.342l.112,56.319c0,2.4,1.748,2.8,3.687,1.344l10.658-7.668h43.331a12.335,12.335,0,0,0,12.342-12.342V12.342A12.378,12.378,0,0,0,250.7-.16Z"
                          transform="translate(-188.766 4.646)" fill="url(#linear-gradient-6)"/>
                </g>
                <path id="Path_2183" data-name="Path 2183"
                      d="M-10.162,1.5h-2.009l-.609,3.113h-1.088l.609-3.113h-1.819V.452h2.017l.525-2.7H-14.5V-3.3h2.169l.624-3.166h1.088L-11.243-3.3h2.009l.624-3.166h1.1L-8.138-3.3h1.552v1.05H-8.343l-.525,2.7h1.712V1.5h-1.91l-.609,3.113h-1.1ZM-11.973.452h2.009l.525-2.7h-2.009ZM.127,1.761A1.584,1.584,0,0,0-.364.581,4.391,4.391,0,0,0-2.019-.286a5.306,5.306,0,0,1-2.363-1.29A2.845,2.845,0,0,1-5.124-3.6,2.925,2.925,0,0,1-4.4-5.644a3.088,3.088,0,0,1,2-.951V-8.262h1.134v1.674A2.933,2.933,0,0,1,.724-5.514a3.856,3.856,0,0,1,.712,2.458H.035a2.651,2.651,0,0,0-.51-1.71A1.675,1.675,0,0,0-1.852-5.4a1.9,1.9,0,0,0-1.385.469,1.745,1.745,0,0,0-.479,1.308A1.594,1.594,0,0,0-3.21-2.385a4.662,4.662,0,0,0,1.667.839,7.015,7.015,0,0,1,1.811.83A2.914,2.914,0,0,1,1.226.338a3.047,3.047,0,0,1,.308,1.408,2.821,2.821,0,0,1-.772,2.07A3.425,3.425,0,0,1-1.4,4.744V6.2H-2.529V4.744A3.282,3.282,0,0,1-4.747,3.736a3.4,3.4,0,0,1-.8-2.386h1.408a2.239,2.239,0,0,0,.556,1.629,2.1,2.1,0,0,0,1.575.571A2.363,2.363,0,0,0-.444,3.07,1.619,1.619,0,0,0,.127,1.761Zm3.006-.122A2.6,2.6,0,0,1,3.578.17a6.784,6.784,0,0,1,1.7-1.56,7.345,7.345,0,0,1-.989-1.446,2.6,2.6,0,0,1-.251-1.088A2.612,2.612,0,0,1,4.784-5.9a2.8,2.8,0,0,1,2.024-.715A2.728,2.728,0,0,1,8.7-5.952a2.153,2.153,0,0,1,.746,1.678A2.368,2.368,0,0,1,9.1-3.037,4.4,4.4,0,0,1,7.919-1.846l-.814.6L9.571,1.7a4.672,4.672,0,0,0,.517-2.2h1.271a5.305,5.305,0,0,1-.936,3.219l1.583,1.895H10.317l-.738-.875a3.858,3.858,0,0,1-1.32.765,4.673,4.673,0,0,1-1.541.263,3.808,3.808,0,0,1-2.6-.86A2.868,2.868,0,0,1,3.133,1.639ZM6.717,3.618a2.963,2.963,0,0,0,2.047-.852L6.063-.469l-.251.183A2.534,2.534,0,0,0,4.541,1.639a1.869,1.869,0,0,0,.582,1.438A2.252,2.252,0,0,0,6.717,3.618ZM5.446-3.97a3.2,3.2,0,0,0,.9,1.826l.9-.632a4.655,4.655,0,0,0,.708-.7,1.587,1.587,0,0,0,.19-.8,1.088,1.088,0,0,0-.381-.849A1.389,1.389,0,0,0,6.8-5.461a1.241,1.241,0,0,0-.989.422A1.576,1.576,0,0,0,5.446-3.97Zm7.4-.365a2.248,2.248,0,0,1,.635-1.644,2.189,2.189,0,0,1,1.632-.647,2.176,2.176,0,0,1,1.64.651,2.326,2.326,0,0,1,.628,1.686v.54a2.219,2.219,0,0,1-.635,1.64,2.191,2.191,0,0,1-1.617.635A2.239,2.239,0,0,1,13.5-2.109,2.266,2.266,0,0,1,12.851-3.8Zm1.05.583a1.44,1.44,0,0,0,.335.98,1.13,1.13,0,0,0,.9.385,1.108,1.108,0,0,0,.871-.374,1.487,1.487,0,0,0,.331-1.022v-.557a1.476,1.476,0,0,0-.327-.984,1.1,1.1,0,0,0-.89-.389,1.1,1.1,0,0,0-.89.389A1.523,1.523,0,0,0,13.9-4.309ZM18.246,1.9a2.235,2.235,0,0,1,.635-1.64,2.2,2.2,0,0,1,1.632-.643A2.215,2.215,0,0,1,22.15.254a2.294,2.294,0,0,1,.639,1.7v.54a2.235,2.235,0,0,1-.635,1.64,2.186,2.186,0,0,1-1.625.643,2.239,2.239,0,0,1-1.636-.635,2.266,2.266,0,0,1-.647-1.693Zm1.05.59a1.451,1.451,0,0,0,.335.988,1.13,1.13,0,0,0,.9.385,1.1,1.1,0,0,0,.875-.378,1.513,1.513,0,0,0,.327-1.026V1.893A1.447,1.447,0,0,0,21.4.909a1.217,1.217,0,0,0-1.766,0A1.469,1.469,0,0,0,19.3,1.924ZM15.453,3.777l-.8-.5,5.411-8.66.8.5ZM28.132-.9l2.892-5.563h1.659L28.862.482V4.614H27.4V.482l-3.82-6.948h1.674Z"
                      transform="translate(1480.901 1820.397)" fill="url(#linear-gradient-7)"/>
            </g>
        </g>
        <g id="Group_1289" data-name="Group 1289" transform="translate(-1223 -1751.309)">
            <rect id="Rectangle_456" data-name="Rectangle 456" width="120.123" height="40.31" rx="6"
                  transform="translate(1541 1915)" fill="url(#linear-gradient-8)"/>
            <rect id="Rectangle_457" data-name="Rectangle 457" width="113.673" height="33.86" rx="5"
                  transform="translate(1544.225 1918.225)" fill="url(#linear-gradient-9)"/>
            <g id="Group_1151" data-name="Group 1151" transform="translate(1551.479 1930.626)">
                <path id="Path_2128" data-name="Path 2128"
                      d="M10.24,6.89,8.15,5.683l2.09-1.207a.425.425,0,0,0,.156-.582L9.758,2.788a.426.426,0,0,0-.582-.156L7.086,3.84V1.426A.425.425,0,0,0,6.66,1H5.383a.425.425,0,0,0-.426.426V3.84L2.867,2.633a.426.426,0,0,0-.582.156L1.647,3.895a.425.425,0,0,0,.156.582l2.09,1.207L1.8,6.89a.425.425,0,0,0-.156.582l.639,1.106a.426.426,0,0,0,.582.156l2.09-1.207V9.94a.425.425,0,0,0,.426.426H6.66a.425.425,0,0,0,.426-.426V7.526l2.09,1.207a.426.426,0,0,0,.582-.156L10.4,7.472a.425.425,0,0,0-.156-.582Z"
                      transform="translate(-1.587 -1)" fill="url(#linear-gradient-10)"/>
                <path id="Subtraction_24" data-name="Subtraction 24"
                      d="M0,4.682V0H.639a.426.426,0,0,1,.426.426V2.839l2.09-1.207a.422.422,0,0,1,.212-.058.43.43,0,0,1,.37.213l.3.516L0,4.681Z"
                      transform="translate(4.435 0)" fill="url(#linear-gradient-11)"/>
                <path id="Subtraction_26" data-name="Subtraction 26"
                      d="M.637,4.682H.043L0,0l4.053,2.34-.319.552a.425.425,0,0,1-.581.156L1.063,1.842V4.256a.417.417,0,0,1-.058.212A.427.427,0,0,1,.637,4.682Z"
                      transform="translate(4.436 4.69)" fill="url(#linear-gradient-11)"/>
                <path id="Subtraction_28" data-name="Subtraction 28"
                      d="M.375,4.644h0L.057,4.092a.426.426,0,0,1,.156-.581L2.3,2.3.213,1.1A.426.426,0,0,1,.057.941a.43.43,0,0,1,0-.427L.354,0,4.428,2.3.376,4.643Z"
                      transform="translate(0 2.365)" fill="url(#linear-gradient-11)"/>
            </g>
            <g id="Group_1154" data-name="Group 1154" transform="translate(1590.176 1930.626)">
                <path id="Path_2128-2" data-name="Path 2128"
                      d="M10.24,6.89,8.15,5.683l2.09-1.207a.425.425,0,0,0,.156-.582L9.758,2.788a.426.426,0,0,0-.582-.156L7.086,3.84V1.426A.425.425,0,0,0,6.66,1H5.383a.425.425,0,0,0-.426.426V3.84L2.867,2.633a.426.426,0,0,0-.582.156L1.647,3.895a.425.425,0,0,0,.156.582l2.09,1.207L1.8,6.89a.425.425,0,0,0-.156.582l.639,1.106a.426.426,0,0,0,.582.156l2.09-1.207V9.94a.425.425,0,0,0,.426.426H6.66a.425.425,0,0,0,.426-.426V7.526l2.09,1.207a.426.426,0,0,0,.582-.156L10.4,7.472a.425.425,0,0,0-.156-.582Z"
                      transform="translate(-1.587 -1)" fill="url(#linear-gradient-10)"/>
                <path id="Subtraction_24-2" data-name="Subtraction 24"
                      d="M0,4.682V0H.639a.426.426,0,0,1,.426.426V2.839l2.09-1.207a.422.422,0,0,1,.212-.058.43.43,0,0,1,.37.213l.3.516L0,4.681Z"
                      transform="translate(4.435 0)" fill="url(#linear-gradient-11)"/>
                <path id="Subtraction_26-2" data-name="Subtraction 26"
                      d="M.637,4.682H.043L0,0l4.053,2.34-.319.552a.425.425,0,0,1-.581.156L1.063,1.842V4.256a.417.417,0,0,1-.058.212A.427.427,0,0,1,.637,4.682Z"
                      transform="translate(4.436 4.69)" fill="url(#linear-gradient-11)"/>
                <path id="Subtraction_28-2" data-name="Subtraction 28"
                      d="M.375,4.644h0L.057,4.092a.426.426,0,0,1,.156-.581L2.3,2.3.213,1.1A.426.426,0,0,1,.057.941a.43.43,0,0,1,0-.427L.354,0,4.428,2.3.376,4.643Z"
                      transform="translate(0 2.365)" fill="url(#linear-gradient-11)"/>
            </g>
            <g id="Group_1152" data-name="Group 1152" transform="translate(1564.378 1930.626)">
                <path id="Path_2128-3" data-name="Path 2128"
                      d="M10.24,6.89,8.15,5.683l2.09-1.207a.425.425,0,0,0,.156-.582L9.758,2.788a.426.426,0,0,0-.582-.156L7.086,3.84V1.426A.425.425,0,0,0,6.66,1H5.383a.425.425,0,0,0-.426.426V3.84L2.867,2.633a.426.426,0,0,0-.582.156L1.647,3.895a.425.425,0,0,0,.156.582l2.09,1.207L1.8,6.89a.425.425,0,0,0-.156.582l.639,1.106a.426.426,0,0,0,.582.156l2.09-1.207V9.94a.425.425,0,0,0,.426.426H6.66a.425.425,0,0,0,.426-.426V7.526l2.09,1.207a.426.426,0,0,0,.582-.156L10.4,7.472a.425.425,0,0,0-.156-.582Z"
                      transform="translate(-1.587 -1)" fill="url(#linear-gradient-10)"/>
                <path id="Subtraction_24-3" data-name="Subtraction 24"
                      d="M0,4.682V0H.639a.426.426,0,0,1,.426.426V2.839l2.09-1.207a.422.422,0,0,1,.212-.058.43.43,0,0,1,.37.213l.3.516L0,4.681Z"
                      transform="translate(4.435 0)" fill="url(#linear-gradient-11)"/>
                <path id="Subtraction_26-3" data-name="Subtraction 26"
                      d="M.637,4.682H.043L0,0l4.053,2.34-.319.552a.425.425,0,0,1-.581.156L1.063,1.842V4.256a.417.417,0,0,1-.058.212A.427.427,0,0,1,.637,4.682Z"
                      transform="translate(4.436 4.69)" fill="url(#linear-gradient-11)"/>
                <path id="Subtraction_28-3" data-name="Subtraction 28"
                      d="M.375,4.644h0L.057,4.092a.426.426,0,0,1,.156-.581L2.3,2.3.213,1.1A.426.426,0,0,1,.057.941a.43.43,0,0,1,0-.427L.354,0,4.428,2.3.376,4.643Z"
                      transform="translate(0 2.365)" fill="url(#linear-gradient-11)"/>
            </g>
            <g id="Group_1155" data-name="Group 1155" transform="translate(1603.075 1930.626)">
                <path id="Path_2128-4" data-name="Path 2128"
                      d="M10.24,6.89,8.15,5.683l2.09-1.207a.425.425,0,0,0,.156-.582L9.758,2.788a.426.426,0,0,0-.582-.156L7.086,3.84V1.426A.425.425,0,0,0,6.66,1H5.383a.425.425,0,0,0-.426.426V3.84L2.867,2.633a.426.426,0,0,0-.582.156L1.647,3.895a.425.425,0,0,0,.156.582l2.09,1.207L1.8,6.89a.425.425,0,0,0-.156.582l.639,1.106a.426.426,0,0,0,.582.156l2.09-1.207V9.94a.425.425,0,0,0,.426.426H6.66a.425.425,0,0,0,.426-.426V7.526l2.09,1.207a.426.426,0,0,0,.582-.156L10.4,7.472a.425.425,0,0,0-.156-.582Z"
                      transform="translate(-1.587 -1)" fill="url(#linear-gradient-10)"/>
                <path id="Subtraction_24-4" data-name="Subtraction 24"
                      d="M0,4.682V0H.639a.426.426,0,0,1,.426.426V2.839l2.09-1.207a.422.422,0,0,1,.212-.058.43.43,0,0,1,.37.213l.3.516L0,4.681Z"
                      transform="translate(4.435 0)" fill="url(#linear-gradient-11)"/>
                <path id="Subtraction_26-4" data-name="Subtraction 26"
                      d="M.637,4.682H.043L0,0l4.053,2.34-.319.552a.425.425,0,0,1-.581.156L1.063,1.842V4.256a.417.417,0,0,1-.058.212A.427.427,0,0,1,.637,4.682Z"
                      transform="translate(4.436 4.69)" fill="url(#linear-gradient-11)"/>
                <path id="Subtraction_28-4" data-name="Subtraction 28"
                      d="M.375,4.644h0L.057,4.092a.426.426,0,0,1,.156-.581L2.3,2.3.213,1.1A.426.426,0,0,1,.057.941a.43.43,0,0,1,0-.427L.354,0,4.428,2.3.376,4.643Z"
                      transform="translate(0 2.365)" fill="url(#linear-gradient-11)"/>
            </g>
            <g id="Group_1157" data-name="Group 1157" transform="translate(1628.873 1930.626)">
                <path id="Path_2128-5" data-name="Path 2128"
                      d="M10.24,6.89,8.15,5.683l2.09-1.207a.425.425,0,0,0,.156-.582L9.758,2.788a.426.426,0,0,0-.582-.156L7.086,3.84V1.426A.425.425,0,0,0,6.66,1H5.383a.425.425,0,0,0-.426.426V3.84L2.867,2.633a.426.426,0,0,0-.582.156L1.647,3.895a.425.425,0,0,0,.156.582l2.09,1.207L1.8,6.89a.425.425,0,0,0-.156.582l.639,1.106a.426.426,0,0,0,.582.156l2.09-1.207V9.94a.425.425,0,0,0,.426.426H6.66a.425.425,0,0,0,.426-.426V7.526l2.09,1.207a.426.426,0,0,0,.582-.156L10.4,7.472a.425.425,0,0,0-.156-.582Z"
                      transform="translate(-1.587 -1)" fill="url(#linear-gradient-10)"/>
                <path id="Subtraction_24-5" data-name="Subtraction 24"
                      d="M0,4.682V0H.639a.426.426,0,0,1,.426.426V2.839l2.09-1.207a.422.422,0,0,1,.212-.058.43.43,0,0,1,.37.213l.3.516L0,4.681Z"
                      transform="translate(4.435 0)" fill="url(#linear-gradient-11)"/>
                <path id="Subtraction_26-5" data-name="Subtraction 26"
                      d="M.637,4.682H.043L0,0l4.053,2.34-.319.552a.425.425,0,0,1-.581.156L1.063,1.842V4.256a.417.417,0,0,1-.058.212A.427.427,0,0,1,.637,4.682Z"
                      transform="translate(4.436 4.69)" fill="url(#linear-gradient-11)"/>
                <path id="Subtraction_28-5" data-name="Subtraction 28"
                      d="M.375,4.644h0L.057,4.092a.426.426,0,0,1,.156-.581L2.3,2.3.213,1.1A.426.426,0,0,1,.057.941a.43.43,0,0,1,0-.427L.354,0,4.428,2.3.376,4.643Z"
                      transform="translate(0 2.365)" fill="url(#linear-gradient-11)"/>
            </g>
            <g id="Group_1153" data-name="Group 1153" transform="translate(1577.277 1930.626)">
                <path id="Path_2128-6" data-name="Path 2128"
                      d="M10.24,6.89,8.15,5.683l2.09-1.207a.425.425,0,0,0,.156-.582L9.758,2.788a.426.426,0,0,0-.582-.156L7.086,3.84V1.426A.425.425,0,0,0,6.66,1H5.383a.425.425,0,0,0-.426.426V3.84L2.867,2.633a.426.426,0,0,0-.582.156L1.647,3.895a.425.425,0,0,0,.156.582l2.09,1.207L1.8,6.89a.425.425,0,0,0-.156.582l.639,1.106a.426.426,0,0,0,.582.156l2.09-1.207V9.94a.425.425,0,0,0,.426.426H6.66a.425.425,0,0,0,.426-.426V7.526l2.09,1.207a.426.426,0,0,0,.582-.156L10.4,7.472a.425.425,0,0,0-.156-.582Z"
                      transform="translate(-1.587 -1)" fill="url(#linear-gradient-10)"/>
                <path id="Subtraction_24-6" data-name="Subtraction 24"
                      d="M0,4.682V0H.639a.426.426,0,0,1,.426.426V2.839l2.09-1.207a.422.422,0,0,1,.212-.058.43.43,0,0,1,.37.213l.3.516L0,4.681Z"
                      transform="translate(4.435 0)" fill="url(#linear-gradient-11)"/>
                <path id="Subtraction_26-6" data-name="Subtraction 26"
                      d="M.637,4.682H.043L0,0l4.053,2.34-.319.552a.425.425,0,0,1-.581.156L1.063,1.842V4.256a.417.417,0,0,1-.058.212A.427.427,0,0,1,.637,4.682Z"
                      transform="translate(4.436 4.69)" fill="url(#linear-gradient-11)"/>
                <path id="Subtraction_28-6" data-name="Subtraction 28"
                      d="M.375,4.644h0L.057,4.092a.426.426,0,0,1,.156-.581L2.3,2.3.213,1.1A.426.426,0,0,1,.057.941a.43.43,0,0,1,0-.427L.354,0,4.428,2.3.376,4.643Z"
                      transform="translate(0 2.365)" fill="url(#linear-gradient-11)"/>
            </g>
            <g id="Group_1156" data-name="Group 1156" transform="translate(1615.974 1930.626)">
                <path id="Path_2128-7" data-name="Path 2128"
                      d="M10.24,6.89,8.15,5.683l2.09-1.207a.425.425,0,0,0,.156-.582L9.758,2.788a.426.426,0,0,0-.582-.156L7.086,3.84V1.426A.425.425,0,0,0,6.66,1H5.383a.425.425,0,0,0-.426.426V3.84L2.867,2.633a.426.426,0,0,0-.582.156L1.647,3.895a.425.425,0,0,0,.156.582l2.09,1.207L1.8,6.89a.425.425,0,0,0-.156.582l.639,1.106a.426.426,0,0,0,.582.156l2.09-1.207V9.94a.425.425,0,0,0,.426.426H6.66a.425.425,0,0,0,.426-.426V7.526l2.09,1.207a.426.426,0,0,0,.582-.156L10.4,7.472a.425.425,0,0,0-.156-.582Z"
                      transform="translate(-1.587 -1)" fill="url(#linear-gradient-10)"/>
                <path id="Subtraction_24-7" data-name="Subtraction 24"
                      d="M0,4.682V0H.639a.426.426,0,0,1,.426.426V2.839l2.09-1.207a.422.422,0,0,1,.212-.058.43.43,0,0,1,.37.213l.3.516L0,4.681Z"
                      transform="translate(4.435 0)" fill="url(#linear-gradient-11)"/>
                <path id="Subtraction_26-7" data-name="Subtraction 26"
                      d="M.637,4.682H.043L0,0l4.053,2.34-.319.552a.425.425,0,0,1-.581.156L1.063,1.842V4.256a.417.417,0,0,1-.058.212A.427.427,0,0,1,.637,4.682Z"
                      transform="translate(4.436 4.69)" fill="url(#linear-gradient-11)"/>
                <path id="Subtraction_28-7" data-name="Subtraction 28"
                      d="M.375,4.644h0L.057,4.092a.426.426,0,0,1,.156-.581L2.3,2.3.213,1.1A.426.426,0,0,1,.057.941a.43.43,0,0,1,0-.427L.354,0,4.428,2.3.376,4.643Z"
                      transform="translate(0 2.365)" fill="url(#linear-gradient-11)"/>
            </g>
            <g id="Group_1158" data-name="Group 1158" transform="translate(1641.772 1930.626)">
                <path id="Path_2128-8" data-name="Path 2128"
                      d="M10.24,6.89,8.15,5.683l2.09-1.207a.425.425,0,0,0,.156-.582L9.758,2.788a.426.426,0,0,0-.582-.156L7.086,3.84V1.426A.425.425,0,0,0,6.66,1H5.383a.425.425,0,0,0-.426.426V3.84L2.867,2.633a.426.426,0,0,0-.582.156L1.647,3.895a.425.425,0,0,0,.156.582l2.09,1.207L1.8,6.89a.425.425,0,0,0-.156.582l.639,1.106a.426.426,0,0,0,.582.156l2.09-1.207V9.94a.425.425,0,0,0,.426.426H6.66a.425.425,0,0,0,.426-.426V7.526l2.09,1.207a.426.426,0,0,0,.582-.156L10.4,7.472a.425.425,0,0,0-.156-.582Z"
                      transform="translate(-1.587 -1)" fill="url(#linear-gradient-10)"/>
                <path id="Subtraction_24-8" data-name="Subtraction 24"
                      d="M0,4.682V0H.639a.426.426,0,0,1,.426.426V2.839l2.09-1.207a.422.422,0,0,1,.212-.058.43.43,0,0,1,.37.213l.3.516L0,4.681Z"
                      transform="translate(4.435 0)" fill="url(#linear-gradient-11)"/>
                <path id="Subtraction_26-8" data-name="Subtraction 26"
                      d="M.637,4.682H.043L0,0l4.053,2.34-.319.552a.425.425,0,0,1-.581.156L1.063,1.842V4.256a.417.417,0,0,1-.058.212A.427.427,0,0,1,.637,4.682Z"
                      transform="translate(4.436 4.69)" fill="url(#linear-gradient-11)"/>
                <path id="Subtraction_28-8" data-name="Subtraction 28"
                      d="M.375,4.644h0L.057,4.092a.426.426,0,0,1,.156-.581L2.3,2.3.213,1.1A.426.426,0,0,1,.057.941a.43.43,0,0,1,0-.427L.354,0,4.428,2.3.376,4.643Z"
                      transform="translate(0 2.365)" fill="url(#linear-gradient-11)"/>
            </g>
        </g>
    </g>
</svg>
