<?xml version="1.0" encoding="utf-8"?>

<!--
 * Copyright (c) 2020, WSO2 Inc. (http://www.wso2.org) All Rights Reserved.
 *
 * WSO2 Inc. licenses this file to you under the Apache License,
 * Version 2.0 (the "License"); you may not use this file except
 * in compliance with the License.
 * You may obtain a copy of the License at
 *
 *     http://www.apache.org/licenses/LICENSE-2.0
 *
 * Unless required by applicable law or agreed to in writing,
 * software distributed under the License is distributed on an
 * "AS IS" BASIS, WITHOUT WARRANTIES OR CONDITIONS OF ANY
 * KIND, either express or implied. See the License for the
 * specific language governing permissions and limitations
 * under the License.
-->

<svg xmlns="http://www.w3.org/2000/svg" xmlns:xlink="http://www.w3.org/1999/xlink" width="304.445" height="184.789"
     viewBox="0 0 304.445 184.789">
    <defs>
        <filter id="Rectangle_375" x="129.778" y="47.505" width="113" height="87" filterUnits="userSpaceOnUse">
            <feOffset dy="3" input="SourceAlpha"/>
            <feGaussianBlur stdDeviation="3" result="blur"/>
            <feFlood flood-opacity="0.161"/>
            <feComposite operator="in" in2="blur"/>
            <feComposite in="SourceGraphic"/>
        </filter>
        <filter id="Path_1950" x="201.778" y="84.887" width="58.145" height="68.618" filterUnits="userSpaceOnUse">
            <feOffset dy="3" input="SourceAlpha"/>
            <feGaussianBlur stdDeviation="3" result="blur-2"/>
            <feFlood flood-opacity="0.161"/>
            <feComposite operator="in" in2="blur-2"/>
            <feComposite in="SourceGraphic"/>
        </filter>
    </defs>
    <g id="password-history" transform="translate(-1066.222 -166.495)">
        <path id="Path_81"
              d="M163.973,73.972A38.194,38.194,0,0,0,141.32,50.558a13.869,13.869,0,0,1-8.946-12.789V37.4A38.273,38.273,0,0,0,63.3,15.568a31.233,31.233,0,0,1-25,12.959q-.437,0-.875.009A39,39,0,0,0,0,66.285a38.284,38.284,0,0,0,74.235,13.67,7.834,7.834,0,0,1,9.5-4.79l.149.042a7.814,7.814,0,0,1,5.691,8.146,38.282,38.282,0,1,0,74.393-9.387Z"
              transform="translate(1205.616 166.495) rotate(26)" fill="#dbdbdb" opacity="0.24"/>
        <g transform="matrix(1, 0, 0, 1, 1066.22, 166.5)" filter="url(#Rectangle_375)">
            <rect id="Rectangle_375-2" data-name="Rectangle 375" width="95" height="69" rx="3"
                  transform="translate(138.78 53.5)" fill="#f3f3f3"/>
        </g>
        <path id="Rectangle_376" data-name="Rectangle 376"
              d="M3,0H92a3,3,0,0,1,3,3v8a0,0,0,0,1,0,0H0a0,0,0,0,1,0,0V3A3,3,0,0,1,3,0Z" transform="translate(1205 220)"
              fill="#dfdfdf"/>
        <circle id="Ellipse_110" data-name="Ellipse 110" cx="1.5" cy="1.5" r="1.5" transform="translate(1292 224)"
                fill="#fff"/>
        <circle id="Ellipse_111" data-name="Ellipse 111" cx="1.5" cy="1.5" r="1.5" transform="translate(1288 224)"
                fill="#fff"/>
        <circle id="Ellipse_112" data-name="Ellipse 112" cx="1.5" cy="1.5" r="1.5" transform="translate(1284 224)"
                fill="#fff"/>
        <g id="password_7_" data-name="password (7)" transform="translate(1226.947 211.028)">
            <path id="Path_347" data-name="Path 347"
                  d="M43.875,343.25H8.125a8.125,8.125,0,1,1,0-16.25h35.75a8.125,8.125,0,1,1,0,16.25Z"
                  transform="translate(0 -271.328)" fill="#ebebeb"/>
            <g id="Group_1053" data-name="Group 1053" transform="translate(8.166 25)">
                <circle id="Ellipse_113" data-name="Ellipse 113" cx="2.5" cy="2.5" r="2.5"
                        transform="translate(9.887 35.972)" fill="#6d737f"/>
                <circle id="Ellipse_114" data-name="Ellipse 114" cx="2.5" cy="2.5" r="2.5"
                        transform="translate(-0.113 35.972)" fill="#6d737f"/>
                <path id="Path_348" data-name="Path 348"
                      d="M194.711,38.406H182.523A1.523,1.523,0,0,1,181,36.883V32.617a7.617,7.617,0,1,1,15.234,0v4.266A1.523,1.523,0,0,1,194.711,38.406Zm-10.664-3.047h9.141V32.617a4.57,4.57,0,0,0-9.141,0Z"
                      transform="translate(-170.783 -25)" fill="#878787"/>
            </g>
            <path id="Path_349" data-name="Path 349"
                  d="M256,25v3.047a4.575,4.575,0,0,1,4.57,4.57v2.742H256v3.047h6.094a1.523,1.523,0,0,0,1.523-1.523V32.617A7.626,7.626,0,0,0,256,25Z"
                  transform="translate(-230)" fill="#6c6c6c"/>
            <path id="Path_350" data-name="Path 350"
                  d="M166.82,142.133h-19.3A1.523,1.523,0,0,1,146,140.609V128.523A1.523,1.523,0,0,1,147.523,127h19.3a1.523,1.523,0,0,1,1.523,1.523v12.086A1.523,1.523,0,0,1,166.82,142.133Z"
                  transform="translate(-131.172 -91.641)" fill="#adadad"/>
            <g id="Group_1054" data-name="Group 1054" transform="translate(23.461 35.359)">
                <g id="back_1_" data-name="back (1)" transform="translate(-1.738 3.852)">
                    <g id="c187_arrow" transform="translate(0.246 0)">
                        <path id="_x3C_Group_x3E__5_"
                              d="M4.369,0H4.352a.06.06,0,0,0-.019,0A4.281,4.281,0,0,0,1.367,1.205L.5.321a.146.146,0,0,0-.25.1V3.3a.146.146,0,0,0,.146.146H3.236a.146.146,0,0,0,.073-.273L2.448,2.3A2.722,2.722,0,1,1,4.312,6.981l0,1.537h.021A4.259,4.259,0,0,0,4.369,0Z"
                              transform="translate(-0.246 0)" fill="#d2d2d2"/>
                    </g>
                </g>
                <path id="Path_351" data-name="Path 351"
                      d="M265.648,127H256v15.133h9.648a1.523,1.523,0,0,0,1.523-1.523V128.523A1.523,1.523,0,0,0,265.648,127Z"
                      transform="translate(-253.461 -127)" fill="#888"/>
                <path id="Intersection_2" data-name="Intersection 2"
                      d="M-18034.34-216.017l0-1.539a2.731,2.731,0,0,0,2.748-2.7,2.73,2.73,0,0,0-2.7-2.743h-.076v-1.54h.09a4.275,4.275,0,0,1,4.229,4.26,4.282,4.282,0,0,1-4.26,4.26Z"
                      transform="translate(18036.916 228.388)" fill="#6c6c6c"/>
            </g>
            <path id="Path_353" data-name="Path 353" d="M273.875,327H256v16.25h17.875a8.125,8.125,0,1,0,0-16.25Z"
                  transform="translate(-230 -271.328)" fill="#e0e0e0"/>
            <g id="Group_1055" data-name="Group 1055" transform="translate(28.58 60.694)">
                <circle id="Ellipse_115" data-name="Ellipse 115" cx="2.5" cy="2.5" r="2.5"
                        transform="translate(0.473 0.277)" fill="#5e5f69"/>
                <circle id="Ellipse_116" data-name="Ellipse 116" cx="2.5" cy="2.5" r="2.5"
                        transform="translate(10.473 0.277)" fill="#5e5f69"/>
            </g>
        </g>
        <path id="Path_95"
              d="M424.493,166.965a.914.914,0,0,1-.914-.914,1.1,1.1,0,0,0-1.1-1.1.915.915,0,0,1,0-1.829,1.1,1.1,0,0,0,1.1-1.1.915.915,0,1,1,1.829,0,1.1,1.1,0,0,0,1.1,1.1.915.915,0,0,1,0,1.829,1.1,1.1,0,0,0-1.1,1.1.914.914,0,0,1-.914.914Z"
              transform="translate(681.793 163.047)" fill="#e3e3e3"/>
        <path id="Path_96"
              d="M68.794,419.851a.915.915,0,0,1-.645-.267l-2-2a.914.914,0,0,1,0-1.291l2-2a.914.914,0,0,1,1.291,0l2,2a.914.914,0,0,1,0,1.291l-2,2.008A.915.915,0,0,1,68.794,419.851Zm-.711-2.917.711.711.711-.711-.711-.708Z"
              transform="translate(1000.344 -203.841)" fill="rgba(157,157,157,0.7)"/>
        <path id="Path_98"
              d="M141.064,46.254a.914.914,0,0,1-.645-.267l-2-2.005a.914.914,0,0,1,0-1.291l2-2a.914.914,0,0,1,1.291,0l2,2a.914.914,0,0,1,0,1.291l-2,2a.909.909,0,0,1-.645.267Zm-.711-2.917.711.711.711-.711-.711-.711Z"
              transform="translate(1226.688 195.79)" fill="rgba(157,157,157,0.7)"/>
        <path id="Path_98-2" data-name="Path_98"
              d="M141.064,46.254a.914.914,0,0,1-.645-.267l-2-2.005a.914.914,0,0,1,0-1.291l2-2a.914.914,0,0,1,1.291,0l2,2a.914.914,0,0,1,0,1.291l-2,2a.909.909,0,0,1-.645.267Zm-.711-2.917.711.711.711-.711-.711-.711Z"
              transform="translate(1070.688 155.79)" fill="rgba(157,157,157,0.7)"/>
        <path id="padlock"
              d="M70.9,3.681V2.932a2.932,2.932,0,1,0-5.864,0v.749a1.169,1.169,0,0,0-.586,1.01V8.209a1.174,1.174,0,0,0,1.173,1.173h4.691a1.174,1.174,0,0,0,1.173-1.173V4.691a1.169,1.169,0,0,0-.586-1.01ZM67.963,1.173a1.761,1.761,0,0,1,1.759,1.759v.586H66.2V2.932a1.761,1.761,0,0,1,1.759-1.759Zm.586,5.635v.815H67.377V6.808a.88.88,0,1,1,1.173,0Z"
              transform="translate(1184.555 315)" fill="#6b6b6b" opacity="0.55"/>
        <path id="padlock-2" data-name="padlock"
              d="M70.9,3.681V2.932a2.932,2.932,0,1,0-5.864,0v.749a1.169,1.169,0,0,0-.586,1.01V8.209a1.174,1.174,0,0,0,1.173,1.173h4.691a1.174,1.174,0,0,0,1.173-1.173V4.691a1.169,1.169,0,0,0-.586-1.01ZM67.963,1.173a1.761,1.761,0,0,1,1.759,1.759v.586H66.2V2.932a1.761,1.761,0,0,1,1.759-1.759Zm.586,5.635v.815H67.377V6.808a.88.88,0,1,1,1.173,0Z"
              transform="translate(1059.555 255)" fill="#6b6b6b" opacity="0.55"/>
        <g id="history" transform="translate(1237 233.382)">
            <g transform="matrix(1, 0, 0, 1, -170.78, -66.89)" filter="url(#Path_1950)">
                <path id="Path_1950-2" data-name="Path 1950"
                      d="M76.655,74.618H43.491A3.491,3.491,0,0,1,40,71.127V27.491A3.491,3.491,0,0,1,43.491,24H69.673L80.145,34.473V71.127A3.491,3.491,0,0,1,76.655,74.618Z"
                      transform="translate(170.78 66.89)" fill="#eaeaea"/>
            </g>
            <g id="Group_1063" data-name="Group 1063" transform="translate(44.364 24)">
                <path id="Path_1951" data-name="Path 1951" d="M322.473,34.473h-6.982A3.491,3.491,0,0,1,312,30.982V24Z"
                      transform="translate(-286.691 -24)" fill="#c3c6c7"/>
                <path id="Path_1952" data-name="Path 1952"
                      d="M181.818,161.745H160.873a.873.873,0,0,1,0-1.745h20.945a.873.873,0,1,1,0,1.745Z"
                      transform="translate(-151.273 -145.164)" fill="#c3c6c7"/>
                <path id="Path_1953" data-name="Path 1953"
                      d="M98.327,209.745H80.873a.873.873,0,1,1,0-1.745H98.327a.873.873,0,1,1,0,1.745Z"
                      transform="translate(-80 -187.927)" fill="#c3c6c7"/>
                <path id="Path_1954" data-name="Path 1954"
                      d="M215.855,257.745h-6.982a.873.873,0,0,1,0-1.745h6.982a.873.873,0,0,1,0,1.745Z"
                      transform="translate(-194.036 -230.691)" fill="#c3c6c7"/>
                <path id="Path_1955" data-name="Path 1955"
                      d="M96.582,305.745H80.873a.873.873,0,0,1,0-1.745H96.582a.873.873,0,0,1,0,1.745Z"
                      transform="translate(-80 -273.455)" fill="#c3c6c7"/>
                <path id="Path_1956" data-name="Path 1956"
                      d="M86.109,161.745H80.873a.873.873,0,1,1,0-1.745h5.236a.873.873,0,1,1,0,1.745Z"
                      transform="translate(-80 -145.164)" fill="#c3c6c7"/>
                <path id="Path_1957" data-name="Path 1957"
                      d="M281.6,209.745h-8.727a.873.873,0,1,1,0-1.745H281.6a.873.873,0,0,1,0,1.745Z"
                      transform="translate(-251.055 -187.927)" fill="#c3c6c7"/>
                <path id="Path_1958" data-name="Path 1958"
                      d="M91.345,257.745H80.873a.873.873,0,0,1,0-1.745H91.345a.873.873,0,0,1,0,1.745Z"
                      transform="translate(-80 -230.691)" fill="#c3c6c7"/>
                <path id="Path_1959" data-name="Path 1959"
                      d="M180.364,401.745h-3.491a.873.873,0,0,1,0-1.745h3.491a.873.873,0,0,1,0,1.745Z"
                      transform="translate(-165.527 -358.982)" fill="#c3c6c7"/>
                <path id="Path_1960" data-name="Path 1960"
                      d="M87.855,401.745H80.873a.873.873,0,0,1,0-1.745h6.982a.873.873,0,0,1,0,1.745Z"
                      transform="translate(-80 -358.982)" fill="#c3c6c7"/>
                <path id="Path_1961" data-name="Path 1961"
                      d="M86.109,353.745H80.873a.873.873,0,1,1,0-1.745h5.236a.873.873,0,1,1,0,1.745Z"
                      transform="translate(-80 -316.218)" fill="#c3c6c7"/>
                <path id="Path_1962" data-name="Path 1962"
                      d="M91.345,113.745H80.873a.873.873,0,1,1,0-1.745H91.345a.873.873,0,1,1,0,1.745Z"
                      transform="translate(-80 -102.4)" fill="#c3c6c7"/>
                <path id="Path_1963" data-name="Path 1963"
                      d="M166.109,353.745h-5.236a.873.873,0,1,1,0-1.745h5.236a.873.873,0,1,1,0,1.745Z"
                      transform="translate(-151.273 -316.218)" fill="#c3c6c7"/>
            </g>
            <path id="Path_2062" data-name="Path 2062"
                  d="M11,0A11.258,11.258,0,0,1,22,11.5,11.258,11.258,0,0,1,11,23,11.258,11.258,0,0,1,0,11.5,11.258,11.258,0,0,1,11,0Z"
                  transform="translate(65 51.618)" fill="#888"/>
            <path id="Path_1964" data-name="Path 1964"
                  d="M331.346,333.236h-5.7l-4.1-4.922a.873.873,0,0,0-1.341,1.118l4.364,5.236a.871.871,0,0,0,.67.314h6.109a.873.873,0,0,0,0-1.745Z"
                  transform="translate(-249.455 -270.836)" fill="#e9eef2"/>
        </g>
    </g>
</svg>
