<?xml version="1.0" encoding="utf-8"?>

<!--
 * Copyright (c) 2020, WSO2 Inc. (http://www.wso2.org) All Rights Reserved.
 *
 * WSO2 Inc. licenses this file to you under the Apache License,
 * Version 2.0 (the "License"); you may not use this file except
 * in compliance with the License.
 * You may obtain a copy of the License at
 *
 *     http://www.apache.org/licenses/LICENSE-2.0
 *
 * Unless required by applicable law or agreed to in writing,
 * software distributed under the License is distributed on an
 * "AS IS" BASIS, WITHOUT WARRANTIES OR CONDITIONS OF ANY
 * KIND, either express or implied. See the License for the
 * specific language governing permissions and limitations
 * under the License.
-->

<svg xmlns="http://www.w3.org/2000/svg" xmlns:xlink="http://www.w3.org/1999/xlink" width="304.445" height="184.789"
     viewBox="0 0 304.445 184.789">
    <defs>
        <filter id="Rectangle_375" x="129.778" y="47.505" width="113" height="87" filterUnits="userSpaceOnUse">
            <feOffset dy="3" input="SourceAlpha"/>
            <feGaussianBlur stdDeviation="3" result="blur"/>
            <feFlood flood-opacity="0.161"/>
            <feComposite operator="in" in2="blur"/>
            <feComposite in="SourceGraphic"/>
        </filter>
    </defs>
    <g id="user-self-registration-illustration" transform="translate(-141.222 -68.495)">
        <path id="Path_81"
              d="M163.973,73.972A38.194,38.194,0,0,0,141.32,50.558a13.869,13.869,0,0,1-8.946-12.789V37.4A38.273,38.273,0,0,0,63.3,15.568a31.233,31.233,0,0,1-25,12.959q-.437,0-.875.009A39,39,0,0,0,0,66.285a38.284,38.284,0,0,0,74.235,13.67,7.834,7.834,0,0,1,9.5-4.79l.149.042a7.814,7.814,0,0,1,5.691,8.146,38.282,38.282,0,1,0,74.393-9.387Z"
              transform="translate(280.616 68.495) rotate(26)" fill="#dbdbdb" opacity="0.24"/>
        <path id="Path_95"
              d="M424.493,166.965a.914.914,0,0,1-.914-.914,1.1,1.1,0,0,0-1.1-1.1.915.915,0,0,1,0-1.829,1.1,1.1,0,0,0,1.1-1.1.915.915,0,1,1,1.829,0,1.1,1.1,0,0,0,1.1,1.1.915.915,0,0,1,0,1.829,1.1,1.1,0,0,0-1.1,1.1.914.914,0,0,1-.914.914Z"
              transform="translate(-243.207 65.047)" fill="#e5e5e5"/>
        <path id="Path_96"
              d="M68.794,419.851a.915.915,0,0,1-.645-.267l-2-2a.914.914,0,0,1,0-1.291l2-2a.914.914,0,0,1,1.291,0l2,2a.914.914,0,0,1,0,1.291l-2,2.008A.915.915,0,0,1,68.794,419.851Zm-.711-2.917.711.711.711-.711-.711-.708Z"
              transform="translate(75.344 -301.841)" fill="rgba(157,157,157,0.7)"/>
        <path id="Path_98"
              d="M141.064,46.254a.914.914,0,0,1-.645-.267l-2-2.005a.914.914,0,0,1,0-1.291l2-2a.914.914,0,0,1,1.291,0l2,2a.914.914,0,0,1,0,1.291l-2,2a.909.909,0,0,1-.645.267Zm-.711-2.917.711.711.711-.711-.711-.711Z"
              transform="translate(301.688 97.79)" fill="rgba(157,157,157,0.7)"/>
        <path id="Path_98-2" data-name="Path_98"
              d="M141.064,46.254a.914.914,0,0,1-.645-.267l-2-2.005a.914.914,0,0,1,0-1.291l2-2a.914.914,0,0,1,1.291,0l2,2a.914.914,0,0,1,0,1.291l-2,2a.909.909,0,0,1-.645.267Zm-.711-2.917.711.711.711-.711-.711-.711Z"
              transform="translate(145.688 57.79)" fill="rgba(157,157,157,0.7)"/>
        <path id="padlock"
              d="M70.9,3.681V2.932a2.932,2.932,0,1,0-5.864,0v.749a1.169,1.169,0,0,0-.586,1.01V8.209a1.174,1.174,0,0,0,1.173,1.173h4.691a1.174,1.174,0,0,0,1.173-1.173V4.691a1.169,1.169,0,0,0-.586-1.01ZM67.963,1.173a1.761,1.761,0,0,1,1.759,1.759v.586H66.2V2.932a1.761,1.761,0,0,1,1.759-1.759Zm.586,5.635v.815H67.377V6.808a.88.88,0,1,1,1.173,0Z"
              transform="translate(259.555 217)" fill="#6b6b6b" opacity="0.55"/>
        <path id="padlock-2" data-name="padlock"
              d="M70.9,3.681V2.932a2.932,2.932,0,1,0-5.864,0v.749a1.169,1.169,0,0,0-.586,1.01V8.209a1.174,1.174,0,0,0,1.173,1.173h4.691a1.174,1.174,0,0,0,1.173-1.173V4.691a1.169,1.169,0,0,0-.586-1.01ZM67.963,1.173a1.761,1.761,0,0,1,1.759,1.759v.586H66.2V2.932a1.761,1.761,0,0,1,1.759-1.759Zm.586,5.635v.815H67.377V6.808a.88.88,0,1,1,1.173,0Z"
              transform="translate(134.555 157)" fill="#6b6b6b" opacity="0.55"/>
        <g id="Group_1065" data-name="Group 1065">
            <g transform="matrix(1, 0, 0, 1, 141.22, 68.5)" filter="url(#Rectangle_375)">
                <g id="Rectangle_375-2" data-name="Rectangle 375" transform="translate(138.78 53.5)" fill="#f3f3f3"
                   stroke="#707070" stroke-width="1">
                    <rect width="95" height="69" rx="3" stroke="none"/>
                    <rect x="0.5" y="0.5" width="94" height="68" rx="2.5" fill="none"/>
                </g>
            </g>
        </g>
        <rect id="Rectangle_411" data-name="Rectangle 411" width="49" height="7" rx="3.5" transform="translate(303 170)"
              fill="#a9a9a9"/>
        <g id="Rectangle_412" data-name="Rectangle 412" transform="translate(303 155)" fill="none" stroke="#707070"
           stroke-width="1">
            <rect width="49" height="7" rx="3.5" stroke="none"/>
            <rect x="0.5" y="0.5" width="48" height="6" rx="3" fill="none"/>
        </g>
        <g id="Rectangle_413" data-name="Rectangle 413" transform="translate(303 146)" fill="none" stroke="#707070"
           stroke-width="1">
            <rect width="49" height="7" rx="3.5" stroke="none"/>
            <rect x="0.5" y="0.5" width="48" height="6" rx="3" fill="none"/>
        </g>
        <g id="Rectangle_414" data-name="Rectangle 414" transform="translate(303 137)" fill="none" stroke="#707070"
           stroke-width="1">
            <rect width="49" height="7" rx="3.5" stroke="none"/>
            <rect x="0.5" y="0.5" width="48" height="6" rx="3" fill="none"/>
        </g>
        <g id="surface1" transform="translate(175.966 -59.274)">
            <path id="Path_2013" data-name="Path 2013" d="M265.746,530.758h20.808v9.6H265.746Zm0,0"
                  transform="translate(-73.114 -266.793)" fill="#545454"/>
            <path id="Path_2014" data-name="Path 2014"
                  d="M209.481,226.285l-10.446-11.941v20.809l-10.4-10.4a5.66,5.66,0,0,0-8,8l13.606,13.606-.948,1.894a19.2,19.2,0,0,0-.653,15.713H213.44V236.824A16.006,16.006,0,0,0,209.481,226.285Zm0,0"
                  transform="translate(0)" fill="#b9b9b9"/>
            <path id="Path_2015" data-name="Path 2015"
                  d="M302.872,344.938a1.6,1.6,0,0,1-1.131-.469l-4.8-4.8A1.6,1.6,0,0,1,299.2,337.4l4.8,4.8a1.6,1.6,0,0,1-1.132,2.733Zm0,0"
                  transform="translate(-99.036 -103.382)" fill="#969696"/>
        </g>
        <g id="surface1-2" data-name="surface1" transform="translate(266 155.07)">
            <path id="Path_2013-2" data-name="Path 2013" d="M286.554,530.758H265.746v9.6h20.808Zm0,0"
                  transform="translate(-265.746 -481.137)" fill="#545454"/>
            <path id="Path_2014-2" data-name="Path 2014"
                  d="M182.993,226.285l10.446-11.941v20.809l10.4-10.4a5.66,5.66,0,0,1,8,8l-13.606,13.606.948,1.894a19.2,19.2,0,0,1,.653,15.713H179.034V236.824A16.007,16.007,0,0,1,182.993,226.285Zm0,0"
                  transform="translate(-179.434 -214.344)" fill="#b9b9b9"/>
            <path id="Path_2015-2" data-name="Path 2015"
                  d="M298.089,344.938a1.6,1.6,0,0,0,1.131-.469l4.8-4.8a1.6,1.6,0,0,0-2.264-2.264l-4.8,4.8a1.6,1.6,0,0,0,1.132,2.733Zm0,0"
                  transform="translate(-288.485 -317.726)" fill="#969696"/>
        </g>
    </g>
</svg>
