<?xml version="1.0" encoding="utf-8"?>

<!--
 * Copyright (c) 2020, WSO2 Inc. (http://www.wso2.org) All Rights Reserved.
 *
 * WSO2 Inc. licenses this file to you under the Apache License,
 * Version 2.0 (the "License"); you may not use this file except
 * in compliance with the License.
 * You may obtain a copy of the License at
 *
 *     http://www.apache.org/licenses/LICENSE-2.0
 *
 * Unless required by applicable law or agreed to in writing,
 * software distributed under the License is distributed on an
 * "AS IS" BASIS, WITHOUT WARRANTIES OR CONDITIONS OF ANY
 * KIND, either express or implied. See the License for the
 * specific language governing permissions and limitations
 * under the License.
-->

<svg id="provision-logo" class="icon" width="14" height="14" enable-background="new 0 0 64 64" viewBox="0 0 64 64" xmlns="http://www.w3.org/2000/svg" xmlns:xlink="http://www.w3.org/1999/xlink">
    <linearGradient id="SVGID_1_" gradientUnits="userSpaceOnUse" x1="32" x2="32" y1="63" y2="1">
        <stop offset="0" stop-color="#9f2fff"/>
        <stop offset="1" stop-color="#0bb1d3"/>
    </linearGradient>
    <path d="m60.089 8.834 1.351-2.365-3.908-3.908-2.365 1.351c-.227-.104-.455-.2-.685-.286l-.718-2.626h-5.527l-.718 2.625c-.229.086-.458.182-.685.286l-2.365-1.351-3.908 3.908 1.351 2.365c-.057.123-.099.249-.15.374-1.015.177-2.008.462-2.963.882-3.198-4.455-8.292-7.089-13.799-7.089-9.374 0-17 7.626-17 17 0 .023.002.046.002.069-3.941.494-7.002 3.858-7.002 7.931 0 4.411 3.589 8 8 8h.586l13.414 13.414v13.586h18v-13.586l13.414-13.414h.586c4.411 0 8-3.589 8-8 0-2.723-1.37-5.129-3.454-6.575l1.894-1.894-1.351-2.365c.104-.227.2-.455.286-.685l2.625-.717v-5.527l-2.625-.718c-.086-.23-.182-.458-.286-.685zm-21.089 39.752v12.414h-14v-12.414l-14.465-14.465c-.34-.34-.535-.811-.535-1.293 0-1.008.82-1.828 1.828-1.828.481 0 .953.195 1.293.535l7.814 7.814c1.672 1.672 3.881 2.776 6.223 3.112l2.602.372-.796 9.545 3.036 3.036 3.035-3.035-.796-9.552 2.603-.365c2.342-.336 4.551-1.44 6.223-3.112l7.814-7.814c.34-.341.811-.536 1.293-.536 1.008 0 1.828.82 1.828 1.828 0 .481-.195.953-.535 1.293zm-14.931-12.586c.193 1.541.82 2.948 1.763 4.089-1.304-.443-2.506-1.178-3.483-2.154l-1.935-1.935zm15.862 0h3.655l-1.936 1.936c-.977.976-2.179 1.71-3.483 2.154.944-1.142 1.57-2.549 1.764-4.09zm-6.966 15.621-.965.965-.965-.965.718-8.627.148.001c.033 0 .066.005.099.005h.247zm-.965-10.621c-3.309 0-6-2.691-6-6s2.691-6 6-6 6 2.691 6 6-2.691 6-6 6zm29-13c0 3.03-2.26 5.536-5.182 5.938.109-.357.182-.726.182-1.11 0-2.11-1.718-3.828-3.828-3.828-1.022 0-1.984.398-2.707 1.121l-3.879 3.879h-5.655c-.495-3.94-3.859-7-7.931-7s-7.436 3.06-7.931 7h-5.655l-3.879-3.879c-.723-.723-1.684-1.121-2.707-1.121-2.11 0-3.828 1.718-3.828 3.828 0 .383.073.752.182 1.109-2.922-.401-5.182-2.907-5.182-5.937 0-3.309 2.691-6 6-6 1.959 0 3.801.961 4.924 2.57l1.641-1.145c-1.305-1.868-3.335-3.079-5.562-3.361-.001-.021-.003-.042-.003-.064 0-8.271 6.729-15 15-15 5.118 0 9.834 2.581 12.614 6.904l.494.768.81-.422c1.589-.829 3.299-1.25 5.082-1.25 5.326 0 9.87 3.875 10.816 9.009-4.326.1-7.816 3.642-7.816 7.991h2c0-3.309 2.691-6 6-6s6 2.691 6 6zm-6.344-13.401c-1.502-2.148-3.628-3.821-6.104-4.758.691-.536 1.543-.841 2.448-.841 2.206 0 4 1.794 4 4 0 .559-.125 1.099-.344 1.599zm6.344-.363-2.193.601-.161.524c-.143.462-.335.923-.572 1.37l-.258.485 1.13 1.98-1.272 1.272c-.264-.094-.533-.175-.808-.241-.177-1.291-.542-2.521-1.072-3.661.768-1.03 1.206-2.265 1.206-3.566 0-3.309-2.691-6-6-6-1.83 0-3.523.821-4.656 2.221-.741-.137-1.501-.213-2.276-.217l.117-.22-1.13-1.98 1.748-1.748 1.98 1.13.485-.258c.447-.237.908-.43 1.37-.572l.524-.161.602-2.195h2.473l.601 2.193.524.161c.462.143.923.335 1.37.572l.485.258 1.98-1.13 1.748 1.748-1.13 1.98.258.485c.237.447.43.908.572 1.37l.161.524 2.194.603zm-18.293 6.057 3.707 3.707-3.707 3.707-1.414-1.414 1.293-1.293h-21.172l1.293 1.293-1.414 1.414-3.707-3.707 3.707-3.707 1.414 1.414-1.293 1.293h21.172l-1.293-1.293zm-14.04-10.668c-.594-.209-1.21-.368-1.832-.473l.33-1.973c.736.123 1.466.312 2.168.561zm-3.667-.625c-5.395 0-9.957 3.854-10.848 9.165l-1.973-.33c1.054-6.278 6.446-10.835 12.821-10.835z" fill="url(#SVGID_1_)"/>
</svg>
