<!--
 * Copyright (c) 2023, WSO2 LLC. (https://www.wso2.com). All Rights Reserved.
 *
 * This software is the property of WSO2 LLC. and its suppliers, if any.
 * Dissemination of any information or reproduction of any material contained
 * herein in any form is strictly forbidden, unless permitted by WSO2 expressly.
 * You may not alter or remove any copyright or other notice from copies of this content.
-->

<svg xmlns="http://www.w3.org/2000/svg" id="pin-icon" class="icon" width="14" height="14" viewBox="0 0 13.995 14">
    <path id="pin" class="path fill primary"
          d="M.212,14.67a.3.3,0,0,1,0-.425L6.381,8.077,4.338,6.034a.18.18,0,0,1,.04-.212A4.021,4.021,0,0,1,7.743,4.607l2.909-2.622-.327-.327a.516.516,0,0,1,.054-.723A.517.517,0,0,1,11.1.881L14,3.776a.517.517,0,0,1-.055.723.517.517,0,0,1-.724.055l-.327-.328L10.271,7.134A4.015,4.015,0,0,1,9.054,10.5a.181.181,0,0,1-.211.042L6.805,8.5.636,14.67a.3.3,0,0,1-.424,0Z"
          transform="translate(-0.125 -0.758)" fill="#464646"/>
</svg>
