<!--
 * Copyright (c) 2023, WSO2 LLC. (https://www.wso2.com). All Rights Reserved.
 *
 * This software is the property of WSO2 LLC. and its suppliers, if any.
 * Dissemination of any information or reproduction of any material contained
 * herein in any form is strictly forbidden, unless permitted by WSO2 expressly.
 * You may not alter or remove any copyright or other notice from copies of this content.
-->

<svg xmlns="http://www.w3.org/2000/svg" id="unpin-icon" class="icon" width="13.997" height="13.999" viewBox="0 0 13.997 13.999">
    <path id="unpin" class="path fill primary"
          d="M.211,14.669a.3.3,0,0,1,0-.423l6.17-6.17-2.04-2.04a.178.178,0,0,1,.04-.214A4.369,4.369,0,0,1,6.045,4.776L10.1,8.83A4.335,4.335,0,0,1,9.053,10.5a.2.2,0,0,1-.135.057.141.141,0,0,1-.077-.021L6.806,8.5.636,14.669a.3.3,0,0,1-.212.087A.305.305,0,0,1,.211,14.669Zm12.608-3.824L3.98,2.006A.5.5,0,0,1,4.686,1.3l8.839,8.839a.5.5,0,1,1-.707.707ZM10.725,6.628,8.248,4.152l2.4-2.168-.33-.325a.522.522,0,0,1,.057-.724.6.6,0,0,1,.413-.178A.435.435,0,0,1,11.1.882L14,3.776a.43.43,0,0,1,.122.348.624.624,0,0,1-.59.554.432.432,0,0,1-.31-.125l-.328-.328-2.162,2.4Z" 
          transform="translate(-0.124 -0.757)" fill="#666"/>
</svg>
