<svg width="56" height="68" viewBox="0 0 56 68" fill="none" xmlns="http://www.w3.org/2000/svg">
<path d="M39.9022 19.5917L39.7974 44.5262L15.1711 44.4228L15.2759 19.4883C15.3116 10.9985 17.7903 2.32483 27.668 0.758741C37.5321 2.40774 39.9379 11.1019 39.9022 19.5917Z" fill="#CBECF9"/>
<path d="M37.3619 42.0268L37.4562 19.5848C37.4918 11.0951 35.5764 2.40296 27.6642 0.762157C19.7384 2.33645 17.75 11.0122 17.7144 19.5019L17.6201 41.9439L37.3619 42.0268Z" fill="white"/>
<path d="M15.1722 44.4238L39.7985 44.5272L39.7938 45.6382C39.7896 46.6513 39.3829 47.6212 38.6633 48.3346C37.9438 49.048 36.9702 49.4463 35.9568 49.4421L18.9725 49.3707C17.9591 49.3665 16.9889 48.96 16.2753 48.2406C15.5618 47.5212 15.1633 46.5479 15.1675 45.5348L15.1722 44.4238Z" fill="#F97171"/>
<path d="M15.2884 46.4824C15.4966 47.3028 15.9715 48.0308 16.6384 48.5522C17.3053 49.0735 18.1266 49.3587 18.9732 49.3629L35.9575 49.4342C36.8041 49.4371 37.6277 49.1589 38.299 48.6432C38.9703 48.1274 39.4512 47.4034 39.6663 46.5848L15.2884 46.4824Z" fill="#FF8888"/>
<path d="M38.0127 52.6922C37.9973 56.353 34.5152 63.6059 27.3907 66.9726C20.2947 63.5462 16.8736 56.2643 16.889 52.6035L38.0127 52.6922Z" fill="#F97171"/>
<path d="M35.8749 52.6841C35.8626 55.6063 33.0839 61.3946 27.3983 64.0798C21.7356 61.3438 19.0056 55.5323 19.0179 52.6133L35.8749 52.6841Z" fill="#FF8888"/>
<path d="M27.408 62.6099C25.7934 61.548 24.4828 60.0845 23.6048 58.3633L31.2468 58.3954C30.3544 60.1092 29.0315 61.5616 27.408 62.6099Z" fill="#FFC444"/>
<path d="M27.4095 62.6091C25.0664 61.0688 23.1657 58.9443 21.8948 56.4453L32.9757 56.4918C31.6839 58.9801 29.7654 61.0886 27.4095 62.6091Z" fill="#FFC444"/>
<path d="M27.408 62.6099C25.7934 61.548 24.4828 60.0845 23.6048 58.3633L31.2468 58.3954C30.3544 60.1092 29.0315 61.5616 27.408 62.6099Z" fill="#FFE76E"/>
<path d="M0.699927 54.1273L0.736401 45.4466L15.2281 31.7364L15.1748 44.4249L9.24659 47.2554L9.21756 54.1631L0.699927 54.1273Z" fill="url(#paint0_linear_3275_4227)"/>
<path d="M0.709234 51.9005L0.736345 45.4481L12.5522 34.2701L12.5177 42.4734L7.00488 46.4899L6.98204 51.9269L0.709234 51.9005Z" fill="url(#paint1_linear_3275_4227)"/>
<path d="M54.1894 54.3539L54.2259 45.6732L39.8499 31.8418L39.7966 44.5303L45.7008 47.4105L45.6718 54.3182L54.1894 54.3539Z" fill="url(#paint2_linear_3275_4227)"/>
<path d="M54.1986 52.1238L54.2257 45.6713L42.5042 34.3945L42.4698 42.5978L47.9487 46.6604L47.9258 52.0974L54.1986 52.1238Z" fill="url(#paint3_linear_3275_4227)"/>
<path d="M27.5376 31.7917L22.6749 45.5423L22.6384 54.2198L32.2514 54.2602L32.2879 45.5795L27.5376 31.7917Z" fill="url(#paint4_linear_3275_4227)"/>
<path d="M27.5345 31.7909L24.7104 43.8248L24.6785 51.4168L30.2222 51.4401L30.2541 43.8449L27.5345 31.7909Z" fill="url(#paint5_linear_3275_4227)"/>
<path d="M27.6079 14.8604C29.3665 14.8677 30.7981 13.4485 30.8055 11.6905C30.8128 9.93241 29.3932 8.50123 27.6347 8.49384C25.8761 8.48646 24.4445 9.90566 24.4371 11.6637C24.4297 13.4218 25.8494 14.853 27.6079 14.8604Z" fill="#FCB08C"/>
<path d="M27.6075 14.8633C28.8877 14.8687 29.9299 13.8355 29.9353 12.5556C29.9407 11.2758 28.9072 10.2339 27.627 10.2285C26.3467 10.2231 25.3046 11.2563 25.2992 12.5362C25.2938 13.816 26.3273 14.8579 27.6075 14.8633Z" fill="#FCB08C"/>
<path d="M27.6066 15.4957C26.8509 15.4925 26.1131 15.2654 25.4865 14.843C24.8599 14.4207 24.3726 13.822 24.0864 13.1228C23.8001 12.4236 23.7277 11.6552 23.8782 10.9148C24.0287 10.1745 24.3955 9.49535 24.9321 8.96337C25.4688 8.43139 26.1511 8.07044 26.8929 7.92616C27.6348 7.78188 28.4027 7.86075 29.0997 8.15281C29.7967 8.44486 30.3914 8.93697 30.8086 9.56692C31.2258 10.1969 31.4468 10.9363 31.4436 11.6919C31.4394 12.705 31.0327 13.6749 30.3131 14.3882C29.5936 15.1016 28.62 15.5 27.6066 15.4957ZM27.6333 9.1292C27.1295 9.12708 26.6364 9.27437 26.2163 9.55244C25.7962 9.8305 25.4681 10.2269 25.2733 10.6914C25.0786 11.1559 25.026 11.6677 25.1222 12.1621C25.2184 12.6565 25.4591 13.1113 25.8138 13.469C26.1686 13.8266 26.6215 14.0711 27.1152 14.1714C27.6089 14.2717 28.1213 14.2235 28.5876 14.0327C29.0539 13.8419 29.4531 13.5171 29.7347 13.0995C30.0164 12.6819 30.1679 12.1902 30.17 11.6865C30.1728 11.0111 29.9072 10.3622 29.4314 9.88265C28.9557 9.40306 28.3089 9.13203 27.6333 9.1292Z" fill="#65676E"/>
<path d="M27.5669 25.5596C29.3255 25.567 30.7571 24.1478 30.7644 22.3897C30.7718 20.6316 29.3522 19.2004 27.5937 19.1931C25.8351 19.1857 24.4035 20.6049 24.3961 22.3629C24.3887 24.121 25.8083 25.5522 27.5669 25.5596Z" fill="#FCB08C"/>
<path d="M27.5645 25.5606C28.8448 25.566 29.887 24.5328 29.8923 23.2529C29.8977 21.973 28.8642 20.9311 27.584 20.9258C26.3038 20.9204 25.2616 21.9536 25.2562 23.2334C25.2508 24.5133 26.2843 25.5552 27.5645 25.5606Z" fill="#FCB08C"/>
<path d="M27.5597 26.193C26.804 26.1898 26.0662 25.9627 25.4396 25.5403C24.813 25.1179 24.3258 24.5193 24.0395 23.8201C23.7532 23.1209 23.6808 22.3525 23.8313 21.6121C23.9819 20.8717 24.3486 20.1926 24.8853 19.6606C25.4219 19.1287 26.1043 18.7677 26.8461 18.6234C27.5879 18.4791 28.3558 18.558 29.0528 18.8501C29.7498 19.1421 30.3445 19.6342 30.7617 20.2642C31.1789 20.8941 31.3999 21.6336 31.3968 22.3891C31.3925 23.4022 30.9859 24.3721 30.2663 25.0855C29.5467 25.7989 28.5731 26.1972 27.5597 26.193ZM27.5865 19.8265C27.0827 19.8243 26.5895 19.9716 26.1694 20.2497C25.7494 20.5278 25.4212 20.9241 25.2264 21.3886C25.0317 21.8532 24.9791 22.365 25.0753 22.8594C25.1715 23.3538 25.4122 23.8086 25.767 24.1662C26.1217 24.5239 26.5746 24.7683 27.0683 24.8687C27.562 24.969 28.0744 24.9207 28.5407 24.7299C29.007 24.5391 29.4062 24.2144 29.6879 23.7968C29.9695 23.3792 30.121 22.8874 30.1231 22.3838C30.1259 21.7084 29.8603 21.0595 29.3846 20.5799C28.9089 20.1003 28.2621 19.8293 27.5865 19.8265Z" fill="#65676E"/>
<defs>
<linearGradient id="paint0_linear_3275_4227" x1="4.48711" y1="67.6144" x2="19.7305" y2="65.5492" gradientUnits="userSpaceOnUse">
<stop stop-color="#EB4F63"/>
<stop offset="1" stop-color="#FA7B3F"/>
</linearGradient>
<linearGradient id="paint1_linear_3275_4227" x1="3.79871" y1="62.5216" x2="16.2106" y2="60.7787" gradientUnits="userSpaceOnUse">
<stop stop-color="#EB4F63"/>
<stop offset="1" stop-color="#FA7B3F"/>
</linearGradient>
<linearGradient id="paint2_linear_3275_4227" x1="43.5428" y1="67.7804" x2="58.7862" y2="65.7153" gradientUnits="userSpaceOnUse">
<stop stop-color="#EB4F63"/>
<stop offset="1" stop-color="#FA7B3F"/>
</linearGradient>
<linearGradient id="paint3_linear_3275_4227" x1="45.5194" y1="62.6954" x2="57.9313" y2="60.9525" gradientUnits="userSpaceOnUse">
<stop stop-color="#EB4F63"/>
<stop offset="1" stop-color="#FA7B3F"/>
</linearGradient>
<linearGradient id="paint4_linear_3275_4227" x1="25.1418" y1="67.6996" x2="35.4013" y2="66.788" gradientUnits="userSpaceOnUse">
<stop stop-color="#EB4F63"/>
<stop offset="1" stop-color="#FA7B3F"/>
</linearGradient>
<linearGradient id="paint5_linear_3275_4227" x1="26.1053" y1="63.2056" x2="32.0499" y2="62.8658" gradientUnits="userSpaceOnUse">
<stop stop-color="#EB4F63"/>
<stop offset="1" stop-color="#FA7B3F"/>
</linearGradient>
</defs>
</svg>
