<svg width="73" height="53" viewBox="0 0 73 53" fill="none" xmlns="http://www.w3.org/2000/svg">
<path d="M71.8696 0.839844H0.84375V51.8917H71.8696V0.839844Z" fill="#FF8888"/>
<path d="M66.809 0.839844H0.84375V47.6451H66.809V0.839844Z" fill="white"/>
<path d="M71.8714 52.7354H0.845546C0.621293 52.7354 0.406225 52.6467 0.247655 52.4888C0.0890842 52.331 0 52.1169 0 51.8936V0.841746C0 0.618501 0.0890842 0.404399 0.247655 0.246541C0.406225 0.088683 0.621293 0 0.845546 0H71.8714C72.0957 0 72.3107 0.088683 72.4693 0.246541C72.6279 0.404399 72.717 0.618501 72.717 0.841746V51.8936C72.717 52.1169 72.6279 52.331 72.4693 52.4888C72.3107 52.6467 72.0957 52.7354 71.8714 52.7354ZM1.69109 51.0519H71.0259V1.68349H1.69109V51.0519Z" fill="#6E6D6C" fill-opacity="0.2"/>
<path d="M71.8696 10.3457H0.84375V19.727H71.8696V10.3457Z" fill="#FF725E"/>
<path d="M66.809 10.3457H0.84375V19.727H66.809V10.3457Z" fill="url(#paint0_linear_3275_4259)"/>
<path d="M71.8714 20.5706H0.845546C0.621293 20.5706 0.406225 20.4819 0.247655 20.3241C0.0890842 20.1662 0 19.9521 0 19.7289V10.3476C0 10.1244 0.0890842 9.91026 0.247655 9.7524C0.406225 9.59455 0.621293 9.50586 0.845546 9.50586H71.8714C72.0957 9.50586 72.3107 9.59455 72.4693 9.7524C72.6279 9.91026 72.717 10.1244 72.717 10.3476V19.7289C72.717 19.9521 72.6279 20.1662 72.4693 20.3241C72.3107 20.4819 72.0957 20.5706 71.8714 20.5706ZM1.69109 18.8871H71.0259V11.1894H1.69109V18.8871Z" fill="#6E6D6C" fill-opacity="0.1"/>
<defs>
<linearGradient id="paint0_linear_3275_4259" x1="18.4106" y1="25.3557" x2="39.6848" y2="-7.16417" gradientUnits="userSpaceOnUse">
<stop stop-color="#EB4F63"/>
<stop offset="1" stop-color="#FA7B3F"/>
</linearGradient>
</defs>
</svg>
