<svg width="350" height="304" viewBox="0 0 350 304" fill="none" xmlns="http://www.w3.org/2000/svg">
<path d="M269.155 34.9193L174.191 0L80.1336 34.4593C68.1234 40.2583 57.5935 43.7432 57.5935 55.1878V112.258C57.3976 152.198 68.1113 191.437 88.5827 225.756C106.123 254.904 133.272 284.916 175.168 304C213.615 291.217 242.314 257.134 259.854 227.972C280.327 193.659 291.041 154.425 290.843 114.488V63.1614C290.774 46.8239 282.325 38.8503 269.155 34.9193Z" fill="url(#paint0_linear_3274_2968)"/>
<g opacity="0.8">
<path d="M269.155 34.9193L174.191 0L80.1336 34.4593C68.1234 40.2583 57.5935 43.7432 57.5935 55.1878V112.258C57.3976 152.198 68.1113 191.437 88.5827 225.756C106.123 254.904 133.272 284.916 175.168 304C213.615 291.217 242.314 257.134 259.854 227.972C280.327 193.659 291.041 154.425 290.843 114.488V63.1614C290.774 46.8239 282.325 38.8503 269.155 34.9193Z" fill="white"/>
</g>
<path d="M232.175 179.281H214.718V84.4901C214.718 73.7556 210.446 63.4608 202.842 55.8704C195.237 48.28 184.924 44.0157 174.169 44.0157C163.415 44.0157 153.102 48.28 145.497 55.8704C137.893 63.4608 133.621 73.7556 133.621 84.4901V179.281H116.164V84.4901C116.045 76.811 117.457 69.185 120.318 62.056C123.18 54.9269 127.434 48.4372 132.832 42.9647C138.23 37.4922 144.665 33.1462 151.761 30.1797C158.858 27.2133 166.475 25.6855 174.169 25.6855C181.863 25.6855 189.481 27.2133 196.578 30.1797C203.674 33.1462 210.109 37.4922 215.507 42.9647C220.905 48.4372 225.159 54.9269 228.02 62.056C230.882 69.185 232.294 76.811 232.175 84.4901V179.281Z" fill="url(#paint1_linear_3274_2968)"/>
<g opacity="0.4">
<path d="M232.175 179.281H214.718V84.4901C214.718 73.7556 210.446 63.4608 202.842 55.8704C195.237 48.28 184.924 44.0157 174.169 44.0157C163.415 44.0157 153.102 48.28 145.497 55.8704C137.893 63.4608 133.621 73.7556 133.621 84.4901V179.281H116.164V84.4901C116.045 76.811 117.457 69.185 120.318 62.056C123.18 54.9269 127.434 48.4372 132.832 42.9647C138.23 37.4922 144.665 33.1462 151.761 30.1797C158.858 27.2133 166.475 25.6855 174.169 25.6855C181.863 25.6855 189.481 27.2133 196.578 30.1797C203.674 33.1462 210.109 37.4922 215.507 42.9647C220.905 48.4372 225.159 54.9269 228.02 62.056C230.882 69.185 232.294 76.811 232.175 84.4901V179.281Z" fill="black"/>
</g>
<path d="M244.226 137.1H104.111C99.6298 137.1 95.9971 140.726 95.9971 145.199V229.116C95.9971 233.589 99.6298 237.216 104.111 237.216H244.226C248.707 237.216 252.34 233.589 252.34 229.116V145.199C252.34 140.726 248.707 137.1 244.226 137.1Z" fill="url(#paint2_linear_3274_2968)"/>
<g opacity="0.5">
<path d="M187.233 174.124C187.235 171.697 186.557 169.316 185.278 167.252C183.998 165.187 182.167 163.52 179.99 162.437C177.813 161.355 175.376 160.9 172.954 161.124C170.532 161.348 168.221 162.243 166.281 163.706C164.34 165.17 162.847 167.145 161.97 169.409C161.093 171.674 160.866 174.138 161.314 176.524C161.763 178.91 162.87 181.124 164.511 182.916C166.151 184.709 168.26 186.009 170.6 186.67V206.186H177.737V186.67C180.474 185.9 182.885 184.257 184.599 181.992C186.314 179.727 187.239 176.964 187.233 174.124Z" fill="black"/>
</g>
<path d="M104.336 227.725C103.973 227.725 103.693 210.997 103.693 190.436C103.693 169.874 103.973 153.146 104.336 153.146C104.699 153.146 104.992 169.874 104.992 190.436C104.992 210.997 104.699 227.725 104.336 227.725Z" fill="#FAFAFA"/>
<path d="M163.94 190.837C163.94 190.837 163.326 190.642 162.404 189.973C161.112 189.009 159.977 187.853 159.038 186.544C157.408 184.396 156.274 181.916 155.717 179.28C155.159 176.644 155.193 173.917 155.815 171.296C156.437 168.674 157.632 166.222 159.314 164.116C160.996 162.009 163.124 160.3 165.546 159.11C166.995 158.364 168.549 157.842 170.155 157.563C170.728 157.406 171.327 157.373 171.914 157.465C171.914 157.716 169.442 157.953 166.049 159.919C163.834 161.141 161.899 162.812 160.37 164.825C158.84 166.838 157.749 169.148 157.166 171.606C156.584 174.065 156.522 176.618 156.987 179.102C157.451 181.585 158.43 183.944 159.862 186.028C161.088 187.739 162.452 189.348 163.94 190.837Z" fill="#FAFAFA"/>
<path d="M291.652 281.851C291.652 281.851 292.029 281.321 292.784 280.332L293.412 279.495C293.636 279.175 293.831 278.798 294.054 278.394C294.611 277.488 295.079 276.531 295.451 275.536C295.674 274.965 295.94 274.379 296.163 273.738C296.387 273.097 296.54 272.344 296.736 271.675C296.964 270.924 297.123 270.154 297.211 269.375C297.377 268.536 297.499 267.689 297.574 266.838C297.904 262.755 297.716 258.648 297.015 254.613C295.619 245.454 291.708 234.692 285.759 222.983C278.857 209.781 270.771 197.23 261.599 185.485C250.556 171.181 238.516 157.672 225.568 145.059C210.777 130.53 194.976 117.063 178.281 104.759C169.441 98.2912 160.126 92.0043 150.351 86.0799C140.358 80.0011 129.984 74.5719 119.291 69.826C108.271 64.8005 96.6643 61.1712 84.7411 59.0227C78.6547 57.9427 72.4397 57.7876 66.3068 58.5626C63.2395 59.0222 60.2476 59.8896 57.4108 61.1415C54.5549 62.4098 51.9998 64.2663 49.9131 66.5894C47.8265 68.9125 46.2554 71.6496 45.3029 74.6213C44.3765 77.5765 43.855 80.6432 43.7527 83.738C43.666 89.9084 44.5183 96.0562 46.2804 101.971C49.7742 113.554 54.71 124.653 60.972 135.009C66.9118 145.079 73.4986 154.755 80.6912 163.976C87.6739 173.037 95.0197 181.554 102.463 189.569C116.611 204.734 131.815 218.881 147.962 231.905C161.986 243.302 176.793 253.704 192.275 263.032C205.007 270.788 218.418 277.376 232.341 282.715C244.673 287.288 255.831 289.908 265.104 290.271C269.201 290.519 273.313 290.238 277.338 289.434C278.172 289.268 278.997 289.059 279.81 288.807C280.576 288.615 281.328 288.368 282.058 288.068L284.041 287.26C284.656 286.967 285.214 286.632 285.745 286.354C286.694 285.849 287.596 285.262 288.44 284.597C288.803 284.318 289.167 284.095 289.46 283.844L290.214 283.12L291.611 281.823L290.284 283.217L289.53 283.97C289.236 284.221 288.887 284.458 288.51 284.75C287.671 285.423 286.774 286.021 285.829 286.535C285.298 286.827 284.74 287.162 284.125 287.469L282.128 288.291C281.401 288.604 280.649 288.856 279.88 289.044C279.063 289.31 278.233 289.533 277.394 289.713C273.353 290.536 269.223 290.841 265.104 290.619C255.789 290.299 244.589 287.692 232.216 283.161C218.249 277.846 204.796 271.272 192.023 263.52C176.493 254.222 161.647 243.829 147.599 232.42C131.412 219.403 116.17 205.256 101.988 190.085C94.5169 182.056 87.1851 173.524 80.1605 164.45C72.9463 155.21 66.3363 145.515 60.3715 135.427C54.0797 125.016 49.1161 113.862 45.5961 102.222C43.8209 96.2241 42.9686 89.9916 43.0684 83.738C43.1678 80.5712 43.7035 77.4332 44.6605 74.4123C45.6303 71.3432 47.2406 68.514 49.3854 66.1113C51.5302 63.7085 54.1607 61.7867 57.1036 60.4724C59.9996 59.1846 63.0584 58.2982 66.1951 57.8378C72.4015 57.042 78.6934 57.1971 84.8529 58.2978C96.8368 60.4535 108.501 64.1066 119.571 69.1709C130.261 73.9384 140.627 79.4006 150.602 85.5223C160.378 91.4607 169.762 97.7615 178.533 104.243C195.243 116.589 211.059 130.098 225.861 144.669C238.802 157.31 250.833 170.846 261.864 185.178C271.029 196.969 279.102 209.567 285.982 222.816C291.904 234.567 295.758 245.384 297.155 254.571C297.843 258.631 298.007 262.763 297.644 266.866C297.57 267.722 297.448 268.574 297.28 269.417C297.17 270.199 297.002 270.973 296.778 271.731C296.568 272.456 296.373 273.125 296.191 273.808C296.01 274.491 295.674 275.034 295.451 275.606C295.055 276.606 294.559 277.563 293.971 278.464C293.733 278.868 293.538 279.244 293.314 279.565L292.658 280.387C292.002 281.363 291.652 281.851 291.652 281.851Z" fill="url(#paint3_linear_3274_2968)"/>
<path d="M336.341 174.139C336.341 174.139 336.272 173.498 336.174 172.257C336.174 171.941 336.146 171.593 336.09 171.212C336.09 170.821 335.923 170.417 335.839 169.957C335.656 168.902 335.375 167.866 335.001 166.862C334.791 166.291 334.596 165.677 334.344 165.05C334.093 164.423 333.716 163.81 333.381 163.126C333.029 162.401 332.618 161.707 332.152 161.049C331.691 160.38 331.3 159.655 330.755 158.931C328.282 155.66 325.4 152.719 322.181 150.176C315.016 144.294 304.933 138.829 292.7 134.048C278.742 128.784 264.336 124.79 249.658 122.115C231.886 118.787 213.9 116.714 195.836 115.912C175.104 114.917 154.328 115.383 133.662 117.306C122.755 118.338 111.61 119.843 100.34 121.948C88.8285 124.047 77.4648 126.887 66.3206 130.451C54.7327 134.021 43.6373 139.022 33.2925 145.339C28.0662 148.587 23.3585 152.6 19.3271 157.244C17.3398 159.62 15.686 162.256 14.4113 165.078C13.1297 167.927 12.467 171.016 12.467 174.139C12.467 177.262 13.1297 180.35 14.4113 183.2C15.6912 186.019 17.3445 188.654 19.3271 191.034C23.3596 195.657 28.0677 199.647 33.2925 202.869C43.6309 209.192 54.722 214.198 66.3067 217.771C77.4499 221.338 88.8138 224.179 100.326 226.274C111.596 228.393 122.741 229.884 133.648 230.916C154.313 232.846 175.09 233.312 195.822 232.31C213.886 231.509 231.872 229.436 249.644 226.107C264.323 223.436 278.729 219.442 292.686 214.174C304.933 209.393 315.03 203.928 322.167 198.046C325.39 195.507 328.272 192.565 330.741 189.292C331.245 188.611 331.711 187.904 332.138 187.173C332.586 186.529 332.978 185.848 333.311 185.137L334.275 183.214C334.526 182.586 334.721 181.973 334.931 181.402C335.306 180.398 335.586 179.362 335.769 178.307C335.853 177.861 335.964 177.443 336.02 177.066C336.076 176.69 336.02 176.328 336.104 176.021C336.202 174.766 336.272 174.139 336.272 174.139C336.272 174.139 336.272 174.78 336.174 176.021C336.174 176.341 336.174 176.69 336.174 177.08C336.174 177.471 336.02 177.875 335.936 178.335C335.763 179.394 335.492 180.434 335.126 181.443C334.917 182.029 334.735 182.642 334.47 183.283L333.534 185.221C333.2 185.935 332.807 186.62 332.361 187.27C331.9 187.953 331.509 188.734 330.965 189.431C328.495 192.734 325.609 195.705 322.376 198.269C315.212 204.207 305.115 209.727 292.867 214.551C278.89 219.848 264.461 223.87 249.756 226.567C231.963 229.935 213.954 232.045 195.864 232.881C175.102 233.917 154.292 233.484 133.592 231.585C122.671 230.553 111.513 229.062 100.201 226.957C88.6613 224.859 77.2697 222.018 66.0972 218.454C54.4537 214.866 43.3064 209.836 32.9154 203.482C27.5976 200.197 22.805 196.133 18.6986 191.424C16.6646 188.989 14.9732 186.287 13.6711 183.395C12.3589 180.463 11.6807 177.288 11.6807 174.076C11.6807 170.865 12.3589 167.69 13.6711 164.757C14.9786 161.872 16.6696 159.176 18.6986 156.742C22.8033 152.031 27.6017 147.97 32.9294 144.698C43.3133 138.344 54.4567 133.318 66.0972 129.741C77.2675 126.165 88.6595 123.32 100.201 121.223C111.499 119.118 122.657 117.627 133.578 116.595C154.279 114.701 175.088 114.272 195.85 115.313C213.946 116.151 231.96 118.27 249.756 121.655C264.453 124.365 278.873 128.401 292.839 133.713C305.101 138.551 315.184 144.057 322.362 149.995C325.582 152.57 328.459 155.544 330.923 158.847C331.427 159.537 331.893 160.254 332.319 160.994C332.76 161.648 333.152 162.332 333.493 163.043L334.428 164.994C334.694 165.622 334.875 166.249 335.085 166.821C335.452 167.834 335.723 168.879 335.895 169.943C335.978 170.389 336.076 170.807 336.132 171.198C336.188 171.588 336.132 171.936 336.132 172.243C336.341 173.498 336.341 174.139 336.341 174.139Z" fill="url(#paint4_linear_3274_2968)"/>
<path d="M277.073 40.0521C277.073 40.0521 276.515 39.7176 275.481 39.0345L274.601 38.463C274.266 38.2678 273.861 38.1005 273.456 37.8914C272.509 37.394 271.518 36.9835 270.496 36.6647C269.909 36.4835 269.309 36.2465 268.652 36.0653L266.515 35.5914C265.748 35.4233 264.968 35.3161 264.183 35.2708C263.359 35.2708 262.521 35.0616 261.628 35.0895C257.521 35.0411 253.425 35.5095 249.436 36.4835C240.4 38.5187 229.884 43.1328 218.614 49.8658C205.891 57.6449 193.901 66.5612 182.793 76.5048C169.268 88.4839 156.607 101.401 144.905 115.16C131.404 130.895 119.032 147.562 107.883 165.037C102.017 174.279 96.375 183.981 91.1241 194.171C85.7376 204.545 81.0262 215.254 77.019 226.233C72.7664 237.556 69.9514 249.367 68.6398 261.389C67.9782 267.524 68.256 273.724 69.4637 279.776C70.124 282.802 71.1953 285.723 72.6478 288.46C74.1144 291.209 76.1466 293.617 78.6111 295.527C81.0757 297.437 83.9169 298.805 86.9484 299.542C89.9646 300.266 93.0655 300.575 96.1655 300.462C102.337 300.122 108.421 298.848 114.209 296.685C125.548 292.404 136.306 286.724 146.231 279.776C155.885 273.168 165.098 265.941 173.813 258.141C182.388 250.544 190.404 242.668 197.903 234.694C212.061 219.562 225.128 203.45 237.007 186.476C247.455 171.747 256.849 156.301 265.119 140.252C271.989 127.034 277.65 113.224 282.031 98.9898C285.746 86.4439 287.617 75.1108 287.324 65.8548C287.29 61.7571 286.726 57.681 285.648 53.7271C285.422 52.9045 285.152 52.0948 284.838 51.3016C284.603 50.5545 284.309 49.8273 283.958 49.127C283.623 48.4578 283.316 47.733 283.023 47.2033C282.729 46.6735 282.31 46.0741 281.989 45.5723C281.423 44.6589 280.773 43.8002 280.048 43.0074C279.755 42.6589 279.489 42.3243 279.224 42.0455L278.442 41.3346C277.52 40.4982 277.045 40.0521 277.045 40.0521L278.442 41.2788L279.224 41.9758C279.503 42.2546 279.769 42.5892 280.076 42.9377C280.819 43.7179 281.478 44.5728 282.045 45.4887C282.38 46.0044 282.757 46.5341 283.106 47.1196L284.056 49.0433C284.424 49.7457 284.733 50.4778 284.978 51.2319C285.229 52.0125 285.606 52.7931 285.802 53.6713C286.904 57.6367 287.495 61.7262 287.561 65.8408C287.882 75.1387 286.053 86.4718 282.366 99.1013C278.02 113.378 272.382 127.231 265.524 140.489C257.287 156.587 247.92 172.085 237.495 186.867C225.619 203.877 212.552 220.027 198.392 235.196C190.879 243.197 182.863 251.087 174.274 258.712C165.538 266.533 156.301 273.779 146.623 280.403C136.672 287.389 125.881 293.099 114.502 297.396C108.614 299.607 102.42 300.9 96.1376 301.229C92.967 301.338 89.7961 301.019 86.711 300.281C83.5829 299.521 80.6509 298.109 78.1071 296.14C75.5633 294.17 73.465 291.686 71.9496 288.85C70.4639 286.053 69.3691 283.065 68.6956 279.971C67.4775 273.85 67.195 267.58 67.8577 261.375C69.1934 249.289 72.0413 237.417 76.3347 226.037C80.3587 215.057 85.0888 204.348 90.4956 193.976C95.7466 183.772 101.403 174.056 107.254 164.8C118.433 147.312 130.837 130.635 144.374 114.895C156.118 101.133 168.821 88.2158 182.388 76.2399C193.561 66.2582 205.627 57.318 218.433 49.5312C229.772 42.8122 240.316 38.226 249.408 36.2187C253.413 35.2261 257.53 34.7576 261.655 34.8247C262.515 34.8449 263.373 34.91 264.225 35.0198C265.015 35.0696 265.799 35.1815 266.571 35.3544L268.694 35.8005C269.35 35.9956 269.951 36.2187 270.537 36.4138C271.563 36.74 272.555 37.1649 273.498 37.6823C273.917 37.8914 274.308 38.0727 274.643 38.2678L275.509 38.8533C276.557 39.6757 277.073 40.0521 277.073 40.0521Z" fill="url(#paint5_linear_3274_2968)"/>
<path d="M6.01908 251.182C9.34333 251.182 12.0382 248.492 12.0382 245.174C12.0382 241.856 9.34333 239.166 6.01908 239.166C2.69483 239.166 0 241.856 0 245.174C0 248.492 2.69483 251.182 6.01908 251.182Z" fill="url(#paint6_linear_3274_2968)"/>
<path d="M350 54.69C349.997 55.8777 349.642 57.0379 348.979 58.0241C348.316 59.0103 347.375 59.7782 346.275 60.2308C345.175 60.6834 343.965 60.8003 342.798 60.5669C341.632 60.3336 340.56 59.7603 339.72 58.9195C338.88 58.0787 338.308 57.0081 338.077 55.843C337.845 54.678 337.965 53.4707 338.421 52.3736C338.877 51.2766 339.649 50.3391 340.638 49.6796C341.628 49.02 342.791 48.668 343.981 48.668C344.773 48.668 345.556 48.8238 346.288 49.1266C347.019 49.4294 347.683 49.8732 348.242 50.4326C348.801 50.992 349.244 51.656 349.546 52.3865C349.848 53.117 350.002 53.8998 350 54.69Z" fill="url(#paint7_linear_3274_2968)"/>
<path d="M48.2931 260.69C48.2931 260.994 48.2026 261.291 48.0332 261.543C47.8638 261.795 47.623 261.992 47.3415 262.108C47.06 262.223 46.7504 262.253 46.452 262.193C46.1537 262.132 45.88 261.985 45.6657 261.769C45.4514 261.553 45.3062 261.279 45.2485 260.98C45.1909 260.682 45.2233 260.373 45.3417 260.093C45.4601 259.813 45.6592 259.575 45.9136 259.408C46.1681 259.241 46.4664 259.154 46.7709 259.156C47.1759 259.16 47.563 259.323 47.8481 259.61C48.1332 259.897 48.2931 260.285 48.2931 260.69Z" fill="url(#paint8_linear_3274_2968)"/>
<path d="M80.9572 92.2717C80.9572 92.5749 80.867 92.8714 80.6982 93.1236C80.5294 93.3757 80.2895 93.5723 80.0088 93.6883C79.7281 93.8044 79.4192 93.8347 79.1213 93.7756C78.8233 93.7164 78.5496 93.5704 78.3347 93.3559C78.1199 93.1415 77.9736 92.8683 77.9143 92.5708C77.855 92.2734 77.8854 91.9651 78.0017 91.6849C78.118 91.4047 78.3149 91.1652 78.5675 90.9967C78.8201 90.8282 79.1171 90.7383 79.421 90.7383C79.8284 90.7383 80.2191 90.8998 80.5072 91.1874C80.7953 91.475 80.9572 91.865 80.9572 92.2717Z" fill="url(#paint9_linear_3274_2968)"/>
<path d="M319.75 174.139C319.75 174.443 319.66 174.74 319.49 174.992C319.321 175.245 319.08 175.441 318.799 175.557C318.517 175.673 318.207 175.702 317.909 175.642C317.611 175.581 317.337 175.434 317.123 175.218C316.908 175.002 316.763 174.728 316.706 174.429C316.648 174.131 316.68 173.822 316.799 173.542C316.917 173.262 317.116 173.024 317.371 172.857C317.625 172.69 317.923 172.603 318.228 172.606C318.429 172.606 318.628 172.645 318.814 172.723C318.999 172.8 319.168 172.913 319.309 173.055C319.451 173.198 319.563 173.367 319.638 173.553C319.714 173.739 319.752 173.938 319.75 174.139Z" fill="url(#paint10_linear_3274_2968)"/>
<path d="M341.02 102.918C341.022 103.222 340.934 103.521 340.767 103.775C340.599 104.029 340.359 104.228 340.078 104.346C339.797 104.464 339.486 104.495 339.187 104.436C338.888 104.378 338.613 104.231 338.397 104.016C338.182 103.801 338.035 103.526 337.976 103.228C337.917 102.929 337.949 102.619 338.067 102.339C338.185 102.058 338.384 101.819 338.639 101.651C338.893 101.484 339.192 101.396 339.497 101.399C339.901 101.399 340.288 101.559 340.574 101.844C340.859 102.128 341.02 102.515 341.02 102.918Z" fill="url(#paint11_linear_3274_2968)"/>
<defs>
<linearGradient id="paint0_linear_3274_2968" x1="119.708" y1="486.4" x2="363.916" y2="445.666" gradientUnits="userSpaceOnUse">
<stop stop-color="#EB4F63"/>
<stop offset="1" stop-color="#FA7B3F"/>
</linearGradient>
<linearGradient id="paint1_linear_3274_2968" x1="147.055" y1="271.438" x2="268.629" y2="251.474" gradientUnits="userSpaceOnUse">
<stop stop-color="#EB4F63"/>
<stop offset="1" stop-color="#FA7B3F"/>
</linearGradient>
<linearGradient id="paint2_linear_3274_2968" x1="137.632" y1="297.285" x2="288.485" y2="246.073" gradientUnits="userSpaceOnUse">
<stop stop-color="#EB4F63"/>
<stop offset="1" stop-color="#FA7B3F"/>
</linearGradient>
<linearGradient id="paint3_linear_3274_2968" x1="110.907" y1="430.7" x2="370.442" y2="369.101" gradientUnits="userSpaceOnUse">
<stop stop-color="#EB4F63"/>
<stop offset="1" stop-color="#FA7B3F"/>
</linearGradient>
<linearGradient id="paint4_linear_3274_2968" x1="98.1393" y1="304.631" x2="356.215" y2="151.141" gradientUnits="userSpaceOnUse">
<stop stop-color="#EB4F63"/>
<stop offset="1" stop-color="#FA7B3F"/>
</linearGradient>
<linearGradient id="paint5_linear_3274_2968" x1="126.119" y1="461.109" x2="355.555" y2="419.907" gradientUnits="userSpaceOnUse">
<stop stop-color="#EB4F63"/>
<stop offset="1" stop-color="#FA7B3F"/>
</linearGradient>
<linearGradient id="paint6_linear_3274_2968" x1="3.20582" y1="258.392" x2="15.5733" y2="255.698" gradientUnits="userSpaceOnUse">
<stop stop-color="#EB4F63"/>
<stop offset="1" stop-color="#FA7B3F"/>
</linearGradient>
<linearGradient id="paint7_linear_3274_2968" x1="341.168" y1="67.8938" x2="353.535" y2="65.2003" gradientUnits="userSpaceOnUse">
<stop stop-color="#EB4F63"/>
<stop offset="1" stop-color="#FA7B3F"/>
</linearGradient>
<linearGradient id="paint8_linear_3274_2968" x1="46.0389" y1="264.063" x2="49.1953" y2="263.376" gradientUnits="userSpaceOnUse">
<stop stop-color="#EB4F63"/>
<stop offset="1" stop-color="#FA7B3F"/>
</linearGradient>
<linearGradient id="paint9_linear_3274_2968" x1="78.703" y1="95.6451" x2="81.8594" y2="94.9577" gradientUnits="userSpaceOnUse">
<stop stop-color="#EB4F63"/>
<stop offset="1" stop-color="#FA7B3F"/>
</linearGradient>
<linearGradient id="paint10_linear_3274_2968" x1="317.496" y1="177.512" x2="320.652" y2="176.825" gradientUnits="userSpaceOnUse">
<stop stop-color="#EB4F63"/>
<stop offset="1" stop-color="#FA7B3F"/>
</linearGradient>
<linearGradient id="paint11_linear_3274_2968" x1="338.765" y1="106.305" x2="341.922" y2="105.618" gradientUnits="userSpaceOnUse">
<stop stop-color="#EB4F63"/>
<stop offset="1" stop-color="#FA7B3F"/>
</linearGradient>
</defs>
</svg>
