<?xml version="1.0" encoding="utf-8"?>

<!--
 * Copyright (c) 2020, WSO2 Inc. (http://www.wso2.org) All Rights Reserved.
 *
 * WSO2 Inc. licenses this file to you under the Apache License,
 * Version 2.0 (the "License"); you may not use this file except
 * in compliance with the License.
 * You may obtain a copy of the License at
 *
 *     http://www.apache.org/licenses/LICENSE-2.0
 *
 * Unless required by applicable law or agreed to in writing,
 * software distributed under the License is distributed on an
 * "AS IS" BASIS, WITHOUT WARRANTIES OR CONDITIONS OF ANY
 * KIND, either express or implied. See the License for the
 * specific language governing permissions and limitations
 * under the License.
-->

<svg xmlns:xlink="http://www.w3.org/1999/xlink" id="expert-idp-illustration" class="icon"
     xmlns="http://www.w3.org/2000/svg"
     width="100" height="100"
     viewBox="0 0 136.332 155.236">
    <g transform="translate(-571.619 -136.789)">
        <path class="path fill primary" d="M108.412,24.1A38.679,38.679,0,1,0,43.7,64.416,29.358,29.358,0,0,1,50.993,85q-.051,1.5-.013,3.028a52.1,52.1,0,0,0,51.407,50.123,51.407,51.407,0,0,0,21.239-98.185,29.676,29.676,0,0,1-15.207-15.868Z"
              transform="translate(549.019 143.837)" fill="#ff5000" opacity="0.1" />
        <path class="path fill primary" d="M52.952,0A52.952,52.952,0,1,1,0,52.952,52.952,52.952,0,0,1,52.952,0Z"
              transform="translate(590.685 157.999)" fill="#ff5000" opacity="0.1"/>
        <path class="path fill primary" d="M47.872,0C74.31,0,95.743,22.46,95.743,50.165S74.31,100.33,47.872,100.33,0,77.87,0,50.165,21.433,0,47.872,0Z"
              transform="translate(595.313 169.885)" fill="#ffd1bc" opacity="0.6"/>
        <path class="path fill stroke primary" d="M10.434,57.589H95.313a12.071,12.071,0,0,0,.2-1.806V53.576A65.338,65.338,0,0,0,92.2,32.407a51.664,51.664,0,0,0-9.431-16.956A43.815,43.815,0,0,0,68.024,4.114,44.674,44.674,0,0,0,48.56,0,44.141,44.141,0,0,0,29.3,4.214a48.789,48.789,0,0,0-15.35,11.438A53.433,53.433,0,0,0,3.712,32.607,57.776,57.776,0,0,0,0,53.376v.4A57.26,57.26,0,0,0,4.023,75.649,51.316,51.316,0,0,0,14.984,92.5a48.74,48.74,0,0,0,16.09,10.836,49.455,49.455,0,0,0,19.207,3.813q14.683,0,24.639-5.518A71.349,71.349,0,0,0,92.7,87.688l-6.822-6.02A60.27,60.27,0,0,1,71.095,93.106q-8.351,4.615-20.422,4.615a39.948,39.948,0,0,1-14.585-2.695A37.266,37.266,0,0,1,23.714,87.14a43.965,43.965,0,0,1-9.053-12.579A44.593,44.593,0,0,1,10.434,57.589Zm0-8.829a47.261,47.261,0,0,1,3.824-15.752A45.083,45.083,0,0,1,22.4,20.367,35.722,35.722,0,0,1,33.974,12.04,34.193,34.193,0,0,1,48.259,9.03a34.3,34.3,0,0,1,15.493,3.311A33.694,33.694,0,0,1,74.918,21.17,41.535,41.535,0,0,1,81.96,33.811,58.183,58.183,0,0,1,85.08,48.76Z"
              transform="matrix(0.951, -0.309, 0.309, 0.951, 581.268, 182.85)" fill="#ffa052" stroke="#ff5000"
              stroke-width="2" style="fill-opacity: 0.5;"/>
        <path class="path fill stroke primary" d="M21.008,0A21.008,21.008,0,1,1,0,21.008,21.008,21.008,0,0,1,21.008,0Z"
              transform="translate(598.036 153.45)" fill="#ffa052" stroke="#ff5000" stroke-width="2" style="fill-opacity: 0.8;"/>
        <path d="M14.886,11.269A8.687,8.687,0,0,0,11.572,9.2a5.042,5.042,0,1,0-5.706,0A8.733,8.733,0,0,0,0,17.435H1.361a7.362,7.362,0,0,1,14.723,0h1.361A8.664,8.664,0,0,0,14.886,11.269ZM8.72,8.715A3.678,3.678,0,1,1,12.4,5.037,3.678,3.678,0,0,1,8.72,8.715Z"
              transform="translate(610.058 164.557)" fill="#fff" stroke="#fff" stroke-width="0.5"/>
        <path class="path fill primary" d="M231.308,59.175l-5.851-5.851a2.658,2.658,0,0,0-3.764,0l-5.851,5.851a2.661,2.661,0,0,0,0,3.764l5.851,5.851a2.661,2.661,0,0,0,3.764,0l5.851-5.851a2.661,2.661,0,0,0,0-3.763Zm-7.734,3.983-2.092-2.092,2.092-2.092,2.092,2.092Z"
              transform="translate(356.555 143.062)" fill="#ffa052" opacity="0.3"/>
        <path class="path fill stroke primary" d="M166.891,39.533a2.337,2.337,0,0,1-2.333-2.333,1.94,1.94,0,1,0-3.881,0,2.337,2.337,0,0,1-2.335,2.333,1.94,1.94,0,1,0,0,3.881,2.337,2.337,0,0,1,2.335,2.333,1.94,1.94,0,0,0,3.881,0,2.337,2.337,0,0,1,2.333-2.333,1.94,1.94,0,0,0,0-3.881Z"
              transform="translate(464.963 101.529)" fill="#f8cfbc" opacity="0.3"/>
        <path class="path fill stroke primary" d="M353.455,59.175,347.6,53.324a2.658,2.658,0,0,0-3.763,0l-5.851,5.851a2.661,2.661,0,0,0,0,3.764l5.851,5.851a2.661,2.661,0,0,0,3.764,0l5.851-5.851a2.661,2.661,0,0,0,0-3.763Zm-7.734,3.983-2.092-2.092,2.092-2.092,2.092,2.092Z"
              transform="translate(345.298 119.815)" fill="#ffb898" opacity="0.3"/>
        <path class="path fill stroke primary" d="M97.42,458.712a2.108,2.108,0,0,1-2.108-2.108,2.542,2.542,0,0,0-2.539-2.537,2.109,2.109,0,1,1,0-4.218,2.542,2.542,0,0,0,2.539-2.537,2.109,2.109,0,1,1,4.218,0,2.542,2.542,0,0,0,2.537,2.537,2.109,2.109,0,1,1,0,4.218,2.542,2.542,0,0,0-2.537,2.537,2.108,2.108,0,0,1-2.11,2.108Z"
              transform="translate(557.488 -166.688)" fill="#ffe783" opacity="0.3"/>
        <path class="path fill stroke primary" d="M321.292,278.857a2.5,2.5,0,0,0,1.155-1.763,148.411,148.411,0,0,0,1.091-19.54,156.328,156.328,0,0,0-.951-18.518,2.5,2.5,0,0,0-2.483-2.181H282.5a2.5,2.5,0,0,0-2.483,2.18,156.3,156.3,0,0,0-.951,18.518,148.437,148.437,0,0,0,1.091,19.54,2.5,2.5,0,0,0,1.155,1.763l17.019,10.579a5.636,5.636,0,0,0,5.951,0Z"
              transform="translate(383.406 -6.663)" fill="#ffa052" stroke="#ff5000" stroke-width="2" style="fill-opacity: 0.7;"/>
        <path d="M56.107,67.206a124.1,124.1,0,0,0-.678,17.137c.14,11.395.678,12.374.678,12.374l14.229,9.132,14.247-9.132s.513-2.122.558-12.887-.558-16.623-.558-16.623Z"
              transform="translate(614.42 170.494)" fill="#f5f4f9"/>
        <path class="path fill primary" d="M77.872,6.884H76.684V5.35a5.552,5.552,0,0,0-11.1,0V6.884H64.4a.389.389,0,0,0-.4.382v9.558a1.56,1.56,0,0,0,1.586,1.535h11.1a1.56,1.56,0,0,0,1.585-1.535V7.266a.389.389,0,0,0-.4-.382Zm-5.551,7.985a.374.374,0,0,1-.1.3.4.4,0,0,1-.3.127H70.342a.4.4,0,0,1-.3-.127.374.374,0,0,1-.1-.3L70.2,12.7a1.5,1.5,0,0,1-.649-1.23,1.586,1.586,0,0,1,3.171,0,1.5,1.5,0,0,1-.649,1.23Zm1.984-7.985H67.963V5.35a3.172,3.172,0,0,1,6.342,0Z"
              transform="translate(613.876 245.065)" fill="#ff7c41"/>
        <path class="path fill stroke primary" d="M21.008,0A21.008,21.008,0,1,1,0,21.008,21.008,21.008,0,0,1,21.008,0Z"
              transform="translate(577.372 215.443)" fill="#fdd250" stroke="#ff5000" stroke-width="2" style="fill-opacity: 0.9;"/>
        <path d="M14.886,11.269A8.687,8.687,0,0,0,11.572,9.2a5.042,5.042,0,1,0-5.706,0A8.733,8.733,0,0,0,0,17.435H1.361a7.362,7.362,0,0,1,14.723,0h1.361A8.664,8.664,0,0,0,14.886,11.269ZM8.72,8.715A3.678,3.678,0,1,1,12.4,5.037,3.678,3.678,0,0,1,8.72,8.715Z"
              transform="translate(589.394 226.551)" fill="#fff" stroke="#fff" stroke-width="0.5"/>
    </g>
</svg>
