<?xml version="1.0" encoding="utf-8"?>

<!--
 * Copyright (c) 2020, WSO2 Inc. (http://www.wso2.org) All Rights Reserved.
 *
 * WSO2 Inc. licenses this file to you under the Apache License,
 * Version 2.0 (the "License"); you may not use this file except
 * in compliance with the License.
 * You may obtain a copy of the License at
 *
 *     http://www.apache.org/licenses/LICENSE-2.0
 *
 * Unless required by applicable law or agreed to in writing,
 * software distributed under the License is distributed on an
 * "AS IS" BASIS, WITHOUT WARRANTIES OR CONDITIONS OF ANY
 * KIND, either express or implied. See the License for the
 * specific language governing permissions and limitations
 * under the License.
-->

<svg id="github-idp-illustration" class="icon" xmlns="http://www.w3.org/2000/svg" xmlns:xlink="http://www.w3.org/1999/xlink"
     width="100"
     height="100"
     viewBox="0 0 184.155 167.949">
    <g transform="translate(-753.323 -77.967)">
        <path class="path fill primary" d="M119.635,27.742A44.506,44.506,0,1,0,45.192,74.128a33.775,33.775,0,0,1,8.389,23.677q-.058,1.729-.016,3.483a59.939,59.939,0,0,0,59.143,57.664A59.133,59.133,0,0,0,137.145,45.986a34.15,34.15,0,0,1-17.51-18.244Z"
              transform="matrix(0.208, 0.978, -0.978, 0.208, 901.753, 44.809)" fill="#ff5000" opacity="0.1" />
        <circle class="path fill primary" cx="62" cy="62" r="62" transform="translate(783 101)" fill="#ff5000" opacity="0.2"/>
        <path class="path fill primary" d="M426.315,170.61a1.484,1.484,0,0,1-1.484-1.484,1.78,1.78,0,0,0-1.778-1.778,1.484,1.484,0,1,1,0-2.969,1.78,1.78,0,0,0,1.778-1.778,1.484,1.484,0,1,1,2.969,0,1.781,1.781,0,0,0,1.778,1.778,1.484,1.484,0,0,1,0,2.969,1.781,1.781,0,0,0-1.778,1.778,1.484,1.484,0,0,1-1.484,1.484Z"
              transform="matrix(-0.035, -0.999, 0.999, -0.035, 671.96, 529.194)" fill="#ffe783" opacity="0.3"/>
        <path class="path fill primary" d="M70.611,423.485a1.485,1.485,0,0,1-1.047-.434L66.311,419.8a1.484,1.484,0,0,1,0-2.095l3.252-3.252a1.484,1.484,0,0,1,2.095,0L74.91,417.7a1.484,1.484,0,0,1,0,2.095l-3.252,3.259A1.485,1.485,0,0,1,70.611,423.485Zm-1.154-4.735,1.154,1.154,1.154-1.154L70.611,417.6Z"
              transform="matrix(-0.035, -0.999, 0.999, -0.035, 482.773, 297.805)" fill="#ffa052" opacity="0.3"/>
        <path class="path fill primary" d="M396.921,114.711a1.475,1.475,0,0,1-1.047-.434l-3.252-3.252a1.484,1.484,0,0,1,0-2.095l3.252-3.252a1.484,1.484,0,0,1,2.095,0l3.252,3.252a1.484,1.484,0,0,1,0,2.095l-3.252,3.252a1.484,1.484,0,0,1-1.047.434Zm-1.155-4.733,1.155,1.154,1.154-1.154-1.154-1.154Z"
              transform="matrix(-0.035, -0.999, 0.999, -0.035, 695.545, 508.151)" fill="#ffa052" opacity="0.3"/>
        <path class="path fill primary" d="M142.881,49.889a1.484,1.484,0,0,1-1.047-.434L138.581,46.2a1.484,1.484,0,0,1,0-2.095l3.252-3.252a1.484,1.484,0,0,1,2.095,0l3.252,3.252a1.484,1.484,0,0,1,0,2.095l-3.252,3.252a1.475,1.475,0,0,1-1.047.434Zm-1.154-4.735,1.154,1.154,1.154-1.154L142.881,44Z"
              transform="matrix(-0.035, -0.999, 0.999, -0.035, 734.897, 327.884)" fill="#ffa052" opacity="0.3"/>
        <circle cx="58" cy="58" r="58" transform="translate(788 107)" fill="#f5f4f9"/>
        <g transform="translate(788 106.562)">
            <path class="path fill primary" d="M78.093,113.249a10.654,10.654,0,0,1-1.719.553c-2.233.4-3.663-.754-3.676-3.037-.03-4.239-.03-8.471.04-12.71.072-4.875-.04-9.687-3.751-13.708,2.207-.4,4.17-.672,6.09-1.113C87.8,80.313,94.4,72.29,95.246,58.974c.431-6.778-.777-13-5.283-18.336a2.229,2.229,0,0,1-.188-1.775,22.347,22.347,0,0,0-.547-13.04,1.666,1.666,0,0,0-1.983-1.341,20.257,20.257,0,0,0-10.174,3.534A10.631,10.631,0,0,1,68,29.6c-7.608-1.716-15.266-1.215-22.858.543a4.19,4.19,0,0,1-2.8-.53C38.776,27.529,35.213,25.5,31.1,24.69c-3.178-.619-3.455-.461-4.3,2.612a21.488,21.488,0,0,0-.082,11.646,2.357,2.357,0,0,1-.385,1.894c-8.422,9.4-5.372,27.153.3,33.954,4.413,5.283,10.276,7.661,16.784,8.9,1.136.211,2.266.372,3.4.57-.975,2.536-1.851,4.931-2.842,7.286a2.4,2.4,0,0,1-1.314,1.028c-6.383,2.477-11.87.655-15.523-5.138-1.953-3.089-4.46-5.4-8.195-6.067A1.151,1.151,0,0,0,18.6,81.3c-1,.263-2,.54-3,.81.563.784.962,1.838,1.716,2.309A16.778,16.778,0,0,1,23.9,92.648c2.138,5.283,6.288,7.638,11.679,8.1,2.632.214,5.29.033,8.172.033,0,3.28.119,7.025-.049,10.754-.086,2.009-2.1,2.813-4.522,1.989a52.582,52.582,0,0,1-17.493-9.759C3.149,87.793-4,67.6,2.164,43.971,8.307,20.415,24.317,5.966,48.255,1.43c33.124-6.265,64.5,17.858,67.79,51.483A58.034,58.034,0,0,1,78.093,113.249ZM46.866,84.137l-.053.125.181.03C47.04,84.3,47.08,84.377,46.866,84.137ZM31.879,94.614a7.454,7.454,0,0,0,1.571.9c.2.066.583-.4,1.252-.893a11.327,11.327,0,0,0-2.052-.741C32.426,93.853,32.136,94.357,31.879,94.614Zm4.72.81a1.462,1.462,0,0,0,1.169.771c.392-.007.774-.527,1.166-.823-.356-.326-.711-.642-1.8-1.627C36.892,94.43,36.5,94.983,36.6,95.424Zm5.79-1.393a4.638,4.638,0,0,0-1.344.876c.26.329.52.636.939,1.153.576-.527.968-.893,1.364-1.248C43.019,94.525,42.633,93.972,42.389,94.031ZM28.036,92.078a12.994,12.994,0,0,0,1.255,1.673c.379-.619.79-1.093.718-1.189a6.362,6.362,0,0,0-1.327-1.209C28.648,91.327,27.98,91.966,28.036,92.078Z"
                  transform="translate(0 0)" fill="#ffa052" opacity="0.9"/>
        </g>
        <path class="path fill primary" d="M-2930,2274a57.64,57.64,0,0,1-22.577-4.558,57.813,57.813,0,0,1-18.436-12.43,57.813,57.813,0,0,1-12.43-18.436A57.64,57.64,0,0,1-2988,2216a57.636,57.636,0,0,1,4.558-22.576,57.811,57.811,0,0,1,12.43-18.436,57.813,57.813,0,0,1,18.436-12.43A57.64,57.64,0,0,1-2930,2158a57.636,57.636,0,0,1,22.576,4.558,57.811,57.811,0,0,1,18.436,12.43,57.811,57.811,0,0,1,12.43,18.436A57.636,57.636,0,0,1-2872,2216a57.64,57.64,0,0,1-4.558,22.577,57.813,57.813,0,0,1-12.43,18.436,57.811,57.811,0,0,1-18.436,12.43A57.636,57.636,0,0,1-2930,2274Zm0-113a55.063,55.063,0,0,0-55,55,55.063,55.063,0,0,0,55,55,55.062,55.062,0,0,0,55-55A55.062,55.062,0,0,0-2930,2161Z"
              transform="translate(3776 -2051)" fill="#ff5000"/>
    </g>
</svg>
