<?xml version="1.0" encoding="utf-8"?>

<!--
 * Copyright (c) 2020, WSO2 Inc. (http://www.wso2.org) All Rights Reserved.
 *
 * WSO2 Inc. licenses this file to you under the Apache License,
 * Version 2.0 (the "License"); you may not use this file except
 * in compliance with the License.
 * You may obtain a copy of the License at
 *
 *     http://www.apache.org/licenses/LICENSE-2.0
 *
 * Unless required by applicable law or agreed to in writing,
 * software distributed under the License is distributed on an
 * "AS IS" BASIS, WITHOUT WARRANTIES OR CONDITIONS OF ANY
 * KIND, either express or implied. See the License for the
 * specific language governing permissions and limitations
 * under the License.
-->

<svg id="google-idp-illustration" class="icon" xmlns="http://www.w3.org/2000/svg" xmlns:xlink="http://www.w3.org/1999/xlink"
     width="100"
     height="100"
     viewBox="0 0 167.661 132.967">
    <g transform="translate(-505.507 -96.033)">
        <path class="path fill primary" d="M165.587,136.08a38.571,38.571,0,0,0-22.877-23.645,14.006,14.006,0,0,1-9.034-12.915q0-.182,0-.377A38.651,38.651,0,0,0,63.922,77.1,31.541,31.541,0,0,1,38.68,90.187q-.441,0-.884.009A39.38,39.38,0,0,0,0,128.317a38.662,38.662,0,0,0,74.967,13.805,7.911,7.911,0,0,1,9.59-4.837l.15.042a7.891,7.891,0,0,1,5.747,8.226,38.66,38.66,0,1,0,75.127-9.48Z"
              transform="translate(505.509 36.119)" fill="#ff5000" opacity="0.1" />
        <path class="path fill primary" d="M59.433,0c34.656-.806,59.433,27.59,59.433,61.624s-26.609,61.624-59.433,61.624S0,95.658,0,61.624,24.777.806,59.433,0Z"
              transform="translate(526.519 104.083)" fill="#ff5000" opacity="0.2"/>
        <path class="path fill primary" d="M58.539,0c34.135-.793,58.539,27.175,58.539,60.7s-26.209,60.7-58.539,60.7S0,94.22,0,60.7,24.4.793,58.539,0Z"
              transform="translate(532.519 106.937)" fill="#ffbd9f" opacity="0.6"/>
        <path class="path fill primary" d="M426.315,170.61a1.484,1.484,0,0,1-1.484-1.484,1.78,1.78,0,0,0-1.778-1.778,1.484,1.484,0,1,1,0-2.969,1.78,1.78,0,0,0,1.778-1.778,1.484,1.484,0,1,1,2.969,0,1.781,1.781,0,0,0,1.778,1.778,1.484,1.484,0,0,1,0,2.969,1.781,1.781,0,0,0-1.778,1.778,1.484,1.484,0,0,1-1.484,1.484Z"
              transform="translate(227.824 -29.341)" fill="#ffe783" opacity="0.3"/>
        <path class="path fill primary" d="M70.611,423.485a1.485,1.485,0,0,1-1.047-.434L66.311,419.8a1.484,1.484,0,0,1,0-2.095l3.252-3.252a1.484,1.484,0,0,1,2.095,0L74.91,417.7a1.484,1.484,0,0,1,0,2.095l-3.252,3.259A1.485,1.485,0,0,1,70.611,423.485Zm-1.154-4.735,1.154,1.154,1.154-1.154L70.611,417.6Z"
              transform="translate(466.15 -195.312)" fill="#ffa052" opacity="0.3"/>
        <path class="path fill primary" d="M396.921,114.711a1.475,1.475,0,0,1-1.047-.434l-3.252-3.252a1.484,1.484,0,0,1,0-2.095l3.252-3.252a1.484,1.484,0,0,1,2.095,0l3.252,3.252a1.484,1.484,0,0,1,0,2.095l-3.252,3.252a1.484,1.484,0,0,1-1.047.434Zm-1.155-4.733,1.155,1.154,1.154-1.154-1.154-1.154Z"
              transform="translate(248.507 9.99)" fill="#ffa052" opacity="0.3"/>
        <path class="path fill primary" d="M142.881,49.889a1.484,1.484,0,0,1-1.047-.434L138.581,46.2a1.484,1.484,0,0,1,0-2.095l3.252-3.252a1.484,1.484,0,0,1,2.095,0l3.252,3.252a1.484,1.484,0,0,1,0,2.095l-3.252,3.252a1.475,1.475,0,0,1-1.047.434Zm-1.154-4.735,1.154,1.154,1.154-1.154L142.881,44Z"
              transform="translate(427.291 55.609)" fill="#ffa052" opacity="0.3"/>
        <g transform="translate(531.05 107.234)">
            <path d="M330.3,235.412a71.258,71.258,0,0,0-1.046-12.312H272.1v23.333h32.728a28.046,28.046,0,0,1-12.112,18.412v15.14h19.526C323.708,269.431,330.3,253.847,330.3,235.412Z"
                  transform="translate(-211.559 -173.443)" fill="#f5f4f9"/>
            <path class="path fill primary" d="M83.046,373.281c16.342,0,30.123-5.366,40.164-14.627l-19.526-15.14c-5.432,3.7-12.446,5.789-20.616,5.789-15.807,0-29.21-10.664-34.019-25H28.9v15.607A60.6,60.6,0,0,0,83.046,373.281Z"
                  transform="translate(-22.505 -252.112)" fill="#ffa052" opacity="0.9"/>
            <path class="path fill primary" d="M26.522,188.806a36.293,36.293,0,0,1,0-23.2V150H6.4a60.643,60.643,0,0,0,0,54.413Z"
                  transform="translate(0 -116.618)" fill="#fdd250" opacity="0.4"/>
            <path class="path fill primary" d="M83.046,23.964a32.926,32.926,0,0,1,23.244,9.084h0l17.3-17.3A58.235,58.235,0,0,0,83.046-.014,60.58,60.58,0,0,0,28.9,33.382L49.027,48.989C53.813,34.629,67.239,23.964,83.046,23.964Z"
                  transform="translate(-22.505 0)" fill="#ffa052" opacity="0.9"/>
        </g>
        <path class="path fill primary" d="M-2927,2280a60.609,60.609,0,0,1-23.744-4.794,60.777,60.777,0,0,1-19.39-13.073,60.8,60.8,0,0,1-13.073-19.39A60.626,60.626,0,0,1-2988,2219a60.624,60.624,0,0,1,4.793-23.744,60.805,60.805,0,0,1,13.073-19.39,60.8,60.8,0,0,1,19.39-13.073A60.623,60.623,0,0,1-2927,2158a60.631,60.631,0,0,1,23.745,4.793,60.763,60.763,0,0,1,16.931,10.745l-2.164,2.128A57.883,57.883,0,0,0-2927,2161a58.066,58.066,0,0,0-58,58,58.066,58.066,0,0,0,58,58,58.066,58.066,0,0,0,58-58,58.247,58.247,0,0,0-1.071-11.128l3.055-.044A61.6,61.6,0,0,1-2866,2219a60.622,60.622,0,0,1-4.793,23.744,60.794,60.794,0,0,1-13.073,19.39,60.8,60.8,0,0,1-19.389,13.073A60.617,60.617,0,0,1-2927,2280Z"
              transform="translate(3519 -2051)" fill="#ff5000"/>
        <path d="M3617.694-2032.417l3-3.862,13.4,12.682s7.2,22.293,7.061,22.14-5.315,0-5.315,0Z"
              transform="translate(-2988 2158)" fill="none"/>
        <path class="path stroke primary" d="M3579.518-2002.094h58.715" transform="translate(-2987.518 2159)" fill="none" stroke="#ff5000"
              stroke-linecap="round" stroke-width="2.5"/>
        <path class="path stroke primary" d="M3579.742-2002.155l24.329.062" transform="matrix(0.695, -0.719, 0.719, 0.695, -431.788, 4106.632)"
              fill="none" stroke="#ff5000" stroke-linecap="round" stroke-width="2.5"/>
        <path class="path stroke primary" d="M3612.378-1976.819l-33,.04v-24.457" transform="translate(-2987.958 2156.897)" fill="none"
              stroke="#ffd5b8" stroke-width="2"/>
        <path class="path fill primary" d="M-2951,2232a36.755,36.755,0,0,1-14.4-2.908,36.867,36.867,0,0,1-11.761-7.929,36.88,36.88,0,0,1-7.929-11.761A36.762,36.762,0,0,1-2988,2195a36.774,36.774,0,0,1,2.908-14.4,36.878,36.878,0,0,1,7.929-11.76,36.884,36.884,0,0,1,11.761-7.93A36.773,36.773,0,0,1-2951,2158a36.776,36.776,0,0,1,14.4,2.907,36.869,36.869,0,0,1,10.334,6.575c-.863.983-1.5,1.7-1.994,2.264A33.914,33.914,0,0,0-2951,2161a34.039,34.039,0,0,0-34,34,34.039,34.039,0,0,0,34,34,34.036,34.036,0,0,0,32.155-22.945h3.166c-.354,1.132-.768,2.257-1.229,3.346a36.9,36.9,0,0,1-7.93,11.761,36.87,36.87,0,0,1-11.761,7.929A36.757,36.757,0,0,1-2951,2232Z"
              transform="translate(3543 -2027)" fill="#ffd5b8" opacity="0.6"/>
    </g>
</svg>
