<?xml version="1.0" encoding="utf-8"?>

<!--
 * Copyright (c) 2020, WSO2 Inc. (http://www.wso2.org) All Rights Reserved.
 *
 * WSO2 Inc. licenses this file to you under the Apache License,
 * Version 2.0 (the "License"); you may not use this file except
 * in compliance with the License.
 * You may obtain a copy of the License at
 *
 *     http://www.apache.org/licenses/LICENSE-2.0
 *
 * Unless required by applicable law or agreed to in writing,
 * software distributed under the License is distributed on an
 * "AS IS" BASIS, WITHOUT WARRANTIES OR CONDITIONS OF ANY
 * KIND, either express or implied. See the License for the
 * specific language governing permissions and limitations
 * under the License.
-->

<svg id="twitter-idp-illustration" class="icon" xmlns="http://www.w3.org/2000/svg" xmlns:xlink="http://www.w3.org/1999/xlink"
     width="100"
     height="100"
     viewBox="0 0 205.861 186.61">
    <g transform="translate(-1007.407 -64.12)">
        <path class="path fill primary" d="M165.587,136.08a38.571,38.571,0,0,0-22.877-23.645,14.006,14.006,0,0,1-9.034-12.915q0-.182,0-.377A38.651,38.651,0,0,0,63.922,77.1,31.541,31.541,0,0,1,38.68,90.187q-.441,0-.884.009A39.38,39.38,0,0,0,0,128.317a38.662,38.662,0,0,0,74.967,13.805,7.911,7.911,0,0,1,9.59-4.837l.15.042a7.891,7.891,0,0,1,5.747,8.226,38.66,38.66,0,1,0,75.127-9.48Z"
              transform="matrix(-0.899, 0.438, -0.438, -0.899, 1240.174, 232.402)" fill="#ff5000" opacity="0.1" />
        <path class="path fill primary" d="M426.315,170.61a1.484,1.484,0,0,1-1.484-1.484,1.78,1.78,0,0,0-1.778-1.778,1.484,1.484,0,1,1,0-2.969,1.78,1.78,0,0,0,1.778-1.778,1.484,1.484,0,1,1,2.969,0,1.781,1.781,0,0,0,1.778,1.778,1.484,1.484,0,0,1,0,2.969,1.781,1.781,0,0,0-1.778,1.778,1.484,1.484,0,0,1-1.484,1.484Z"
              transform="matrix(-0.035, -0.999, 0.999, -0.035, 940.96, 524.194)" fill="#ffe783" opacity="0.3"/>
        <path class="path fill primary" d="M70.611,423.485a1.485,1.485,0,0,1-1.047-.434L66.311,419.8a1.484,1.484,0,0,1,0-2.095l3.252-3.252a1.484,1.484,0,0,1,2.095,0L74.91,417.7a1.484,1.484,0,0,1,0,2.095l-3.252,3.259A1.485,1.485,0,0,1,70.611,423.485Zm-1.154-4.735,1.154,1.154,1.154-1.154L70.611,417.6Z"
              transform="matrix(-0.035, -0.999, 0.999, -0.035, 751.773, 292.805)" fill="#ffa052" opacity="0.3"/>
        <path class="path fill primary" d="M396.921,114.711a1.475,1.475,0,0,1-1.047-.434l-3.252-3.252a1.484,1.484,0,0,1,0-2.095l3.252-3.252a1.484,1.484,0,0,1,2.095,0l3.252,3.252a1.484,1.484,0,0,1,0,2.095l-3.252,3.252a1.484,1.484,0,0,1-1.047.434Zm-1.155-4.733,1.155,1.154,1.154-1.154-1.154-1.154Z"
              transform="matrix(-0.035, -0.999, 0.999, -0.035, 964.545, 503.151)" fill="#ffa052" opacity="0.3"/>
        <path class="path fill primary" d="M142.881,49.889a1.484,1.484,0,0,1-1.047-.434L138.581,46.2a1.484,1.484,0,0,1,0-2.095l3.252-3.252a1.484,1.484,0,0,1,2.095,0l3.252,3.252a1.484,1.484,0,0,1,0,2.095l-3.252,3.252a1.475,1.475,0,0,1-1.047.434Zm-1.154-4.735,1.154,1.154,1.154-1.154L142.881,44Z"
              transform="matrix(-0.035, -0.999, 0.999, -0.035, 1003.897, 322.884)" fill="#ffa052" opacity="0.3"/>
        <g transform="translate(1045.492 115.401)" opacity="0.21">
            <path class="path fill primary" d="M120.371,12.4a49.377,49.377,0,0,1-14.184,3.889A24.769,24.769,0,0,0,117.045,2.628a49.454,49.454,0,0,1-15.682,5.993A24.718,24.718,0,0,0,59.281,31.145a70.111,70.111,0,0,1-50.9-25.8,24.722,24.722,0,0,0,7.643,32.97A24.6,24.6,0,0,1,4.837,35.224c0,.1,0,.207,0,.31A24.711,24.711,0,0,0,24.645,59.75a24.754,24.754,0,0,1-11.153.423,24.72,24.72,0,0,0,23.069,17.15A49.552,49.552,0,0,1,5.891,87.895,50.242,50.242,0,0,1,0,87.55a69.9,69.9,0,0,0,37.856,11.1c45.424,0,70.263-37.63,70.263-70.264q0-1.606-.071-3.195A50.2,50.2,0,0,0,120.371,12.4"
                  fill="#ff5000"/>
        </g>
        <g transform="translate(1052 120.065)">
            <path class="path fill stroke primary" d="M115.863,11.968a47.528,47.528,0,0,1-13.653,3.743A23.841,23.841,0,0,0,112.662,2.56,47.6,47.6,0,0,1,97.567,8.329a23.792,23.792,0,0,0-40.506,21.68,67.485,67.485,0,0,1-49-24.836,23.8,23.8,0,0,0,7.357,31.735A23.675,23.675,0,0,1,4.655,33.936c0,.1,0,.2,0,.3A23.785,23.785,0,0,0,23.722,57.543a23.827,23.827,0,0,1-10.735.407A23.794,23.794,0,0,0,35.192,74.458,47.7,47.7,0,0,1,5.67,84.634,48.36,48.36,0,0,1,0,84.3a67.282,67.282,0,0,0,36.438,10.68c43.723,0,67.632-36.221,67.632-67.633q0-1.546-.069-3.075a48.315,48.315,0,0,0,11.861-12.305"
                  fill="#ffa052" stroke="#ff5000" stroke-width="2.5" style="fill-opacity: 0.8;"/>
        </g>
        <path class="path stroke primary" d="M4137.776-1992.865c-2.964,7.074-9.378,25.682-27.655,35.425" transform="translate(-2992 2159)"
              fill="none" stroke="#fdd250" stroke-linecap="round" stroke-width="2.5"/>
    </g>
</svg>
