<?xml version="1.0" encoding="utf-8"?>

<!--
 * Copyright (c) 2020, WSO2 Inc. (http://www.wso2.org) All Rights Reserved.
 *
 * WSO2 Inc. licenses this file to you under the Apache License,
 * Version 2.0 (the "License"); you may not use this file except
 * in compliance with the License.
 * You may obtain a copy of the License at
 *
 *     http://www.apache.org/licenses/LICENSE-2.0
 *
 * Unless required by applicable law or agreed to in writing,
 * software distributed under the License is distributed on an
 * "AS IS" BASIS, WITHOUT WARRANTIES OR CONDITIONS OF ANY
 * KIND, either express or implied. See the License for the
 * specific language governing permissions and limitations
 * under the License.
-->

<svg id="yahoo-idp-illustration" class="icon" xmlns="http://www.w3.org/2000/svg" xmlns:xlink="http://www.w3.org/1999/xlink"
     width="100"
     height="100" viewBox="0 0 183.743 172.943">
    <g transform="translate(-1472.928 -266.188)">
        <path id="Path_81" class="path fill primary"
              d="M145.469,127a33.885,33.885,0,0,0-20.1-20.772,12.3,12.3,0,0,1-7.936-11.346q0-.16,0-.332a33.955,33.955,0,0,0-61.28-19.361A27.709,27.709,0,0,1,33.981,86.687q-.388,0-.777.008A34.6,34.6,0,0,0,0,120.184,33.965,33.965,0,0,0,65.86,132.312a6.95,6.95,0,0,1,8.425-4.249l.131.037a6.932,6.932,0,0,1,5.048,7.227,33.963,33.963,0,1,0,66-8.329Z"
              transform="matrix(0.839, -0.545, 0.545, 0.839, 1439.499, 294.929)" fill="#ff5000" opacity="0.1" />
        <path id="Path_95" class="path fill primary"
              d="M426.315,170.61a1.484,1.484,0,0,1-1.484-1.484,1.78,1.78,0,0,0-1.778-1.778,1.484,1.484,0,1,1,0-2.969,1.78,1.78,0,0,0,1.778-1.778,1.484,1.484,0,1,1,2.969,0,1.781,1.781,0,0,0,1.778,1.778,1.484,1.484,0,0,1,0,2.969,1.781,1.781,0,0,0-1.778,1.778,1.484,1.484,0,0,1-1.484,1.484Z"
              transform="matrix(-0.035, -0.999, 0.999, -0.035, 1426.96, 822.194)" fill="#ffe783" opacity="0.3"/>
        <path id="Path_96" class="path fill primary"
              d="M70.611,423.485a1.485,1.485,0,0,1-1.047-.434L66.311,419.8a1.484,1.484,0,0,1,0-2.095l3.252-3.252a1.484,1.484,0,0,1,2.095,0L74.91,417.7a1.484,1.484,0,0,1,0,2.095l-3.252,3.259A1.485,1.485,0,0,1,70.611,423.485Zm-1.154-4.735,1.154,1.154,1.154-1.154L70.611,417.6Z"
              transform="matrix(-0.035, -0.999, 0.999, -0.035, 1169.773, 379.805)" fill="#ffa052" opacity="0.3"/>
        <path id="Path_97" class="path fill primary"
              d="M396.921,114.711a1.475,1.475,0,0,1-1.047-.434l-3.252-3.252a1.484,1.484,0,0,1,0-2.095l3.252-3.252a1.484,1.484,0,0,1,2.095,0l3.252,3.252a1.484,1.484,0,0,1,0,2.095l-3.252,3.252a1.484,1.484,0,0,1-1.047.434Zm-1.155-4.733,1.155,1.154,1.154-1.154-1.154-1.154Z"
              transform="matrix(-0.035, -0.999, 0.999, -0.035, 1504.545, 796.151)" fill="#ffa052" opacity="0.3"/>
        <path id="Path_98" class="path fill primary"
              d="M142.881,49.889a1.484,1.484,0,0,1-1.047-.434L138.581,46.2a1.484,1.484,0,0,1,0-2.095l3.252-3.252a1.484,1.484,0,0,1,2.095,0l3.252,3.252a1.484,1.484,0,0,1,0,2.095l-3.252,3.252a1.475,1.475,0,0,1-1.047.434Zm-1.154-4.735,1.154,1.154,1.154-1.154L142.881,44Z"
              transform="matrix(-0.035, -0.999, 0.999, -0.035, 1469.897, 466.884)" fill="#ffa052" opacity="0.3"/>
        <g transform="translate(1778.955 343.863)" opacity="0.2">
            <path class="path fill primary"  d="M-260.955-23.352h19.034L-230.837,5l11.227-28.356h18.533l-27.907,67.127h-18.65L-240,25.988Z"
                  transform="translate(0 3.737)" fill="#ff5000"/>
            <circle class="path fill primary"  cx="11.53" cy="11.53" r="11.53" transform="translate(-206.33 7.279)" fill="#ff5000"/>
            <path class="path fill primary"  d="M-7.952,3.044H-28.71l18.423-44.257h20.68Z" transform="translate(-171.529 0)" fill="#ff5000"/>
        </g>
        <g transform="translate(1783.955 347.862)">
            <path class="path fill stroke primary" d="M-260.955-23.352h19.034L-230.837,5l11.227-28.356h18.533l-27.907,67.127h-18.65L-240,25.988Z"
                  transform="translate(0 3.737)" fill="#ffa052" stroke="#ff5000" stroke-width="2" style="fill-opacity: 0.8;"/>
            <circle class="path fill stroke primary" cx="11.53" cy="11.53" r="11.53" transform="translate(-206.33 7.279)" fill="#ffa052" stroke="#ff5000"
                    stroke-width="2" style="fill-opacity: 0.8;"/>
            <path class="path fill stroke primary" d="M-7.952,3.044H-28.71l18.423-44.257h20.68Z" transform="translate(-171.529 0)" fill="#ffa052"
                  stroke="#ff5000" stroke-width="2" style="fill-opacity: 0.8;"/>
        </g>
        <path class="path stroke primary" d="M4366.659-2041.777v52.721" transform="matrix(0.921, 0.391, -0.391, 0.921, -3243.358, 509.595)"
              fill="none"
              stroke="#fdd250" stroke-linecap="round" stroke-width="3"/>
    </g>
</svg>
