<svg width="36" height="36" viewBox="0 0 36 36" fill="none" xmlns="http://www.w3.org/2000/svg">
<path d="M8.85901 0.22966C8.76725 0.263486 8.21187 0.577584 7.62752 0.925508C7.04316 1.27343 6.14007 1.80498 5.62333 2.10942C5.10658 2.41385 4.25661 2.91641 3.73504 3.22567C3.21347 3.53011 2.36349 4.02783 1.85158 4.3226C0.586283 5.05711 0.446231 5.15375 0.311008 5.39537L0.190274 5.60315L0.175786 10.2663C0.166127 13.731 0.175786 14.9826 0.21925 15.1372C0.248227 15.2484 0.354473 15.4272 0.45106 15.5335C0.629747 15.7316 0.7698 15.8186 5.52674 18.5972C6.46847 19.148 7.43917 19.7182 7.67581 19.8584C7.91728 19.9985 8.2167 20.1725 8.34709 20.245C8.50164 20.3368 8.60305 20.4383 8.64652 20.5397C8.70447 20.675 8.71413 21.4917 8.71413 25.256C8.71413 29.7694 8.71413 29.808 8.81554 30.0158C8.86867 30.127 8.97491 30.2671 9.04735 30.3203C9.1198 30.3686 9.88767 30.8228 10.7473 31.3254C11.6069 31.8279 13.162 32.7364 14.1955 33.3404C17.7016 35.3942 17.2911 35.1767 17.6485 35.1767H17.9624L19.049 34.5437C19.6478 34.1958 20.4737 33.7174 20.8842 33.4757C21.2947 33.2341 22.5793 32.49 23.7335 31.8183C24.8877 31.1466 25.9598 30.5087 26.1144 30.4024C26.6215 30.0642 26.5828 30.5039 26.5828 25.256C26.5828 21.2839 26.5925 20.675 26.6553 20.5446C26.7325 20.3851 27.7129 19.7907 32.0159 17.2973C33.7979 16.268 34.6382 15.7606 34.8073 15.6301C34.8797 15.5721 34.9908 15.432 35.0487 15.3257L35.155 15.1227L35.1695 10.5321C35.1791 7.29445 35.1646 5.86893 35.126 5.6853C35.0536 5.32288 34.8507 5.11509 34.1988 4.74301C33.1073 4.11481 32.4312 3.71857 31.6295 3.245C31.1804 2.97923 30.398 2.52016 29.891 2.22056C29.3887 1.92096 28.4953 1.39424 27.9109 1.05115C26.4331 0.176504 26.3897 0.152343 26.1627 0.195834C25.9067 0.239324 25.9019 0.244156 23.3713 1.73733C22.1205 2.47667 20.9807 3.14836 20.8359 3.23534C20.3722 3.50111 19.1456 4.22112 18.4405 4.64153C18.0686 4.86382 17.7306 5.04744 17.6919 5.04744C17.6098 5.04744 17.5471 5.01362 15.3304 3.71373C10.1098 0.650068 9.35644 0.219995 9.19707 0.195834C9.10531 0.181337 8.95077 0.195834 8.85901 0.22966ZM9.48683 1.29276C10.1002 1.64552 14.6156 4.29844 15.8471 5.02811C16.4894 5.40986 17.0593 5.78195 17.1124 5.8496C17.2138 5.98007 17.2138 5.99457 17.2138 10.3726C17.2138 14.0403 17.2042 14.7845 17.1462 14.8956C17.0979 14.9923 16.5377 15.345 15.0358 16.2293C13.9105 16.8962 12.708 17.6017 12.3603 17.8095C10.1919 19.0852 9.37092 19.5588 9.24053 19.6071C9.11497 19.6554 9.06667 19.6506 8.86867 19.5395C8.59822 19.3945 4.94721 17.2634 3.73987 16.5483C3.27625 16.2728 2.53735 15.8379 2.09305 15.577C1.65358 15.316 1.24308 15.0599 1.17547 15.0116L1.05956 14.915L1.04507 10.4644C1.03542 6.54062 1.04024 5.99457 1.10786 5.86893C1.18513 5.71913 1.18513 5.71913 4.58501 3.71857C5.43498 3.22084 6.41534 2.64097 6.75823 2.43801C8.64652 1.32175 9.04253 1.08981 9.10048 1.08497C9.11497 1.08497 9.28882 1.18162 9.48683 1.29276ZM27.0368 1.53438C27.4135 1.75666 28.4904 2.39452 29.4322 2.95507C30.3739 3.51078 31.6054 4.23562 32.1608 4.56421C32.721 4.89281 33.3729 5.27456 33.6144 5.4147C33.851 5.55966 34.1022 5.72879 34.1698 5.80128L34.2857 5.92692L34.3002 10.334L34.3098 14.741L34.2036 14.9053C34.1263 15.0164 33.8076 15.2291 33.1266 15.6301C32.5954 15.9394 31.3253 16.6836 30.3014 17.2828C26.7663 19.351 26.2544 19.6409 26.153 19.6409C26.0951 19.6409 25.6701 19.4186 25.2161 19.1529C24.1054 18.4957 21.9659 17.2441 20.1598 16.1907C19.3484 15.7171 18.5709 15.2629 18.426 15.1759C18.286 15.0938 18.1507 14.9778 18.1266 14.915C18.1024 14.8521 18.0831 12.8612 18.0831 10.3871V5.96558L18.2183 5.82544C18.2908 5.75296 19.0683 5.26973 19.9424 4.75751C20.8214 4.24528 21.8211 3.65575 22.1639 3.45279C25.39 1.53921 26.0999 1.1333 26.2399 1.1333C26.3076 1.1333 26.6649 1.31692 27.0368 1.53438ZM18.8993 16.4371C20.208 17.2151 21.7776 18.1381 24.0233 19.4573C24.8346 19.9357 25.5445 20.3754 25.6073 20.4431L25.7135 20.5639V25.0048C25.7135 28.3535 25.6991 29.4795 25.6556 29.5713C25.588 29.7211 25.361 29.8612 20.0632 32.9297C17.8658 34.2006 17.774 34.2537 17.6243 34.2537C17.5229 34.2537 17.1317 34.046 16.3445 33.5821C15.7216 33.2148 14.7557 32.6494 14.1955 32.3257C10.8149 30.3541 9.69932 29.6872 9.64137 29.6051C9.58825 29.5229 9.57376 28.6773 9.56893 25.0676C9.55927 20.9891 9.5641 20.617 9.64137 20.5059C9.68483 20.4334 10.1146 20.1483 10.6072 19.8584C11.095 19.5684 11.8822 19.0997 12.3603 18.8194C12.8384 18.5343 13.5 18.1429 13.8333 17.9496C14.1665 17.7563 15.0696 17.22 15.8375 16.7657C17.3201 15.8814 17.5954 15.7268 17.663 15.7268C17.6871 15.7268 18.2425 16.0457 18.8993 16.4371Z" fill="black"/>
<path d="M6.34812 6.10571C5.87967 6.23135 5.54644 6.42948 5.16009 6.81123C4.17973 7.78251 3.99621 9.31918 4.71579 10.5466C4.82687 10.7399 5.47883 11.4309 6.87935 12.8371C9.02843 15.0019 8.97047 14.9536 9.28438 14.7893C9.49205 14.6782 13.2155 10.8993 13.4087 10.6046C13.655 10.218 13.8288 9.73959 13.8916 9.27569C13.9641 8.7538 13.8626 8.18359 13.6067 7.65687C13.37 7.17365 12.7422 6.53095 12.2883 6.3135C11.2982 5.8351 10.2986 5.92209 9.31819 6.57444L9.0574 6.74357L8.84974 6.60344C8.51168 6.37149 8.06255 6.1637 7.73898 6.08638C7.33331 5.98974 6.73447 5.9994 6.34812 6.10571ZM7.69069 6.95619C7.91284 7.02385 8.09636 7.13016 8.73383 7.57473C9.01877 7.77285 9.16848 7.74869 9.5838 7.43459C10.1875 6.98036 10.5449 6.85472 11.1534 6.89337C12.3027 6.96586 13.23 8.14494 13.0223 9.26602C12.8823 10.015 12.607 10.3533 10.3227 12.5713L9.06706 13.789L7.42024 12.1702C6.51715 11.2811 5.67684 10.4258 5.56093 10.2663C4.77857 9.2322 5.09731 7.6762 6.20324 7.10116C6.63305 6.87888 7.22707 6.82089 7.69069 6.95619Z" fill="black"/>
<path d="M25.675 5.38567C24.627 5.60795 23.7142 6.33762 23.2265 7.34274C22.956 7.90328 22.8643 8.30436 22.8643 8.95672C22.8643 10.1551 23.2989 11.0298 25.1872 13.615C25.9889 14.7168 26.1241 14.8569 26.3752 14.8569C26.6167 14.8569 26.7712 14.683 27.6502 13.4556C29.297 11.1506 29.7461 10.3194 29.8717 9.3578C30.0504 7.97093 29.3405 6.56957 28.08 5.81574C27.5391 5.49681 27.1286 5.38083 26.4621 5.35667C26.1434 5.35184 25.786 5.3615 25.675 5.38567ZM26.9692 6.2893C27.9254 6.55024 28.7513 7.39106 28.9734 8.33819C29.1811 9.22733 28.9927 9.88935 28.1669 11.1747C27.4667 12.2572 26.3994 13.7117 26.3318 13.6682C26.1531 13.5571 24.3179 10.909 24.0571 10.3871C23.7384 9.74438 23.6273 9.0292 23.7529 8.43C23.9943 7.26542 24.9361 6.34729 26.0227 6.21198C26.3607 6.16849 26.5974 6.18782 26.9692 6.2893Z" fill="black"/>
<path d="M25.7083 7.623C25.1964 7.88394 24.9404 8.30918 24.9404 8.89872C24.9404 9.32396 25.0612 9.61873 25.3461 9.90866C25.6407 10.2034 25.9305 10.3146 26.3892 10.3146C27.6739 10.3146 28.2679 8.70059 27.3068 7.83078C27.0171 7.56984 26.737 7.46353 26.3409 7.46353C26.0608 7.46353 25.9643 7.48769 25.7083 7.623ZM26.6693 8.36717C26.8674 8.48797 26.9784 8.71992 26.9543 8.96154C26.906 9.38678 26.4472 9.62356 26.0512 9.4206C25.8387 9.30946 25.7614 9.16449 25.7614 8.88422C25.7614 8.68126 25.7856 8.59912 25.887 8.48314C26.085 8.24636 26.4037 8.19804 26.6693 8.36717Z" fill="black"/>
<path d="M12.2159 20.762C12.1435 20.8296 12.0807 20.9456 12.0662 21.0471C12.0421 21.1969 12.0614 21.25 12.1821 21.3853L12.327 21.5496L13.0804 21.5641C13.7275 21.5786 13.8386 21.5931 13.8772 21.6608C13.9014 21.7043 14.1187 22.5886 14.365 23.6275C14.6113 24.6616 14.8817 25.7924 14.9687 26.1403L15.1232 26.7685L14.8914 27.0149C14.6209 27.3049 14.534 27.5658 14.5775 27.9476C14.6209 28.2955 14.7465 28.5758 14.988 28.8367C15.1763 29.0397 15.1812 29.059 15.1329 29.2088C15.0604 29.4118 15.1039 29.8273 15.2294 30.0641C15.4371 30.4797 15.9683 30.7551 16.4078 30.6826C17.1612 30.557 17.6055 29.8708 17.4075 29.1556C17.3447 28.9285 17.0163 28.5564 16.7652 28.426C16.6106 28.3487 16.4851 28.3293 16.1615 28.3342C15.7607 28.3342 15.751 28.3342 15.5916 28.1747C15.3115 27.8944 15.4033 27.5562 15.7897 27.4692C15.8959 27.445 17.1371 27.4257 18.5424 27.4209C20.1071 27.4209 21.1696 27.4015 21.271 27.3725C21.3628 27.3435 21.527 27.2614 21.6332 27.1889C21.9664 26.957 22.0823 26.7008 22.3383 25.6232C22.4687 25.082 22.6619 24.2799 22.7681 23.8401C23.0192 22.806 23.0192 22.4823 22.7826 22.3663C22.7343 22.3421 20.9474 22.3131 18.808 22.2986L14.9252 22.2745L14.7996 21.7574C14.6499 21.1486 14.505 20.9021 14.2104 20.7571C14.0173 20.6653 13.9159 20.6557 13.1673 20.6557C12.3801 20.6557 12.3366 20.6605 12.2159 20.762ZM22.0389 23.2989C22.0099 23.3762 21.836 24.0431 21.6525 24.7873C21.2565 26.3867 21.242 26.4399 21.1261 26.5027C21.073 26.5317 20.0395 26.551 18.5134 26.551C16.1181 26.5559 15.9828 26.551 15.949 26.4689C15.8959 26.3433 15.1377 23.2699 15.1377 23.1878C15.1377 23.1781 16.7024 23.1684 18.6148 23.1684H22.092L22.0389 23.2989ZM16.5237 29.2185C16.6831 29.3683 16.6783 29.6534 16.5092 29.7838C16.4368 29.8418 16.3305 29.8853 16.2726 29.8853C16.2146 29.8853 16.1084 29.8418 16.036 29.7838C15.8766 29.6582 15.8573 29.3586 16.007 29.2088C16.1374 29.0783 16.3788 29.0832 16.5237 29.2185Z" fill="black"/>
<path d="M20.1792 28.3391C19.7494 28.4019 19.2906 28.832 19.2133 29.2427C19.1699 29.465 19.2182 29.8467 19.3148 30.0255C19.421 30.2333 19.677 30.4798 19.8991 30.5861C20.271 30.7649 20.8408 30.6827 21.1547 30.4025C21.6425 29.9772 21.686 29.2379 21.261 28.7498C20.9616 28.4116 20.609 28.2763 20.1792 28.3391ZM20.6187 29.233C20.7877 29.3973 20.7829 29.6486 20.609 29.7888C20.3627 29.9821 20.015 29.8033 20.015 29.4892C20.015 29.3152 20.2082 29.1122 20.3772 29.1122C20.4448 29.1122 20.5559 29.1654 20.6187 29.233Z" fill="black"/>
</svg>
