<?xml version="1.0" encoding="iso-8859-1"?>

<!--
 * Copyright (c) 2020, WSO2 Inc. (http://www.wso2.org) All Rights Reserved.
 *
 * WSO2 Inc. licenses this file to you under the Apache License,
 * Version 2.0 (the "License"); you may not use this file except
 * in compliance with the License.
 * You may obtain a copy of the License at
 *
 *     http://www.apache.org/licenses/LICENSE-2.0
 *
 * Unless required by applicable law or agreed to in writing,
 * software distributed under the License is distributed on an
 * "AS IS" BASIS, WITHOUT WARRANTIES OR CONDITIONS OF ANY
 * KIND, either express or implied. See the License for the
 * specific language governing permissions and limitations
 * under the License.
-->

<svg class="icon" id="building-icon" height="14px" width="14px" xmlns="http://www.w3.org/2000/svg" viewBox="0 0 22.647 31.711">
    <g id="building-icon" transform="translate(-5.265)">
        <g id="Group_514">
            <g id="Group_513">
                <path id="Path_76" class="path fill primary"
                      d="M27.913,30.546V13.166a.527.527,0,0,0-.527-.527H20.013V.527A.527.527,0,0,0,19.486,0H5.793a.527.527,0,0,0-.527.527V30.546c0,.254,0,1.165,0,1.165L27.913,31.7Zm-16.853,0H8.953v-4.74a.527.527,0,0,1,.527-.527h1.053a.527.527,0,0,1,.527.527Zm2.107-17.38v17.38H12.113v-4.74a1.58,1.58,0,0,0-1.58-1.58H9.48a1.58,1.58,0,0,0-1.58,1.58v4.74H6.32V1.053H18.96V12.64H13.693A.527.527,0,0,0,13.166,13.166Zm13.693,17.38H14.22V13.693h12.64Z"
                      fill="#fff"/>
                <path id="Path_77" class="path fill secondary"
                      d="M203.687,112h-3.16a.527.527,0,0,0-.527.527v3.16a.527.527,0,0,0,.527.527h3.16a.527.527,0,0,0,.527-.527v-3.16A.527.527,0,0,0,203.687,112Zm-.527,3.16h-2.107v-2.107h2.107Z"
                      transform="translate(-186.834 -104.627)" fill="#fff"/>
                <path id="Path_78" class="path fill secondary"
                      d="M203.687,32h-3.16a.527.527,0,0,0-.527.527v3.16a.527.527,0,0,0,.527.527h3.16a.527.527,0,0,0,.527-.527v-3.16A.527.527,0,0,0,203.687,32Zm-.527,3.16h-2.107V33.053h2.107Z"
                      transform="translate(-186.834 -29.893)" fill="#fff"/>
                <path id="Path_79" class="path fill secondary"
                      d="M123.687,112h-3.16a.527.527,0,0,0-.527.527v3.16a.527.527,0,0,0,.527.527h3.16a.527.527,0,0,0,.527-.527v-3.16A.527.527,0,0,0,123.687,112Zm-.527,3.16h-2.107v-2.107h2.107Z"
                      transform="translate(-112.1 -104.627)" fill="#fff"/>
                <path id="Path_80" class="path fill secondary"
                      d="M123.687,32h-3.16a.527.527,0,0,0-.527.527v3.16a.527.527,0,0,0,.527.527h3.16a.527.527,0,0,0,.527-.527v-3.16A.527.527,0,0,0,123.687,32Zm-.527,3.16h-2.107V33.053h2.107Z"
                      transform="translate(-112.1 -29.893)" fill="#fff"/>
                <path id="Path_81" class="path fill secondary"
                      d="M123.687,192h-3.16a.527.527,0,0,0-.527.527v3.16a.527.527,0,0,0,.527.527h3.16a.527.527,0,0,0,.527-.527v-3.16A.527.527,0,0,0,123.687,192Zm-.527,3.16h-2.107v-2.107h2.107Z"
                      transform="translate(-112.1 -179.36)" fill="#fff"/>
                <path id="Path_82" class="path fill secondary"
                      d="M123.687,272h-3.16a.527.527,0,0,0-.527.527v3.16a.527.527,0,0,0,.527.527h3.16a.527.527,0,0,0,.527-.527v-3.16A.527.527,0,0,0,123.687,272Zm-.527,3.16h-2.107v-2.107h2.107Z"
                      transform="translate(-112.1 -254.094)" fill="#fff"/>
                <path id="Path_83" class="path fill secondary"
                      d="M320.527,308.213h3.16a.527.527,0,0,0,.527-.527v-3.16a.527.527,0,0,0-.527-.527h-3.16a.527.527,0,0,0-.527.527v3.16A.527.527,0,0,0,320.527,308.213Zm.527-3.16h2.107v2.107h-2.107Z"
                      transform="translate(-298.934 -283.987)" fill="#fff"/>
                <path id="Path_84" class="path fill secondary"
                      d="M320.527,228.213h3.16a.527.527,0,0,0,.527-.527v-3.16a.527.527,0,0,0-.527-.527h-3.16a.527.527,0,0,0-.527.527v3.16A.527.527,0,0,0,320.527,228.213Zm.527-3.16h2.107v2.107h-2.107Z"
                      transform="translate(-298.934 -209.254)" fill="#fff"/>
                <path id="Path_85" class="path fill secondary"
                      d="M320.527,388.213h3.16a.527.527,0,0,0,.527-.527v-3.16a.527.527,0,0,0-.527-.527h-3.16a.527.527,0,0,0-.527.527v3.16A.527.527,0,0,0,320.527,388.213Zm.527-3.16h2.107v2.107h-2.107Z"
                      transform="translate(-298.934 -358.721)" fill="#fff"/>
                <path id="Path_86" class="path fill secondary"
                      d="M240.527,308.213h3.16a.527.527,0,0,0,.527-.527v-3.16a.527.527,0,0,0-.527-.527h-3.16a.527.527,0,0,0-.527.527v3.16A.527.527,0,0,0,240.527,308.213Zm.527-3.16h2.107v2.107h-2.107Z"
                      transform="translate(-224.2 -283.987)" fill="#fff"/>
                <path id="Path_87" class="path fill secondary"
                      d="M240.527,228.213h3.16a.527.527,0,0,0,.527-.527v-3.16a.527.527,0,0,0-.527-.527h-3.16a.527.527,0,0,0-.527.527v3.16A.527.527,0,0,0,240.527,228.213Zm.527-3.16h2.107v2.107h-2.107Z"
                      transform="translate(-224.2 -209.254)" fill="#fff"/>
                <path id="Path_88" class="path fill secondary"
                      d="M240.527,388.213h3.16a.527.527,0,0,0,.527-.527v-3.16a.527.527,0,0,0-.527-.527h-3.16a.527.527,0,0,0-.527.527v3.16A.527.527,0,0,0,240.527,388.213Zm.527-3.16h2.107v2.107h-2.107Z"
                      transform="translate(-224.2 -358.721)" fill="#fff"/>
            </g>
        </g>
    </g>
</svg>
