<?xml version="1.0" encoding="iso-8859-1"?>

<!--
 * Copyright (c) 2020, WSO2 Inc. (http://www.wso2.org) All Rights Reserved.
 *
 * WSO2 Inc. licenses this file to you under the Apache License,
 * Version 2.0 (the "License"); you may not use this file except
 * in compliance with the License.
 * You may obtain a copy of the License at
 *
 *     http://www.apache.org/licenses/LICENSE-2.0
 *
 * Unless required by applicable law or agreed to in writing,
 * software distributed under the License is distributed on an
 * "AS IS" BASIS, WITHOUT WARRANTIES OR CONDITIONS OF ANY
 * KIND, either express or implied. See the License for the
 * specific language governing permissions and limitations
 * under the License.
-->

<svg class="illustration avatar" id="Capa_1" enable-background="new 0 0 512 512" height="35" viewBox="0 0 512 512" width="35" xmlns="http://www.w3.org/2000/svg">
    <path d="m456.834 0h-401.668c-30.419 0-55.166 24.748-55.166 55.167v305.267c0 30.419 24.747 55.166 55.166 55.166h236.168v-63.2c0-51.391 41.809-93.2 93.199-93.2s93.199 41.81 93.199 93.2v59.076c20.084-8.253 34.268-28.018 34.268-51.042v-305.267c0-30.419-24.748-55.167-55.166-55.167zm-313.301 65.333h224.934c8.283 0 15 6.716 15 15s-6.717 15-15 15h-224.934c-8.283 0-15-6.716-15-15s6.717-15 15-15zm98.533 269.934h-162.8c-8.283 0-15-6.716-15-15s6.717-15 15-15h162.801c8.285 0 15 6.716 15 15s-6.715 15-15.001 15zm190.666-111.4h-353.466c-8.283 0-15-6.716-15-15s6.717-15 15-15h353.467c8.285 0 15 6.716 15 15-.001 8.284-6.715 15-15.001 15zm0-64.267h-353.466c-8.283 0-15-6.716-15-15s6.717-15 15-15h353.467c8.285 0 15 6.716 15 15-.001 8.284-6.715 15-15.001 15z"/>
    <path d="m384.533 289.2c-34.848 0-63.199 28.352-63.199 63.2s28.352 63.199 63.199 63.199c34.849 0 63.199-28.351 63.199-63.199s-28.35-63.2-63.199-63.2z"/>
    <path d="m321.334 420.832v76.168c0 5.532 3.044 10.615 7.922 13.225 2.217 1.188 4.65 1.775 7.076 1.775 2.911 0 5.813-.846 8.322-2.52l39.879-26.586 39.879 26.586c2.511 1.674 5.411 2.52 8.322 2.52 2.426 0 4.859-.588 7.076-1.774 4.878-2.61 7.922-7.693 7.922-13.226v-76.168c-16.623 15.363-38.832 24.768-63.199 24.768s-46.576-9.405-63.199-24.768z"/>
</svg>
