<?xml version="1.0" encoding="utf-8"?>

<!--
 * Copyright (c) 2020, WSO2 Inc. (http://www.wso2.org) All Rights Reserved.
 *
 * WSO2 Inc. licenses this file to you under the Apache License,
 * Version 2.0 (the "License"); you may not use this file except
 * in compliance with the License.
 * You may obtain a copy of the License at
 *
 *     http://www.apache.org/licenses/LICENSE-2.0
 *
 * Unless required by applicable law or agreed to in writing,
 * software distributed under the License is distributed on an
 * "AS IS" BASIS, WITHOUT WARRANTIES OR CONDITIONS OF ANY
 * KIND, either express or implied. See the License for the
 * specific language governing permissions and limitations
 * under the License.
-->

<svg id="claim-icon" class="icon" width="16" height="16" viewBox="0 0 16 16" fill="none" xmlns="http://www.w3.org/2000/svg">
<path d="M11 0C12.1046 0 13 0.89543 13 2V5.76756C12.7058 5.59739 12.3643 5.5 12 5.5V2C12 1.48716 11.614 1.06449 11.1166 1.00673L11 1H2C1.48716 1 1.06449 1.38604 1.00673 1.88338L0.999999 2V14C0.999999 14.5128 1.38604 14.9355 1.88338 14.9933L2 15H6C6 15.5523 6.44771 16 7 16H2C0.89543 16 0 15.1046 0 14V2C0 0.89543 0.89543 0 2 0H11Z" fill="black"/>
<path d="M3.5 4C3.22386 4 3 4.22386 3 4.5C3 4.77614 3.22386 5 3.5 5H7.5C7.77614 5 8 4.77614 8 4.5C8 4.22386 7.77614 4 7.5 4H3.5Z" fill="black"/>
<path d="M3 7.5C3 7.22386 3.22386 7 3.5 7H5.83333C6.10947 7 6.33333 7.22386 6.33333 7.5C6.33333 7.77614 6.10947 8 5.83333 8H3.5C3.22386 8 3 7.77614 3 7.5Z" fill="black"/>
<path d="M3.5 10C3.22386 10 3 10.2239 3 10.5C3 10.7761 3.22386 11 3.5 11C3.77614 11 4 10.7761 4 10.5C4 10.2239 3.77614 10 3.5 10Z" fill="black"/>
<path fill-rule="evenodd" clip-rule="evenodd" d="M14 8.5C14 9.60457 13.1046 10.5 12 10.5C10.8954 10.5 10 9.60457 10 8.5C10 7.39543 10.8954 6.5 12 6.5C13.1046 6.5 14 7.39543 14 8.5ZM13 8.5C13 9.05229 12.5523 9.5 12 9.5C11.4477 9.5 11 9.05229 11 8.5C11 7.94772 11.4477 7.5 12 7.5C12.5523 7.5 13 7.94772 13 8.5Z" fill="black"/>
<path d="M11.9997 12C11.1842 12 10.432 12.3815 9.8795 13.0256C9.6997 13.2351 9.38404 13.2593 9.17445 13.0795C8.96486 12.8997 8.94071 12.584 9.12051 12.3744C9.83854 11.5374 10.8569 11 11.9997 11C14.2696 11 16 13.0795 16 15.5V16H11.9997C11.7236 16 11.4997 15.7761 11.4997 15.5C11.4997 15.2239 11.7236 15 11.9997 15H14.9701C14.759 13.2568 13.4599 12 11.9997 12Z" fill="black"/>
</svg>