<?xml version="1.0" encoding="UTF-8" standalone="no"?> 

<!--
 * Copyright (c) 2020, WSO2 Inc. (http://www.wso2.org) All Rights Reserved.
 *
 * WSO2 Inc. licenses this file to you under the Apache License,
 * Version 2.0 (the "License"); you may not use this file except
 * in compliance with the License.
 * You may obtain a copy of the License at
 *
 *     http://www.apache.org/licenses/LICENSE-2.0
 *
 * Unless required by applicable law or agreed to in writing,
 * software distributed under the License is distributed on an
 * "AS IS" BASIS, WITHOUT WARRANTIES OR CONDITIONS OF ANY
 * KIND, either express or implied. See the License for the
 * specific language governing permissions and limitations
 * under the License.
-->

<!DOCTYPE svg PUBLIC "-//W3C//DTD SVG 1.1//EN" "http://www.w3.org/Graphics/SVG/1.1/DTD/svg11.dtd">
<svg class="icon" style="fill-rule:evenodd;clip-rule:evenodd;stroke-linecap:round;stroke-linejoin:round;" xmlns:xlink="http://www.w3.org/1999/xlink" xmlns="http://www.w3.org/2000/svg" xml:space="preserve" version="1.1" viewBox="0 0 1024 1024">
<defs/>
<g>
<path d="M134.451-2.98831e-05C60.1892-2.98831e-05+5.14932e-06+60.1983+2.52812e-05+134.441L2.52812e-05+889.559C2.52812e-05+963.802+60.1892+1024+134.451+1024L889.549+1024C963.811+1024+1024+963.802+1024+889.559L1024+134.441C1024+60.1983+963.811-3.9939e-05+889.549-2.98831e-05L134.451-2.98831e-05ZM134.451+40.0975L889.549+40.0975C941.647+40.0975+983.893+82.3223+983.893+134.441L983.893+889.559C983.893+941.678+941.647+983.933+889.549+983.933L134.451+983.933C82.3533+983.933+40.1066+941.678+40.1066+889.559L40.1066+134.441C40.1066+82.3223+82.3533+40.0975+134.451+40.0975Z" opacity="0.997551" class="path fill secondary"/>
<path d="M236.5+92.3438C191.638+92.3438+155.25+128.732+155.25+173.594C155.25+201.326+169.158+225.785+190.375+240.438C139.205+259.254+102.625+308.272+102.625+365.969C102.625+377.164+111.711+386.219+122.906+386.219C134.101+386.219+143.156+377.163+143.156+365.969C143.156+314.424+184.955+272.625+236.5+272.625C288.045+272.625+329.813+314.424+329.812+365.969C329.812+377.164+338.899+386.219+350.094+386.219C361.289+386.219+370.375+377.163+370.375+365.969C370.375+308.262+333.779+259.247+282.594+240.438C303.802+225.785+317.719+201.326+317.719+173.594C317.719+128.732+281.362+92.3438+236.5+92.3438ZM236.5+132.906C258.972+132.906+277.188+151.122+277.188+173.594C277.188+196.066+258.972+214.281+236.5+214.281C214.028+214.281+195.812+196.066+195.812+173.594C195.812+151.122+214.028+132.906+236.5+132.906Z" opacity="0.997551" class="path fill secondary"/>
<path d="M859.281+316.188L478.594+322.344C467.4+322.524+458.476+331.744+458.656+342.938C458.837+354.131+468.057+363.056+479.25+362.875L859.938+356.75C871.131+356.569+880.056+347.318+879.875+336.125C879.694+324.932+870.475+316.007+859.281+316.188ZM859.438+448.594L122.719+454.75C111.524+454.843+102.532+463.993+102.625+475.188C102.718+486.382+111.868+495.375+123.062+495.281L859.781+489.156C870.976+489.063+879.968+479.882+879.875+468.688C879.782+457.493+870.632+448.5+859.438+448.594ZM859.438+581L122.719+587.156C111.524+587.25+102.532+596.399+102.625+607.594C102.718+618.788+111.868+627.781+123.062+627.688L859.781+621.531C870.976+621.438+879.968+612.288+879.875+601.094C879.782+589.899+870.632+580.907+859.438+581ZM859.438+713.406L122.719+719.562C111.524+719.656+102.532+728.806+102.625+740C102.718+751.194+111.868+760.187+123.062+760.094L859.781+753.938C870.976+753.844+879.968+744.694+879.875+733.5C879.782+722.306+870.632+713.313+859.438+713.406ZM859.438+845.812L122.719+851.969C111.524+852.062+102.532+861.212+102.625+872.406C102.718+883.601+111.868+892.593+123.062+892.5L859.781+886.344C870.976+886.25+879.968+877.1+879.875+865.906C879.782+854.712+870.632+845.719+859.438+845.812Z" opacity="0.997551" class="path fill secondary"/>
</g>
</svg>
