<?xml version="1.0" encoding="utf-8"?>

<!--
 * Copyright (c) 2020, WSO2 Inc. (http://www.wso2.org) All Rights Reserved.
 *
 * WSO2 Inc. licenses this file to you under the Apache License,
 * Version 2.0 (the "License"); you may not use this file except
 * in compliance with the License.
 * You may obtain a copy of the License at
 *
 *     http://www.apache.org/licenses/LICENSE-2.0
 *
 * Unless required by applicable law or agreed to in writing,
 * software distributed under the License is distributed on an
 * "AS IS" BASIS, WITHOUT WARRANTIES OR CONDITIONS OF ANY
 * KIND, either express or implied. See the License for the
 * specific language governing permissions and limitations
 * under the License.
-->

<svg id="claims-icon" class="icon" xmlns="http://www.w3.org/2000/svg" width="14px" height="14px"
     viewBox="0 0 514.322 514.322">
    <g transform="translate(-1800 -1947)">
        <path class="path fill primary"
              d="M67.53,0A67.528,67.528,0,0,0,0,67.525V446.8a67.528,67.528,0,0,0,67.53,67.525H446.792a67.528,67.528,0,0,0,67.53-67.525V67.525A67.528,67.528,0,0,0,446.792,0Zm0,39.71H446.792c20.428,0,26.871,19.3,26.871,27.816V446.8c0,8.936-12.392,27.558-26.871,27.558H67.53c-5.318,0-27.5-1.38-27.5-27.558V67.358C40.026,63.379,41.363,39.709,67.53,39.709Z"
              transform="translate(1800 1947)" fill-rule="evenodd" opacity="0.998"/>
        <path class="path fill primary"
              d="M162.577,92.344a36.373,36.373,0,0,0-20.656,66.32,59.915,59.915,0,0,0-39.3,56.216,9.075,9.075,0,0,0,18.151,0,41.794,41.794,0,1,1,83.589,0,9.083,9.083,0,0,0,18.165,0,59.911,59.911,0,0,0-39.31-56.216,36.373,36.373,0,0,0-20.642-66.32Zm0,18.165a18.221,18.221,0,1,1-18.221,18.221A18.221,18.221,0,0,1,162.577,110.508Z"
              transform="translate(1770.498 1918.038)" fill-rule="evenodd" opacity="0.998"/>
        <path class="path fill primary" d="M17.5,0h357a17.5,17.5,0,0,1,0,35H17.5a17.5,17.5,0,0,1,0-35Z"
              transform="translate(1857 2366)"/>
        <path class="path fill primary" d="M17.5,0h357a17.5,17.5,0,0,1,0,35H17.5a17.5,17.5,0,0,1,0-35Z"
              transform="translate(1857 2301)"/>
        <path class="path fill primary" d="M17.5,0h357a17.5,17.5,0,0,1,0,35H17.5a17.5,17.5,0,0,1,0-35Z"
              transform="translate(1857 2236)"/>
        <path class="path fill primary" d="M17.5,0h357a17.5,17.5,0,0,1,0,35H17.5a17.5,17.5,0,0,1,0-35Z"
              transform="translate(1857 2171)"/>
        <path class="path fill primary" d="M19.5,0h173a19.5,19.5,0,0,1,0,39H19.5a19.5,19.5,0,0,1,0-39Z"
              transform="translate(2037 2100)"/>
    </g>
</svg>
