<!--
 * Copyright (c) 2021, WSO2 Inc. (http://www.wso2.org) All Rights Reserved.
 *
 * WSO2 Inc. licenses this file to you under the Apache License,
 * Version 2.0 (the "License"); you may not use this file except
 * in compliance with the License.
 * You may obtain a copy of the License at
 *
 *     http://www.apache.org/licenses/LICENSE-2.0
 *
 * Unless required by applicable law or agreed to in writing,
 * software distributed under the License is distributed on an
 * "AS IS" BASIS, WITHOUT WARRANTIES OR CONDITIONS OF ANY
 * KIND, either express or implied. See the License for the
 * specific language governing permissions and limitations
 * under the License.
-->

<svg xmlns="http://www.w3.org/2000/svg" id="console-icon" class="icon" width="14" height="14" viewBox="0 0 21.163 21.167">
    <path id="console" d="M-13081.564-2667.251l-.368-1.528a9.2,9.2,0,0,1-2.825-1.169l-1.314.785-2.437-2.438.789-1.311a9.186,9.186,0,0,1-1.17-2.825l-1.527-.371v-3.453l1.527-.371a9.153,9.153,0,0,1,1.17-2.825l-.789-1.311,2.438-2.437,1.314.785a9.2,9.2,0,0,1,2.825-1.17l.368-1.528h3.456l.371,1.528a9.265,9.265,0,0,1,2.825,1.17l1.312-.785,2.438,2.438-.789,1.311a9.136,9.136,0,0,1,1.173,2.825l1.524.371v3.453l-1.524.371a9.169,9.169,0,0,1-1.173,2.825l.789,1.311-2.437,2.438-1.312-.785a9.258,9.258,0,0,1-2.825,1.169l-.371,1.528Zm.253-2.664.395.072.328,1.35h1.5l.328-1.35.395-.072a8.3,8.3,0,0,0,3.41-1.5l1.159.693,1.068-1.068-.7-1.16a8.212,8.212,0,0,0,1.5-3.41l.072-.394,1.351-.325v-1.508l-1.351-.325-.072-.394a8.188,8.188,0,0,0-1.5-3.41l.7-1.16-1.068-1.068-1.159.693a8.272,8.272,0,0,0-3.41-1.5l-.395-.072-.328-1.35h-1.5l-.328,1.35-.395.072a8.25,8.25,0,0,0-3.407,1.5l-1.159-.693-1.067,1.068.692,1.16a8.282,8.282,0,0,0-1.5,3.41l-.075.394-1.348.325v1.508l1.348.325.075.394a8.24,8.24,0,0,0,1.5,3.41l-.692,1.16,1.067,1.068,1.159-.693A8.273,8.273,0,0,0-13081.312-2669.916Zm-5.342-7.921a6.826,6.826,0,0,1,6.817-6.82,6.83,6.83,0,0,1,6.823,6.82,6.833,6.833,0,0,1-6.823,6.823A6.829,6.829,0,0,1-13086.653-2677.837Zm1.235,0v.072a.071.071,0,0,0,0,.026v.1a.07.07,0,0,0,0,.026v.013l0,.063v.043a.038.038,0,0,1,0,.016v.016a5.614,5.614,0,0,0,5.1,5.188h.014a.632.632,0,0,0,.078.007h.01c.03,0,.06,0,.089.007s.056,0,.086,0h.022c.02,0,.04,0,.063,0h.224c.022,0,.043,0,.065,0h.046a.375.375,0,0,1,.06,0c.032,0,.063,0,.092-.007h.01a.665.665,0,0,0,.079-.007h.013a5.588,5.588,0,0,0,4.59-3.219l.01-.02,0-.007a.158.158,0,0,1,.011-.023,5.521,5.521,0,0,0,.492-2.293,5.494,5.494,0,0,0-.581-2.48,5.549,5.549,0,0,0-5-3.1A5.586,5.586,0,0,0-13085.418-2677.837Zm4.783,3.466-.41-.122a.188.188,0,0,1-.115-.092.208.208,0,0,1-.017-.148l1.9-6.439a.2.2,0,0,1,.239-.131l.411.121a.217.217,0,0,1,.115.092.191.191,0,0,1,.016.148l-1.9,6.439a.2.2,0,0,1-.187.141A.149.149,0,0,1-13080.635-2674.371Zm2.707-1-.506-.506a.193.193,0,0,1,0-.273l1.688-1.689-1.688-1.689a.193.193,0,0,1,0-.272l.5-.506a.2.2,0,0,1,.275,0l2.329,2.333a.191.191,0,0,1,0,.273l-2.329,2.329a.193.193,0,0,1-.138.056A.193.193,0,0,1-13077.928-2675.369Zm-4.087,0-2.329-2.329a.193.193,0,0,1,0-.273l2.332-2.333a.187.187,0,0,1,.135-.056.186.186,0,0,1,.135.056l.506.506a.194.194,0,0,1,.057.138.192.192,0,0,1-.057.135l-1.688,1.689,1.688,1.689a.191.191,0,0,1,0,.273l-.506.506a.186.186,0,0,1-.135.056A.2.2,0,0,1-13082.015-2675.369Z" transform="translate(13090.418 2688.418)" fill="#3b3b3b"/>
</svg>
