<svg class="icon" xmlns="http://www.w3.org/2000/svg" width="14" height="14" viewBox="0 0 65 92">
    <g id="done-button" transform="translate(-769 -2015.491)">
        <g id="Ellipse_10" data-name="Ellipse 10" transform="translate(769 2015.491)" fill="none" stroke="#1bc461"
           stroke-width="6">
            <circle cx="32.5" cy="32.5" r="32.5" stroke="none"/>
            <circle cx="32.5" cy="32.5" r="29.5" fill="none"/>
        </g>
        <path id="check_1_" data-name="check (1)"
              d="M11.911,24.094a1.587,1.587,0,0,1-2.246,0L.7,15.126a2.381,2.381,0,0,1,0-3.369l1.123-1.123a2.382,2.382,0,0,1,3.369,0l5.6,5.6L25.917,1.1a2.382,2.382,0,0,1,3.369,0l1.123,1.123a2.381,2.381,0,0,1,0,3.369Zm0,0"
              transform="translate(785.947 2035.508)" fill="#1bc461"/>
        <text id="DONE" transform="translate(802 2103.491)" fill="#1bc461" font-size="18"
              font-family="Roboto-Black, Roboto" font-weight="800" letter-spacing="0.04em">
            <tspan x="-24.468" y="0">DONE</tspan>
        </text>
    </g>
</svg>
