<?xml version="1.0"?>
<!--
 * Copyright (c) 2019, WSO2 Inc. (http://www.wso2.org) All Rights Reserved.
 *
 * WSO2 Inc. licenses this file to you under the Apache License,
 * Version 2.0 (the "License"); you may not use this file except
 * in compliance with the License.
 * You may obtain a copy of the License at
 *
 * http://www.apache.org/licenses/LICENSE-2.0
 *
 * Unless required by applicable law or agreed to in writing,
 * software distributed under the License is distributed on an
 * "AS IS" BASIS, WITHOUT WARRANTIES OR CONDITIONS OF ANY
 * KIND, either express or implied. See the License for the
 * specific language governing permissions and limitations
 * under the License.
-->
<svg xmlns="http://www.w3.org/2000/svg" class="icon" id="fido-logo" viewBox="0 0 529.58 130.1">
    <defs>
        <style>.cls-1{fill:#231f20;}.cls-2{fill:#fdbb40;}.cls-3{fill:#febd3e;}</style>
    </defs>
    <title>FIDO_Alliance_Logo_Tagline_(tm)</title>
    <g id="Isolation_Mode" data-name="Isolation Mode">
        <path class="cls-1" d="M318.88,454.91l-.29-2.46h-.12a7.28,7.28,0,0,1-6,2.9,5.56,5.56,0,0,1-6-5.61c0-4.72,4.19-7.3,11.74-7.26v-.4c0-1.62-.44-4.53-4.44-4.53a9.68,9.68,0,0,0-5.08,1.46l-.81-2.34a12.1,12.1,0,0,1,6.42-1.74c6,0,7.42,4.08,7.42,8v7.31a27.75,27.75,0,0,0,.32,4.68Zm-.53-10c-3.87-.08-8.27.61-8.27,4.4a3.14,3.14,0,0,0,3.35,3.39,4.86,4.86,0,0,0,4.72-3.27,3.74,3.74,0,0,0,.2-1.13Z" transform="translate(-39.07 -325.25)"/>
        <path class="cls-1" d="M345.31,449.58c0,2,0,3.8.16,5.33h-3.14l-.21-3.19H342a7.33,7.33,0,0,1-6.45,3.63c-3.07,0-6.74-1.69-6.74-8.55V435.38h3.55v10.81c0,3.71,1.13,6.22,4.36,6.22a5.15,5.15,0,0,0,4.68-3.23,5.26,5.26,0,0,0,.32-1.82v-12h3.55Z" transform="translate(-39.07 -325.25)"/>
        <path class="cls-1" d="M356.94,429.77v5.61H362v2.7h-5.08v10.53c0,2.43.68,3.8,2.66,3.8a8,8,0,0,0,2.06-.24l.16,2.66a8.72,8.72,0,0,1-3.15.48,4.92,4.92,0,0,1-3.83-1.49c-1-1.05-1.37-2.78-1.37-5.09V438.08h-3v-2.7h3v-4.69Z" transform="translate(-39.07 -325.25)"/>
        <path class="cls-1" d="M367.47,426.25H371v12.19h.08a6.57,6.57,0,0,1,2.54-2.5,7.26,7.26,0,0,1,3.63-1c2.63,0,6.82,1.62,6.82,8.36v11.62h-3.55V443.69c0-3.15-1.17-5.81-4.52-5.81a5.09,5.09,0,0,0-4.76,3.55,4.31,4.31,0,0,0-.24,1.69v11.79h-3.56Z" transform="translate(-39.07 -325.25)"/>
        <path class="cls-1" d="M393.31,445.79c.08,4.8,3.15,6.78,6.7,6.78a13,13,0,0,0,5.41-1l.6,2.54a15.74,15.74,0,0,1-6.5,1.21c-6,0-9.6-3.95-9.6-9.85s3.47-10.53,9.16-10.53c6.38,0,8.07,5.61,8.07,9.2a13.67,13.67,0,0,1-.12,1.66Zm10.41-2.54c0-2.26-.93-5.78-4.92-5.78-3.6,0-5.17,3.31-5.45,5.78Z" transform="translate(-39.07 -325.25)"/>
        <path class="cls-1" d="M413,440.66c0-2,0-3.67-.17-5.28H416l.2,3.22h.09a7.17,7.17,0,0,1,6.45-3.67c2.71,0,6.9,1.62,6.9,8.32v11.66h-3.55V443.65c0-3.15-1.17-5.77-4.52-5.77a5,5,0,0,0-4.76,3.63,5.15,5.15,0,0,0-.24,1.66v11.74H413Z" transform="translate(-39.07 -325.25)"/>
        <path class="cls-1" d="M441,429.77v5.61h5.08v2.7H441v10.53c0,2.43.68,3.8,2.66,3.8a8,8,0,0,0,2.06-.24l.16,2.66a8.72,8.72,0,0,1-3.15.48,4.92,4.92,0,0,1-3.83-1.49c-1-1.05-1.37-2.78-1.37-5.09V438.08h-3v-2.7h3v-4.69Z" transform="translate(-39.07 -325.25)"/>
        <path class="cls-1" d="M455.47,429.89a2.2,2.2,0,0,1-4.4,0,2.16,2.16,0,0,1,2.22-2.22A2.11,2.11,0,0,1,455.47,429.89Zm-4,25V435.38h3.56v19.53Z" transform="translate(-39.07 -325.25)"/>
        <path class="cls-1" d="M476.34,454.18a13,13,0,0,1-5.61,1.13c-5.9,0-9.73-4-9.73-10S465.12,435,471.49,435a12,12,0,0,1,4.93,1l-.81,2.74a8.31,8.31,0,0,0-4.12-.92c-4.48,0-6.9,3.31-6.9,7.38,0,4.52,2.91,7.31,6.78,7.31a10.15,10.15,0,0,0,4.36-1Z" transform="translate(-39.07 -325.25)"/>
        <path class="cls-1" d="M492.76,454.91l-.28-2.46h-.12a7.28,7.28,0,0,1-6,2.9,5.57,5.57,0,0,1-6-5.61c0-4.72,4.2-7.3,11.75-7.26v-.4c0-1.62-.45-4.53-4.44-4.53a9.75,9.75,0,0,0-5.09,1.46l-.8-2.34a12.09,12.09,0,0,1,6.41-1.74c6,0,7.43,4.08,7.43,8v7.31a27.75,27.75,0,0,0,.32,4.68Zm-.52-10c-3.87-.08-8.27.61-8.27,4.4a3.14,3.14,0,0,0,3.35,3.39,4.86,4.86,0,0,0,4.72-3.27,3.74,3.74,0,0,0,.2-1.13Z" transform="translate(-39.07 -325.25)"/>
        <path class="cls-1" d="M507,429.77v5.61h5.09v2.7H507v10.53c0,2.43.69,3.8,2.67,3.8a8,8,0,0,0,2.06-.24l.16,2.66a8.8,8.8,0,0,1-3.15.48,4.89,4.89,0,0,1-3.83-1.49c-1-1.05-1.38-2.78-1.38-5.09V438.08h-3v-2.7h3v-4.69Z" transform="translate(-39.07 -325.25)"/>
        <path class="cls-1" d="M521.46,429.89a2.2,2.2,0,0,1-4.4,0,2.16,2.16,0,0,1,2.22-2.22A2.1,2.1,0,0,1,521.46,429.89Zm-4,25V435.38h3.55v19.53Z" transform="translate(-39.07 -325.25)"/>
        <path class="cls-1" d="M546.08,445c0,7.23-5,10.37-9.72,10.37-5.29,0-9.37-3.87-9.37-10.05,0-6.53,4.28-10.37,9.69-10.37C542.29,434.93,546.08,439,546.08,445Zm-15.49.2c0,4.28,2.46,7.51,5.93,7.51s5.93-3.19,5.93-7.59c0-3.31-1.65-7.51-5.85-7.51S530.59,441.47,530.59,445.18Z" transform="translate(-39.07 -325.25)"/>
        <path class="cls-1" d="M552,440.66c0-2,0-3.67-.16-5.28H555l.2,3.22h.08a7.2,7.2,0,0,1,6.46-3.67c2.7,0,6.9,1.62,6.9,8.32v11.66H565.1V443.65c0-3.15-1.17-5.77-4.52-5.77a5.06,5.06,0,0,0-4.77,3.63,5.15,5.15,0,0,0-.24,1.66v11.74H552Z" transform="translate(-39.07 -325.25)"/>
        <path class="cls-1" d="M307.58,414.53a9.32,9.32,0,0,0,4.68,1.41c2.58,0,3.79-1.29,3.79-2.91s-1-2.62-3.63-3.59c-3.51-1.25-5.17-3.19-5.17-5.53,0-3.15,2.54-5.73,6.74-5.73a9.76,9.76,0,0,1,4.8,1.21l-.88,2.58a7.66,7.66,0,0,0-4-1.13c-2.1,0-3.27,1.22-3.27,2.67,0,1.61,1.17,2.34,3.72,3.31,3.39,1.29,5.12,3,5.12,5.89,0,3.43-2.66,5.85-7.3,5.85a11.11,11.11,0,0,1-5.49-1.33Z" transform="translate(-39.07 -325.25)"/>
        <path class="cls-1" d="M331,393v5.6h5.08v2.71H331v10.53c0,2.43.68,3.8,2.66,3.8a8,8,0,0,0,2.06-.24l.16,2.66a8.8,8.8,0,0,1-3.15.48,4.92,4.92,0,0,1-3.83-1.49c-1-1.05-1.37-2.78-1.37-5.09V401.33h-3v-2.71h3v-4.68Z" transform="translate(-39.07 -325.25)"/>
        <path class="cls-1" d="M342.73,404.72c0-2.3,0-4.28-.16-6.1h3.11l.12,3.84H346a5.87,5.87,0,0,1,5.41-4.28,3.89,3.89,0,0,1,1,.12v3.35a5.44,5.44,0,0,0-1.21-.12c-2.5,0-4.28,1.9-4.76,4.56a9.12,9.12,0,0,0-.17,1.66v10.41h-3.51Z" transform="translate(-39.07 -325.25)"/>
        <path class="cls-1" d="M375.87,408.23c0,7.23-5,10.37-9.73,10.37-5.28,0-9.36-3.87-9.36-10.05,0-6.53,4.28-10.37,9.69-10.37C372.08,398.18,375.87,402.26,375.87,408.23Zm-15.5.2c0,4.28,2.46,7.51,5.93,7.51s5.94-3.19,5.94-7.59c0-3.31-1.66-7.51-5.85-7.51S360.37,404.72,360.37,408.43Z" transform="translate(-39.07 -325.25)"/>
        <path class="cls-1" d="M383,403.91c0-2,0-3.67-.16-5.29H386l.21,3.23h.08a7.17,7.17,0,0,1,6.45-3.67c2.71,0,6.9,1.62,6.9,8.32v11.66h-3.55V406.9c0-3.15-1.17-5.77-4.52-5.77a5,5,0,0,0-4.76,3.63,5.15,5.15,0,0,0-.24,1.66v11.74H383Z" transform="translate(-39.07 -325.25)"/>
        <path class="cls-1" d="M424.91,398.62c-.08,1.42-.16,3-.16,5.37v11.34c0,4.48-.89,7.23-2.78,8.92a10.34,10.34,0,0,1-7.11,2.34,12.56,12.56,0,0,1-6.49-1.61l.88-2.7a11.08,11.08,0,0,0,5.73,1.53c3.64,0,6.3-1.9,6.3-6.82v-2.18h-.08a7,7,0,0,1-6.22,3.27c-4.84,0-8.31-4.12-8.31-9.53,0-6.62,4.32-10.37,8.8-10.37a6.49,6.49,0,0,1,6.09,3.39h.08l.17-2.95Zm-3.67,7.71a5.19,5.19,0,0,0-5.17-5.36c-3.39,0-5.81,2.86-5.81,7.38,0,3.84,1.94,7,5.77,7a5.2,5.2,0,0,0,4.93-3.63,6.21,6.21,0,0,0,.28-1.9Z" transform="translate(-39.07 -325.25)"/>
        <path class="cls-1" d="M435.29,409c.08,4.8,3.15,6.78,6.7,6.78a13,13,0,0,0,5.41-1l.6,2.54a15.74,15.74,0,0,1-6.5,1.21c-6,0-9.6-3.95-9.6-9.85s3.47-10.53,9.16-10.53c6.38,0,8.07,5.61,8.07,9.2A13.67,13.67,0,0,1,449,409Zm10.41-2.54c0-2.26-.93-5.78-4.92-5.78-3.6,0-5.17,3.31-5.45,5.78Z" transform="translate(-39.07 -325.25)"/>
        <path class="cls-1" d="M456.2,404.72c0-2.3,0-4.28-.16-6.1h3.1l.12,3.84h.17a5.85,5.85,0,0,1,5.4-4.28,3.83,3.83,0,0,1,1,.12v3.35a5.32,5.32,0,0,0-1.21-.12c-2.5,0-4.28,1.9-4.76,4.56a10.16,10.16,0,0,0-.16,1.66v10.41H456.2Z" transform="translate(-39.07 -325.25)"/>
        <path class="cls-1" d="M307.58,377.28a9.32,9.32,0,0,0,4.68,1.41c2.58,0,3.79-1.29,3.79-2.91s-1-2.62-3.63-3.59c-3.51-1.25-5.17-3.19-5.17-5.53,0-3.14,2.54-5.73,6.74-5.73a9.76,9.76,0,0,1,4.8,1.21l-.88,2.59a7.57,7.57,0,0,0-4-1.13c-2.1,0-3.27,1.21-3.27,2.66,0,1.61,1.17,2.34,3.72,3.31,3.39,1.29,5.12,3,5.12,5.89,0,3.43-2.66,5.85-7.3,5.85a11.11,11.11,0,0,1-5.49-1.33Z" transform="translate(-39.07 -325.25)"/>
        <path class="cls-1" d="M330.66,355.89a2.2,2.2,0,0,1-4.4,0,2.17,2.17,0,0,1,2.22-2.22A2.1,2.1,0,0,1,330.66,355.89Zm-4,25V361.38h3.55v19.53Z" transform="translate(-39.07 -325.25)"/>
        <path class="cls-1" d="M338.82,366.66c0-2,0-3.67-.16-5.28h3.1l.16,3.14h.13a6.73,6.73,0,0,1,6.13-3.59,5.79,5.79,0,0,1,5.53,3.92h.08A8.15,8.15,0,0,1,356,362.3a6.71,6.71,0,0,1,4.32-1.37c2.58,0,6.42,1.7,6.42,8.48v11.5h-3.48V369.85c0-3.75-1.37-6-4.23-6a4.6,4.6,0,0,0-4.2,3.23,5.86,5.86,0,0,0-.28,1.77v12.07h-3.47v-11.7c0-3.11-1.38-5.37-4.08-5.37a4.85,4.85,0,0,0-4.4,3.55,4.91,4.91,0,0,0-.28,1.73v11.79h-3.47Z" transform="translate(-39.07 -325.25)"/>
        <path class="cls-1" d="M375.15,367.75c0-2.5-.09-4.52-.17-6.37h3.19l.16,3.35h.09a7.66,7.66,0,0,1,6.94-3.8c4.72,0,8.27,4,8.27,9.93,0,7-4.28,10.49-8.88,10.49a6.86,6.86,0,0,1-6-3.06h-.08V388.9h-3.51Zm3.51,5.21a8,8,0,0,0,.16,1.45,5.48,5.48,0,0,0,5.33,4.16c3.75,0,5.93-3.07,5.93-7.55,0-3.91-2.06-7.26-5.81-7.26a5.65,5.65,0,0,0-5.37,4.4,5.71,5.71,0,0,0-.24,1.45Z" transform="translate(-39.07 -325.25)"/>
        <path class="cls-1" d="M400.78,352.25h3.55v28.66h-3.55Z" transform="translate(-39.07 -325.25)"/>
        <path class="cls-1" d="M414.94,371.79c.08,4.8,3.15,6.78,6.7,6.78a12.9,12.9,0,0,0,5.41-1l.61,2.54a15.74,15.74,0,0,1-6.5,1.21c-6,0-9.61-3.95-9.61-9.84s3.47-10.54,9.16-10.54c6.38,0,8.08,5.61,8.08,9.2a13.51,13.51,0,0,1-.12,1.66Zm10.42-2.54c0-2.26-.93-5.78-4.93-5.78-3.59,0-5.16,3.31-5.45,5.78Z" transform="translate(-39.07 -325.25)"/>
        <path class="cls-1" d="M435.85,367.47c0-2.3,0-4.28-.16-6.09h3.11l.12,3.83h.16a5.87,5.87,0,0,1,5.41-4.28,3.89,3.89,0,0,1,1,.12v3.35a5.44,5.44,0,0,0-1.21-.12c-2.5,0-4.28,1.9-4.76,4.56a9.12,9.12,0,0,0-.17,1.66v10.41h-3.51Z" transform="translate(-39.07 -325.25)"/>
        <rect class="cls-2" x="248.53" y="30.33" width="2" height="99.5"/>
        <path class="cls-3" d="M114.56,329.28A10.44,10.44,0,1,0,125,339.73,10.44,10.44,0,0,0,114.56,329.28Z" transform="translate(-39.07 -325.25)"/>
        <polygon class="cls-3" points="47.53 33.27 47.53 45.53 47.53 46.91 66.27 46.91 66.27 93.01 73.04 93.01 73.04 66.81 77.94 66.81 77.94 93.01 84.77 93.01 84.77 33.27 73.29 33.27 47.53 33.27"/>
        <path class="cls-3" d="M174.9,363.67h-.21c-2.76-4-8.29-6.75-15.76-6.75-14.32,0-26.9,11.77-26.8,31.92,0,18.62,11.36,30.79,25.58,30.79,7.67,0,15-3.47,18.61-10l1.13,8.59H193.5V330.61H174.9Zm0,27.93a31,31,0,0,1-.31,4.3,11.09,11.09,0,0,1-11,8.9c-7.67,0-12.68-6.34-12.68-16.57,0-9.41,4.29-17,12.78-17,5.83,0,9.83,4.2,10.95,9.11a19.32,19.32,0,0,1,.21,3.38Z" transform="translate(-39.07 -325.25)"/>
        <path class="cls-1" d="M60.71,432.36h5L76.6,454.8H72l-2.34-5.16H56.7l-2.38,5.16H49.66Zm7.19,13.52-4.69-10-4.69,10Z" transform="translate(-39.07 -325.25)"/>
        <path class="cls-1" d="M82.59,432.36H87v18.55h16.27v3.89H82.59Z" transform="translate(-39.07 -325.25)"/>
        <path class="cls-1" d="M109.69,432.36h4.38v18.55h16.26v3.89H109.69Z" transform="translate(-39.07 -325.25)"/>
        <path class="cls-1" d="M137.07,432.36h4.38V454.8h-4.38Z" transform="translate(-39.07 -325.25)"/>
        <path class="cls-1" d="M158.76,432.36h5l10.89,22.44H170l-2.34-5.16H154.75l-2.38,5.16h-4.66ZM166,445.88l-4.69-10-4.69,10Z" transform="translate(-39.07 -325.25)"/>
        <path class="cls-1" d="M180.64,432.36h4.63l15,16.2v-16.2h4.2V454.8h-4L184.84,438V454.8h-4.2Z" transform="translate(-39.07 -325.25)"/>
        <path class="cls-1" d="M235.83,446.81c-.44,2.49-2.23,8.54-12.53,8.54-7.1,0-12.69-4-12.69-12.13,0-6.54,4.11-11.41,13-11.41,10,0,11.51,6.51,11.85,7.71H231.1c-.24-.77-2-3.95-7.22-3.95-6.2,0-8.79,3.49-8.79,8.15,0,5.15,3.73,7.87,8.55,7.87,5.12,0,7.37-3.06,7.8-4.78Z" transform="translate(-39.07 -325.25)"/>
        <path class="cls-1" d="M242.16,432.36h20.12v3.77H246.54v5.21h13.54v3.77H246.54V451h16.11v3.77H242.16Z" transform="translate(-39.07 -325.25)"/>
        <path class="cls-1" d="M85.26,342.52l4.57-15.39a29.58,29.58,0,0,0-3.88-1,36.16,36.16,0,0,0-18.14.57h0a19.93,19.93,0,0,0-3.55,1.42h0a25,25,0,0,0-6.37,4.57c-4.81,4.71-7.25,11.11-7.25,19v6.81H39.07v13.64H50.6v46.1H69.08v-46.1H80.61V358.52H69.08v-7.21a9.85,9.85,0,0,1,2.2-6.84,7,7,0,0,1,.62-.6h0S75.88,339.93,85.26,342.52Z" transform="translate(-39.07 -325.25)"/>
        <path class="cls-1" d="M234.38,356.93c-19.33,0-32,12.37-32,31.81s13.4,30.89,30.9,30.89c16,0,31.51-10,31.51-32C264.77,369.61,252.6,356.93,234.38,356.93Zm-.61,49.3c-8,0-12.27-7.67-12.27-18,0-8.8,3.47-17.9,12.27-17.9,8.38,0,11.87,9,11.87,17.8C245.64,399.07,241,406.23,233.77,406.23Z" transform="translate(-39.07 -325.25)"/>
        <polygon class="cls-1" points="216.35 25.65 218.58 25.65 218.58 31.32 219.93 31.32 219.93 25.65 222.15 25.65 222.15 24.52 216.35 24.52 216.35 25.65"/>
        <polygon class="cls-1" points="228.91 24.52 227.16 29.38 225.42 24.52 223.47 24.52 223.47 31.32 224.72 31.32 224.72 25.83 226.62 31.32 227.71 31.32 229.59 25.83 229.59 31.32 230.84 31.32 230.84 24.52 228.91 24.52"/>
    </g>
</svg>
