<svg xmlns="http://www.w3.org/2000/svg" width="374.426" height="374.086" viewBox="0 0 374.426 374.086">
  <g id="Group_7" data-name="Group 7" transform="translate(-7.787 -175)">
    <g id="Group_6" data-name="Group 6">
      <path id="Path_1" data-name="Path 1" d="M131.395,145.919a6.245,6.245,0,1,0,5.182,11.364,99.924,99.924,0,0,1,29.39-8.317,6.247,6.247,0,1,0-1.523-12.4A112.734,112.734,0,0,0,131.395,145.919Zm0,0" transform="translate(-26.49 138.096)" fill="#212a32"/>
      <path id="Path_2" data-name="Path 2" d="M69.217,416.8a6.326,6.326,0,0,0,1.984-.326,6.246,6.246,0,0,0,3.936-7.905A61.661,61.661,0,0,1,71.964,388.7v-15.92a6.243,6.243,0,1,0-12.487,0v16.294a73.752,73.752,0,0,0,3.816,23.465A6.246,6.246,0,0,0,69.217,416.8Zm0,0" transform="translate(-8.173 76.375)" fill="#212a32"/>
      <path id="Path_3" data-name="Path 3" d="M90.844,186.986a78.677,78.677,0,0,1,10.172-10.615,6.243,6.243,0,0,0-8.154-9.452,91.04,91.04,0,0,0-11.77,12.3,96.287,96.287,0,0,0-16.677,30.993,99.632,99.632,0,0,0-4.939,31.145v52.506a6.243,6.243,0,1,0,12.487,0V241.356a87.021,87.021,0,0,1,4.327-27.318A83.92,83.92,0,0,1,90.844,186.986Zm0,0" transform="translate(-8.173 130.32)" fill="#212a32"/>
      <path id="Path_4" data-name="Path 4" d="M285.711,230.176a6.657,6.657,0,0,0,.86-.057,6.245,6.245,0,0,0,5.327-7.037c-6.145-44.678-39.11-80.241-80.169-86.491a6.245,6.245,0,0,0-1.872,12.35c35.589,5.413,64.31,36.606,69.677,75.842A6.247,6.247,0,0,0,285.711,230.176Zm0,0" transform="translate(-47.099 138.096)" fill="#212a32"/>
      <path id="Path_5" data-name="Path 5" d="M221.326,250.57a47.043,47.043,0,0,0-46.758-45.4,42.626,42.626,0,0,0-8.066.717,46.56,46.56,0,0,0-27.861,16.171,45.052,45.052,0,0,0-10.712,26.577,23.6,23.6,0,0,0-.189,3.361v29.407c0,11.681,0,25.8.063,40.708a73.626,73.626,0,0,0,27.009,57.147l6.008,4.924c44.952,36.884,45.072,36.952,45.578,37.289A6.248,6.248,0,0,0,213.63,411.3c-1.249-.957-22.433-18.343-44.892-36.764L162.73,369.6a61.364,61.364,0,0,1-22.439-47.893c-.063-14.536-.063-28.632-.063-40.3V252a13.4,13.4,0,0,1,.111-2.086,33.4,33.4,0,0,1,7.88-19.844,34.26,34.26,0,0,1,20.55-11.9,30.361,30.361,0,0,1,5.8-.506,34.464,34.464,0,0,1,34.277,33.4,3.682,3.682,0,0,0,.063.937v31.842a73.472,73.472,0,0,0,9.9,36.835,6.243,6.243,0,1,0,10.8-6.242,61.422,61.422,0,0,1-8.211-31.03V252A13.3,13.3,0,0,0,221.326,250.57Zm0,0" transform="translate(-26.49 119.674)" fill="#212a32"/>
      <path id="Path_6" data-name="Path 6" d="M189.024,376.626c12.05,9.866,22.982,18.781,30.647,25.014a5.361,5.361,0,0,0,.594.543l6.245,5.05c5.256,4.29,5.256,4.29,6.442,4.687a5.972,5.972,0,0,0,2,.337,6.243,6.243,0,0,0,3.453-11.449c-.549-.426-1.935-1.561-4.013-3.253l-5.659-4.6a5.118,5.118,0,0,0-.58-.532c-7.68-6.242-18.849-15.354-31.216-25.454a61.306,61.306,0,0,1-22.479-47.559v-8.271c-.063-12.413-.063-23.725-.063-32.436V261.159a9.368,9.368,0,0,1,8.743-9.366,8.531,8.531,0,0,1,6.574,2.541,10.846,10.846,0,0,1,3.378,7.823v9.958c0,7.8,0,19.149-.063,32.342v.726a73.975,73.975,0,0,0,26.849,56.71c2.578,2.141,5.093,4.213,7.422,6.1a6.252,6.252,0,0,0,7.874-9.715c-2.292-1.872-4.77-3.91-7.331-6.025a61.52,61.52,0,0,1-22.327-47.133v-.726c.063-13.11.063-24.5.063-32.311v-9.926a23.382,23.382,0,0,0-7.3-16.888,21.229,21.229,0,0,0-15.888-5.939,21.856,21.856,0,0,0-20.518,21.83V278.7c0,8.74,0,20.061.063,32.468v8.24A73.726,73.726,0,0,0,189.024,376.626Zm0,0" transform="translate(-35.649 110.517)" fill="#212a32"/>
      <path id="Path_7" data-name="Path 7" d="M60.093,30.1a6.244,6.244,0,0,0,8.354,2.841A196.344,196.344,0,0,1,195.5,17.094a6.246,6.246,0,1,0,2.624-12.213A208.8,208.8,0,0,0,62.954,21.738,6.243,6.243,0,0,0,60.093,30.1Zm0,0" transform="translate(-8.166 174.628)" fill="#212a32"/>
      <path id="Path_8" data-name="Path 8" d="M300.533,40.628A6.244,6.244,0,1,0,307.3,30.139a187.354,187.354,0,0,0-25.86-13.922,6.243,6.243,0,1,0-5,11.424A174.867,174.867,0,0,1,300.533,40.628Zm0,0" transform="translate(-65.306 170.555)" fill="#212a32"/>
      <path id="Path_9" data-name="Path 9" d="M20.545,87.6a6.244,6.244,0,1,0,9.072,8.58A155.326,155.326,0,0,1,143.457,46.995a153.006,153.006,0,0,1,40.782,5.456,6.246,6.246,0,0,0,3.335-12.038,165.633,165.633,0,0,0-44.117-5.9A167.688,167.688,0,0,0,20.545,87.6Zm0,0" transform="translate(2.749 165.469)" fill="#212a32"/>
      <path id="Path_10" data-name="Path 10" d="M116.216,77.071A153.968,153.968,0,0,0,70.669,98.812a6.244,6.244,0,1,0,7.168,10.226A141.422,141.422,0,0,1,119.7,89.061a6.246,6.246,0,1,0-3.484-12Zm0,0" transform="translate(-10.463 154.116)" fill="#212a32"/>
      <path id="Path_11" data-name="Path 11" d="M4.319,194.134a6.246,6.246,0,0,0,7.863-4.016A131.9,131.9,0,0,1,41.825,140.1a6.248,6.248,0,0,0-9.1-8.56A144.3,144.3,0,0,0,.306,186.266a6.244,6.244,0,0,0,4.013,7.868Zm0,0" transform="translate(7.786 139.961)" fill="#212a32"/>
      <path id="Path_12" data-name="Path 12" d="M324.17,206a6.85,6.85,0,0,0,.686-.037,6.247,6.247,0,0,0,5.528-6.868A146.849,146.849,0,0,0,183.783,68.64a150.711,150.711,0,0,0-16.377.912,6.244,6.244,0,1,0,1.349,12.413,138.2,138.2,0,0,1,15.028-.837A134.376,134.376,0,0,1,317.965,200.435,6.243,6.243,0,0,0,324.17,206Zm0,0" transform="translate(-35.61 156.31)" fill="#212a32"/>
      <path id="Path_13" data-name="Path 13" d="M336.17,234.739h.563a6.241,6.241,0,0,0,5.679-6.8,120.994,120.994,0,0,0-32.059-71.384,6.255,6.255,0,1,0-9.146,8.534,108.437,108.437,0,0,1,28.718,63.961A6.245,6.245,0,0,0,336.17,234.739Zm0,0" transform="translate(-72.585 133.253)" fill="#212a32"/>
      <path id="Path_14" data-name="Path 14" d="M47.64,179.455a108.757,108.757,0,0,1,102.394-64.127,6.246,6.246,0,0,0,.337-12.487A121.281,121.281,0,0,0,36.282,174.3a120.025,120.025,0,0,0-10.815,43.923c-.06,2.055-.123,4.184-.123,6.308,0,13.959,0,21.439.074,22.233a6.205,6.205,0,0,0,6.242,5.825h.314a6.278,6.278,0,0,0,5.911-6.488c-.054-1.655-.054-20.541-.054-21.57,0-2,.063-4,.111-5.776A107.831,107.831,0,0,1,47.64,179.455Zm0,0" transform="translate(0.986 147.146)" fill="#212a32"/>
      <path id="Path_15" data-name="Path 15" d="M228.592,120.452A105.464,105.464,0,0,1,261.84,135.9a6.255,6.255,0,1,0,7.137-10.275,117.878,117.878,0,0,0-37.255-17.289l-2.312-.563a6.244,6.244,0,1,0-3.047,12.107Zm0,0" transform="translate(-51.649 145.869)" fill="#212a32"/>
      <path id="Path_16" data-name="Path 16" d="M237.211,262.555V244.572A71.87,71.87,0,0,0,103.6,206.319a72.669,72.669,0,0,0-9.989,36.538v81.916a73.669,73.669,0,0,0,27,57.147l13.662,11.238c11.861,9.752,22.919,18.838,31.31,25.691a6.244,6.244,0,0,0,7.894-9.677c-8.386-6.868-19.432-15.92-31.282-25.66l-13.656-11.238A61.4,61.4,0,0,1,106.1,324.458v-81.6a59.326,59.326,0,1,1,118.628,1.683v18.295a67.4,67.4,0,0,0,.626,9.077,6.243,6.243,0,1,0,12.373-1.672A56.2,56.2,0,0,1,237.211,262.555Zm0,0" transform="translate(-17.332 128.819)" fill="#212a32"/>
      <path id="Path_17" data-name="Path 17" d="M276.621,65.472a161.347,161.347,0,0,1,61.849,48.382,6.244,6.244,0,1,0,9.858-7.663,173.818,173.818,0,0,0-66.8-52.2H281.4c-.174-.074-.38-.06-.557-.123a6.385,6.385,0,0,0-1.815-.394h-.077a6.062,6.062,0,0,0-1.292.263,5.178,5.178,0,0,0-.949.194,6.2,6.2,0,0,0-.1,11.555Zm0,0" transform="translate(-65.388 160.379)" fill="#212a32"/>
    </g>
    <path id="Path_18" data-name="Path 18" d="M433.477,322.709h-6.605a56.192,56.192,0,0,0-111.66,0h-6.605a18.733,18.733,0,0,0-18.732,18.732V428.85a18.731,18.731,0,0,0,18.732,18.732h124.87a18.731,18.731,0,0,0,18.732-18.732V341.441A18.733,18.733,0,0,0,433.477,322.709Zm-62.435-37.492a43.736,43.736,0,0,1,43.211,37.492H401.635a31.217,31.217,0,0,0-61.186,0H327.83A43.741,43.741,0,0,1,371.042,285.217Zm17.589,37.492H353.453a18.613,18.613,0,0,1,35.177,0ZM439.722,428.85a6.244,6.244,0,0,1-6.245,6.245H308.607a6.244,6.244,0,0,1-6.245-6.245V341.441a6.246,6.246,0,0,1,6.245-6.245h124.87a6.246,6.246,0,0,1,6.245,6.245Zm0,0" transform="translate(-69.996 101.504)" fill="#fd501e"/>
    <path id="Path_19" data-name="Path 19" d="M407.678,381.3a25.037,25.037,0,0,0-32.717,37.893l-6.825,12.7a12.978,12.978,0,0,0,.4,12.676,11.8,11.8,0,0,0,10.126,5.836h25.974a11.793,11.793,0,0,0,10.126-5.831,12.986,12.986,0,0,0,.369-12.73l-6.625-12.97a24.97,24.97,0,0,0-.843-37.578Zm-10.446,43.612,6.737,13.01-24.805-.169,6.794-12.641a12.493,12.493,0,0,0-2.547-15.285,12.487,12.487,0,0,1,5.842-21.653,13.229,13.229,0,0,1,2.4-.2,12.353,12.353,0,0,1,8.006,2.9,12.481,12.481,0,0,1,4.481,9.589,12.267,12.267,0,0,1-4.027,9.192A12.624,12.624,0,0,0,397.232,424.909Zm0,0" transform="translate(-90.604 73.954)" fill="#fd501e"/>
  </g>
</svg>
