<?xml version="1.0" encoding="iso-8859-1"?>

<!--
 * Copyright (c) 2020, WSO2 Inc. (http://www.wso2.org) All Rights Reserved.
 *
 * WSO2 Inc. licenses this file to you under the Apache License,
 * Version 2.0 (the "License"); you may not use this file except
 * in compliance with the License.
 * You may obtain a copy of the License at
 *
 *     http://www.apache.org/licenses/LICENSE-2.0
 *
 * Unless required by applicable law or agreed to in writing,
 * software distributed under the License is distributed on an
 * "AS IS" BASIS, WITHOUT WARRANTIES OR CONDITIONS OF ANY
 * KIND, either express or implied. See the License for the
 * specific language governing permissions and limitations
 * under the License.
-->

<svg version="1.1" class="icon" width="14" height="14" id="gears-icon" xmlns="http://www.w3.org/2000/svg" xmlns:xlink="http://www.w3.org/1999/xlink" x="0px" y="0px"
	 viewBox="0 0 512 512" xml:space="preserve">
  <g transform="translate(0.001 0)">
    <path class="path primary" d="M193.2-3041H147.715a21.441,21.441,0,0,1-21.121-18.324l-6.316-44.394a133.4,133.4,0,0,1-19.02-9.114,136.234,136.234,0,0,1-17.5-12.07l-41.75,16.746a21.046,21.046,0,0,1-7.866,1.516,21.5,21.5,0,0,1-18.568-10.648l-22.742-39.423a21.4,21.4,0,0,1,5.356-27.476l35.222-27.48A138.678,138.678,0,0,1,31.79-3233a139.659,139.659,0,0,1,1.6-21.164l-35.262-27.668A21.331,21.331,0,0,1-9.6-3294.56a21.465,21.465,0,0,1,2.415-14.729l22.743-39.422a21.506,21.506,0,0,1,18.583-10.648,21.055,21.055,0,0,1,7.87,1.516L83.567-3341.1a134.7,134.7,0,0,1,36.691-21.227l6.317-44.371a21.363,21.363,0,0,1,7.176-13.065,21.342,21.342,0,0,1,13.964-5.24H193.2a21.442,21.442,0,0,1,21.121,18.324l6.316,44.394a133.429,133.429,0,0,1,19.02,9.114,136.27,136.27,0,0,1,17.5,12.07l41.75-16.745a21.149,21.149,0,0,1,7.908-1.528,21.408,21.408,0,0,1,18.526,10.66l22.742,39.422a21.4,21.4,0,0,1-5.355,27.477l-35.223,27.48A138.659,138.659,0,0,1,309.121-3233a139.663,139.663,0,0,1-1.6,21.164l35.262,27.669a21.334,21.334,0,0,1,7.729,12.728,21.451,21.451,0,0,1-2.416,14.729l-22.762,39.423a21.482,21.482,0,0,1-18.563,10.66,21.008,21.008,0,0,1-7.889-1.528L257.324-3124.9a134.722,134.722,0,0,1-36.691,21.226l-6.316,44.372A21.436,21.436,0,0,1,193.2-3041ZM170-3322a89.1,89.1,0,0,0-89,89,89.1,89.1,0,0,0,89,89,89.1,89.1,0,0,0,89-89A89.1,89.1,0,0,0,170-3322Z" transform="translate(10 3425)"/>
    <path class="path primary" d="M483.453,96.66a80.861,80.861,0,0,1,1,10,80.924,80.924,0,0,1-1,10.008l19.223,14.547a10.68,10.68,0,0,1,2.793,13.848l-17.258,29.867a10.677,10.677,0,0,1-13.379,4.5l-22.121-9.324A79.269,79.269,0,0,1,435.238,180.5L432.3,203.988a10.685,10.685,0,0,1-10.582,9.344h-34.5a10.667,10.667,0,0,1-10.582-9.344L373.691,180.5a79.579,79.579,0,0,1-17.473-10.391L334.1,179.434a10.669,10.669,0,0,1-13.4-4.5l-17.234-29.867a10.681,10.681,0,0,1,2.793-13.848l19.223-14.547a76.649,76.649,0,0,1-1.023-10.008,80.861,80.861,0,0,1,1-10L306.238,82.109a10.672,10.672,0,0,1-2.8-13.844L320.7,38.4a10.673,10.673,0,0,1,13.379-4.5L356.2,43.242a79.269,79.269,0,0,1,17.473-10.391l2.941-23.488A10.682,10.682,0,0,1,387.2,0h34.5a10.661,10.661,0,0,1,10.582,9.344l2.945,23.488a79.716,79.716,0,0,1,17.473,10.387l22.121-9.32a10.669,10.669,0,0,1,13.4,4.5l17.234,29.867a10.675,10.675,0,0,1-2.793,13.844Zm-79-32.66a42.666,42.666,0,1,0,42.664,42.664A42.655,42.655,0,0,0,404.457,64Zm0,0" transform="translate(0.001 298.668)"/>
  </g>
</svg>
