<?xml version="1.0" encoding="utf-8"?>

<!--
 * Copyright (c) 2019, WSO2 Inc. (http://www.wso2.org) All Rights Reserved.
 *
 * WSO2 Inc. licenses this file to you under the Apache License,
 * Version 2.0 (the "License"); you may not use this file except
 * in compliance with the License.
 * You may obtain a copy of the License at
 *
 *     http://www.apache.org/licenses/LICENSE-2.0
 *
 * Unless required by applicable law or agreed to in writing,
 * software distributed under the License is distributed on an
 * "AS IS" BASIS, WITHOUT WARRANTIES OR CONDITIONS OF ANY
 * KIND, either express or implied. See the License for the
 * specific language governing permissions and limitations
 * under the License.
-->

<svg id="idp-certificate-icon" class="icon" stroke="currentColor" fill="currentColor" stroke-width="0" viewBox="0 0 256 256" height="1em" width="1em"
  xmlns="http://www.w3.org/2000/svg">
  <path
    d="M248,128a56,56,0,1,0-96,39.14V224a8,8,0,0,0,11.58,7.16L192,216.94l28.42,14.22A8,8,0,0,0,232,224V167.14A55.81,55.81,0,0,0,248,128ZM192,88a40,40,0,1,1-40,40A40,40,0,0,1,192,88Zm3.58,112.84a8,8,0,0,0-7.16,0L168,211.06V178.59a55.94,55.94,0,0,0,48,0v32.47ZM136,192a8,8,0,0,1-8,8H40a16,16,0,0,1-16-16V56A16,16,0,0,1,40,40H216a16,16,0,0,1,16,16,8,8,0,0,1-16,0H40V184h88A8,8,0,0,1,136,192Zm-16-56a8,8,0,0,1-8,8H72a8,8,0,0,1,0-16h40A8,8,0,0,1,120,136Zm0-32a8,8,0,0,1-8,8H72a8,8,0,0,1,0-16h40A8,8,0,0,1,120,104Z">
  </path>
</svg>
