<?xml version="1.0" encoding="utf-8"?>

<!--
 * Copyright (c) 2020, WSO2 Inc. (http://www.wso2.org) All Rights Reserved.
 *
 * WSO2 Inc. licenses this file to you under the Apache License,
 * Version 2.0 (the "License"); you may not use this file except
 * in compliance with the License.
 * You may obtain a copy of the License at
 *
 *     http://www.apache.org/licenses/LICENSE-2.0
 *
 * Unless required by applicable law or agreed to in writing,
 * software distributed under the License is distributed on an
 * "AS IS" BASIS, WITHOUT WARRANTIES OR CONDITIONS OF ANY
 * KIND, either express or implied. See the License for the
 * specific language governing permissions and limitations
 * under the License.
-->

<svg id="jwks-icon" class="icon" width="16" height="16" viewBox="0 0 16 16" fill="none" xmlns="http://www.w3.org/2000/svg">
    <circle cx="12.5" cy="10" r="3" stroke="black" />
    <path
        d="M11 12.9051L9.63993 14.1756C9.62141 14.1929 9.59701 14.2025 9.57167 14.2025H8.6C8.54477 14.2025 8.5 14.2473 8.5 14.3025V14.9376C8.5 14.9653 8.48851 14.9918 8.46826 15.0107L7.97327 15.4731C7.95475 15.4904 7.93035 15.5 7.905 15.5H6.1C6.04477 15.5 6 15.4552 6 15.4V14.2465C6 14.2185 6.01179 14.1917 6.03249 14.1728L9.5 11"
        stroke="black" stroke-linecap="round" />
    <path
        d="M4 12.3187L4.07561 11.8244L4 12.3187ZM4.4415 12.8828C4.71574 12.9151 4.96425 12.7189 4.99657 12.4447C5.02888 12.1705 4.83275 11.9219 4.5585 11.8896L4.4415 12.8828ZM4.07561 11.8244C3.07259 11.671 2.25464 11.4294 1.70241 11.148C1.42586 11.0071 1.23875 10.8677 1.12658 10.7441C1.01708 10.6235 1 10.5433 1 10.5H0C0 10.8603 0.162225 11.1697 0.386243 11.4164C0.607585 11.6601 0.90818 11.8657 1.24844 12.039C1.92983 12.3862 2.86188 12.6504 3.92439 12.8129L4.07561 11.8244ZM4.5585 11.8896C4.39374 11.8702 4.23265 11.8484 4.07561 11.8244L3.92439 12.8129C4.0931 12.8387 4.26561 12.862 4.4415 12.8828L4.5585 11.8896Z"
        fill="black" />
    <path d="M0.5 2.5V10.4999" stroke="black" stroke-linecap="round" />
    <path d="M12.5 2.5V5" stroke="black" stroke-linecap="round" />
    <ellipse cx="6.5" cy="2.5" rx="6" ry="2" stroke="black" />
    <path d="M0.5 6.5C0.5 7.60457 3.18629 8.5 6.5 8.5C6.66838 8.5 6.83513 8.49769 7 8.49315" stroke="black"
        stroke-linecap="round" />
</svg>
