<?xml version="1.0" encoding="iso-8859-1"?>

<!--
 * Copyright (c) 2019, WSO2 Inc. (http://www.wso2.org) All Rights Reserved.
 *
 * WSO2 Inc. licenses this file to you under the Apache License,
 * Version 2.0 (the "License"); you may not use this file except
 * in compliance with the License.
 * You may obtain a copy of the License at
 *
 *     http://www.apache.org/licenses/LICENSE-2.0
 *
 * Unless required by applicable law or agreed to in writing,
 * software distributed under the License is distributed on an
 * "AS IS" BASIS, WITHOUT WARRANTIES OR CONDITIONS OF ANY
 * KIND, either express or implied. See the License for the
 * specific language governing permissions and limitations
 * under the License.
-->

<svg version="1.1" class="icon" id="lock-icon" xmlns="http://www.w3.org/2000/svg" xmlns:xlink="http://www.w3.org/1999/xlink" x="0px" y="0px"
	 width="14px" height="14px" viewBox="0 0 512 512" xml:space="preserve">
	<g>
		<g>
			<g>
				<path class="path fill secondary" d="M230.792,354.313l-6.729,60.51c-0.333,3.01,0.635,6.031,2.656,8.292c2.021,2.26,4.917,3.552,7.948,3.552h42.667
					c3.031,0,5.927-1.292,7.948-3.552c2.021-2.26,2.99-5.281,2.656-8.292l-6.729-60.51c10.927-7.948,17.458-20.521,17.458-34.313
					c0-23.531-19.135-42.667-42.667-42.667S213.333,296.469,213.333,320C213.333,333.792,219.865,346.365,230.792,354.313z
					 M256,298.667c11.76,0,21.333,9.573,21.333,21.333c0,8.177-4.646,15.5-12.125,19.125c-4.073,1.979-6.458,6.292-5.958,10.781
					l6.167,55.427h-18.833l6.167-55.427c0.5-4.49-1.885-8.802-5.958-10.781c-7.479-3.625-12.125-10.948-12.125-19.125
					C234.667,308.24,244.24,298.667,256,298.667z"/>
				<path class="path fill primary" d="M437.333,192h-32v-42.667C405.333,66.99,338.344,0,256,0S106.667,66.99,106.667,149.333V192h-32
					C68.771,192,64,196.771,64,202.667v266.667C64,492.865,83.135,512,106.667,512h298.667C428.865,512,448,492.865,448,469.333
					V202.667C448,196.771,443.229,192,437.333,192z M128,149.333c0-70.583,57.417-128,128-128s128,57.417,128,128V192h-21.333
					v-42.667c0-58.813-47.854-106.667-106.667-106.667S149.333,90.521,149.333,149.333V192H128V149.333z M341.333,149.333V192
					H170.667v-42.667C170.667,102.281,208.948,64,256,64S341.333,102.281,341.333,149.333z M426.667,469.333
					c0,11.76-9.573,21.333-21.333,21.333H106.667c-11.76,0-21.333-9.573-21.333-21.333v-256h341.333V469.333z"/>
			</g>
		</g>
	</g>
</svg>
