<!--
 * Copyright (c) 2021, WSO2 Inc. (http://www.wso2.org) All Rights Reserved.
 *
 * WSO2 Inc. licenses this file to you under the Apache License,
 * Version 2.0 (the "License"); you may not use this file except
 * in compliance with the License.
 * You may obtain a copy of the License at
 *
 *     http://www.apache.org/licenses/LICENSE-2.0
 *
 * Unless required by applicable law or agreed to in writing,
 * software distributed under the License is distributed on an
 * "AS IS" BASIS, WITHOUT WARRANTIES OR CONDITIONS OF ANY
 * KIND, either express or implied. See the License for the
 * specific language governing permissions and limitations
 * under the License.
-->

<svg xmlns="http://www.w3.org/2000/svg" id="myaccount-icon" class="icon" width="14" height="14" viewBox="0 0 21.163 21.167">
    <path id="myaccount" d="M-13081.564-2693.251l-.368-1.528a9.2,9.2,0,0,1-2.825-1.169l-1.314.785-2.437-2.438.789-1.311a9.186,9.186,0,0,1-1.17-2.825l-1.527-.371v-3.456l1.527-.368a9.121,9.121,0,0,1,1.17-2.825l-.789-1.311,2.438-2.441,1.314.788a9.127,9.127,0,0,1,2.825-1.169l.368-1.528h3.456l.371,1.528a9.186,9.186,0,0,1,2.825,1.169l1.312-.788,2.438,2.441-.789,1.311a9.1,9.1,0,0,1,1.173,2.825l1.524.368v3.456l-1.524.371a9.169,9.169,0,0,1-1.173,2.825l.789,1.311-2.437,2.438-1.312-.785a9.258,9.258,0,0,1-2.825,1.169l-.371,1.528Zm.253-2.665.395.072.328,1.35h1.5l.328-1.35.395-.072a8.228,8.228,0,0,0,3.41-1.5l1.159.7,1.068-1.071-.7-1.156a8.214,8.214,0,0,0,1.5-3.41l.072-.394,1.351-.329v-1.5l-1.351-.328-.072-.394a8.185,8.185,0,0,0-1.5-3.407l.7-1.16-1.068-1.068-1.159.693a8.274,8.274,0,0,0-3.41-1.5l-.395-.076-.328-1.347h-1.5l-.328,1.347-.395.076a8.251,8.251,0,0,0-3.407,1.5l-1.159-.693-1.067,1.068.692,1.16a8.254,8.254,0,0,0-1.5,3.407l-.075.394-1.348.328v1.5l1.348.329.075.394a8.268,8.268,0,0,0,1.5,3.41l-.692,1.156,1.067,1.071,1.159-.7A8.206,8.206,0,0,0-13081.312-2695.916Zm-5.345-7.921a6.827,6.827,0,0,1,6.82-6.82,6.827,6.827,0,0,1,6.819,6.82,6.826,6.826,0,0,1-6.819,6.82A6.827,6.827,0,0,1-13086.656-2703.836Zm4.037,4.836a5.551,5.551,0,0,0,2.783.746,5.561,5.561,0,0,0,2.785-.746,3.085,3.085,0,0,0-2.785-1.735A3.081,3.081,0,0,0-13082.619-2699Zm6.577-.746a5.576,5.576,0,0,0,1.787-4.09,5.586,5.586,0,0,0-5.581-5.578,5.586,5.586,0,0,0-5.579,5.578,5.565,5.565,0,0,0,1.787,4.09,4.334,4.334,0,0,1,3.792-2.227,3.1,3.1,0,0,1-3.1-3.1,3.1,3.1,0,0,1,3.1-3.1,3.1,3.1,0,0,1,3.1,3.1,3.1,3.1,0,0,1-3.1,3.1A4.336,4.336,0,0,1-13076.042-2699.746Zm-5.654-5.329a1.862,1.862,0,0,0,1.86,1.859,1.863,1.863,0,0,0,1.862-1.859,1.863,1.863,0,0,0-1.862-1.86A1.863,1.863,0,0,0-13081.7-2705.075Z" transform="translate(13090.418 2714.418)" fill="#3b3b3b"/>
</svg>
