<?xml version="1.0" encoding="utf-8"?>

<!--
 * Copyright (c) 2023, WSO2 Inc. (http://www.wso2.org) All Rights Reserved.
 *
 * WSO2 Inc. licenses this file to you under the Apache License,
 * Version 2.0 (the "License"); you may not use this file except
 * in compliance with the License.
 * You may obtain a copy of the License at
 *
 *     http://www.apache.org/licenses/LICENSE-2.0
 *
 * Unless required by applicable law or agreed to in writing,
 * software distributed under the License is distributed on an
 * "AS IS" BASIS, WITHOUT WARRANTIES OR CONDITIONS OF ANY
 * KIND, either express or implied. See the License for the
 * specific language governing permissions and limitations
 * under the License.
-->

<svg id="par" class="icon" stroke="currentColor" fill="currentColor" stroke-width="0" viewBox="0 0 16 16" height="1em" width="1em"
    xmlns="http://www.w3.org/2000/svg">
    <path fill-rule="evenodd"
        d="M7.27 1.047a1 1 0 0 1 1.46 0l6.345 6.77c.6.638.146 1.683-.73 1.683H11.5v1a1 1 0 0 1-1 1h-5a1 1 0 0 1-1-1v-1H1.654C.78 9.5.326 8.455.924 7.816L7.27 1.047zM14.346 8.5 8 1.731 1.654 8.5H4.5a1 1 0 0 1 1 1v1h5v-1a1 1 0 0 1 1-1h2.846zm-9.846 5a1 1 0 0 1 1-1h5a1 1 0 0 1 1 1v1a1 1 0 0 1-1 1h-5a1 1 0 0 1-1-1v-1zm6 0h-5v1h5v-1z">
    </path>
</svg>
