<?xml version="1.0" encoding="utf-8"?>
<!-- Generator: Adobe Illustrator 23.0.0, SVG Export Plug-In . SVG Version: 6.00 Build 0)  -->
<svg class="icon" version="1.1" id="Layer_1" xmlns="http://www.w3.org/2000/svg" xmlns:xlink="http://www.w3.org/1999/xlink" x="0px" y="0px"
	 viewBox="0 0 14 14" style="enable-background:new 0 0 14 14;" xml:space="preserve">
<style type="text/css">
	.st0{fill:none;stroke:#969696;stroke-width:1.2;stroke-miterlimit:10;}
	.st1{fill:none;stroke:#ff5000;stroke-width:1.5;stroke-miterlimit:10;}
	.st2{fill:#ff5000;}
</style>
<path class="st0" d="M9.09,13.32H4.55c-0.9,0-1.64-0.73-1.64-1.64v-3.6c0-0.9,0.73-1.64,1.64-1.64h4.54c0.9,0,1.64,0.73,1.64,1.64
	v3.6C10.72,12.59,9.99,13.32,9.09,13.32z"/>
<path class="st1" d="M2.21,5.42"/>
<path class="st1" d="M6.88,8.49V6.84c1.64,0,3.38-1.33,3.38-2.96S8.94,0.91,7.3,0.91S4.34,2.24,4.34,3.88"/>
<path class="st2" d="M7.51,9.58c0-0.38-0.31-0.69-0.69-0.69c-0.38,0-0.69,0.31-0.69,0.69c0,0.22,0.11,0.41,0.27,0.53l-0.16,0.72H7.4
	l-0.17-0.72C7.39,9.99,7.51,9.8,7.51,9.58z"/>
</svg>
