<?xml version="1.0" encoding="utf-8"?>

<!--
 * Copyright (c) 2020, WSO2 Inc. (http://www.wso2.org) All Rights Reserved.
 *
 * WSO2 Inc. licenses this file to you under the Apache License,
 * Version 2.0 (the "License"); you may not use this file except
 * in compliance with the License.
 * You may obtain a copy of the License at
 *
 *     http://www.apache.org/licenses/LICENSE-2.0
 *
 * Unless required by applicable law or agreed to in writing,
 * software distributed under the License is distributed on an
 * "AS IS" BASIS, WITHOUT WARRANTIES OR CONDITIONS OF ANY
 * KIND, either express or implied. See the License for the
 * specific language governing permissions and limitations
 * under the License.
-->

<svg version="1.1" id="slo-icon" xmlns="http://www.w3.org/2000/svg" class="icon" width="14" height="14" viewBox="0 0 59.873 60" xml:space="preserve">
  <g id="login" transform="translate(-2.127 -2)">
    <path id="Path_299" data-name="Path 299" d="M59,14H57V7a5,5,0,0,0-5-5H44a5,5,0,0,0-5,5v7H37a3.009,3.009,0,0,0-3,3V28H7a3.009,3.009,0,0,0-3,3V56H3.12a1,1,0,0,0-.77.37.989.989,0,0,0-.2.84l.87,4A1,1,0,0,0,4,62H52a1,1,0,0,0,.98-.79l.87-4a.989.989,0,0,0-.2-.84,1,1,0,0,0-.77-.37H51V38h8a3.009,3.009,0,0,0,3-3V17a3.009,3.009,0,0,0-3-3ZM41,7a3.009,3.009,0,0,1,3-3h8a3.009,3.009,0,0,1,3,3v7H53V9a3.009,3.009,0,0,0-3-3H46a3.009,3.009,0,0,0-3,3v5H41ZM51,9v5H45V9a1,1,0,0,1,1-1h4A1,1,0,0,1,51,9ZM6,31a1,1,0,0,1,1-1H34v5a3.009,3.009,0,0,0,3,3H49V56H31a1,1,0,0,0-1,1H26a1,1,0,0,0-1-1H6ZM51.63,58l-.43,2H4.8l-.43-2H24a1,1,0,0,0,1,1h6a1,1,0,0,0,1-1ZM60,35a1,1,0,0,1-1,1H37a1,1,0,0,1-1-1V17a1,1,0,0,1,1-1H59a1,1,0,0,1,1,1Z"/>
    <path id="Path_300" data-name="Path 300" d="M52.411,19.564a7,7,0,1,0-7.393,11.764,3,3,0,0,0,5.964,0,7,7,0,0,0,1.429-11.763ZM49.667,29.709a1,1,0,0,0-.667.942V31a1,1,0,0,1-2,0v-.349a1,1,0,0,0-.666-.942,5,5,0,0,1,.576-9.6A5.267,5.267,0,0,1,47.987,20a5,5,0,0,1,1.68,9.707Z"/>
    <path id="Path_301" data-name="Path 301" d="M33,38V48a3.009,3.009,0,0,1-3,3H20a3.009,3.009,0,0,1-3-3V46h2v2a1,1,0,0,0,1,1H30a1,1,0,0,0,1-1V38a1,1,0,0,0-1-1H20a1,1,0,0,0-1,1v2H17V38a3.009,3.009,0,0,1,3-3H30a3.009,3.009,0,0,1,3,3Z"/>
    <path id="Path_302" data-name="Path 302" d="M25.71,43.71l-4,4-1.42-1.42L22.59,44H11V42H22.59l-2.3-2.29,1.42-1.42,4,4A1.008,1.008,0,0,1,25.71,43.71Z"/>
  </g>
</svg>
