<?xml version="1.0" encoding="iso-8859-1"?>

<!--
 * Copyright (c) 2019, WSO2 Inc. (http://www.wso2.org) All Rights Reserved.
 *
 * WSO2 Inc. licenses this file to you under the Apache License,
 * Version 2.0 (the "License"); you may not use this file except
 * in compliance with the License.
 * You may obtain a copy of the License at
 *
 *     http://www.apache.org/licenses/LICENSE-2.0
 *
 * Unless required by applicable law or agreed to in writing,
 * software distributed under the License is distributed on an
 * "AS IS" BASIS, WITHOUT WARRANTIES OR CONDITIONS OF ANY
 * KIND, either express or implied. See the License for the
 * specific language governing permissions and limitations
 * under the License.
-->

<svg version="1.1" class="icon" id="success-icon"
	 xmlns="http://www.w3.org/2000/svg"
	 xmlns:xlink="http://www.w3.org/1999/xlink" x="0px" y="0px"
	 viewBox="0 0 506.4 506.4" width="14px" height="14px" xml:space="preserve">
	<circle class="path fill positive" cx="253.2" cy="253.2" r="249.2"/>
	<path class="path fill white" d="M372.8,200.4l-11.2-11.2c-4.4-4.4-12-4.4-16.4,0L232,302.4l-69.6-69.6c-4.4-4.4-12-4.4-16.4,0
		L134.4,244c-4.4,4.4-4.4,12,0,16.4l89.2,89.2c4.4,4.4,12,4.4,16.4,0l0,0l0,0l10.4-10.4l0.8-0.8l121.6-121.6
		C377.2,212.4,377.2,205.2,372.8,200.4z"/>
	<path class="path fill white" d="M253.2,506.4C113.6,506.4,0,392.8,0,253.2S113.6,0,253.2,0s253.2,113.6,253.2,253.2S392.8,506.4,253.2,506.4z M253.2,8
		C118,8,8,118,8,253.2s110,245.2,245.2,245.2s245.2-110,245.2-245.2S388.4,8,253.2,8z"/>
	<path class="path fill white" d="M231.6,357.2c-4,0-8-1.6-11.2-4.4l-89.2-89.2c-6-6-6-16,0-22l11.6-11.6c6-6,16.4-6,22,0l66.8,66.8L342,186.4
		c2.8-2.8,6.8-4.4,11.2-4.4c4,0,8,1.6,11.2,4.4l11.2,11.2l0,0c6,6,6,16,0,22L242.8,352.4C239.6,355.6,235.6,357.2,231.6,357.2z
		 M154,233.6c-2,0-4,0.8-5.6,2.4l-11.6,11.6c-2.8,2.8-2.8,8,0,10.8l89.2,89.2c2.8,2.8,8,2.8,10.8,0l132.8-132.8c2.8-2.8,2.8-8,0-10.8
		l-11.2-11.2c-2.8-2.8-8-2.8-10.8,0L234.4,306c-1.6,1.6-4,1.6-5.6,0l-69.6-69.6C158,234.4,156,233.6,154,233.6z"/>
</svg>
