<?xml version="1.0"?>

<!--
 * Copyright (c) 2019, WSO2 Inc. (http://www.wso2.org) All Rights Reserved.
 *
 * WSO2 Inc. licenses this file to you under the Apache License,
 * Version 2.0 (the "License"); you may not use this file except
 * in compliance with the License.
 * You may obtain a copy of the License at
 *
 * http://www.apache.org/licenses/LICENSE-2.0
 *
 * Unless required by applicable law or agreed to in writing,
 * software distributed under the License is distributed on an
 * "AS IS" BASIS, WITHOUT WARRANTIES OR CONDITIONS OF ANY
 * KIND, either express or implied. See the License for the
 * specific language governing permissions and limitations
 * under the License.
-->

<svg version="1.1" id="traffic-cone-icon" class="icon" height="14px" width="14px" xmlns="http://www.w3.org/2000/svg" xmlns:xlink="http://www.w3.org/1999/xlink" x="0px" y="0px"
     viewBox="0 0 512 512" xml:space="preserve">
	<path style="fill:#FF9B46;" d="M100.224,466.756l117.34-451.308c1.05-4.039,4.696-6.858,8.869-6.858h59.135
	c4.173,0,7.819,2.819,8.869,6.858l117.34,451.308"/>
    <g>
		<path style="fill:#FF823C;" d="M249.043,8.591h-22.61c-4.173,0-7.819,2.819-8.869,6.858l-117.34,451.308h119.123l27.609-451.308
		C247.203,11.409,248.061,8.591,249.043,8.591z"/>
        <path style="fill:#FF823C;" d="M457.593,466.756H54.407c-5.06,0-9.163,4.103-9.163,9.163v18.327c0,5.06,4.103,9.163,9.163,9.163
		h403.186c5.06,0,9.163-4.103,9.163-9.163v-18.327C466.756,470.859,462.653,466.756,457.593,466.756z"/>
	</g>
    <path style="fill:#F56E2D;" d="M201.02,494.246v-18.327c0-5.06,4.103-9.163,9.163-9.163H54.407c-5.06,0-9.163,4.103-9.163,9.163
	v18.327c0,5.06,4.103,9.163,9.163,9.163h155.776C205.123,503.409,201.02,499.307,201.02,494.246z"/>
    <g>
		<polygon style="fill:#E4EAF8;" points="124.048,375.123 387.952,375.123 373.658,320.143 138.343,320.143 	"/>
        <polygon style="fill:#E4EAF8;" points="171.698,191.857 340.302,191.857 326.008,136.877 185.992,136.877 	"/>
	</g>
    <g>
		<polygon style="fill:#C7CFE2;" points="171.698,191.857 236.165,191.857 239.528,136.877 185.992,136.877 	"/>
        <polygon style="fill:#C7CFE2;" points="124.048,375.123 224.952,375.123 228.316,320.143 138.343,320.143 	"/>
	</g>
    <path d="M338.467,458.166h-18.324c-4.744,0-8.591,3.846-8.591,8.591c0,4.744,3.846,8.591,8.591,8.591h18.324
	c4.744,0,8.591-3.846,8.591-8.591C347.058,462.012,343.212,458.166,338.467,458.166z"/>
    <path d="M457.593,458.166h-39.174L302.75,13.287C300.717,5.464,293.651,0,285.568,0h-59.135c-8.083,0-15.149,5.464-17.182,13.287
	L93.581,458.166H54.407c-9.79,0-17.754,7.964-17.754,17.754v18.327c0,9.79,7.964,17.754,17.754,17.754h403.186
	c9.79,0,17.754-7.964,17.754-17.754v-18.327C475.347,466.13,467.383,458.166,457.593,458.166z M144.985,328.734h138.506
	c4.744,0,8.591-3.846,8.591-8.591c0-4.744-3.846-8.591-8.591-8.591H149.452l28.887-111.105h155.319l28.887,111.105H320.14
	c-4.744,0-8.591,3.846-8.591,8.591c0,4.744,3.846,8.591,8.591,8.591h46.874l9.828,37.799H135.158L144.985,328.734z M225.878,17.61
	c0.065-0.252,0.293-0.428,0.554-0.428h59.135c0.261,0,0.489,0.176,0.554,0.428l28.776,110.677h-13.084
	c-4.744,0-8.591,3.846-8.591,8.591c0,4.744,3.846,8.591,8.591,8.591h17.551l9.828,37.799H182.807l9.828-37.799h72.529
	c4.744,0,8.591-3.846,8.591-8.591c0-4.744-3.846-8.591-8.591-8.591h-68.062L225.878,17.61z M458.166,494.246
	c0,0.316-0.257,0.573-0.573,0.573H54.407c-0.316,0-0.573-0.257-0.573-0.573v-18.327c0-0.316,0.257-0.573,0.573-0.573H283.49
	c4.744,0,8.591-3.846,8.591-8.591c0-4.744-3.846-8.591-8.591-8.591H111.333l19.357-74.452h250.618l19.358,74.452h-25.545
	c-4.744,0-8.591,3.846-8.591,8.591c0,4.744,3.846,8.591,8.591,8.591h82.472c0.316,0,0.573,0.257,0.573,0.573V494.246z"/>
</svg>
