<svg width="35" height="31" viewBox="0 0 35 31" fill="none" xmlns="http://www.w3.org/2000/svg">
<path d="M12.2009 0.0487851C9.71209 0.356423 7.78026 1.79367 6.74037 4.10575C6.16169 5.38918 5.9485 6.44668 5.90499 8.2156C5.81797 11.7871 6.74472 14.9259 8.45901 16.8871C8.98983 17.4928 9.06815 17.6322 9.06815 17.9591C9.06815 18.6753 8.54603 19.1463 6.93617 19.8962C5.69179 20.473 4.8651 20.872 4.42565 21.1075C1.94124 22.4246 0.531523 24.2176 0.192146 26.4816C0.065968 27.3035 -0.0384555 29.0677 0.0137562 29.3897C0.139935 30.13 0.718615 30.7693 1.42347 30.9519C1.54095 30.9808 5.62217 31 12.5794 31H23.5482L23.6787 30.8798C23.9006 30.6731 23.8745 30.2309 23.6352 30.0771C23.5526 30.0242 21.5598 30.0098 12.5489 29.9906C1.93689 29.9665 1.55835 29.9617 1.41042 29.8752C1.02754 29.6541 0.888304 29.4041 0.888304 28.9475C0.888304 28.4139 1.05364 26.7508 1.14936 26.3085C1.45828 24.8569 2.28497 23.684 3.67293 22.713C4.30818 22.2708 5.7266 21.5305 7.42348 20.7566C8.03697 20.4778 8.58519 20.1798 8.8506 19.9779C9.83392 19.2329 10.2212 18.0985 9.82087 17.1467C9.72515 16.9208 9.56416 16.6901 9.23784 16.3055C8.65045 15.6229 8.26757 15.0221 7.91514 14.2482C7.21028 12.6811 6.80564 10.5998 6.80564 8.51843C6.80564 6.1054 7.38432 4.31245 8.6113 2.94731C9.45104 2.00997 10.3734 1.48122 11.6874 1.18801C12.1051 1.09668 12.314 1.07745 13.0711 1.07745C13.9761 1.07745 14.2763 1.1111 14.9637 1.30337C16.1211 1.62062 17.0696 2.19263 17.8354 3.04344C18.6186 3.90867 19.1755 5.09116 19.4235 6.40342C19.889 8.86452 19.3887 12.4312 18.2705 14.6087C17.9267 15.2816 17.6526 15.6902 17.1392 16.2911C16.5779 16.9592 16.4648 17.19 16.4344 17.7524C16.3821 18.6657 16.8259 19.4828 17.6831 20.0452C17.8441 20.1462 18.5098 20.5019 19.1668 20.8287C22.0297 22.2564 22.9913 22.7659 22.9913 22.8572C22.9913 22.9341 22.7433 23.1649 22.5692 23.2418C22.4909 23.2802 22.2299 23.3283 21.9819 23.3523C21.4771 23.4052 21.2509 23.4773 20.9724 23.6888C20.7375 23.8667 20.5852 24.0637 20.4329 24.3858L20.3154 24.6309L20.3024 26.6546C20.2893 28.6014 20.2937 28.6879 20.3807 28.9475C20.5069 29.3176 20.7592 29.6204 21.1073 29.8079L21.3988 29.9617L27.7295 29.9665H34.0645L34.2864 29.8367C34.578 29.6685 34.7694 29.4474 34.8956 29.1494L35 28.909V21.9151C35 14.9836 34.9956 14.9211 34.9086 14.7048C34.7955 14.426 34.5954 14.2001 34.3256 14.0415L34.108 13.9117L32.1153 13.8973C30.3096 13.8829 30.1225 13.8781 30.1443 13.8059C30.1617 13.7627 30.227 13.532 30.2879 13.2916C30.4315 12.7677 30.4445 12.1476 30.3314 11.7246C30.1313 10.9843 29.5004 10.3018 28.7694 10.0374C28.4909 9.93645 28.3735 9.92203 27.7991 9.92203C27.203 9.92683 27.116 9.93645 26.8071 10.0566C25.6715 10.494 25.0058 11.5948 25.1624 12.7773C25.1929 12.984 25.2582 13.3157 25.3147 13.5175C25.3713 13.7194 25.4061 13.8973 25.393 13.9117C25.38 13.9261 24.6142 13.9357 23.6874 13.9357H22.0036L21.7339 14.0847C21.4467 14.2434 21.2596 14.4741 21.1552 14.7914C21.1117 14.9259 21.0986 15.4883 21.0986 17.1803C21.0986 19.2713 21.103 19.4011 21.1813 19.5453C21.2901 19.7424 21.5468 19.8962 21.76 19.8962C21.8557 19.8962 22.0732 19.8433 22.2429 19.7808C22.6998 19.6078 22.8912 19.5886 23.2088 19.6751C23.6004 19.7857 23.8832 19.9731 24.2096 20.3288C25.0624 21.2614 25.1842 22.6553 24.5098 23.7657C24.0399 24.5444 23.4046 24.9434 22.6432 24.9434C22.3996 24.9434 22.2821 24.9674 22.182 25.0347C21.8905 25.2318 21.9079 25.7077 22.2125 25.8855C22.4126 25.9961 23.161 25.9576 23.5569 25.8086C24.8579 25.3279 25.8194 23.7994 25.8281 22.2035C25.8281 21.6507 25.789 21.3911 25.6149 20.8864C25.1494 19.5213 23.7049 18.4349 22.6389 18.6464C22.4866 18.6801 22.2951 18.733 22.2125 18.7714C22.1341 18.8099 22.0515 18.8387 22.0297 18.8387C22.008 18.8387 21.9906 18.0264 21.9906 17.0073V15.1759L22.1167 15.0365L22.2429 14.8971H23.8919C24.9449 14.8971 25.5975 14.8779 25.7107 14.8442C25.9587 14.7673 26.1632 14.5798 26.2632 14.3347C26.359 14.0992 26.359 14.128 26.1588 13.1907C26.0065 12.4745 26.0109 12.2389 26.1893 11.84C26.5069 11.1237 27.351 10.768 28.2777 10.9603C28.7781 11.0612 29.2132 11.4121 29.4046 11.8688C29.5439 12.2053 29.5265 12.7196 29.3481 13.407C29.1827 14.0415 29.1871 14.2434 29.3742 14.5077C29.6396 14.8683 29.5917 14.8635 31.8412 14.8683C33.6817 14.8731 33.86 14.8779 33.9688 14.9596C34.0341 15.0029 34.0993 15.1038 34.1168 15.1759C34.1385 15.248 34.1516 18.3003 34.1516 21.9631C34.1516 29.1349 34.1646 28.7456 33.9253 28.9234C33.8122 29.0004 33.4554 29.0052 27.6729 28.9907C22.5214 28.9763 21.5207 28.9667 21.4249 28.909C21.1813 28.7696 21.1639 28.6158 21.1639 26.8036C21.1639 25.7702 21.1813 25.0876 21.2117 24.9674C21.3162 24.5396 21.6033 24.3666 22.2821 24.3185C22.6911 24.2897 22.8085 24.2608 23.0217 24.1503C23.6657 23.7994 24.1487 22.8716 23.9311 22.4006C23.8919 22.3189 23.7745 22.1843 23.6744 22.1025C23.409 21.8814 21.264 20.7518 19.2277 19.752C18.7273 19.5069 18.2139 19.2329 18.0921 19.1463C17.4786 18.7185 17.2001 18.084 17.4003 17.5601C17.4351 17.4688 17.6352 17.19 17.8484 16.9496C18.314 16.4161 18.5576 16.0604 18.9449 15.3297C19.306 14.652 19.5714 14.003 19.8107 13.2147C20.2632 11.7198 20.4547 10.494 20.4938 8.81645C20.546 6.81681 20.2893 5.36515 19.6541 4.03365C18.9753 2.60602 17.9833 1.55332 16.665 0.856334C15.3945 0.188183 13.641 -0.129068 12.2009 0.0487851Z" fill="black"/>
</svg>
