<svg width="12" height="14" viewBox="0 0 12 14" fill="none" xmlns="http://www.w3.org/2000/svg">
<path d="M5.60243 0.0133598C4.38008 0.170785 3.40835 0.907452 2.99944 1.98924C2.71583 2.736 2.73342 3.75321 3.04121 4.46364C3.18411 4.79262 3.3446 5.03884 3.59302 5.31131C3.85245 5.59589 3.90301 5.77147 3.78649 5.98541C3.68536 6.16907 3.49629 6.2821 2.88951 6.51218C2.4762 6.66758 2.07827 6.85125 1.84524 6.99253C0.979035 7.51526 0.396439 8.21156 0.139217 9.02492C0.016102 9.4205 0.0139035 9.44674 0.00291111 10.6395C-0.00368433 11.4327 0.00071263 11.7718 0.0183005 11.8263C0.0336898 11.8767 0.066667 11.9171 0.112835 11.9413C0.178789 11.9797 0.229354 11.9817 1.09116 11.9817C1.80127 11.9817 1.99693 11.9877 1.99693 12.0059C1.99693 12.02 1.97714 12.0907 1.95076 12.1633C1.8892 12.349 1.87382 12.6215 1.91779 12.8092C2.10246 13.6084 3.03241 14.0262 3.81507 13.6649C4.12286 13.5216 4.39767 13.229 4.50539 12.9282C4.59333 12.682 4.57794 12.2703 4.47022 12.016C4.45483 11.9837 4.50319 11.9817 5.28365 11.9817H6.11248L6.18723 11.9131L6.26198 11.8444V10.5487C6.26198 9.39224 6.25758 9.24491 6.2268 9.18436C6.18283 9.10161 6.12787 9.06125 6.01355 9.03299C5.90362 9.00676 5.80909 9.03299 5.63541 9.13592C5.55846 9.18234 5.42216 9.24289 5.33422 9.27115C5.01104 9.37408 4.64829 9.30142 4.39327 9.08345C4.17122 8.89373 4.0569 8.60714 4.10087 8.34678C4.17782 7.90075 4.54716 7.59599 5.00884 7.59801C5.23089 7.60002 5.42875 7.65855 5.63981 7.78974C5.7981 7.88662 5.82008 7.89469 5.9432 7.89469C6.04653 7.89469 6.0905 7.8846 6.14985 7.84625C6.29056 7.75341 6.28396 7.8402 6.28396 5.88652V4.11044H6.42247C7.00067 4.11044 7.45575 3.67248 7.45795 3.1114C7.45795 2.79453 7.35462 2.56647 7.11059 2.34244C6.89074 2.14263 6.71266 2.07401 6.41147 2.07199H6.26198V1.26469C6.26198 0.338301 6.2334 0.435177 6.50161 0.487652C7.2447 0.630949 7.94161 1.12139 8.29117 1.74705C8.48903 2.10227 8.56818 2.32428 8.62534 2.69765C8.73526 3.40607 8.57697 4.16292 8.20543 4.70785C8.14827 4.79463 8.01636 4.95609 7.91523 5.0671C7.6712 5.33351 7.60085 5.46873 7.58546 5.70285C7.57007 5.98137 7.64922 6.18926 7.85148 6.38503C8.01196 6.54043 8.22082 6.65346 8.71768 6.84721C9.21893 7.04298 9.53551 7.18628 9.82131 7.34976C10.4918 7.72919 11.0063 8.30642 11.2723 8.96841C11.3383 9.13592 11.4086 9.39628 11.4504 9.63242C11.4834 9.82819 11.5449 9.87865 11.7274 9.86654C11.7538 9.86452 11.7999 9.8403 11.8329 9.81204C11.8813 9.77168 11.8901 9.74746 11.8901 9.64856C11.8901 9.40435 11.7384 8.87153 11.5603 8.50017C11.4834 8.33871 11.3009 8.05615 11.1624 7.8846C10.6875 7.29527 10.006 6.8573 8.99908 6.48998C8.38351 6.26797 8.14387 6.11256 8.07572 5.89661C8.01636 5.71496 8.06693 5.57368 8.26479 5.36782C8.88916 4.71794 9.19914 3.80972 9.12 2.86921C9.05184 2.04172 8.73307 1.37367 8.16366 0.85094C7.70638 0.431141 7.18314 0.168766 6.56317 0.0517068C6.30814 0.00326842 5.82668 -0.014896 5.60243 0.0133598ZM5.8003 1.37165C5.8003 2.23749 5.80249 2.31015 5.83987 2.37473C5.90582 2.48775 5.99156 2.51601 6.28396 2.51601C6.50161 2.51601 6.55218 2.52207 6.64671 2.56445C6.84897 2.64922 6.97868 2.8349 7.00067 3.06498C7.01825 3.23048 6.9567 3.3879 6.82479 3.51102C6.69288 3.63615 6.58076 3.66642 6.25758 3.66642C6.11248 3.66642 5.97617 3.6745 5.95419 3.6866C5.93221 3.6967 5.89263 3.73504 5.86625 3.76734L5.81788 3.8299L5.82008 5.60396C5.82228 6.5808 5.81788 7.38003 5.81129 7.38003C5.80469 7.38003 5.74753 7.3538 5.68378 7.3215C5.40017 7.17619 4.99346 7.12977 4.67907 7.20646C4.16023 7.33563 3.74912 7.74534 3.65458 8.2277C3.50509 8.99061 4.11406 9.70306 4.94729 9.73737C5.25947 9.74948 5.40677 9.71517 5.78491 9.54361C5.7937 9.53958 5.8003 9.99167 5.8003 10.5467V11.5578H4.97147C4.17782 11.5578 4.13825 11.5599 4.0679 11.5982C3.9206 11.681 3.90081 11.8323 4.01074 12.0564C4.12286 12.2925 4.15584 12.5488 4.09648 12.7567C3.98216 13.1583 3.51828 13.4429 3.09177 13.3743C2.72243 13.3137 2.45201 13.0877 2.35748 12.7607C2.29592 12.5468 2.3245 12.3551 2.4696 12.0362C2.55754 11.8384 2.56414 11.7758 2.50258 11.685C2.41904 11.5578 2.42563 11.5578 1.39235 11.5578H0.455797L0.464591 10.5628C0.473385 9.57994 0.473385 9.56783 0.528347 9.35793C0.673447 8.81502 0.877905 8.43962 1.25165 8.03395C1.68475 7.56571 2.22117 7.23875 3.11815 6.89565C3.60402 6.70997 3.81287 6.60098 3.99974 6.43145C4.43064 6.0399 4.43504 5.54745 4.01293 5.09737C3.57324 4.62712 3.36218 4.17704 3.29183 3.56753C3.25886 3.27084 3.27864 2.79049 3.3358 2.53417C3.54466 1.58963 4.19321 0.865068 5.09678 0.568383C5.23749 0.521963 5.63981 0.443251 5.76292 0.439214C5.7981 0.437196 5.8003 0.493707 5.8003 1.37165Z" fill="black"/>
<path d="M8.85636 9.22276C8.77282 9.28533 8.75743 9.3257 8.74644 9.52349L8.73545 9.72329L8.58595 9.78182L8.43645 9.84035L8.27816 9.70917C8.11548 9.57394 8.05612 9.5477 7.97258 9.56587C7.90003 9.58403 7.2141 10.2238 7.19651 10.2904C7.17013 10.3853 7.20531 10.4519 7.34161 10.577L7.47352 10.6981L7.40977 10.8394L7.34821 10.9827L7.13715 10.9928C6.80079 11.0089 6.78979 11.0271 6.78979 11.6184C6.78979 12.1916 6.79859 12.2078 7.13715 12.2239L7.34381 12.234L7.41196 12.3713L7.47792 12.5065L7.33062 12.6457C7.20311 12.7689 7.18552 12.7951 7.18552 12.8637C7.18552 12.9061 7.19431 12.9505 7.20311 12.9646C7.24928 13.0312 7.84067 13.5822 7.89123 13.6085C8.01215 13.665 8.09569 13.6468 8.23419 13.5338C8.30455 13.4773 8.3727 13.4187 8.38589 13.4026C8.40568 13.3804 8.43426 13.3864 8.55078 13.4288C8.62772 13.4571 8.70467 13.4894 8.72006 13.4995C8.73765 13.5136 8.74644 13.5762 8.74644 13.6811C8.74644 13.8506 8.77942 13.9415 8.85417 13.9798C8.88055 13.9919 9.10039 14 9.40598 14H9.91603L9.97979 13.9415C10.0325 13.893 10.0435 13.8648 10.0435 13.784C10.0435 13.7316 10.0501 13.6407 10.0567 13.5842L10.0721 13.4793L10.2216 13.4329L10.3733 13.3864L10.4656 13.4672C10.6261 13.6064 10.6811 13.6367 10.7756 13.6367C10.8614 13.6367 10.879 13.6246 11.2153 13.3178C11.4088 13.1443 11.5803 12.9707 11.5979 12.9344C11.644 12.8355 11.6067 12.7567 11.4506 12.6195L11.3209 12.5045L11.3758 12.3894C11.4066 12.3269 11.4374 12.2643 11.444 12.2502C11.4506 12.236 11.5319 12.2259 11.6638 12.2199C11.8683 12.2138 11.8727 12.2118 11.9364 12.1472L12.0002 12.0826V11.6063V11.13L11.9254 11.0614C11.8507 10.9928 11.8485 10.9928 11.655 10.9928H11.4616L11.4 10.8475L11.3384 10.7001L11.4506 10.6113C11.6242 10.4741 11.6682 10.355 11.5869 10.244C11.5253 10.1572 10.9383 9.61834 10.8746 9.58807C10.7602 9.53358 10.7075 9.54972 10.5426 9.69907L10.3887 9.83632L10.2304 9.77779L10.0699 9.71724L10.0611 9.53358C10.0523 9.33175 10.0194 9.26111 9.92043 9.22075C9.84128 9.18643 8.90253 9.18845 8.85636 9.22276ZM9.60385 9.76366C9.60385 9.90897 9.65221 10.0139 9.73356 10.0523C9.76433 10.0664 9.84568 10.0947 9.91163 10.1148C9.97759 10.133 10.1051 10.1855 10.1952 10.2299C10.4063 10.3348 10.4613 10.3268 10.6415 10.1693L10.7712 10.0563L10.9339 10.2057L11.0966 10.355L10.9669 10.4801C10.8086 10.6315 10.7998 10.68 10.9053 10.8495C10.9449 10.9121 11.0065 11.0432 11.0438 11.1421C11.1274 11.3722 11.1692 11.4025 11.3978 11.4126L11.5605 11.4207V11.6205V11.8203H11.3824C11.2175 11.8203 11.2021 11.8243 11.1428 11.8768C11.1054 11.9131 11.0724 11.9716 11.057 12.0382C11.0438 12.0968 10.9823 12.232 10.9207 12.341C10.7866 12.5771 10.7888 12.5973 10.9647 12.7567L11.0922 12.8718L10.9295 13.0151L10.769 13.1604L10.6635 13.0676C10.5316 12.9525 10.4635 12.9101 10.4041 12.9101C10.3799 12.9101 10.2854 12.9465 10.193 12.9888C10.1029 13.0333 9.96879 13.0857 9.89405 13.1039C9.8193 13.1221 9.72696 13.1624 9.68739 13.1927C9.61704 13.2472 9.61484 13.2553 9.60604 13.4228C9.60165 13.5661 9.59285 13.5963 9.56208 13.5984C9.46314 13.6004 9.32244 13.6024 9.26088 13.5984L9.19273 13.5963L9.17734 13.4389C9.15975 13.231 9.13117 13.1987 8.89154 13.12C8.78601 13.0837 8.64971 13.0272 8.59035 12.9929C8.41887 12.896 8.34412 12.9041 8.16384 13.0454L8.01874 13.1584L7.86045 13.0151L7.70216 12.8698L7.81648 12.7648C8.00775 12.5812 8.01655 12.5388 7.89123 12.347C7.84287 12.2744 7.78131 12.1513 7.75493 12.0726C7.72635 11.9898 7.68018 11.9091 7.645 11.8768C7.59004 11.8243 7.57025 11.8203 7.41856 11.8203H7.25148V11.6184V11.4166H7.38338C7.61862 11.4166 7.69557 11.3621 7.75713 11.1542C7.77251 11.1038 7.82748 10.9847 7.88024 10.8899C7.933 10.795 7.97697 10.6941 7.97697 10.6658C7.97697 10.6113 7.89123 10.4923 7.78351 10.3994L7.71755 10.3429L7.86045 10.2178C7.9396 10.1512 8.01435 10.0906 8.02534 10.0866C8.03853 10.0825 8.09349 10.1209 8.14845 10.1713C8.33313 10.3328 8.38809 10.3409 8.62113 10.2319C8.70687 10.1915 8.84757 10.135 8.93111 10.1068C9.12897 10.0381 9.16415 9.99576 9.17954 9.79595L9.19273 9.64054H9.39719H9.60385V9.76366Z" fill="black"/>
<path d="M9.10031 10.5608C8.72657 10.6516 8.40999 10.9281 8.28028 11.2692C8.20992 11.4589 8.20992 11.7919 8.28247 11.9716C8.54409 12.6335 9.41689 12.904 10.05 12.5185C10.3842 12.3147 10.5799 11.9857 10.5799 11.6284C10.5799 11.0169 10.0522 10.5245 9.3993 10.5305C9.30037 10.5305 9.16626 10.5446 9.10031 10.5608ZM9.71808 11.0209C9.96431 11.1279 10.1182 11.358 10.1204 11.6184C10.1204 11.7495 10.1116 11.7879 10.0479 11.9049C9.92034 12.1451 9.6939 12.2743 9.4059 12.2723C8.81231 12.2703 8.48253 11.689 8.81231 11.2308C8.88705 11.1279 9.04315 11.0189 9.17286 10.9806C9.31576 10.9362 9.56858 10.9543 9.71808 11.0209Z" fill="black"/>
</svg>
