<?xml version="1.0" encoding="utf-8"?>

<!--
 * Copyright (c) 2019, WSO2 Inc. (http://www.wso2.org) All Rights Reserved.
 *
 * WSO2 Inc. licenses this file to you under the Apache License,
 * Version 2.0 (the "License"); you may not use this file except
 * in compliance with the License.
 * You may obtain a copy of the License at
 *
 *     http://www.apache.org/licenses/LICENSE-2.0
 *
 * Unless required by applicable law or agreed to in writing,
 * software distributed under the License is distributed on an
 * "AS IS" BASIS, WITHOUT WARRANTIES OR CONDITIONS OF ANY
 * KIND, either express or implied. See the License for the
 * specific language governing permissions and limitations
 * under the License.
-->

<svg
    id="user-icon"
    class="icon"
    width="16"
    height="16"
    viewBox="0 0 16 16"
    fill="none"
    xmlns="http://www.w3.org/2000/svg"
>
    <path
        class="path primary"
        fill-rule="evenodd"
        clip-rule="evenodd"
        d="M11.3333 3.33333C11.3333 5.17428 9.84094 6.66667 7.99999 6.66667C6.15904 6.66667 4.66666 5.17428 4.66666 3.33333C4.66666 1.49238 6.15904 0 7.99999 0C9.84094 0 11.3333 1.49238 11.3333 3.33333ZM10.3333 3.33333C10.3333 4.622 9.28866 5.66667 7.99999 5.66667C6.71133 5.66667 5.66666 4.622 5.66666 3.33333C5.66666 2.04467 6.71133 1 7.99999 1C9.28866 1 10.3333 2.04467 10.3333 3.33333Z"
        fill="black"
    />
    <path
        class="path primary"
        fill-rule="evenodd"
        clip-rule="evenodd"
        d="M16 16C15.5699 11.3156 12.1523 7.66667 8 7.66667C3.84773 7.66667 0.430131 11.3156 0 16H16ZM14.8436 15C14.074 11.2811 11.2077 8.66667 8 8.66667C4.79226 8.66667 1.92597 11.2811 1.15643 15H14.8436Z"
        fill="black"
    />
</svg>
