<!--
 * Copyright (c) 2021, WSO2 Inc. (http://www.wso2.org) All Rights Reserved.
 *
 * WSO2 Inc. licenses this file to you under the Apache License,
 * Version 2.0 (the "License"); you may not use this file except
 * in compliance with the License.
 * You may obtain a copy of the License at
 *
 *     http://www.apache.org/licenses/LICENSE-2.0
 *
 * Unless required by applicable law or agreed to in writing,
 * software distributed under the License is distributed on an
 * "AS IS" BASIS, WITHOUT WARRANTIES OR CONDITIONS OF ANY
 * KIND, either express or implied. See the License for the
 * specific language governing permissions and limitations
 * under the License.
-->

<svg id="user-add" xmlns="http://www.w3.org/2000/svg" width="14" height="14" viewBox="0 0 13.979 14">
    <path id="user-add-path"
          d="M8.48,11.25A2.75,2.75,0,1,1,11.23,14,2.754,2.754,0,0,1,8.48,11.25Zm1.3.3h1.2v1.2h.6v-1.2h1.2v-.6h-1.2V9.75h-.6v1.2h-1.2ZM.6,11H0A6.014,6.014,0,0,1,4.6,5.661a3,3,0,1,1,2.768,0A5.984,5.984,0,0,1,10.051,7.1a6.05,6.05,0,0,1,.811.919,3.329,3.329,0,0,0-.664.133A5.389,5.389,0,0,0,.6,11h0ZM3.579,3A2.4,2.4,0,1,0,5.98.6,2.4,2.4,0,0,0,3.579,3Z"/>
</svg>
