<?xml version="1.0" encoding="iso-8859-1"?>

<!--
 * Copyright (c) 2020, WSO2 Inc. (http://www.wso2.org) All Rights Reserved.
 *
 * WSO2 Inc. licenses this file to you under the Apache License,
 * Version 2.0 (the "License"); you may not use this file except
 * in compliance with the License.
 * You may obtain a copy of the License at
 *
 *     http://www.apache.org/licenses/LICENSE-2.0
 *
 * Unless required by applicable law or agreed to in writing,
 * software distributed under the License is distributed on an
 * "AS IS" BASIS, WITHOUT WARRANTIES OR CONDITIONS OF ANY
 * KIND, either express or implied. See the License for the
 * specific language governing permissions and limitations
 * under the License.
-->

<svg id="user-group-icon" class="icon" width="16" height="16" viewBox="0 0 16 16" fill="none" xmlns="http://www.w3.org/2000/svg">
<path fill-rule="evenodd" clip-rule="evenodd" d="M5 13C2.23858 13 0 10.7614 0 8C0 5.23858 2.23858 3 5 3C6.05416 3 7.03213 3.32623 7.83846 3.88323C7.86453 3.90125 7.89043 3.91951 7.91615 3.938C7.94284 3.95719 7.96933 3.97664 7.99562 3.99635C7.99708 3.99744 7.99854 3.99854 8 3.99963C8.00146 3.99854 8.00292 3.99744 8.00439 3.99634C8.03068 3.97664 8.05717 3.95719 8.08385 3.938C8.10938 3.91964 8.13509 3.90152 8.16097 3.88363C8.96741 3.32638 9.94559 3 11 3C13.7614 3 16 5.23858 16 8C16 10.7614 13.7614 13 11 13C9.94561 13 8.96744 12.6736 8.16101 12.1164C8.13512 12.0985 8.10939 12.0804 8.08385 12.062C8.05717 12.0428 8.03068 12.0234 8.00439 12.0037C8.00292 12.0026 8.00146 12.0015 8 12.0004C7.99854 12.0015 7.99708 12.0026 7.99562 12.0037C7.96933 12.0234 7.94284 12.0428 7.91615 12.062C7.89045 12.0805 7.86456 12.0987 7.8385 12.1167C7.03217 12.6738 6.05418 13 5 13ZM9.66611 11.7722C10.0833 11.9197 10.5323 12 11 12C13.2091 12 15 10.2091 15 8C15 5.79086 13.2091 4 11 4C10.5323 4 10.0833 4.08028 9.66611 4.22781C9.33905 4.34347 9.03152 4.50045 8.74979 4.69249C8.97031 4.94229 9.16624 5.2143 9.33382 5.50473C9.75756 6.2391 10 7.09124 10 8C10 8.90876 9.75756 9.7609 9.33382 10.4953C9.16624 10.7857 8.97031 11.0577 8.74979 11.3075C9.03152 11.4996 9.33905 11.6565 9.66611 11.7722ZM6.3339 4.22781C5.9167 4.08028 5.46772 4 5 4C2.79086 4 1 5.79086 1 8C1 10.2091 2.79086 12 5 12C5.46773 12 5.9167 11.9197 6.3339 11.7722C6.66096 11.6565 6.96849 11.4996 7.25021 11.3075C7.0297 11.0577 6.83376 10.7857 6.66618 10.4953C6.24245 9.7609 6 8.90876 6 8C6 7.09123 6.24244 6.23909 6.66618 5.50473C6.83376 5.2143 7.0297 4.94229 7.25021 4.69248C6.96849 4.50045 6.66095 4.34346 6.3339 4.22781ZM7.41622 9.77864C7.14981 9.24289 7 8.63894 7 8C7 7.36106 7.14981 6.75711 7.41622 6.22136C7.57279 5.9065 7.76963 5.61519 8 5.35418C8.23038 5.61519 8.42722 5.9065 8.58378 6.22136C8.85019 6.75711 9 7.36106 9 8C9 8.63894 8.85019 9.24289 8.58378 9.77864C8.42722 10.0935 8.23038 10.3848 8 10.6458C7.76963 10.3848 7.57279 10.0935 7.41622 9.77864Z" fill="black"/>
</svg>
