<!--
 * Copyright (c) 2021, WSO2 Inc. (http://www.wso2.org) All Rights Reserved.
 *
 * WSO2 Inc. licenses this file to you under the Apache License,
 * Version 2.0 (the "License"); you may not use this file except
 * in compliance with the License.
 * You may obtain a copy of the License at
 *
 *     http://www.apache.org/licenses/LICENSE-2.0
 *
 * Unless required by applicable law or agreed to in writing,
 * software distributed under the License is distributed on an
 * "AS IS" BASIS, WITHOUT WARRANTIES OR CONDITIONS OF ANY
 * KIND, either express or implied. See the License for the
 * specific language governing permissions and limitations
 * under the License.
-->

<svg id="user-add-path" class="icon" width="24" height="24" viewBox="0 0 24 24" fill="none" xmlns="http://www.w3.org/2000/svg">
<path fill-rule="evenodd" clip-rule="evenodd" d="M2.14082 14.4334C3.21897 12.108 5.54506 10.5 8.25 10.5C10.1602 10.5 11.8815 11.3019 13.1077 12.5921C13.2368 12.728 13.3605 12.8692 13.4782 13.0155C13.4916 13.0321 13.5056 13.0482 13.52 13.0637C13.5362 13.081 13.553 13.0977 13.5704 13.1136C13.8355 13.3554 14.2307 13.4183 14.541 13.2244C14.8948 13.0033 15.0029 12.5337 14.7478 12.2037C14.7144 12.1605 14.6806 12.1176 14.6464 12.0751C14.6424 12.0701 14.6385 12.0652 14.6345 12.0603C14.4867 11.8774 14.3313 11.701 14.1689 11.5314C12.6749 9.97233 10.5824 9 8.25 9C4.01185 9 0.566148 12.2103 0.0631894 16.3179C0.0557784 16.3784 0.0490063 16.4391 0.04288 16.5C0.0145208 16.7819 0 17.0679 0 17.3571V18H9.75C9.33579 18 9 17.6642 9 17.25C9 16.8358 9.33579 16.5 9.75 16.5H1.55204C1.61571 15.9796 1.73661 15.4774 1.90818 15C1.97758 14.8069 2.05527 14.6179 2.14082 14.4334ZM8.25 1.5C7.00736 1.5 6 2.50736 6 3.75C6 4.99264 7.00736 6 8.25 6C9.49264 6 10.5 4.99264 10.5 3.75C10.5 2.50736 9.49264 1.5 8.25 1.5ZM8.25 0C10.3211 0 12 1.67893 12 3.75C12 5.82107 10.3211 7.5 8.25 7.5C6.17893 7.5 4.5 5.82107 4.5 3.75C4.5 1.67893 6.17893 0 8.25 0ZM19.5 14.25C19.5 13.8358 19.1642 13.5 18.75 13.5C18.3358 13.5 18 13.8358 18 14.25V18H14.25C13.8358 18 13.5 18.3358 13.5 18.75C13.5 19.1642 13.8358 19.5 14.25 19.5H18V23.25C18 23.6642 18.3358 24 18.75 24C19.1642 24 19.5 23.6642 19.5 23.25V19.5H23.25C23.6642 19.5 24 19.1642 24 18.75C24 18.3358 23.6642 18 23.25 18H19.5V14.25Z" fill="black"/>
</svg>
