<?xml version="1.0" encoding="iso-8859-1"?>

<!--
 * Copyright (c) 2019, WSO2 Inc. (http://www.wso2.org) All Rights Reserved.
 *
 * WSO2 Inc. licenses this file to you under the Apache License,
 * Version 2.0 (the "License"); you may not use this file except
 * in compliance with the License.
 * You may obtain a copy of the License at
 *
 *     http://www.apache.org/licenses/LICENSE-2.0
 *
 * Unless required by applicable law or agreed to in writing,
 * software distributed under the License is distributed on an
 * "AS IS" BASIS, WITHOUT WARRANTIES OR CONDITIONS OF ANY
 * KIND, either express or implied. See the License for the
 * specific language governing permissions and limitations
 * under the License.
-->

<svg version="1.1" class="icon" id="user-icon" xmlns="http://www.w3.org/2000/svg" xmlns:xlink="http://www.w3.org/1999/xlink" x="0px" y="0px"
	 width="14px" height="14px" viewBox="0 0 512 512" xml:space="preserve">
	<g>
		<g>
			<path class="path fill primary" d="M437.02,330.98c-27.883-27.882-61.071-48.523-97.281-61.018C378.521,243.251,404,198.548,404,148
				C404,66.393,337.607,0,256,0S108,66.393,108,148c0,50.548,25.479,95.251,64.262,121.962
				c-36.21,12.495-69.398,33.136-97.281,61.018C26.629,379.333,0,443.62,0,512h40c0-119.103,96.897-216,216-216s216,96.897,216,216
				h40C512,443.62,485.371,379.333,437.02,330.98z M256,256c-59.551,0-108-48.448-108-108S196.449,40,256,40
				c59.551,0,108,48.448,108,108S315.551,256,256,256z"/>
		</g>
	</g>
</svg>
