<!--
 * Copyright (c) 2025, WSO2 LLC. (https://wso2.com).
 *
 * WSO2 LLC. licenses this file to you under the Apache License,
 * Version 2.0 (the "License"); you may not use this file except
 * in compliance with the License.
 * You may obtain a copy of the License at
 *
 *     http://www.apache.org/licenses/LICENSE-2.0
 *
 * Unless required by applicable law or agreed to in writing,
 * software distributed under the License is distributed on an
 * "AS IS" BASIS, WITHOUT WARRANTIES OR CONDITIONS OF ANY
 * KIND, either express or implied. See the License for the
 * specific language governing permissions and limitations
 * under the License.
-->

<svg fill="none" xmlns="http://www.w3.org/2000/svg" viewBox="31.6 43.4 260.7 244.91">
    <path d="M31.6 75C31.6 57.5478 45.7478 43.4 63.2 43.4H252.8C270.253 43.4 284.4 57.5478 284.4 75V124.704C279.662 120.464 274.353 116.849 268.6 113.991V75C268.6 66.274 261.526 59.2 252.8 59.2H63.2C54.474 59.2 47.4 66.274 47.4 75V201.4C47.4 210.126 54.474 217.2 63.2 217.2H177.873C179.071 218.99 180.349 220.723 181.7 222.393V233H63.2C45.7478 233 31.6 218.853 31.6 201.4V75Z" fill="#212121"></path>
    <path d="M292.3 177.7C292.3 192.77 286.272 206.431 276.497 216.405L276.5 280.4C276.5 286.91 269.068 290.626 263.86 286.72L241.74 270.13C238.931 268.024 235.069 268.024 232.26 270.13L210.14 286.72C204.932 290.626 197.5 286.91 197.5 280.4V216.402C187.726 206.428 181.7 192.768 181.7 177.7C181.7 147.159 206.459 122.4 237 122.4C267.541 122.4 292.3 147.159 292.3 177.7ZM237 233C228.514 233 220.487 231.095 213.3 227.679V260.65L232.936 248.868C235.437 247.367 238.563 247.367 241.064 248.868L260.7 260.65V227.679C253.517 231.091 245.481 233 237 233ZM237 217.2C258.815 217.2 276.5 199.515 276.5 177.7C276.5 155.885 258.815 138.2 237 138.2C215.185 138.2 197.5 155.885 197.5 177.7C197.5 199.515 215.185 217.2 237 217.2Z" fill="#212121"></path>
    <path d="M79 98.7C79 94.337 82.537 90.8 86.9 90.8H229.1C233.462 90.8 237 94.337 237 98.7C237 103.063 233.462 106.6 229.1 106.6H86.9C82.537 106.6 79 103.063 79 98.7Z" fill="#212121"></path>
    <path d="M86.9 169.8C82.537 169.8 79 173.338 79 177.7C79 182.062 82.537 185.6 86.9 185.6H150.1C154.463 185.6 158 182.062 158 177.7C158 173.338 154.463 169.8 150.1 169.8H86.9Z" fill="#212121"></path>
    <path d="M86.9 128.72C82.537 128.72 79 132.258 79 136.62C79 140.982 82.537 144.52 86.9 144.52H150.1C154.463 144.52 158 140.982 158 136.62C158 132.258 154.463 128.72 150.1 128.72H86.9Z" fill="#212121"></path>
</svg>
