<?xml version="1.0" encoding="UTF-8" standalone="no"?>

<!--
 * Copyright (c) 2022, WSO2 Inc. (http://www.wso2.com). All Rights Reserved.
 *
 * This software is the property of WSO2 Inc. and its suppliers, if any.
 * Dissemination of any information or reproduction of any material contained
 * herein in any form is strictly forbidden, unless permitted by WSO2 expressly.
 * You may not alter or remove any copyright or other notice from copies of this content."
-->

<svg width="512px" height="213px" viewBox="0 0 512 213"
     version="1.1" xmlns="http://www.w3.org/2000/svg"
     preserveAspectRatio="xMidYMid">
    <g>
        <path d="M348.727318,151.667375 C348.727318,151.667375 346.474206,143.74264 354.865102,128.437026 C363.178304,113.209105 369.704556,121.522307 369.704556,121.522307 C369.704556,121.522307 376.852356,129.291654 368.69454,140.867982 C360.536726,152.522003 348.727318,151.667375 348.727318,151.667375 M284.6302,162.699848 C275.073904,187.717147 251.843554,177.539302 251.843554,177.539302 C251.843554,177.539302 249.201976,168.604552 256.738244,143.50956 C264.27451,118.492261 281.988622,128.281639 281.988622,128.281639 C281.988622,128.281639 294.186498,137.682549 284.6302,162.699848 M267.304556,57.8913506 C267.304556,57.8913506 281.755542,20.2100152 285.251748,38.5456752 C288.747956,56.8813354 254.951294,111.422155 254.951294,111.422155 C255.262068,99.1465858 267.304556,57.8913506 267.304556,57.8913506 M60.6399126,151.667375 C61.2614604,127.427011 77.1109292,116.860698 82.627166,122.143854 C88.1434028,127.427011 86.1233724,138.847951 75.7124468,145.995751 C65.3792146,153.143551 60.6399126,151.667375 60.6399126,151.667375 M498.520338,147.705008 C497.743402,139.547193 490.362522,142.577238 490.362522,142.577238 C490.362522,142.577238 478.553114,151.745068 468.142188,150.735053 C457.808956,149.647344 461.072082,126.494689 461.072082,126.494689 C461.072082,126.494689 463.325194,105.206677 457.187408,103.419727 C451.049624,101.632777 443.513358,108.935964 443.513358,108.935964 C443.513358,108.935964 434.112446,119.346889 429.683918,132.55478 L428.440824,132.943247 C428.440824,132.943247 429.839306,109.712898 428.207742,104.429742 C426.964648,101.788164 415.776786,102.021244 413.989836,106.682853 C412.125194,111.344461 403.190444,143.898027 402.568896,157.572079 C402.568896,157.572079 385.087864,172.411533 369.78225,174.897724 C354.476634,177.306222 350.825042,167.749924 350.825042,167.749924 C350.825042,167.749924 392.39105,156.173596 390.914874,122.998483 C389.516392,89.8233688 357.428986,102.098938 353.777394,104.818209 C350.281188,107.459788 331.55706,118.725341 326.040824,150.035812 C325.885436,151.12352 325.496968,155.785129 325.496968,155.785129 C325.496968,155.785129 309.41442,166.584522 300.47967,169.459181 C300.47967,169.459181 325.496968,127.349317 294.963434,108.159029 C281.133994,99.845827 270.101522,117.326859 270.101522,117.326859 C270.101522,117.326859 311.43445,71.3323216 302.26662,32.4078908 C297.915786,13.9168437 288.670262,11.8968134 280.12398,14.9268589 C267.226862,20.0546282 262.332174,27.5132018 262.332174,27.5132018 C262.332174,27.5132018 245.628076,51.753566 241.743402,87.8033384 C237.858728,123.853111 232.187106,167.361457 232.187106,167.361457 C232.187106,167.361457 224.26237,175.130804 216.959184,175.519272 C209.655998,175.907739 212.919124,153.765099 212.919124,153.765099 C212.919124,153.765099 218.590748,119.968437 218.20228,114.296813 C217.813812,108.62519 217.425346,105.517451 210.666012,103.49742 C203.984374,101.47739 196.603494,110.023672 196.603494,110.023672 C196.603494,110.023672 177.257819,139.314112 175.626256,143.820334 L174.61624,145.684977 L173.606225,144.441882 C173.606225,144.441882 187.280277,104.507436 174.227773,103.963581 C161.175269,103.342033 152.628987,118.181487 152.628987,118.181487 C152.628987,118.181487 137.789533,143.043399 137.167985,145.840364 L136.15797,144.597269 C136.15797,144.597269 142.295755,115.695296 141.052659,108.547496 C139.809564,101.399697 133.127925,102.875873 133.127925,102.875873 C133.127925,102.875873 124.581642,101.865857 122.328532,107.382094 C120.075421,112.898331 111.917606,149.336571 110.907591,160.912898 C110.907591,160.912898 89.5418852,176.218513 75.4793664,176.3739 C61.4168474,176.60698 62.8930234,167.43915 62.8930234,167.43915 C62.8930234,167.43915 114.403797,149.802731 100.341278,114.996055 C94.0481068,106.061305 86.6672268,103.26434 76.3339946,103.419727 C65.9230688,103.652807 53.7251934,109.945979 45.334298,128.670106 C41.3719308,137.604856 39.7403678,146.073445 39.7403678,152.522003 L39.7403678,152.522003 C39.7403678,152.522003 30.106377,154.386646 25.211688,150.268892 C20.316999,146.228832 17.520034,150.268892 17.520034,150.268892 C17.520034,150.268892 8.97375174,162.466768 17.2869536,165.729894 C25.6001554,168.99302 38.4972722,172.023065 38.4972722,172.023065 L38.4972722,172.023065 C39.6626744,177.306222 43.1588808,185.930197 53.336726,193.621851 C68.564647,205.19818 97.9327806,191.834901 97.9327806,191.834901 L109.975269,184.687102 C109.975269,184.687102 110.363737,195.486495 119.143099,197.118058 C127.922462,198.749621 131.574055,196.962671 146.801976,159.980577 C155.736726,141.023369 156.358274,142.033384 156.358274,142.033384 L157.368289,141.800303 C157.368289,141.800303 150.45357,178.005463 153.095148,187.794841 C155.736726,197.584219 167.313054,196.574203 167.313054,196.574203 C167.313054,196.574203 173.606225,198.827314 178.733995,180.880121 C183.861764,162.932929 193.573448,144.208801 193.573448,144.208801 L194.816544,144.208801 C194.816544,144.208801 190.543403,180.258574 197.069655,192.067982 C203.595906,203.87739 220.45539,195.564188 220.45539,195.564188 C220.45539,195.564188 232.264798,189.34871 234.129442,187.484067 C234.129442,187.484067 248.114268,199.293475 267.926104,197.118058 C312.133692,188.416388 327.827772,176.60698 327.827772,176.60698 C327.827772,176.60698 335.441734,195.797269 358.905162,197.584219 C385.787106,199.604249 400.471172,182.667071 400.471172,182.667071 C400.471172,182.667071 400.238092,193.621851 409.639002,197.506525 C419.039912,201.391198 425.333084,180.880121 425.333084,180.880121 L441.027166,138.847951 L442.425648,138.847951 C442.425648,138.847951 443.202584,165.729894 458.741278,170.236115 C474.357666,174.664643 494.480276,159.125948 494.480276,159.125948 C494.480276,159.125948 499.374966,155.862822 498.520338,147.705008"
              fill="#E24B31"/>
    </g>
</svg>
